<?xml version="1.0" encoding="UTF-8" standalone="no"?>
<!DOCTYPE svg PUBLIC "-//W3C//DTD SVG 1.1//EN" "http://www.w3.org/Graphics/SVG/1.1/DTD/svg11.dtd">
<svg xmlns="http://www.w3.org/2000/svg" version="1.1" viewBox="0.00 0.00 234.00 266.00">
<g stroke-width="2.00" fill="none" stroke-linecap="butt">
<path stroke="#9a451e" vector-effect="non-scaling-stroke" d="
  M 203.05 14.70
  Q 202.63 15.81 203.23 15.79"
/>
<path stroke="#9a451e" vector-effect="non-scaling-stroke" d="
  M 213.02 55.26
  Q 212.61 56.13 213.19 56.30"
/>
<path stroke="#7c3c29" vector-effect="non-scaling-stroke" d="
  M 207.45 57.30
  Q 207.19 57.08 206.79 56.96"
/>
<path stroke="#9a451e" vector-effect="non-scaling-stroke" d="
  M 184.78 56.39
  L 189.00 54.57"
/>
<path stroke="#ee8830" vector-effect="non-scaling-stroke" d="
  M 189.00 54.57
  Q 191.65 54.85 192.62 56.15
  Q 194.65 58.89 195.41 62.17
  A 0.54 0.54 0.0 0 0 196.45 62.20
  C 197.16 59.80 197.75 55.36 199.86 52.70
  A 1.37 1.36 -61.4 0 1 201.37 52.25
  L 206.41 53.93
  A 0.77 0.77 0.0 0 0 207.38 52.95
  L 206.22 49.66
  A 1.09 1.09 0.0 0 1 207.25 48.21
  L 219.28 48.21
  A 0.33 0.33 0.0 0 0 219.43 47.59
  Q 213.37 44.66 209.28 41.15
  A 1.32 1.32 0.0 0 1 209.48 39.00
  L 212.21 37.42
  A 1.53 1.53 0.0 0 0 212.27 34.80
  Q 209.59 33.09 210.44 29.26
  A 1.97 1.97 0.0 0 1 210.68 28.66
  L 215.55 20.65
  A 0.69 0.69 0.0 0 0 215.02 19.61
  Q 214.94 19.61 214.46 19.93
  Q 207.71 24.50 203.10 26.59
  Q 201.52 27.30 199.93 26.39
  A 0.70 0.70 0.0 0 1 199.57 25.78
  L 199.57 22.90
  A 0.79 0.79 0.0 0 0 198.25 22.32
  Q 197.14 23.33 196.23 24.69
  C 194.31 27.55 192.21 26.63 191.25 23.91
  Q 189.26 18.34 187.29 14.58
  A 0.49 0.49 0.0 0 0 186.36 14.80
  Q 186.29 21.30 184.12 28.32
  A 1.00 1.00 0.0 0 1 182.85 28.97
  L 178.89 27.65
  A 0.85 0.84 83.2 0 0 177.91 28.90
  Q 180.89 33.68 176.41 35.71
  A 0.47 0.47 0.0 0 0 176.13 36.17
  Q 176.16 36.58 176.54 36.63"
/>
<path stroke="#9a451e" vector-effect="non-scaling-stroke" d="
  M 176.54 36.63
  L 175.05 36.95"
/>
<path stroke="#9a451e" vector-effect="non-scaling-stroke" d="
  M 182.84 5.29
  Q 183.09 5.02 183.02 4.46"
/>
<path stroke="#a57027" vector-effect="non-scaling-stroke" d="
  M 189.00 54.57
  L 191.25 52.25"
/>
<path stroke="#fbd056" vector-effect="non-scaling-stroke" d="
  M 191.25 52.25
  L 195.17 52.22
  A 1.03 1.02 -90.0 0 0 196.19 51.19
  L 196.19 48.57
  A 0.75 0.75 0.0 0 1 197.22 47.88
  L 199.58 48.83
  A 0.37 0.37 0.0 0 0 200.07 48.37
  Q 199.68 47.17 199.83 46.11
  A 0.98 0.98 0.0 0 1 201.36 45.45
  Q 204.70 47.78 206.96 44.09
  A 0.75 0.74 32.6 0 0 206.73 43.08
  L 202.15 40.07
  A 1.62 1.62 0.0 0 1 201.87 37.61
  Q 202.54 36.77 204.76 35.67
  A 0.74 0.73 67.9 0 0 205.13 34.78
  Q 204.50 32.87 205.32 31.10
  A 0.36 0.35 -86.5 0 0 204.89 30.61
  C 203.22 31.15 199.15 33.80 197.22 33.61
  A 1.19 1.19 0.0 0 1 196.19 32.09
  Q 196.87 29.79 196.46 28.22
  A 0.60 0.60 0.0 0 0 195.36 28.08
  L 193.55 31.20
  A 0.96 0.96 0.0 0 1 191.82 31.04
  L 190.09 26.11
  A 0.51 0.51 0.0 0 0 189.17 26.02
  Q 187.14 29.31 187.80 32.68
  A 0.56 0.56 0.0 0 1 187.32 33.34
  C 185.53 33.56 182.73 33.12 182.83 35.86"
/>
<path stroke="#a57027" vector-effect="non-scaling-stroke" d="
  M 182.83 35.86
  L 176.54 36.63"
/>
<path stroke="#a78d44" vector-effect="non-scaling-stroke" d="
  M 191.25 52.25
  Q 197.51 43.60 190.72 37.29
  Q 188.01 34.77 182.83 35.86"
/>
<path stroke="#322420" vector-effect="non-scaling-stroke" d="
  M 163.37 67.37
  Q 161.76 70.02 160.33 72.63
  Q 160.04 73.15 160.20 73.40
  Q 160.39 73.69 160.98 73.62"
/>
<path stroke="#4a3b38" vector-effect="non-scaling-stroke" d="
  M 160.98 73.62
  Q 159.93 73.79 159.41 74.89
  A 1.35 1.33 -42.0 0 0 159.35 75.91
  L 160.47 79.09
  A 2.25 2.24 -27.4 0 1 159.65 81.66
  C 156.12 84.17 149.24 82.72 145.64 80.54
  C 142.73 78.77 134.74 72.99 135.09 68.72
  A 0.83 0.83 0.0 0 1 135.62 68.01
  C 137.15 67.43 140.56 67.19 140.45 63.99"
/>
<path stroke="#6c5e5c" vector-effect="non-scaling-stroke" d="
  M 140.45 63.99
  Q 140.77 64.01 140.91 63.71
  Q 141.12 63.27 140.79 62.92"
/>
<path stroke="#322420" vector-effect="non-scaling-stroke" d="
  M 140.79 62.92
  Q 143.87 60.31 145.37 57.50"
/>
<path stroke="#8c5e3b" vector-effect="non-scaling-stroke" d="
  M 180.25 41.83
  L 176.03 41.80"
/>
<path stroke="#9f784b" vector-effect="non-scaling-stroke" d="
  M 176.03 41.80
  C 173.86 42.46 166.90 44.56 164.69 47.18
  A 1.25 1.22 -27.1 0 0 164.40 48.05
  L 164.71 52.91"
/>
<path stroke="#8c5e3b" vector-effect="non-scaling-stroke" d="
  M 164.71 52.91
  Q 164.59 53.71 165.09 54.95
  A 2.68 2.67 49.0 0 1 164.93 57.29
  L 164.39 58.22
  A 0.81 0.81 0.0 0 1 162.93 58.10
  Q 162.02 55.68 162.16 54.55"
/>
<path stroke="#9f784b" vector-effect="non-scaling-stroke" d="
  M 162.16 54.55
  L 161.94 49.21
  A 0.49 0.49 0.0 0 0 161.16 48.83
  Q 155.57 52.83 151.61 57.75
  A 1.48 1.48 0.0 0 0 151.36 59.17
  L 154.70 68.98"
/>
<path stroke="#8c5e3b" vector-effect="non-scaling-stroke" d="
  M 154.70 68.98
  Q 154.71 70.35 154.29 71.38
  A 0.50 0.50 0.0 0 1 153.43 71.50
  Q 150.06 67.08 149.38 61.82
  A 0.70 0.70 0.0 0 0 148.07 61.59
  L 142.61 71.90
  A 1.15 1.14 -61.1 0 0 143.05 73.43
  L 150.48 77.71
  A 1.02 1.02 0.0 0 0 151.91 77.29
  L 155.74 69.79"
/>
<path stroke="#9f784b" vector-effect="non-scaling-stroke" d="
  M 155.74 69.79
  L 159.26 64.96"
/>
<path stroke="#8c5e3b" vector-effect="non-scaling-stroke" d="
  M 159.26 64.96
  L 163.64 59.78
  A 3.63 3.46 1.4 0 1 164.30 59.18
  Q 170.33 55.02 175.95 52.61
  C 180.39 50.72 187.04 52.97 189.59 46.29
  Q 190.33 44.34 188.69 42.18"
/>
<path stroke="#9f784b" vector-effect="non-scaling-stroke" d="
  M 188.69 42.18
  Q 187.68 40.42 186.00 40.40
  Q 182.36 40.35 180.25 41.83"
/>
<path stroke="#dba971" vector-effect="non-scaling-stroke" d="
  M 188.69 42.18
  Q 185.10 45.49 180.07 46.43
  A 0.51 0.51 0.0 0 1 179.47 45.83
  L 180.25 41.83"
/>
<path stroke="#dba971" vector-effect="non-scaling-stroke" d="
  M 159.26 64.96
  Q 159.26 63.81 158.54 63.84
  A 0.37 0.34 -69.2 0 0 158.30 63.96
  L 156.79 65.57
  A 1.54 1.53 -34.5 0 1 154.25 65.10
  C 153.14 62.38 154.56 61.10 156.91 59.48
  Q 160.17 57.22 162.16 54.55"
/>
<path stroke="#dba971" vector-effect="non-scaling-stroke" d="
  M 164.71 52.91
  L 174.41 48.75
  A 2.37 2.33 -2.8 0 0 175.71 47.34
  L 177.21 42.83
  A 0.67 0.67 0.0 0 0 176.73 41.97
  L 176.03 41.80"
/>
<path stroke="#dba971" vector-effect="non-scaling-stroke" d="
  M 155.74 69.79
  Q 155.23 69.70 154.70 68.98"
/>
<path stroke="#4e5567" vector-effect="non-scaling-stroke" d="
  M 140.79 62.92
  C 136.53 61.21 128.41 59.19 124.34 61.83
  C 116.82 66.68 132.49 78.95 135.94 81.30"
/>
<path stroke="#2c3243" vector-effect="non-scaling-stroke" d="
  M 135.94 81.30
  Q 136.67 82.19 138.42 83.05
  C 148.14 87.83 157.37 91.74 167.76 90.29
  Q 169.96 89.99 170.68 89.06
  Q 171.85 87.55 171.13 85.84
  Q 167.82 77.97 160.98 73.62"
/>
<path stroke="#242b3c" vector-effect="non-scaling-stroke" d="
  M 164.55 68.41
  Q 165.71 70.36 167.66 71.17"
/>
<path stroke="#333a4b" vector-effect="non-scaling-stroke" d="
  M 137.75 258.48
  Q 136.61 258.58 134.95 259.21
  Q 130.28 260.99 125.54 263.28"
/>
<path stroke="#333a4b" vector-effect="non-scaling-stroke" d="
  M 2.30 185.27
  L 1.13 175.52"
/>
<path stroke="#2c3243" vector-effect="non-scaling-stroke" d="
  M 113.27 92.43
  Q 119.26 102.58 132.28 107.80"
/>
<path stroke="#242b3c" vector-effect="non-scaling-stroke" d="
  M 132.28 107.80
  C 139.89 112.03 146.66 113.87 155.52 112.91
  Q 159.61 112.47 161.41 108.61
  Q 164.47 102.07 167.88 96.00
  A 0.62 0.62 0.0 0 0 167.31 95.07
  C 160.37 95.42 153.35 93.43 146.75 91.18"
/>
<path stroke="#2c3243" vector-effect="non-scaling-stroke" d="
  M 146.75 91.18
  L 134.05 84.80"
/>
<path stroke="#4e5567" vector-effect="non-scaling-stroke" d="
  M 134.05 84.80
  L 121.65 72.90
  A 2.81 2.61 9.1 0 1 121.18 72.30
  L 119.61 69.58
  A 0.50 0.49 43.5 0 0 118.74 69.60
  L 110.61 85.46
  A 0.98 0.92 57.3 0 0 110.51 86.00
  Q 110.84 89.12 113.27 92.43"
/>
<path stroke="#656c7f" vector-effect="non-scaling-stroke" d="
  M 134.05 84.80
  L 122.42 77.34
  A 0.54 0.54 0.0 0 0 121.71 77.46
  Q 116.27 84.17 113.27 92.43"
/>
<path stroke="#3c4254" vector-effect="non-scaling-stroke" d="
  M 146.75 91.18
  C 144.09 98.50 141.01 105.98 132.28 107.80"
/>
<path stroke="#242b3c" vector-effect="non-scaling-stroke" d="
  M 24.72 220.23
  Q 25.14 222.42 26.87 224.62
  C 36.89 237.28 49.75 247.35 64.78 253.35
  Q 75.40 257.59 84.32 259.14
  Q 103.54 262.48 126.13 255.69
  Q 128.17 255.08 130.91 253.75
  C 134.84 251.85 139.04 250.46 142.62 248.39
  C 163.80 236.08 179.67 216.98 186.03 193.29
  C 187.35 188.35 189.08 181.59 189.35 176.89
  Q 190.54 156.12 184.13 138.30
  Q 181.55 131.14 174.82 119.29
  C 173.02 116.11 170.74 113.83 168.57 111.05
  A 0.99 0.99 0.0 0 0 166.88 111.25
  C 164.74 115.92 161.16 117.18 156.74 118.93"
/>
<path stroke="#2c3243" vector-effect="non-scaling-stroke" d="
  M 156.74 118.93
  Q 146.34 119.77 136.50 116.16
  Q 125.04 111.94 116.07 104.04
  C 108.89 97.71 104.39 92.26 104.77 82.88"
/>
<path stroke="#464d5e" vector-effect="non-scaling-stroke" d="
  M 104.77 82.88
  Q 106.30 81.62 107.05 79.46
  A 0.84 0.84 0.0 0 0 106.30 78.34
  Q 92.95 77.62 77.51 81.01
  C 54.51 86.07 35.46 100.18 22.18 119.80
  Q 15.77 129.26 12.57 140.03
  Q 8.81 152.63 8.02 162.02
  Q 6.06 185.22 16.33 206.95
  Q 19.98 214.67 24.72 220.23"
/>
<path stroke="#5e6476" vector-effect="non-scaling-stroke" d="
  M 104.77 82.88
  Q 75.59 83.67 52.17 100.07
  Q 47.96 103.02 42.79 107.95
  C 36.52 113.94 31.15 119.49 27.32 126.31
  C 23.03 133.95 19.28 141.48 16.95 149.75
  Q 11.65 168.61 14.08 188.31"
/>
<path stroke="#565c6f" vector-effect="non-scaling-stroke" d="
  M 14.08 188.31
  Q 16.70 204.93 24.72 220.23"
/>
<path stroke="#3c4254" vector-effect="non-scaling-stroke" d="
  M 156.74 118.93
  C 163.84 138.73 164.21 161.71 154.84 180.60
  C 147.00 196.40 138.45 206.53 123.57 215.44
  Q 92.56 233.99 58.30 222.78
  C 51.62 220.60 45.03 216.96 39.25 213.25
  Q 27.93 205.97 20.25 195.02
  Q 17.77 191.49 14.92 187.15
  A 0.42 0.42 0.0 0 0 14.18 187.23
  Q 14.04 187.58 14.08 188.31"
/>
<path stroke="#656c7f" vector-effect="non-scaling-stroke" d="
  M 140.45 63.99
  Q 136.27 63.46 131.99 63.51
  C 128.24 63.56 124.99 66.65 127.18 70.41
  Q 130.55 76.19 136.33 80.35
  A 0.47 0.46 -54.2 0 1 136.43 81.00
  Q 136.24 81.27 135.94 81.30"
/>
<path stroke="#656c7f" vector-effect="non-scaling-stroke" d="
  M 77.25 97.12
  Q 60.83 98.42 51.76 111.92"
/>
<path stroke="#4b5163" vector-effect="non-scaling-stroke" d="
  M 51.76 111.92
  L 53.61 106.30
  A 1.55 1.54 89.2 0 0 51.62 104.36
  Q 39.64 108.66 34.83 120.82
  C 32.73 126.15 31.12 132.22 31.72 137.56
  C 32.13 141.30 32.62 147.21 34.52 150.72
  Q 37.17 155.63 40.76 158.54
  Q 58.21 172.70 80.93 167.10
  C 103.38 161.57 126.45 140.01 116.43 114.60
  C 112.54 104.75 103.63 99.52 93.72 97.42
  C 88.99 96.41 82.67 97.13 77.25 97.12"
/>
<path stroke="#6d7487" vector-effect="non-scaling-stroke" d="
  M 51.76 111.92
  C 47.83 119.00 49.66 127.00 58.49 128.40
  C 67.94 129.90 78.12 124.95 84.45 118.22
  C 89.25 113.11 93.10 103.89 85.29 99.04
  Q 81.87 96.93 77.25 97.12"
/>
<path stroke="#6d7487" vector-effect="non-scaling-stroke" d="
  M 45.5362 130.7014
  A 9.32 6.92 -59.6 0 0 34.8514 135.2382
  A 9.32 6.92 -59.6 0 0 36.1038 146.7786
  A 9.32 6.92 -59.6 0 0 46.7886 142.2418
  A 9.32 6.92 -59.6 0 0 45.5362 130.7014"
/>
</g>
<path fill="#e35d26" d="
  M 185.77 0.00
  L 193.81 19.48
  A 0.71 0.70 -36.2 0 0 195.00 19.66
  L 201.34 12.13
  A 0.83 0.82 -28.4 0 1 202.79 12.56
  L 203.05 14.70
  Q 202.63 15.81 203.23 15.79
  L 203.85 21.19
  A 0.27 0.26 71.2 0 0 204.25 21.39
  L 226.07 8.80
  A 0.21 0.21 0.0 0 1 226.36 9.08
  L 214.91 30.70
  A 0.42 0.41 24.6 0 0 215.13 31.28
  Q 216.51 31.80 220.54 32.73
  Q 221.39 32.93 222.39 33.72
  A 0.39 0.39 0.0 0 1 222.32 34.37
  Q 220.16 35.48 217.28 37.77
  Q 216.57 38.34 216.10 38.46
  Q 215.38 38.64 215.34 39.39
  A 0.93 0.93 0.0 0 0 215.81 40.23
  L 234.00 50.59
  Q 234.01 51.02 234.00 51.45
  L 212.94 51.64
  A 0.52 0.52 0.0 0 0 212.42 52.15
  Q 212.36 53.72 213.02 55.26
  Q 212.61 56.13 213.19 56.30
  Q 213.59 57.83 213.35 59.28
  A 0.41 0.41 0.0 0 1 212.78 59.59
  L 207.45 57.30
  Q 207.19 57.08 206.79 56.96
  L 203.32 55.43
  A 0.64 0.63 -68.4 0 0 202.46 55.81
  L 196.99 72.25
  A 0.40 0.40 0.0 0 1 196.25 72.30
  Q 190.81 61.37 189.89 59.43
  Q 189.47 58.52 185.95 59.05
  A 1.16 1.16 0.0 0 1 184.62 57.77
  L 184.78 56.39
  L 189.00 54.57
  Q 191.65 54.85 192.62 56.15
  Q 194.65 58.89 195.41 62.17
  A 0.54 0.54 0.0 0 0 196.45 62.20
  C 197.16 59.80 197.75 55.36 199.86 52.70
  A 1.37 1.36 -61.4 0 1 201.37 52.25
  L 206.41 53.93
  A 0.77 0.77 0.0 0 0 207.38 52.95
  L 206.22 49.66
  A 1.09 1.09 0.0 0 1 207.25 48.21
  L 219.28 48.21
  A 0.33 0.33 0.0 0 0 219.43 47.59
  Q 213.37 44.66 209.28 41.15
  A 1.32 1.32 0.0 0 1 209.48 39.00
  L 212.21 37.42
  A 1.53 1.53 0.0 0 0 212.27 34.80
  Q 209.59 33.09 210.44 29.26
  A 1.97 1.97 0.0 0 1 210.68 28.66
  L 215.55 20.65
  A 0.69 0.69 0.0 0 0 215.02 19.61
  Q 214.94 19.61 214.46 19.93
  Q 207.71 24.50 203.10 26.59
  Q 201.52 27.30 199.93 26.39
  A 0.70 0.70 0.0 0 1 199.57 25.78
  L 199.57 22.90
  A 0.79 0.79 0.0 0 0 198.25 22.32
  Q 197.14 23.33 196.23 24.69
  C 194.31 27.55 192.21 26.63 191.25 23.91
  Q 189.26 18.34 187.29 14.58
  A 0.49 0.49 0.0 0 0 186.36 14.80
  Q 186.29 21.30 184.12 28.32
  A 1.00 1.00 0.0 0 1 182.85 28.97
  L 178.89 27.65
  A 0.85 0.84 83.2 0 0 177.91 28.90
  Q 180.89 33.68 176.41 35.71
  A 0.47 0.47 0.0 0 0 176.13 36.17
  Q 176.16 36.58 176.54 36.63
  L 175.05 36.95
  L 171.02 33.34
  A 0.61 0.61 0.0 0 1 171.23 32.31
  L 174.64 31.11
  A 0.51 0.50 -19.7 0 0 174.95 30.47
  L 171.63 20.99
  A 0.38 0.38 0.0 0 1 172.13 20.51
  L 180.39 23.86
  A 0.53 0.53 0.0 0 0 181.11 23.42
  L 182.84 5.29
  Q 183.09 5.02 183.02 4.46
  L 183.60 0.00
  L 185.77 0.00
  Z"
/>
<path fill="#502d15" d="
  M 183.02 4.46
  Q 183.09 5.02 182.84 5.29
  Q 182.77 4.73 183.02 4.46
  Z"
/>
<path fill="#f9b239" d="
  M 189.00 54.57
  L 191.25 52.25
  L 195.17 52.22
  A 1.03 1.02 -90.0 0 0 196.19 51.19
  L 196.19 48.57
  A 0.75 0.75 0.0 0 1 197.22 47.88
  L 199.58 48.83
  A 0.37 0.37 0.0 0 0 200.07 48.37
  Q 199.68 47.17 199.83 46.11
  A 0.98 0.98 0.0 0 1 201.36 45.45
  Q 204.70 47.78 206.96 44.09
  A 0.75 0.74 32.6 0 0 206.73 43.08
  L 202.15 40.07
  A 1.62 1.62 0.0 0 1 201.87 37.61
  Q 202.54 36.77 204.76 35.67
  A 0.74 0.73 67.9 0 0 205.13 34.78
  Q 204.50 32.87 205.32 31.10
  A 0.36 0.35 -86.5 0 0 204.89 30.61
  C 203.22 31.15 199.15 33.80 197.22 33.61
  A 1.19 1.19 0.0 0 1 196.19 32.09
  Q 196.87 29.79 196.46 28.22
  A 0.60 0.60 0.0 0 0 195.36 28.08
  L 193.55 31.20
  A 0.96 0.96 0.0 0 1 191.82 31.04
  L 190.09 26.11
  A 0.51 0.51 0.0 0 0 189.17 26.02
  Q 187.14 29.31 187.80 32.68
  A 0.56 0.56 0.0 0 1 187.32 33.34
  C 185.53 33.56 182.73 33.12 182.83 35.86
  L 176.54 36.63
  Q 176.16 36.58 176.13 36.17
  A 0.47 0.47 0.0 0 1 176.41 35.71
  Q 180.89 33.68 177.91 28.90
  A 0.85 0.84 83.2 0 1 178.89 27.65
  L 182.85 28.97
  A 1.00 1.00 0.0 0 0 184.12 28.32
  Q 186.29 21.30 186.36 14.80
  A 0.49 0.49 0.0 0 1 187.29 14.58
  Q 189.26 18.34 191.25 23.91
  C 192.21 26.63 194.31 27.55 196.23 24.69
  Q 197.14 23.33 198.25 22.32
  A 0.79 0.79 0.0 0 1 199.57 22.90
  L 199.57 25.78
  A 0.70 0.70 0.0 0 0 199.93 26.39
  Q 201.52 27.30 203.10 26.59
  Q 207.71 24.50 214.46 19.93
  Q 214.94 19.61 215.02 19.61
  A 0.69 0.69 0.0 0 1 215.55 20.65
  L 210.68 28.66
  A 1.97 1.97 0.0 0 0 210.44 29.26
  Q 209.59 33.09 212.27 34.80
  A 1.53 1.53 0.0 0 1 212.21 37.42
  L 209.48 39.00
  A 1.32 1.32 0.0 0 0 209.28 41.15
  Q 213.37 44.66 219.43 47.59
  A 0.33 0.33 0.0 0 1 219.28 48.21
  L 207.25 48.21
  A 1.09 1.09 0.0 0 0 206.22 49.66
  L 207.38 52.95
  A 0.77 0.77 0.0 0 1 206.41 53.93
  L 201.37 52.25
  A 1.37 1.36 -61.4 0 0 199.86 52.70
  C 197.75 55.36 197.16 59.80 196.45 62.20
  A 0.54 0.54 0.0 0 1 195.41 62.17
  Q 194.65 58.89 192.62 56.15
  Q 191.65 54.85 189.00 54.57
  Z"
/>
<path fill="#502d15" d="
  M 203.23 15.79
  Q 202.63 15.81 203.05 14.70
  Q 203.34 14.95 203.23 15.79
  Z"
/>
<path fill="#fded72" d="
  M 191.25 52.25
  Q 197.51 43.60 190.72 37.29
  Q 188.01 34.77 182.83 35.86
  C 182.73 33.12 185.53 33.56 187.32 33.34
  A 0.56 0.56 0.0 0 0 187.80 32.68
  Q 187.14 29.31 189.17 26.02
  A 0.51 0.51 0.0 0 1 190.09 26.11
  L 191.82 31.04
  A 0.96 0.96 0.0 0 0 193.55 31.20
  L 195.36 28.08
  A 0.60 0.60 0.0 0 1 196.46 28.22
  Q 196.87 29.79 196.19 32.09
  A 1.19 1.19 0.0 0 0 197.22 33.61
  C 199.15 33.80 203.22 31.15 204.89 30.61
  A 0.36 0.35 -86.5 0 1 205.32 31.10
  Q 204.50 32.87 205.13 34.78
  A 0.74 0.73 67.9 0 1 204.76 35.67
  Q 202.54 36.77 201.87 37.61
  A 1.62 1.62 0.0 0 0 202.15 40.07
  L 206.73 43.08
  A 0.75 0.74 32.6 0 1 206.96 44.09
  Q 204.70 47.78 201.36 45.45
  A 0.98 0.98 0.0 0 0 199.83 46.11
  Q 199.68 47.17 200.07 48.37
  A 0.37 0.37 0.0 0 1 199.58 48.83
  L 197.22 47.88
  A 0.75 0.75 0.0 0 0 196.19 48.57
  L 196.19 51.19
  A 1.03 1.02 -90.0 0 1 195.17 52.22
  L 191.25 52.25
  Z"
/>
<path fill="#502d15" d="
  M 191.25 52.25
  L 189.00 54.57
  L 184.78 56.39
  Q 170.69 56.10 163.37 67.37
  Q 161.76 70.02 160.33 72.63
  Q 160.04 73.15 160.20 73.40
  Q 160.39 73.69 160.98 73.62
  Q 159.93 73.79 159.41 74.89
  A 1.35 1.33 -42.0 0 0 159.35 75.91
  L 160.47 79.09
  A 2.25 2.24 -27.4 0 1 159.65 81.66
  C 156.12 84.17 149.24 82.72 145.64 80.54
  C 142.73 78.77 134.74 72.99 135.09 68.72
  A 0.83 0.83 0.0 0 1 135.62 68.01
  C 137.15 67.43 140.56 67.19 140.45 63.99
  Q 140.77 64.01 140.91 63.71
  Q 141.12 63.27 140.79 62.92
  Q 143.87 60.31 145.37 57.50
  Q 152.55 47.20 161.76 42.25
  Q 166.23 39.85 175.05 36.95
  L 176.54 36.63
  L 182.83 35.86
  Q 188.01 34.77 190.72 37.29
  Q 197.51 43.60 191.25 52.25
  Z
  M 180.25 41.83
  L 176.03 41.80
  C 173.86 42.46 166.90 44.56 164.69 47.18
  A 1.25 1.22 -27.1 0 0 164.40 48.05
  L 164.71 52.91
  Q 164.59 53.71 165.09 54.95
  A 2.68 2.67 49.0 0 1 164.93 57.29
  L 164.39 58.22
  A 0.81 0.81 0.0 0 1 162.93 58.10
  Q 162.02 55.68 162.16 54.55
  L 161.94 49.21
  A 0.49 0.49 0.0 0 0 161.16 48.83
  Q 155.57 52.83 151.61 57.75
  A 1.48 1.48 0.0 0 0 151.36 59.17
  L 154.70 68.98
  Q 154.71 70.35 154.29 71.38
  A 0.50 0.50 0.0 0 1 153.43 71.50
  Q 150.06 67.08 149.38 61.82
  A 0.70 0.70 0.0 0 0 148.07 61.59
  L 142.61 71.90
  A 1.15 1.14 -61.1 0 0 143.05 73.43
  L 150.48 77.71
  A 1.02 1.02 0.0 0 0 151.91 77.29
  L 155.74 69.79
  L 159.26 64.96
  L 163.64 59.78
  A 3.63 3.46 1.4 0 1 164.30 59.18
  Q 170.33 55.02 175.95 52.61
  C 180.39 50.72 187.04 52.97 189.59 46.29
  Q 190.33 44.34 188.69 42.18
  Q 187.68 40.42 186.00 40.40
  Q 182.36 40.35 180.25 41.83
  Z"
/>
<path fill="#eec381" d="
  M 188.69 42.18
  Q 185.10 45.49 180.07 46.43
  A 0.51 0.51 0.0 0 1 179.47 45.83
  L 180.25 41.83
  Q 182.36 40.35 186.00 40.40
  Q 187.68 40.42 188.69 42.18
  Z"
/>
<path fill="#c88f60" d="
  M 180.25 41.83
  L 179.47 45.83
  A 0.51 0.51 0.0 0 0 180.07 46.43
  Q 185.10 45.49 188.69 42.18
  Q 190.33 44.34 189.59 46.29
  C 187.04 52.97 180.39 50.72 175.95 52.61
  Q 170.33 55.02 164.30 59.18
  A 3.63 3.46 1.4 0 0 163.64 59.78
  L 159.26 64.96
  Q 159.26 63.81 158.54 63.84
  A 0.37 0.34 -69.2 0 0 158.30 63.96
  L 156.79 65.57
  A 1.54 1.53 -34.5 0 1 154.25 65.10
  C 153.14 62.38 154.56 61.10 156.91 59.48
  Q 160.17 57.22 162.16 54.55
  Q 162.02 55.68 162.93 58.10
  A 0.81 0.81 0.0 0 0 164.39 58.22
  L 164.93 57.29
  A 2.68 2.67 49.0 0 0 165.09 54.95
  Q 164.59 53.71 164.71 52.91
  L 174.41 48.75
  A 2.37 2.33 -2.8 0 0 175.71 47.34
  L 177.21 42.83
  A 0.67 0.67 0.0 0 0 176.73 41.97
  L 176.03 41.80
  L 180.25 41.83
  Z"
/>
<path fill="#eec381" d="
  M 176.03 41.80
  L 176.73 41.97
  A 0.67 0.67 0.0 0 1 177.21 42.83
  L 175.71 47.34
  A 2.37 2.33 -2.8 0 1 174.41 48.75
  L 164.71 52.91
  L 164.40 48.05
  A 1.25 1.22 -27.1 0 1 164.69 47.18
  C 166.90 44.56 173.86 42.46 176.03 41.80
  Z"
/>
<path fill="#eec381" d="
  M 162.16 54.55
  Q 160.17 57.22 156.91 59.48
  C 154.56 61.10 153.14 62.38 154.25 65.10
  A 1.54 1.53 -34.5 0 0 156.79 65.57
  L 158.30 63.96
  A 0.37 0.34 -69.2 0 1 158.54 63.84
  Q 159.26 63.81 159.26 64.96
  L 155.74 69.79
  Q 155.23 69.70 154.70 68.98
  L 151.36 59.17
  A 1.48 1.48 0.0 0 1 151.61 57.75
  Q 155.57 52.83 161.16 48.83
  A 0.49 0.49 0.0 0 1 161.94 49.21
  L 162.16 54.55
  Z"
/>
<path fill="#141b2b" d="
  M 145.37 57.50
  Q 143.87 60.31 140.79 62.92
  C 136.53 61.21 128.41 59.19 124.34 61.83
  C 116.82 66.68 132.49 78.95 135.94 81.30
  Q 136.67 82.19 138.42 83.05
  C 148.14 87.83 157.37 91.74 167.76 90.29
  Q 169.96 89.99 170.68 89.06
  Q 171.85 87.55 171.13 85.84
  Q 167.82 77.97 160.98 73.62
  Q 160.39 73.69 160.20 73.40
  Q 160.04 73.15 160.33 72.63
  Q 161.76 70.02 163.37 67.37
  Q 164.72 68.34 164.55 68.41
  Q 165.71 70.36 167.66 71.17
  Q 172.42 74.85 175.65 81.36
  Q 176.39 82.85 176.42 83.72
  A 1.07 1.03 -59.2 0 0 176.53 84.19
  Q 178.26 87.63 176.89 90.13
  Q 175.99 91.77 170.58 102.57
  A 0.86 0.85 38.4 0 0 170.69 103.50
  Q 187.37 123.46 193.91 148.28
  Q 196.14 156.76 195.98 168.78
  Q 195.79 183.88 191.45 199.51
  Q 188.72 209.38 182.61 218.99
  Q 182.34 219.42 182.28 219.86
  Q 182.22 220.28 181.81 220.30
  A 0.38 0.36 9.7 0 0 181.48 220.52
  Q 180.65 222.28 178.88 224.64
  Q 162.46 246.54 137.75 258.48
  Q 136.61 258.58 134.95 259.21
  Q 130.28 260.99 125.54 263.28
  Q 122.55 263.85 119.36 264.43
  Q 115.72 265.09 113.11 265.26
  C 101.93 266.03 89.35 266.40 78.63 263.88
  C 59.51 259.39 39.87 248.94 26.47 234.01
  Q 12.65 218.60 5.39 196.36
  Q 2.86 188.58 2.30 185.27
  L 1.13 175.52
  Q 0.64 150.06 9.59 129.02
  Q 12.73 121.64 21.42 110.43
  Q 41.34 84.74 72.50 75.76
  Q 88.06 71.28 109.85 71.93
  A 0.88 0.87 -72.9 0 0 110.63 71.51
  L 119.47 57.04
  A 1.46 1.42 8.5 0 1 120.37 56.39
  Q 133.13 53.42 145.37 57.50
  Z
  M 113.27 92.43
  Q 119.26 102.58 132.28 107.80
  C 139.89 112.03 146.66 113.87 155.52 112.91
  Q 159.61 112.47 161.41 108.61
  Q 164.47 102.07 167.88 96.00
  A 0.62 0.62 0.0 0 0 167.31 95.07
  C 160.37 95.42 153.35 93.43 146.75 91.18
  L 134.05 84.80
  L 121.65 72.90
  A 2.81 2.61 9.1 0 1 121.18 72.30
  L 119.61 69.58
  A 0.50 0.49 43.5 0 0 118.74 69.60
  L 110.61 85.46
  A 0.98 0.92 57.3 0 0 110.51 86.00
  Q 110.84 89.12 113.27 92.43
  Z
  M 24.72 220.23
  Q 25.14 222.42 26.87 224.62
  C 36.89 237.28 49.75 247.35 64.78 253.35
  Q 75.40 257.59 84.32 259.14
  Q 103.54 262.48 126.13 255.69
  Q 128.17 255.08 130.91 253.75
  C 134.84 251.85 139.04 250.46 142.62 248.39
  C 163.80 236.08 179.67 216.98 186.03 193.29
  C 187.35 188.35 189.08 181.59 189.35 176.89
  Q 190.54 156.12 184.13 138.30
  Q 181.55 131.14 174.82 119.29
  C 173.02 116.11 170.74 113.83 168.57 111.05
  A 0.99 0.99 0.0 0 0 166.88 111.25
  C 164.74 115.92 161.16 117.18 156.74 118.93
  Q 146.34 119.77 136.50 116.16
  Q 125.04 111.94 116.07 104.04
  C 108.89 97.71 104.39 92.26 104.77 82.88
  Q 106.30 81.62 107.05 79.46
  A 0.84 0.84 0.0 0 0 106.30 78.34
  Q 92.95 77.62 77.51 81.01
  C 54.51 86.07 35.46 100.18 22.18 119.80
  Q 15.77 129.26 12.57 140.03
  Q 8.81 152.63 8.02 162.02
  Q 6.06 185.22 16.33 206.95
  Q 19.98 214.67 24.72 220.23
  Z"
/>
<path fill="#502d15" d="
  M 213.19 56.30
  Q 212.61 56.13 213.02 55.26
  Q 213.23 55.76 213.19 56.30
  Z"
/>
<path fill="#141b2b" d="
  M 207.45 57.30
  Q 207.02 57.23 206.79 56.96
  Q 207.19 57.08 207.45 57.30
  Z"
/>
<path fill="#878fa3" d="
  M 140.79 62.92
  Q 141.12 63.27 140.91 63.71
  Q 140.77 64.01 140.45 63.99
  Q 136.27 63.46 131.99 63.51
  C 128.24 63.56 124.99 66.65 127.18 70.41
  Q 130.55 76.19 136.33 80.35
  A 0.47 0.46 -54.2 0 1 136.43 81.00
  Q 136.24 81.27 135.94 81.30
  C 132.49 78.95 116.82 66.68 124.34 61.83
  C 128.41 59.19 136.53 61.21 140.79 62.92
  Z"
/>
<path fill="#c88f60" d="
  M 154.70 68.98
  Q 155.23 69.70 155.74 69.79
  L 151.91 77.29
  A 1.02 1.02 0.0 0 1 150.48 77.71
  L 143.05 73.43
  A 1.15 1.14 -61.1 0 1 142.61 71.90
  L 148.07 61.59
  A 0.70 0.70 0.0 0 1 149.38 61.82
  Q 150.06 67.08 153.43 71.50
  A 0.50 0.50 0.0 0 0 154.29 71.38
  Q 154.71 70.35 154.70 68.98
  Z"
/>
<path fill="#43495b" d="
  M 140.45 63.99
  C 140.56 67.19 137.15 67.43 135.62 68.01
  A 0.83 0.83 0.0 0 0 135.09 68.72
  C 134.74 72.99 142.73 78.77 145.64 80.54
  C 149.24 82.72 156.12 84.17 159.65 81.66
  A 2.25 2.24 -27.4 0 0 160.47 79.09
  L 159.35 75.91
  A 1.35 1.33 -42.0 0 1 159.41 74.89
  Q 159.93 73.79 160.98 73.62
  Q 167.82 77.97 171.13 85.84
  Q 171.85 87.55 170.68 89.06
  Q 169.96 89.99 167.76 90.29
  C 157.37 91.74 148.14 87.83 138.42 83.05
  Q 136.67 82.19 135.94 81.30
  Q 136.24 81.27 136.43 81.00
  A 0.47 0.46 -54.2 0 0 136.33 80.35
  Q 130.55 76.19 127.18 70.41
  C 124.99 66.65 128.24 63.56 131.99 63.51
  Q 136.27 63.46 140.45 63.99
  Z"
/>
<path fill="#343a4d" d="
  M 164.55 68.41
  Q 166.47 69.47 167.66 71.17
  Q 165.71 70.36 164.55 68.41
  Z"
/>
<path fill="#878fa3" d="
  M 134.05 84.80
  L 122.42 77.34
  A 0.54 0.54 0.0 0 0 121.71 77.46
  Q 116.27 84.17 113.27 92.43
  Q 110.84 89.12 110.51 86.00
  A 0.98 0.92 57.3 0 1 110.61 85.46
  L 118.74 69.60
  A 0.50 0.49 43.5 0 1 119.61 69.58
  L 121.18 72.30
  A 2.81 2.61 9.1 0 0 121.65 72.90
  L 134.05 84.80
  Z"
/>
<path fill="#43495b" d="
  M 134.05 84.80
  L 146.75 91.18
  C 144.09 98.50 141.01 105.98 132.28 107.80
  Q 119.26 102.58 113.27 92.43
  Q 116.27 84.17 121.71 77.46
  A 0.54 0.54 0.0 0 1 122.42 77.34
  L 134.05 84.80
  Z"
/>
<path fill="#787e91" d="
  M 104.77 82.88
  Q 75.59 83.67 52.17 100.07
  Q 47.96 103.02 42.79 107.95
  C 36.52 113.94 31.15 119.49 27.32 126.31
  C 23.03 133.95 19.28 141.48 16.95 149.75
  Q 11.65 168.61 14.08 188.31
  Q 16.70 204.93 24.72 220.23
  Q 19.98 214.67 16.33 206.95
  Q 6.06 185.22 8.02 162.02
  Q 8.81 152.63 12.57 140.03
  Q 15.77 129.26 22.18 119.80
  C 35.46 100.18 54.51 86.07 77.51 81.01
  Q 92.95 77.62 106.30 78.34
  A 0.84 0.84 0.0 0 1 107.05 79.46
  Q 106.30 81.62 104.77 82.88
  Z"
/>
<path fill="#43495b" d="
  M 104.77 82.88
  C 104.39 92.26 108.89 97.71 116.07 104.04
  Q 125.04 111.94 136.50 116.16
  Q 146.34 119.77 156.74 118.93
  C 163.84 138.73 164.21 161.71 154.84 180.60
  C 147.00 196.40 138.45 206.53 123.57 215.44
  Q 92.56 233.99 58.30 222.78
  C 51.62 220.60 45.03 216.96 39.25 213.25
  Q 27.93 205.97 20.25 195.02
  Q 17.77 191.49 14.92 187.15
  A 0.42 0.42 0.0 0 0 14.18 187.23
  Q 14.04 187.58 14.08 188.31
  Q 11.65 168.61 16.95 149.75
  C 19.28 141.48 23.03 133.95 27.32 126.31
  C 31.15 119.49 36.52 113.94 42.79 107.95
  Q 47.96 103.02 52.17 100.07
  Q 75.59 83.67 104.77 82.88
  Z
  M 77.25 97.12
  Q 60.83 98.42 51.76 111.92
  L 53.61 106.30
  A 1.55 1.54 89.2 0 0 51.62 104.36
  Q 39.64 108.66 34.83 120.82
  C 32.73 126.15 31.12 132.22 31.72 137.56
  C 32.13 141.30 32.62 147.21 34.52 150.72
  Q 37.17 155.63 40.76 158.54
  Q 58.21 172.70 80.93 167.10
  C 103.38 161.57 126.45 140.01 116.43 114.60
  C 112.54 104.75 103.63 99.52 93.72 97.42
  C 88.99 96.41 82.67 97.13 77.25 97.12
  Z"
/>
<path fill="#343a4d" d="
  M 132.28 107.80
  C 141.01 105.98 144.09 98.50 146.75 91.18
  C 153.35 93.43 160.37 95.42 167.31 95.07
  A 0.62 0.62 0.0 0 1 167.88 96.00
  Q 164.47 102.07 161.41 108.61
  Q 159.61 112.47 155.52 112.91
  C 146.66 113.87 139.89 112.03 132.28 107.80
  Z"
/>
<path fill="#52586a" d="
  M 51.76 111.92
  C 47.83 119.00 49.66 127.00 58.49 128.40
  C 67.94 129.90 78.12 124.95 84.45 118.22
  C 89.25 113.11 93.10 103.89 85.29 99.04
  Q 81.87 96.93 77.25 97.12
  C 82.67 97.13 88.99 96.41 93.72 97.42
  C 103.63 99.52 112.54 104.75 116.43 114.60
  C 126.45 140.01 103.38 161.57 80.93 167.10
  Q 58.21 172.70 40.76 158.54
  Q 37.17 155.63 34.52 150.72
  C 32.62 147.21 32.13 141.30 31.72 137.56
  C 31.12 132.22 32.73 126.15 34.83 120.82
  Q 39.64 108.66 51.62 104.36
  A 1.55 1.54 89.2 0 1 53.61 106.30
  L 51.76 111.92
  Z
  M 45.5362 130.7014
  A 9.32 6.92 -59.6 0 0 34.8514 135.2382
  A 9.32 6.92 -59.6 0 0 36.1038 146.7786
  A 9.32 6.92 -59.6 0 0 46.7886 142.2418
  A 9.32 6.92 -59.6 0 0 45.5362 130.7014
  Z"
/>
<path fill="#878fa3" d="
  M 77.25 97.12
  Q 81.87 96.93 85.29 99.04
  C 93.10 103.89 89.25 113.11 84.45 118.22
  C 78.12 124.95 67.94 129.90 58.49 128.40
  C 49.66 127.00 47.83 119.00 51.76 111.92
  Q 60.83 98.42 77.25 97.12
  Z"
/>
<path fill="#343a4d" d="
  M 24.72 220.23
  Q 16.70 204.93 14.08 188.31
  Q 14.04 187.58 14.18 187.23
  A 0.42 0.42 0.0 0 1 14.92 187.15
  Q 17.77 191.49 20.25 195.02
  Q 27.93 205.97 39.25 213.25
  C 45.03 216.96 51.62 220.60 58.30 222.78
  Q 92.56 233.99 123.57 215.44
  C 138.45 206.53 147.00 196.40 154.84 180.60
  C 164.21 161.71 163.84 138.73 156.74 118.93
  C 161.16 117.18 164.74 115.92 166.88 111.25
  A 0.99 0.99 0.0 0 1 168.57 111.05
  C 170.74 113.83 173.02 116.11 174.82 119.29
  Q 181.55 131.14 184.13 138.30
  Q 190.54 156.12 189.35 176.89
  C 189.08 181.59 187.35 188.35 186.03 193.29
  C 179.67 216.98 163.80 236.08 142.62 248.39
  C 139.04 250.46 134.84 251.85 130.91 253.75
  Q 128.17 255.08 126.13 255.69
  Q 103.54 262.48 84.32 259.14
  Q 75.40 257.59 64.78 253.35
  C 49.75 247.35 36.89 237.28 26.87 224.62
  Q 25.14 222.42 24.72 220.23
  Z"
/>
<ellipse fill="#878fa3" cx="0.00" cy="0.00" transform="translate(40.82,138.74) rotate(-59.6)" rx="9.32" ry="6.92"/>
<path fill="#52586a" d="
  M 2.30 185.27
  Q 0.61 180.42 1.13 175.52
  L 2.30 185.27
  Z"
/>
<path fill="#52586a" d="
  M 137.75 258.48
  Q 132.03 261.97 125.54 263.28
  Q 130.28 260.99 134.95 259.21
  Q 136.61 258.58 137.75 258.48
  Z"
/>
</svg>
