<?xml version="1.0" encoding="UTF-8" standalone="no"?>
<!DOCTYPE svg PUBLIC "-//W3C//DTD SVG 1.1//EN" "http://www.w3.org/Graphics/SVG/1.1/DTD/svg11.dtd">
<svg xmlns="http://www.w3.org/2000/svg" version="1.1" viewBox="0.00 0.00 335.00 146.00">
<g stroke-width="2.00" fill="none" stroke-linecap="butt">
<path stroke="#7c602c" vector-effect="non-scaling-stroke" d="
  M 16.32 0.00
  C 16.79 4.26 14.38 3.73 11.91 5.20
  Q 10.76 5.88 9.56 6.53
  A 1.75 1.74 -53.6 0 1 8.33 6.72
  Q 5.82 6.18 3.82 4.58"
/>
<path stroke="#80775b" vector-effect="non-scaling-stroke" d="
  M 18.75 0.00
  Q 17.77 0.79 16.03 4.52
  A 0.57 0.56 4.3 0 1 15.66 4.83
  Q 12.84 5.57 11.10 7.25
  C 8.99 9.30 4.78 7.06 3.31 5.56"
/>
<path stroke="#f7dc88" vector-effect="non-scaling-stroke" d="
  M 21.56 0.00
  Q 22.37 2.01 20.85 5.07
  Q 19.91 6.96 18.05 7.52
  Q 11.26 9.57 4.92 9.65
  A 0.66 0.65 -88.1 0 0 4.28 10.25
  L 2.95 24.09"
/>
<path stroke="#f3c559" vector-effect="non-scaling-stroke" d="
  M 273.87 0.00
  C 273.43 6.28 271.44 10.75 268.74 16.71
  C 264.22 26.68 259.74 38.88 257.20 46.60
  Q 255.25 52.54 254.15 61.35
  A 1.59 1.54 -20.7 0 1 253.73 62.24
  Q 251.13 65.04 247.61 66.20"
/>
<path stroke="#7c6734" vector-effect="non-scaling-stroke" d="
  M 247.61 66.20
  C 251.52 64.70 253.79 60.19 249.87 57.11
  C 243.39 52.01 235.84 62.19 243.44 65.73"
/>
<path stroke="#f3c559" vector-effect="non-scaling-stroke" d="
  M 243.44 65.73
  C 231.88 77.40 222.00 83.96 206.80 92.82
  Q 200.10 96.73 187.88 106.91
  Q 187.42 107.29 186.04 109.25
  A 1.02 1.02 0.0 0 1 185.25 109.68
  Q 173.76 110.01 162.83 112.79"
/>
<path stroke="#7c6734" vector-effect="non-scaling-stroke" d="
  M 162.83 112.79
  Q 161.21 111.09 157.45 111.30"
/>
<path stroke="#f3c559" vector-effect="non-scaling-stroke" d="
  M 157.45 111.30
  Q 146.83 113.83 139.80 114.85
  C 128.01 116.56 112.32 117.23 99.76 120.37
  C 83.84 124.34 71.92 127.59 56.99 124.52
  Q 53.39 123.77 40.54 120.87
  Q 22.68 116.85 4.27 116.87"
/>
<path stroke="#f7dc88" vector-effect="non-scaling-stroke" d="
  M 4.17 109.58
  Q 6.26 104.60 9.24 104.45
  C 13.33 104.24 20.18 102.81 23.01 98.85
  Q 26.18 94.42 26.18 89.12
  A 3.30 3.21 -54.8 0 0 26.02 88.11
  Q 25.10 85.22 23.90 79.96
  Q 23.49 78.14 21.18 75.71
  A 0.96 0.95 63.6 0 0 20.36 75.43
  Q 19.06 75.64 19.38 76.92"
/>
<path stroke="#7c6734" vector-effect="non-scaling-stroke" d="
  M 19.38 76.92
  Q 11.43 71.39 3.73 76.51"
/>
<path stroke="#7c6734" vector-effect="non-scaling-stroke" d="
  M 173.50 4.35
  A 0.08 0.07 11.7 0 0 173.43 4.39
  Q 171.58 8.29 175.02 9.48
  A 1.90 1.87 -41.8 0 0 176.08 9.53
  C 178.91 8.86 179.12 4.88 176.55 4.73
  A 0.29 0.29 0.0 0 0 176.33 5.22
  Q 177.89 6.74 176.96 7.81
  A 1.77 1.76 -44.9 0 1 174.31 7.81
  Q 173.13 6.45 174.25 4.75
  A 0.26 0.26 0.0 0 0 174.03 4.35
  L 173.50 4.35"
/>
<path stroke="#92723c" vector-effect="non-scaling-stroke" d="
  M 97.0197 6.2542
  A 7.20 6.49 -48.3 0 0 87.3843 7.3127
  A 7.20 6.49 -48.3 0 0 87.4403 17.0058
  A 7.20 6.49 -48.3 0 0 97.0757 15.9473
  A 7.20 6.49 -48.3 0 0 97.0197 6.2542"
/>
<path stroke="#7c6734" vector-effect="non-scaling-stroke" d="
  M 236.4219 30.6937
  A 7.29 6.98 -42.3 0 0 226.3324 30.4374
  A 7.29 6.98 -42.3 0 0 225.6381 40.5063
  A 7.29 6.98 -42.3 0 0 235.7276 40.7626
  A 7.29 6.98 -42.3 0 0 236.4219 30.6937"
/>
<path stroke="#e5af47" vector-effect="non-scaling-stroke" d="
  M 26.89 32.98
  L 23.89 35.98"
/>
<path stroke="#7c6734" vector-effect="non-scaling-stroke" d="
  M 23.89 35.98
  C 22.23 36.32 21.15 37.35 21.21 39.14
  C 21.26 41.03 20.77 43.42 21.63 44.90
  Q 23.49 48.14 27.78 48.55
  C 31.11 48.87 29.60 43.51 29.25 41.68
  A 5.52 5.47 47.0 0 1 29.32 39.34
  Q 29.97 36.70 29.88 33.60
  A 1.75 1.65 -89.3 0 0 28.33 31.91
  Q 27.63 31.87 26.89 32.98"
/>
<path stroke="#6e4a1a" vector-effect="non-scaling-stroke" d="
  M 23.89 35.98
  L 21.83 38.55
  A 1.31 1.30 -22.9 0 0 21.55 39.23
  Q 20.83 45.85 27.19 47.65
  A 1.67 1.66 89.2 0 0 29.23 45.55
  C 28.61 43.60 27.95 41.16 28.67 38.54
  Q 29.12 36.92 29.32 34.76
  Q 29.55 32.34 26.89 32.98"
/>
<path stroke="#7c6734" vector-effect="non-scaling-stroke" d="
  M 156.3921 40.4797
  A 7.23 5.78 -59.2 0 0 147.7252 43.7304
  A 7.23 5.78 -59.2 0 0 148.9879 52.9003
  A 7.23 5.78 -59.2 0 0 157.6548 49.6496
  A 7.23 5.78 -59.2 0 0 156.3921 40.4797"
/>
<path stroke="#7c6734" vector-effect="non-scaling-stroke" d="
  M 209.4779 55.5891
  A 5.56 4.72 -40.5 0 0 202.1846 55.6109
  A 5.56 4.72 -40.5 0 0 201.0221 62.8109
  A 5.56 4.72 -40.5 0 0 208.3154 62.7891
  A 5.56 4.72 -40.5 0 0 209.4779 55.5891"
/>
<path stroke="#92723c" vector-effect="non-scaling-stroke" d="
  M 221.3939 71.9217
  A 6.97 6.53 -60.2 0 0 212.2635 74.7248
  A 6.97 6.53 -60.2 0 0 214.4661 84.0183
  A 6.97 6.53 -60.2 0 0 223.5965 81.2152
  A 6.97 6.53 -60.2 0 0 221.3939 71.9217"
/>
<path stroke="#7c6734" vector-effect="non-scaling-stroke" d="
  M 176.5563 73.9903
  A 4.36 4.14 -52.3 0 0 170.6143 74.9083
  A 4.36 4.14 -52.3 0 0 171.2237 80.8897
  A 4.36 4.14 -52.3 0 0 177.1657 79.9717
  A 4.36 4.14 -52.3 0 0 176.5563 73.9903"
/>
<path stroke="#7c6734" vector-effect="non-scaling-stroke" d="
  M 116.8784 79.8892
  A 6.01 5.43 -151.9 0 0 119.6224 87.5099
  A 6.01 5.43 -151.9 0 0 127.4816 85.5508
  A 6.01 5.43 -151.9 0 0 124.7376 77.9301
  A 6.01 5.43 -151.9 0 0 116.8784 79.8892"
/>
<path stroke="#7c6734" vector-effect="non-scaling-stroke" d="
  M 173.07 95.95
  A 4.37 4.37 0.0 0 0 168.70 91.58
  A 4.37 4.37 0.0 0 0 164.33 95.95
  A 4.37 4.37 0.0 0 0 168.70 100.32
  A 4.37 4.37 0.0 0 0 173.07 95.95"
/>
<path stroke="#92723c" vector-effect="non-scaling-stroke" d="
  M 61.6835 94.1975
  A 7.29 6.95 -79.7 0 0 53.5420 100.1273
  A 7.29 6.95 -79.7 0 0 59.0765 108.5425
  A 7.29 6.95 -79.7 0 0 67.2180 102.6127
  A 7.29 6.95 -79.7 0 0 61.6835 94.1975"
/>
<path stroke="#7c6734" vector-effect="non-scaling-stroke" d="
  M 184.6280 101.5870
  A 4.11 3.80 -48.6 0 0 179.0596 102.1570
  A 4.11 3.80 -48.6 0 0 179.1920 107.7530
  A 4.11 3.80 -48.6 0 0 184.7604 107.1830
  A 4.11 3.80 -48.6 0 0 184.6280 101.5870"
/>
<path stroke="#926b33" vector-effect="non-scaling-stroke" d="
  M 280.61 0.00
  Q 281.38 2.64 282.92 3.32
  Q 290.07 6.47 295.27 0.00"
/>
<path stroke="#7c602c" vector-effect="non-scaling-stroke" d="
  M 324.07 0.00
  Q 326.89 5.86 331.88 9.84
  A 0.39 0.39 0.0 0 0 332.52 9.54
  L 332.52 8.85
  A 0.53 0.50 -69.7 0 0 332.36 8.47
  Q 328.31 4.82 325.54 0.00"
/>
<path stroke="#926b33" vector-effect="non-scaling-stroke" d="
  M 331.48 3.23
  Q 331.16 4.59 331.70 4.83"
/>
<path stroke="#e4a83e" vector-effect="non-scaling-stroke" d="
  M 333.38 24.96
  Q 332.90 25.67 333.41 26.29"
/>
<path stroke="#7c602c" vector-effect="non-scaling-stroke" d="
  M 331.73 62.11
  Q 327.54 60.75 324.20 63.20
  C 319.94 66.32 315.80 70.67 317.75 76.29
  A 1.56 1.56 0.0 0 1 317.72 77.36
  C 316.42 80.68 312.93 81.19 309.63 81.26
  C 307.11 81.32 305.23 82.14 303.65 83.59
  A 0.10 0.10 0.0 0 0 303.76 83.76
  Q 306.69 82.39 307.99 82.62
  Q 311.12 83.18 316.05 83.63
  A 2.11 1.99 32.6 0 0 317.10 83.43
  Q 317.85 83.06 318.42 82.29
  A 0.98 0.98 0.0 0 1 320.09 82.44
  C 321.47 85.31 322.54 89.37 326.51 89.45"
/>
<path stroke="#e4a83e" vector-effect="non-scaling-stroke" d="
  M 326.51 89.45
  Q 330.36 95.40 330.58 100.50
  Q 331.13 113.25 328.92 130.68
  C 328.26 135.90 328.07 140.88 327.76 146.00"
/>
<path stroke="#926b33" vector-effect="non-scaling-stroke" d="
  M 294.99 146.00
  Q 297.73 143.84 298.72 140.86
  Q 299.72 137.86 299.19 134.72
  Q 298.65 131.54 294.85 130.87
  C 288.34 129.71 280.42 134.75 280.86 142.15
  A 2.10 2.07 0.7 0 0 282.78 144.09
  Q 284.79 144.26 285.27 146.00"
/>
<path stroke="#926b33" vector-effect="non-scaling-stroke" d="
  M 118.39 146.00
  Q 124.05 142.09 121.13 135.55
  A 2.48 2.45 10.1 0 0 120.57 134.76
  C 116.59 130.95 111.07 129.53 107.37 134.09
  Q 102.74 139.77 107.98 144.44"
/>
<path stroke="#e4a83e" vector-effect="non-scaling-stroke" d="
  M 107.98 144.44
  Q 109.71 143.20 111.36 141.32
  Q 113.33 139.06 114.77 138.31
  Q 117.32 136.98 120.49 136.47"
/>
<path stroke="#926b33" vector-effect="non-scaling-stroke" d="
  M 120.49 136.47
  Q 122.47 139.76 120.15 142.94
  C 119.28 144.14 117.73 145.04 116.49 146.00"
/>
<path stroke="#7c602c" vector-effect="non-scaling-stroke" d="
  M 157.45 111.30
  Q 155.44 112.31 154.60 114.16
  C 152.56 118.69 157.69 122.16 161.54 119.64
  Q 164.97 117.40 162.83 112.79"
/>
<path stroke="#7c602c" vector-effect="non-scaling-stroke" d="
  M 243.44 65.73
  Q 245.43 66.66 247.61 66.20"
/>
<path stroke="#e4a83e" vector-effect="non-scaling-stroke" d="
  M 315.30 21.47
  Q 315.90 20.94 316.10 20.10"
/>
<path stroke="#926b33" vector-effect="non-scaling-stroke" d="
  M 316.10 20.10
  Q 317.01 19.21 316.49 18.52
  Q 315.65 17.41 314.26 17.36
  Q 308.26 17.12 304.61 20.25
  A 1.39 1.38 -56.3 0 0 305.08 22.62
  C 308.05 23.59 313.90 26.38 315.30 21.47"
/>
<path stroke="#845521" vector-effect="non-scaling-stroke" d="
  M 316.10 20.10
  L 314.81 18.73
  A 1.08 1.08 0.0 0 0 314.00 18.39
  Q 309.04 18.46 305.31 20.80
  A 0.55 0.55 0.0 0 0 305.48 21.80
  Q 307.70 22.29 311.02 23.28
  Q 312.54 23.74 315.30 21.47"
/>
<path stroke="#926b33" vector-effect="non-scaling-stroke" d="
  M 279.1155 62.7808
  A 5.75 5.33 -71.7 0 0 272.2496 66.5664
  A 5.75 5.33 -71.7 0 0 275.5045 73.6992
  A 5.75 5.33 -71.7 0 0 282.3704 69.9136
  A 5.75 5.33 -71.7 0 0 279.1155 62.7808"
/>
<path stroke="#926b33" vector-effect="non-scaling-stroke" d="
  M 251.1278 91.2144
  A 6.86 6.69 -41.5 0 0 241.5571 90.7495
  A 6.86 6.69 -41.5 0 0 240.8522 100.3056
  A 6.86 6.69 -41.5 0 0 250.4229 100.7705
  A 6.86 6.69 -41.5 0 0 251.1278 91.2144"
/>
<path stroke="#926b33" vector-effect="non-scaling-stroke" d="
  M 281.8891 103.3956
  A 4.95 4.41 -36.5 0 0 275.2868 102.7950
  A 4.95 4.41 -36.5 0 0 273.9309 109.2844
  A 4.95 4.41 -36.5 0 0 280.5332 109.8850
  A 4.95 4.41 -36.5 0 0 281.8891 103.3956"
/>
<path stroke="#926b33" vector-effect="non-scaling-stroke" d="
  M 208.2141 105.0612
  A 4.88 4.47 -159.0 0 0 211.1681 110.9831
  A 4.88 4.47 -159.0 0 0 217.3259 108.5588
  A 4.88 4.47 -159.0 0 0 214.3719 102.6369
  A 4.88 4.47 -159.0 0 0 208.2141 105.0612"
/>
<path stroke="#926b33" vector-effect="non-scaling-stroke" d="
  M 18.86 126.07
  A 0.18 0.17 13.0 0 0 19.15 125.89
  Q 18.70 124.54 17.35 123.54
  A 0.96 0.96 0.0 0 1 17.24 122.09
  L 17.55 121.79
  A 1.45 1.45 0.0 0 1 19.65 121.83
  Q 21.75 124.09 20.83 128.19
  A 0.79 0.78 -16.2 0 1 20.62 128.57
  L 19.75 129.44
  A 0.34 0.34 0.0 0 0 20.03 130.02
  C 23.44 129.58 21.63 123.10 20.41 121.22
  A 1.73 1.73 0.0 0 0 17.73 120.93
  L 16.58 122.08
  A 1.21 1.20 -45.2 0 0 16.58 123.79
  L 18.86 126.07"
/>
<path stroke="#926b33" vector-effect="non-scaling-stroke" d="
  M 35.73 137.93
  L 36.75 137.93
  A 1.08 1.06 19.0 0 0 37.59 137.53
  C 41.08 133.24 36.35 127.56 31.67 130.82
  A 0.34 0.34 0.0 0 0 31.81 131.43
  Q 31.85 131.44 32.61 131.09
  C 36.71 129.22 40.58 135.16 35.61 137.34
  A 0.31 0.31 0.0 0 0 35.73 137.93"
/>
<path stroke="#7c602c" vector-effect="non-scaling-stroke" d="
  M 254.5799 136.4273
  A 5.59 4.22 -11.9 0 0 248.2398 133.4507
  A 5.59 4.22 -11.9 0 0 243.6401 138.7327
  A 5.59 4.22 -11.9 0 0 249.9802 141.7093
  A 5.59 4.22 -11.9 0 0 254.5799 136.4273"
/>
<path stroke="#926b33" vector-effect="non-scaling-stroke" d="
  M 206.79 138.14
  A 0.34 0.34 0.0 0 0 207.14 138.70
  Q 209.01 138.05 208.18 136.00
  C 206.84 132.65 201.47 132.70 200.55 136.31
  Q 200.47 136.63 200.76 136.67
  A 0.20 0.19 -69.5 0 0 200.97 136.57
  C 203.56 132.22 209.43 135.54 206.79 138.14"
/>
<path stroke="#926b33" vector-effect="non-scaling-stroke" d="
  M 162.6776 140.3989
  A 3.25 2.66 -10.3 0 0 159.0044 138.3629
  A 3.25 2.66 -10.3 0 0 156.2824 141.5611
  A 3.25 2.66 -10.3 0 0 159.9556 143.5971
  A 3.25 2.66 -10.3 0 0 162.6776 140.3989"
/>
<path stroke="#926b33" vector-effect="non-scaling-stroke" d="
  M 66.73 140.23
  A 0.46 0.46 0.0 0 0 66.18 140.94
  Q 67.14 142.05 68.88 141.52
  C 69.89 141.20 70.19 140.06 69.62 139.35
  A 0.58 0.55 27.1 0 0 68.60 139.65
  Q 68.60 140.55 67.93 140.85
  A 0.63 0.63 0.0 0 1 67.12 140.60
  Q 66.97 140.35 66.73 140.23"
/>
<path stroke="#926b33" vector-effect="non-scaling-stroke" d="
  M 281.68 0.00
  Q 287.58 6.76 293.36 0.00"
/>
<path stroke="#926b33" vector-effect="non-scaling-stroke" d="
  M 96.1032 6.8424
  A 6.17 5.49 -53.0 0 0 88.0055 8.4660
  A 6.17 5.49 -53.0 0 0 88.6768 16.6976
  A 6.17 5.49 -53.0 0 0 96.7745 15.0740
  A 6.17 5.49 -53.0 0 0 96.1032 6.8424"
/>
<path stroke="#7c6734" vector-effect="non-scaling-stroke" d="
  M 230.98 41.80
  A 6.35 6.07 -34.0 0 0 236.77 38.03
  A 6.37 6.06 -34.2 0 0 236.59 32.47"
/>
<path stroke="#6e4a1a" vector-effect="non-scaling-stroke" d="
  M 236.59 32.47
  A 6.35 6.07 -32.7 0 0 226.69 31.46
  A 6.35 6.06 -33.1 0 0 225.93 39.34
  A 6.36 6.08 -33.4 0 0 230.98 41.80"
/>
<path stroke="#e5af47" vector-effect="non-scaling-stroke" d="
  M 236.59 32.47
  Q 232.18 36.24 230.98 41.80"
/>
<path stroke="#7c602c" vector-effect="non-scaling-stroke" d="
  M 149.15 51.87
  A 6.18 4.84 -58.9 0 0 154.83 51.32
  A 6.18 4.84 -58.7 0 0 157.78 45.22"
/>
<path stroke="#6e4a1a" vector-effect="non-scaling-stroke" d="
  M 157.78 45.22
  A 6.20 4.85 -59.0 0 0 156.59 42.12
  A 6.19 4.84 -58.7 0 0 150.60 41.87
  A 6.18 4.84 -58.9 0 0 149.15 51.87"
/>
<path stroke="#e4a83e" vector-effect="non-scaling-stroke" d="
  M 157.78 45.22
  Q 152.50 46.35 149.15 51.87"
/>
<path stroke="#6e4a1a" vector-effect="non-scaling-stroke" d="
  M 208.3432 55.8497
  A 4.59 3.81 -47.8 0 0 202.4375 56.6907
  A 4.59 3.81 -47.8 0 0 202.1768 62.6503
  A 4.59 3.81 -47.8 0 0 208.0825 61.8093
  A 4.59 3.81 -47.8 0 0 208.3432 55.8497"
/>
<path stroke="#7c6734" vector-effect="non-scaling-stroke" d="
  M 244.98 65.20
  A 4.85 4.36 -11.9 0 0 250.66 59.48"
/>
<path stroke="#6e4a1a" vector-effect="non-scaling-stroke" d="
  M 250.66 59.48
  A 4.85 4.37 -11.8 0 0 245.99 56.50
  A 4.86 4.37 -11.8 0 0 241.84 58.86
  A 4.87 4.39 -11.4 0 0 241.29 61.92
  A 4.85 4.35 -11.7 0 0 244.98 65.20"
/>
<path stroke="#e5af47" vector-effect="non-scaling-stroke" d="
  M 250.66 59.48
  L 244.98 65.20"
/>
<path stroke="#6e4a1a" vector-effect="non-scaling-stroke" d="
  M 331.33 63.26
  Q 328.55 62.07 326.01 63.47
  Q 324.40 64.36 320.26 68.52
  C 318.66 70.13 318.06 72.55 318.76 75.21
  Q 319.95 79.77 314.52 81.40
  A 0.38 0.38 0.0 0 0 314.48 82.11
  Q 316.44 82.93 317.85 81.45
  A 1.94 1.84 -39.7 0 1 320.83 81.64
  C 322.22 83.85 323.46 89.35 327.83 87.57
  Q 330.27 86.57 331.99 85.36"
/>
<path stroke="#6e4a1a" vector-effect="non-scaling-stroke" d="
  M 332.43 86.81
  L 326.51 89.45"
/>
<path stroke="#845521" vector-effect="non-scaling-stroke" d="
  M 279.5698 63.9395
  A 4.79 4.61 -63.6 0 0 273.3108 66.1802
  A 4.79 4.61 -63.6 0 0 275.3102 72.5205
  A 4.79 4.61 -63.6 0 0 281.5692 70.2798
  A 4.79 4.61 -63.6 0 0 279.5698 63.9395"
/>
<path stroke="#926b33" vector-effect="non-scaling-stroke" d="
  M 216.28 83.65
  A 6.03 5.50 -72.5 0 0 219.58 83.60"
/>
<path stroke="#92723c" vector-effect="non-scaling-stroke" d="
  M 219.58 83.60
  A 6.06 5.51 -71.7 0 0 223.73 77.90"
/>
<path stroke="#926b33" vector-effect="non-scaling-stroke" d="
  M 223.73 77.90
  A 6.05 5.47 -71.0 0 0 222.81 74.29"
/>
<path stroke="#845521" vector-effect="non-scaling-stroke" d="
  M 222.81 74.29
  A 6.06 5.52 -71.7 0 0 213.22 75.42
  A 6.06 5.51 -71.5 0 0 216.28 83.65"
/>
<path stroke="#e4a83e" vector-effect="non-scaling-stroke" d="
  M 222.81 74.29
  Q 216.93 77.37 216.28 83.65"
/>
<path stroke="#f3c559" vector-effect="non-scaling-stroke" d="
  M 223.73 77.90
  Q 220.81 79.74 218.88 82.17
  A 0.73 0.73 0.0 0 0 218.87 83.06
  Q 219.12 83.39 219.58 83.60"
/>
<path stroke="#6e4a1a" vector-effect="non-scaling-stroke" d="
  M 177.15 77.43
  A 3.14 3.14 0.0 0 0 174.01 74.29
  A 3.14 3.14 0.0 0 0 170.87 77.43
  A 3.14 3.14 0.0 0 0 174.01 80.57
  A 3.14 3.14 0.0 0 0 177.15 77.43"
/>
<path stroke="#80775b" vector-effect="non-scaling-stroke" d="
  M 19.38 76.92
  Q 23.33 81.53 23.61 87.75
  Q 24.00 96.52 16.08 100.58
  Q 10.07 103.66 3.82 100.53"
/>
<path stroke="#7c602c" vector-effect="non-scaling-stroke" d="
  M 4.70 98.78
  Q 5.20 99.77 6.54 99.98
  Q 20.40 102.17 22.19 89.45"
/>
<path stroke="#6e4a1a" vector-effect="non-scaling-stroke" d="
  M 22.19 89.45
  Q 22.17 85.67 21.19 82.46
  Q 20.05 78.76 17.17 76.85
  C 14.51 75.09 6.77 73.88 5.38 78.19"
/>
<path stroke="#e4a83e" vector-effect="non-scaling-stroke" d="
  M 22.19 89.45
  C 17.15 84.52 13.53 81.67 6.51 82.13"
/>
<path stroke="#6e4a1a" vector-effect="non-scaling-stroke" d="
  M 117.5370 80.3901
  A 5.11 4.27 -153.0 0 0 120.1515 86.5146
  A 5.11 4.27 -153.0 0 0 126.6430 85.0299
  A 5.11 4.27 -153.0 0 0 124.0285 78.9054
  A 5.11 4.27 -153.0 0 0 117.5370 80.3901"
/>
<path stroke="#845521" vector-effect="non-scaling-stroke" d="
  M 251.83 95.56
  A 5.87 5.87 0.0 0 0 245.96 89.69
  A 5.87 5.87 0.0 0 0 240.09 95.56
  A 5.87 5.87 0.0 0 0 245.96 101.43
  A 5.87 5.87 0.0 0 0 251.83 95.56"
/>
<path stroke="#6e4a1a" vector-effect="non-scaling-stroke" d="
  M 172.42 95.99
  A 3.56 3.56 0.0 0 0 168.86 92.43
  A 3.56 3.56 0.0 0 0 165.30 95.99
  A 3.56 3.56 0.0 0 0 168.86 99.55
  A 3.56 3.56 0.0 0 0 172.42 95.99"
/>
<path stroke="#92723c" vector-effect="non-scaling-stroke" d="
  M 59.64 107.31
  A 6.07 5.87 -81.5 0 0 66.07 100.50"
/>
<path stroke="#845521" vector-effect="non-scaling-stroke" d="
  M 66.07 100.50
  A 6.07 5.87 -81.7 0 0 58.32 95.54
  A 6.05 5.85 -81.7 0 0 55.13 98.32
  A 6.10 5.89 -83.0 0 0 54.54 102.83
  A 6.08 5.86 -82.1 0 0 59.64 107.31"
/>
<path stroke="#e5af47" vector-effect="non-scaling-stroke" d="
  M 66.07 100.50
  Q 66.33 101.01 65.17 100.60
  A 1.16 1.11 -47.6 0 0 64.26 100.66
  Q 59.40 103.09 59.64 107.31"
/>
<path stroke="#6e4a1a" vector-effect="non-scaling-stroke" d="
  M 184.97 104.70
  A 3.02 3.02 0.0 0 0 181.95 101.68
  A 3.02 3.02 0.0 0 0 178.93 104.70
  A 3.02 3.02 0.0 0 0 181.95 107.72
  A 3.02 3.02 0.0 0 0 184.97 104.70"
/>
<path stroke="#845521" vector-effect="non-scaling-stroke" d="
  M 281.9288 104.7152
  A 4.11 3.71 -24.2 0 0 276.6592 103.0160
  A 4.11 3.71 -24.2 0 0 274.4312 108.0848
  A 4.11 3.71 -24.2 0 0 279.7008 109.7840
  A 4.11 3.71 -24.2 0 0 281.9288 104.7152"
/>
<path stroke="#926b33" vector-effect="non-scaling-stroke" d="
  M 209.7822 104.6019
  A 3.85 3.29 -140.9 0 0 210.6951 109.5832
  A 3.85 3.29 -140.9 0 0 215.7578 109.4581
  A 3.85 3.29 -140.9 0 0 214.8449 104.4768
  A 3.85 3.29 -140.9 0 0 209.7822 104.6019"
/>
<path stroke="#6e4a1a" vector-effect="non-scaling-stroke" d="
  M 162.63 115.84
  A 3.77 3.77 0.0 0 0 158.86 112.07
  A 3.77 3.77 0.0 0 0 155.09 115.84
  A 3.77 3.77 0.0 0 0 158.86 119.61
  A 3.77 3.77 0.0 0 0 162.63 115.84"
/>
<path stroke="#845521" vector-effect="non-scaling-stroke" d="
  M 292.54 145.86
  Q 297.91 143.02 298.61 136.99
  C 299.14 132.37 293.65 131.30 290.18 132.30
  C 286.41 133.38 280.66 137.79 281.89 142.46
  A 1.21 1.21 0.0 0 0 283.17 143.36
  Q 286.00 143.10 286.09 146.00"
/>
<path stroke="#845521" vector-effect="non-scaling-stroke" d="
  M 120.49 136.47
  Q 117.59 133.41 115.05 132.65
  C 111.38 131.56 107.51 133.87 106.74 137.59
  Q 106.08 140.74 107.98 144.44"
/>
<path stroke="#7c602c" vector-effect="non-scaling-stroke" d="
  M 253.3926 136.4877
  A 4.55 3.30 -16.5 0 0 248.0927 134.6159
  A 4.55 3.30 -16.5 0 0 244.6674 139.0723
  A 4.55 3.30 -16.5 0 0 249.9673 140.9441
  A 4.55 3.30 -16.5 0 0 253.3926 136.4877"
/>
<path stroke="#845521" vector-effect="non-scaling-stroke" d="
  M 161.9754 140.3786
  A 2.55 1.83 -14.8 0 0 159.0425 139.2607
  A 2.55 1.83 -14.8 0 0 157.0446 141.6814
  A 2.55 1.83 -14.8 0 0 159.9775 142.7993
  A 2.55 1.83 -14.8 0 0 161.9754 140.3786"
/>
</g>
<path fill="#f2be50" d="
  M 16.32 0.00
  C 16.79 4.26 14.38 3.73 11.91 5.20
  Q 10.76 5.88 9.56 6.53
  A 1.75 1.74 -53.6 0 1 8.33 6.72
  Q 5.82 6.18 3.82 4.58
  Q 4.17 1.98 5.23 0.00
  L 16.32 0.00
  Z"
/>
<path fill="#050207" d="
  M 18.75 0.00
  Q 17.77 0.79 16.03 4.52
  A 0.57 0.56 4.3 0 1 15.66 4.83
  Q 12.84 5.57 11.10 7.25
  C 8.99 9.30 4.78 7.06 3.31 5.56
  Q 3.39 5.02 3.82 4.58
  Q 5.82 6.18 8.33 6.72
  A 1.75 1.74 -53.6 0 0 9.56 6.53
  Q 10.76 5.88 11.91 5.20
  C 14.38 3.73 16.79 4.26 16.32 0.00
  L 18.75 0.00
  Z"
/>
<path fill="#faebae" d="
  M 21.56 0.00
  Q 22.37 2.01 20.85 5.07
  Q 19.91 6.96 18.05 7.52
  Q 11.26 9.57 4.92 9.65
  A 0.66 0.65 -88.1 0 0 4.28 10.25
  L 2.95 24.09
  Q 1.72 13.73 1.77 9.50
  Q 1.78 7.99 3.31 5.56
  C 4.78 7.06 8.99 9.30 11.10 7.25
  Q 12.84 5.57 15.66 4.83
  A 0.57 0.56 4.3 0 0 16.03 4.52
  Q 17.77 0.79 18.75 0.00
  L 21.56 0.00
  Z"
/>
<path fill="#f3cc61" d="
  M 273.87 0.00
  C 273.43 6.28 271.44 10.75 268.74 16.71
  C 264.22 26.68 259.74 38.88 257.20 46.60
  Q 255.25 52.54 254.15 61.35
  A 1.59 1.54 -20.7 0 1 253.73 62.24
  Q 251.13 65.04 247.61 66.20
  C 251.52 64.70 253.79 60.19 249.87 57.11
  C 243.39 52.01 235.84 62.19 243.44 65.73
  C 231.88 77.40 222.00 83.96 206.80 92.82
  Q 200.10 96.73 187.88 106.91
  Q 187.42 107.29 186.04 109.25
  A 1.02 1.02 0.0 0 1 185.25 109.68
  Q 173.76 110.01 162.83 112.79
  Q 161.21 111.09 157.45 111.30
  Q 146.83 113.83 139.80 114.85
  C 128.01 116.56 112.32 117.23 99.76 120.37
  C 83.84 124.34 71.92 127.59 56.99 124.52
  Q 53.39 123.77 40.54 120.87
  Q 22.68 116.85 4.27 116.87
  L 4.17 109.58
  Q 6.26 104.60 9.24 104.45
  C 13.33 104.24 20.18 102.81 23.01 98.85
  Q 26.18 94.42 26.18 89.12
  A 3.30 3.21 -54.8 0 0 26.02 88.11
  Q 25.10 85.22 23.90 79.96
  Q 23.49 78.14 21.18 75.71
  A 0.96 0.95 63.6 0 0 20.36 75.43
  Q 19.06 75.64 19.38 76.92
  Q 11.43 71.39 3.73 76.51
  Q 3.12 61.37 3.92 46.31
  Q 4.23 40.44 3.81 35.20
  Q 3.36 29.62 2.95 24.09
  L 4.28 10.25
  A 0.66 0.65 -88.1 0 1 4.92 9.65
  Q 11.26 9.57 18.05 7.52
  Q 19.91 6.96 20.85 5.07
  Q 22.37 2.01 21.56 0.00
  L 273.87 0.00
  Z
  M 173.50 4.35
  A 0.08 0.07 11.7 0 0 173.43 4.39
  Q 171.58 8.29 175.02 9.48
  A 1.90 1.87 -41.8 0 0 176.08 9.53
  C 178.91 8.86 179.12 4.88 176.55 4.73
  A 0.29 0.29 0.0 0 0 176.33 5.22
  Q 177.89 6.74 176.96 7.81
  A 1.77 1.76 -44.9 0 1 174.31 7.81
  Q 173.13 6.45 174.25 4.75
  A 0.26 0.26 0.0 0 0 174.03 4.35
  L 173.50 4.35
  Z
  M 97.0197 6.2542
  A 7.20 6.49 -48.3 0 0 87.3843 7.3127
  A 7.20 6.49 -48.3 0 0 87.4403 17.0058
  A 7.20 6.49 -48.3 0 0 97.0757 15.9473
  A 7.20 6.49 -48.3 0 0 97.0197 6.2542
  Z
  M 236.4219 30.6937
  A 7.29 6.98 -42.3 0 0 226.3324 30.4374
  A 7.29 6.98 -42.3 0 0 225.6381 40.5063
  A 7.29 6.98 -42.3 0 0 235.7276 40.7626
  A 7.29 6.98 -42.3 0 0 236.4219 30.6937
  Z
  M 26.89 32.98
  L 23.89 35.98
  C 22.23 36.32 21.15 37.35 21.21 39.14
  C 21.26 41.03 20.77 43.42 21.63 44.90
  Q 23.49 48.14 27.78 48.55
  C 31.11 48.87 29.60 43.51 29.25 41.68
  A 5.52 5.47 47.0 0 1 29.32 39.34
  Q 29.97 36.70 29.88 33.60
  A 1.75 1.65 -89.3 0 0 28.33 31.91
  Q 27.63 31.87 26.89 32.98
  Z
  M 156.3921 40.4797
  A 7.23 5.78 -59.2 0 0 147.7252 43.7304
  A 7.23 5.78 -59.2 0 0 148.9879 52.9003
  A 7.23 5.78 -59.2 0 0 157.6548 49.6496
  A 7.23 5.78 -59.2 0 0 156.3921 40.4797
  Z
  M 209.4779 55.5891
  A 5.56 4.72 -40.5 0 0 202.1846 55.6109
  A 5.56 4.72 -40.5 0 0 201.0221 62.8109
  A 5.56 4.72 -40.5 0 0 208.3154 62.7891
  A 5.56 4.72 -40.5 0 0 209.4779 55.5891
  Z
  M 221.3939 71.9217
  A 6.97 6.53 -60.2 0 0 212.2635 74.7248
  A 6.97 6.53 -60.2 0 0 214.4661 84.0183
  A 6.97 6.53 -60.2 0 0 223.5965 81.2152
  A 6.97 6.53 -60.2 0 0 221.3939 71.9217
  Z
  M 176.5563 73.9903
  A 4.36 4.14 -52.3 0 0 170.6143 74.9083
  A 4.36 4.14 -52.3 0 0 171.2237 80.8897
  A 4.36 4.14 -52.3 0 0 177.1657 79.9717
  A 4.36 4.14 -52.3 0 0 176.5563 73.9903
  Z
  M 116.8784 79.8892
  A 6.01 5.43 -151.9 0 0 119.6224 87.5099
  A 6.01 5.43 -151.9 0 0 127.4816 85.5508
  A 6.01 5.43 -151.9 0 0 124.7376 77.9301
  A 6.01 5.43 -151.9 0 0 116.8784 79.8892
  Z
  M 173.07 95.95
  A 4.37 4.37 0.0 0 0 168.70 91.58
  A 4.37 4.37 0.0 0 0 164.33 95.95
  A 4.37 4.37 0.0 0 0 168.70 100.32
  A 4.37 4.37 0.0 0 0 173.07 95.95
  Z
  M 61.6835 94.1975
  A 7.29 6.95 -79.7 0 0 53.5420 100.1273
  A 7.29 6.95 -79.7 0 0 59.0765 108.5425
  A 7.29 6.95 -79.7 0 0 67.2180 102.6127
  A 7.29 6.95 -79.7 0 0 61.6835 94.1975
  Z
  M 184.6280 101.5870
  A 4.11 3.80 -48.6 0 0 179.0596 102.1570
  A 4.11 3.80 -48.6 0 0 179.1920 107.7530
  A 4.11 3.80 -48.6 0 0 184.7604 107.1830
  A 4.11 3.80 -48.6 0 0 184.6280 101.5870
  Z"
/>
<path fill="#f2be50" d="
  M 280.61 0.00
  Q 281.38 2.64 282.92 3.32
  Q 290.07 6.47 295.27 0.00
  L 324.07 0.00
  Q 326.89 5.86 331.88 9.84
  A 0.39 0.39 0.0 0 0 332.52 9.54
  L 332.52 8.85
  A 0.53 0.50 -69.7 0 0 332.36 8.47
  Q 328.31 4.82 325.54 0.00
  L 330.66 0.00
  Q 332.04 0.33 331.48 3.23
  Q 331.16 4.59 331.70 4.83
  Q 333.15 8.93 333.28 10.48
  Q 333.60 14.30 333.38 24.96
  Q 332.90 25.67 333.41 26.29
  Q 333.44 41.58 333.36 56.88
  Q 333.35 59.03 331.73 62.11
  Q 327.54 60.75 324.20 63.20
  C 319.94 66.32 315.80 70.67 317.75 76.29
  A 1.56 1.56 0.0 0 1 317.72 77.36
  C 316.42 80.68 312.93 81.19 309.63 81.26
  C 307.11 81.32 305.23 82.14 303.65 83.59
  A 0.10 0.10 0.0 0 0 303.76 83.76
  Q 306.69 82.39 307.99 82.62
  Q 311.12 83.18 316.05 83.63
  A 2.11 1.99 32.6 0 0 317.10 83.43
  Q 317.85 83.06 318.42 82.29
  A 0.98 0.98 0.0 0 1 320.09 82.44
  C 321.47 85.31 322.54 89.37 326.51 89.45
  Q 330.36 95.40 330.58 100.50
  Q 331.13 113.25 328.92 130.68
  C 328.26 135.90 328.07 140.88 327.76 146.00
  L 294.99 146.00
  Q 297.73 143.84 298.72 140.86
  Q 299.72 137.86 299.19 134.72
  Q 298.65 131.54 294.85 130.87
  C 288.34 129.71 280.42 134.75 280.86 142.15
  A 2.10 2.07 0.7 0 0 282.78 144.09
  Q 284.79 144.26 285.27 146.00
  L 118.39 146.00
  Q 124.05 142.09 121.13 135.55
  A 2.48 2.45 10.1 0 0 120.57 134.76
  C 116.59 130.95 111.07 129.53 107.37 134.09
  Q 102.74 139.77 107.98 144.44
  Q 109.71 143.20 111.36 141.32
  Q 113.33 139.06 114.77 138.31
  Q 117.32 136.98 120.49 136.47
  Q 122.47 139.76 120.15 142.94
  C 119.28 144.14 117.73 145.04 116.49 146.00
  L 5.42 146.00
  L 4.27 116.87
  Q 22.68 116.85 40.54 120.87
  Q 53.39 123.77 56.99 124.52
  C 71.92 127.59 83.84 124.34 99.76 120.37
  C 112.32 117.23 128.01 116.56 139.80 114.85
  Q 146.83 113.83 157.45 111.30
  Q 155.44 112.31 154.60 114.16
  C 152.56 118.69 157.69 122.16 161.54 119.64
  Q 164.97 117.40 162.83 112.79
  Q 173.76 110.01 185.25 109.68
  A 1.02 1.02 0.0 0 0 186.04 109.25
  Q 187.42 107.29 187.88 106.91
  Q 200.10 96.73 206.80 92.82
  C 222.00 83.96 231.88 77.40 243.44 65.73
  Q 245.43 66.66 247.61 66.20
  Q 251.13 65.04 253.73 62.24
  A 1.59 1.54 -20.7 0 0 254.15 61.35
  Q 255.25 52.54 257.20 46.60
  C 259.74 38.88 264.22 26.68 268.74 16.71
  C 271.44 10.75 273.43 6.28 273.87 0.00
  L 280.61 0.00
  Z
  M 315.30 21.47
  Q 315.90 20.94 316.10 20.10
  Q 317.01 19.21 316.49 18.52
  Q 315.65 17.41 314.26 17.36
  Q 308.26 17.12 304.61 20.25
  A 1.39 1.38 -56.3 0 0 305.08 22.62
  C 308.05 23.59 313.90 26.38 315.30 21.47
  Z
  M 279.1155 62.7808
  A 5.75 5.33 -71.7 0 0 272.2496 66.5664
  A 5.75 5.33 -71.7 0 0 275.5045 73.6992
  A 5.75 5.33 -71.7 0 0 282.3704 69.9136
  A 5.75 5.33 -71.7 0 0 279.1155 62.7808
  Z
  M 251.1278 91.2144
  A 6.86 6.69 -41.5 0 0 241.5571 90.7495
  A 6.86 6.69 -41.5 0 0 240.8522 100.3056
  A 6.86 6.69 -41.5 0 0 250.4229 100.7705
  A 6.86 6.69 -41.5 0 0 251.1278 91.2144
  Z
  M 281.8891 103.3956
  A 4.95 4.41 -36.5 0 0 275.2868 102.7950
  A 4.95 4.41 -36.5 0 0 273.9309 109.2844
  A 4.95 4.41 -36.5 0 0 280.5332 109.8850
  A 4.95 4.41 -36.5 0 0 281.8891 103.3956
  Z
  M 208.2141 105.0612
  A 4.88 4.47 -159.0 0 0 211.1681 110.9831
  A 4.88 4.47 -159.0 0 0 217.3259 108.5588
  A 4.88 4.47 -159.0 0 0 214.3719 102.6369
  A 4.88 4.47 -159.0 0 0 208.2141 105.0612
  Z
  M 18.86 126.07
  A 0.18 0.17 13.0 0 0 19.15 125.89
  Q 18.70 124.54 17.35 123.54
  A 0.96 0.96 0.0 0 1 17.24 122.09
  L 17.55 121.79
  A 1.45 1.45 0.0 0 1 19.65 121.83
  Q 21.75 124.09 20.83 128.19
  A 0.79 0.78 -16.2 0 1 20.62 128.57
  L 19.75 129.44
  A 0.34 0.34 0.0 0 0 20.03 130.02
  C 23.44 129.58 21.63 123.10 20.41 121.22
  A 1.73 1.73 0.0 0 0 17.73 120.93
  L 16.58 122.08
  A 1.21 1.20 -45.2 0 0 16.58 123.79
  L 18.86 126.07
  Z
  M 35.73 137.93
  L 36.75 137.93
  A 1.08 1.06 19.0 0 0 37.59 137.53
  C 41.08 133.24 36.35 127.56 31.67 130.82
  A 0.34 0.34 0.0 0 0 31.81 131.43
  Q 31.85 131.44 32.61 131.09
  C 36.71 129.22 40.58 135.16 35.61 137.34
  A 0.31 0.31 0.0 0 0 35.73 137.93
  Z
  M 254.5799 136.4273
  A 5.59 4.22 -11.9 0 0 248.2398 133.4507
  A 5.59 4.22 -11.9 0 0 243.6401 138.7327
  A 5.59 4.22 -11.9 0 0 249.9802 141.7093
  A 5.59 4.22 -11.9 0 0 254.5799 136.4273
  Z
  M 206.79 138.14
  A 0.34 0.34 0.0 0 0 207.14 138.70
  Q 209.01 138.05 208.18 136.00
  C 206.84 132.65 201.47 132.70 200.55 136.31
  Q 200.47 136.63 200.76 136.67
  A 0.20 0.19 -69.5 0 0 200.97 136.57
  C 203.56 132.22 209.43 135.54 206.79 138.14
  Z
  M 162.6776 140.3989
  A 3.25 2.66 -10.3 0 0 159.0044 138.3629
  A 3.25 2.66 -10.3 0 0 156.2824 141.5611
  A 3.25 2.66 -10.3 0 0 159.9556 143.5971
  A 3.25 2.66 -10.3 0 0 162.6776 140.3989
  Z
  M 66.73 140.23
  A 0.46 0.46 0.0 0 0 66.18 140.94
  Q 67.14 142.05 68.88 141.52
  C 69.89 141.20 70.19 140.06 69.62 139.35
  A 0.58 0.55 27.1 0 0 68.60 139.65
  Q 68.60 140.55 67.93 140.85
  A 0.63 0.63 0.0 0 1 67.12 140.60
  Q 66.97 140.35 66.73 140.23
  Z"
/>
<path fill="#311716" d="
  M 281.68 0.00
  Q 287.58 6.76 293.36 0.00
  L 295.27 0.00
  Q 290.07 6.47 282.92 3.32
  Q 281.38 2.64 280.61 0.00
  L 281.68 0.00
  Z"
/>
<path fill="#f2be50" d="
  M 293.36 0.00
  Q 287.58 6.76 281.68 0.00
  L 293.36 0.00
  Z"
/>
<path fill="#050207" d="
  M 325.54 0.00
  Q 328.31 4.82 332.36 8.47
  A 0.53 0.50 -69.7 0 1 332.52 8.85
  L 332.52 9.54
  A 0.39 0.39 0.0 0 1 331.88 9.84
  Q 326.89 5.86 324.07 0.00
  L 325.54 0.00
  Z"
/>
<path fill="#311716" d="
  M 331.70 4.83
  Q 331.16 4.59 331.48 3.23
  Q 331.82 3.90 331.70 4.83
  Z"
/>
<path fill="#050207" d="
  M 174.25 4.75
  Q 173.13 6.45 174.31 7.81
  A 1.77 1.76 -44.9 0 0 176.96 7.81
  Q 177.89 6.74 176.33 5.22
  A 0.29 0.29 0.0 0 1 176.55 4.73
  C 179.12 4.88 178.91 8.86 176.08 9.53
  A 1.90 1.87 -41.8 0 1 175.02 9.48
  Q 171.58 8.29 173.43 4.39
  A 0.08 0.07 11.7 0 1 173.50 4.35
  L 174.03 4.35
  A 0.26 0.26 0.0 0 1 174.25 4.75
  Z"
/>
<path fill="#311716" d="
  M 97.0197 6.2542
  A 7.20 6.49 -48.3 0 1 97.0757 15.9473
  A 7.20 6.49 -48.3 0 1 87.4403 17.0058
  A 7.20 6.49 -48.3 0 1 87.3843 7.3127
  A 7.20 6.49 -48.3 0 1 97.0197 6.2542
  Z
  M 96.1032 6.8424
  A 6.17 5.49 -53.0 0 0 88.0055 8.4660
  A 6.17 5.49 -53.0 0 0 88.6768 16.6976
  A 6.17 5.49 -53.0 0 0 96.7745 15.0740
  A 6.17 5.49 -53.0 0 0 96.1032 6.8424
  Z"
/>
<ellipse fill="#f2be50" cx="0.00" cy="0.00" transform="translate(92.39,11.77) rotate(-53.0)" rx="6.17" ry="5.49"/>
<path fill="#311716" d="
  M 316.10 20.10
  L 314.81 18.73
  A 1.08 1.08 0.0 0 0 314.00 18.39
  Q 309.04 18.46 305.31 20.80
  A 0.55 0.55 0.0 0 0 305.48 21.80
  Q 307.70 22.29 311.02 23.28
  Q 312.54 23.74 315.30 21.47
  C 313.90 26.38 308.05 23.59 305.08 22.62
  A 1.39 1.38 -56.3 0 1 304.61 20.25
  Q 308.26 17.12 314.26 17.36
  Q 315.65 17.41 316.49 18.52
  Q 317.01 19.21 316.10 20.10
  Z"
/>
<path fill="#d6922c" d="
  M 316.10 20.10
  Q 315.90 20.94 315.30 21.47
  Q 312.54 23.74 311.02 23.28
  Q 307.70 22.29 305.48 21.80
  A 0.55 0.55 0.0 0 1 305.31 20.80
  Q 309.04 18.46 314.00 18.39
  A 1.08 1.08 0.0 0 1 314.81 18.73
  L 316.10 20.10
  Z"
/>
<path fill="#d6922c" d="
  M 333.38 24.96
  Q 333.50 25.62 333.41 26.29
  Q 332.90 25.67 333.38 24.96
  Z"
/>
<path fill="#050207" d="
  M 236.4219 30.6937
  A 7.29 6.98 -42.3 0 1 235.7276 40.7626
  A 7.29 6.98 -42.3 0 1 225.6381 40.5063
  A 7.29 6.98 -42.3 0 1 226.3324 30.4374
  A 7.29 6.98 -42.3 0 1 236.4219 30.6937
  Z
  M 230.98 41.80
  A 6.35 6.07 -34.0 0 0 236.77 38.03
  A 6.37 6.06 -34.2 0 0 236.59 32.47
  A 6.35 6.07 -32.7 0 0 226.69 31.46
  A 6.35 6.06 -33.1 0 0 225.93 39.34
  A 6.36 6.08 -33.4 0 0 230.98 41.80
  Z"
/>
<path fill="#d6922c" d="
  M 236.59 32.47
  Q 232.18 36.24 230.98 41.80
  A 6.36 6.08 -33.4 0 1 225.93 39.34
  A 6.35 6.06 -33.1 0 1 226.69 31.46
  A 6.35 6.07 -32.7 0 1 236.59 32.47
  Z"
/>
<path fill="#050207" d="
  M 23.89 35.98
  L 21.83 38.55
  A 1.31 1.30 -22.9 0 0 21.55 39.23
  Q 20.83 45.85 27.19 47.65
  A 1.67 1.66 89.2 0 0 29.23 45.55
  C 28.61 43.60 27.95 41.16 28.67 38.54
  Q 29.12 36.92 29.32 34.76
  Q 29.55 32.34 26.89 32.98
  Q 27.63 31.87 28.33 31.91
  A 1.75 1.65 -89.3 0 1 29.88 33.60
  Q 29.97 36.70 29.32 39.34
  A 5.52 5.47 47.0 0 0 29.25 41.68
  C 29.60 43.51 31.11 48.87 27.78 48.55
  Q 23.49 48.14 21.63 44.90
  C 20.77 43.42 21.26 41.03 21.21 39.14
  C 21.15 37.35 22.23 36.32 23.89 35.98
  Z"
/>
<path fill="#f3cc61" d="
  M 236.59 32.47
  A 6.37 6.06 -34.2 0 1 236.77 38.03
  A 6.35 6.07 -34.0 0 1 230.98 41.80
  Q 232.18 36.24 236.59 32.47
  Z"
/>
<path fill="#d6922c" d="
  M 26.89 32.98
  Q 29.55 32.34 29.32 34.76
  Q 29.12 36.92 28.67 38.54
  C 27.95 41.16 28.61 43.60 29.23 45.55
  A 1.67 1.66 89.2 0 1 27.19 47.65
  Q 20.83 45.85 21.55 39.23
  A 1.31 1.30 -22.9 0 1 21.83 38.55
  L 23.89 35.98
  L 26.89 32.98
  Z"
/>
<path fill="#050207" d="
  M 156.3921 40.4797
  A 7.23 5.78 -59.2 0 1 157.6548 49.6496
  A 7.23 5.78 -59.2 0 1 148.9879 52.9003
  A 7.23 5.78 -59.2 0 1 147.7252 43.7304
  A 7.23 5.78 -59.2 0 1 156.3921 40.4797
  Z
  M 149.15 51.87
  A 6.18 4.84 -58.9 0 0 154.83 51.32
  A 6.18 4.84 -58.7 0 0 157.78 45.22
  A 6.20 4.85 -59.0 0 0 156.59 42.12
  A 6.19 4.84 -58.7 0 0 150.60 41.87
  A 6.18 4.84 -58.9 0 0 149.15 51.87
  Z"
/>
<path fill="#d6922c" d="
  M 157.78 45.22
  Q 152.50 46.35 149.15 51.87
  A 6.18 4.84 -58.9 0 1 150.60 41.87
  A 6.19 4.84 -58.7 0 1 156.59 42.12
  A 6.20 4.85 -59.0 0 1 157.78 45.22
  Z"
/>
<path fill="#f2be50" d="
  M 157.78 45.22
  A 6.18 4.84 -58.7 0 1 154.83 51.32
  A 6.18 4.84 -58.9 0 1 149.15 51.87
  Q 152.50 46.35 157.78 45.22
  Z"
/>
<path fill="#050207" d="
  M 209.4779 55.5891
  A 5.56 4.72 -40.5 0 1 208.3154 62.7891
  A 5.56 4.72 -40.5 0 1 201.0221 62.8109
  A 5.56 4.72 -40.5 0 1 202.1846 55.6109
  A 5.56 4.72 -40.5 0 1 209.4779 55.5891
  Z
  M 208.3432 55.8497
  A 4.59 3.81 -47.8 0 0 202.4375 56.6907
  A 4.59 3.81 -47.8 0 0 202.1768 62.6503
  A 4.59 3.81 -47.8 0 0 208.0825 61.8093
  A 4.59 3.81 -47.8 0 0 208.3432 55.8497
  Z"
/>
<ellipse fill="#d6922c" cx="0.00" cy="0.00" transform="translate(205.26,59.25) rotate(-47.8)" rx="4.59" ry="3.81"/>
<path fill="#050207" d="
  M 247.61 66.20
  Q 245.43 66.66 243.44 65.73
  C 235.84 62.19 243.39 52.01 249.87 57.11
  C 253.79 60.19 251.52 64.70 247.61 66.20
  Z
  M 244.98 65.20
  A 4.85 4.36 -11.9 0 0 250.66 59.48
  A 4.85 4.37 -11.8 0 0 245.99 56.50
  A 4.86 4.37 -11.8 0 0 241.84 58.86
  A 4.87 4.39 -11.4 0 0 241.29 61.92
  A 4.85 4.35 -11.7 0 0 244.98 65.20
  Z"
/>
<path fill="#d6922c" d="
  M 250.66 59.48
  L 244.98 65.20
  A 4.85 4.35 -11.7 0 1 241.29 61.92
  A 4.87 4.39 -11.4 0 1 241.84 58.86
  A 4.86 4.37 -11.8 0 1 245.99 56.50
  A 4.85 4.37 -11.8 0 1 250.66 59.48
  Z"
/>
<path fill="#f3cc61" d="
  M 250.66 59.48
  A 4.85 4.36 -11.9 0 1 244.98 65.20
  L 250.66 59.48
  Z"
/>
<path fill="#050207" d="
  M 331.73 62.11
  Q 331.71 62.99 331.33 63.26
  Q 328.55 62.07 326.01 63.47
  Q 324.40 64.36 320.26 68.52
  C 318.66 70.13 318.06 72.55 318.76 75.21
  Q 319.95 79.77 314.52 81.40
  A 0.38 0.38 0.0 0 0 314.48 82.11
  Q 316.44 82.93 317.85 81.45
  A 1.94 1.84 -39.7 0 1 320.83 81.64
  C 322.22 83.85 323.46 89.35 327.83 87.57
  Q 330.27 86.57 331.99 85.36
  L 332.43 86.81
  L 326.51 89.45
  C 322.54 89.37 321.47 85.31 320.09 82.44
  A 0.98 0.98 0.0 0 0 318.42 82.29
  Q 317.85 83.06 317.10 83.43
  A 2.11 1.99 32.6 0 1 316.05 83.63
  Q 311.12 83.18 307.99 82.62
  Q 306.69 82.39 303.76 83.76
  A 0.10 0.10 0.0 0 1 303.65 83.59
  C 305.23 82.14 307.11 81.32 309.63 81.26
  C 312.93 81.19 316.42 80.68 317.72 77.36
  A 1.56 1.56 0.0 0 0 317.75 76.29
  C 315.80 70.67 319.94 66.32 324.20 63.20
  Q 327.54 60.75 331.73 62.11
  Z"
/>
<path fill="#311716" d="
  M 279.1155 62.7808
  A 5.75 5.33 -71.7 0 1 282.3704 69.9136
  A 5.75 5.33 -71.7 0 1 275.5045 73.6992
  A 5.75 5.33 -71.7 0 1 272.2496 66.5664
  A 5.75 5.33 -71.7 0 1 279.1155 62.7808
  Z
  M 279.5698 63.9395
  A 4.79 4.61 -63.6 0 0 273.3108 66.1802
  A 4.79 4.61 -63.6 0 0 275.3102 72.5205
  A 4.79 4.61 -63.6 0 0 281.5692 70.2798
  A 4.79 4.61 -63.6 0 0 279.5698 63.9395
  Z"
/>
<path fill="#d6922c" d="
  M 331.33 63.26
  C 329.14 71.11 330.05 77.69 331.99 85.36
  Q 330.27 86.57 327.83 87.57
  C 323.46 89.35 322.22 83.85 320.83 81.64
  A 1.94 1.84 -39.7 0 0 317.85 81.45
  Q 316.44 82.93 314.48 82.11
  A 0.38 0.38 0.0 0 1 314.52 81.40
  Q 319.95 79.77 318.76 75.21
  C 318.06 72.55 318.66 70.13 320.26 68.52
  Q 324.40 64.36 326.01 63.47
  Q 328.55 62.07 331.33 63.26
  Z"
/>
<ellipse fill="#d6922c" cx="0.00" cy="0.00" transform="translate(277.44,68.23) rotate(-63.6)" rx="4.79" ry="4.61"/>
<path fill="#311716" d="
  M 221.3939 71.9217
  A 6.97 6.53 -60.2 0 1 223.5965 81.2152
  A 6.97 6.53 -60.2 0 1 214.4661 84.0183
  A 6.97 6.53 -60.2 0 1 212.2635 74.7248
  A 6.97 6.53 -60.2 0 1 221.3939 71.9217
  Z
  M 216.28 83.65
  A 6.03 5.50 -72.5 0 0 219.58 83.60
  A 6.06 5.51 -71.7 0 0 223.73 77.90
  A 6.05 5.47 -71.0 0 0 222.81 74.29
  A 6.06 5.52 -71.7 0 0 213.22 75.42
  A 6.06 5.51 -71.5 0 0 216.28 83.65
  Z"
/>
<path fill="#d6922c" d="
  M 222.81 74.29
  Q 216.93 77.37 216.28 83.65
  A 6.06 5.51 -71.5 0 1 213.22 75.42
  A 6.06 5.52 -71.7 0 1 222.81 74.29
  Z"
/>
<path fill="#050207" d="
  M 176.5563 73.9903
  A 4.36 4.14 -52.3 0 1 177.1657 79.9717
  A 4.36 4.14 -52.3 0 1 171.2237 80.8897
  A 4.36 4.14 -52.3 0 1 170.6143 74.9083
  A 4.36 4.14 -52.3 0 1 176.5563 73.9903
  Z
  M 177.15 77.43
  A 3.14 3.14 0.0 0 0 174.01 74.29
  A 3.14 3.14 0.0 0 0 170.87 77.43
  A 3.14 3.14 0.0 0 0 174.01 80.57
  A 3.14 3.14 0.0 0 0 177.15 77.43
  Z"
/>
<path fill="#050207" d="
  M 19.38 76.92
  Q 23.33 81.53 23.61 87.75
  Q 24.00 96.52 16.08 100.58
  Q 10.07 103.66 3.82 100.53
  L 4.70 98.78
  Q 5.20 99.77 6.54 99.98
  Q 20.40 102.17 22.19 89.45
  Q 22.17 85.67 21.19 82.46
  Q 20.05 78.76 17.17 76.85
  C 14.51 75.09 6.77 73.88 5.38 78.19
  Q 4.85 77.12 3.73 76.51
  Q 11.43 71.39 19.38 76.92
  Z"
/>
<circle fill="#d6922c" cx="174.01" cy="77.43" r="3.14"/>
<path fill="#f2be50" d="
  M 222.81 74.29
  A 6.05 5.47 -71.0 0 1 223.73 77.90
  Q 220.81 79.74 218.88 82.17
  A 0.73 0.73 0.0 0 0 218.87 83.06
  Q 219.12 83.39 219.58 83.60
  A 6.03 5.50 -72.5 0 1 216.28 83.65
  Q 216.93 77.37 222.81 74.29
  Z"
/>
<path fill="#d6922c" d="
  M 22.19 89.45
  C 17.15 84.52 13.53 81.67 6.51 82.13
  Q 6.45 79.96 5.38 78.19
  C 6.77 73.88 14.51 75.09 17.17 76.85
  Q 20.05 78.76 21.19 82.46
  Q 22.17 85.67 22.19 89.45
  Z"
/>
<path fill="#faebae" d="
  M 4.17 109.58
  L 3.82 100.53
  Q 10.07 103.66 16.08 100.58
  Q 24.00 96.52 23.61 87.75
  Q 23.33 81.53 19.38 76.92
  Q 19.06 75.64 20.36 75.43
  A 0.96 0.95 63.6 0 1 21.18 75.71
  Q 23.49 78.14 23.90 79.96
  Q 25.10 85.22 26.02 88.11
  A 3.30 3.21 -54.8 0 1 26.18 89.12
  Q 26.18 94.42 23.01 98.85
  C 20.18 102.81 13.33 104.24 9.24 104.45
  Q 6.26 104.60 4.17 109.58
  Z"
/>
<path fill="#050207" d="
  M 116.8784 79.8892
  A 6.01 5.43 -151.9 0 1 124.7376 77.9301
  A 6.01 5.43 -151.9 0 1 127.4816 85.5508
  A 6.01 5.43 -151.9 0 1 119.6224 87.5099
  A 6.01 5.43 -151.9 0 1 116.8784 79.8892
  Z
  M 117.5370 80.3901
  A 5.11 4.27 -153.0 0 0 120.1515 86.5146
  A 5.11 4.27 -153.0 0 0 126.6430 85.0299
  A 5.11 4.27 -153.0 0 0 124.0285 78.9054
  A 5.11 4.27 -153.0 0 0 117.5370 80.3901
  Z"
/>
<path fill="#f3cc61" d="
  M 223.73 77.90
  A 6.06 5.51 -71.7 0 1 219.58 83.60
  Q 219.12 83.39 218.87 83.06
  A 0.73 0.73 0.0 0 1 218.88 82.17
  Q 220.81 79.74 223.73 77.90
  Z"
/>
<ellipse fill="#d6922c" cx="0.00" cy="0.00" transform="translate(122.09,82.71) rotate(-153.0)" rx="5.11" ry="4.27"/>
<path fill="#f2be50" d="
  M 22.19 89.45
  Q 20.40 102.17 6.54 99.98
  Q 5.20 99.77 4.70 98.78
  Q 7.78 90.76 6.51 82.13
  C 13.53 81.67 17.15 84.52 22.19 89.45
  Z"
/>
<path fill="#d6922c" d="
  M 332.43 86.81
  Q 332.73 87.20 332.73 87.50
  Q 332.23 106.69 332.03 130.00
  Q 332.01 131.79 330.81 137.55
  A 0.54 0.47 -40.9 0 0 330.79 137.69
  L 330.14 146.00
  L 327.76 146.00
  C 328.07 140.88 328.26 135.90 328.92 130.68
  Q 331.13 113.25 330.58 100.50
  Q 330.36 95.40 326.51 89.45
  L 332.43 86.81
  Z"
/>
<path fill="#311716" d="
  M 251.1278 91.2144
  A 6.86 6.69 -41.5 0 1 250.4229 100.7705
  A 6.86 6.69 -41.5 0 1 240.8522 100.3056
  A 6.86 6.69 -41.5 0 1 241.5571 90.7495
  A 6.86 6.69 -41.5 0 1 251.1278 91.2144
  Z
  M 251.83 95.56
  A 5.87 5.87 0.0 0 0 245.96 89.69
  A 5.87 5.87 0.0 0 0 240.09 95.56
  A 5.87 5.87 0.0 0 0 245.96 101.43
  A 5.87 5.87 0.0 0 0 251.83 95.56
  Z"
/>
<circle fill="#d6922c" cx="245.96" cy="95.56" r="5.87"/>
<path fill="#050207" d="
  M 173.07 95.95
  A 4.37 4.37 0.0 0 1 168.70 100.32
  A 4.37 4.37 0.0 0 1 164.33 95.95
  A 4.37 4.37 0.0 0 1 168.70 91.58
  A 4.37 4.37 0.0 0 1 173.07 95.95
  Z
  M 172.42 95.99
  A 3.56 3.56 0.0 0 0 168.86 92.43
  A 3.56 3.56 0.0 0 0 165.30 95.99
  A 3.56 3.56 0.0 0 0 168.86 99.55
  A 3.56 3.56 0.0 0 0 172.42 95.99
  Z"
/>
<circle fill="#d6922c" cx="168.86" cy="95.99" r="3.56"/>
<path fill="#311716" d="
  M 61.6835 94.1975
  A 7.29 6.95 -79.7 0 1 67.2180 102.6127
  A 7.29 6.95 -79.7 0 1 59.0765 108.5425
  A 7.29 6.95 -79.7 0 1 53.5420 100.1273
  A 7.29 6.95 -79.7 0 1 61.6835 94.1975
  Z
  M 59.64 107.31
  A 6.07 5.87 -81.5 0 0 66.07 100.50
  A 6.07 5.87 -81.7 0 0 58.32 95.54
  A 6.05 5.85 -81.7 0 0 55.13 98.32
  A 6.10 5.89 -83.0 0 0 54.54 102.83
  A 6.08 5.86 -82.1 0 0 59.64 107.31
  Z"
/>
<path fill="#d6922c" d="
  M 66.07 100.50
  Q 66.33 101.01 65.17 100.60
  A 1.16 1.11 -47.6 0 0 64.26 100.66
  Q 59.40 103.09 59.64 107.31
  A 6.08 5.86 -82.1 0 1 54.54 102.83
  A 6.10 5.89 -83.0 0 1 55.13 98.32
  A 6.05 5.85 -81.7 0 1 58.32 95.54
  A 6.07 5.87 -81.7 0 1 66.07 100.50
  Z"
/>
<path fill="#f3cc61" d="
  M 66.07 100.50
  A 6.07 5.87 -81.5 0 1 59.64 107.31
  Q 59.40 103.09 64.26 100.66
  A 1.16 1.11 -47.6 0 1 65.17 100.60
  Q 66.33 101.01 66.07 100.50
  Z"
/>
<path fill="#050207" d="
  M 184.6280 101.5870
  A 4.11 3.80 -48.6 0 1 184.7604 107.1830
  A 4.11 3.80 -48.6 0 1 179.1920 107.7530
  A 4.11 3.80 -48.6 0 1 179.0596 102.1570
  A 4.11 3.80 -48.6 0 1 184.6280 101.5870
  Z
  M 184.97 104.70
  A 3.02 3.02 0.0 0 0 181.95 101.68
  A 3.02 3.02 0.0 0 0 178.93 104.70
  A 3.02 3.02 0.0 0 0 181.95 107.72
  A 3.02 3.02 0.0 0 0 184.97 104.70
  Z"
/>
<circle fill="#d6922c" cx="181.95" cy="104.70" r="3.02"/>
<path fill="#311716" d="
  M 281.8891 103.3956
  A 4.95 4.41 -36.5 0 1 280.5332 109.8850
  A 4.95 4.41 -36.5 0 1 273.9309 109.2844
  A 4.95 4.41 -36.5 0 1 275.2868 102.7950
  A 4.95 4.41 -36.5 0 1 281.8891 103.3956
  Z
  M 281.9288 104.7152
  A 4.11 3.71 -24.2 0 0 276.6592 103.0160
  A 4.11 3.71 -24.2 0 0 274.4312 108.0848
  A 4.11 3.71 -24.2 0 0 279.7008 109.7840
  A 4.11 3.71 -24.2 0 0 281.9288 104.7152
  Z"
/>
<path fill="#311716" d="
  M 208.2141 105.0612
  A 4.88 4.47 -159.0 0 1 214.3719 102.6369
  A 4.88 4.47 -159.0 0 1 217.3259 108.5588
  A 4.88 4.47 -159.0 0 1 211.1681 110.9831
  A 4.88 4.47 -159.0 0 1 208.2141 105.0612
  Z
  M 209.7822 104.6019
  A 3.85 3.29 -140.9 0 0 210.6951 109.5832
  A 3.85 3.29 -140.9 0 0 215.7578 109.4581
  A 3.85 3.29 -140.9 0 0 214.8449 104.4768
  A 3.85 3.29 -140.9 0 0 209.7822 104.6019
  Z"
/>
<ellipse fill="#d6922c" cx="0.00" cy="0.00" transform="translate(278.18,106.40) rotate(-24.2)" rx="4.11" ry="3.71"/>
<ellipse fill="#f2be50" cx="0.00" cy="0.00" transform="translate(212.77,107.03) rotate(-140.9)" rx="3.85" ry="3.29"/>
<path fill="#050207" d="
  M 162.83 112.79
  Q 164.97 117.40 161.54 119.64
  C 157.69 122.16 152.56 118.69 154.60 114.16
  Q 155.44 112.31 157.45 111.30
  Q 161.21 111.09 162.83 112.79
  Z
  M 162.63 115.84
  A 3.77 3.77 0.0 0 0 158.86 112.07
  A 3.77 3.77 0.0 0 0 155.09 115.84
  A 3.77 3.77 0.0 0 0 158.86 119.61
  A 3.77 3.77 0.0 0 0 162.63 115.84
  Z"
/>
<circle fill="#d6922c" cx="158.86" cy="115.84" r="3.77"/>
<path fill="#311716" d="
  M 18.86 126.07
  L 16.58 123.79
  A 1.21 1.20 -45.2 0 1 16.58 122.08
  L 17.73 120.93
  A 1.73 1.73 0.0 0 1 20.41 121.22
  C 21.63 123.10 23.44 129.58 20.03 130.02
  A 0.34 0.34 0.0 0 1 19.75 129.44
  L 20.62 128.57
  A 0.79 0.78 -16.2 0 0 20.83 128.19
  Q 21.75 124.09 19.65 121.83
  A 1.45 1.45 0.0 0 0 17.55 121.79
  L 17.24 122.09
  A 0.96 0.96 0.0 0 0 17.35 123.54
  Q 18.70 124.54 19.15 125.89
  A 0.18 0.17 13.0 0 1 18.86 126.07
  Z"
/>
<path fill="#311716" d="
  M 35.73 137.93
  A 0.31 0.31 0.0 0 1 35.61 137.34
  C 40.58 135.16 36.71 129.22 32.61 131.09
  Q 31.85 131.44 31.81 131.43
  A 0.34 0.34 0.0 0 1 31.67 130.82
  C 36.35 127.56 41.08 133.24 37.59 137.53
  A 1.08 1.06 19.0 0 1 36.75 137.93
  L 35.73 137.93
  Z"
/>
<path fill="#311716" d="
  M 294.99 146.00
  L 292.62 146.00
  Q 292.58 145.93 292.54 145.86
  Q 297.91 143.02 298.61 136.99
  C 299.14 132.37 293.65 131.30 290.18 132.30
  C 286.41 133.38 280.66 137.79 281.89 142.46
  A 1.21 1.21 0.0 0 0 283.17 143.36
  Q 286.00 143.10 286.09 146.00
  L 285.27 146.00
  Q 284.79 144.26 282.78 144.09
  A 2.10 2.07 0.7 0 1 280.86 142.15
  C 280.42 134.75 288.34 129.71 294.85 130.87
  Q 298.65 131.54 299.19 134.72
  Q 299.72 137.86 298.72 140.86
  Q 297.73 143.84 294.99 146.00
  Z"
/>
<path fill="#311716" d="
  M 118.39 146.00
  L 116.49 146.00
  C 117.73 145.04 119.28 144.14 120.15 142.94
  Q 122.47 139.76 120.49 136.47
  Q 117.59 133.41 115.05 132.65
  C 111.38 131.56 107.51 133.87 106.74 137.59
  Q 106.08 140.74 107.98 144.44
  Q 102.74 139.77 107.37 134.09
  C 111.07 129.53 116.59 130.95 120.57 134.76
  A 2.48 2.45 10.1 0 1 121.13 135.55
  Q 124.05 142.09 118.39 146.00
  Z"
/>
<path fill="#d6922c" d="
  M 292.54 145.86
  Q 292.04 145.81 291.87 146.00
  L 286.09 146.00
  Q 286.00 143.10 283.17 143.36
  A 1.21 1.21 0.0 0 1 281.89 142.46
  C 280.66 137.79 286.41 133.38 290.18 132.30
  C 293.65 131.30 299.14 132.37 298.61 136.99
  Q 297.91 143.02 292.54 145.86
  Z"
/>
<path fill="#d6922c" d="
  M 120.49 136.47
  Q 117.32 136.98 114.77 138.31
  Q 113.33 139.06 111.36 141.32
  Q 109.71 143.20 107.98 144.44
  Q 106.08 140.74 106.74 137.59
  C 107.51 133.87 111.38 131.56 115.05 132.65
  Q 117.59 133.41 120.49 136.47
  Z"
/>
<path fill="#050207" d="
  M 254.5799 136.4273
  A 5.59 4.22 -11.9 0 1 249.9802 141.7093
  A 5.59 4.22 -11.9 0 1 243.6401 138.7327
  A 5.59 4.22 -11.9 0 1 248.2398 133.4507
  A 5.59 4.22 -11.9 0 1 254.5799 136.4273
  Z
  M 253.3926 136.4877
  A 4.55 3.30 -16.5 0 0 248.0927 134.6159
  A 4.55 3.30 -16.5 0 0 244.6674 139.0723
  A 4.55 3.30 -16.5 0 0 249.9673 140.9441
  A 4.55 3.30 -16.5 0 0 253.3926 136.4877
  Z"
/>
<path fill="#311716" d="
  M 206.79 138.14
  C 209.43 135.54 203.56 132.22 200.97 136.57
  A 0.20 0.19 -69.5 0 1 200.76 136.67
  Q 200.47 136.63 200.55 136.31
  C 201.47 132.70 206.84 132.65 208.18 136.00
  Q 209.01 138.05 207.14 138.70
  A 0.34 0.34 0.0 0 1 206.79 138.14
  Z"
/>
<ellipse fill="#f2be50" cx="0.00" cy="0.00" transform="translate(249.03,137.78) rotate(-16.5)" rx="4.55" ry="3.30"/>
<path fill="#311716" d="
  M 162.6776 140.3989
  A 3.25 2.66 -10.3 0 1 159.9556 143.5971
  A 3.25 2.66 -10.3 0 1 156.2824 141.5611
  A 3.25 2.66 -10.3 0 1 159.0044 138.3629
  A 3.25 2.66 -10.3 0 1 162.6776 140.3989
  Z
  M 161.9754 140.3786
  A 2.55 1.83 -14.8 0 0 159.0425 139.2607
  A 2.55 1.83 -14.8 0 0 157.0446 141.6814
  A 2.55 1.83 -14.8 0 0 159.9775 142.7993
  A 2.55 1.83 -14.8 0 0 161.9754 140.3786
  Z"
/>
<ellipse fill="#d6922c" cx="0.00" cy="0.00" transform="translate(159.51,141.03) rotate(-14.8)" rx="2.55" ry="1.83"/>
<path fill="#311716" d="
  M 66.73 140.23
  Q 66.97 140.35 67.12 140.60
  A 0.63 0.63 0.0 0 0 67.93 140.85
  Q 68.60 140.55 68.60 139.65
  A 0.58 0.55 27.1 0 1 69.62 139.35
  C 70.19 140.06 69.89 141.20 68.88 141.52
  Q 67.14 142.05 66.18 140.94
  A 0.46 0.46 0.0 0 1 66.73 140.23
  Z"
/>
</svg>
