<?xml version="1.0" encoding="UTF-8" standalone="no"?>
<!DOCTYPE svg PUBLIC "-//W3C//DTD SVG 1.1//EN" "http://www.w3.org/Graphics/SVG/1.1/DTD/svg11.dtd">
<svg xmlns="http://www.w3.org/2000/svg" version="1.1" viewBox="0.00 0.00 337.00 101.00">
<g stroke-width="2.00" fill="none" stroke-linecap="butt">
<path stroke="#f7db88" vector-effect="non-scaling-stroke" d="
  M 10.23 0.00
  Q 11.08 1.51 12.31 2.92
  Q 14.03 4.90 14.34 5.83
  Q 14.75 7.08 15.50 8.56
  A 8.87 8.66 -61.6 0 1 16.41 11.75
  L 17.25 21.25
  A 2.14 2.10 26.9 0 0 17.54 22.11
  Q 17.58 22.15 17.71 22.24
  A 0.68 0.67 36.5 0 1 17.86 23.20
  Q 16.07 25.53 14.47 27.96
  C 12.74 30.58 9.35 32.20 5.80 34.11
  A 1.62 1.59 89.6 0 0 5.12 34.81
  Q 4.35 36.38 4.19 39.23
  Q 3.60 49.52 4.05 60.00
  Q 4.14 61.98 5.22 64.71"
/>
<path stroke="#807558" vector-effect="non-scaling-stroke" d="
  M 5.22 64.71
  Q 3.96 63.80 3.12 63.82"
/>
<path stroke="#807558" vector-effect="non-scaling-stroke" d="
  M 3.60 29.77
  C 7.38 28.32 11.66 26.07 12.82 21.82
  C 13.81 18.20 14.40 16.21 13.52 12.97
  Q 13.12 11.48 12.64 8.96
  A 3.74 3.34 29.6 0 0 12.32 8.01
  Q 9.79 3.04 4.61 0.41"
/>
<path stroke="#99743d" vector-effect="non-scaling-stroke" d="
  M 82.51 0.00
  Q 86.53 4.87 92.33 4.75
  A 0.37 0.37 0.0 0 0 92.40 4.01
  Q 88.03 3.04 84.48 0.00"
/>
<path stroke="#99743d" vector-effect="non-scaling-stroke" d="
  M 98.92 0.00
  Q 98.66 0.68 98.70 1.10
  A 0.41 0.41 0.0 0 0 99.36 1.38
  Q 100.09 0.82 100.50 0.00"
/>
<path stroke="#f3c65a" vector-effect="non-scaling-stroke" d="
  M 244.84 0.00
  Q 261.95 24.09 271.82 39.85
  Q 273.09 41.87 280.08 54.67
  A 3.46 3.21 26.9 0 1 280.42 55.59
  Q 282.57 66.17 285.35 77.86
  Q 287.65 87.58 286.18 101.00"
/>
<path stroke="#99743d" vector-effect="non-scaling-stroke" d="
  M 247.36 101.00
  C 248.88 96.20 250.40 88.56 244.78 86.67
  Q 236.68 83.95 232.91 91.45
  Q 230.45 96.34 233.05 101.00"
/>
<path stroke="#f7db88" vector-effect="non-scaling-stroke" d="
  M 4.24 101.00
  L 5.06 91.48
  A 1.81 1.78 -17.5 0 1 5.73 90.22
  L 12.22 84.94
  A 2.51 2.50 86.5 0 0 12.73 84.36
  Q 14.10 82.22 14.41 80.69
  Q 15.54 75.29 12.79 72.41"
/>
<path stroke="#7d6735" vector-effect="non-scaling-stroke" d="
  M 12.79 72.41
  Q 10.28 67.55 5.22 64.71"
/>
<path stroke="#e5b14b" vector-effect="non-scaling-stroke" d="
  M 33.34 4.64
  Q 30.02 3.31 26.37 4.07
  C 21.99 4.97 20.38 10.24 19.32 14.04
  Q 18.22 17.98 17.79 21.76"
/>
<path stroke="#7d6735" vector-effect="non-scaling-stroke" d="
  M 17.79 21.76
  Q 23.17 22.85 25.04 16.84
  Q 25.48 15.42 26.01 13.53
  A 3.50 3.48 87.3 0 1 28.12 11.20
  L 32.12 9.67
  A 2.71 2.70 88.1 0 0 33.72 7.96
  Q 34.60 5.20 34.08 2.52
  A 0.26 0.26 0.0 0 0 33.73 2.33
  L 33.43 2.45
  A 0.11 0.10 86.4 0 0 33.36 2.54
  L 33.34 4.64"
/>
<path stroke="#6e4b1b" vector-effect="non-scaling-stroke" d="
  M 17.79 21.76
  Q 22.50 20.82 23.22 19.25
  Q 24.07 17.39 24.52 14.51
  Q 24.73 13.14 26.70 10.81
  A 2.24 2.18 -76.2 0 1 27.87 10.08
  C 31.52 9.15 33.42 9.28 33.34 4.64"
/>
<path stroke="#f3c65a" vector-effect="non-scaling-stroke" d="
  M 140.22 8.13
  L 136.06 9.03"
/>
<path stroke="#7d6735" vector-effect="non-scaling-stroke" d="
  M 136.06 9.03
  Q 133.28 9.85 131.95 12.54
  Q 130.82 14.83 132.91 15.72
  Q 137.34 17.59 140.78 13.21
  Q 142.57 10.94 140.22 8.13"
/>
<path stroke="#7c602b" vector-effect="non-scaling-stroke" d="
  M 136.06 9.03
  Q 133.83 10.64 132.86 12.82
  A 1.15 1.11 -46.7 0 0 132.87 13.74
  Q 133.89 15.92 136.72 14.93
  Q 141.22 13.37 140.22 8.13"
/>
<path stroke="#99743d" vector-effect="non-scaling-stroke" d="
  M 230.3420 24.1985
  A 4.12 3.61 -59.0 0 0 225.1256 25.8707
  A 4.12 3.61 -59.0 0 0 226.0980 31.2615
  A 4.12 3.61 -59.0 0 0 231.3144 29.5893
  A 4.12 3.61 -59.0 0 0 230.3420 24.1985"
/>
<path stroke="#99743d" vector-effect="non-scaling-stroke" d="
  M 184.8234 28.0692
  A 10.49 9.53 -48.7 0 0 170.7405 29.6602
  A 10.49 9.53 -48.7 0 0 170.9766 43.8308
  A 10.49 9.53 -48.7 0 0 185.0595 42.2398
  A 10.49 9.53 -48.7 0 0 184.8234 28.0692"
/>
<path stroke="#7d6735" vector-effect="non-scaling-stroke" d="
  M 71.0578 33.7497
  A 8.67 8.39 -13.0 0 0 60.7227 27.5250
  A 8.67 8.39 -13.0 0 0 54.1622 37.6503
  A 8.67 8.39 -13.0 0 0 64.4973 43.8750
  A 8.67 8.39 -13.0 0 0 71.0578 33.7497"
/>
<path stroke="#7d6735" vector-effect="non-scaling-stroke" d="
  M 28.5626 46.5275
  A 3.61 2.94 -52.2 0 0 24.0269 47.5781
  A 3.61 2.94 -52.2 0 0 24.1374 52.2325
  A 3.61 2.94 -52.2 0 0 28.6731 51.1819
  A 3.61 2.94 -52.2 0 0 28.5626 46.5275"
/>
<path stroke="#f7db88" vector-effect="non-scaling-stroke" d="
  M 258.52 54.88
  Q 257.51 55.06 258.24 55.94
  A 1.04 1.00 74.8 0 0 258.81 56.28
  Q 262.58 57.13 263.60 53.96
  C 264.32 51.72 262.72 50.89 260.80 51.32"
/>
<path stroke="#99743d" vector-effect="non-scaling-stroke" d="
  M 260.80 51.32
  Q 260.32 50.98 259.93 50.91
  A 0.46 0.46 0.0 0 0 259.40 51.49
  Q 259.68 52.46 259.16 53.19
  A 1.44 1.28 56.5 0 1 256.81 52.56
  Q 256.55 51.71 257.53 50.53
  A 0.12 0.11 -47.4 0 0 257.53 50.38
  L 257.36 50.17
  A 0.20 0.20 0.0 0 0 257.03 50.19
  Q 256.08 51.72 256.16 53.54
  Q 256.23 55.02 258.52 54.88"
/>
<path stroke="#9c8160" vector-effect="non-scaling-stroke" d="
  M 260.80 51.32
  Q 260.72 53.81 258.52 54.88"
/>
<path stroke="#7d6735" vector-effect="non-scaling-stroke" d="
  M 278.1784 55.3695
  A 4.78 4.04 -39.5 0 0 271.9202 55.2926
  A 4.78 4.04 -39.5 0 0 270.8016 61.4505
  A 4.78 4.04 -39.5 0 0 277.0598 61.5274
  A 4.78 4.04 -39.5 0 0 278.1784 55.3695"
/>
<path stroke="#e5b14b" vector-effect="non-scaling-stroke" d="
  M 84.97 70.85
  Q 86.08 65.73 88.66 63.45
  A 1.13 1.07 12.9 0 1 89.00 63.25
  L 92.91 61.75
  A 0.74 0.74 0.0 0 1 93.80 62.04
  C 94.93 63.76 93.98 65.55 93.93 67.32
  A 0.27 0.27 0.0 0 0 94.45 67.45
  Q 96.74 62.84 93.25 59.97"
/>
<path stroke="#99743d" vector-effect="non-scaling-stroke" d="
  M 93.25 59.97
  Q 90.90 56.56 86.63 57.44
  C 79.84 58.84 77.44 67.42 83.68 71.28
  Q 87.24 73.48 90.24 71.49
  A 0.15 0.15 0.0 0 0 90.13 71.22
  Q 87.28 71.69 84.97 70.85"
/>
<path stroke="#8a5723" vector-effect="non-scaling-stroke" d="
  M 93.25 59.97
  C 88.27 56.79 80.66 58.77 81.25 65.74
  Q 81.53 69.10 84.97 70.85"
/>
<path stroke="#f7db88" vector-effect="non-scaling-stroke" d="
  M 120.97 85.76
  Q 124.74 86.68 126.99 83.23
  Q 129.02 80.11 128.76 77.52
  Q 128.56 75.48 126.72 75.52"
/>
<path stroke="#99743d" vector-effect="non-scaling-stroke" d="
  M 126.72 75.52
  Q 125.44 71.14 121.02 71.19
  C 114.55 71.26 111.07 77.56 113.20 83.46
  A 2.61 2.55 -76.4 0 0 113.70 84.30
  Q 116.40 87.27 120.97 85.76"
/>
<path stroke="#9c8160" vector-effect="non-scaling-stroke" d="
  M 126.72 75.52
  Q 127.71 83.23 120.97 85.76"
/>
<path stroke="#7d6735" vector-effect="non-scaling-stroke" d="
  M 19.34 91.18
  Q 17.42 93.35 17.24 96.18
  A 1.22 1.22 0.0 0 0 19.39 97.04
  Q 22.47 93.36 22.65 90.68"
/>
<path stroke="#f3c65a" vector-effect="non-scaling-stroke" d="
  M 22.65 90.68
  Q 20.00 89.87 19.34 91.18"
/>
<path stroke="#7c602b" vector-effect="non-scaling-stroke" d="
  M 22.65 90.68
  Q 20.88 94.16 18.82 96.19
  A 0.63 0.63 0.0 0 1 17.81 95.45
  Q 18.22 94.65 18.11 93.63
  A 1.12 1.10 -23.2 0 1 18.50 92.67
  Q 20.02 91.39 19.34 91.18"
/>
<path stroke="#7d6735" vector-effect="non-scaling-stroke" d="
  M 214.05 95.85
  A 4.49 4.49 0.0 0 0 209.56 91.36
  A 4.49 4.49 0.0 0 0 205.07 95.85
  A 4.49 4.49 0.0 0 0 209.56 100.34
  A 4.49 4.49 0.0 0 0 214.05 95.85"
/>
<path stroke="#7c602b" vector-effect="non-scaling-stroke" d="
  M 332.21 1.41
  C 324.92 3.33 321.86 13.09 322.39 19.69
  C 322.82 25.03 323.93 29.07 328.83 31.43
  Q 331.09 32.52 332.81 33.34"
/>
<path stroke="#e4aa41" vector-effect="non-scaling-stroke" d="
  M 332.81 33.34
  Q 332.59 41.88 332.49 50.17
  C 332.43 54.77 330.66 58.77 331.85 63.30"
/>
<path stroke="#7c602b" vector-effect="non-scaling-stroke" d="
  M 331.85 63.30
  Q 328.68 65.86 324.98 64.25
  A 1.96 1.95 32.0 0 0 322.71 64.77
  C 317.41 70.95 314.77 80.56 321.89 86.63
  C 324.45 88.81 324.88 89.44 328.72 89.19
  Q 331.10 89.04 333.39 89.26"
/>
<path stroke="#f6d47e" vector-effect="non-scaling-stroke" d="
  M 281.68 30.76
  Q 287.45 32.66 289.32 26.73
  Q 289.69 25.54 289.74 24.12
  Q 289.80 22.20 289.41 21.52
  Q 288.63 20.17 287.77 20.60"
/>
<path stroke="#7c602b" vector-effect="non-scaling-stroke" d="
  M 287.77 20.60
  C 283.91 12.85 272.22 18.33 275.45 26.31
  Q 276.79 29.64 281.68 30.76"
/>
<path stroke="#807558" vector-effect="non-scaling-stroke" d="
  M 287.77 20.60
  Q 289.63 28.11 281.68 30.76"
/>
<path stroke="#7c602b" vector-effect="non-scaling-stroke" d="
  M 317.37 45.35
  L 313.20 45.99
  A 0.71 0.71 0.0 0 0 312.61 46.80
  L 312.63 46.97
  A 2.66 2.44 -8.8 0 0 315.64 48.97
  L 315.95 48.93
  A 2.66 2.44 -8.8 0 0 318.21 46.11
  L 318.18 45.94
  A 0.71 0.71 0.0 0 0 317.37 45.35"
/>
<path stroke="#807558" vector-effect="non-scaling-stroke" d="
  M 5.28 27.18
  Q 8.10 26.77 10.02 24.52
  Q 13.30 20.66 12.88 15.77"
/>
<path stroke="#7d6735" vector-effect="non-scaling-stroke" d="
  M 12.88 15.77
  Q 12.80 7.12 5.75 2.76"
/>
<path stroke="#6e4b1b" vector-effect="non-scaling-stroke" d="
  M 331.30 3.67
  Q 329.87 3.76 328.58 5.13
  Q 320.67 13.54 324.26 24.79
  Q 326.07 30.46 332.65 31.14"
/>
<path stroke="#6e4b1b" vector-effect="non-scaling-stroke" d="
  M 334.02 33.54
  Q 333.48 33.65 332.81 33.34"
/>
<path stroke="#f7db88" vector-effect="non-scaling-stroke" d="
  M 12.88 15.77
  Q 10.12 13.09 7.60 12.93"
/>
<path stroke="#7d6735" vector-effect="non-scaling-stroke" d="
  M 280.37 28.99
  A 5.70 5.40 -53.7 0 0 286.24 20.36"
/>
<path stroke="#6e4b1b" vector-effect="non-scaling-stroke" d="
  M 286.24 20.36
  A 5.70 5.40 -53.6 0 0 279.42 18.40
  A 5.70 5.41 -54.0 0 0 276.22 25.29
  A 5.70 5.41 -53.7 0 0 280.37 28.99"
/>
<path stroke="#e5b14b" vector-effect="non-scaling-stroke" d="
  M 286.24 20.36
  Q 281.16 23.30 280.37 28.99"
/>
<path stroke="#8a5723" vector-effect="non-scaling-stroke" d="
  M 231.2379 25.9944
  A 3.03 2.47 -33.8 0 0 227.3459 25.6275
  A 3.03 2.47 -33.8 0 0 226.2021 29.3656
  A 3.03 2.47 -33.8 0 0 230.0941 29.7325
  A 3.03 2.47 -33.8 0 0 231.2379 25.9944"
/>
<path stroke="#986d33" vector-effect="non-scaling-stroke" d="
  M 177.26 45.02
  A 9.25 8.49 -55.9 0 0 186.30 32.84"
/>
<path stroke="#8a5723" vector-effect="non-scaling-stroke" d="
  M 186.30 32.84
  A 9.26 8.50 -55.8 0 0 174.96 27.77
  A 9.26 8.50 -55.9 0 0 171.22 30.75
  A 9.24 8.48 -55.8 0 0 170.54 41.46
  A 9.26 8.50 -55.7 0 0 177.26 45.02"
/>
<path stroke="#e4aa41" vector-effect="non-scaling-stroke" d="
  M 186.30 32.84
  L 181.64 34.01
  A 3.67 3.58 20.4 0 0 180.58 34.48
  Q 177.21 36.73 176.39 39.98
  Q 175.77 42.39 177.26 45.02"
/>
<path stroke="#6e4b1b" vector-effect="non-scaling-stroke" d="
  M 70.1730 34.6322
  A 7.72 7.25 -8.1 0 0 61.5085 28.5423
  A 7.72 7.25 -8.1 0 0 54.8870 36.8078
  A 7.72 7.25 -8.1 0 0 63.5515 42.8977
  A 7.72 7.25 -8.1 0 0 70.1730 34.6322"
/>
<path stroke="#6e4b1b" vector-effect="non-scaling-stroke" d="
  M 334.02 62.16
  L 331.85 63.30"
/>
<path stroke="#7c602b" vector-effect="non-scaling-stroke" d="
  M 315.43 46.64
  Q 314.71 46.74 314.25 46.77
  A 0.57 0.57 0.0 0 0 313.99 47.82
  Q 314.82 48.32 315.64 48.21
  Q 316.47 48.09 317.12 47.38
  A 0.57 0.57 0.0 0 0 316.59 46.44
  Q 316.14 46.54 315.43 46.64"
/>
<path stroke="#7d6735" vector-effect="non-scaling-stroke" d="
  M 24.18 50.42
  L 25.77 51.87
  A 0.79 0.79 0.0 0 0 26.89 51.82
  L 27.46 51.19
  A 3.10 1.79 -47.7 0 0 28.22 47.69
  L 28.11 47.58
  A 3.10 1.79 -47.7 0 0 24.70 48.67
  L 24.12 49.30
  A 0.79 0.79 0.0 0 0 24.18 50.42"
/>
<path stroke="#6e4b1b" vector-effect="non-scaling-stroke" d="
  M 277.4161 56.2585
  A 3.60 2.95 -37.5 0 0 272.7642 56.1096
  A 3.60 2.95 -37.5 0 0 271.7039 60.6415
  A 3.60 2.95 -37.5 0 0 276.3558 60.7904
  A 3.60 2.95 -37.5 0 0 277.4161 56.2585"
/>
<path stroke="#6e4b1b" vector-effect="non-scaling-stroke" d="
  M 333.76 64.03
  C 330.42 65.64 327.83 67.03 324.73 65.40
  A 1.14 1.14 0.0 0 0 323.29 65.73
  C 318.40 72.39 316.35 80.70 323.80 86.77
  A 5.13 5.11 64.4 0 0 327.02 87.91
  L 333.31 87.90"
/>
<path stroke="#807558" vector-effect="non-scaling-stroke" d="
  M 12.79 72.41
  Q 13.70 79.01 10.33 82.33
  Q 7.07 85.54 1.56 87.18"
/>
<path stroke="#7c602b" vector-effect="non-scaling-stroke" d="
  M 2.03 85.43
  Q 6.83 84.21 8.96 81.99
  Q 14.95 75.77 9.29 69.43"
/>
<path stroke="#6e4b1b" vector-effect="non-scaling-stroke" d="
  M 9.29 69.43
  Q 6.74 66.75 3.28 65.44"
/>
<path stroke="#e4aa41" vector-effect="non-scaling-stroke" d="
  M 9.29 69.43
  L 9.62 72.66
  A 0.86 0.86 0.0 0 1 8.61 73.59
  L 4.19 72.76"
/>
<path stroke="#986d33" vector-effect="non-scaling-stroke" d="
  M 118.02 85.50
  A 7.11 5.73 -50.0 0 0 125.39 80.13
  A 7.14 5.73 -50.3 0 0 125.28 74.96"
/>
<path stroke="#8a5723" vector-effect="non-scaling-stroke" d="
  M 125.28 74.96
  A 7.11 5.73 -50.1 0 0 113.22 80.74
  A 7.10 5.72 -49.9 0 0 118.02 85.50"
/>
<path stroke="#e4aa41" vector-effect="non-scaling-stroke" d="
  M 125.28 74.96
  Q 118.57 78.58 118.02 85.50"
/>
<path stroke="#986d33" vector-effect="non-scaling-stroke" d="
  M 246.23 101.00
  Q 248.37 97.26 247.91 91.07"
/>
<path stroke="#8a5723" vector-effect="non-scaling-stroke" d="
  M 247.91 91.07
  Q 242.67 84.66 237.13 88.33
  Q 233.99 90.41 233.35 94.05
  Q 232.72 97.61 234.39 101.00"
/>
<path stroke="#e4aa41" vector-effect="non-scaling-stroke" d="
  M 247.91 91.07
  Q 239.28 93.37 239.79 101.00"
/>
<path stroke="#7c602b" vector-effect="non-scaling-stroke" d="
  M 206.2649 94.4297
  A 3.58 3.32 -155.4 0 0 208.1379 98.9387
  A 3.58 3.32 -155.4 0 0 212.7751 97.4103
  A 3.58 3.32 -155.4 0 0 210.9021 92.9013
  A 3.58 3.32 -155.4 0 0 206.2649 94.4297"
/>
</g>
<path fill="#fae8ab" d="
  M 10.23 0.00
  Q 11.08 1.51 12.31 2.92
  Q 14.03 4.90 14.34 5.83
  Q 14.75 7.08 15.50 8.56
  A 8.87 8.66 -61.6 0 1 16.41 11.75
  L 17.25 21.25
  A 2.14 2.10 26.9 0 0 17.54 22.11
  Q 17.58 22.15 17.71 22.24
  A 0.68 0.67 36.5 0 1 17.86 23.20
  Q 16.07 25.53 14.47 27.96
  C 12.74 30.58 9.35 32.20 5.80 34.11
  A 1.62 1.59 89.6 0 0 5.12 34.81
  Q 4.35 36.38 4.19 39.23
  Q 3.60 49.52 4.05 60.00
  Q 4.14 61.98 5.22 64.71
  Q 3.96 63.80 3.12 63.82
  Q 2.18 62.18 2.16 59.50
  Q 2.08 45.88 2.15 32.25
  Q 2.16 31.04 3.60 29.77
  C 7.38 28.32 11.66 26.07 12.82 21.82
  C 13.81 18.20 14.40 16.21 13.52 12.97
  Q 13.12 11.48 12.64 8.96
  A 3.74 3.34 29.6 0 0 12.32 8.01
  Q 9.79 3.04 4.61 0.41
  Q 4.96 0.35 5.13 0.00
  L 10.23 0.00
  Z"
/>
<path fill="#f4cd64" d="
  M 77.64 0.00
  Q 79.45 0.35 81.26 0.00
  L 82.51 0.00
  Q 86.53 4.87 92.33 4.75
  A 0.37 0.37 0.0 0 0 92.40 4.01
  Q 88.03 3.04 84.48 0.00
  L 98.92 0.00
  Q 98.66 0.68 98.70 1.10
  A 0.41 0.41 0.0 0 0 99.36 1.38
  Q 100.09 0.82 100.50 0.00
  L 244.84 0.00
  Q 261.95 24.09 271.82 39.85
  Q 273.09 41.87 280.08 54.67
  A 3.46 3.21 26.9 0 1 280.42 55.59
  Q 282.57 66.17 285.35 77.86
  Q 287.65 87.58 286.18 101.00
  L 247.36 101.00
  C 248.88 96.20 250.40 88.56 244.78 86.67
  Q 236.68 83.95 232.91 91.45
  Q 230.45 96.34 233.05 101.00
  L 4.24 101.00
  L 5.06 91.48
  A 1.81 1.78 -17.5 0 1 5.73 90.22
  L 12.22 84.94
  A 2.51 2.50 86.5 0 0 12.73 84.36
  Q 14.10 82.22 14.41 80.69
  Q 15.54 75.29 12.79 72.41
  Q 10.28 67.55 5.22 64.71
  Q 4.14 61.98 4.05 60.00
  Q 3.60 49.52 4.19 39.23
  Q 4.35 36.38 5.12 34.81
  A 1.62 1.59 89.6 0 1 5.80 34.11
  C 9.35 32.20 12.74 30.58 14.47 27.96
  Q 16.07 25.53 17.86 23.20
  A 0.68 0.67 36.5 0 0 17.71 22.24
  Q 17.58 22.15 17.54 22.11
  A 2.14 2.10 26.9 0 1 17.25 21.25
  L 16.41 11.75
  A 8.87 8.66 -61.6 0 0 15.50 8.56
  Q 14.75 7.08 14.34 5.83
  Q 14.03 4.90 12.31 2.92
  Q 11.08 1.51 10.23 0.00
  L 77.64 0.00
  Z
  M 33.34 4.64
  Q 30.02 3.31 26.37 4.07
  C 21.99 4.97 20.38 10.24 19.32 14.04
  Q 18.22 17.98 17.79 21.76
  Q 23.17 22.85 25.04 16.84
  Q 25.48 15.42 26.01 13.53
  A 3.50 3.48 87.3 0 1 28.12 11.20
  L 32.12 9.67
  A 2.71 2.70 88.1 0 0 33.72 7.96
  Q 34.60 5.20 34.08 2.52
  A 0.26 0.26 0.0 0 0 33.73 2.33
  L 33.43 2.45
  A 0.11 0.10 86.4 0 0 33.36 2.54
  L 33.34 4.64
  Z
  M 140.22 8.13
  L 136.06 9.03
  Q 133.28 9.85 131.95 12.54
  Q 130.82 14.83 132.91 15.72
  Q 137.34 17.59 140.78 13.21
  Q 142.57 10.94 140.22 8.13
  Z
  M 230.3420 24.1985
  A 4.12 3.61 -59.0 0 0 225.1256 25.8707
  A 4.12 3.61 -59.0 0 0 226.0980 31.2615
  A 4.12 3.61 -59.0 0 0 231.3144 29.5893
  A 4.12 3.61 -59.0 0 0 230.3420 24.1985
  Z
  M 184.8234 28.0692
  A 10.49 9.53 -48.7 0 0 170.7405 29.6602
  A 10.49 9.53 -48.7 0 0 170.9766 43.8308
  A 10.49 9.53 -48.7 0 0 185.0595 42.2398
  A 10.49 9.53 -48.7 0 0 184.8234 28.0692
  Z
  M 71.0578 33.7497
  A 8.67 8.39 -13.0 0 0 60.7227 27.5250
  A 8.67 8.39 -13.0 0 0 54.1622 37.6503
  A 8.67 8.39 -13.0 0 0 64.4973 43.8750
  A 8.67 8.39 -13.0 0 0 71.0578 33.7497
  Z
  M 28.5626 46.5275
  A 3.61 2.94 -52.2 0 0 24.0269 47.5781
  A 3.61 2.94 -52.2 0 0 24.1374 52.2325
  A 3.61 2.94 -52.2 0 0 28.6731 51.1819
  A 3.61 2.94 -52.2 0 0 28.5626 46.5275
  Z
  M 258.52 54.88
  Q 257.51 55.06 258.24 55.94
  A 1.04 1.00 74.8 0 0 258.81 56.28
  Q 262.58 57.13 263.60 53.96
  C 264.32 51.72 262.72 50.89 260.80 51.32
  Q 260.32 50.98 259.93 50.91
  A 0.46 0.46 0.0 0 0 259.40 51.49
  Q 259.68 52.46 259.16 53.19
  A 1.44 1.28 56.5 0 1 256.81 52.56
  Q 256.55 51.71 257.53 50.53
  A 0.12 0.11 -47.4 0 0 257.53 50.38
  L 257.36 50.17
  A 0.20 0.20 0.0 0 0 257.03 50.19
  Q 256.08 51.72 256.16 53.54
  Q 256.23 55.02 258.52 54.88
  Z
  M 278.1784 55.3695
  A 4.78 4.04 -39.5 0 0 271.9202 55.2926
  A 4.78 4.04 -39.5 0 0 270.8016 61.4505
  A 4.78 4.04 -39.5 0 0 277.0598 61.5274
  A 4.78 4.04 -39.5 0 0 278.1784 55.3695
  Z
  M 84.97 70.85
  Q 86.08 65.73 88.66 63.45
  A 1.13 1.07 12.9 0 1 89.00 63.25
  L 92.91 61.75
  A 0.74 0.74 0.0 0 1 93.80 62.04
  C 94.93 63.76 93.98 65.55 93.93 67.32
  A 0.27 0.27 0.0 0 0 94.45 67.45
  Q 96.74 62.84 93.25 59.97
  Q 90.90 56.56 86.63 57.44
  C 79.84 58.84 77.44 67.42 83.68 71.28
  Q 87.24 73.48 90.24 71.49
  A 0.15 0.15 0.0 0 0 90.13 71.22
  Q 87.28 71.69 84.97 70.85
  Z
  M 120.97 85.76
  Q 124.74 86.68 126.99 83.23
  Q 129.02 80.11 128.76 77.52
  Q 128.56 75.48 126.72 75.52
  Q 125.44 71.14 121.02 71.19
  C 114.55 71.26 111.07 77.56 113.20 83.46
  A 2.61 2.55 -76.4 0 0 113.70 84.30
  Q 116.40 87.27 120.97 85.76
  Z
  M 19.34 91.18
  Q 17.42 93.35 17.24 96.18
  A 1.22 1.22 0.0 0 0 19.39 97.04
  Q 22.47 93.36 22.65 90.68
  Q 20.00 89.87 19.34 91.18
  Z
  M 214.05 95.85
  A 4.49 4.49 0.0 0 0 209.56 91.36
  A 4.49 4.49 0.0 0 0 205.07 95.85
  A 4.49 4.49 0.0 0 0 209.56 100.34
  A 4.49 4.49 0.0 0 0 214.05 95.85
  Z"
/>
<path fill="#3e1a15" d="
  M 84.48 0.00
  Q 88.03 3.04 92.40 4.01
  A 0.37 0.37 0.0 0 1 92.33 4.75
  Q 86.53 4.87 82.51 0.00
  L 84.48 0.00
  Z"
/>
<path fill="#3e1a15" d="
  M 100.50 0.00
  Q 100.09 0.82 99.36 1.38
  A 0.41 0.41 0.0 0 1 98.70 1.10
  Q 98.66 0.68 98.92 0.00
  L 100.50 0.00
  Z"
/>
<path fill="#f2bf50" d="
  M 332.12 0.00
  L 332.97 0.47
  A 0.32 0.32 0.0 0 1 332.96 1.03
  L 332.21 1.41
  C 324.92 3.33 321.86 13.09 322.39 19.69
  C 322.82 25.03 323.93 29.07 328.83 31.43
  Q 331.09 32.52 332.81 33.34
  Q 332.59 41.88 332.49 50.17
  C 332.43 54.77 330.66 58.77 331.85 63.30
  Q 328.68 65.86 324.98 64.25
  A 1.96 1.95 32.0 0 0 322.71 64.77
  C 317.41 70.95 314.77 80.56 321.89 86.63
  C 324.45 88.81 324.88 89.44 328.72 89.19
  Q 331.10 89.04 333.39 89.26
  L 333.76 101.00
  L 286.18 101.00
  Q 287.65 87.58 285.35 77.86
  Q 282.57 66.17 280.42 55.59
  A 3.46 3.21 26.9 0 0 280.08 54.67
  Q 273.09 41.87 271.82 39.85
  Q 261.95 24.09 244.84 0.00
  L 332.12 0.00
  Z
  M 281.68 30.76
  Q 287.45 32.66 289.32 26.73
  Q 289.69 25.54 289.74 24.12
  Q 289.80 22.20 289.41 21.52
  Q 288.63 20.17 287.77 20.60
  C 283.91 12.85 272.22 18.33 275.45 26.31
  Q 276.79 29.64 281.68 30.76
  Z
  M 317.37 45.35
  L 313.20 45.99
  A 0.71 0.71 0.0 0 0 312.61 46.80
  L 312.63 46.97
  A 2.66 2.44 -8.8 0 0 315.64 48.97
  L 315.95 48.93
  A 2.66 2.44 -8.8 0 0 318.21 46.11
  L 318.18 45.94
  A 0.71 0.71 0.0 0 0 317.37 45.35
  Z"
/>
<path fill="#050105" d="
  M 4.61 0.41
  Q 9.79 3.04 12.32 8.01
  A 3.74 3.34 29.6 0 1 12.64 8.96
  Q 13.12 11.48 13.52 12.97
  C 14.40 16.21 13.81 18.20 12.82 21.82
  C 11.66 26.07 7.38 28.32 3.60 29.77
  Q 4.21 28.35 5.28 27.18
  Q 8.10 26.77 10.02 24.52
  Q 13.30 20.66 12.88 15.77
  Q 12.80 7.12 5.75 2.76
  Q 4.91 1.78 4.61 0.41
  Z"
/>
<path fill="#050105" d="
  M 332.21 1.41
  Q 332.06 2.78 331.30 3.67
  Q 329.87 3.76 328.58 5.13
  Q 320.67 13.54 324.26 24.79
  Q 326.07 30.46 332.65 31.14
  L 334.02 33.54
  Q 333.48 33.65 332.81 33.34
  Q 331.09 32.52 328.83 31.43
  C 323.93 29.07 322.82 25.03 322.39 19.69
  C 321.86 13.09 324.92 3.33 332.21 1.41
  Z"
/>
<path fill="#050105" d="
  M 17.79 21.76
  Q 22.50 20.82 23.22 19.25
  Q 24.07 17.39 24.52 14.51
  Q 24.73 13.14 26.70 10.81
  A 2.24 2.18 -76.2 0 1 27.87 10.08
  C 31.52 9.15 33.42 9.28 33.34 4.64
  L 33.36 2.54
  A 0.11 0.10 86.4 0 1 33.43 2.45
  L 33.73 2.33
  A 0.26 0.26 0.0 0 1 34.08 2.52
  Q 34.60 5.20 33.72 7.96
  A 2.71 2.70 88.1 0 1 32.12 9.67
  L 28.12 11.20
  A 3.50 3.48 87.3 0 0 26.01 13.53
  Q 25.48 15.42 25.04 16.84
  Q 23.17 22.85 17.79 21.76
  Z"
/>
<path fill="#f4cd64" d="
  M 12.88 15.77
  Q 10.12 13.09 7.60 12.93
  Q 7.85 7.73 5.75 2.76
  Q 12.80 7.12 12.88 15.77
  Z"
/>
<path fill="#d69431" d="
  M 33.34 4.64
  C 33.42 9.28 31.52 9.15 27.87 10.08
  A 2.24 2.18 -76.2 0 0 26.70 10.81
  Q 24.73 13.14 24.52 14.51
  Q 24.07 17.39 23.22 19.25
  Q 22.50 20.82 17.79 21.76
  Q 18.22 17.98 19.32 14.04
  C 20.38 10.24 21.99 4.97 26.37 4.07
  Q 30.02 3.31 33.34 4.64
  Z"
/>
<path fill="#d69431" d="
  M 331.30 3.67
  C 328.08 13.39 327.65 21.96 332.65 31.14
  Q 326.07 30.46 324.26 24.79
  Q 320.67 13.54 328.58 5.13
  Q 329.87 3.76 331.30 3.67
  Z"
/>
<path fill="#050105" d="
  M 136.06 9.03
  Q 133.83 10.64 132.86 12.82
  A 1.15 1.11 -46.7 0 0 132.87 13.74
  Q 133.89 15.92 136.72 14.93
  Q 141.22 13.37 140.22 8.13
  Q 142.57 10.94 140.78 13.21
  Q 137.34 17.59 132.91 15.72
  Q 130.82 14.83 131.95 12.54
  Q 133.28 9.85 136.06 9.03
  Z"
/>
<path fill="#f2bf50" d="
  M 140.22 8.13
  Q 141.22 13.37 136.72 14.93
  Q 133.89 15.92 132.87 13.74
  A 1.15 1.11 -46.7 0 1 132.86 12.82
  Q 133.83 10.64 136.06 9.03
  L 140.22 8.13
  Z"
/>
<path fill="#fae8ab" d="
  M 12.88 15.77
  Q 13.30 20.66 10.02 24.52
  Q 8.10 26.77 5.28 27.18
  Q 8.48 21.04 7.60 12.93
  Q 10.12 13.09 12.88 15.77
  Z"
/>
<path fill="#050105" d="
  M 287.77 20.60
  Q 289.63 28.11 281.68 30.76
  Q 276.79 29.64 275.45 26.31
  C 272.22 18.33 283.91 12.85 287.77 20.60
  Z
  M 280.37 28.99
  A 5.70 5.40 -53.7 0 0 286.24 20.36
  A 5.70 5.40 -53.6 0 0 279.42 18.40
  A 5.70 5.41 -54.0 0 0 276.22 25.29
  A 5.70 5.41 -53.7 0 0 280.37 28.99
  Z"
/>
<path fill="#d69431" d="
  M 286.24 20.36
  Q 281.16 23.30 280.37 28.99
  A 5.70 5.41 -53.7 0 1 276.22 25.29
  A 5.70 5.41 -54.0 0 1 279.42 18.40
  A 5.70 5.40 -53.6 0 1 286.24 20.36
  Z"
/>
<path fill="#f4cd64" d="
  M 286.24 20.36
  A 5.70 5.40 -53.7 0 1 280.37 28.99
  Q 281.16 23.30 286.24 20.36
  Z"
/>
<path fill="#fae8ab" d="
  M 281.68 30.76
  Q 289.63 28.11 287.77 20.60
  Q 288.63 20.17 289.41 21.52
  Q 289.80 22.20 289.74 24.12
  Q 289.69 25.54 289.32 26.73
  Q 287.45 32.66 281.68 30.76
  Z"
/>
<path fill="#3e1a15" d="
  M 230.3420 24.1985
  A 4.12 3.61 -59.0 0 1 231.3144 29.5893
  A 4.12 3.61 -59.0 0 1 226.0980 31.2615
  A 4.12 3.61 -59.0 0 1 225.1256 25.8707
  A 4.12 3.61 -59.0 0 1 230.3420 24.1985
  Z
  M 231.2379 25.9944
  A 3.03 2.47 -33.8 0 0 227.3459 25.6275
  A 3.03 2.47 -33.8 0 0 226.2021 29.3656
  A 3.03 2.47 -33.8 0 0 230.0941 29.7325
  A 3.03 2.47 -33.8 0 0 231.2379 25.9944
  Z"
/>
<ellipse fill="#d69431" cx="0.00" cy="0.00" transform="translate(228.72,27.68) rotate(-33.8)" rx="3.03" ry="2.47"/>
<path fill="#3e1a15" d="
  M 184.8234 28.0692
  A 10.49 9.53 -48.7 0 1 185.0595 42.2398
  A 10.49 9.53 -48.7 0 1 170.9766 43.8308
  A 10.49 9.53 -48.7 0 1 170.7405 29.6602
  A 10.49 9.53 -48.7 0 1 184.8234 28.0692
  Z
  M 177.26 45.02
  A 9.25 8.49 -55.9 0 0 186.30 32.84
  A 9.26 8.50 -55.8 0 0 174.96 27.77
  A 9.26 8.50 -55.9 0 0 171.22 30.75
  A 9.24 8.48 -55.8 0 0 170.54 41.46
  A 9.26 8.50 -55.7 0 0 177.26 45.02
  Z"
/>
<path fill="#d69431" d="
  M 186.30 32.84
  L 181.64 34.01
  A 3.67 3.58 20.4 0 0 180.58 34.48
  Q 177.21 36.73 176.39 39.98
  Q 175.77 42.39 177.26 45.02
  A 9.26 8.50 -55.7 0 1 170.54 41.46
  A 9.24 8.48 -55.8 0 1 171.22 30.75
  A 9.26 8.50 -55.9 0 1 174.96 27.77
  A 9.26 8.50 -55.8 0 1 186.30 32.84
  Z"
/>
<path fill="#050105" d="
  M 71.0578 33.7497
  A 8.67 8.39 -13.0 0 1 64.4973 43.8750
  A 8.67 8.39 -13.0 0 1 54.1622 37.6503
  A 8.67 8.39 -13.0 0 1 60.7227 27.5250
  A 8.67 8.39 -13.0 0 1 71.0578 33.7497
  Z
  M 70.1730 34.6322
  A 7.72 7.25 -8.1 0 0 61.5085 28.5423
  A 7.72 7.25 -8.1 0 0 54.8870 36.8078
  A 7.72 7.25 -8.1 0 0 63.5515 42.8977
  A 7.72 7.25 -8.1 0 0 70.1730 34.6322
  Z"
/>
<ellipse fill="#d69431" cx="0.00" cy="0.00" transform="translate(62.53,35.72) rotate(-8.1)" rx="7.72" ry="7.25"/>
<path fill="#f2bf50" d="
  M 186.30 32.84
  A 9.25 8.49 -55.9 0 1 177.26 45.02
  Q 175.77 42.39 176.39 39.98
  Q 177.21 36.73 180.58 34.48
  A 3.67 3.58 20.4 0 1 181.64 34.01
  L 186.30 32.84
  Z"
/>
<path fill="#d69431" d="
  M 334.02 33.54
  Q 335.37 42.69 335.38 46.47
  Q 335.38 50.17 334.02 62.16
  L 331.85 63.30
  C 330.66 58.77 332.43 54.77 332.49 50.17
  Q 332.59 41.88 332.81 33.34
  Q 333.48 33.65 334.02 33.54
  Z"
/>
<path fill="#050105" d="
  M 317.37 45.35
  A 0.71 0.71 0.0 0 1 318.18 45.94
  L 318.21 46.11
  A 2.66 2.44 -8.8 0 1 315.95 48.93
  L 315.64 48.97
  A 2.66 2.44 -8.8 0 1 312.63 46.97
  L 312.61 46.80
  A 0.71 0.71 0.0 0 1 313.20 45.99
  L 317.37 45.35
  Z
  M 315.43 46.64
  Q 314.71 46.74 314.25 46.77
  A 0.57 0.57 0.0 0 0 313.99 47.82
  Q 314.82 48.32 315.64 48.21
  Q 316.47 48.09 317.12 47.38
  A 0.57 0.57 0.0 0 0 316.59 46.44
  Q 316.14 46.54 315.43 46.64
  Z"
/>
<path fill="#050105" d="
  M 28.5626 46.5275
  A 3.61 2.94 -52.2 0 1 28.6731 51.1819
  A 3.61 2.94 -52.2 0 1 24.1374 52.2325
  A 3.61 2.94 -52.2 0 1 24.0269 47.5781
  A 3.61 2.94 -52.2 0 1 28.5626 46.5275
  Z
  M 24.18 50.42
  L 25.77 51.87
  A 0.79 0.79 0.0 0 0 26.89 51.82
  L 27.46 51.19
  A 3.10 1.79 -47.7 0 0 28.22 47.69
  L 28.11 47.58
  A 3.10 1.79 -47.7 0 0 24.70 48.67
  L 24.12 49.30
  A 0.79 0.79 0.0 0 0 24.18 50.42
  Z"
/>
<path fill="#f2bf50" d="
  M 315.64 48.21
  Q 314.82 48.32 313.99 47.82
  A 0.57 0.57 0.0 0 1 314.25 46.77
  Q 314.71 46.74 315.43 46.64
  Q 316.14 46.54 316.59 46.44
  A 0.57 0.57 0.0 0 1 317.12 47.38
  Q 316.47 48.09 315.64 48.21
  Z"
/>
<path fill="#f4cd64" d="
  M 24.18 50.42
  A 0.79 0.79 0.0 0 1 24.12 49.30
  L 24.70 48.67
  A 3.10 1.79 -47.7 0 1 28.11 47.58
  L 28.22 47.69
  A 3.10 1.79 -47.7 0 1 27.46 51.19
  L 26.89 51.82
  A 0.79 0.79 0.0 0 1 25.77 51.87
  L 24.18 50.42
  Z"
/>
<path fill="#3e1a15" d="
  M 260.80 51.32
  Q 260.72 53.81 258.52 54.88
  Q 256.23 55.02 256.16 53.54
  Q 256.08 51.72 257.03 50.19
  A 0.20 0.20 0.0 0 1 257.36 50.17
  L 257.53 50.38
  A 0.12 0.11 -47.4 0 1 257.53 50.53
  Q 256.55 51.71 256.81 52.56
  A 1.44 1.28 56.5 0 0 259.16 53.19
  Q 259.68 52.46 259.40 51.49
  A 0.46 0.46 0.0 0 1 259.93 50.91
  Q 260.32 50.98 260.80 51.32
  Z"
/>
<path fill="#fae8ab" d="
  M 258.52 54.88
  Q 260.72 53.81 260.80 51.32
  C 262.72 50.89 264.32 51.72 263.60 53.96
  Q 262.58 57.13 258.81 56.28
  A 1.04 1.00 74.8 0 1 258.24 55.94
  Q 257.51 55.06 258.52 54.88
  Z"
/>
<path fill="#050105" d="
  M 278.1784 55.3695
  A 4.78 4.04 -39.5 0 1 277.0598 61.5274
  A 4.78 4.04 -39.5 0 1 270.8016 61.4505
  A 4.78 4.04 -39.5 0 1 271.9202 55.2926
  A 4.78 4.04 -39.5 0 1 278.1784 55.3695
  Z
  M 277.4161 56.2585
  A 3.60 2.95 -37.5 0 0 272.7642 56.1096
  A 3.60 2.95 -37.5 0 0 271.7039 60.6415
  A 3.60 2.95 -37.5 0 0 276.3558 60.7904
  A 3.60 2.95 -37.5 0 0 277.4161 56.2585
  Z"
/>
<ellipse fill="#d69431" cx="0.00" cy="0.00" transform="translate(274.56,58.45) rotate(-37.5)" rx="3.60" ry="2.95"/>
<path fill="#3e1a15" d="
  M 93.25 59.97
  C 88.27 56.79 80.66 58.77 81.25 65.74
  Q 81.53 69.10 84.97 70.85
  Q 87.28 71.69 90.13 71.22
  A 0.15 0.15 0.0 0 1 90.24 71.49
  Q 87.24 73.48 83.68 71.28
  C 77.44 67.42 79.84 58.84 86.63 57.44
  Q 90.90 56.56 93.25 59.97
  Z"
/>
<path fill="#d69431" d="
  M 93.25 59.97
  Q 96.74 62.84 94.45 67.45
  A 0.27 0.27 0.0 0 1 93.93 67.32
  C 93.98 65.55 94.93 63.76 93.80 62.04
  A 0.74 0.74 0.0 0 0 92.91 61.75
  L 89.00 63.25
  A 1.13 1.07 12.9 0 0 88.66 63.45
  Q 86.08 65.73 84.97 70.85
  Q 81.53 69.10 81.25 65.74
  C 80.66 58.77 88.27 56.79 93.25 59.97
  Z"
/>
<path fill="#050105" d="
  M 334.02 62.16
  L 333.76 64.03
  C 330.42 65.64 327.83 67.03 324.73 65.40
  A 1.14 1.14 0.0 0 0 323.29 65.73
  C 318.40 72.39 316.35 80.70 323.80 86.77
  A 5.13 5.11 64.4 0 0 327.02 87.91
  L 333.31 87.90
  L 333.39 89.26
  Q 331.10 89.04 328.72 89.19
  C 324.88 89.44 324.45 88.81 321.89 86.63
  C 314.77 80.56 317.41 70.95 322.71 64.77
  A 1.96 1.95 32.0 0 1 324.98 64.25
  Q 328.68 65.86 331.85 63.30
  L 334.02 62.16
  Z"
/>
<path fill="#050105" d="
  M 5.22 64.71
  Q 10.28 67.55 12.79 72.41
  Q 13.70 79.01 10.33 82.33
  Q 7.07 85.54 1.56 87.18
  Q 1.31 85.94 2.03 85.43
  Q 6.83 84.21 8.96 81.99
  Q 14.95 75.77 9.29 69.43
  Q 6.74 66.75 3.28 65.44
  Q 3.04 64.86 3.12 63.82
  Q 3.96 63.80 5.22 64.71
  Z"
/>
<path fill="#d69431" d="
  M 333.76 64.03
  C 332.25 71.92 332.67 79.98 333.31 87.90
  L 327.02 87.91
  A 5.13 5.11 64.4 0 1 323.80 86.77
  C 316.35 80.70 318.40 72.39 323.29 65.73
  A 1.14 1.14 0.0 0 1 324.73 65.40
  C 327.83 67.03 330.42 65.64 333.76 64.03
  Z"
/>
<path fill="#d69431" d="
  M 9.29 69.43
  L 9.62 72.66
  A 0.86 0.86 0.0 0 1 8.61 73.59
  L 4.19 72.76
  L 3.28 65.44
  Q 6.74 66.75 9.29 69.43
  Z"
/>
<path fill="#f2bf50" d="
  M 9.29 69.43
  Q 14.95 75.77 8.96 81.99
  Q 6.83 84.21 2.03 85.43
  Q 4.47 79.28 4.19 72.76
  L 8.61 73.59
  A 0.86 0.86 0.0 0 0 9.62 72.66
  L 9.29 69.43
  Z"
/>
<path fill="#3e1a15" d="
  M 126.72 75.52
  Q 127.71 83.23 120.97 85.76
  Q 116.40 87.27 113.70 84.30
  A 2.61 2.55 -76.4 0 1 113.20 83.46
  C 111.07 77.56 114.55 71.26 121.02 71.19
  Q 125.44 71.14 126.72 75.52
  Z
  M 118.02 85.50
  A 7.11 5.73 -50.0 0 0 125.39 80.13
  A 7.14 5.73 -50.3 0 0 125.28 74.96
  A 7.11 5.73 -50.1 0 0 113.22 80.74
  A 7.10 5.72 -49.9 0 0 118.02 85.50
  Z"
/>
<path fill="#d69431" d="
  M 125.28 74.96
  Q 118.57 78.58 118.02 85.50
  A 7.10 5.72 -49.9 0 1 113.22 80.74
  A 7.11 5.73 -50.1 0 1 125.28 74.96
  Z"
/>
<path fill="#fae8ab" d="
  M 4.24 101.00
  L 2.09 101.00
  L 1.51 100.68
  A 0.71 0.71 0.0 0 1 1.18 99.86
  Q 1.23 99.72 1.31 99.51
  A 1.35 1.27 58.5 0 0 1.42 98.98
  L 1.56 87.18
  Q 7.07 85.54 10.33 82.33
  Q 13.70 79.01 12.79 72.41
  Q 15.54 75.29 14.41 80.69
  Q 14.10 82.22 12.73 84.36
  A 2.51 2.50 86.5 0 1 12.22 84.94
  L 5.73 90.22
  A 1.81 1.78 -17.5 0 0 5.06 91.48
  L 4.24 101.00
  Z"
/>
<path fill="#f2bf50" d="
  M 125.28 74.96
  A 7.14 5.73 -50.3 0 1 125.39 80.13
  A 7.11 5.73 -50.0 0 1 118.02 85.50
  Q 118.57 78.58 125.28 74.96
  Z"
/>
<path fill="#fae8ab" d="
  M 120.97 85.76
  Q 127.71 83.23 126.72 75.52
  Q 128.56 75.48 128.76 77.52
  Q 129.02 80.11 126.99 83.23
  Q 124.74 86.68 120.97 85.76
  Z"
/>
<path fill="#3e1a15" d="
  M 247.36 101.00
  L 246.23 101.00
  Q 248.37 97.26 247.91 91.07
  Q 242.67 84.66 237.13 88.33
  Q 233.99 90.41 233.35 94.05
  Q 232.72 97.61 234.39 101.00
  L 233.05 101.00
  Q 230.45 96.34 232.91 91.45
  Q 236.68 83.95 244.78 86.67
  C 250.40 88.56 248.88 96.20 247.36 101.00
  Z"
/>
<path fill="#d69431" d="
  M 247.91 91.07
  Q 239.28 93.37 239.79 101.00
  L 234.39 101.00
  Q 232.72 97.61 233.35 94.05
  Q 233.99 90.41 237.13 88.33
  Q 242.67 84.66 247.91 91.07
  Z"
/>
<path fill="#f2bf50" d="
  M 22.65 90.68
  Q 20.88 94.16 18.82 96.19
  A 0.63 0.63 0.0 0 1 17.81 95.45
  Q 18.22 94.65 18.11 93.63
  A 1.12 1.10 -23.2 0 1 18.50 92.67
  Q 20.02 91.39 19.34 91.18
  Q 20.00 89.87 22.65 90.68
  Z"
/>
<path fill="#050105" d="
  M 19.34 91.18
  Q 20.02 91.39 18.50 92.67
  A 1.12 1.10 -23.2 0 0 18.11 93.63
  Q 18.22 94.65 17.81 95.45
  A 0.63 0.63 0.0 0 0 18.82 96.19
  Q 20.88 94.16 22.65 90.68
  Q 22.47 93.36 19.39 97.04
  A 1.22 1.22 0.0 0 1 17.24 96.18
  Q 17.42 93.35 19.34 91.18
  Z"
/>
<path fill="#f2bf50" d="
  M 247.91 91.07
  Q 248.37 97.26 246.23 101.00
  L 239.79 101.00
  Q 239.28 93.37 247.91 91.07
  Z"
/>
<path fill="#050105" d="
  M 214.05 95.85
  A 4.49 4.49 0.0 0 1 209.56 100.34
  A 4.49 4.49 0.0 0 1 205.07 95.85
  A 4.49 4.49 0.0 0 1 209.56 91.36
  A 4.49 4.49 0.0 0 1 214.05 95.85
  Z
  M 206.2649 94.4297
  A 3.58 3.32 -155.4 0 0 208.1379 98.9387
  A 3.58 3.32 -155.4 0 0 212.7751 97.4103
  A 3.58 3.32 -155.4 0 0 210.9021 92.9013
  A 3.58 3.32 -155.4 0 0 206.2649 94.4297
  Z"
/>
<ellipse fill="#f2bf50" cx="0.00" cy="0.00" transform="translate(209.52,95.92) rotate(-155.4)" rx="3.58" ry="3.32"/>
</svg>
