<?xml version="1.0" encoding="UTF-8" standalone="no"?>
<!DOCTYPE svg PUBLIC "-//W3C//DTD SVG 1.1//EN" "http://www.w3.org/Graphics/SVG/1.1/DTD/svg11.dtd">
<svg xmlns="http://www.w3.org/2000/svg" version="1.1" viewBox="0.00 0.00 512.00 153.00">
<g stroke-width="2.00" fill="none" stroke-linecap="butt">
<path stroke="#f7db8b" vector-effect="non-scaling-stroke" d="
  M 96.27 10.03
  Q 100.00 13.52 101.74 17.75
  Q 102.90 20.54 102.99 24.58
  Q 103.15 31.91 103.42 31.66
  A 0.04 0.04 0.0 0 1 103.48 31.69
  L 102.76 36.97
  A 2.04 1.86 -31.0 0 1 102.58 37.57
  Q 100.07 42.47 95.02 44.51"
/>
<path stroke="#f4f0d8" vector-effect="non-scaling-stroke" d="
  M 95.02 44.51
  L 95.56 39.26"
/>
<path stroke="#8e7b5e" vector-effect="non-scaling-stroke" d="
  M 95.56 39.26
  Q 106.50 27.21 95.52 12.78"
/>
<path stroke="#f6d482" vector-effect="non-scaling-stroke" d="
  M 95.52 12.78
  Q 94.04 12.21 93.66 14.85
  A 2.93 2.82 -47.2 0 0 93.68 15.86
  Q 94.37 19.59 93.83 23.25
  A 0.52 0.50 38.5 0 0 93.87 23.56
  C 94.02 23.90 94.51 23.95 94.65 23.52
  Q 94.80 23.08 94.98 22.89
  Q 95.17 22.69 95.65 23.07
  Q 97.62 24.62 99.79 25.76"
/>
<path stroke="#8e7b5e" vector-effect="non-scaling-stroke" d="
  M 99.79 25.76
  Q 100.64 33.33 94.99 37.54"
/>
<path stroke="#f4f0d8" vector-effect="non-scaling-stroke" d="
  M 94.99 37.54
  Q 94.35 37.82 94.61 36.52
  Q 95.77 30.76 94.52 25.55"
/>
<path stroke="#c7cfc0" vector-effect="non-scaling-stroke" d="
  M 94.52 25.55
  Q 93.39 23.55 90.40 24.04
  Q 89.92 24.12 89.18 24.50
  Q 88.60 24.79 88.03 24.48
  A 1.68 1.61 55.6 0 0 87.17 24.30
  Q 78.46 24.95 70.18 29.99"
/>
<path stroke="#e3b050" vector-effect="non-scaling-stroke" d="
  M 169.68 10.02
  Q 173.33 15.20 179.29 14.91
  A 0.39 0.39 0.0 0 0 179.35 14.13
  Q 175.00 13.23 171.50 10.11"
/>
<path stroke="#e3b050" vector-effect="non-scaling-stroke" d="
  M 186.02 10.05
  L 184.52 13.80"
/>
<path stroke="#f7db8b" vector-effect="non-scaling-stroke" d="
  M 184.52 13.80
  L 183.12 15.04
  A 0.55 0.55 0.0 0 0 183.67 15.97
  Q 189.05 14.07 191.55 10.02"
/>
<path stroke="#f3c65b" vector-effect="non-scaling-stroke" d="
  M 321.85 10.03
  L 359.75 67.40"
/>
<path stroke="#8b6e37" vector-effect="non-scaling-stroke" d="
  M 359.75 67.40
  C 351.82 73.95 362.88 80.93 366.17 71.38"
/>
<path stroke="#f3c65b" vector-effect="non-scaling-stroke" d="
  M 366.17 71.38
  Q 366.00 70.94 366.25 70.32
  A 0.42 0.42 0.0 0 1 367.06 70.48
  L 367.08 74.06
  A 1.01 0.86 -40.3 0 1 367.03 74.36
  Q 363.74 83.55 363.81 93.50"
/>
<path stroke="#c5c299" vector-effect="non-scaling-stroke" d="
  M 363.81 93.50
  Q 346.18 89.29 331.48 100.14"
/>
<path stroke="#f2e3b1" vector-effect="non-scaling-stroke" d="
  M 331.48 100.14
  Q 331.59 99.96 331.29 99.61"
/>
<path stroke="#c5c299" vector-effect="non-scaling-stroke" d="
  M 331.29 99.61
  Q 331.62 99.53 331.28 99.26
  Q 328.73 97.27 325.72 97.38"
/>
<path stroke="#f2e3b1" vector-effect="non-scaling-stroke" d="
  M 325.72 97.38
  Q 324.43 98.26 324.70 99.11"
/>
<path stroke="#c5c299" vector-effect="non-scaling-stroke" d="
  M 324.70 99.11
  Q 316.20 96.95 308.59 101.43
  Q 304.54 103.81 303.79 104.29
  A 1.11 1.09 -46.2 0 1 302.68 104.32
  C 297.22 101.36 286.94 97.99 281.05 102.15
  A 0.76 0.74 44.9 0 1 280.16 102.14
  Q 278.74 101.11 278.05 99.15"
/>
<path stroke="#f2e3b1" vector-effect="non-scaling-stroke" d="
  M 278.05 99.15
  Q 277.90 99.00 277.91 98.73"
/>
<path stroke="#c5c299" vector-effect="non-scaling-stroke" d="
  M 277.91 98.73
  Q 277.66 96.75 276.25 95.92
  Q 267.40 90.74 259.49 97.03
  A 1.10 1.10 0.0 0 1 258.30 97.14
  L 253.53 94.58"
/>
<path stroke="#f2e3b1" vector-effect="non-scaling-stroke" d="
  M 253.53 94.58
  Q 245.82 90.64 237.58 88.66"
/>
<path stroke="#c5c299" vector-effect="non-scaling-stroke" d="
  M 237.58 88.66
  Q 229.56 86.42 221.00 87.45
  Q 217.23 87.90 213.71 88.65"
/>
<path stroke="#8b6e37" vector-effect="non-scaling-stroke" d="
  M 213.71 88.65
  Q 211.51 84.30 207.00 84.94
  Q 200.36 85.88 199.94 92.62"
/>
<path stroke="#e3b050" vector-effect="non-scaling-stroke" d="
  M 199.94 92.62
  Q 199.80 93.23 199.30 93.71"
/>
<path stroke="#c5c299" vector-effect="non-scaling-stroke" d="
  M 199.30 93.71
  L 196.56 95.05
  A 1.46 1.46 0.0 0 1 195.11 94.96
  Q 179.05 84.33 162.77 93.30
  A 1.08 1.07 47.7 0 1 161.64 93.24
  Q 152.79 87.08 143.50 91.22
  A 0.67 0.53 6.3 0 0 143.39 91.29
  L 139.13 93.98
  A 1.19 1.19 0.0 0 1 137.94 94.03
  Q 137.91 94.01 135.42 92.41
  Q 129.40 88.55 122.96 91.68
  Q 121.69 92.30 118.89 94.68
  A 1.26 1.26 0.0 0 1 117.16 94.59
  Q 110.17 87.25 99.99 86.64
  Q 99.41 86.60 99.32 85.75"
/>
<path stroke="#8b6e37" vector-effect="non-scaling-stroke" d="
  M 99.32 85.75
  Q 98.31 82.19 95.14 80.20"
/>
<path stroke="#f2e3b1" vector-effect="non-scaling-stroke" d="
  M 95.14 80.20
  Q 94.30 73.80 94.51 67.42
  Q 94.85 56.57 94.85 56.42
  Q 94.87 50.47 95.02 44.51"
/>
<path stroke="#e3b050" vector-effect="non-scaling-stroke" d="
  M 120.15 14.82
  Q 117.02 13.89 114.52 14.09
  Q 111.15 14.35 109.17 17.44
  Q 106.18 22.11 105.02 30.98
  Q 104.96 31.50 105.73 32.32"
/>
<path stroke="#8b6e37" vector-effect="non-scaling-stroke" d="
  M 105.73 32.32
  Q 105.55 32.32 105.39 32.42
  A 0.34 0.33 -47.1 0 0 105.41 33.00
  Q 106.69 33.67 108.32 32.70
  C 111.53 30.79 112.33 27.52 113.08 24.05
  A 3.50 3.49 -1.8 0 1 115.56 21.41
  L 118.51 20.59
  A 3.06 3.04 -87.2 0 0 120.55 18.73
  Q 121.66 15.76 120.97 12.81
  A 0.29 0.28 42.5 0 0 120.41 12.83
  L 120.15 14.82"
/>
<path stroke="#7a5123" vector-effect="non-scaling-stroke" d="
  M 105.73 32.32
  Q 108.43 32.24 109.92 30.33
  C 111.32 28.55 111.01 26.01 111.76 24.33
  Q 112.44 22.81 113.83 21.19
  A 2.37 2.33 11.4 0 1 114.92 20.48
  C 116.20 20.09 118.52 20.26 119.51 18.53
  Q 120.39 17.00 120.15 14.82"
/>
<path stroke="#e3b050" vector-effect="non-scaling-stroke" d="
  M 227.18 18.24
  Q 225.41 19.31 223.61 19.16"
/>
<path stroke="#8b6e37" vector-effect="non-scaling-stroke" d="
  M 223.61 19.16
  Q 219.72 20.43 218.69 24.06
  A 1.34 1.31 -48.4 0 0 218.73 24.90
  C 220.66 29.98 229.50 25.38 228.50 20.89
  Q 228.15 19.34 227.18 18.24"
/>
<path stroke="#7a5123" vector-effect="non-scaling-stroke" d="
  M 223.61 19.16
  Q 223.21 19.92 222.62 20.18
  Q 220.67 21.05 219.92 23.41
  C 219.19 25.71 221.47 26.43 223.31 25.97
  Q 228.52 24.65 227.18 18.24"
/>
<path stroke="#8b6e37" vector-effect="non-scaling-stroke" d="
  M 316.7683 35.1342
  A 4.36 3.65 -69.2 0 0 311.8079 37.9139
  A 4.36 3.65 -69.2 0 0 313.6717 43.2858
  A 4.36 3.65 -69.2 0 0 318.6321 40.5061
  A 4.36 3.65 -69.2 0 0 316.7683 35.1342"
/>
<path stroke="#8b6e37" vector-effect="non-scaling-stroke" d="
  M 269.8641 38.1609
  A 10.86 9.72 -62.8 0 0 256.2549 43.3770
  A 10.86 9.72 -62.8 0 0 259.9359 57.4791
  A 10.86 9.72 -62.8 0 0 273.5451 52.2630
  A 10.86 9.72 -62.8 0 0 269.8641 38.1609"
/>
<path stroke="#8b6e37" vector-effect="non-scaling-stroke" d="
  M 158.38 47.52
  A 8.78 8.78 0.0 0 0 149.60 38.74
  A 8.78 8.78 0.0 0 0 140.82 47.52
  A 8.78 8.78 0.0 0 0 149.60 56.30
  A 8.78 8.78 0.0 0 0 158.38 47.52"
/>
<path stroke="#8b6e37" vector-effect="non-scaling-stroke" d="
  M 115.0834 58.5674
  A 3.81 3.03 -62.6 0 0 110.6399 60.5556
  A 3.81 3.03 -62.6 0 0 111.5766 65.3326
  A 3.81 3.03 -62.6 0 0 116.0201 63.3444
  A 3.81 3.03 -62.6 0 0 115.0834 58.5674"
/>
<path stroke="#f7db8b" vector-effect="non-scaling-stroke" d="
  M 344.43 67.91
  Q 344.15 68.02 344.07 68.20
  Q 343.87 68.63 344.26 68.77
  Q 349.35 70.60 350.71 65.94
  A 1.13 1.12 36.9 0 0 350.57 65.00
  Q 349.86 63.90 347.96 64.16"
/>
<path stroke="#e3b050" vector-effect="non-scaling-stroke" d="
  M 347.96 64.16
  Q 347.57 63.73 347.11 63.52
  A 0.61 0.60 -66.5 0 0 346.30 63.84
  Q 346.08 64.40 346.14 65.09
  A 1.01 1.01 0.0 0 1 344.34 65.79
  Q 343.30 64.45 344.77 63.26
  A 0.31 0.30 60.3 0 0 344.86 62.90
  Q 344.76 62.67 344.67 62.66
  Q 343.89 62.51 343.67 63.32
  Q 342.59 67.32 344.43 67.91"
/>
<path stroke="#e5be77" vector-effect="non-scaling-stroke" d="
  M 347.96 64.16
  C 347.83 65.77 346.53 68.45 344.43 67.91"
/>
<path stroke="#e3b050" vector-effect="non-scaling-stroke" d="
  M 171.88 84.41
  Q 173.17 81.99 173.58 79.70
  A 1.89 1.78 67.3 0 1 173.79 79.14
  C 175.39 76.39 177.54 76.17 179.98 75.09
  A 1.00 1.00 0.0 0 1 181.37 76.14
  L 180.79 80.49
  A 0.43 0.42 62.1 0 0 181.59 80.74
  Q 183.99 75.87 180.08 72.87"
/>
<path stroke="#8b6e37" vector-effect="non-scaling-stroke" d="
  M 180.08 72.87
  C 176.93 67.76 169.88 70.48 167.87 74.87
  C 165.35 80.38 168.97 86.10 175.04 86.16
  A 2.25 2.21 32.8 0 0 176.01 85.96
  Q 179.06 84.61 180.74 82.85
  A 0.21 0.21 0.0 0 0 180.73 82.56
  A 0.21 0.21 0.0 0 0 180.43 82.57
  Q 176.90 86.38 171.88 84.41"
/>
<path stroke="#7a5123" vector-effect="non-scaling-stroke" d="
  M 180.08 72.87
  Q 175.04 70.36 171.57 72.47
  Q 168.26 74.49 168.24 78.52
  Q 168.23 82.17 171.88 84.41"
/>
<path stroke="#e5be77" vector-effect="non-scaling-stroke" d="
  M 187.60 10.03
  Q 186.32 12.25 184.52 13.80"
/>
<path stroke="#c4bb90" vector-effect="non-scaling-stroke" d="
  M 416.26 11.72
  Q 416.13 12.58 415.75 13.18"
/>
<path stroke="#8a672e" vector-effect="non-scaling-stroke" d="
  M 415.75 13.18
  Q 409.89 18.86 409.36 28.00
  Q 408.88 36.02 413.06 41.38"
/>
<path stroke="#f1dca8" vector-effect="non-scaling-stroke" d="
  M 413.06 41.38
  L 413.26 53.96
  A 20.15 18.04 -43.3 0 1 412.94 57.75
  C 412.53 59.99 411.93 61.44 411.83 64.12
  Q 411.61 70.63 412.50 77.03"
/>
<path stroke="#8a672e" vector-effect="non-scaling-stroke" d="
  M 412.50 77.03
  C 408.80 77.15 408.01 80.68 406.49 83.30"
/>
<path stroke="#c4bb90" vector-effect="non-scaling-stroke" d="
  M 406.49 83.30
  Q 405.83 83.33 405.27 83.65
  A 1.45 1.45 0.0 0 1 404.63 83.82
  Q 387.45 84.21 377.01 98.06
  A 0.81 0.80 32.1 0 1 375.98 98.29
  Q 370.28 95.24 363.81 93.50"
/>
<path stroke="#8a672e" vector-effect="non-scaling-stroke" d="
  M 366.17 71.38
  Q 365.59 65.22 359.75 67.40"
/>
<path stroke="#f6d482" vector-effect="non-scaling-stroke" d="
  M 367.96 42.24
  Q 372.81 44.97 375.81 39.38
  Q 376.72 37.70 376.76 36.01
  Q 376.80 34.20 376.44 32.47
  Q 376.18 31.19 375.15 31.04
  Q 374.80 30.99 374.68 31.53"
/>
<path stroke="#8a672e" vector-effect="non-scaling-stroke" d="
  M 374.68 31.53
  Q 372.43 27.06 367.98 27.67
  Q 362.98 28.35 362.22 34.02
  Q 361.36 40.37 367.96 42.24"
/>
<path stroke="#8e7b5e" vector-effect="non-scaling-stroke" d="
  M 374.68 31.53
  Q 376.39 36.87 372.37 40.60
  Q 371.22 41.67 367.96 42.24"
/>
<path stroke="#8a672e" vector-effect="non-scaling-stroke" d="
  M 404.16 57.46
  L 400.11 58.38
  A 0.78 0.78 0.0 0 0 399.52 59.31
  L 399.57 59.53
  A 2.74 2.64 77.2 0 0 402.75 61.61
  L 403.18 61.51
  A 2.74 2.64 77.2 0 0 405.15 58.26
  L 405.10 58.04
  A 0.78 0.78 0.0 0 0 404.16 57.46"
/>
<path stroke="#afcadd" vector-effect="non-scaling-stroke" d="
  M 420.27 18.98
  Q 420.00 19.69 420.48 19.74
  Q 432.87 21.18 441.69 31.38"
/>
<path stroke="#afcadd" vector-effect="non-scaling-stroke" d="
  M 389.77 138.35
  Q 386.67 138.24 384.11 140.63
  A 2.18 2.16 -75.3 0 1 383.28 141.12
  Q 382.02 141.52 379.79 142.47
  Q 373.55 145.12 367.89 146.12
  Q 362.97 146.98 358.11 146.91
  Q 355.91 146.87 348.15 146.90
  A 5.96 5.68 50.2 0 1 346.84 146.75
  Q 344.16 146.14 340.89 146.06
  A 3.39 2.99 48.6 0 1 340.33 145.99
  L 325.24 142.44
  A 2.53 2.51 35.1 0 0 323.29 142.77
  Q 314.89 148.16 305.46 144.87
  A 2.55 2.21 11.7 0 1 305.13 144.73
  L 301.15 142.56
  A 1.07 1.07 0.0 0 0 300.05 142.60
  Q 291.75 147.92 282.42 150.63
  Q 280.31 151.24 278.62 151.33
  Q 277.40 151.40 277.81 152.59"
/>
<path stroke="#afcadd" vector-effect="non-scaling-stroke" d="
  M 243.70 152.59
  Q 241.28 151.22 236.07 150.14
  Q 232.05 149.30 216.13 143.07
  Q 212.61 141.70 209.22 138.99
  A 2.47 2.45 50.1 0 0 206.53 138.74
  C 199.46 142.49 191.40 144.32 183.75 144.91
  Q 174.12 145.65 164.29 144.97
  Q 159.00 144.61 148.99 141.34
  Q 148.63 141.22 148.05 141.61"
/>
<path stroke="#afcadd" vector-effect="non-scaling-stroke" d="
  M 147.20 141.36
  Q 147.30 140.54 146.16 140.05
  C 141.63 138.10 136.05 135.53 132.54 131.59
  A 0.73 0.72 58.0 0 0 131.73 131.40
  Q 128.03 132.82 122.44 134.07
  C 119.14 134.81 114.83 134.89 112.28 134.89
  A 6.29 6.27 50.3 0 1 111.11 134.78
  Q 108.24 134.20 104.78 134.39
  A 4.64 4.58 -41.0 0 1 103.69 134.32
  Q 95.86 132.88 94.01 132.26
  Q 83.37 128.70 74.74 120.06"
/>
<path stroke="#afcadd" vector-effect="non-scaling-stroke" d="
  M 23.62 68.75
  Q 23.68 69.06 23.95 69.20
  A 0.40 0.40 0.0 0 0 24.52 68.96
  Q 26.88 61.33 32.24 55.03
  Q 35.97 50.65 41.22 48.27
  Q 49.51 44.53 59.01 43.59
  Q 59.47 43.54 59.35 42.71"
/>
<path stroke="#c2d7e6" vector-effect="non-scaling-stroke" d="
  M 94.52 25.55
  C 87.03 25.31 78.30 26.46 72.12 30.68
  Q 67.69 33.69 66.51 35.00
  Q 63.45 38.37 61.31 44.02
  A 1.77 1.75 10.3 0 1 59.66 45.15
  C 44.06 45.11 31.35 53.67 25.99 68.19
  C 25.26 70.17 25.01 72.76 24.38 75.57
  A 6.44 6.41 -40.3 0 0 24.23 77.35
  L 24.37 80.01"
/>
<path stroke="#afcadd" vector-effect="non-scaling-stroke" d="
  M 24.37 80.01
  Q 24.70 89.04 30.80 95.70
  Q 35.05 100.33 40.36 102.63
  Q 45.85 105.00 48.30 105.48
  Q 50.59 105.92 56.84 105.89
  C 60.46 105.86 59.93 108.26 61.65 110.17
  C 64.48 113.30 68.69 112.98 72.46 112.46
  A 1.42 1.41 -14.3 0 1 73.97 113.35
  C 75.66 117.73 79.13 121.59 83.33 124.19
  Q 105.90 138.13 131.32 128.80
  A 2.26 2.25 59.4 0 1 133.79 129.44
  C 140.32 137.00 149.51 140.24 159.75 142.12
  Q 181.44 146.10 201.62 138.55
  Q 204.94 137.31 207.09 136.00
  A 1.05 1.05 0.0 0 1 208.29 136.06
  Q 219.58 144.83 233.90 147.88
  Q 245.69 150.39 252.70 150.78
  Q 255.43 150.94 262.07 151.08
  C 275.75 151.35 289.15 147.75 300.49 140.49
  A 1.24 1.24 0.0 0 1 301.97 140.60
  Q 309.71 147.32 319.73 143.06
  A 1.10 1.01 -74.1 0 0 319.99 142.90
  L 322.95 140.44
  A 2.95 2.93 -55.5 0 1 325.78 139.91
  Q 335.32 143.15 346.95 145.02
  C 361.90 147.41 375.13 143.97 387.44 137.50
  Q 392.85 134.66 396.71 130.71
  Q 400.10 127.23 400.35 126.98
  A 2.57 2.57 0.0 0 1 402.92 126.33
  C 410.65 128.71 418.46 129.15 426.44 128.78
  C 434.32 128.42 443.46 124.70 449.37 119.67
  Q 454.88 114.99 456.70 107.71
  A 2.23 2.19 -7.8 0 1 457.79 106.30
  Q 459.31 105.45 463.07 104.75
  Q 464.57 104.48 467.49 103.13
  Q 484.48 95.28 483.91 74.72"
/>
<path stroke="#c2d7e6" vector-effect="non-scaling-stroke" d="
  M 483.91 74.72
  L 483.52 69.83
  A 1.39 1.03 -63.2 0 0 483.48 69.60
  C 478.77 53.71 463.61 44.17 447.41 43.61
  A 2.20 2.20 0.0 0 1 445.43 42.19
  Q 437.70 21.87 415.19 21.42"
/>
<path stroke="#b3a585" vector-effect="non-scaling-stroke" d="
  M 415.19 21.42
  Q 415.31 20.16 416.42 19.59
  A 1.31 1.26 -89.5 0 0 416.98 19.02
  Q 418.13 16.69 416.53 14.06"
/>
<path stroke="#5c626c" vector-effect="non-scaling-stroke" d="
  M 416.53 14.06
  Q 416.41 13.49 415.75 13.18"
/>
<path stroke="#8a672e" vector-effect="non-scaling-stroke" d="
  M 95.52 12.78
  Q 94.41 13.92 95.33 14.91
  Q 99.77 19.72 99.79 25.76"
/>
<path stroke="#898384" vector-effect="non-scaling-stroke" d="
  M 95.56 39.26
  Q 94.13 38.58 94.99 37.54"
/>
<path stroke="#7a5123" vector-effect="non-scaling-stroke" d="
  M 416.53 14.06
  Q 414.56 16.56 412.68 19.42
  C 409.57 24.15 409.02 34.78 413.23 39.22"
/>
<path stroke="#898384" vector-effect="non-scaling-stroke" d="
  M 413.23 39.22
  Q 413.37 40.27 413.06 41.38"
/>
<path stroke="#e0c69c" vector-effect="non-scaling-stroke" d="
  M 415.19 21.42
  L 413.23 39.22"
/>
<path stroke="#dcebf5" vector-effect="non-scaling-stroke" d="
  M 483.91 74.72
  Q 481.82 77.59 480.12 80.24
  C 476.64 85.69 473.23 89.18 468.19 92.70
  C 465.03 94.91 461.16 96.09 456.90 97.69
  A 4.29 4.26 4.9 0 0 454.70 99.53
  Q 450.03 107.43 443.08 113.33
  C 436.34 119.05 428.00 120.20 419.14 120.40
  Q 408.90 120.64 399.23 116.91
  A 1.72 1.72 0.0 0 0 397.35 117.35
  C 394.86 120.09 392.75 122.58 389.95 124.57
  Q 370.65 138.36 346.51 136.32
  Q 337.39 135.54 328.69 133.58
  Q 320.70 131.78 310.62 125.90
  Q 308.81 124.85 306.95 126.21
  Q 286.62 141.05 261.00 140.47
  C 245.34 140.12 230.55 136.30 216.99 127.98
  C 214.70 126.58 213.33 125.27 210.86 123.17
  A 1.61 1.61 0.0 0 0 208.93 123.04
  Q 205.90 125.03 203.62 126.34
  C 187.64 135.57 167.29 135.94 151.22 127.56
  Q 148.35 126.06 142.32 122.36
  Q 138.35 119.92 134.90 115.35
  A 2.04 2.04 0.0 0 0 132.42 114.73
  Q 117.86 121.47 101.75 119.72
  C 95.37 119.03 89.36 116.53 84.70 112.11
  C 78.37 106.10 74.31 102.12 72.07 94.96
  A 1.24 1.24 0.0 0 0 70.61 94.12
  C 53.18 98.09 35.32 95.61 24.37 80.01"
/>
<path stroke="#898384" vector-effect="non-scaling-stroke" d="
  M 95.14 80.20
  Q 94.50 81.02 95.18 82.13"
/>
<path stroke="#f1dca8" vector-effect="non-scaling-stroke" d="
  M 95.18 82.13
  L 94.78 86.02"
/>
<path stroke="#c2d7e6" vector-effect="non-scaling-stroke" d="
  M 94.78 86.02
  Q 91.43 87.34 87.68 88.76
  Q 86.25 89.30 85.40 90.40
  A 0.24 0.24 0.0 0 0 85.66 90.78
  L 96.12 87.59"
/>
<path stroke="#f1dca8" vector-effect="non-scaling-stroke" d="
  M 96.12 87.59
  Q 97.30 87.29 98.73 87.44"
/>
<path stroke="#c2d7e6" vector-effect="non-scaling-stroke" d="
  M 98.73 87.44
  C 105.25 87.48 113.02 90.26 117.05 95.69
  A 0.92 0.92 0.0 0 0 118.46 95.77
  Q 124.69 89.11 132.94 91.97
  C 134.74 92.59 136.55 94.12 138.07 95.48
  A 0.81 0.80 -45.3 0 0 139.15 95.47
  Q 148.44 87.00 160.01 93.08
  A 2.26 1.78 73.6 0 1 160.39 93.35
  L 161.64 94.50
  A 0.85 0.85 0.0 0 0 162.67 94.59
  C 172.13 88.50 184.74 88.52 194.05 95.04
  A 0.89 0.88 -50.0 0 1 194.16 96.39
  L 190.65 99.90
  A 0.25 0.25 0.0 0 0 190.65 100.26
  L 190.87 100.47
  A 0.26 0.25 -44.2 0 0 191.24 100.47
  Q 194.98 96.60 199.77 94.25"
/>
<path stroke="#e0c69c" vector-effect="non-scaling-stroke" d="
  M 199.77 94.25
  Q 206.55 90.77 212.86 89.39"
/>
<path stroke="#898384" vector-effect="non-scaling-stroke" d="
  M 212.86 89.39
  Q 213.16 89.32 213.47 89.26"
/>
<path stroke="#c2d7e6" vector-effect="non-scaling-stroke" d="
  M 213.47 89.26
  Q 219.37 88.22 223.50 87.94
  Q 230.03 87.50 237.58 88.66"
/>
<path stroke="#c2d7e6" vector-effect="non-scaling-stroke" d="
  M 253.53 94.58
  L 260.93 100.62
  A 0.28 0.25 43.1 0 0 261.28 100.63
  L 261.29 100.62
  A 0.35 0.34 -44.3 0 0 261.30 100.18
  L 259.85 98.41
  A 0.72 0.71 -36.9 0 1 260.00 97.37
  C 265.21 93.82 274.15 92.60 277.91 98.73"
/>
<path stroke="#c2d7e6" vector-effect="non-scaling-stroke" d="
  M 278.05 99.15
  Q 278.29 101.70 280.01 103.36
  A 0.61 0.61 0.0 0 0 280.83 103.40
  C 286.34 98.82 296.16 101.78 301.79 104.99
  Q 302.44 105.36 303.12 106.24
  A 0.45 0.45 0.0 0 0 303.85 106.23
  L 305.01 104.63
  A 3.25 3.09 -1.9 0 1 305.62 104.01
  Q 311.42 99.72 318.42 99.10
  Q 319.38 99.01 321.57 99.13
  Q 323.16 99.21 324.70 99.11"
/>
<path stroke="#c2d7e6" vector-effect="non-scaling-stroke" d="
  M 325.72 97.38
  L 331.29 99.61"
/>
<path stroke="#c2d7e6" vector-effect="non-scaling-stroke" d="
  M 331.48 100.14
  L 330.33 102.30
  A 0.29 0.23 -58.0 0 0 330.37 102.63
  L 330.38 102.64
  A 0.26 0.26 0.0 0 0 330.73 102.61
  Q 336.50 96.21 344.51 94.31
  Q 357.40 91.24 370.11 96.05
  C 372.57 96.98 374.39 98.28 376.30 99.61
  A 0.64 0.64 0.0 0 0 377.16 99.50
  Q 378.34 98.12 380.01 96.00
  Q 382.95 92.27 388.36 89.32
  Q 401.09 82.37 414.43 85.15
  Q 416.47 85.57 423.16 87.18
  A 0.47 0.47 0.0 0 0 423.55 86.35
  C 420.45 84.05 417.17 83.90 413.58 83.18
  A 0.85 0.85 0.0 0 1 412.91 82.51
  Q 412.60 80.99 412.81 79.51
  Q 412.91 78.84 412.38 78.55"
/>
<path stroke="#898384" vector-effect="non-scaling-stroke" d="
  M 412.38 78.55
  Q 412.31 77.75 412.50 77.03"
/>
<path stroke="#8b6e37" vector-effect="non-scaling-stroke" d="
  M 367.10 40.29
  A 5.86 5.42 -72.7 0 0 372.80 38.04
  A 5.85 5.42 -72.0 0 0 373.54 32.05"
/>
<path stroke="#7a5123" vector-effect="non-scaling-stroke" d="
  M 373.54 32.05
  A 5.87 5.43 -73.4 0 0 367.88 28.86
  A 5.86 5.43 -72.8 0 0 363.19 36.11
  A 5.85 5.42 -72.6 0 0 367.10 40.29"
/>
<path stroke="#e3b050" vector-effect="non-scaling-stroke" d="
  M 373.54 32.05
  Q 368.22 34.55 367.10 40.29"
/>
<path stroke="#7a5123" vector-effect="non-scaling-stroke" d="
  M 318.58 39.81
  L 317.81 37.06
  A 1.20 1.20 0.0 0 0 316.33 36.22
  L 315.83 36.36
  A 3.90 2.53 -15.6 0 0 312.76 39.85
  L 312.81 40.04
  A 3.90 2.53 -15.6 0 0 317.25 41.43
  L 317.75 41.29
  A 1.20 1.20 0.0 0 0 318.58 39.81"
/>
<path stroke="#8a672e" vector-effect="non-scaling-stroke" d="
  M 263.27 57.23
  A 9.58 8.57 -67.4 0 0 273.35 44.70"
/>
<path stroke="#7a5123" vector-effect="non-scaling-stroke" d="
  M 273.35 44.70
  A 9.58 8.57 -67.5 0 0 263.50 38.69
  A 9.61 8.56 -67.4 0 0 259.48 40.96
  A 9.58 8.57 -67.5 0 0 257.42 53.30
  A 9.57 8.56 -67.1 0 0 263.27 57.23"
/>
<path stroke="#e2a947" vector-effect="non-scaling-stroke" d="
  M 273.35 44.70
  C 271.52 45.43 268.75 45.67 267.52 46.53
  C 264.90 48.35 263.53 50.58 263.48 53.92
  Q 263.45 55.54 263.27 57.23"
/>
<path stroke="#7a5123" vector-effect="non-scaling-stroke" d="
  M 157.0785 45.9317
  A 7.72 7.52 -12.1 0 0 147.9537 40.1971
  A 7.72 7.52 -12.1 0 0 141.9815 49.1683
  A 7.72 7.52 -12.1 0 0 151.1063 54.9029
  A 7.72 7.52 -12.1 0 0 157.0785 45.9317"
/>
<path stroke="#7a5123" vector-effect="non-scaling-stroke" d="
  M 404.0465 59.2265
  A 1.58 0.91 -16.3 0 0 402.2746 58.7966
  A 1.58 0.91 -16.3 0 0 401.0135 60.1135
  A 1.58 0.91 -16.3 0 0 402.7854 60.5434
  A 1.58 0.91 -16.3 0 0 404.0465 59.2265"
/>
<path stroke="#8a672e" vector-effect="non-scaling-stroke" d="
  M 111.09 63.12
  L 112.95 64.60
  A 0.70 0.70 0.0 0 0 113.93 64.48
  L 114.30 64.02
  A 3.53 1.85 -51.5 0 0 115.05 60.11
  L 114.99 60.06
  A 3.53 1.85 -51.5 0 0 111.34 61.67
  L 110.98 62.13
  A 0.70 0.70 0.0 0 0 111.09 63.12"
/>
<path stroke="#7a5123" vector-effect="non-scaling-stroke" d="
  M 364.2437 69.0314
  A 3.65 2.99 -41.5 0 0 359.5288 69.2106
  A 3.65 2.99 -41.5 0 0 358.7763 73.8686
  A 3.65 2.99 -41.5 0 0 363.4912 73.6894
  A 3.65 2.99 -41.5 0 0 364.2437 69.0314"
/>
<path stroke="#5c626c" vector-effect="non-scaling-stroke" d="
  M 412.38 78.55
  Q 410.56 78.67 409.88 79.87
  Q 408.49 82.36 407.52 83.44
  A 0.67 0.66 -66.4 0 1 406.94 83.67
  Q 406.44 83.61 406.49 83.30"
/>
<path stroke="#5c626c" vector-effect="non-scaling-stroke" d="
  M 99.32 85.75
  Q 99.38 86.19 99.31 86.50
  Q 99.25 86.80 98.97 86.89
  Q 98.76 86.97 98.44 86.98"
/>
<path stroke="#8a672e" vector-effect="non-scaling-stroke" d="
  M 98.44 86.98
  Q 97.49 83.89 95.18 82.13"
/>
<path stroke="#c4bb90" vector-effect="non-scaling-stroke" d="
  M 98.44 86.98
  L 98.73 87.44"
/>
<path stroke="#c4bb90" vector-effect="non-scaling-stroke" d="
  M 96.12 87.59
  Q 94.62 86.24 94.78 86.02"
/>
<path stroke="#5c626c" vector-effect="non-scaling-stroke" d="
  M 213.71 88.65
  Q 213.52 88.15 213.47 89.26"
/>
<path stroke="#7a5123" vector-effect="non-scaling-stroke" d="
  M 212.86 89.39
  Q 210.08 85.71 206.68 86.48
  C 204.71 86.93 201.36 88.59 201.05 90.79
  Q 200.68 93.48 199.94 92.62"
/>
<path stroke="#b3a585" vector-effect="non-scaling-stroke" d="
  M 199.30 93.71
  Q 199.79 93.74 199.77 94.25"
/>
</g>
<path fill="#f9e8b2" d="
  M 96.27 10.03
  Q 100.00 13.52 101.74 17.75
  Q 102.90 20.54 102.99 24.58
  Q 103.15 31.91 103.42 31.66
  A 0.04 0.04 0.0 0 1 103.48 31.69
  L 102.76 36.97
  A 2.04 1.86 -31.0 0 1 102.58 37.57
  Q 100.07 42.47 95.02 44.51
  L 95.56 39.26
  Q 106.50 27.21 95.52 12.78
  Q 94.04 12.21 93.66 14.85
  A 2.93 2.82 -47.2 0 0 93.68 15.86
  Q 94.37 19.59 93.83 23.25
  A 0.52 0.50 38.5 0 0 93.87 23.56
  C 94.02 23.90 94.51 23.95 94.65 23.52
  Q 94.80 23.08 94.98 22.89
  Q 95.17 22.69 95.65 23.07
  Q 97.62 24.62 99.79 25.76
  Q 100.64 33.33 94.99 37.54
  Q 94.35 37.82 94.61 36.52
  Q 95.77 30.76 94.52 25.55
  Q 93.39 23.55 90.40 24.04
  Q 89.92 24.12 89.18 24.50
  Q 88.60 24.79 88.03 24.48
  A 1.68 1.61 55.6 0 0 87.17 24.30
  Q 78.46 24.95 70.18 29.99
  Q 78.16 22.99 90.75 22.87
  Q 92.09 22.85 92.82 21.58
  Q 93.24 20.83 92.53 19.13
  C 91.22 15.97 93.37 13.57 94.13 10.73
  A 0.94 0.93 -86.6 0 1 94.89 10.05
  Q 95.76 9.92 96.27 10.03
  Z"
/>
<path fill="#f4cd64" d="
  M 169.68 10.02
  Q 173.33 15.20 179.29 14.91
  A 0.39 0.39 0.0 0 0 179.35 14.13
  Q 175.00 13.23 171.50 10.11
  L 186.02 10.05
  L 184.52 13.80
  L 183.12 15.04
  A 0.55 0.55 0.0 0 0 183.67 15.97
  Q 189.05 14.07 191.55 10.02
  L 321.85 10.03
  L 359.75 67.40
  C 351.82 73.95 362.88 80.93 366.17 71.38
  Q 366.00 70.94 366.25 70.32
  A 0.42 0.42 0.0 0 1 367.06 70.48
  L 367.08 74.06
  A 1.01 0.86 -40.3 0 1 367.03 74.36
  Q 363.74 83.55 363.81 93.50
  Q 346.18 89.29 331.48 100.14
  Q 331.59 99.96 331.29 99.61
  Q 331.62 99.53 331.28 99.26
  Q 328.73 97.27 325.72 97.38
  Q 324.43 98.26 324.70 99.11
  Q 316.20 96.95 308.59 101.43
  Q 304.54 103.81 303.79 104.29
  A 1.11 1.09 -46.2 0 1 302.68 104.32
  C 297.22 101.36 286.94 97.99 281.05 102.15
  A 0.76 0.74 44.9 0 1 280.16 102.14
  Q 278.74 101.11 278.05 99.15
  Q 277.90 99.00 277.91 98.73
  Q 277.66 96.75 276.25 95.92
  Q 267.40 90.74 259.49 97.03
  A 1.10 1.10 0.0 0 1 258.30 97.14
  L 253.53 94.58
  Q 245.82 90.64 237.58 88.66
  Q 229.56 86.42 221.00 87.45
  Q 217.23 87.90 213.71 88.65
  Q 211.51 84.30 207.00 84.94
  Q 200.36 85.88 199.94 92.62
  Q 199.80 93.23 199.30 93.71
  L 196.56 95.05
  A 1.46 1.46 0.0 0 1 195.11 94.96
  Q 179.05 84.33 162.77 93.30
  A 1.08 1.07 47.7 0 1 161.64 93.24
  Q 152.79 87.08 143.50 91.22
  A 0.67 0.53 6.3 0 0 143.39 91.29
  L 139.13 93.98
  A 1.19 1.19 0.0 0 1 137.94 94.03
  Q 137.91 94.01 135.42 92.41
  Q 129.40 88.55 122.96 91.68
  Q 121.69 92.30 118.89 94.68
  A 1.26 1.26 0.0 0 1 117.16 94.59
  Q 110.17 87.25 99.99 86.64
  Q 99.41 86.60 99.32 85.75
  Q 98.31 82.19 95.14 80.20
  Q 94.30 73.80 94.51 67.42
  Q 94.85 56.57 94.85 56.42
  Q 94.87 50.47 95.02 44.51
  Q 100.07 42.47 102.58 37.57
  A 2.04 1.86 -31.0 0 0 102.76 36.97
  L 103.48 31.69
  A 0.04 0.04 0.0 0 0 103.42 31.66
  Q 103.15 31.91 102.99 24.58
  Q 102.90 20.54 101.74 17.75
  Q 100.00 13.52 96.27 10.03
  L 169.68 10.02
  Z
  M 120.15 14.82
  Q 117.02 13.89 114.52 14.09
  Q 111.15 14.35 109.17 17.44
  Q 106.18 22.11 105.02 30.98
  Q 104.96 31.50 105.73 32.32
  Q 105.55 32.32 105.39 32.42
  A 0.34 0.33 -47.1 0 0 105.41 33.00
  Q 106.69 33.67 108.32 32.70
  C 111.53 30.79 112.33 27.52 113.08 24.05
  A 3.50 3.49 -1.8 0 1 115.56 21.41
  L 118.51 20.59
  A 3.06 3.04 -87.2 0 0 120.55 18.73
  Q 121.66 15.76 120.97 12.81
  A 0.29 0.28 42.5 0 0 120.41 12.83
  L 120.15 14.82
  Z
  M 227.18 18.24
  Q 225.41 19.31 223.61 19.16
  Q 219.72 20.43 218.69 24.06
  A 1.34 1.31 -48.4 0 0 218.73 24.90
  C 220.66 29.98 229.50 25.38 228.50 20.89
  Q 228.15 19.34 227.18 18.24
  Z
  M 316.7683 35.1342
  A 4.36 3.65 -69.2 0 0 311.8079 37.9139
  A 4.36 3.65 -69.2 0 0 313.6717 43.2858
  A 4.36 3.65 -69.2 0 0 318.6321 40.5061
  A 4.36 3.65 -69.2 0 0 316.7683 35.1342
  Z
  M 269.8641 38.1609
  A 10.86 9.72 -62.8 0 0 256.2549 43.3770
  A 10.86 9.72 -62.8 0 0 259.9359 57.4791
  A 10.86 9.72 -62.8 0 0 273.5451 52.2630
  A 10.86 9.72 -62.8 0 0 269.8641 38.1609
  Z
  M 158.38 47.52
  A 8.78 8.78 0.0 0 0 149.60 38.74
  A 8.78 8.78 0.0 0 0 140.82 47.52
  A 8.78 8.78 0.0 0 0 149.60 56.30
  A 8.78 8.78 0.0 0 0 158.38 47.52
  Z
  M 115.0834 58.5674
  A 3.81 3.03 -62.6 0 0 110.6399 60.5556
  A 3.81 3.03 -62.6 0 0 111.5766 65.3326
  A 3.81 3.03 -62.6 0 0 116.0201 63.3444
  A 3.81 3.03 -62.6 0 0 115.0834 58.5674
  Z
  M 344.43 67.91
  Q 344.15 68.02 344.07 68.20
  Q 343.87 68.63 344.26 68.77
  Q 349.35 70.60 350.71 65.94
  A 1.13 1.12 36.9 0 0 350.57 65.00
  Q 349.86 63.90 347.96 64.16
  Q 347.57 63.73 347.11 63.52
  A 0.61 0.60 -66.5 0 0 346.30 63.84
  Q 346.08 64.40 346.14 65.09
  A 1.01 1.01 0.0 0 1 344.34 65.79
  Q 343.30 64.45 344.77 63.26
  A 0.31 0.30 60.3 0 0 344.86 62.90
  Q 344.76 62.67 344.67 62.66
  Q 343.89 62.51 343.67 63.32
  Q 342.59 67.32 344.43 67.91
  Z
  M 171.88 84.41
  Q 173.17 81.99 173.58 79.70
  A 1.89 1.78 67.3 0 1 173.79 79.14
  C 175.39 76.39 177.54 76.17 179.98 75.09
  A 1.00 1.00 0.0 0 1 181.37 76.14
  L 180.79 80.49
  A 0.43 0.42 62.1 0 0 181.59 80.74
  Q 183.99 75.87 180.08 72.87
  C 176.93 67.76 169.88 70.48 167.87 74.87
  C 165.35 80.38 168.97 86.10 175.04 86.16
  A 2.25 2.21 32.8 0 0 176.01 85.96
  Q 179.06 84.61 180.74 82.85
  A 0.21 0.21 0.0 0 0 180.73 82.56
  A 0.21 0.21 0.0 0 0 180.43 82.57
  Q 176.90 86.38 171.88 84.41
  Z"
/>
<path fill="#d1933b" d="
  M 171.50 10.11
  Q 175.00 13.23 179.35 14.13
  A 0.39 0.39 0.0 0 1 179.29 14.91
  Q 173.33 15.20 169.68 10.02
  L 171.50 10.11
  Z"
/>
<path fill="#d1933b" d="
  M 187.60 10.03
  Q 186.32 12.25 184.52 13.80
  L 186.02 10.05
  L 187.60 10.03
  Z"
/>
<path fill="#f9e8b2" d="
  M 191.55 10.02
  Q 189.05 14.07 183.67 15.97
  A 0.55 0.55 0.0 0 1 183.12 15.04
  L 184.52 13.80
  Q 186.32 12.25 187.60 10.03
  L 191.55 10.02
  Z"
/>
<path fill="#f2bf52" d="
  M 416.26 11.72
  Q 416.13 12.58 415.75 13.18
  Q 409.89 18.86 409.36 28.00
  Q 408.88 36.02 413.06 41.38
  L 413.26 53.96
  A 20.15 18.04 -43.3 0 1 412.94 57.75
  C 412.53 59.99 411.93 61.44 411.83 64.12
  Q 411.61 70.63 412.50 77.03
  C 408.80 77.15 408.01 80.68 406.49 83.30
  Q 405.83 83.33 405.27 83.65
  A 1.45 1.45 0.0 0 1 404.63 83.82
  Q 387.45 84.21 377.01 98.06
  A 0.81 0.80 32.1 0 1 375.98 98.29
  Q 370.28 95.24 363.81 93.50
  Q 363.74 83.55 367.03 74.36
  A 1.01 0.86 -40.3 0 0 367.08 74.06
  L 367.06 70.48
  A 0.42 0.42 0.0 0 0 366.25 70.32
  Q 366.00 70.94 366.17 71.38
  Q 365.59 65.22 359.75 67.40
  L 321.85 10.03
  Q 368.56 9.94 415.01 10.05
  Q 415.94 10.05 416.26 11.72
  Z
  M 367.96 42.24
  Q 372.81 44.97 375.81 39.38
  Q 376.72 37.70 376.76 36.01
  Q 376.80 34.20 376.44 32.47
  Q 376.18 31.19 375.15 31.04
  Q 374.80 30.99 374.68 31.53
  Q 372.43 27.06 367.98 27.67
  Q 362.98 28.35 362.22 34.02
  Q 361.36 40.37 367.96 42.24
  Z
  M 404.16 57.46
  L 400.11 58.38
  A 0.78 0.78 0.0 0 0 399.52 59.31
  L 399.57 59.53
  A 2.74 2.64 77.2 0 0 402.75 61.61
  L 403.18 61.51
  A 2.74 2.64 77.2 0 0 405.15 58.26
  L 405.10 58.04
  A 0.78 0.78 0.0 0 0 404.16 57.46
  Z"
/>
<path fill="#95b6ce" d="
  M 416.26 11.72
  L 418.73 15.57
  A 1.50 1.41 -66.4 0 1 418.95 16.19
  Q 419.07 17.24 418.44 18.21
  A 0.51 0.51 0.0 0 0 418.74 18.98
  Q 419.40 19.14 420.27 18.98
  Q 420.00 19.69 420.48 19.74
  Q 432.87 21.18 441.69 31.38
  Q 444.43 34.63 446.11 39.34
  A 2.29 2.29 0.0 0 0 448.25 40.86
  C 453.80 40.91 457.63 42.22 463.87 44.58
  C 472.58 47.87 479.72 56.44 484.14 64.16
  Q 486.18 67.73 486.21 71.75
  Q 486.27 79.72 486.13 83.75
  C 485.55 99.49 473.45 105.57 459.93 110.34
  A 1.34 1.30 4.0 0 0 459.21 110.95
  Q 457.95 113.24 456.63 115.88
  C 452.81 123.49 445.40 127.67 437.45 130.26
  Q 432.30 131.93 427.62 132.13
  Q 415.56 132.63 404.07 130.18
  Q 402.06 129.75 400.56 131.05
  Q 395.35 135.54 389.77 138.35
  Q 386.67 138.24 384.11 140.63
  A 2.18 2.16 -75.3 0 1 383.28 141.12
  Q 382.02 141.52 379.79 142.47
  Q 373.55 145.12 367.89 146.12
  Q 362.97 146.98 358.11 146.91
  Q 355.91 146.87 348.15 146.90
  A 5.96 5.68 50.2 0 1 346.84 146.75
  Q 344.16 146.14 340.89 146.06
  A 3.39 2.99 48.6 0 1 340.33 145.99
  L 325.24 142.44
  A 2.53 2.51 35.1 0 0 323.29 142.77
  Q 314.89 148.16 305.46 144.87
  A 2.55 2.21 11.7 0 1 305.13 144.73
  L 301.15 142.56
  A 1.07 1.07 0.0 0 0 300.05 142.60
  Q 291.75 147.92 282.42 150.63
  Q 280.31 151.24 278.62 151.33
  Q 277.40 151.40 277.81 152.59
  L 273.62 153.00
  L 246.87 153.00
  L 243.70 152.59
  Q 241.28 151.22 236.07 150.14
  Q 232.05 149.30 216.13 143.07
  Q 212.61 141.70 209.22 138.99
  A 2.47 2.45 50.1 0 0 206.53 138.74
  C 199.46 142.49 191.40 144.32 183.75 144.91
  Q 174.12 145.65 164.29 144.97
  Q 159.00 144.61 148.99 141.34
  Q 148.63 141.22 148.05 141.61
  L 147.20 141.36
  Q 147.30 140.54 146.16 140.05
  C 141.63 138.10 136.05 135.53 132.54 131.59
  A 0.73 0.72 58.0 0 0 131.73 131.40
  Q 128.03 132.82 122.44 134.07
  C 119.14 134.81 114.83 134.89 112.28 134.89
  A 6.29 6.27 50.3 0 1 111.11 134.78
  Q 108.24 134.20 104.78 134.39
  A 4.64 4.58 -41.0 0 1 103.69 134.32
  Q 95.86 132.88 94.01 132.26
  Q 83.37 128.70 74.74 120.06
  Q 74.17 118.76 73.24 117.86
  Q 72.32 116.95 70.84 117.07
  Q 62.98 117.68 57.65 111.23
  A 2.75 2.74 71.0 0 0 55.63 110.24
  Q 42.39 109.82 31.59 101.83
  C 25.87 97.59 22.66 92.12 22.86 85.02
  Q 23.04 78.90 22.97 74.21
  A 18.50 18.44 50.0 0 1 23.27 70.68
  L 23.62 68.75
  Q 23.68 69.06 23.95 69.20
  A 0.40 0.40 0.0 0 0 24.52 68.96
  Q 26.88 61.33 32.24 55.03
  Q 35.97 50.65 41.22 48.27
  Q 49.51 44.53 59.01 43.59
  Q 59.47 43.54 59.35 42.71
  C 59.81 42.90 60.17 42.66 60.39 42.23
  Q 62.11 38.67 64.38 36.13
  Q 65.52 34.85 70.18 29.99
  Q 78.46 24.95 87.17 24.30
  A 1.68 1.61 55.6 0 1 88.03 24.48
  Q 88.60 24.79 89.18 24.50
  Q 89.92 24.12 90.40 24.04
  Q 93.39 23.55 94.52 25.55
  C 87.03 25.31 78.30 26.46 72.12 30.68
  Q 67.69 33.69 66.51 35.00
  Q 63.45 38.37 61.31 44.02
  A 1.77 1.75 10.3 0 1 59.66 45.15
  C 44.06 45.11 31.35 53.67 25.99 68.19
  C 25.26 70.17 25.01 72.76 24.38 75.57
  A 6.44 6.41 -40.3 0 0 24.23 77.35
  L 24.37 80.01
  Q 24.70 89.04 30.80 95.70
  Q 35.05 100.33 40.36 102.63
  Q 45.85 105.00 48.30 105.48
  Q 50.59 105.92 56.84 105.89
  C 60.46 105.86 59.93 108.26 61.65 110.17
  C 64.48 113.30 68.69 112.98 72.46 112.46
  A 1.42 1.41 -14.3 0 1 73.97 113.35
  C 75.66 117.73 79.13 121.59 83.33 124.19
  Q 105.90 138.13 131.32 128.80
  A 2.26 2.25 59.4 0 1 133.79 129.44
  C 140.32 137.00 149.51 140.24 159.75 142.12
  Q 181.44 146.10 201.62 138.55
  Q 204.94 137.31 207.09 136.00
  A 1.05 1.05 0.0 0 1 208.29 136.06
  Q 219.58 144.83 233.90 147.88
  Q 245.69 150.39 252.70 150.78
  Q 255.43 150.94 262.07 151.08
  C 275.75 151.35 289.15 147.75 300.49 140.49
  A 1.24 1.24 0.0 0 1 301.97 140.60
  Q 309.71 147.32 319.73 143.06
  A 1.10 1.01 -74.1 0 0 319.99 142.90
  L 322.95 140.44
  A 2.95 2.93 -55.5 0 1 325.78 139.91
  Q 335.32 143.15 346.95 145.02
  C 361.90 147.41 375.13 143.97 387.44 137.50
  Q 392.85 134.66 396.71 130.71
  Q 400.10 127.23 400.35 126.98
  A 2.57 2.57 0.0 0 1 402.92 126.33
  C 410.65 128.71 418.46 129.15 426.44 128.78
  C 434.32 128.42 443.46 124.70 449.37 119.67
  Q 454.88 114.99 456.70 107.71
  A 2.23 2.19 -7.8 0 1 457.79 106.30
  Q 459.31 105.45 463.07 104.75
  Q 464.57 104.48 467.49 103.13
  Q 484.48 95.28 483.91 74.72
  L 483.52 69.83
  A 1.39 1.03 -63.2 0 0 483.48 69.60
  C 478.77 53.71 463.61 44.17 447.41 43.61
  A 2.20 2.20 0.0 0 1 445.43 42.19
  Q 437.70 21.87 415.19 21.42
  Q 415.31 20.16 416.42 19.59
  A 1.31 1.26 -89.5 0 0 416.98 19.02
  Q 418.13 16.69 416.53 14.06
  Q 416.41 13.49 415.75 13.18
  Q 416.13 12.58 416.26 11.72
  Z"
/>
<path fill="#220e0a" d="
  M 105.73 32.32
  Q 108.43 32.24 109.92 30.33
  C 111.32 28.55 111.01 26.01 111.76 24.33
  Q 112.44 22.81 113.83 21.19
  A 2.37 2.33 11.4 0 1 114.92 20.48
  C 116.20 20.09 118.52 20.26 119.51 18.53
  Q 120.39 17.00 120.15 14.82
  L 120.41 12.83
  A 0.29 0.28 42.5 0 1 120.97 12.81
  Q 121.66 15.76 120.55 18.73
  A 3.06 3.04 -87.2 0 1 118.51 20.59
  L 115.56 21.41
  A 3.50 3.49 -1.8 0 0 113.08 24.05
  C 112.33 27.52 111.53 30.79 108.32 32.70
  Q 106.69 33.67 105.41 33.00
  A 0.34 0.33 -47.1 0 1 105.39 32.42
  Q 105.55 32.32 105.73 32.32
  Z"
/>
<path fill="#f2bf52" d="
  M 95.52 12.78
  Q 94.41 13.92 95.33 14.91
  Q 99.77 19.72 99.79 25.76
  Q 97.62 24.62 95.65 23.07
  Q 95.17 22.69 94.98 22.89
  Q 94.80 23.08 94.65 23.52
  C 94.51 23.95 94.02 23.90 93.87 23.56
  A 0.52 0.50 38.5 0 1 93.83 23.25
  Q 94.37 19.59 93.68 15.86
  A 2.93 2.82 -47.2 0 1 93.66 14.85
  Q 94.04 12.21 95.52 12.78
  Z"
/>
<path fill="#220e0a" d="
  M 95.52 12.78
  Q 106.50 27.21 95.56 39.26
  Q 94.13 38.58 94.99 37.54
  Q 100.64 33.33 99.79 25.76
  Q 99.77 19.72 95.33 14.91
  Q 94.41 13.92 95.52 12.78
  Z"
/>
<path fill="#220e0a" d="
  M 415.75 13.18
  Q 416.41 13.49 416.53 14.06
  Q 414.56 16.56 412.68 19.42
  C 409.57 24.15 409.02 34.78 413.23 39.22
  Q 413.37 40.27 413.06 41.38
  Q 408.88 36.02 409.36 28.00
  Q 409.89 18.86 415.75 13.18
  Z"
/>
<path fill="#d1933b" d="
  M 120.15 14.82
  Q 120.39 17.00 119.51 18.53
  C 118.52 20.26 116.20 20.09 114.92 20.48
  A 2.37 2.33 11.4 0 0 113.83 21.19
  Q 112.44 22.81 111.76 24.33
  C 111.01 26.01 111.32 28.55 109.92 30.33
  Q 108.43 32.24 105.73 32.32
  Q 104.96 31.50 105.02 30.98
  Q 106.18 22.11 109.17 17.44
  Q 111.15 14.35 114.52 14.09
  Q 117.02 13.89 120.15 14.82
  Z"
/>
<path fill="#d1933b" d="
  M 415.19 21.42
  L 413.23 39.22
  C 409.02 34.78 409.57 24.15 412.68 19.42
  Q 414.56 16.56 416.53 14.06
  Q 418.13 16.69 416.98 19.02
  A 1.31 1.26 -89.5 0 1 416.42 19.59
  Q 415.31 20.16 415.19 21.42
  Z"
/>
<path fill="#220e0a" d="
  M 223.61 19.16
  Q 223.21 19.92 222.62 20.18
  Q 220.67 21.05 219.92 23.41
  C 219.19 25.71 221.47 26.43 223.31 25.97
  Q 228.52 24.65 227.18 18.24
  Q 228.15 19.34 228.50 20.89
  C 229.50 25.38 220.66 29.98 218.73 24.90
  A 1.34 1.31 -48.4 0 1 218.69 24.06
  Q 219.72 20.43 223.61 19.16
  Z"
/>
<path fill="#d1933b" d="
  M 227.18 18.24
  Q 228.52 24.65 223.31 25.97
  C 221.47 26.43 219.19 25.71 219.92 23.41
  Q 220.67 21.05 222.62 20.18
  Q 223.21 19.92 223.61 19.16
  Q 225.41 19.31 227.18 18.24
  Z"
/>
<path fill="#c9deec" d="
  M 441.69 31.38
  Q 432.87 21.18 420.48 19.74
  Q 420.00 19.69 420.27 18.98
  Q 424.50 18.98 429.24 20.76
  Q 437.52 23.88 441.69 31.38
  Z"
/>
<path fill="#eff8fd" d="
  M 483.91 74.72
  Q 481.82 77.59 480.12 80.24
  C 476.64 85.69 473.23 89.18 468.19 92.70
  C 465.03 94.91 461.16 96.09 456.90 97.69
  A 4.29 4.26 4.9 0 0 454.70 99.53
  Q 450.03 107.43 443.08 113.33
  C 436.34 119.05 428.00 120.20 419.14 120.40
  Q 408.90 120.64 399.23 116.91
  A 1.72 1.72 0.0 0 0 397.35 117.35
  C 394.86 120.09 392.75 122.58 389.95 124.57
  Q 370.65 138.36 346.51 136.32
  Q 337.39 135.54 328.69 133.58
  Q 320.70 131.78 310.62 125.90
  Q 308.81 124.85 306.95 126.21
  Q 286.62 141.05 261.00 140.47
  C 245.34 140.12 230.55 136.30 216.99 127.98
  C 214.70 126.58 213.33 125.27 210.86 123.17
  A 1.61 1.61 0.0 0 0 208.93 123.04
  Q 205.90 125.03 203.62 126.34
  C 187.64 135.57 167.29 135.94 151.22 127.56
  Q 148.35 126.06 142.32 122.36
  Q 138.35 119.92 134.90 115.35
  A 2.04 2.04 0.0 0 0 132.42 114.73
  Q 117.86 121.47 101.75 119.72
  C 95.37 119.03 89.36 116.53 84.70 112.11
  C 78.37 106.10 74.31 102.12 72.07 94.96
  A 1.24 1.24 0.0 0 0 70.61 94.12
  C 53.18 98.09 35.32 95.61 24.37 80.01
  L 24.23 77.35
  A 6.44 6.41 -40.3 0 1 24.38 75.57
  C 25.01 72.76 25.26 70.17 25.99 68.19
  C 31.35 53.67 44.06 45.11 59.66 45.15
  A 1.77 1.75 10.3 0 0 61.31 44.02
  Q 63.45 38.37 66.51 35.00
  Q 67.69 33.69 72.12 30.68
  C 78.30 26.46 87.03 25.31 94.52 25.55
  Q 95.77 30.76 94.61 36.52
  Q 94.35 37.82 94.99 37.54
  Q 94.13 38.58 95.56 39.26
  L 95.02 44.51
  Q 94.87 50.47 94.85 56.42
  Q 94.85 56.57 94.51 67.42
  Q 94.30 73.80 95.14 80.20
  Q 94.50 81.02 95.18 82.13
  L 94.78 86.02
  Q 91.43 87.34 87.68 88.76
  Q 86.25 89.30 85.40 90.40
  A 0.24 0.24 0.0 0 0 85.66 90.78
  L 96.12 87.59
  Q 97.30 87.29 98.73 87.44
  C 105.25 87.48 113.02 90.26 117.05 95.69
  A 0.92 0.92 0.0 0 0 118.46 95.77
  Q 124.69 89.11 132.94 91.97
  C 134.74 92.59 136.55 94.12 138.07 95.48
  A 0.81 0.80 -45.3 0 0 139.15 95.47
  Q 148.44 87.00 160.01 93.08
  A 2.26 1.78 73.6 0 1 160.39 93.35
  L 161.64 94.50
  A 0.85 0.85 0.0 0 0 162.67 94.59
  C 172.13 88.50 184.74 88.52 194.05 95.04
  A 0.89 0.88 -50.0 0 1 194.16 96.39
  L 190.65 99.90
  A 0.25 0.25 0.0 0 0 190.65 100.26
  L 190.87 100.47
  A 0.26 0.25 -44.2 0 0 191.24 100.47
  Q 194.98 96.60 199.77 94.25
  Q 206.55 90.77 212.86 89.39
  Q 213.16 89.32 213.47 89.26
  Q 219.37 88.22 223.50 87.94
  Q 230.03 87.50 237.58 88.66
  Q 245.82 90.64 253.53 94.58
  L 260.93 100.62
  A 0.28 0.25 43.1 0 0 261.28 100.63
  L 261.29 100.62
  A 0.35 0.34 -44.3 0 0 261.30 100.18
  L 259.85 98.41
  A 0.72 0.71 -36.9 0 1 260.00 97.37
  C 265.21 93.82 274.15 92.60 277.91 98.73
  Q 277.90 99.00 278.05 99.15
  Q 278.29 101.70 280.01 103.36
  A 0.61 0.61 0.0 0 0 280.83 103.40
  C 286.34 98.82 296.16 101.78 301.79 104.99
  Q 302.44 105.36 303.12 106.24
  A 0.45 0.45 0.0 0 0 303.85 106.23
  L 305.01 104.63
  A 3.25 3.09 -1.9 0 1 305.62 104.01
  Q 311.42 99.72 318.42 99.10
  Q 319.38 99.01 321.57 99.13
  Q 323.16 99.21 324.70 99.11
  Q 324.43 98.26 325.72 97.38
  L 331.29 99.61
  Q 331.59 99.96 331.48 100.14
  L 330.33 102.30
  A 0.29 0.23 -58.0 0 0 330.37 102.63
  L 330.38 102.64
  A 0.26 0.26 0.0 0 0 330.73 102.61
  Q 336.50 96.21 344.51 94.31
  Q 357.40 91.24 370.11 96.05
  C 372.57 96.98 374.39 98.28 376.30 99.61
  A 0.64 0.64 0.0 0 0 377.16 99.50
  Q 378.34 98.12 380.01 96.00
  Q 382.95 92.27 388.36 89.32
  Q 401.09 82.37 414.43 85.15
  Q 416.47 85.57 423.16 87.18
  A 0.47 0.47 0.0 0 0 423.55 86.35
  C 420.45 84.05 417.17 83.90 413.58 83.18
  A 0.85 0.85 0.0 0 1 412.91 82.51
  Q 412.60 80.99 412.81 79.51
  Q 412.91 78.84 412.38 78.55
  Q 412.31 77.75 412.50 77.03
  Q 411.61 70.63 411.83 64.12
  C 411.93 61.44 412.53 59.99 412.94 57.75
  A 20.15 18.04 -43.3 0 0 413.26 53.96
  L 413.06 41.38
  Q 413.37 40.27 413.23 39.22
  L 415.19 21.42
  Q 437.70 21.87 445.43 42.19
  A 2.20 2.20 0.0 0 0 447.41 43.61
  C 463.61 44.17 478.77 53.71 483.48 69.60
  A 1.39 1.03 -63.2 0 1 483.52 69.83
  L 483.91 74.72
  Z"
/>
<path fill="#220e0a" d="
  M 374.68 31.53
  Q 376.39 36.87 372.37 40.60
  Q 371.22 41.67 367.96 42.24
  Q 361.36 40.37 362.22 34.02
  Q 362.98 28.35 367.98 27.67
  Q 372.43 27.06 374.68 31.53
  Z
  M 367.10 40.29
  A 5.86 5.42 -72.7 0 0 372.80 38.04
  A 5.85 5.42 -72.0 0 0 373.54 32.05
  A 5.87 5.43 -73.4 0 0 367.88 28.86
  A 5.86 5.43 -72.8 0 0 363.19 36.11
  A 5.85 5.42 -72.6 0 0 367.10 40.29
  Z"
/>
<path fill="#d1933b" d="
  M 373.54 32.05
  Q 368.22 34.55 367.10 40.29
  A 5.85 5.42 -72.6 0 1 363.19 36.11
  A 5.86 5.43 -72.8 0 1 367.88 28.86
  A 5.87 5.43 -73.4 0 1 373.54 32.05
  Z"
/>
<path fill="#f9e8b2" d="
  M 367.96 42.24
  Q 371.22 41.67 372.37 40.60
  Q 376.39 36.87 374.68 31.53
  Q 374.80 30.99 375.15 31.04
  Q 376.18 31.19 376.44 32.47
  Q 376.80 34.20 376.76 36.01
  Q 376.72 37.70 375.81 39.38
  Q 372.81 44.97 367.96 42.24
  Z"
/>
<path fill="#f4cd64" d="
  M 373.54 32.05
  A 5.85 5.42 -72.0 0 1 372.80 38.04
  A 5.86 5.42 -72.7 0 1 367.10 40.29
  Q 368.22 34.55 373.54 32.05
  Z"
/>
<path fill="#220e0a" d="
  M 316.7683 35.1342
  A 4.36 3.65 -69.2 0 1 318.6321 40.5061
  A 4.36 3.65 -69.2 0 1 313.6717 43.2858
  A 4.36 3.65 -69.2 0 1 311.8079 37.9139
  A 4.36 3.65 -69.2 0 1 316.7683 35.1342
  Z
  M 318.58 39.81
  L 317.81 37.06
  A 1.20 1.20 0.0 0 0 316.33 36.22
  L 315.83 36.36
  A 3.90 2.53 -15.6 0 0 312.76 39.85
  L 312.81 40.04
  A 3.90 2.53 -15.6 0 0 317.25 41.43
  L 317.75 41.29
  A 1.20 1.20 0.0 0 0 318.58 39.81
  Z"
/>
<path fill="#d1933b" d="
  M 318.58 39.81
  A 1.20 1.20 0.0 0 1 317.75 41.29
  L 317.25 41.43
  A 3.90 2.53 -15.6 0 1 312.81 40.04
  L 312.76 39.85
  A 3.90 2.53 -15.6 0 1 315.83 36.36
  L 316.33 36.22
  A 1.20 1.20 0.0 0 1 317.81 37.06
  L 318.58 39.81
  Z"
/>
<path fill="#220e0a" d="
  M 269.8641 38.1609
  A 10.86 9.72 -62.8 0 1 273.5451 52.2630
  A 10.86 9.72 -62.8 0 1 259.9359 57.4791
  A 10.86 9.72 -62.8 0 1 256.2549 43.3770
  A 10.86 9.72 -62.8 0 1 269.8641 38.1609
  Z
  M 263.27 57.23
  A 9.58 8.57 -67.4 0 0 273.35 44.70
  A 9.58 8.57 -67.5 0 0 263.50 38.69
  A 9.61 8.56 -67.4 0 0 259.48 40.96
  A 9.58 8.57 -67.5 0 0 257.42 53.30
  A 9.57 8.56 -67.1 0 0 263.27 57.23
  Z"
/>
<path fill="#220e0a" d="
  M 158.38 47.52
  A 8.78 8.78 0.0 0 1 149.60 56.30
  A 8.78 8.78 0.0 0 1 140.82 47.52
  A 8.78 8.78 0.0 0 1 149.60 38.74
  A 8.78 8.78 0.0 0 1 158.38 47.52
  Z
  M 157.0785 45.9317
  A 7.72 7.52 -12.1 0 0 147.9537 40.1971
  A 7.72 7.52 -12.1 0 0 141.9815 49.1683
  A 7.72 7.52 -12.1 0 0 151.1063 54.9029
  A 7.72 7.52 -12.1 0 0 157.0785 45.9317
  Z"
/>
<path fill="#d1933b" d="
  M 273.35 44.70
  C 271.52 45.43 268.75 45.67 267.52 46.53
  C 264.90 48.35 263.53 50.58 263.48 53.92
  Q 263.45 55.54 263.27 57.23
  A 9.57 8.56 -67.1 0 1 257.42 53.30
  A 9.58 8.57 -67.5 0 1 259.48 40.96
  A 9.61 8.56 -67.4 0 1 263.50 38.69
  A 9.58 8.57 -67.5 0 1 273.35 44.70
  Z"
/>
<ellipse fill="#d1933b" cx="0.00" cy="0.00" transform="translate(149.53,47.55) rotate(-12.1)" rx="7.72" ry="7.52"/>
<path fill="#c9deec" d="
  M 59.35 42.71
  Q 59.47 43.54 59.01 43.59
  Q 49.51 44.53 41.22 48.27
  Q 35.97 50.65 32.24 55.03
  Q 26.88 61.33 24.52 68.96
  A 0.40 0.40 0.0 0 1 23.95 69.20
  Q 23.68 69.06 23.62 68.75
  C 25.19 63.77 27.65 58.54 31.35 54.86
  Q 34.65 51.59 36.34 49.83
  Q 37.92 48.18 42.22 46.46
  Q 50.40 43.20 58.64 42.41
  A 0.80 0.75 59.1 0 1 59.14 42.55
  Q 59.25 42.62 59.35 42.71
  Z"
/>
<path fill="#f2bf52" d="
  M 263.27 57.23
  Q 263.45 55.54 263.48 53.92
  C 263.53 50.58 264.90 48.35 267.52 46.53
  C 268.75 45.67 271.52 45.43 273.35 44.70
  A 9.58 8.57 -67.4 0 1 263.27 57.23
  Z"
/>
<path fill="#220e0a" d="
  M 404.16 57.46
  A 0.78 0.78 0.0 0 1 405.10 58.04
  L 405.15 58.26
  A 2.74 2.64 77.2 0 1 403.18 61.51
  L 402.75 61.61
  A 2.74 2.64 77.2 0 1 399.57 59.53
  L 399.52 59.31
  A 0.78 0.78 0.0 0 1 400.11 58.38
  L 404.16 57.46
  Z
  M 404.0465 59.2265
  A 1.58 0.91 -16.3 0 0 402.2746 58.7966
  A 1.58 0.91 -16.3 0 0 401.0135 60.1135
  A 1.58 0.91 -16.3 0 0 402.7854 60.5434
  A 1.58 0.91 -16.3 0 0 404.0465 59.2265
  Z"
/>
<path fill="#220e0a" d="
  M 115.0834 58.5674
  A 3.81 3.03 -62.6 0 1 116.0201 63.3444
  A 3.81 3.03 -62.6 0 1 111.5766 65.3326
  A 3.81 3.03 -62.6 0 1 110.6399 60.5556
  A 3.81 3.03 -62.6 0 1 115.0834 58.5674
  Z
  M 111.09 63.12
  L 112.95 64.60
  A 0.70 0.70 0.0 0 0 113.93 64.48
  L 114.30 64.02
  A 3.53 1.85 -51.5 0 0 115.05 60.11
  L 114.99 60.06
  A 3.53 1.85 -51.5 0 0 111.34 61.67
  L 110.98 62.13
  A 0.70 0.70 0.0 0 0 111.09 63.12
  Z"
/>
<ellipse fill="#d1933b" cx="0.00" cy="0.00" transform="translate(402.53,59.67) rotate(-16.3)" rx="1.58" ry="0.91"/>
<path fill="#f2bf52" d="
  M 111.09 63.12
  A 0.70 0.70 0.0 0 1 110.98 62.13
  L 111.34 61.67
  A 3.53 1.85 -51.5 0 1 114.99 60.06
  L 115.05 60.11
  A 3.53 1.85 -51.5 0 1 114.30 64.02
  L 113.93 64.48
  A 0.70 0.70 0.0 0 1 112.95 64.60
  L 111.09 63.12
  Z"
/>
<path fill="#d1933b" d="
  M 347.96 64.16
  C 347.83 65.77 346.53 68.45 344.43 67.91
  Q 342.59 67.32 343.67 63.32
  Q 343.89 62.51 344.67 62.66
  Q 344.76 62.67 344.86 62.90
  A 0.31 0.30 60.3 0 1 344.77 63.26
  Q 343.30 64.45 344.34 65.79
  A 1.01 1.01 0.0 0 0 346.14 65.09
  Q 346.08 64.40 346.30 63.84
  A 0.61 0.60 -66.5 0 1 347.11 63.52
  Q 347.57 63.73 347.96 64.16
  Z"
/>
<path fill="#f9e8b2" d="
  M 344.43 67.91
  C 346.53 68.45 347.83 65.77 347.96 64.16
  Q 349.86 63.90 350.57 65.00
  A 1.13 1.12 36.9 0 1 350.71 65.94
  Q 349.35 70.60 344.26 68.77
  Q 343.87 68.63 344.07 68.20
  Q 344.15 68.02 344.43 67.91
  Z"
/>
<path fill="#220e0a" d="
  M 366.17 71.38
  C 362.88 80.93 351.82 73.95 359.75 67.40
  Q 365.59 65.22 366.17 71.38
  Z
  M 364.2437 69.0314
  A 3.65 2.99 -41.5 0 0 359.5288 69.2106
  A 3.65 2.99 -41.5 0 0 358.7763 73.8686
  A 3.65 2.99 -41.5 0 0 363.4912 73.6894
  A 3.65 2.99 -41.5 0 0 364.2437 69.0314
  Z"
/>
<ellipse fill="#d1933b" cx="0.00" cy="0.00" transform="translate(361.51,71.45) rotate(-41.5)" rx="3.65" ry="2.99"/>
<path fill="#220e0a" d="
  M 180.08 72.87
  Q 175.04 70.36 171.57 72.47
  Q 168.26 74.49 168.24 78.52
  Q 168.23 82.17 171.88 84.41
  Q 176.90 86.38 180.43 82.57
  A 0.21 0.21 0.0 0 1 180.73 82.56
  A 0.21 0.21 0.0 0 1 180.74 82.85
  Q 179.06 84.61 176.01 85.96
  A 2.25 2.21 32.8 0 1 175.04 86.16
  C 168.97 86.10 165.35 80.38 167.87 74.87
  C 169.88 70.48 176.93 67.76 180.08 72.87
  Z"
/>
<path fill="#d1933b" d="
  M 180.08 72.87
  Q 183.99 75.87 181.59 80.74
  A 0.43 0.42 62.1 0 1 180.79 80.49
  L 181.37 76.14
  A 1.00 1.00 0.0 0 0 179.98 75.09
  C 177.54 76.17 175.39 76.39 173.79 79.14
  A 1.89 1.78 67.3 0 0 173.58 79.70
  Q 173.17 81.99 171.88 84.41
  Q 168.23 82.17 168.24 78.52
  Q 168.26 74.49 171.57 72.47
  Q 175.04 70.36 180.08 72.87
  Z"
/>
<path fill="#c9deec" d="
  M 24.37 80.01
  C 35.32 95.61 53.18 98.09 70.61 94.12
  A 1.24 1.24 0.0 0 1 72.07 94.96
  C 74.31 102.12 78.37 106.10 84.70 112.11
  C 89.36 116.53 95.37 119.03 101.75 119.72
  Q 117.86 121.47 132.42 114.73
  A 2.04 2.04 0.0 0 1 134.90 115.35
  Q 138.35 119.92 142.32 122.36
  Q 148.35 126.06 151.22 127.56
  C 167.29 135.94 187.64 135.57 203.62 126.34
  Q 205.90 125.03 208.93 123.04
  A 1.61 1.61 0.0 0 1 210.86 123.17
  C 213.33 125.27 214.70 126.58 216.99 127.98
  C 230.55 136.30 245.34 140.12 261.00 140.47
  Q 286.62 141.05 306.95 126.21
  Q 308.81 124.85 310.62 125.90
  Q 320.70 131.78 328.69 133.58
  Q 337.39 135.54 346.51 136.32
  Q 370.65 138.36 389.95 124.57
  C 392.75 122.58 394.86 120.09 397.35 117.35
  A 1.72 1.72 0.0 0 1 399.23 116.91
  Q 408.90 120.64 419.14 120.40
  C 428.00 120.20 436.34 119.05 443.08 113.33
  Q 450.03 107.43 454.70 99.53
  A 4.29 4.26 4.9 0 1 456.90 97.69
  C 461.16 96.09 465.03 94.91 468.19 92.70
  C 473.23 89.18 476.64 85.69 480.12 80.24
  Q 481.82 77.59 483.91 74.72
  Q 484.48 95.28 467.49 103.13
  Q 464.57 104.48 463.07 104.75
  Q 459.31 105.45 457.79 106.30
  A 2.23 2.19 -7.8 0 0 456.70 107.71
  Q 454.88 114.99 449.37 119.67
  C 443.46 124.70 434.32 128.42 426.44 128.78
  C 418.46 129.15 410.65 128.71 402.92 126.33
  A 2.57 2.57 0.0 0 0 400.35 126.98
  Q 400.10 127.23 396.71 130.71
  Q 392.85 134.66 387.44 137.50
  C 375.13 143.97 361.90 147.41 346.95 145.02
  Q 335.32 143.15 325.78 139.91
  A 2.95 2.93 -55.5 0 0 322.95 140.44
  L 319.99 142.90
  A 1.10 1.01 -74.1 0 1 319.73 143.06
  Q 309.71 147.32 301.97 140.60
  A 1.24 1.24 0.0 0 0 300.49 140.49
  C 289.15 147.75 275.75 151.35 262.07 151.08
  Q 255.43 150.94 252.70 150.78
  Q 245.69 150.39 233.90 147.88
  Q 219.58 144.83 208.29 136.06
  A 1.05 1.05 0.0 0 0 207.09 136.00
  Q 204.94 137.31 201.62 138.55
  Q 181.44 146.10 159.75 142.12
  C 149.51 140.24 140.32 137.00 133.79 129.44
  A 2.26 2.25 59.4 0 0 131.32 128.80
  Q 105.90 138.13 83.33 124.19
  C 79.13 121.59 75.66 117.73 73.97 113.35
  A 1.42 1.41 -14.3 0 0 72.46 112.46
  C 68.69 112.98 64.48 113.30 61.65 110.17
  C 59.93 108.26 60.46 105.86 56.84 105.89
  Q 50.59 105.92 48.30 105.48
  Q 45.85 105.00 40.36 102.63
  Q 35.05 100.33 30.80 95.70
  Q 24.70 89.04 24.37 80.01
  Z"
/>
<path fill="#220e0a" d="
  M 412.50 77.03
  Q 412.31 77.75 412.38 78.55
  Q 410.56 78.67 409.88 79.87
  Q 408.49 82.36 407.52 83.44
  A 0.67 0.66 -66.4 0 1 406.94 83.67
  Q 406.44 83.61 406.49 83.30
  C 408.01 80.68 408.80 77.15 412.50 77.03
  Z"
/>
<path fill="#95b6ce" d="
  M 412.38 78.55
  Q 412.91 78.84 412.81 79.51
  Q 412.60 80.99 412.91 82.51
  A 0.85 0.85 0.0 0 0 413.58 83.18
  C 417.17 83.90 420.45 84.05 423.55 86.35
  A 0.47 0.47 0.0 0 1 423.16 87.18
  Q 416.47 85.57 414.43 85.15
  Q 401.09 82.37 388.36 89.32
  Q 382.95 92.27 380.01 96.00
  Q 378.34 98.12 377.16 99.50
  A 0.64 0.64 0.0 0 1 376.30 99.61
  C 374.39 98.28 372.57 96.98 370.11 96.05
  Q 357.40 91.24 344.51 94.31
  Q 336.50 96.21 330.73 102.61
  A 0.26 0.26 0.0 0 1 330.38 102.64
  L 330.37 102.63
  A 0.29 0.23 -58.0 0 1 330.33 102.30
  L 331.48 100.14
  Q 346.18 89.29 363.81 93.50
  Q 370.28 95.24 375.98 98.29
  A 0.81 0.80 32.1 0 0 377.01 98.06
  Q 387.45 84.21 404.63 83.82
  A 1.45 1.45 0.0 0 0 405.27 83.65
  Q 405.83 83.33 406.49 83.30
  Q 406.44 83.61 406.94 83.67
  A 0.67 0.66 -66.4 0 0 407.52 83.44
  Q 408.49 82.36 409.88 79.87
  Q 410.56 78.67 412.38 78.55
  Z"
/>
<path fill="#220e0a" d="
  M 99.32 85.75
  Q 99.38 86.19 99.31 86.50
  Q 99.25 86.80 98.97 86.89
  Q 98.76 86.97 98.44 86.98
  Q 97.49 83.89 95.18 82.13
  Q 94.50 81.02 95.14 80.20
  Q 98.31 82.19 99.32 85.75
  Z"
/>
<path fill="#f2bf52" d="
  M 98.44 86.98
  L 98.73 87.44
  Q 97.30 87.29 96.12 87.59
  Q 94.62 86.24 94.78 86.02
  L 95.18 82.13
  Q 97.49 83.89 98.44 86.98
  Z"
/>
<path fill="#220e0a" d="
  M 213.71 88.65
  Q 213.52 88.15 213.47 89.26
  Q 213.16 89.32 212.86 89.39
  Q 210.08 85.71 206.68 86.48
  C 204.71 86.93 201.36 88.59 201.05 90.79
  Q 200.68 93.48 199.94 92.62
  Q 200.36 85.88 207.00 84.94
  Q 211.51 84.30 213.71 88.65
  Z"
/>
<path fill="#95b6ce" d="
  M 94.78 86.02
  Q 94.62 86.24 96.12 87.59
  L 85.66 90.78
  A 0.24 0.24 0.0 0 1 85.40 90.40
  Q 86.25 89.30 87.68 88.76
  Q 91.43 87.34 94.78 86.02
  Z"
/>
<path fill="#95b6ce" d="
  M 199.30 93.71
  Q 199.79 93.74 199.77 94.25
  Q 194.98 96.60 191.24 100.47
  A 0.26 0.25 -44.2 0 1 190.87 100.47
  L 190.65 100.26
  A 0.25 0.25 0.0 0 1 190.65 99.90
  L 194.16 96.39
  A 0.89 0.88 -50.0 0 0 194.05 95.04
  C 184.74 88.52 172.13 88.50 162.67 94.59
  A 0.85 0.85 0.0 0 1 161.64 94.50
  L 160.39 93.35
  A 2.26 1.78 73.6 0 0 160.01 93.08
  Q 148.44 87.00 139.15 95.47
  A 0.81 0.80 -45.3 0 1 138.07 95.48
  C 136.55 94.12 134.74 92.59 132.94 91.97
  Q 124.69 89.11 118.46 95.77
  A 0.92 0.92 0.0 0 1 117.05 95.69
  C 113.02 90.26 105.25 87.48 98.73 87.44
  L 98.44 86.98
  Q 98.76 86.97 98.97 86.89
  Q 99.25 86.80 99.31 86.50
  Q 99.38 86.19 99.32 85.75
  Q 99.41 86.60 99.99 86.64
  Q 110.17 87.25 117.16 94.59
  A 1.26 1.26 0.0 0 0 118.89 94.68
  Q 121.69 92.30 122.96 91.68
  Q 129.40 88.55 135.42 92.41
  Q 137.91 94.01 137.94 94.03
  A 1.19 1.19 0.0 0 0 139.13 93.98
  L 143.39 91.29
  A 0.67 0.53 6.3 0 1 143.50 91.22
  Q 152.79 87.08 161.64 93.24
  A 1.08 1.07 47.7 0 0 162.77 93.30
  Q 179.05 84.33 195.11 94.96
  A 1.46 1.46 0.0 0 0 196.56 95.05
  L 199.30 93.71
  Z"
/>
<path fill="#d1933b" d="
  M 212.86 89.39
  Q 206.55 90.77 199.77 94.25
  Q 199.79 93.74 199.30 93.71
  Q 199.80 93.23 199.94 92.62
  Q 200.68 93.48 201.05 90.79
  C 201.36 88.59 204.71 86.93 206.68 86.48
  Q 210.08 85.71 212.86 89.39
  Z"
/>
<path fill="#95b6ce" d="
  M 237.58 88.66
  Q 230.03 87.50 223.50 87.94
  Q 219.37 88.22 213.47 89.26
  Q 213.52 88.15 213.71 88.65
  Q 217.23 87.90 221.00 87.45
  Q 229.56 86.42 237.58 88.66
  Z"
/>
<path fill="#95b6ce" d="
  M 277.91 98.73
  C 274.15 92.60 265.21 93.82 260.00 97.37
  A 0.72 0.71 -36.9 0 0 259.85 98.41
  L 261.30 100.18
  A 0.35 0.34 -44.3 0 1 261.29 100.62
  L 261.28 100.63
  A 0.28 0.25 43.1 0 1 260.93 100.62
  L 253.53 94.58
  L 258.30 97.14
  A 1.10 1.10 0.0 0 0 259.49 97.03
  Q 267.40 90.74 276.25 95.92
  Q 277.66 96.75 277.91 98.73
  Z"
/>
<path fill="#95b6ce" d="
  M 331.29 99.61
  L 325.72 97.38
  Q 328.73 97.27 331.28 99.26
  Q 331.62 99.53 331.29 99.61
  Z"
/>
<path fill="#95b6ce" d="
  M 324.70 99.11
  Q 323.16 99.21 321.57 99.13
  Q 319.38 99.01 318.42 99.10
  Q 311.42 99.72 305.62 104.01
  A 3.25 3.09 -1.9 0 0 305.01 104.63
  L 303.85 106.23
  A 0.45 0.45 0.0 0 1 303.12 106.24
  Q 302.44 105.36 301.79 104.99
  C 296.16 101.78 286.34 98.82 280.83 103.40
  A 0.61 0.61 0.0 0 1 280.01 103.36
  Q 278.29 101.70 278.05 99.15
  Q 278.74 101.11 280.16 102.14
  A 0.76 0.74 44.9 0 0 281.05 102.15
  C 286.94 97.99 297.22 101.36 302.68 104.32
  A 1.11 1.09 -46.2 0 0 303.79 104.29
  Q 304.54 103.81 308.59 101.43
  Q 316.20 96.95 324.70 99.11
  Z"
/>
<path fill="#c9deec" d="
  M 147.20 141.36
  Q 139.77 138.37 133.22 133.72
  A 3.75 3.74 60.2 0 0 130.76 133.05
  Q 128.35 133.25 125.31 134.24
  Q 122.37 135.19 113.76 135.76
  Q 109.21 136.05 98.24 134.22
  Q 83.39 131.73 74.74 120.06
  Q 83.37 128.70 94.01 132.26
  Q 95.86 132.88 103.69 134.32
  A 4.64 4.58 -41.0 0 0 104.78 134.39
  Q 108.24 134.20 111.11 134.78
  A 6.29 6.27 50.3 0 0 112.28 134.89
  C 114.83 134.89 119.14 134.81 122.44 134.07
  Q 128.03 132.82 131.73 131.40
  A 0.73 0.72 58.0 0 1 132.54 131.59
  C 136.05 135.53 141.63 138.10 146.16 140.05
  Q 147.30 140.54 147.20 141.36
  Z"
/>
<path fill="#c9deec" d="
  M 389.77 138.35
  Q 374.38 148.25 356.02 148.12
  Q 339.16 148.00 325.22 143.41
  A 1.12 1.11 -51.5 0 0 324.27 143.52
  Q 312.59 150.60 301.02 143.50
  A 0.85 0.84 43.4 0 0 300.10 143.52
  Q 289.92 150.63 277.81 152.59
  Q 277.40 151.40 278.62 151.33
  Q 280.31 151.24 282.42 150.63
  Q 291.75 147.92 300.05 142.60
  A 1.07 1.07 0.0 0 1 301.15 142.56
  L 305.13 144.73
  A 2.55 2.21 11.7 0 0 305.46 144.87
  Q 314.89 148.16 323.29 142.77
  A 2.53 2.51 35.1 0 1 325.24 142.44
  L 340.33 145.99
  A 3.39 2.99 48.6 0 0 340.89 146.06
  Q 344.16 146.14 346.84 146.75
  A 5.96 5.68 50.2 0 0 348.15 146.90
  Q 355.91 146.87 358.11 146.91
  Q 362.97 146.98 367.89 146.12
  Q 373.55 145.12 379.79 142.47
  Q 382.02 141.52 383.28 141.12
  A 2.18 2.16 -75.3 0 0 384.11 140.63
  Q 386.67 138.24 389.77 138.35
  Z"
/>
<path fill="#c9deec" d="
  M 243.70 152.59
  Q 239.53 152.17 233.98 150.52
  Q 224.62 147.75 214.19 143.07
  Q 209.77 141.09 207.93 139.58
  A 0.79 0.77 50.4 0 0 207.06 139.49
  Q 201.20 142.55 199.69 142.97
  Q 179.99 148.39 160.04 145.37
  Q 154.02 144.46 148.05 141.61
  Q 148.63 141.22 148.99 141.34
  Q 159.00 144.61 164.29 144.97
  Q 174.12 145.65 183.75 144.91
  C 191.40 144.32 199.46 142.49 206.53 138.74
  A 2.47 2.45 50.1 0 1 209.22 138.99
  Q 212.61 141.70 216.13 143.07
  Q 232.05 149.30 236.07 150.14
  Q 241.28 151.22 243.70 152.59
  Z"
/>
</svg>
