<?xml version="1.0" encoding="UTF-8" standalone="no"?>
<!DOCTYPE svg PUBLIC "-//W3C//DTD SVG 1.1//EN" "http://www.w3.org/Graphics/SVG/1.1/DTD/svg11.dtd">
<svg xmlns="http://www.w3.org/2000/svg" version="1.1" viewBox="0.00 0.00 234.00 233.00">
<g stroke-width="2.00" fill="none" stroke-linecap="butt">
<path stroke="#b08e85" vector-effect="non-scaling-stroke" d="
  M 181.42 21.19
  L 178.66 27.50"
/>
<path stroke="#ae7317" vector-effect="non-scaling-stroke" d="
  M 178.66 27.50
  Q 178.11 27.49 177.24 27.15"
/>
<path stroke="#af874d" vector-effect="non-scaling-stroke" d="
  M 177.24 27.15
  Q 153.95 10.52 126.48 7.21
  Q 106.00 4.75 86.86 9.98
  C 51.75 19.57 25.15 45.28 12.78 79.53
  C 5.68 99.19 5.69 123.07 11.30 143.24"
/>
<path stroke="#ae7317" vector-effect="non-scaling-stroke" d="
  M 11.30 143.24
  Q 15.89 159.37 25.23 173.24"
/>
<path stroke="#ae670f" vector-effect="non-scaling-stroke" d="
  M 25.23 173.24
  Q 28.18 178.48 32.37 182.86"
/>
<path stroke="#b08e85" vector-effect="non-scaling-stroke" d="
  M 32.37 182.86
  Q 30.10 184.53 26.94 184.62
  A 0.38 0.38 0.0 0 0 26.77 185.33
  Q 37.80 191.13 40.66 203.29"
/>
<path stroke="#964510" vector-effect="non-scaling-stroke" d="
  M 3.35 142.19
  Q 3.77 140.95 2.94 139.54"
/>
<path stroke="#af874d" vector-effect="non-scaling-stroke" d="
  M 2.94 139.54
  L 0.90 127.12"
/>
<path stroke="#f9dc5a" vector-effect="non-scaling-stroke" d="
  M 177.24 27.15
  L 162.39 19.88
  A 2.27 1.56 55.5 0 0 162.13 19.78
  Q 156.05 17.88 149.92 16.11
  Q 122.20 8.11 93.15 13.42
  Q 86.23 14.69 81.02 16.36"
/>
<path stroke="#faf8c7" vector-effect="non-scaling-stroke" d="
  M 81.02 16.36
  Q 75.65 17.56 72.44 19.18
  Q 64.07 23.39 55.06 31.24"
/>
<path stroke="#f9dc5a" vector-effect="non-scaling-stroke" d="
  M 55.06 31.24
  Q 17.66 59.19 11.67 105.48
  Q 10.35 115.67 10.90 131.48
  C 11.03 135.19 12.02 138.71 12.18 142.41
  A 0.92 0.89 -27.0 0 1 11.96 143.05
  Q 11.59 143.48 11.30 143.24"
/>
<path stroke="#fae492" vector-effect="non-scaling-stroke" d="
  M 178.66 27.50
  Q 175.50 35.24 168.72 38.47
  Q 165.88 39.83 160.79 41.11"
/>
<path stroke="#d8901c" vector-effect="non-scaling-stroke" d="
  M 160.79 41.11
  Q 154.54 37.87 150.64 36.15
  C 117.61 21.59 81.42 28.48 55.38 53.22
  C 25.10 81.99 19.91 130.70 44.63 163.89
  Q 58.94 183.10 82.80 193.53"
/>
<path stroke="#f9dc5a" vector-effect="non-scaling-stroke" d="
  M 82.80 193.53
  Q 82.07 193.59 82.43 194.36
  A 1.13 1.11 -87.2 0 0 82.84 194.82
  Q 84.70 195.90 86.04 196.43
  Q 111.51 206.61 137.78 200.21
  C 161.25 194.48 179.99 178.44 191.94 157.70
  Q 202.07 140.10 200.94 119.95"
/>
<path stroke="#d8901c" vector-effect="non-scaling-stroke" d="
  M 200.94 119.95
  Q 203.28 90.31 186.83 66.39"
/>
<path stroke="#fae492" vector-effect="non-scaling-stroke" d="
  M 186.83 66.39
  Q 189.71 55.68 197.10 48.40"
/>
<path stroke="#e8a61d" vector-effect="non-scaling-stroke" d="
  M 197.10 48.40
  Q 220.92 79.22 218.90 119.51
  C 216.69 163.34 188.18 200.98 146.29 213.97
  C 123.27 221.11 98.33 220.11 75.95 211.55
  Q 60.80 205.75 46.98 195.65"
/>
<path stroke="#fae492" vector-effect="non-scaling-stroke" d="
  M 46.98 195.65
  Q 51.41 187.92 59.27 186.63
  A 0.46 0.46 0.0 0 0 59.25 185.72
  C 48.30 184.45 44.81 174.61 43.73 165.10
  A 0.48 0.48 0.0 0 0 42.77 165.10
  C 42.03 171.50 39.92 176.94 34.89 181.04"
/>
<path stroke="#f8bd1c" vector-effect="non-scaling-stroke" d="
  M 34.89 181.04
  Q 33.46 181.02 32.47 180.11"
/>
<path stroke="#d8901c" vector-effect="non-scaling-stroke" d="
  M 32.47 180.11
  L 28.31 175.56"
/>
<path stroke="#f8bd1c" vector-effect="non-scaling-stroke" d="
  M 28.31 175.56
  Q 27.14 172.85 25.23 173.24"
/>
<path stroke="#fae492" vector-effect="non-scaling-stroke" d="
  M 55.06 31.24
  Q 54.04 33.08 53.32 34.87
  Q 52.39 37.17 53.09 38.67
  C 55.28 43.39 62.55 40.38 65.86 38.35
  Q 65.88 38.34 79.53 30.04
  C 83.04 27.90 91.01 22.42 85.61 18.16
  Q 84.46 17.25 81.02 16.36"
/>
<path stroke="#b08e85" vector-effect="non-scaling-stroke" d="
  M 190.02 27.30
  C 192.96 34.67 199.25 38.24 205.96 42.55"
/>
<path stroke="#d9ab8a" vector-effect="non-scaling-stroke" d="
  M 205.96 42.55
  Q 206.25 42.84 206.71 42.72"
/>
<path stroke="#d9ab8a" vector-effect="non-scaling-stroke" d="
  M 207.25 43.27
  Q 206.88 43.44 206.71 43.81"
/>
<path stroke="#b08e85" vector-effect="non-scaling-stroke" d="
  M 206.71 43.81
  Q 203.84 44.10 200.01 46.10"
/>
<path stroke="#eac18a" vector-effect="non-scaling-stroke" d="
  M 200.01 46.10
  L 197.10 48.40"
/>
<path stroke="#d9ab8a" vector-effect="non-scaling-stroke" d="
  M 186.83 66.39
  L 184.81 74.96"
/>
<path stroke="#fad889" vector-effect="non-scaling-stroke" d="
  M 184.81 74.96
  Q 183.74 74.57 183.62 73.96"
/>
<path stroke="#d9ab8a" vector-effect="non-scaling-stroke" d="
  M 183.62 73.96
  C 182.79 64.53 178.57 53.14 170.79 47.42
  C 167.53 45.02 162.85 42.62 158.73 42.89
  A 0.28 0.28 0.0 0 1 158.57 42.36
  L 160.79 41.11"
/>
<path stroke="#8e3a0f" vector-effect="non-scaling-stroke" d="
  M 206.60 42.34
  Q 206.26 42.57 205.96 42.55"
/>
<path stroke="#d88414" vector-effect="non-scaling-stroke" d="
  M 183.62 73.96
  Q 181.29 70.90 177.81 64.96
  Q 174.81 59.83 169.80 56.22"
/>
<path stroke="#c86d15" vector-effect="non-scaling-stroke" d="
  M 169.80 56.22
  Q 165.22 50.86 159.07 47.43
  Q 146.02 40.18 131.25 37.06
  C 111.17 32.82 89.42 37.00 72.74 47.77
  C 57.96 57.31 44.88 72.96 38.82 90.57
  Q 36.39 97.61 35.73 101.79
  Q 33.06 118.46 37.40 135.12
  Q 38.16 138.03 41.16 139.29"
/>
<path stroke="#d88414" vector-effect="non-scaling-stroke" d="
  M 41.16 139.29
  Q 47.52 162.48 66.79 177.24
  C 97.47 200.73 138.38 198.14 166.85 172.73
  Q 185.12 156.43 191.89 133.95
  Q 199.30 109.30 189.96 85.01
  Q 189.17 82.98 187.45 79.98
  Q 185.98 77.41 184.81 74.96"
/>
<path stroke="#d8a452" vector-effect="non-scaling-stroke" d="
  M 200.94 119.95
  Q 196.18 150.15 175.34 171.84
  C 151.50 196.66 115.60 206.46 82.80 193.53"
/>
<path stroke="#e89a14" vector-effect="non-scaling-stroke" d="
  M 169.80 56.22
  Q 162.76 52.96 156.53 49.22
  Q 152.16 46.58 142.30 44.21"
/>
<path stroke="#e8a61d" vector-effect="non-scaling-stroke" d="
  M 142.30 44.21
  Q 127.65 40.50 115.25 40.85
  Q 84.95 41.71 63.14 63.63
  Q 47.27 79.59 41.08 104.02"
/>
<path stroke="#e89a14" vector-effect="non-scaling-stroke" d="
  M 41.08 104.02
  C 38.81 115.79 38.31 127.45 41.16 139.29"
/>
<path stroke="#f8bd1c" vector-effect="non-scaling-stroke" d="
  M 142.30 44.21
  Q 143.18 51.94 145.94 59.16
  A 1.47 1.46 -85.0 0 0 146.55 59.89
  C 150.89 62.58 155.21 66.18 154.28 71.80"
/>
<path stroke="#ae7317" vector-effect="non-scaling-stroke" d="
  M 154.28 71.80
  C 154.27 66.65 150.65 64.02 146.31 61.66
  Q 139.47 57.95 132.14 57.49
  A 1.87 1.86 87.7 0 1 130.42 55.90
  C 128.89 45.05 120.62 46.81 111.41 46.98
  C 103.71 47.11 102.09 49.52 101.47 56.92
  A 1.13 1.12 -1.3 0 1 100.50 57.93
  C 87.90 59.62 78.34 69.28 74.45 81.18
  C 69.38 96.70 76.34 110.64 88.84 119.97"
/>
<path stroke="#f8bd1c" vector-effect="non-scaling-stroke" d="
  M 88.84 119.97
  Q 86.54 120.70 84.77 119.67
  Q 63.85 107.41 41.08 104.02"
/>
<path stroke="#8e3a0f" vector-effect="non-scaling-stroke" d="
  M 207.61 43.60
  L 206.71 43.81"
/>
<path stroke="#9e5010" vector-effect="non-scaling-stroke" d="
  M 125.26 232.36
  L 112.31 232.37"
/>
<path stroke="#b08e85" vector-effect="non-scaling-stroke" d="
  M 43.76 206.02
  L 45.75 198.07"
/>
<path stroke="#9e5010" vector-effect="non-scaling-stroke" d="
  M 45.75 198.07
  Q 56.15 206.77 66.12 212.37
  C 94.98 228.59 131.24 229.23 161.53 216.15
  C 199.95 199.57 224.84 162.11 226.08 120.50
  Q 227.33 78.44 200.01 46.10"
/>
<path stroke="#ae670f" vector-effect="non-scaling-stroke" d="
  M 88.84 119.97
  L 90.16 120.72"
/>
<path stroke="#e89a14" vector-effect="non-scaling-stroke" d="
  M 90.16 120.72
  Q 91.03 123.49 94.82 125.16
  Q 105.08 129.67 110.99 131.54
  Q 113.43 132.31 118.39 134.64
  Q 119.27 135.05 120.68 133.27"
/>
<path stroke="#ae670f" vector-effect="non-scaling-stroke" d="
  M 120.68 133.27
  C 121.99 142.54 97.32 133.17 93.92 131.73
  C 87.57 129.03 82.63 127.42 79.32 134.79
  Q 77.38 139.11 72.77 150.34
  C 71.19 154.19 71.40 157.42 74.50 160.02
  Q 76.51 161.70 79.95 163.88"
/>
<path stroke="#e08f14" vector-effect="non-scaling-stroke" d="
  M 79.95 163.88
  Q 83.71 168.82 89.94 170.60
  Q 93.83 171.72 99.93 173.04
  A 2.45 2.43 -4.6 0 1 101.66 174.50
  Q 104.91 182.47 112.86 184.09
  C 116.61 184.85 126.67 185.01 130.20 181.38
  C 132.05 179.48 131.66 176.97 131.75 173.45
  A 0.92 0.91 80.9 0 1 132.36 172.60
  C 145.91 167.71 155.83 160.10 160.19 145.94
  Q 161.92 140.35 160.20 133.67"
/>
<path stroke="#ae670f" vector-effect="non-scaling-stroke" d="
  M 160.20 133.67
  C 158.56 106.85 135.65 99.71 114.09 93.97
  Q 113.29 93.76 112.01 92.53"
/>
<path stroke="#e89a14" vector-effect="non-scaling-stroke" d="
  M 112.01 92.53
  Q 111.96 92.38 111.94 92.25
  A 0.39 0.39 0.0 0 1 112.36 91.79
  C 114.59 91.98 116.62 91.38 118.86 91.79
  Q 129.20 93.72 132.95 95.06
  C 139.82 97.52 146.48 101.56 150.70 93.66
  Q 155.58 84.54 154.14 74.30"
/>
<path stroke="#ae670f" vector-effect="non-scaling-stroke" d="
  M 154.14 74.30
  Q 153.88 73.46 154.28 71.80"
/>
<path stroke="#eac18a" vector-effect="non-scaling-stroke" d="
  M 45.75 198.07
  L 46.98 195.65"
/>
<path stroke="#9e5010" vector-effect="non-scaling-stroke" d="
  M 154.14 74.30
  Q 149.22 86.80 148.24 90.24
  C 146.64 95.90 142.37 95.86 137.31 93.94
  Q 128.34 90.52 117.25 88.53
  Q 114.91 88.11 112.58 88.69
  A 2.08 2.07 -19.0 0 0 111.18 91.54
  Q 111.40 92.04 112.01 92.53"
/>
<path stroke="#964510" vector-effect="non-scaling-stroke" d="
  M 160.20 133.67
  Q 159.49 136.73 158.81 139.79
  C 156.30 151.10 148.42 159.87 137.98 164.73
  Q 134.70 166.26 130.11 167.96
  A 0.72 0.70 -11.3 0 0 129.65 168.63
  C 129.70 172.27 130.30 178.10 126.41 178.66
  Q 122.90 179.17 118.00 179.89
  Q 115.09 180.32 108.37 179.18
  Q 105.12 178.63 103.57 176.18
  A 2.26 2.25 27.2 0 1 103.24 175.16
  L 102.96 170.42
  A 1.32 1.31 2.7 0 0 101.84 169.20
  Q 91.11 167.61 79.95 163.88"
/>
<path stroke="#9e5010" vector-effect="non-scaling-stroke" d="
  M 120.68 133.27
  Q 115.68 130.04 112.20 129.00
  Q 100.94 125.62 90.16 120.72"
/>
<path stroke="#ae7317" vector-effect="non-scaling-stroke" d="
  M 106.99 58.03
  L 106.99 62.52"
/>
<path stroke="#af874d" vector-effect="non-scaling-stroke" d="
  M 106.99 62.52
  Q 89.94 63.15 81.91 77.40
  Q 75.53 88.71 80.73 100.90"
/>
<path stroke="#ae7317" vector-effect="non-scaling-stroke" d="
  M 80.73 100.90
  Q 83.29 108.20 89.16 112.60
  C 96.93 118.42 105.42 120.64 114.43 123.21
  Q 116.29 123.74 118.92 125.05
  Q 121.20 126.18 123.23 127.30"
/>
<path stroke="#af874d" vector-effect="non-scaling-stroke" d="
  M 123.23 127.30
  Q 125.49 129.93 126.11 132.61
  Q 126.81 135.68 125.01 138.05
  C 117.63 147.79 97.10 139.40 88.38 135.38
  Q 85.35 133.99 84.09 136.58
  Q 82.95 138.93 81.77 142.63"
/>
<path stroke="#9e5010" vector-effect="non-scaling-stroke" d="
  M 81.77 142.63
  L 77.36 153.42
  A 2.11 2.10 -62.8 0 0 78.18 155.99
  Q 81.30 157.99 84.77 159.34
  Q 86.71 160.09 91.88 161.18
  Q 100.35 162.98 107.83 166.15"
/>
<path stroke="#ae7317" vector-effect="non-scaling-stroke" d="
  M 107.83 166.15
  L 108.51 170.50"
/>
<path stroke="#9e5010" vector-effect="non-scaling-stroke" d="
  M 108.51 170.50
  Q 107.82 173.20 109.74 173.60
  Q 116.57 175.02 123.50 173.40
  A 1.36 1.35 -8.3 0 0 124.55 172.00
  L 124.19 166.03
  A 2.62 2.62 0.0 0 1 125.93 163.40
  C 135.97 159.80 144.12 155.69 149.96 146.01
  Q 157.20 134.02 151.14 121.48"
/>
<path stroke="#ae7317" vector-effect="non-scaling-stroke" d="
  M 151.14 121.48
  Q 149.40 117.91 147.65 116.40"
/>
<path stroke="#af874d" vector-effect="non-scaling-stroke" d="
  M 147.65 116.40
  Q 145.53 113.25 142.77 111.46
  C 132.83 105.00 122.18 102.16 110.90 98.67"
/>
<path stroke="#ae7317" vector-effect="non-scaling-stroke" d="
  M 110.90 98.67
  L 106.49 94.97"
/>
<path stroke="#9e5010" vector-effect="non-scaling-stroke" d="
  M 106.49 94.97
  C 106.24 93.21 105.35 90.88 105.56 89.43
  C 107.33 77.23 133.54 86.55 139.86 88.99
  C 141.70 89.70 143.13 89.32 143.73 87.46
  Q 143.93 86.85 148.31 74.07
  Q 149.19 71.49 148.17 70.29"
/>
<path stroke="#ae7317" vector-effect="non-scaling-stroke" d="
  M 148.17 70.29
  Q 147.73 69.93 147.76 69.73"
/>
<path stroke="#af874d" vector-effect="non-scaling-stroke" d="
  M 147.76 69.73
  C 144.20 64.31 132.89 62.53 126.70 62.68"
/>
<path stroke="#ae7317" vector-effect="non-scaling-stroke" d="
  M 126.70 62.68
  L 124.92 55.40"
/>
<path stroke="#af874d" vector-effect="non-scaling-stroke" d="
  M 124.92 55.40
  Q 124.46 52.58 120.93 52.10
  Q 114.56 51.25 108.23 52.55
  A 1.26 1.25 2.2 0 0 107.26 53.44
  Q 106.66 55.51 106.99 58.03"
/>
<path stroke="#f9dc5a" vector-effect="non-scaling-stroke" d="
  M 124.92 55.40
  L 124.57 55.92
  A 0.70 0.69 39.9 0 1 123.51 56.01
  L 122.55 55.14
  A 1.75 1.71 63.7 0 0 121.27 54.69
  L 111.36 55.28
  A 2.47 2.43 -63.4 0 0 110.13 55.70
  Q 109.06 56.41 108.42 58.06
  Q 108.23 58.57 107.74 58.56
  Q 107.28 58.54 106.99 58.03"
/>
<path stroke="#f9dc5a" vector-effect="non-scaling-stroke" d="
  M 126.70 62.68
  Q 126.60 64.28 128.06 65.57
  A 1.55 1.49 66.9 0 0 128.93 65.94
  Q 137.42 66.63 145.31 69.95
  Q 146.26 70.35 147.76 69.73"
/>
<path stroke="#e8a61d" vector-effect="non-scaling-stroke" d="
  M 148.17 70.29
  Q 147.25 70.47 146.82 70.71
  Q 146.58 70.84 146.20 71.92
  Q 143.90 78.51 142.07 85.18
  A 1.67 1.67 0.0 0 1 139.87 86.31
  Q 127.44 81.67 113.99 80.76
  Q 107.48 80.32 104.35 85.61
  Q 100.94 91.37 106.49 94.97"
/>
<path stroke="#f9dc5a" vector-effect="non-scaling-stroke" d="
  M 110.90 98.67
  Q 112.60 101.54 116.67 102.87
  C 124.70 105.50 133.42 108.22 140.80 112.35
  Q 144.12 114.21 147.65 116.40"
/>
<path stroke="#e8a61d" vector-effect="non-scaling-stroke" d="
  M 151.14 121.48
  Q 151.10 125.07 151.23 128.67
  Q 151.41 133.59 150.92 135.82
  C 148.81 145.40 141.03 152.96 132.10 156.56
  Q 125.15 159.36 124.59 159.61
  C 120.69 161.29 121.57 165.89 121.72 169.23
  A 1.61 1.61 0.0 0 1 120.44 170.88
  Q 114.67 172.06 108.51 170.50"
/>
<path stroke="#e8a61d" vector-effect="non-scaling-stroke" d="
  M 107.83 166.15
  Q 108.50 163.80 106.16 162.28
  Q 104.69 161.32 101.88 160.81
  Q 92.31 159.07 82.92 156.30
  A 1.71 1.65 77.1 0 1 82.11 155.77
  L 81.23 154.70"
/>
<path stroke="#f9dc5a" vector-effect="non-scaling-stroke" d="
  M 81.23 154.70
  Q 82.19 154.76 82.44 153.69
  Q 83.20 150.49 84.81 143.69
  Q 85.25 141.85 86.41 139.96
  A 1.39 1.38 27.6 0 1 88.15 139.42
  C 95.34 142.57 102.74 145.19 110.98 145.58
  C 116.23 145.83 122.23 145.11 125.67 140.83
  Q 128.17 137.73 128.08 134.17
  Q 127.96 129.67 123.23 127.30"
/>
<path stroke="#f9dc5a" vector-effect="non-scaling-stroke" d="
  M 80.73 100.90
  Q 79.94 90.98 82.50 85.52
  C 86.83 76.26 93.80 69.13 103.92 66.73
  Q 105.90 66.27 106.56 65.42
  Q 107.48 64.27 106.99 62.52"
/>
<path stroke="#e9ba52" vector-effect="non-scaling-stroke" d="
  M 81.23 154.70
  Q 80.66 154.35 80.47 153.84
  Q 80.33 153.42 80.61 152.70
  Q 82.53 147.76 81.77 142.63"
/>
<path stroke="#e1af52" vector-effect="non-scaling-stroke" d="
  M 2.94 139.54
  Q 3.04 139.81 2.88 140.21"
/>
<path stroke="#fad889" vector-effect="non-scaling-stroke" d="
  M 32.37 182.86
  L 34.89 181.04"
/>
<path stroke="#d88414" vector-effect="non-scaling-stroke" d="
  M 28.31 175.56
  Q 29.71 178.26 32.07 180.47
  A 0.22 0.22 0.0 0 0 32.43 180.40
  Q 32.49 180.29 32.47 180.11"
/>
</g>
<path fill="#641d0a" d="
  M 181.42 21.19
  L 178.66 27.50
  Q 178.11 27.49 177.24 27.15
  Q 153.95 10.52 126.48 7.21
  Q 106.00 4.75 86.86 9.98
  C 51.75 19.57 25.15 45.28 12.78 79.53
  C 5.68 99.19 5.69 123.07 11.30 143.24
  Q 15.89 159.37 25.23 173.24
  Q 28.18 178.48 32.37 182.86
  Q 30.10 184.53 26.94 184.62
  A 0.38 0.38 0.0 0 0 26.77 185.33
  Q 37.80 191.13 40.66 203.29
  Q 13.99 177.73 3.35 142.19
  Q 3.77 140.95 2.94 139.54
  L 0.90 127.12
  C 0.24 104.80 4.08 80.70 14.53 61.51
  C 29.36 34.27 55.54 13.71 85.17 4.34
  Q 94.20 1.48 103.99 1.02
  C 131.61 -0.29 158.47 5.44 181.42 21.19
  Z"
/>
<path fill="#f9f08f" d="
  M 177.24 27.15
  L 162.39 19.88
  A 2.27 1.56 55.5 0 0 162.13 19.78
  Q 156.05 17.88 149.92 16.11
  Q 122.20 8.11 93.15 13.42
  Q 86.23 14.69 81.02 16.36
  Q 75.65 17.56 72.44 19.18
  Q 64.07 23.39 55.06 31.24
  Q 17.66 59.19 11.67 105.48
  Q 10.35 115.67 10.90 131.48
  C 11.03 135.19 12.02 138.71 12.18 142.41
  A 0.92 0.89 -27.0 0 1 11.96 143.05
  Q 11.59 143.48 11.30 143.24
  C 5.69 123.07 5.68 99.19 12.78 79.53
  C 25.15 45.28 51.75 19.57 86.86 9.98
  Q 106.00 4.75 126.48 7.21
  Q 153.95 10.52 177.24 27.15
  Z"
/>
<path fill="#f8c824" d="
  M 177.24 27.15
  Q 178.11 27.49 178.66 27.50
  Q 175.50 35.24 168.72 38.47
  Q 165.88 39.83 160.79 41.11
  Q 154.54 37.87 150.64 36.15
  C 117.61 21.59 81.42 28.48 55.38 53.22
  C 25.10 81.99 19.91 130.70 44.63 163.89
  Q 58.94 183.10 82.80 193.53
  Q 82.07 193.59 82.43 194.36
  A 1.13 1.11 -87.2 0 0 82.84 194.82
  Q 84.70 195.90 86.04 196.43
  Q 111.51 206.61 137.78 200.21
  C 161.25 194.48 179.99 178.44 191.94 157.70
  Q 202.07 140.10 200.94 119.95
  Q 203.28 90.31 186.83 66.39
  Q 189.71 55.68 197.10 48.40
  Q 220.92 79.22 218.90 119.51
  C 216.69 163.34 188.18 200.98 146.29 213.97
  C 123.27 221.11 98.33 220.11 75.95 211.55
  Q 60.80 205.75 46.98 195.65
  Q 51.41 187.92 59.27 186.63
  A 0.46 0.46 0.0 0 0 59.25 185.72
  C 48.30 184.45 44.81 174.61 43.73 165.10
  A 0.48 0.48 0.0 0 0 42.77 165.10
  C 42.03 171.50 39.92 176.94 34.89 181.04
  Q 33.46 181.02 32.47 180.11
  L 28.31 175.56
  Q 27.14 172.85 25.23 173.24
  Q 15.89 159.37 11.30 143.24
  Q 11.59 143.48 11.96 143.05
  A 0.92 0.89 -27.0 0 0 12.18 142.41
  C 12.02 138.71 11.03 135.19 10.90 131.48
  Q 10.35 115.67 11.67 105.48
  Q 17.66 59.19 55.06 31.24
  Q 54.04 33.08 53.32 34.87
  Q 52.39 37.17 53.09 38.67
  C 55.28 43.39 62.55 40.38 65.86 38.35
  Q 65.88 38.34 79.53 30.04
  C 83.04 27.90 91.01 22.42 85.61 18.16
  Q 84.46 17.25 81.02 16.36
  Q 86.23 14.69 93.15 13.42
  Q 122.20 8.11 149.92 16.11
  Q 156.05 17.88 162.13 19.78
  A 2.27 1.56 55.5 0 1 162.39 19.88
  L 177.24 27.15
  Z"
/>
<path fill="#fbffff" d="
  M 81.02 16.36
  Q 84.46 17.25 85.61 18.16
  C 91.01 22.42 83.04 27.90 79.53 30.04
  Q 65.88 38.34 65.86 38.35
  C 62.55 40.38 55.28 43.39 53.09 38.67
  Q 52.39 37.17 53.32 34.87
  Q 54.04 33.08 55.06 31.24
  Q 64.07 23.39 72.44 19.18
  Q 75.65 17.56 81.02 16.36
  Z"
/>
<path fill="#fbffff" d="
  M 181.42 21.19
  L 190.02 27.30
  C 192.96 34.67 199.25 38.24 205.96 42.55
  Q 206.25 42.84 206.71 42.72
  Q 207.05 42.94 207.25 43.27
  Q 206.88 43.44 206.71 43.81
  Q 203.84 44.10 200.01 46.10
  L 197.10 48.40
  Q 189.71 55.68 186.83 66.39
  L 184.81 74.96
  Q 183.74 74.57 183.62 73.96
  C 182.79 64.53 178.57 53.14 170.79 47.42
  C 167.53 45.02 162.85 42.62 158.73 42.89
  A 0.28 0.28 0.0 0 1 158.57 42.36
  L 160.79 41.11
  Q 165.88 39.83 168.72 38.47
  Q 175.50 35.24 178.66 27.50
  L 181.42 21.19
  Z"
/>
<path fill="#641d0a" d="
  M 206.60 42.34
  Q 206.26 42.57 205.96 42.55
  C 199.25 38.24 192.96 34.67 190.02 27.30
  Q 199.05 34.11 206.60 42.34
  Z"
/>
<path fill="#b75714" d="
  M 160.79 41.11
  L 158.57 42.36
  A 0.28 0.28 0.0 0 0 158.73 42.89
  C 162.85 42.62 167.53 45.02 170.79 47.42
  C 178.57 53.14 182.79 64.53 183.62 73.96
  Q 181.29 70.90 177.81 64.96
  Q 174.81 59.83 169.80 56.22
  Q 165.22 50.86 159.07 47.43
  Q 146.02 40.18 131.25 37.06
  C 111.17 32.82 89.42 37.00 72.74 47.77
  C 57.96 57.31 44.88 72.96 38.82 90.57
  Q 36.39 97.61 35.73 101.79
  Q 33.06 118.46 37.40 135.12
  Q 38.16 138.03 41.16 139.29
  Q 47.52 162.48 66.79 177.24
  C 97.47 200.73 138.38 198.14 166.85 172.73
  Q 185.12 156.43 191.89 133.95
  Q 199.30 109.30 189.96 85.01
  Q 189.17 82.98 187.45 79.98
  Q 185.98 77.41 184.81 74.96
  L 186.83 66.39
  Q 203.28 90.31 200.94 119.95
  Q 196.18 150.15 175.34 171.84
  C 151.50 196.66 115.60 206.46 82.80 193.53
  Q 58.94 183.10 44.63 163.89
  C 19.91 130.70 25.10 81.99 55.38 53.22
  C 81.42 28.48 117.61 21.59 150.64 36.15
  Q 154.54 37.87 160.79 41.11
  Z"
/>
<path fill="#d88315" d="
  M 169.80 56.22
  Q 162.76 52.96 156.53 49.22
  Q 152.16 46.58 142.30 44.21
  Q 127.65 40.50 115.25 40.85
  Q 84.95 41.71 63.14 63.63
  Q 47.27 79.59 41.08 104.02
  C 38.81 115.79 38.31 127.45 41.16 139.29
  Q 38.16 138.03 37.40 135.12
  Q 33.06 118.46 35.73 101.79
  Q 36.39 97.61 38.82 90.57
  C 44.88 72.96 57.96 57.31 72.74 47.77
  C 89.42 37.00 111.17 32.82 131.25 37.06
  Q 146.02 40.18 159.07 47.43
  Q 165.22 50.86 169.80 56.22
  Z"
/>
<path fill="#f8c824" d="
  M 142.30 44.21
  Q 143.18 51.94 145.94 59.16
  A 1.47 1.46 -85.0 0 0 146.55 59.89
  C 150.89 62.58 155.21 66.18 154.28 71.80
  C 154.27 66.65 150.65 64.02 146.31 61.66
  Q 139.47 57.95 132.14 57.49
  A 1.87 1.86 87.7 0 1 130.42 55.90
  C 128.89 45.05 120.62 46.81 111.41 46.98
  C 103.71 47.11 102.09 49.52 101.47 56.92
  A 1.13 1.12 -1.3 0 1 100.50 57.93
  C 87.90 59.62 78.34 69.28 74.45 81.18
  C 69.38 96.70 76.34 110.64 88.84 119.97
  Q 86.54 120.70 84.77 119.67
  Q 63.85 107.41 41.08 104.02
  Q 47.27 79.59 63.14 63.63
  Q 84.95 41.71 115.25 40.85
  Q 127.65 40.50 142.30 44.21
  Z"
/>
<path fill="#b75714" d="
  M 206.60 42.34
  Q 206.32 42.38 206.71 42.72
  Q 206.25 42.84 205.96 42.55
  Q 206.26 42.57 206.60 42.34
  Z"
/>
<path fill="#b75714" d="
  M 207.61 43.60
  L 206.71 43.81
  Q 206.88 43.44 207.25 43.27
  Q 207.43 43.54 207.61 43.60
  Z"
/>
<path fill="#641d0a" d="
  M 206.71 43.81
  L 207.61 43.60
  Q 210.61 47.05 211.97 49.01
  Q 234.49 81.59 233.34 121.75
  Q 232.86 138.70 226.59 156.05
  C 218.92 177.23 206.18 195.76 187.99 208.99
  C 169.38 222.51 148.55 229.79 125.26 232.36
  L 112.31 232.37
  Q 93.41 230.22 75.48 223.80
  Q 57.86 217.49 43.76 206.02
  L 45.75 198.07
  Q 56.15 206.77 66.12 212.37
  C 94.98 228.59 131.24 229.23 161.53 216.15
  C 199.95 199.57 224.84 162.11 226.08 120.50
  Q 227.33 78.44 200.01 46.10
  Q 203.84 44.10 206.71 43.81
  Z"
/>
<path fill="#f8b113" d="
  M 169.80 56.22
  Q 174.81 59.83 177.81 64.96
  Q 181.29 70.90 183.62 73.96
  Q 183.74 74.57 184.81 74.96
  Q 185.98 77.41 187.45 79.98
  Q 189.17 82.98 189.96 85.01
  Q 199.30 109.30 191.89 133.95
  Q 185.12 156.43 166.85 172.73
  C 138.38 198.14 97.47 200.73 66.79 177.24
  Q 47.52 162.48 41.16 139.29
  C 38.31 127.45 38.81 115.79 41.08 104.02
  Q 63.85 107.41 84.77 119.67
  Q 86.54 120.70 88.84 119.97
  L 90.16 120.72
  Q 91.03 123.49 94.82 125.16
  Q 105.08 129.67 110.99 131.54
  Q 113.43 132.31 118.39 134.64
  Q 119.27 135.05 120.68 133.27
  C 121.99 142.54 97.32 133.17 93.92 131.73
  C 87.57 129.03 82.63 127.42 79.32 134.79
  Q 77.38 139.11 72.77 150.34
  C 71.19 154.19 71.40 157.42 74.50 160.02
  Q 76.51 161.70 79.95 163.88
  Q 83.71 168.82 89.94 170.60
  Q 93.83 171.72 99.93 173.04
  A 2.45 2.43 -4.6 0 1 101.66 174.50
  Q 104.91 182.47 112.86 184.09
  C 116.61 184.85 126.67 185.01 130.20 181.38
  C 132.05 179.48 131.66 176.97 131.75 173.45
  A 0.92 0.91 80.9 0 1 132.36 172.60
  C 145.91 167.71 155.83 160.10 160.19 145.94
  Q 161.92 140.35 160.20 133.67
  C 158.56 106.85 135.65 99.71 114.09 93.97
  Q 113.29 93.76 112.01 92.53
  Q 111.96 92.38 111.94 92.25
  A 0.39 0.39 0.0 0 1 112.36 91.79
  C 114.59 91.98 116.62 91.38 118.86 91.79
  Q 129.20 93.72 132.95 95.06
  C 139.82 97.52 146.48 101.56 150.70 93.66
  Q 155.58 84.54 154.14 74.30
  Q 153.88 73.46 154.28 71.80
  C 155.21 66.18 150.89 62.58 146.55 59.89
  A 1.47 1.46 -85.0 0 1 145.94 59.16
  Q 143.18 51.94 142.30 44.21
  Q 152.16 46.58 156.53 49.22
  Q 162.76 52.96 169.80 56.22
  Z"
/>
<path fill="#d88315" d="
  M 200.01 46.10
  Q 227.33 78.44 226.08 120.50
  C 224.84 162.11 199.95 199.57 161.53 216.15
  C 131.24 229.23 94.98 228.59 66.12 212.37
  Q 56.15 206.77 45.75 198.07
  L 46.98 195.65
  Q 60.80 205.75 75.95 211.55
  C 98.33 220.11 123.27 221.11 146.29 213.97
  C 188.18 200.98 216.69 163.34 218.90 119.51
  Q 220.92 79.22 197.10 48.40
  L 200.01 46.10
  Z"
/>
<path fill="#641d0a" d="
  M 154.28 71.80
  Q 153.88 73.46 154.14 74.30
  Q 149.22 86.80 148.24 90.24
  C 146.64 95.90 142.37 95.86 137.31 93.94
  Q 128.34 90.52 117.25 88.53
  Q 114.91 88.11 112.58 88.69
  A 2.08 2.07 -19.0 0 0 111.18 91.54
  Q 111.40 92.04 112.01 92.53
  Q 113.29 93.76 114.09 93.97
  C 135.65 99.71 158.56 106.85 160.20 133.67
  Q 159.49 136.73 158.81 139.79
  C 156.30 151.10 148.42 159.87 137.98 164.73
  Q 134.70 166.26 130.11 167.96
  A 0.72 0.70 -11.3 0 0 129.65 168.63
  C 129.70 172.27 130.30 178.10 126.41 178.66
  Q 122.90 179.17 118.00 179.89
  Q 115.09 180.32 108.37 179.18
  Q 105.12 178.63 103.57 176.18
  A 2.26 2.25 27.2 0 1 103.24 175.16
  L 102.96 170.42
  A 1.32 1.31 2.7 0 0 101.84 169.20
  Q 91.11 167.61 79.95 163.88
  Q 76.51 161.70 74.50 160.02
  C 71.40 157.42 71.19 154.19 72.77 150.34
  Q 77.38 139.11 79.32 134.79
  C 82.63 127.42 87.57 129.03 93.92 131.73
  C 97.32 133.17 121.99 142.54 120.68 133.27
  Q 115.68 130.04 112.20 129.00
  Q 100.94 125.62 90.16 120.72
  L 88.84 119.97
  C 76.34 110.64 69.38 96.70 74.45 81.18
  C 78.34 69.28 87.90 59.62 100.50 57.93
  A 1.13 1.12 -1.3 0 0 101.47 56.92
  C 102.09 49.52 103.71 47.11 111.41 46.98
  C 120.62 46.81 128.89 45.05 130.42 55.90
  A 1.87 1.86 87.7 0 0 132.14 57.49
  Q 139.47 57.95 146.31 61.66
  C 150.65 64.02 154.27 66.65 154.28 71.80
  Z
  M 106.99 58.03
  L 106.99 62.52
  Q 89.94 63.15 81.91 77.40
  Q 75.53 88.71 80.73 100.90
  Q 83.29 108.20 89.16 112.60
  C 96.93 118.42 105.42 120.64 114.43 123.21
  Q 116.29 123.74 118.92 125.05
  Q 121.20 126.18 123.23 127.30
  Q 125.49 129.93 126.11 132.61
  Q 126.81 135.68 125.01 138.05
  C 117.63 147.79 97.10 139.40 88.38 135.38
  Q 85.35 133.99 84.09 136.58
  Q 82.95 138.93 81.77 142.63
  L 77.36 153.42
  A 2.11 2.10 -62.8 0 0 78.18 155.99
  Q 81.30 157.99 84.77 159.34
  Q 86.71 160.09 91.88 161.18
  Q 100.35 162.98 107.83 166.15
  L 108.51 170.50
  Q 107.82 173.20 109.74 173.60
  Q 116.57 175.02 123.50 173.40
  A 1.36 1.35 -8.3 0 0 124.55 172.00
  L 124.19 166.03
  A 2.62 2.62 0.0 0 1 125.93 163.40
  C 135.97 159.80 144.12 155.69 149.96 146.01
  Q 157.20 134.02 151.14 121.48
  Q 149.40 117.91 147.65 116.40
  Q 145.53 113.25 142.77 111.46
  C 132.83 105.00 122.18 102.16 110.90 98.67
  L 106.49 94.97
  C 106.24 93.21 105.35 90.88 105.56 89.43
  C 107.33 77.23 133.54 86.55 139.86 88.99
  C 141.70 89.70 143.13 89.32 143.73 87.46
  Q 143.93 86.85 148.31 74.07
  Q 149.19 71.49 148.17 70.29
  Q 147.73 69.93 147.76 69.73
  C 144.20 64.31 132.89 62.53 126.70 62.68
  L 124.92 55.40
  Q 124.46 52.58 120.93 52.10
  Q 114.56 51.25 108.23 52.55
  A 1.26 1.25 2.2 0 0 107.26 53.44
  Q 106.66 55.51 106.99 58.03
  Z"
/>
<path fill="#f9f08f" d="
  M 124.92 55.40
  L 124.57 55.92
  A 0.70 0.69 39.9 0 1 123.51 56.01
  L 122.55 55.14
  A 1.75 1.71 63.7 0 0 121.27 54.69
  L 111.36 55.28
  A 2.47 2.43 -63.4 0 0 110.13 55.70
  Q 109.06 56.41 108.42 58.06
  Q 108.23 58.57 107.74 58.56
  Q 107.28 58.54 106.99 58.03
  Q 106.66 55.51 107.26 53.44
  A 1.26 1.25 2.2 0 1 108.23 52.55
  Q 114.56 51.25 120.93 52.10
  Q 124.46 52.58 124.92 55.40
  Z"
/>
<path fill="#f8c824" d="
  M 124.92 55.40
  L 126.70 62.68
  Q 126.60 64.28 128.06 65.57
  A 1.55 1.49 66.9 0 0 128.93 65.94
  Q 137.42 66.63 145.31 69.95
  Q 146.26 70.35 147.76 69.73
  Q 147.73 69.93 148.17 70.29
  Q 147.25 70.47 146.82 70.71
  Q 146.58 70.84 146.20 71.92
  Q 143.90 78.51 142.07 85.18
  A 1.67 1.67 0.0 0 1 139.87 86.31
  Q 127.44 81.67 113.99 80.76
  Q 107.48 80.32 104.35 85.61
  Q 100.94 91.37 106.49 94.97
  L 110.90 98.67
  Q 112.60 101.54 116.67 102.87
  C 124.70 105.50 133.42 108.22 140.80 112.35
  Q 144.12 114.21 147.65 116.40
  Q 149.40 117.91 151.14 121.48
  Q 151.10 125.07 151.23 128.67
  Q 151.41 133.59 150.92 135.82
  C 148.81 145.40 141.03 152.96 132.10 156.56
  Q 125.15 159.36 124.59 159.61
  C 120.69 161.29 121.57 165.89 121.72 169.23
  A 1.61 1.61 0.0 0 1 120.44 170.88
  Q 114.67 172.06 108.51 170.50
  L 107.83 166.15
  Q 108.50 163.80 106.16 162.28
  Q 104.69 161.32 101.88 160.81
  Q 92.31 159.07 82.92 156.30
  A 1.71 1.65 77.1 0 1 82.11 155.77
  L 81.23 154.70
  Q 82.19 154.76 82.44 153.69
  Q 83.20 150.49 84.81 143.69
  Q 85.25 141.85 86.41 139.96
  A 1.39 1.38 27.6 0 1 88.15 139.42
  C 95.34 142.57 102.74 145.19 110.98 145.58
  C 116.23 145.83 122.23 145.11 125.67 140.83
  Q 128.17 137.73 128.08 134.17
  Q 127.96 129.67 123.23 127.30
  Q 121.20 126.18 118.92 125.05
  Q 116.29 123.74 114.43 123.21
  C 105.42 120.64 96.93 118.42 89.16 112.60
  Q 83.29 108.20 80.73 100.90
  Q 79.94 90.98 82.50 85.52
  C 86.83 76.26 93.80 69.13 103.92 66.73
  Q 105.90 66.27 106.56 65.42
  Q 107.48 64.27 106.99 62.52
  L 106.99 58.03
  Q 107.28 58.54 107.74 58.56
  Q 108.23 58.57 108.42 58.06
  Q 109.06 56.41 110.13 55.70
  A 2.47 2.43 -63.4 0 1 111.36 55.28
  L 121.27 54.69
  A 1.75 1.71 63.7 0 1 122.55 55.14
  L 123.51 56.01
  A 0.70 0.69 39.9 0 0 124.57 55.92
  L 124.92 55.40
  Z"
/>
<path fill="#f9f08f" d="
  M 106.99 62.52
  Q 107.48 64.27 106.56 65.42
  Q 105.90 66.27 103.92 66.73
  C 93.80 69.13 86.83 76.26 82.50 85.52
  Q 79.94 90.98 80.73 100.90
  Q 75.53 88.71 81.91 77.40
  Q 89.94 63.15 106.99 62.52
  Z"
/>
<path fill="#f9f08f" d="
  M 147.76 69.73
  Q 146.26 70.35 145.31 69.95
  Q 137.42 66.63 128.93 65.94
  A 1.55 1.49 66.9 0 1 128.06 65.57
  Q 126.60 64.28 126.70 62.68
  C 132.89 62.53 144.20 64.31 147.76 69.73
  Z"
/>
<path fill="#d88315" d="
  M 148.17 70.29
  Q 149.19 71.49 148.31 74.07
  Q 143.93 86.85 143.73 87.46
  C 143.13 89.32 141.70 89.70 139.86 88.99
  C 133.54 86.55 107.33 77.23 105.56 89.43
  C 105.35 90.88 106.24 93.21 106.49 94.97
  Q 100.94 91.37 104.35 85.61
  Q 107.48 80.32 113.99 80.76
  Q 127.44 81.67 139.87 86.31
  A 1.67 1.67 0.0 0 0 142.07 85.18
  Q 143.90 78.51 146.20 71.92
  Q 146.58 70.84 146.82 70.71
  Q 147.25 70.47 148.17 70.29
  Z"
/>
<path fill="#d88315" d="
  M 154.14 74.30
  Q 155.58 84.54 150.70 93.66
  C 146.48 101.56 139.82 97.52 132.95 95.06
  Q 129.20 93.72 118.86 91.79
  C 116.62 91.38 114.59 91.98 112.36 91.79
  A 0.39 0.39 0.0 0 0 111.94 92.25
  Q 111.96 92.38 112.01 92.53
  Q 111.40 92.04 111.18 91.54
  A 2.08 2.07 -19.0 0 1 112.58 88.69
  Q 114.91 88.11 117.25 88.53
  Q 128.34 90.52 137.31 93.94
  C 142.37 95.86 146.64 95.90 148.24 90.24
  Q 149.22 86.80 154.14 74.30
  Z"
/>
<path fill="#f9f08f" d="
  M 110.90 98.67
  C 122.18 102.16 132.83 105.00 142.77 111.46
  Q 145.53 113.25 147.65 116.40
  Q 144.12 114.21 140.80 112.35
  C 133.42 108.22 124.70 105.50 116.67 102.87
  Q 112.60 101.54 110.90 98.67
  Z"
/>
<path fill="#f9f08f" d="
  M 82.80 193.53
  C 115.60 206.46 151.50 196.66 175.34 171.84
  Q 196.18 150.15 200.94 119.95
  Q 202.07 140.10 191.94 157.70
  C 179.99 178.44 161.25 194.48 137.78 200.21
  Q 111.51 206.61 86.04 196.43
  Q 84.70 195.90 82.84 194.82
  A 1.13 1.11 -87.2 0 1 82.43 194.36
  Q 82.07 193.59 82.80 193.53
  Z"
/>
<path fill="#d88315" d="
  M 120.68 133.27
  Q 119.27 135.05 118.39 134.64
  Q 113.43 132.31 110.99 131.54
  Q 105.08 129.67 94.82 125.16
  Q 91.03 123.49 90.16 120.72
  Q 100.94 125.62 112.20 129.00
  Q 115.68 130.04 120.68 133.27
  Z"
/>
<path fill="#d88315" d="
  M 108.51 170.50
  Q 114.67 172.06 120.44 170.88
  A 1.61 1.61 0.0 0 0 121.72 169.23
  C 121.57 165.89 120.69 161.29 124.59 159.61
  Q 125.15 159.36 132.10 156.56
  C 141.03 152.96 148.81 145.40 150.92 135.82
  Q 151.41 133.59 151.23 128.67
  Q 151.10 125.07 151.14 121.48
  Q 157.20 134.02 149.96 146.01
  C 144.12 155.69 135.97 159.80 125.93 163.40
  A 2.62 2.62 0.0 0 0 124.19 166.03
  L 124.55 172.00
  A 1.36 1.35 -8.3 0 1 123.50 173.40
  Q 116.57 175.02 109.74 173.60
  Q 107.82 173.20 108.51 170.50
  Z"
/>
<path fill="#f9f08f" d="
  M 2.94 139.54
  Q 3.04 139.81 2.88 140.21
  Q 0.37 133.83 0.90 127.12
  L 2.94 139.54
  Z"
/>
<path fill="#f9f08f" d="
  M 81.23 154.70
  Q 80.66 154.35 80.47 153.84
  Q 80.33 153.42 80.61 152.70
  Q 82.53 147.76 81.77 142.63
  Q 82.95 138.93 84.09 136.58
  Q 85.35 133.99 88.38 135.38
  C 97.10 139.40 117.63 147.79 125.01 138.05
  Q 126.81 135.68 126.11 132.61
  Q 125.49 129.93 123.23 127.30
  Q 127.96 129.67 128.08 134.17
  Q 128.17 137.73 125.67 140.83
  C 122.23 145.11 116.23 145.83 110.98 145.58
  C 102.74 145.19 95.34 142.57 88.15 139.42
  A 1.39 1.38 27.6 0 0 86.41 139.96
  Q 85.25 141.85 84.81 143.69
  Q 83.20 150.49 82.44 153.69
  Q 82.19 154.76 81.23 154.70
  Z"
/>
<path fill="#c86d15" d="
  M 160.20 133.67
  Q 161.92 140.35 160.19 145.94
  C 155.83 160.10 145.91 167.71 132.36 172.60
  A 0.92 0.91 80.9 0 0 131.75 173.45
  C 131.66 176.97 132.05 179.48 130.20 181.38
  C 126.67 185.01 116.61 184.85 112.86 184.09
  Q 104.91 182.47 101.66 174.50
  A 2.45 2.43 -4.6 0 0 99.93 173.04
  Q 93.83 171.72 89.94 170.60
  Q 83.71 168.82 79.95 163.88
  Q 91.11 167.61 101.84 169.20
  A 1.32 1.31 2.7 0 1 102.96 170.42
  L 103.24 175.16
  A 2.26 2.25 27.2 0 0 103.57 176.18
  Q 105.12 178.63 108.37 179.18
  Q 115.09 180.32 118.00 179.89
  Q 122.90 179.17 126.41 178.66
  C 130.30 178.10 129.70 172.27 129.65 168.63
  A 0.72 0.70 -11.3 0 1 130.11 167.96
  Q 134.70 166.26 137.98 164.73
  C 148.42 159.87 156.30 151.10 158.81 139.79
  Q 159.49 136.73 160.20 133.67
  Z"
/>
<path fill="#c86d15" d="
  M 3.35 142.19
  Q 2.89 141.19 2.88 140.21
  Q 3.04 139.81 2.94 139.54
  Q 3.77 140.95 3.35 142.19
  Z"
/>
<path fill="#d88315" d="
  M 81.77 142.63
  Q 82.53 147.76 80.61 152.70
  Q 80.33 153.42 80.47 153.84
  Q 80.66 154.35 81.23 154.70
  L 82.11 155.77
  A 1.71 1.65 77.1 0 0 82.92 156.30
  Q 92.31 159.07 101.88 160.81
  Q 104.69 161.32 106.16 162.28
  Q 108.50 163.80 107.83 166.15
  Q 100.35 162.98 91.88 161.18
  Q 86.71 160.09 84.77 159.34
  Q 81.30 157.99 78.18 155.99
  A 2.11 2.10 -62.8 0 1 77.36 153.42
  L 81.77 142.63
  Z"
/>
<path fill="#fbffff" d="
  M 46.98 195.65
  L 45.75 198.07
  L 43.76 206.02
  L 40.66 203.29
  Q 37.80 191.13 26.77 185.33
  A 0.38 0.38 0.0 0 1 26.94 184.62
  Q 30.10 184.53 32.37 182.86
  L 34.89 181.04
  C 39.92 176.94 42.03 171.50 42.77 165.10
  A 0.48 0.48 0.0 0 1 43.73 165.10
  C 44.81 174.61 48.30 184.45 59.25 185.72
  A 0.46 0.46 0.0 0 1 59.27 186.63
  Q 51.41 187.92 46.98 195.65
  Z"
/>
<path fill="#f8b113" d="
  M 28.31 175.56
  Q 29.71 178.26 32.07 180.47
  A 0.22 0.22 0.0 0 0 32.43 180.40
  Q 32.49 180.29 32.47 180.11
  Q 33.46 181.02 34.89 181.04
  L 32.37 182.86
  Q 28.18 178.48 25.23 173.24
  Q 27.14 172.85 28.31 175.56
  Z"
/>
<path fill="#b75714" d="
  M 28.31 175.56
  L 32.47 180.11
  Q 32.49 180.29 32.43 180.40
  A 0.22 0.22 0.0 0 1 32.07 180.47
  Q 29.71 178.26 28.31 175.56
  Z"
/>
<path fill="#d88315" d="
  M 125.26 232.36
  L 120.76 233.00
  L 116.62 233.00
  L 112.31 232.37
  L 125.26 232.36
  Z"
/>
</svg>
