<?xml version="1.0" encoding="UTF-8" standalone="no"?>
<!DOCTYPE svg PUBLIC "-//W3C//DTD SVG 1.1//EN" "http://www.w3.org/Graphics/SVG/1.1/DTD/svg11.dtd">
<svg xmlns="http://www.w3.org/2000/svg" version="1.1" viewBox="0.00 0.00 234.00 214.00">
<g stroke-width="2.00" fill="none" stroke-linecap="butt">
<path stroke="#3390be" vector-effect="non-scaling-stroke" d="
  M 6.56 74.49
  Q 6.32 78.65 8.95 82.57
  Q 11.08 85.76 13.53 88.73
  Q 20.98 97.78 28.51 106.76
  Q 69.65 155.86 111.23 204.68"
/>
<path stroke="#6ca5c0" vector-effect="non-scaling-stroke" d="
  M 111.23 204.68
  Q 114.48 207.74 117.13 207.63"
/>
<path stroke="#448cbd" vector-effect="non-scaling-stroke" d="
  M 117.13 207.63
  Q 119.05 206.92 118.52 206.45"
/>
<path stroke="#3e6cb5" vector-effect="non-scaling-stroke" d="
  M 118.52 206.45
  Q 120.27 206.83 121.14 206.14
  Q 124.98 203.09 127.83 198.49"
/>
<path stroke="#5676ba" vector-effect="non-scaling-stroke" d="
  M 127.83 198.49
  Q 130.22 196.44 132.11 194.11
  Q 147.04 175.76 150.54 171.78
  Q 155.91 165.67 167.00 152.14
  C 170.56 147.80 175.10 143.04 178.95 138.46
  Q 202.82 110.12 222.96 85.20
  Q 226.50 80.82 227.39 76.53"
/>
<path stroke="#3373b8" vector-effect="non-scaling-stroke" d="
  M 227.39 76.53
  Q 227.70 75.33 227.29 73.64"
/>
<path stroke="#3687bc" vector-effect="non-scaling-stroke" d="
  M 227.29 73.64
  Q 226.60 70.41 225.74 69.02
  Q 218.12 56.79 209.41 45.31
  Q 207.20 42.39 202.48 35.42
  Q 199.25 30.65 195.18 25.79"
/>
<path stroke="#7aa8c2" vector-effect="non-scaling-stroke" d="
  M 195.18 25.79
  Q 179.48 16.79 162.13 9.02
  Q 156.58 6.54 150.00 6.45
  Q 115.49 5.97 98.00 6.31
  Q 93.64 6.39 85.49 6.21
  Q 79.30 6.07 71.18 9.72
  Q 52.78 17.99 43.88 22.64
  C 38.17 25.63 35.72 29.35 31.66 35.15
  Q 22.33 48.43 9.59 66.82
  Q 6.75 70.93 6.56 74.49"
/>
<path stroke="#86dbf4" vector-effect="non-scaling-stroke" d="
  M 195.18 25.79
  Q 194.56 26.97 192.13 27.80
  A 4.29 3.99 15.1 0 0 191.03 28.38
  L 172.35 42.47
  A 5.20 5.17 19.2 0 1 170.41 43.40
  C 153.66 47.48 135.36 49.40 117.80 51.61"
/>
<path stroke="#bcf8f8" vector-effect="non-scaling-stroke" d="
  M 117.80 51.61
  L 105.27 49.72"
/>
<path stroke="#e5fdfd" vector-effect="non-scaling-stroke" d="
  M 105.27 49.72
  Q 106.35 48.55 106.48 46.70"
/>
<path stroke="#bcf8f8" vector-effect="non-scaling-stroke" d="
  M 106.48 46.70
  L 109.31 46.40"
/>
<path stroke="#99f6f5" vector-effect="non-scaling-stroke" d="
  M 109.31 46.40
  C 120.82 47.53 133.53 44.24 144.33 42.91
  Q 152.74 41.88 157.77 41.05
  Q 166.96 39.54 169.94 38.40
  Q 172.32 37.49 176.61 33.95
  A 0.49 0.43 3.6 0 1 176.70 33.88
  L 184.16 29.27
  A 1.22 1.20 86.0 0 0 184.63 28.72
  Q 185.33 27.01 186.33 26.90
  A 1.45 1.26 55.1 0 0 186.60 24.35
  C 181.76 21.27 175.99 19.49 170.07 16.63
  Q 166.75 15.03 162.87 13.36"
/>
<path stroke="#bcf8f8" vector-effect="non-scaling-stroke" d="
  M 162.87 13.36
  Q 158.76 10.08 152.23 9.65
  Q 135.01 8.51 117.68 9.05"
/>
<path stroke="#99f6f5" vector-effect="non-scaling-stroke" d="
  M 117.68 9.05
  Q 104.12 9.45 90.50 10.05
  C 77.69 10.60 64.07 16.08 52.86 22.55
  Q 50.23 24.08 49.71 25.47
  Q 48.92 27.61 51.01 29.26
  Q 54.07 31.65 63.39 36.44"
/>
<path stroke="#e5fdfd" vector-effect="non-scaling-stroke" d="
  M 63.39 36.44
  Q 60.82 39.64 58.95 40.44"
/>
<path stroke="#99f6f5" vector-effect="non-scaling-stroke" d="
  M 58.95 40.44
  Q 52.23 35.14 45.38 30.56
  Q 42.31 28.50 39.81 31.03
  Q 35.50 35.38 32.07 40.60
  C 27.82 47.08 24.92 51.24 17.92 61.03
  Q 17.84 61.13 13.93 65.90
  Q 11.88 68.39 10.66 71.25"
/>
<path stroke="#83e4f6" vector-effect="non-scaling-stroke" d="
  M 10.66 71.25
  L 6.56 74.49"
/>
<path stroke="#83e4f6" vector-effect="non-scaling-stroke" d="
  M 64.61 78.28
  L 65.23 97.09"
/>
<path stroke="#74e1f4" vector-effect="non-scaling-stroke" d="
  M 65.23 97.09
  C 64.23 98.45 61.14 97.96 59.64 97.53
  Q 51.49 95.21 42.74 93.39"
/>
<path stroke="#33b9ed" vector-effect="non-scaling-stroke" d="
  M 42.74 93.39
  Q 29.43 86.84 20.13 81.64
  Q 17.80 80.33 15.78 80.09
  A 0.40 0.39 83.7 0 0 15.37 80.61
  Q 15.37 80.62 16.22 81.29
  Q 16.30 81.36 17.18 82.48
  C 22.93 89.86 26.78 96.65 32.81 103.77
  Q 34.15 105.34 42.37 116.34
  Q 45.05 119.92 52.10 128.74
  Q 58.04 136.17 63.75 143.80"
/>
<path stroke="#3ec3f0" vector-effect="non-scaling-stroke" d="
  M 63.75 143.80
  Q 68.87 150.07 74.09 156.26
  Q 79.23 162.37 84.32 168.86
  C 89.37 175.30 94.49 180.18 98.90 186.52
  Q 101.96 190.92 107.64 197.90
  A 0.40 0.40 0.0 0 0 108.34 197.53
  L 107.69 195.29"
/>
<path stroke="#74e1f4" vector-effect="non-scaling-stroke" d="
  M 107.69 195.29
  Q 110.77 199.65 111.23 204.68"
/>
<path stroke="#3ea6ea" vector-effect="non-scaling-stroke" d="
  M 227.29 73.64
  Q 224.08 72.04 221.41 69.95
  A 7.86 7.34 75.0 0 0 220.05 69.10
  C 214.20 66.23 208.08 63.53 202.60 60.38
  C 195.56 56.33 190.64 53.32 184.45 50.34
  Q 179.61 48.01 172.00 43.83
  A 0.85 0.82 -43.2 0 0 171.22 43.82
  L 169.92 44.46
  A 0.46 0.46 0.0 0 0 169.71 45.07
  L 169.95 45.54
  A 1.75 1.71 -56.7 0 1 170.12 46.41
  L 167.91 75.42"
/>
<path stroke="#a0ddf7" vector-effect="non-scaling-stroke" d="
  M 167.91 75.42
  Q 166.30 75.22 165.69 77.20
  Q 164.03 82.55 162.28 87.82
  Q 160.02 94.64 153.37 97.93"
/>
<path stroke="#4bcef0" vector-effect="non-scaling-stroke" d="
  M 153.37 97.93
  Q 153.99 96.04 156.56 94.51
  Q 158.95 93.09 157.16 91.35
  Q 143.12 77.78 129.42 63.85
  Q 128.06 62.46 123.24 58.00
  Q 120.16 55.15 117.18 52.05"
/>
<path stroke="#77d8f2" vector-effect="non-scaling-stroke" d="
  M 117.18 52.05
  Q 117.49 51.83 117.80 51.61"
/>
<path stroke="#b4f8f7" vector-effect="non-scaling-stroke" d="
  M 74.99 33.55
  Q 71.91 27.27 70.20 20.58
  A 0.32 0.32 0.0 0 0 69.58 20.60
  Q 67.75 29.59 63.39 36.44"
/>
<path stroke="#d6fafa" vector-effect="non-scaling-stroke" d="
  M 105.27 49.72
  L 95.18 48.33
  A 6.40 6.30 42.4 0 0 93.00 48.41
  Q 84.67 50.14 78.85 54.40
  Q 76.97 55.78 75.21 59.17
  Q 71.63 66.06 70.31 72.96
  A 0.46 0.46 0.0 0 1 69.41 72.97
  Q 67.96 66.26 64.50 60.98"
/>
<path stroke="#9de6f9" vector-effect="non-scaling-stroke" d="
  M 64.50 60.98
  C 63.68 53.97 57.20 51.77 51.43 49.48"
/>
<path stroke="#b4f8f7" vector-effect="non-scaling-stroke" d="
  M 51.43 49.48
  L 46.58 47.72
  A 0.79 0.78 -47.4 0 1 46.52 46.27
  L 58.95 40.44"
/>
<path stroke="#52dff1" vector-effect="non-scaling-stroke" d="
  M 51.43 49.48
  L 10.66 71.25"
/>
<path stroke="#8bf3f2" vector-effect="non-scaling-stroke" d="
  M 162.87 13.36
  Q 136.67 28.82 109.25 45.02
  Q 108.63 45.39 108.75 46.10
  Q 108.77 46.22 109.31 46.40"
/>
<path stroke="#d6fafa" vector-effect="non-scaling-stroke" d="
  M 106.48 46.70
  Q 96.41 46.21 87.00 42.95
  Q 82.33 41.33 78.98 38.79
  Q 76.25 36.72 74.99 33.55"
/>
<path stroke="#8bf3f2" vector-effect="non-scaling-stroke" d="
  M 74.99 33.55
  Q 94.45 22.47 114.62 13.63
  Q 115.96 13.05 118.46 10.25
  A 0.55 0.55 0.0 0 0 118.32 9.40
  L 117.68 9.05"
/>
<path stroke="#81ebf3" vector-effect="non-scaling-stroke" d="
  M 117.18 52.05
  Q 113.98 53.50 112.26 55.51
  Q 106.11 62.68 99.29 68.16"
/>
<path stroke="#bcf8f8" vector-effect="non-scaling-stroke" d="
  M 99.29 68.16
  Q 86.45 77.41 82.96 80.71
  Q 76.47 86.85 69.88 93.86
  A 0.92 0.91 -26.9 0 1 68.30 93.35
  L 66.69 79.77
  A 0.99 0.99 0.0 0 0 66.44 79.23
  Q 65.70 78.38 64.61 78.28"
/>
<path stroke="#74e1f4" vector-effect="non-scaling-stroke" d="
  M 64.61 78.28
  L 64.50 60.98"
/>
<path stroke="#6ccdef" vector-effect="non-scaling-stroke" d="
  M 42.74 93.39
  Q 47.58 96.93 56.78 100.98
  Q 64.01 104.16 67.66 111.89"
/>
<path stroke="#36b0eb" vector-effect="non-scaling-stroke" d="
  M 67.66 111.89
  Q 64.65 120.58 64.01 129.28
  C 63.73 133.14 64.46 136.30 65.28 140.20
  Q 65.78 142.58 63.75 143.80"
/>
<path stroke="#74c4ee" vector-effect="non-scaling-stroke" d="
  M 86.96 102.95
  L 74.13 102.99
  A 1.37 1.36 9.6 0 0 72.84 103.90
  L 71.46 107.81
  A 1.64 1.62 43.5 0 0 71.50 109.04
  L 86.24 142.51"
/>
<path stroke="#86ddf2" vector-effect="non-scaling-stroke" d="
  M 86.24 142.51
  Q 93.93 159.02 101.03 175.85
  Q 102.14 178.48 103.21 180.51
  Q 104.52 183.01 105.24 185.48
  A 1.41 0.94 -78.7 0 0 105.31 185.65
  L 114.58 204.38
  A 1.96 1.91 -85.6 0 0 115.17 205.09
  Q 116.83 206.29 117.13 207.63"
/>
<path stroke="#77d8f2" vector-effect="non-scaling-stroke" d="
  M 107.69 195.29
  C 101.26 182.54 95.38 169.50 89.18 156.63
  C 84.15 146.18 75.55 126.54 67.66 111.89"
/>
<path stroke="#bcf8f8" vector-effect="non-scaling-stroke" d="
  M 70.18 97.65
  Q 67.20 98.95 65.23 97.09"
/>
<path stroke="#5f95e8" vector-effect="non-scaling-stroke" d="
  M 227.39 76.53
  L 186.82 94.42"
/>
<path stroke="#478be3" vector-effect="non-scaling-stroke" d="
  M 186.82 94.42
  L 180.85 96.51
  A 1.32 1.31 -41.3 0 1 179.84 96.45
  C 175.57 94.29 173.93 92.25 171.42 87.35
  Q 169.96 84.49 168.08 81.99"
/>
<path stroke="#9dc9f3" vector-effect="non-scaling-stroke" d="
  M 168.08 81.99
  Q 166.07 77.46 167.91 75.42"
/>
<path stroke="#a9c2f0" vector-effect="non-scaling-stroke" d="
  M 168.08 81.99
  Q 169.37 89.38 172.70 93.28
  C 176.36 97.55 183.15 99.90 188.35 101.34
  A 0.57 0.57 0.0 0 1 188.41 102.42
  C 180.77 105.44 173.21 108.01 170.05 116.34
  Q 167.45 123.23 166.47 126.87
  A 0.62 0.62 0.0 0 1 165.27 126.82
  C 163.49 117.51 160.94 108.91 151.52 105.55"
/>
<path stroke="#a6d7f9" vector-effect="non-scaling-stroke" d="
  M 151.52 105.55
  L 142.07 101.95"
/>
<path stroke="#aaf0f8" vector-effect="non-scaling-stroke" d="
  M 153.37 97.93
  L 142.07 101.95"
/>
<path stroke="#51c8f2" vector-effect="non-scaling-stroke" d="
  M 142.07 101.95
  L 126.00 102.30"
/>
<path stroke="#48baec" vector-effect="non-scaling-stroke" d="
  M 126.00 102.30
  L 86.96 102.95"
/>
<path stroke="#81ebf3" vector-effect="non-scaling-stroke" d="
  M 86.96 102.95
  L 88.41 101.95
  A 0.27 0.27 0.0 0 0 88.30 101.46
  Q 81.35 100.25 74.30 100.85
  A 1.71 1.66 58.9 0 1 73.21 100.56
  Q 71.51 99.40 70.18 97.65"
/>
<path stroke="#90eef6" vector-effect="non-scaling-stroke" d="
  M 70.18 97.65
  Q 80.01 89.13 85.45 83.20
  Q 92.15 75.89 99.29 68.16"
/>
<path stroke="#4dabeb" vector-effect="non-scaling-stroke" d="
  M 90.04 138.22
  L 86.24 142.51"
/>
<path stroke="#58a4e8" vector-effect="non-scaling-stroke" d="
  M 118.52 206.45
  Q 128.93 185.57 139.06 164.56
  C 145.36 151.51 152.11 135.98 158.85 121.76"
/>
<path stroke="#4f9ae9" vector-effect="non-scaling-stroke" d="
  M 158.85 121.76
  Q 162.26 116.84 159.40 112.90
  Q 156.96 109.55 154.43 108.05
  Q 152.37 106.84 151.52 105.55"
/>
<path stroke="#6a8ee5" vector-effect="non-scaling-stroke" d="
  M 127.83 198.49
  Q 131.99 191.94 136.65 185.89
  Q 143.09 177.51 151.11 165.62
  Q 154.46 160.65 164.83 148.69
  C 168.31 144.67 171.15 140.24 174.24 135.83
  C 179.66 128.10 186.46 121.04 191.58 114.59
  C 192.62 113.27 193.43 111.68 194.44 110.42
  Q 202.14 100.79 210.38 89.81
  A 0.68 0.68 0.0 0 0 209.60 88.76
  Q 201.82 91.64 186.72 96.11
  Q 185.99 96.32 185.42 96.09
  A 0.49 0.49 0.0 0 1 185.37 95.20
  L 186.82 94.42"
/>
<path stroke="#55baf1" vector-effect="non-scaling-stroke" d="
  M 158.85 121.76
  Q 158.76 121.22 158.58 120.92
  A 0.68 0.68 0.0 0 0 157.40 120.94
  C 155.28 124.78 153.97 127.45 151.99 130.20
  Q 135.76 152.75 129.27 162.28
  Q 126.30 166.65 121.51 172.72
  A 1.12 1.11 42.8 0 1 119.81 172.78
  C 115.05 167.57 111.33 161.92 102.99 150.75
  Q 96.45 141.99 90.04 138.22"
/>
<path stroke="#44a1ec" vector-effect="non-scaling-stroke" d="
  M 90.04 138.22
  Q 93.48 134.97 97.13 131.18
  C 105.36 122.62 114.51 114.81 123.35 106.87
  Q 125.21 105.19 126.00 102.30"
/>
<path stroke="#52c2eb" vector-effect="non-scaling-stroke" d="
  M 185.87 57.38
  A 0.59 0.59 0.0 0 0 184.98 57.45
  L 182.02 61.46
  A 0.59 0.59 0.0 0 0 182.08 62.23
  L 185.55 65.70
  A 0.59 0.59 0.0 0 0 186.44 65.63
  L 189.40 61.62
  A 0.59 0.59 0.0 0 0 189.34 60.85
  L 185.87 57.38"
/>
<path stroke="#83e4f6" vector-effect="non-scaling-stroke" d="
  M 46.00 70.29
  A 0.62 0.62 0.0 0 0 46.00 69.55
  L 42.72 65.20
  A 0.62 0.62 0.0 0 0 41.73 65.21
  L 38.47 69.62
  A 0.62 0.62 0.0 0 0 38.48 70.36
  L 41.75 74.71
  A 0.62 0.62 0.0 0 0 42.74 74.70
  L 46.00 70.29"
/>
<path stroke="#7dd2f4" vector-effect="non-scaling-stroke" d="
  M 139.1527 140.9509
  A 0.27 0.27 0.0 0 0 139.1467 140.5692
  L 135.1827 136.7277
  A 0.27 0.27 0.0 0 0 134.8009 136.7337
  L 130.9873 140.6691
  A 0.27 0.27 0.0 0 0 130.9933 141.0508
  L 134.9573 144.8923
  A 0.27 0.27 0.0 0 0 135.3391 144.8863
  L 139.1527 140.9509"
/>
</g>
<path fill="#2a548a" d="
  M 88.97 0.00
  L 158.85 1.06
  A 5.60 5.52 58.2 0 1 161.21 1.63
  Q 184.38 13.24 195.33 18.69
  C 197.78 19.91 200.19 21.66 201.61 23.66
  Q 223.25 54.13 231.27 65.36
  A 3.24 3.10 -71.6 0 1 231.74 66.35
  Q 234.92 78.00 229.38 88.44
  A 2.58 2.12 84.5 0 1 229.13 88.81
  Q 179.15 147.85 125.70 211.13
  Q 124.15 212.96 119.25 214.00
  L 115.77 214.00
  Q 111.73 213.34 108.35 211.26
  A 0.47 0.43 80.9 0 1 108.21 211.15
  Q 55.94 148.36 3.61 85.63
  C 2.00 83.70 1.08 81.80 0.00 79.60
  L 0.00 73.13
  L 1.07 67.56
  A 2.46 2.37 -22.6 0 1 1.50 66.57
  L 35.11 21.05
  A 4.95 4.89 -86.0 0 1 36.69 19.66
  C 50.88 11.87 65.33 5.81 80.22 0.00
  L 88.97 0.00
  Z
  M 6.56 74.49
  Q 6.32 78.65 8.95 82.57
  Q 11.08 85.76 13.53 88.73
  Q 20.98 97.78 28.51 106.76
  Q 69.65 155.86 111.23 204.68
  Q 114.48 207.74 117.13 207.63
  Q 119.05 206.92 118.52 206.45
  Q 120.27 206.83 121.14 206.14
  Q 124.98 203.09 127.83 198.49
  Q 130.22 196.44 132.11 194.11
  Q 147.04 175.76 150.54 171.78
  Q 155.91 165.67 167.00 152.14
  C 170.56 147.80 175.10 143.04 178.95 138.46
  Q 202.82 110.12 222.96 85.20
  Q 226.50 80.82 227.39 76.53
  Q 227.70 75.33 227.29 73.64
  Q 226.60 70.41 225.74 69.02
  Q 218.12 56.79 209.41 45.31
  Q 207.20 42.39 202.48 35.42
  Q 199.25 30.65 195.18 25.79
  Q 179.48 16.79 162.13 9.02
  Q 156.58 6.54 150.00 6.45
  Q 115.49 5.97 98.00 6.31
  Q 93.64 6.39 85.49 6.21
  Q 79.30 6.07 71.18 9.72
  Q 52.78 17.99 43.88 22.64
  C 38.17 25.63 35.72 29.35 31.66 35.15
  Q 22.33 48.43 9.59 66.82
  Q 6.75 70.93 6.56 74.49
  Z"
/>
<path fill="#cafbfa" d="
  M 195.18 25.79
  Q 194.56 26.97 192.13 27.80
  A 4.29 3.99 15.1 0 0 191.03 28.38
  L 172.35 42.47
  A 5.20 5.17 19.2 0 1 170.41 43.40
  C 153.66 47.48 135.36 49.40 117.80 51.61
  L 105.27 49.72
  Q 106.35 48.55 106.48 46.70
  L 109.31 46.40
  C 120.82 47.53 133.53 44.24 144.33 42.91
  Q 152.74 41.88 157.77 41.05
  Q 166.96 39.54 169.94 38.40
  Q 172.32 37.49 176.61 33.95
  A 0.49 0.43 3.6 0 1 176.70 33.88
  L 184.16 29.27
  A 1.22 1.20 86.0 0 0 184.63 28.72
  Q 185.33 27.01 186.33 26.90
  A 1.45 1.26 55.1 0 0 186.60 24.35
  C 181.76 21.27 175.99 19.49 170.07 16.63
  Q 166.75 15.03 162.87 13.36
  Q 158.76 10.08 152.23 9.65
  Q 135.01 8.51 117.68 9.05
  Q 104.12 9.45 90.50 10.05
  C 77.69 10.60 64.07 16.08 52.86 22.55
  Q 50.23 24.08 49.71 25.47
  Q 48.92 27.61 51.01 29.26
  Q 54.07 31.65 63.39 36.44
  Q 60.82 39.64 58.95 40.44
  Q 52.23 35.14 45.38 30.56
  Q 42.31 28.50 39.81 31.03
  Q 35.50 35.38 32.07 40.60
  C 27.82 47.08 24.92 51.24 17.92 61.03
  Q 17.84 61.13 13.93 65.90
  Q 11.88 68.39 10.66 71.25
  L 6.56 74.49
  Q 6.75 70.93 9.59 66.82
  Q 22.33 48.43 31.66 35.15
  C 35.72 29.35 38.17 25.63 43.88 22.64
  Q 52.78 17.99 71.18 9.72
  Q 79.30 6.07 85.49 6.21
  Q 93.64 6.39 98.00 6.31
  Q 115.49 5.97 150.00 6.45
  Q 156.58 6.54 162.13 9.02
  Q 179.48 16.79 195.18 25.79
  Z"
/>
<path fill="#adf5f5" d="
  M 162.87 13.36
  Q 136.67 28.82 109.25 45.02
  Q 108.63 45.39 108.75 46.10
  Q 108.77 46.22 109.31 46.40
  L 106.48 46.70
  Q 96.41 46.21 87.00 42.95
  Q 82.33 41.33 78.98 38.79
  Q 76.25 36.72 74.99 33.55
  Q 94.45 22.47 114.62 13.63
  Q 115.96 13.05 118.46 10.25
  A 0.55 0.55 0.0 0 0 118.32 9.40
  L 117.68 9.05
  Q 135.01 8.51 152.23 9.65
  Q 158.76 10.08 162.87 13.36
  Z"
/>
<path fill="#68f1ef" d="
  M 117.68 9.05
  L 118.32 9.40
  A 0.55 0.55 0.0 0 1 118.46 10.25
  Q 115.96 13.05 114.62 13.63
  Q 94.45 22.47 74.99 33.55
  Q 71.91 27.27 70.20 20.58
  A 0.32 0.32 0.0 0 0 69.58 20.60
  Q 67.75 29.59 63.39 36.44
  Q 54.07 31.65 51.01 29.26
  Q 48.92 27.61 49.71 25.47
  Q 50.23 24.08 52.86 22.55
  C 64.07 16.08 77.69 10.60 90.50 10.05
  Q 104.12 9.45 117.68 9.05
  Z"
/>
<path fill="#68f1ef" d="
  M 162.87 13.36
  Q 166.75 15.03 170.07 16.63
  C 175.99 19.49 181.76 21.27 186.60 24.35
  A 1.45 1.26 55.1 0 1 186.33 26.90
  Q 185.33 27.01 184.63 28.72
  A 1.22 1.20 86.0 0 1 184.16 29.27
  L 176.70 33.88
  A 0.49 0.43 3.6 0 0 176.61 33.95
  Q 172.32 37.49 169.94 38.40
  Q 166.96 39.54 157.77 41.05
  Q 152.74 41.88 144.33 42.91
  C 133.53 44.24 120.82 47.53 109.31 46.40
  Q 108.77 46.22 108.75 46.10
  Q 108.63 45.39 109.25 45.02
  Q 136.67 28.82 162.87 13.36
  Z"
/>
<path fill="#ffffff" d="
  M 74.99 33.55
  Q 76.25 36.72 78.98 38.79
  Q 82.33 41.33 87.00 42.95
  Q 96.41 46.21 106.48 46.70
  Q 106.35 48.55 105.27 49.72
  L 95.18 48.33
  A 6.40 6.30 42.4 0 0 93.00 48.41
  Q 84.67 50.14 78.85 54.40
  Q 76.97 55.78 75.21 59.17
  Q 71.63 66.06 70.31 72.96
  A 0.46 0.46 0.0 0 1 69.41 72.97
  Q 67.96 66.26 64.50 60.98
  C 63.68 53.97 57.20 51.77 51.43 49.48
  L 46.58 47.72
  A 0.79 0.78 -47.4 0 1 46.52 46.27
  L 58.95 40.44
  Q 60.82 39.64 63.39 36.44
  Q 67.75 29.59 69.58 20.60
  A 0.32 0.32 0.0 0 1 70.20 20.58
  Q 71.91 27.27 74.99 33.55
  Z"
/>
<path fill="#41baee" d="
  M 227.29 73.64
  Q 224.08 72.04 221.41 69.95
  A 7.86 7.34 75.0 0 0 220.05 69.10
  C 214.20 66.23 208.08 63.53 202.60 60.38
  C 195.56 56.33 190.64 53.32 184.45 50.34
  Q 179.61 48.01 172.00 43.83
  A 0.85 0.82 -43.2 0 0 171.22 43.82
  L 169.92 44.46
  A 0.46 0.46 0.0 0 0 169.71 45.07
  L 169.95 45.54
  A 1.75 1.71 -56.7 0 1 170.12 46.41
  L 167.91 75.42
  Q 166.30 75.22 165.69 77.20
  Q 164.03 82.55 162.28 87.82
  Q 160.02 94.64 153.37 97.93
  Q 153.99 96.04 156.56 94.51
  Q 158.95 93.09 157.16 91.35
  Q 143.12 77.78 129.42 63.85
  Q 128.06 62.46 123.24 58.00
  Q 120.16 55.15 117.18 52.05
  Q 117.49 51.83 117.80 51.61
  C 135.36 49.40 153.66 47.48 170.41 43.40
  A 5.20 5.17 19.2 0 0 172.35 42.47
  L 191.03 28.38
  A 4.29 3.99 15.1 0 1 192.13 27.80
  Q 194.56 26.97 195.18 25.79
  Q 199.25 30.65 202.48 35.42
  Q 207.20 42.39 209.41 45.31
  Q 218.12 56.79 225.74 69.02
  Q 226.60 70.41 227.29 73.64
  Z"
/>
<path fill="#68f1ef" d="
  M 58.95 40.44
  L 46.52 46.27
  A 0.79 0.78 -47.4 0 0 46.58 47.72
  L 51.43 49.48
  L 10.66 71.25
  Q 11.88 68.39 13.93 65.90
  Q 17.84 61.13 17.92 61.03
  C 24.92 51.24 27.82 47.08 32.07 40.60
  Q 35.50 35.38 39.81 31.03
  Q 42.31 28.50 45.38 30.56
  Q 52.23 35.14 58.95 40.44
  Z"
/>
<path fill="#3b92e6" d="
  M 227.29 73.64
  Q 227.70 75.33 227.39 76.53
  L 186.82 94.42
  L 180.85 96.51
  A 1.32 1.31 -41.3 0 1 179.84 96.45
  C 175.57 94.29 173.93 92.25 171.42 87.35
  Q 169.96 84.49 168.08 81.99
  Q 166.07 77.46 167.91 75.42
  L 170.12 46.41
  A 1.75 1.71 -56.7 0 0 169.95 45.54
  L 169.71 45.07
  A 0.46 0.46 0.0 0 1 169.92 44.46
  L 171.22 43.82
  A 0.85 0.82 -43.2 0 1 172.00 43.83
  Q 179.61 48.01 184.45 50.34
  C 190.64 53.32 195.56 56.33 202.60 60.38
  C 208.08 63.53 214.20 66.23 220.05 69.10
  A 7.86 7.34 75.0 0 1 221.41 69.95
  Q 224.08 72.04 227.29 73.64
  Z
  M 185.87 57.38
  A 0.59 0.59 0.0 0 0 184.98 57.45
  L 182.02 61.46
  A 0.59 0.59 0.0 0 0 182.08 62.23
  L 185.55 65.70
  A 0.59 0.59 0.0 0 0 186.44 65.63
  L 189.40 61.62
  A 0.59 0.59 0.0 0 0 189.34 60.85
  L 185.87 57.38
  Z"
/>
<path fill="#adf5f5" d="
  M 105.27 49.72
  L 117.80 51.61
  Q 117.49 51.83 117.18 52.05
  Q 113.98 53.50 112.26 55.51
  Q 106.11 62.68 99.29 68.16
  Q 86.45 77.41 82.96 80.71
  Q 76.47 86.85 69.88 93.86
  A 0.92 0.91 -26.9 0 1 68.30 93.35
  L 66.69 79.77
  A 0.99 0.99 0.0 0 0 66.44 79.23
  Q 65.70 78.38 64.61 78.28
  L 64.50 60.98
  Q 67.96 66.26 69.41 72.97
  A 0.46 0.46 0.0 0 0 70.31 72.96
  Q 71.63 66.06 75.21 59.17
  Q 76.97 55.78 78.85 54.40
  Q 84.67 50.14 93.00 48.41
  A 6.40 6.30 42.4 0 1 95.18 48.33
  L 105.27 49.72
  Z"
/>
<path fill="#3bccf2" d="
  M 64.50 60.98
  L 64.61 78.28
  L 65.23 97.09
  C 64.23 98.45 61.14 97.96 59.64 97.53
  Q 51.49 95.21 42.74 93.39
  Q 29.43 86.84 20.13 81.64
  Q 17.80 80.33 15.78 80.09
  A 0.40 0.39 83.7 0 0 15.37 80.61
  Q 15.37 80.62 16.22 81.29
  Q 16.30 81.36 17.18 82.48
  C 22.93 89.86 26.78 96.65 32.81 103.77
  Q 34.15 105.34 42.37 116.34
  Q 45.05 119.92 52.10 128.74
  Q 58.04 136.17 63.75 143.80
  Q 68.87 150.07 74.09 156.26
  Q 79.23 162.37 84.32 168.86
  C 89.37 175.30 94.49 180.18 98.90 186.52
  Q 101.96 190.92 107.64 197.90
  A 0.40 0.40 0.0 0 0 108.34 197.53
  L 107.69 195.29
  Q 110.77 199.65 111.23 204.68
  Q 69.65 155.86 28.51 106.76
  Q 20.98 97.78 13.53 88.73
  Q 11.08 85.76 8.95 82.57
  Q 6.32 78.65 6.56 74.49
  L 10.66 71.25
  L 51.43 49.48
  C 57.20 51.77 63.68 53.97 64.50 60.98
  Z
  M 46.00 70.29
  A 0.62 0.62 0.0 0 0 46.00 69.55
  L 42.72 65.20
  A 0.62 0.62 0.0 0 0 41.73 65.21
  L 38.47 69.62
  A 0.62 0.62 0.0 0 0 38.48 70.36
  L 41.75 74.71
  A 0.62 0.62 0.0 0 0 42.74 74.70
  L 46.00 70.29
  Z"
/>
<path fill="#55e1f1" d="
  M 117.18 52.05
  Q 120.16 55.15 123.24 58.00
  Q 128.06 62.46 129.42 63.85
  Q 143.12 77.78 157.16 91.35
  Q 158.95 93.09 156.56 94.51
  Q 153.99 96.04 153.37 97.93
  L 142.07 101.95
  L 126.00 102.30
  L 86.96 102.95
  L 88.41 101.95
  A 0.27 0.27 0.0 0 0 88.30 101.46
  Q 81.35 100.25 74.30 100.85
  A 1.71 1.66 58.9 0 1 73.21 100.56
  Q 71.51 99.40 70.18 97.65
  Q 80.01 89.13 85.45 83.20
  Q 92.15 75.89 99.29 68.16
  Q 106.11 62.68 112.26 55.51
  Q 113.98 53.50 117.18 52.05
  Z"
/>
<path fill="#68f1ef" d="
  M 185.87 57.38
  L 189.34 60.85
  A 0.59 0.59 0.0 0 1 189.40 61.62
  L 186.44 65.63
  A 0.59 0.59 0.0 0 1 185.55 65.70
  L 182.08 62.23
  A 0.59 0.59 0.0 0 1 182.02 61.46
  L 184.98 57.45
  A 0.59 0.59 0.0 0 1 185.87 57.38
  Z"
/>
<path fill="#cafbfa" d="
  M 46.00 70.29
  L 42.74 74.70
  A 0.62 0.62 0.0 0 1 41.75 74.71
  L 38.48 70.36
  A 0.62 0.62 0.0 0 1 38.47 69.62
  L 41.73 65.21
  A 0.62 0.62 0.0 0 1 42.72 65.20
  L 46.00 69.55
  A 0.62 0.62 0.0 0 1 46.00 70.29
  Z"
/>
<path fill="#cafbfa" d="
  M 99.29 68.16
  Q 92.15 75.89 85.45 83.20
  Q 80.01 89.13 70.18 97.65
  Q 67.20 98.95 65.23 97.09
  L 64.61 78.28
  Q 65.70 78.38 66.44 79.23
  A 0.99 0.99 0.0 0 1 66.69 79.77
  L 68.30 93.35
  A 0.92 0.91 -26.9 0 0 69.88 93.86
  Q 76.47 86.85 82.96 80.71
  Q 86.45 77.41 99.29 68.16
  Z"
/>
<path fill="#ffffff" d="
  M 167.91 75.42
  Q 166.07 77.46 168.08 81.99
  Q 169.37 89.38 172.70 93.28
  C 176.36 97.55 183.15 99.90 188.35 101.34
  A 0.57 0.57 0.0 0 1 188.41 102.42
  C 180.77 105.44 173.21 108.01 170.05 116.34
  Q 167.45 123.23 166.47 126.87
  A 0.62 0.62 0.0 0 1 165.27 126.82
  C 163.49 117.51 160.94 108.91 151.52 105.55
  L 142.07 101.95
  L 153.37 97.93
  Q 160.02 94.64 162.28 87.82
  Q 164.03 82.55 165.69 77.20
  Q 166.30 75.22 167.91 75.42
  Z"
/>
<path fill="#8297ea" d="
  M 227.39 76.53
  Q 226.50 80.82 222.96 85.20
  Q 202.82 110.12 178.95 138.46
  C 175.10 143.04 170.56 147.80 167.00 152.14
  Q 155.91 165.67 150.54 171.78
  Q 147.04 175.76 132.11 194.11
  Q 130.22 196.44 127.83 198.49
  Q 131.99 191.94 136.65 185.89
  Q 143.09 177.51 151.11 165.62
  Q 154.46 160.65 164.83 148.69
  C 168.31 144.67 171.15 140.24 174.24 135.83
  C 179.66 128.10 186.46 121.04 191.58 114.59
  C 192.62 113.27 193.43 111.68 194.44 110.42
  Q 202.14 100.79 210.38 89.81
  A 0.68 0.68 0.0 0 0 209.60 88.76
  Q 201.82 91.64 186.72 96.11
  Q 185.99 96.32 185.42 96.09
  A 0.49 0.49 0.0 0 1 185.37 95.20
  L 186.82 94.42
  L 227.39 76.53
  Z"
/>
<path fill="#2ba5e8" d="
  M 42.74 93.39
  Q 47.58 96.93 56.78 100.98
  Q 64.01 104.16 67.66 111.89
  Q 64.65 120.58 64.01 129.28
  C 63.73 133.14 64.46 136.30 65.28 140.20
  Q 65.78 142.58 63.75 143.80
  Q 58.04 136.17 52.10 128.74
  Q 45.05 119.92 42.37 116.34
  Q 34.15 105.34 32.81 103.77
  C 26.78 96.65 22.93 89.86 17.18 82.48
  Q 16.30 81.36 16.22 81.29
  Q 15.37 80.62 15.37 80.61
  A 0.40 0.39 83.7 0 1 15.78 80.09
  Q 17.80 80.33 20.13 81.64
  Q 29.43 86.84 42.74 93.39
  Z"
/>
<path fill="#5284e0" d="
  M 186.82 94.42
  L 185.37 95.20
  A 0.49 0.49 0.0 0 0 185.42 96.09
  Q 185.99 96.32 186.72 96.11
  Q 201.82 91.64 209.60 88.76
  A 0.68 0.68 0.0 0 1 210.38 89.81
  Q 202.14 100.79 194.44 110.42
  C 193.43 111.68 192.62 113.27 191.58 114.59
  C 186.46 121.04 179.66 128.10 174.24 135.83
  C 171.15 140.24 168.31 144.67 164.83 148.69
  Q 154.46 160.65 151.11 165.62
  Q 143.09 177.51 136.65 185.89
  Q 131.99 191.94 127.83 198.49
  Q 124.98 203.09 121.14 206.14
  Q 120.27 206.83 118.52 206.45
  Q 128.93 185.57 139.06 164.56
  C 145.36 151.51 152.11 135.98 158.85 121.76
  Q 162.26 116.84 159.40 112.90
  Q 156.96 109.55 154.43 108.05
  Q 152.37 106.84 151.52 105.55
  C 160.94 108.91 163.49 117.51 165.27 126.82
  A 0.62 0.62 0.0 0 0 166.47 126.87
  Q 167.45 123.23 170.05 116.34
  C 173.21 108.01 180.77 105.44 188.41 102.42
  A 0.57 0.57 0.0 0 0 188.35 101.34
  C 183.15 99.90 176.36 97.55 172.70 93.28
  Q 169.37 89.38 168.08 81.99
  Q 169.96 84.49 171.42 87.35
  C 173.93 92.25 175.57 94.29 179.84 96.45
  A 1.32 1.31 -41.3 0 0 180.85 96.51
  L 186.82 94.42
  Z"
/>
<path fill="#adf5f5" d="
  M 65.23 97.09
  Q 67.20 98.95 70.18 97.65
  Q 71.51 99.40 73.21 100.56
  A 1.71 1.66 58.9 0 0 74.30 100.85
  Q 81.35 100.25 88.30 101.46
  A 0.27 0.27 0.0 0 1 88.41 101.95
  L 86.96 102.95
  L 74.13 102.99
  A 1.37 1.36 9.6 0 0 72.84 103.90
  L 71.46 107.81
  A 1.64 1.62 43.5 0 0 71.50 109.04
  L 86.24 142.51
  Q 93.93 159.02 101.03 175.85
  Q 102.14 178.48 103.21 180.51
  Q 104.52 183.01 105.24 185.48
  A 1.41 0.94 -78.7 0 0 105.31 185.65
  L 114.58 204.38
  A 1.96 1.91 -85.6 0 0 115.17 205.09
  Q 116.83 206.29 117.13 207.63
  Q 114.48 207.74 111.23 204.68
  Q 110.77 199.65 107.69 195.29
  C 101.26 182.54 95.38 169.50 89.18 156.63
  C 84.15 146.18 75.55 126.54 67.66 111.89
  Q 64.01 104.16 56.78 100.98
  Q 47.58 96.93 42.74 93.39
  Q 51.49 95.21 59.64 97.53
  C 61.14 97.96 64.23 98.45 65.23 97.09
  Z"
/>
<path fill="#4caff2" d="
  M 142.07 101.95
  L 151.52 105.55
  Q 152.37 106.84 154.43 108.05
  Q 156.96 109.55 159.40 112.90
  Q 162.26 116.84 158.85 121.76
  Q 158.76 121.22 158.58 120.92
  A 0.68 0.68 0.0 0 0 157.40 120.94
  C 155.28 124.78 153.97 127.45 151.99 130.20
  Q 135.76 152.75 129.27 162.28
  Q 126.30 166.65 121.51 172.72
  A 1.12 1.11 42.8 0 1 119.81 172.78
  C 115.05 167.57 111.33 161.92 102.99 150.75
  Q 96.45 141.99 90.04 138.22
  Q 93.48 134.97 97.13 131.18
  C 105.36 122.62 114.51 114.81 123.35 106.87
  Q 125.21 105.19 126.00 102.30
  L 142.07 101.95
  Z
  M 139.1527 140.9509
  A 0.27 0.27 0.0 0 0 139.1467 140.5692
  L 135.1827 136.7277
  A 0.27 0.27 0.0 0 0 134.8009 136.7337
  L 130.9873 140.6691
  A 0.27 0.27 0.0 0 0 130.9933 141.0508
  L 134.9573 144.8923
  A 0.27 0.27 0.0 0 0 135.3391 144.8863
  L 139.1527 140.9509
  Z"
/>
<path fill="#3b92e6" d="
  M 126.00 102.30
  Q 125.21 105.19 123.35 106.87
  C 114.51 114.81 105.36 122.62 97.13 131.18
  Q 93.48 134.97 90.04 138.22
  L 86.24 142.51
  L 71.50 109.04
  A 1.64 1.62 43.5 0 1 71.46 107.81
  L 72.84 103.90
  A 1.37 1.36 9.6 0 1 74.13 102.99
  L 86.96 102.95
  L 126.00 102.30
  Z"
/>
<path fill="#41baee" d="
  M 107.69 195.29
  L 108.34 197.53
  A 0.40 0.40 0.0 0 1 107.64 197.90
  Q 101.96 190.92 98.90 186.52
  C 94.49 180.18 89.37 175.30 84.32 168.86
  Q 79.23 162.37 74.09 156.26
  Q 68.87 150.07 63.75 143.80
  Q 65.78 142.58 65.28 140.20
  C 64.46 136.30 63.73 133.14 64.01 129.28
  Q 64.65 120.58 67.66 111.89
  C 75.55 126.54 84.15 146.18 89.18 156.63
  C 95.38 169.50 101.26 182.54 107.69 195.29
  Z"
/>
<path fill="#5ec4ef" d="
  M 158.85 121.76
  C 152.11 135.98 145.36 151.51 139.06 164.56
  Q 128.93 185.57 118.52 206.45
  Q 119.05 206.92 117.13 207.63
  Q 116.83 206.29 115.17 205.09
  A 1.96 1.91 -85.6 0 1 114.58 204.38
  L 105.31 185.65
  A 1.41 0.94 -78.7 0 1 105.24 185.48
  Q 104.52 183.01 103.21 180.51
  Q 102.14 178.48 101.03 175.85
  Q 93.93 159.02 86.24 142.51
  L 90.04 138.22
  Q 96.45 141.99 102.99 150.75
  C 111.33 161.92 115.05 167.57 119.81 172.78
  A 1.12 1.11 42.8 0 0 121.51 172.72
  Q 126.30 166.65 129.27 162.28
  Q 135.76 152.75 151.99 130.20
  C 153.97 127.45 155.28 124.78 157.40 120.94
  A 0.68 0.68 0.0 0 1 158.58 120.92
  Q 158.76 121.22 158.85 121.76
  Z"
/>
<rect fill="#adf5f5" x="-3.03" y="-3.01" transform="translate(135.07,140.81) rotate(44.1)" width="6.06" height="6.02" rx="0.27"/>
</svg>
