<?xml version="1.0" encoding="UTF-8" standalone="no"?>
<!DOCTYPE svg PUBLIC "-//W3C//DTD SVG 1.1//EN" "http://www.w3.org/Graphics/SVG/1.1/DTD/svg11.dtd">
<svg xmlns="http://www.w3.org/2000/svg" version="1.1" viewBox="0.00 0.00 280.00 494.00">
<g stroke-width="2.00" fill="none" stroke-linecap="butt">
<path stroke="#987051" vector-effect="non-scaling-stroke" d="
  M 83.50 139.62
  Q 82.64 141.30 84.80 142.22
  Q 85.30 142.43 85.27 141.84"
/>
<path stroke="#7a5537" vector-effect="non-scaling-stroke" d="
  M 46.48 176.91
  Q 48.70 175.73 47.05 174.35"
/>
<path stroke="#987944" vector-effect="non-scaling-stroke" d="
  M 101.52 37.09
  A 2.86 2.71 77.4 0 0 99.68 40.17
  C 100.71 47.53 105.37 52.47 111.52 56.38
  A 3.63 3.61 15.4 0 1 113.20 59.32
  C 113.77 75.38 130.66 80.92 143.94 80.32
  C 158.37 79.66 170.84 74.19 171.99 57.86
  A 2.38 2.35 -13.1 0 1 173.18 55.98
  C 179.40 52.43 185.66 45.54 184.89 37.80
  A 1.56 1.55 -10.0 0 0 182.95 36.44
  Q 176.62 38.10 171.86 41.55
  A 1.97 1.97 0.0 0 1 169.12 41.12
  C 167.34 38.73 167.44 34.69 166.83 31.23
  C 165.08 21.34 157.64 10.67 147.02 9.44
  C 138.44 8.45 131.14 9.77 124.87 15.53
  Q 121.37 18.76 119.07 25.42
  Q 116.69 32.35 116.36 40.39
  A 1.63 1.62 88.4 0 1 114.90 41.94
  Q 113.95 42.04 113.13 41.62
  Q 108.63 39.31 104.09 37.43
  Q 102.51 36.77 101.52 37.09"
/>
<path stroke="#987944" vector-effect="non-scaling-stroke" d="
  M 153.3289 22.7086
  A 3.40 3.16 -164.8 0 0 155.7815 26.6495
  A 3.40 3.16 -164.8 0 0 159.8911 24.4914
  A 3.40 3.16 -164.8 0 0 157.4385 20.5505
  A 3.40 3.16 -164.8 0 0 153.3289 22.7086"
/>
<path stroke="#987944" vector-effect="non-scaling-stroke" d="
  M 131.75 23.91
  A 3.36 3.36 0.0 0 0 128.39 20.55
  A 3.36 3.36 0.0 0 0 125.03 23.91
  A 3.36 3.36 0.0 0 0 128.39 27.27
  A 3.36 3.36 0.0 0 0 131.75 23.91"
/>
<path stroke="#a6824c" vector-effect="non-scaling-stroke" d="
  M 152.78 33.13
  C 153.16 27.39 146.95 25.15 141.97 25.06
  Q 136.50 24.96 133.57 29.70
  C 131.33 33.33 136.62 36.74 139.66 37.07
  C 143.57 37.51 149.44 37.28 152.38 34.07
  A 1.52 1.50 -22.3 0 0 152.78 33.13"
/>
<path stroke="#a6824c" vector-effect="non-scaling-stroke" d="
  M 148.49 31.82
  Q 146.87 29.71 144.16 29.39
  A 1.74 1.71 -60.5 0 0 142.90 29.75
  L 141.86 30.58
  A 0.82 0.82 0.0 0 1 140.78 30.53
  Q 139.73 29.52 138.27 29.88
  A 1.26 1.12 61.2 0 0 137.82 31.86
  Q 138.47 32.61 139.33 32.63
  Q 144.44 32.72 148.24 32.40
  A 0.36 0.36 0.0 0 0 148.49 31.82"
/>
<path stroke="#7a5537" vector-effect="non-scaling-stroke" d="
  M 56.67 171.69
  L 58.59 174.61"
/>
<path stroke="#8f6442" vector-effect="non-scaling-stroke" d="
  M 58.59 174.61
  L 54.20 183.45"
/>
<path stroke="#987051" vector-effect="non-scaling-stroke" d="
  M 54.20 183.45
  Q 43.95 203.38 36.82 224.61
  Q 34.44 231.69 33.01 237.89
  C 28.04 259.48 30.23 280.28 41.54 299.73"
/>
<path stroke="#8f6442" vector-effect="non-scaling-stroke" d="
  M 41.54 299.73
  Q 45.38 305.66 48.96 311.33
  A 2.06 2.01 -17.2 0 1 47.28 314.42
  Q 46.63 314.46 45.75 313.71
  C 40.81 309.51 36.79 306.10 33.43 300.35
  Q 31.86 297.67 30.25 294.94
  C 28.15 291.36 26.74 287.59 25.59 283.64
  A 0.63 0.63 0.0 0 0 24.39 283.62
  L 21.98 291.01"
/>
<path stroke="#987051" vector-effect="non-scaling-stroke" d="
  M 21.98 291.01
  C 20.45 296.29 17.87 301.60 16.70 306.48
  Q 14.04 317.61 13.41 321.21
  C 9.73 342.12 10.14 366.47 18.27 386.05
  Q 24.05 399.96 33.42 412.16
  C 42.39 423.84 56.53 434.45 69.86 440.69
  Q 80.78 445.80 86.41 447.52
  Q 126.80 459.82 169.24 453.18
  Q 180.59 451.40 190.32 448.85
  Q 193.49 448.02 198.78 445.81"
/>
<path stroke="#8f6442" vector-effect="non-scaling-stroke" d="
  M 198.78 445.81
  Q 202.43 445.40 205.02 443.52"
/>
<path stroke="#987051" vector-effect="non-scaling-stroke" d="
  M 205.02 443.52
  Q 226.43 434.76 240.85 420.11
  Q 260.55 400.10 266.89 370.94
  Q 271.99 347.54 267.84 325.54
  C 266.77 319.87 266.06 313.70 264.23 307.63
  Q 261.06 297.16 256.71 285.98
  A 0.36 0.36 0.0 0 0 256.04 286.00
  Q 251.52 300.22 241.58 311.07
  Q 239.72 313.10 234.12 317.10"
/>
<path stroke="#8f6442" vector-effect="non-scaling-stroke" d="
  M 234.12 317.10
  Q 232.18 316.00 232.13 314.25
  A 1.28 1.28 0.0 0 1 232.33 313.53
  L 234.54 309.99"
/>
<path stroke="#987051" vector-effect="non-scaling-stroke" d="
  M 234.54 309.99
  C 242.41 298.59 248.64 287.34 250.56 275.38
  Q 254.17 252.88 247.36 228.88
  Q 244.34 218.24 239.32 206.19
  Q 233.18 191.43 225.75 177.26"
/>
<path stroke="#8f6442" vector-effect="non-scaling-stroke" d="
  M 225.75 177.26
  L 224.17 173.48"
/>
<path stroke="#7a5537" vector-effect="non-scaling-stroke" d="
  M 224.17 173.48
  L 231.80 166.17
  A 4.08 3.49 -9.6 0 0 232.40 165.45
  Q 237.96 156.80 237.08 145.99
  Q 236.52 139.00 231.45 133.81
  C 228.32 130.61 223.21 130.35 219.16 131.35
  C 214.96 132.38 212.57 135.22 208.70 139.21
  Q 202.64 145.46 201.00 153.25"
/>
<path stroke="#987051" vector-effect="non-scaling-stroke" d="
  M 201.00 153.25
  Q 190.83 147.74 181.49 144.77
  Q 180.87 144.57 173.17 142.33
  C 166.73 140.45 162.87 140.31 153.70 139.21
  Q 146.63 138.37 142.64 138.50
  Q 127.64 138.99 117.51 140.86
  Q 104.32 143.29 89.32 149.38
  Q 86.00 150.72 81.87 153.06
  A 1.12 1.12 0.0 0 1 80.25 152.41
  Q 78.80 147.58 74.61 141.23
  Q 71.76 136.93 69.33 135.16
  C 61.86 129.70 53.24 128.36 48.27 138.00
  Q 45.71 142.95 45.59 144.33
  C 44.93 151.54 45.97 158.97 50.06 164.77
  Q 52.79 168.62 56.67 171.69"
/>
<path stroke="#c09772" vector-effect="non-scaling-stroke" d="
  M 201.00 153.25
  L 208.41 159.05
  A 0.65 0.50 -7.5 0 0 208.60 159.16
  L 210.62 159.87"
/>
<path stroke="#987051" vector-effect="non-scaling-stroke" d="
  M 210.62 159.87
  Q 210.55 160.03 210.71 160.11"
/>
<path stroke="#d5a67d" vector-effect="non-scaling-stroke" d="
  M 210.71 160.11
  L 211.11 161.65
  A 0.62 0.62 0.0 0 1 210.07 162.25
  Q 206.87 159.07 203.21 156.87
  Q 188.59 148.05 170.72 144.13
  Q 158.38 141.42 148.86 140.75
  C 136.90 139.91 125.25 141.85 112.46 144.68
  Q 102.18 146.96 99.53 148.06
  Q 85.00 154.14 84.07 154.56
  Q 82.55 155.25 80.83 155.57
  A 0.66 0.66 0.0 0 1 80.11 155.19
  L 79.20 153.23"
/>
<path stroke="#c09772" vector-effect="non-scaling-stroke" d="
  M 79.20 153.23
  C 76.66 145.49 71.74 137.44 64.38 133.84
  C 60.76 132.07 56.73 131.98 53.40 134.59
  Q 48.55 138.39 47.65 143.35
  Q 46.21 151.29 47.29 156.02
  Q 48.77 162.48 52.73 166.79
  Q 55.57 169.88 56.67 171.69"
/>
<path stroke="#b78b63" vector-effect="non-scaling-stroke" d="
  M 79.20 153.23
  Q 76.42 157.71 70.20 159.70"
/>
<path stroke="#7a5537" vector-effect="non-scaling-stroke" d="
  M 70.20 159.70
  Q 69.70 156.35 69.07 152.79
  Q 67.64 144.79 62.29 139.97
  Q 57.96 136.06 53.53 139.54
  A 0.94 0.93 44.0 0 0 53.56 141.03
  Q 58.07 144.30 60.41 148.91
  Q 63.83 155.65 66.97 162.50
  Q 67.21 163.01 68.17 162.96"
/>
<path stroke="#b78b63" vector-effect="non-scaling-stroke" d="
  M 68.17 162.96
  L 67.30 163.59
  A 2.93 2.88 0.5 0 0 66.72 164.15
  L 58.59 174.61"
/>
<path stroke="#8f6442" vector-effect="non-scaling-stroke" d="
  M 214.28 162.16
  Q 212.52 162.75 210.71 160.11"
/>
<path stroke="#d5a67d" vector-effect="non-scaling-stroke" d="
  M 225.75 177.26
  Q 225.21 177.05 224.84 177.11
  A 0.56 0.56 0.0 0 0 224.42 177.88
  Q 225.99 181.67 228.03 185.52
  Q 231.54 192.15 231.90 192.98
  Q 236.33 203.38 238.06 207.25
  C 240.29 212.22 242.06 220.08 243.51 224.72
  Q 244.45 227.74 245.28 229.07
  A 1.85 1.82 -61.1 0 1 245.55 230.03
  Q 245.56 230.51 247.65 238.74
  Q 250.50 249.90 250.23 262.19
  Q 250.15 265.68 249.63 268.66
  C 248.99 272.28 249.05 275.99 248.05 279.57
  Q 247.79 280.47 246.67 284.28
  A 6.25 6.03 68.7 0 1 246.16 285.50
  Q 244.69 288.19 244.07 291.26
  A 2.07 2.02 -24.3 0 1 243.82 291.90
  L 240.70 296.90
  A 0.01 0.01 0.0 0 1 240.69 296.91
  L 233.54 308.77
  A 0.77 0.77 0.0 0 0 234.04 309.92
  Q 234.25 309.96 234.54 309.99"
/>
<path stroke="#d5a67d" vector-effect="non-scaling-stroke" d="
  M 234.12 317.10
  Q 233.46 317.94 234.11 318.42
  Q 234.67 318.83 235.14 318.48
  Q 249.65 307.51 255.87 292.79
  A 0.87 0.87 0.0 0 1 257.51 292.89
  Q 260.72 304.23 261.89 307.78
  Q 263.58 312.92 264.63 317.91
  Q 266.39 326.27 266.67 328.24
  Q 269.25 346.33 266.54 363.94
  C 265.88 368.26 264.14 373.87 263.05 377.72
  C 259.63 389.94 254.39 400.48 246.57 411.10
  Q 240.76 419.00 231.85 425.96
  Q 224.15 431.97 214.44 437.67
  C 211.07 439.65 207.57 440.68 204.51 442.60
  A 0.48 0.47 33.0 0 0 204.70 443.47
  L 205.02 443.52"
/>
<path stroke="#d5a67d" vector-effect="non-scaling-stroke" d="
  M 198.78 445.81
  Q 198.04 443.34 200.37 440.85
  Q 202.55 438.52 208.63 429.31
  A 5.76 5.17 86.9 0 1 209.28 428.50
  Q 226.14 411.01 228.58 407.85
  Q 240.39 392.58 245.27 372.48
  Q 246.27 368.39 243.42 366.70
  Q 241.16 365.37 237.34 365.36
  A 1.13 1.09 -72.6 0 0 236.39 365.88
  Q 234.02 369.63 233.98 370.79
  Q 233.91 373.21 232.66 377.18
  Q 230.18 385.04 226.41 390.94
  Q 223.75 395.12 216.80 404.27
  Q 215.46 406.04 213.10 408.15
  Q 210.88 410.11 209.32 411.99"
/>
<path stroke="#b78b63" vector-effect="non-scaling-stroke" d="
  M 209.32 411.99
  Q 207.10 406.06 201.83 402.40
  Q 199.85 401.03 192.49 397.10
  C 188.30 394.86 184.67 394.66 180.61 394.79
  A 2.62 2.61 -83.6 0 0 178.16 396.76
  Q 176.61 402.82 171.05 409.75
  A 0.34 0.33 -16.7 0 1 170.47 409.44
  L 170.88 408.19"
/>
<path stroke="#8f6442" vector-effect="non-scaling-stroke" d="
  M 170.88 408.19
  Q 176.37 399.15 180.34 388.97"
/>
<path stroke="#d5a67d" vector-effect="non-scaling-stroke" d="
  M 180.34 388.97
  Q 187.20 379.06 188.29 365.76
  Q 188.56 362.44 187.12 358.95
  A 3.01 2.62 -19.4 0 0 183.56 357.54
  C 181.63 358.15 179.69 359.69 178.86 361.59
  Q 174.36 371.76 173.00 376.75
  Q 169.78 388.50 167.26 393.70
  C 164.38 399.63 159.54 407.37 157.13 412.17
  Q 153.01 420.37 158.19 427.61
  C 159.91 430.01 162.73 431.45 164.65 433.64
  C 167.82 437.28 171.41 442.23 175.10 442.68
  Q 179.84 443.26 184.09 446.43
  A 0.79 0.79 0.0 0 1 183.80 447.84
  Q 168.25 451.47 153.10 451.93
  C 141.52 452.28 128.51 452.25 116.90 451.17
  Q 108.22 450.37 100.94 448.21
  A 0.86 0.86 0.0 0 1 100.96 446.56
  Q 106.98 444.92 112.54 442.04
  Q 115.85 440.33 117.66 437.64
  Q 120.46 433.48 121.15 432.88
  A 4.61 4.46 13.3 0 1 122.63 432.00
  C 129.78 429.37 134.94 419.87 129.52 413.03
  A 1.92 1.88 -73.4 0 1 129.23 412.48
  C 127.77 407.93 124.50 403.64 121.82 400.06
  A 16.24 15.81 16.0 0 1 119.91 396.72
  Q 112.75 379.69 111.89 376.44
  C 109.78 368.48 109.27 360.70 102.06 356.65
  A 1.58 1.58 0.0 0 0 100.09 357.00
  Q 95.95 361.83 96.86 368.34
  Q 97.75 374.69 99.43 378.83
  Q 102.33 386.02 105.09 392.73"
/>
<path stroke="#b78b63" vector-effect="non-scaling-stroke" d="
  M 105.09 392.73
  Q 101.53 394.28 97.92 395.24
  Q 92.71 396.62 91.03 397.61
  Q 82.98 402.34 77.57 410.49
  A 1.82 1.79 -28.4 0 0 77.26 411.50
  Q 77.28 413.66 78.54 414.72
  Q 81.98 417.64 84.16 420.88
  Q 88.00 426.60 91.97 432.22
  Q 92.35 432.76 92.10 432.95
  Q 91.87 433.13 91.25 433.06"
/>
<path stroke="#8f6442" vector-effect="non-scaling-stroke" d="
  M 91.25 433.06
  C 87.64 429.39 85.02 424.83 80.43 417.83
  Q 79.26 416.04 76.18 414.03
  A 4.13 4.09 85.6 0 1 75.29 413.26
  C 70.87 408.21 66.18 404.29 62.76 399.11
  Q 57.03 390.42 53.55 382.22
  Q 52.39 379.46 50.04 371.77
  C 49.07 368.61 47.16 366.18 43.82 368.49"
/>
<path stroke="#d5a67d" vector-effect="non-scaling-stroke" d="
  M 43.82 368.49
  Q 44.00 367.80 43.80 367.40
  A 0.53 0.53 0.0 0 0 43.04 367.19
  Q 39.46 369.45 40.30 373.71
  Q 40.60 375.24 43.91 384.96
  Q 45.69 390.20 49.05 395.57
  Q 54.71 404.62 58.20 409.03
  Q 60.57 412.03 74.22 426.36
  A 2.15 2.12 -76.6 0 1 74.68 427.12
  Q 75.04 428.12 75.56 428.66
  Q 78.41 431.69 79.85 435.73
  C 80.31 437.03 81.25 438.96 81.13 440.44
  A 1.62 1.61 -86.3 0 1 79.45 441.92
  Q 77.40 441.83 75.32 441.16
  Q 69.67 439.36 64.01 435.91
  C 59.43 433.13 55.80 430.71 52.25 427.61
  Q 49.11 424.88 48.14 424.52
  A 1.67 1.65 -6.2 0 1 47.32 423.87
  Q 46.43 422.47 44.17 421.33
  A 3.17 2.94 80.8 0 1 43.27 420.63
  C 40.36 417.32 36.21 414.27 33.58 410.46
  Q 26.68 400.48 24.94 396.60
  Q 20.88 387.54 19.26 382.20
  Q 18.98 381.29 18.91 381.11
  Q 17.27 377.12 16.93 373.28
  A 4.18 4.10 34.1 0 0 16.74 372.34
  Q 13.71 363.38 13.42 354.00
  Q 12.98 339.38 14.02 326.27
  A 4.48 4.08 57.6 0 1 14.19 325.30
  C 14.91 322.74 15.54 321.15 16.05 317.98
  Q 18.01 305.72 23.04 293.97
  Q 23.65 292.55 23.32 291.08
  Q 23.18 290.46 21.98 291.01"
/>
<path stroke="#d5a67d" vector-effect="non-scaling-stroke" d="
  M 41.54 299.73
  L 42.67 300.19
  A 0.34 0.34 0.0 0 0 43.09 299.69
  C 37.42 290.81 34.71 280.72 33.16 270.22
  Q 30.79 254.28 34.64 239.04
  C 38.88 222.26 44.92 207.04 51.76 191.22
  C 52.61 189.26 54.18 186.30 55.49 183.98
  A 0.45 0.44 -73.2 0 0 55.14 183.32
  Q 54.75 183.29 54.20 183.45"
/>
<path stroke="#b78b63" vector-effect="non-scaling-stroke" d="
  M 224.17 173.48
  L 214.28 162.16"
/>
<path stroke="#7a5537" vector-effect="non-scaling-stroke" d="
  M 214.28 162.16
  L 216.31 158.07
  A 1.94 1.74 68.4 0 0 216.45 157.69
  Q 218.50 150.01 225.05 142.41
  A 2.57 2.56 38.6 0 0 224.62 138.66
  L 224.46 138.55
  A 3.13 3.12 40.0 0 0 220.36 138.90
  Q 211.69 147.92 210.62 159.87"
/>
<path stroke="#8f6442" vector-effect="non-scaling-stroke" d="
  M 70.20 159.70
  L 68.17 162.96"
/>
<path stroke="#7a5537" vector-effect="non-scaling-stroke" d="
  M 170.88 408.19
  Q 167.80 411.93 165.83 416.14
  C 165.08 417.75 164.78 421.50 167.07 422.07
  A 1.15 1.13 32.0 0 0 168.07 421.85
  L 172.56 418.28
  A 1.63 1.63 0.0 0 1 174.82 418.50
  C 177.49 421.65 175.70 424.13 174.12 427.87
  Q 172.60 431.44 176.37 432.77
  A 1.90 1.90 0.0 0 0 178.47 432.18
  C 180.63 429.55 183.39 426.95 186.78 426.39
  A 1.08 1.08 0.0 0 1 188.03 427.53
  Q 187.84 430.05 186.32 432.74
  A 1.24 1.23 38.9 0 0 186.48 434.19
  Q 187.48 435.29 189.40 435.72
  A 1.03 0.98 -52.2 0 0 190.13 435.61
  L 195.33 432.61
  A 2.64 2.50 1.6 0 0 196.10 431.92
  L 208.53 414.86"
/>
<path stroke="#987051" vector-effect="non-scaling-stroke" d="
  M 43.82 368.49
  C 41.43 371.66 43.63 377.93 45.07 382.19
  Q 49.73 395.99 59.13 407.39
  Q 64.14 413.46 72.85 422.21
  C 76.19 425.56 79.18 429.81 81.09 432.71
  Q 84.82 438.41 87.53 440.27
  C 90.94 442.62 100.08 445.41 103.76 441.46
  A 1.27 1.26 24.6 0 1 104.85 441.06
  L 107.75 441.44
  A 2.41 2.34 41.1 0 0 108.50 441.40
  Q 116.91 439.49 119.22 431.18
  A 0.82 0.81 8.8 0 1 120.05 430.58
  C 123.58 430.75 128.24 426.15 128.89 422.81
  C 131.10 411.37 121.30 404.04 116.88 394.74
  Q 112.61 385.76 110.03 376.99
  Q 106.33 364.41 106.18 363.80
  Q 105.37 360.38 101.95 359.24
  A 2.20 1.83 -73.8 0 0 99.50 360.89
  Q 98.69 364.03 99.57 367.49
  Q 103.08 381.34 108.32 394.56
  C 109.55 397.66 111.54 401.92 112.95 403.79
  Q 115.02 406.54 116.76 409.41"
/>
<path stroke="#c09772" vector-effect="non-scaling-stroke" d="
  M 116.76 409.41
  L 116.63 410.15
  A 0.39 0.38 -71.5 0 1 116.08 410.43
  Q 115.27 410.01 114.93 409.34
  Q 113.56 406.59 111.53 404.44
  A 1.89 1.83 10.4 0 1 111.23 404.02
  L 105.09 392.73"
/>
<path stroke="#987051" vector-effect="non-scaling-stroke" d="
  M 180.34 388.97
  Q 181.25 385.82 182.29 382.86
  Q 183.44 379.63 184.06 376.75
  Q 186.47 365.60 186.93 362.84
  A 2.72 2.71 4.7 0 0 184.25 359.69
  L 184.09 359.69
  A 4.31 4.30 8.4 0 0 179.95 362.76
  Q 174.26 381.77 171.29 389.81
  Q 168.89 396.32 162.64 405.78
  C 161.07 408.15 160.72 409.18 159.37 411.74
  C 156.66 416.94 156.58 422.34 159.98 427.24
  A 2.30 2.26 87.1 0 0 160.74 427.94
  L 164.21 429.95
  A 1.18 1.00 80.7 0 1 164.48 430.18
  L 171.31 438.75
  A 4.24 4.22 -14.6 0 0 173.95 440.29
  Q 177.79 440.91 180.47 440.17
  A 1.06 1.04 64.4 0 1 181.61 440.58
  Q 184.69 444.94 190.66 442.70
  A 2.75 2.74 -48.8 0 1 192.23 442.59
  L 194.02 442.98
  A 1.65 1.62 -56.4 0 0 195.36 442.70
  Q 200.16 439.14 202.46 435.94
  C 206.05 430.94 209.08 425.84 213.54 421.64
  Q 217.83 417.60 223.25 411.82
  Q 228.87 405.81 234.35 396.77
  C 238.12 390.55 240.78 382.45 242.44 376.73
  Q 243.49 373.08 243.37 369.58
  A 2.62 2.33 -88.1 0 0 241.31 367.10
  Q 237.97 366.71 236.50 369.21
  A 2.55 2.52 -22.9 0 0 236.22 369.89
  Q 229.47 396.85 208.53 414.86"
/>
<path stroke="#c09772" vector-effect="non-scaling-stroke" d="
  M 208.53 414.86
  L 207.96 414.84
  A 0.43 0.42 -70.2 0 1 207.64 414.15
  L 209.32 411.99"
/>
<path stroke="#7a5537" vector-effect="non-scaling-stroke" d="
  M 91.25 433.06
  Q 94.42 436.19 98.52 435.27
  A 0.92 0.92 0.0 0 0 99.18 434.04
  Q 98.07 431.24 97.79 428.90
  A 1.90 1.39 79.5 0 1 98.72 426.97
  C 101.91 425.96 103.59 429.23 105.10 431.77
  A 2.30 2.29 -20.0 0 0 107.47 432.87
  Q 109.71 432.49 110.91 431.64
  A 2.61 2.61 0.0 0 0 111.95 428.95
  C 111.18 425.42 109.52 420.06 111.94 418.05
  A 1.70 1.64 52.3 0 1 114.37 418.41
  Q 116.30 421.13 119.32 422.33
  A 1.13 1.13 0.0 0 0 120.85 421.05
  L 120.43 418.97
  A 1.18 1.07 47.9 0 1 120.43 418.50
  C 121.15 415.36 118.71 412.04 116.76 409.41"
/>
<path stroke="#7a5537" vector-effect="non-scaling-stroke" d="
  M 196.95 478.05
  Q 199.52 476.10 201.41 472.64
  Q 206.08 464.07 208.04 455.06
  A 1.14 1.11 -25.9 0 1 208.13 454.81
  L 209.61 451.97
  A 0.41 0.41 0.0 0 0 209.10 451.40
  Q 193.23 457.39 175.46 461.10
  Q 173.45 461.51 171.01 461.14
  A 0.77 0.77 0.0 0 0 170.15 462.11
  Q 170.82 464.47 170.68 467.46
  A 2.83 2.67 38.2 0 0 170.84 468.54
  L 174.20 477.77
  A 1.68 1.18 -84.3 0 0 174.29 477.96
  L 175.23 479.48
  A 0.95 0.94 -60.2 0 0 176.98 479.00
  Q 177.08 475.36 179.30 471.35
  C 180.89 468.47 184.66 470.02 184.14 472.98
  Q 183.28 477.77 182.39 480.43
  A 1.23 1.22 10.8 0 0 183.49 482.04
  Q 184.84 482.11 185.96 481.42
  Q 191.02 478.29 192.75 471.72
  Q 193.10 470.39 194.08 470.07
  A 2.57 2.49 -11.3 0 1 197.44 472.24
  Q 197.57 474.08 196.45 477.70
  A 0.32 0.32 0.0 0 0 196.95 478.05"
/>
<path stroke="#7a5537" vector-effect="non-scaling-stroke" d="
  M 73.75 452.62
  C 74.90 456.60 77.15 460.77 78.86 465.59
  C 80.21 469.40 83.68 476.88 87.58 479.04
  Q 87.81 479.17 88.25 479.04
  A 0.39 0.39 0.0 0 0 88.51 478.53
  L 86.68 473.50
  A 2.57 2.57 0.0 0 1 88.33 470.17
  L 88.63 470.08
  A 2.63 2.62 72.3 0 1 91.88 471.76
  Q 94.16 478.49 95.67 481.15
  Q 97.32 484.06 101.00 483.39
  A 1.14 1.14 0.0 0 0 101.91 482.04
  L 99.97 472.52
  A 2.05 2.04 -11.6 0 1 101.57 470.11
  L 102.16 469.99
  A 2.37 2.37 0.0 0 1 104.96 471.84
  L 106.45 479.13
  A 1.31 1.31 0.0 0 0 108.44 479.97
  Q 111.38 478.09 111.75 474.71
  Q 112.36 469.12 112.98 463.08
  A 0.95 0.95 0.0 0 0 112.20 462.05
  Q 99.58 459.95 86.77 456.29
  C 82.27 455.00 78.87 453.27 74.41 451.97
  A 0.53 0.53 0.0 0 0 73.75 452.62"
/>
<path stroke="#d5a67d" vector-effect="non-scaling-stroke" d="
  M 92.94 206.32
  Q 91.03 203.76 88.94 202.53
  Q 81.86 198.39 71.92 195.31
  C 68.30 194.18 64.10 193.01 61.79 193.96
  Q 58.13 195.48 57.14 198.38
  Q 56.29 200.88 57.47 202.35
  C 62.61 208.72 69.35 209.58 77.90 212.08
  A 6.27 5.26 59.5 0 1 78.69 212.36
  Q 84.41 214.80 86.19 214.72
  Q 93.25 214.41 93.38 207.71
  A 2.24 2.23 27.5 0 0 92.94 206.32"
/>
<path stroke="#d5a67d" vector-effect="non-scaling-stroke" d="
  M 227.40 203.05
  Q 228.70 199.89 225.98 195.78
  C 224.46 193.50 220.54 193.68 218.26 194.22
  Q 210.42 196.08 202.30 199.30
  C 196.34 201.67 188.94 206.33 193.63 213.89
  A 1.46 1.43 -11.2 0 0 194.65 214.56
  C 202.35 215.68 208.15 211.85 215.08 209.54
  C 219.18 208.17 223.71 207.53 226.79 204.03
  A 3.47 3.38 -13.8 0 0 227.40 203.05"
/>
<path stroke="#b78b63" vector-effect="non-scaling-stroke" d="
  M 93.60 299.96
  Q 97.77 308.84 102.60 312.73
  Q 110.52 319.12 122.79 321.63
  Q 136.54 324.45 151.01 323.56
  C 158.86 323.07 170.23 320.67 177.34 315.89
  C 181.52 313.07 183.92 311.87 186.17 308.12
  Q 194.15 294.79 195.34 278.98
  Q 196.11 268.77 195.39 251.93
  Q 195.04 243.55 193.54 237.70
  C 191.85 231.13 189.51 223.06 185.46 217.51
  Q 181.56 212.17 180.67 211.49
  Q 175.42 207.47 171.93 205.35
  A 10.90 10.74 -22.7 0 0 168.62 204.02
  L 154.72 200.93
  A 2.21 1.58 -27.8 0 0 154.43 200.89
  Q 144.20 200.81 136.13 200.83
  Q 132.87 200.84 130.33 201.26
  C 125.48 202.06 120.14 202.22 116.08 204.09
  Q 107.46 208.05 104.36 211.13
  Q 93.54 221.83 90.08 237.04
  Q 87.70 247.48 88.01 258.00
  Q 88.43 272.21 88.33 276.22
  Q 88.22 280.86 89.23 285.57
  C 90.45 291.32 91.40 295.28 93.60 299.96"
/>
<path stroke="#b78b63" vector-effect="non-scaling-stroke" d="
  M 182.85 340.07
  C 178.54 340.10 174.11 342.01 169.45 342.41
  C 156.51 343.52 143.35 345.43 130.99 343.55
  C 123.21 342.37 118.73 342.30 112.01 340.71
  Q 108.64 339.92 104.51 339.70
  Q 102.99 339.62 102.83 339.67
  A 1.25 1.24 -35.8 0 0 102.46 341.90
  Q 107.70 345.44 110.04 347.44
  C 113.60 350.49 118.55 353.11 121.92 353.85
  Q 130.87 355.82 135.74 356.68
  Q 139.68 357.38 149.55 356.75
  Q 153.24 356.52 155.48 355.87
  C 158.42 355.02 162.91 354.26 166.55 352.71
  Q 170.20 351.15 171.47 350.14
  Q 176.60 346.06 183.47 342.71
  A 1.39 1.39 0.0 0 0 182.85 340.07"
/>
<path stroke="#987051" vector-effect="non-scaling-stroke" d="
  M 58.43 200.27
  C 60.10 204.42 65.61 205.38 70.38 206.69
  C 76.31 208.31 81.83 210.32 86.71 212.24
  A 2.91 2.91 0.0 0 0 89.58 211.81
  C 95.54 207.09 85.51 202.02 81.89 200.84
  Q 74.51 198.44 67.02 196.15
  Q 61.84 194.57 58.66 198.64
  A 1.66 1.66 0.0 0 0 58.43 200.27"
/>
<path stroke="#987051" vector-effect="non-scaling-stroke" d="
  M 196.80 212.40
  L 225.57 203.16
  A 2.04 2.04 0.0 0 0 226.89 200.60
  L 226.50 199.39
  A 7.19 5.31 -17.8 0 0 218.04 196.53
  L 199.07 202.62
  A 7.19 5.31 -17.8 0 0 193.85 209.87
  L 194.23 211.08
  A 2.04 2.04 0.0 0 0 196.80 212.40"
/>
<path stroke="#7a5537" vector-effect="non-scaling-stroke" d="
  M 174.64 228.44
  C 175.20 226.03 171.89 223.71 169.72 222.98
  A 2.17 2.14 -41.4 0 0 168.64 222.92
  Q 165.48 223.56 163.65 224.67
  C 160.27 226.71 154.39 231.84 154.32 236.27
  C 154.17 245.65 170.42 233.45 172.86 231.59
  Q 174.12 230.63 174.64 228.44"
/>
<path stroke="#7a5537" vector-effect="non-scaling-stroke" d="
  M 129.47 238.99
  C 131.58 236.69 128.33 231.86 126.52 230.25
  Q 123.56 227.60 119.15 224.66
  A 6.05 6.03 -47.4 0 0 112.04 224.97
  L 111.60 225.31
  A 3.97 3.97 0.0 0 0 111.63 231.54
  Q 116.79 235.60 122.65 238.76
  C 125.69 240.40 127.00 241.70 129.47 238.99"
/>
<path stroke="#7a5537" vector-effect="non-scaling-stroke" d="
  M 146.60 288.58
  Q 146.16 287.31 146.13 286.73
  Q 145.42 273.70 145.22 246.00
  A 2.55 2.54 86.5 0 0 142.38 243.49
  L 142.04 243.51
  A 2.91 2.91 0.0 0 0 139.31 246.45
  L 139.75 287.43
  A 1.98 1.97 73.4 0 1 138.85 289.11
  L 133.66 292.48
  A 8.97 8.83 -72.0 0 1 132.08 293.30
  Q 126.86 295.42 121.33 299.01
  C 119.16 300.42 117.93 302.15 119.75 304.30
  A 1.43 1.41 68.3 0 0 120.92 304.81
  C 129.09 304.35 133.38 301.30 141.89 296.12
  A 1.61 1.50 22.7 0 1 142.46 295.91
  C 145.07 295.52 150.61 300.06 152.10 301.15
  Q 153.88 302.45 161.72 305.10
  Q 164.09 305.90 166.31 303.75
  A 1.08 1.06 -29.9 0 0 166.60 302.71
  Q 165.58 298.69 163.26 297.73
  Q 155.44 294.48 147.60 289.81
  A 2.34 2.31 -84.6 0 1 146.60 288.58"
/>
</g>
<path fill="#371c06" d="
  M 173.02 33.43
  C 176.90 32.91 182.24 31.25 186.44 32.65
  A 2.79 2.78 3.0 0 1 188.28 34.69
  C 190.53 44.97 184.99 51.80 177.98 59.19
  A 5.60 5.58 76.9 0 0 176.78 61.12
  C 172.75 72.10 168.53 78.78 157.00 82.94
  C 146.41 86.76 132.49 86.47 122.84 81.29
  C 115.57 77.40 111.97 69.89 109.75 62.01
  A 5.07 5.06 9.3 0 0 107.72 59.19
  C 99.30 53.46 94.07 47.47 95.93 36.51
  A 2.85 2.82 -0.5 0 1 98.22 34.20
  Q 104.50 33.03 111.27 35.85
  A 1.04 1.04 0.0 0 0 112.70 34.99
  C 113.83 23.46 117.22 11.11 128.84 6.35
  Q 146.10 -0.72 160.52 10.57
  Q 170.85 18.66 172.25 32.82
  A 0.69 0.68 -6.5 0 0 173.02 33.43
  Z
  M 101.52 37.09
  A 2.86 2.71 77.4 0 0 99.68 40.17
  C 100.71 47.53 105.37 52.47 111.52 56.38
  A 3.63 3.61 15.4 0 1 113.20 59.32
  C 113.77 75.38 130.66 80.92 143.94 80.32
  C 158.37 79.66 170.84 74.19 171.99 57.86
  A 2.38 2.35 -13.1 0 1 173.18 55.98
  C 179.40 52.43 185.66 45.54 184.89 37.80
  A 1.56 1.55 -10.0 0 0 182.95 36.44
  Q 176.62 38.10 171.86 41.55
  A 1.97 1.97 0.0 0 1 169.12 41.12
  C 167.34 38.73 167.44 34.69 166.83 31.23
  C 165.08 21.34 157.64 10.67 147.02 9.44
  C 138.44 8.45 131.14 9.77 124.87 15.53
  Q 121.37 18.76 119.07 25.42
  Q 116.69 32.35 116.36 40.39
  A 1.63 1.62 88.4 0 1 114.90 41.94
  Q 113.95 42.04 113.13 41.62
  Q 108.63 39.31 104.09 37.43
  Q 102.51 36.77 101.52 37.09
  Z"
/>
<path fill="#f9d681" d="
  M 101.52 37.09
  Q 102.51 36.77 104.09 37.43
  Q 108.63 39.31 113.13 41.62
  Q 113.95 42.04 114.90 41.94
  A 1.63 1.62 88.4 0 0 116.36 40.39
  Q 116.69 32.35 119.07 25.42
  Q 121.37 18.76 124.87 15.53
  C 131.14 9.77 138.44 8.45 147.02 9.44
  C 157.64 10.67 165.08 21.34 166.83 31.23
  C 167.44 34.69 167.34 38.73 169.12 41.12
  A 1.97 1.97 0.0 0 0 171.86 41.55
  Q 176.62 38.10 182.95 36.44
  A 1.56 1.55 -10.0 0 1 184.89 37.80
  C 185.66 45.54 179.40 52.43 173.18 55.98
  A 2.38 2.35 -13.1 0 0 171.99 57.86
  C 170.84 74.19 158.37 79.66 143.94 80.32
  C 130.66 80.92 113.77 75.38 113.20 59.32
  A 3.63 3.61 15.4 0 0 111.52 56.38
  C 105.37 52.47 100.71 47.53 99.68 40.17
  A 2.86 2.71 77.4 0 1 101.52 37.09
  Z
  M 153.3289 22.7086
  A 3.40 3.16 -164.8 0 0 155.7815 26.6495
  A 3.40 3.16 -164.8 0 0 159.8911 24.4914
  A 3.40 3.16 -164.8 0 0 157.4385 20.5505
  A 3.40 3.16 -164.8 0 0 153.3289 22.7086
  Z
  M 131.75 23.91
  A 3.36 3.36 0.0 0 0 128.39 20.55
  A 3.36 3.36 0.0 0 0 125.03 23.91
  A 3.36 3.36 0.0 0 0 128.39 27.27
  A 3.36 3.36 0.0 0 0 131.75 23.91
  Z
  M 152.78 33.13
  C 153.16 27.39 146.95 25.15 141.97 25.06
  Q 136.50 24.96 133.57 29.70
  C 131.33 33.33 136.62 36.74 139.66 37.07
  C 143.57 37.51 149.44 37.28 152.38 34.07
  A 1.52 1.50 -22.3 0 0 152.78 33.13
  Z"
/>
<ellipse fill="#371c06" cx="0.00" cy="0.00" transform="translate(156.61,23.60) rotate(-164.8)" rx="3.40" ry="3.16"/>
<circle fill="#371c06" cx="128.39" cy="23.91" r="3.36"/>
<path fill="#522e16" d="
  M 152.38 34.07
  C 149.44 37.28 143.57 37.51 139.66 37.07
  C 136.62 36.74 131.33 33.33 133.57 29.70
  Q 136.50 24.96 141.97 25.06
  C 146.95 25.15 153.16 27.39 152.78 33.13
  A 1.52 1.50 -22.3 0 1 152.38 34.07
  Z
  M 148.49 31.82
  Q 146.87 29.71 144.16 29.39
  A 1.74 1.71 -60.5 0 0 142.90 29.75
  L 141.86 30.58
  A 0.82 0.82 0.0 0 1 140.78 30.53
  Q 139.73 29.52 138.27 29.88
  A 1.26 1.12 61.2 0 0 137.82 31.86
  Q 138.47 32.61 139.33 32.63
  Q 144.44 32.72 148.24 32.40
  A 0.36 0.36 0.0 0 0 148.49 31.82
  Z"
/>
<path fill="#f9d681" d="
  M 148.49 31.82
  A 0.36 0.36 0.0 0 1 148.24 32.40
  Q 144.44 32.72 139.33 32.63
  Q 138.47 32.61 137.82 31.86
  A 1.26 1.12 61.2 0 1 138.27 29.88
  Q 139.73 29.52 140.78 30.53
  A 0.82 0.82 0.0 0 0 141.86 30.58
  L 142.90 29.75
  A 1.74 1.71 -60.5 0 1 144.16 29.39
  Q 146.87 29.71 148.49 31.82
  Z"
/>
<path fill="#522e16" d="
  M 83.50 139.62
  Q 82.64 141.30 84.80 142.22
  Q 85.30 142.43 85.27 141.84
  L 85.71 141.96
  A 1.40 1.38 43.2 0 0 86.54 141.94
  C 107.35 134.61 129.33 130.23 151.50 132.54
  Q 173.96 134.89 195.54 142.05
  A 1.82 1.82 0.0 0 0 197.57 141.40
  Q 202.98 134.09 209.99 128.74
  Q 219.38 121.60 230.64 125.38
  C 238.25 127.94 242.22 136.64 243.87 143.83
  C 246.21 154.00 241.92 164.73 235.64 173.60
  A 2.95 2.93 -41.1 0 0 235.42 176.64
  Q 244.91 195.06 251.53 214.84
  C 258.20 234.74 260.65 252.14 259.06 272.12
  A 7.14 7.12 -54.9 0 0 259.67 275.64
  C 272.43 304.07 279.19 337.17 274.92 368.22
  C 270.33 401.58 249.50 429.05 219.84 445.16
  A 2.89 2.88 84.1 0 0 218.45 446.88
  Q 214.53 459.92 209.02 471.52
  C 204.44 481.17 197.90 490.52 185.84 489.81
  C 176.57 489.27 169.67 487.08 166.26 477.99
  Q 163.49 470.60 163.34 463.24
  A 0.84 0.84 0.0 0 0 162.50 462.42
  L 120.80 462.42
  A 0.86 0.85 3.0 0 0 119.95 463.18
  C 118.64 475.91 115.16 490.26 99.48 490.64
  Q 91.59 490.83 83.46 484.85
  C 76.93 480.04 73.45 472.98 70.08 465.17
  Q 67.09 458.21 64.74 449.45
  A 4.56 4.55 -81.3 0 0 62.79 446.79
  Q 47.18 436.90 33.88 423.12
  C 20.03 408.76 10.04 392.44 6.39 372.85
  Q 1.07 344.29 6.52 317.23
  Q 11.16 294.19 20.85 273.42
  A 14.57 14.50 -31.0 0 0 22.16 268.24
  Q 23.53 245.48 28.92 223.71
  Q 34.12 202.72 46.48 176.91
  Q 48.70 175.73 47.05 174.35
  C 41.79 165.65 35.91 151.78 39.20 141.71
  Q 42.37 131.98 50.74 125.49
  Q 52.23 124.34 56.02 124.11
  C 67.66 123.38 76.37 130.03 83.50 139.62
  Z
  M 56.67 171.69
  L 58.59 174.61
  L 54.20 183.45
  Q 43.95 203.38 36.82 224.61
  Q 34.44 231.69 33.01 237.89
  C 28.04 259.48 30.23 280.28 41.54 299.73
  Q 45.38 305.66 48.96 311.33
  A 2.06 2.01 -17.2 0 1 47.28 314.42
  Q 46.63 314.46 45.75 313.71
  C 40.81 309.51 36.79 306.10 33.43 300.35
  Q 31.86 297.67 30.25 294.94
  C 28.15 291.36 26.74 287.59 25.59 283.64
  A 0.63 0.63 0.0 0 0 24.39 283.62
  L 21.98 291.01
  C 20.45 296.29 17.87 301.60 16.70 306.48
  Q 14.04 317.61 13.41 321.21
  C 9.73 342.12 10.14 366.47 18.27 386.05
  Q 24.05 399.96 33.42 412.16
  C 42.39 423.84 56.53 434.45 69.86 440.69
  Q 80.78 445.80 86.41 447.52
  Q 126.80 459.82 169.24 453.18
  Q 180.59 451.40 190.32 448.85
  Q 193.49 448.02 198.78 445.81
  Q 202.43 445.40 205.02 443.52
  Q 226.43 434.76 240.85 420.11
  Q 260.55 400.10 266.89 370.94
  Q 271.99 347.54 267.84 325.54
  C 266.77 319.87 266.06 313.70 264.23 307.63
  Q 261.06 297.16 256.71 285.98
  A 0.36 0.36 0.0 0 0 256.04 286.00
  Q 251.52 300.22 241.58 311.07
  Q 239.72 313.10 234.12 317.10
  Q 232.18 316.00 232.13 314.25
  A 1.28 1.28 0.0 0 1 232.33 313.53
  L 234.54 309.99
  C 242.41 298.59 248.64 287.34 250.56 275.38
  Q 254.17 252.88 247.36 228.88
  Q 244.34 218.24 239.32 206.19
  Q 233.18 191.43 225.75 177.26
  L 224.17 173.48
  L 231.80 166.17
  A 4.08 3.49 -9.6 0 0 232.40 165.45
  Q 237.96 156.80 237.08 145.99
  Q 236.52 139.00 231.45 133.81
  C 228.32 130.61 223.21 130.35 219.16 131.35
  C 214.96 132.38 212.57 135.22 208.70 139.21
  Q 202.64 145.46 201.00 153.25
  Q 190.83 147.74 181.49 144.77
  Q 180.87 144.57 173.17 142.33
  C 166.73 140.45 162.87 140.31 153.70 139.21
  Q 146.63 138.37 142.64 138.50
  Q 127.64 138.99 117.51 140.86
  Q 104.32 143.29 89.32 149.38
  Q 86.00 150.72 81.87 153.06
  A 1.12 1.12 0.0 0 1 80.25 152.41
  Q 78.80 147.58 74.61 141.23
  Q 71.76 136.93 69.33 135.16
  C 61.86 129.70 53.24 128.36 48.27 138.00
  Q 45.71 142.95 45.59 144.33
  C 44.93 151.54 45.97 158.97 50.06 164.77
  Q 52.79 168.62 56.67 171.69
  Z
  M 196.95 478.05
  Q 199.52 476.10 201.41 472.64
  Q 206.08 464.07 208.04 455.06
  A 1.14 1.11 -25.9 0 1 208.13 454.81
  L 209.61 451.97
  A 0.41 0.41 0.0 0 0 209.10 451.40
  Q 193.23 457.39 175.46 461.10
  Q 173.45 461.51 171.01 461.14
  A 0.77 0.77 0.0 0 0 170.15 462.11
  Q 170.82 464.47 170.68 467.46
  A 2.83 2.67 38.2 0 0 170.84 468.54
  L 174.20 477.77
  A 1.68 1.18 -84.3 0 0 174.29 477.96
  L 175.23 479.48
  A 0.95 0.94 -60.2 0 0 176.98 479.00
  Q 177.08 475.36 179.30 471.35
  C 180.89 468.47 184.66 470.02 184.14 472.98
  Q 183.28 477.77 182.39 480.43
  A 1.23 1.22 10.8 0 0 183.49 482.04
  Q 184.84 482.11 185.96 481.42
  Q 191.02 478.29 192.75 471.72
  Q 193.10 470.39 194.08 470.07
  A 2.57 2.49 -11.3 0 1 197.44 472.24
  Q 197.57 474.08 196.45 477.70
  A 0.32 0.32 0.0 0 0 196.95 478.05
  Z
  M 73.75 452.62
  C 74.90 456.60 77.15 460.77 78.86 465.59
  C 80.21 469.40 83.68 476.88 87.58 479.04
  Q 87.81 479.17 88.25 479.04
  A 0.39 0.39 0.0 0 0 88.51 478.53
  L 86.68 473.50
  A 2.57 2.57 0.0 0 1 88.33 470.17
  L 88.63 470.08
  A 2.63 2.62 72.3 0 1 91.88 471.76
  Q 94.16 478.49 95.67 481.15
  Q 97.32 484.06 101.00 483.39
  A 1.14 1.14 0.0 0 0 101.91 482.04
  L 99.97 472.52
  A 2.05 2.04 -11.6 0 1 101.57 470.11
  L 102.16 469.99
  A 2.37 2.37 0.0 0 1 104.96 471.84
  L 106.45 479.13
  A 1.31 1.31 0.0 0 0 108.44 479.97
  Q 111.38 478.09 111.75 474.71
  Q 112.36 469.12 112.98 463.08
  A 0.95 0.95 0.0 0 0 112.20 462.05
  Q 99.58 459.95 86.77 456.29
  C 82.27 455.00 78.87 453.27 74.41 451.97
  A 0.53 0.53 0.0 0 0 73.75 452.62
  Z"
/>
<path fill="#deb28c" d="
  M 201.00 153.25
  L 208.41 159.05
  A 0.65 0.50 -7.5 0 0 208.60 159.16
  L 210.62 159.87
  Q 210.55 160.03 210.71 160.11
  L 211.11 161.65
  A 0.62 0.62 0.0 0 1 210.07 162.25
  Q 206.87 159.07 203.21 156.87
  Q 188.59 148.05 170.72 144.13
  Q 158.38 141.42 148.86 140.75
  C 136.90 139.91 125.25 141.85 112.46 144.68
  Q 102.18 146.96 99.53 148.06
  Q 85.00 154.14 84.07 154.56
  Q 82.55 155.25 80.83 155.57
  A 0.66 0.66 0.0 0 1 80.11 155.19
  L 79.20 153.23
  C 76.66 145.49 71.74 137.44 64.38 133.84
  C 60.76 132.07 56.73 131.98 53.40 134.59
  Q 48.55 138.39 47.65 143.35
  Q 46.21 151.29 47.29 156.02
  Q 48.77 162.48 52.73 166.79
  Q 55.57 169.88 56.67 171.69
  Q 52.79 168.62 50.06 164.77
  C 45.97 158.97 44.93 151.54 45.59 144.33
  Q 45.71 142.95 48.27 138.00
  C 53.24 128.36 61.86 129.70 69.33 135.16
  Q 71.76 136.93 74.61 141.23
  Q 78.80 147.58 80.25 152.41
  A 1.12 1.12 0.0 0 0 81.87 153.06
  Q 86.00 150.72 89.32 149.38
  Q 104.32 143.29 117.51 140.86
  Q 127.64 138.99 142.64 138.50
  Q 146.63 138.37 153.70 139.21
  C 162.87 140.31 166.73 140.45 173.17 142.33
  Q 180.87 144.57 181.49 144.77
  Q 190.83 147.74 201.00 153.25
  Z"
/>
<path fill="#a27b58" d="
  M 224.17 173.48
  L 214.28 162.16
  L 216.31 158.07
  A 1.94 1.74 68.4 0 0 216.45 157.69
  Q 218.50 150.01 225.05 142.41
  A 2.57 2.56 38.6 0 0 224.62 138.66
  L 224.46 138.55
  A 3.13 3.12 40.0 0 0 220.36 138.90
  Q 211.69 147.92 210.62 159.87
  L 208.60 159.16
  A 0.65 0.50 -7.5 0 1 208.41 159.05
  L 201.00 153.25
  Q 202.64 145.46 208.70 139.21
  C 212.57 135.22 214.96 132.38 219.16 131.35
  C 223.21 130.35 228.32 130.61 231.45 133.81
  Q 236.52 139.00 237.08 145.99
  Q 237.96 156.80 232.40 165.45
  A 4.08 3.49 -9.6 0 1 231.80 166.17
  L 224.17 173.48
  Z"
/>
<path fill="#a27b58" d="
  M 79.20 153.23
  Q 76.42 157.71 70.20 159.70
  Q 69.70 156.35 69.07 152.79
  Q 67.64 144.79 62.29 139.97
  Q 57.96 136.06 53.53 139.54
  A 0.94 0.93 44.0 0 0 53.56 141.03
  Q 58.07 144.30 60.41 148.91
  Q 63.83 155.65 66.97 162.50
  Q 67.21 163.01 68.17 162.96
  L 67.30 163.59
  A 2.93 2.88 0.5 0 0 66.72 164.15
  L 58.59 174.61
  L 56.67 171.69
  Q 55.57 169.88 52.73 166.79
  Q 48.77 162.48 47.29 156.02
  Q 46.21 151.29 47.65 143.35
  Q 48.55 138.39 53.40 134.59
  C 56.73 131.98 60.76 132.07 64.38 133.84
  C 71.74 137.44 76.66 145.49 79.20 153.23
  Z"
/>
<path fill="#522e16" d="
  M 70.20 159.70
  L 68.17 162.96
  Q 67.21 163.01 66.97 162.50
  Q 63.83 155.65 60.41 148.91
  Q 58.07 144.30 53.56 141.03
  A 0.94 0.93 44.0 0 1 53.53 139.54
  Q 57.96 136.06 62.29 139.97
  Q 67.64 144.79 69.07 152.79
  Q 69.70 156.35 70.20 159.70
  Z"
/>
<path fill="#522e16" d="
  M 214.28 162.16
  Q 212.52 162.75 210.71 160.11
  Q 210.55 160.03 210.62 159.87
  Q 211.69 147.92 220.36 138.90
  A 3.13 3.12 40.0 0 1 224.46 138.55
  L 224.62 138.66
  A 2.57 2.56 38.6 0 1 225.05 142.41
  Q 218.50 150.01 216.45 157.69
  A 1.94 1.74 68.4 0 1 216.31 158.07
  L 214.28 162.16
  Z"
/>
<path fill="#deb28c" d="
  M 83.50 139.62
  L 85.27 141.84
  Q 85.30 142.43 84.80 142.22
  Q 82.64 141.30 83.50 139.62
  Z"
/>
<path fill="#cc9a6e" d="
  M 210.71 160.11
  Q 212.52 162.75 214.28 162.16
  L 224.17 173.48
  L 225.75 177.26
  Q 225.21 177.05 224.84 177.11
  A 0.56 0.56 0.0 0 0 224.42 177.88
  Q 225.99 181.67 228.03 185.52
  Q 231.54 192.15 231.90 192.98
  Q 236.33 203.38 238.06 207.25
  C 240.29 212.22 242.06 220.08 243.51 224.72
  Q 244.45 227.74 245.28 229.07
  A 1.85 1.82 -61.1 0 1 245.55 230.03
  Q 245.56 230.51 247.65 238.74
  Q 250.50 249.90 250.23 262.19
  Q 250.15 265.68 249.63 268.66
  C 248.99 272.28 249.05 275.99 248.05 279.57
  Q 247.79 280.47 246.67 284.28
  A 6.25 6.03 68.7 0 1 246.16 285.50
  Q 244.69 288.19 244.07 291.26
  A 2.07 2.02 -24.3 0 1 243.82 291.90
  L 240.70 296.90
  A 0.01 0.01 0.0 0 1 240.69 296.91
  L 233.54 308.77
  A 0.77 0.77 0.0 0 0 234.04 309.92
  Q 234.25 309.96 234.54 309.99
  L 232.33 313.53
  A 1.28 1.28 0.0 0 0 232.13 314.25
  Q 232.18 316.00 234.12 317.10
  Q 233.46 317.94 234.11 318.42
  Q 234.67 318.83 235.14 318.48
  Q 249.65 307.51 255.87 292.79
  A 0.87 0.87 0.0 0 1 257.51 292.89
  Q 260.72 304.23 261.89 307.78
  Q 263.58 312.92 264.63 317.91
  Q 266.39 326.27 266.67 328.24
  Q 269.25 346.33 266.54 363.94
  C 265.88 368.26 264.14 373.87 263.05 377.72
  C 259.63 389.94 254.39 400.48 246.57 411.10
  Q 240.76 419.00 231.85 425.96
  Q 224.15 431.97 214.44 437.67
  C 211.07 439.65 207.57 440.68 204.51 442.60
  A 0.48 0.47 33.0 0 0 204.70 443.47
  L 205.02 443.52
  Q 202.43 445.40 198.78 445.81
  Q 198.04 443.34 200.37 440.85
  Q 202.55 438.52 208.63 429.31
  A 5.76 5.17 86.9 0 1 209.28 428.50
  Q 226.14 411.01 228.58 407.85
  Q 240.39 392.58 245.27 372.48
  Q 246.27 368.39 243.42 366.70
  Q 241.16 365.37 237.34 365.36
  A 1.13 1.09 -72.6 0 0 236.39 365.88
  Q 234.02 369.63 233.98 370.79
  Q 233.91 373.21 232.66 377.18
  Q 230.18 385.04 226.41 390.94
  Q 223.75 395.12 216.80 404.27
  Q 215.46 406.04 213.10 408.15
  Q 210.88 410.11 209.32 411.99
  Q 207.10 406.06 201.83 402.40
  Q 199.85 401.03 192.49 397.10
  C 188.30 394.86 184.67 394.66 180.61 394.79
  A 2.62 2.61 -83.6 0 0 178.16 396.76
  Q 176.61 402.82 171.05 409.75
  A 0.34 0.33 -16.7 0 1 170.47 409.44
  L 170.88 408.19
  Q 176.37 399.15 180.34 388.97
  Q 187.20 379.06 188.29 365.76
  Q 188.56 362.44 187.12 358.95
  A 3.01 2.62 -19.4 0 0 183.56 357.54
  C 181.63 358.15 179.69 359.69 178.86 361.59
  Q 174.36 371.76 173.00 376.75
  Q 169.78 388.50 167.26 393.70
  C 164.38 399.63 159.54 407.37 157.13 412.17
  Q 153.01 420.37 158.19 427.61
  C 159.91 430.01 162.73 431.45 164.65 433.64
  C 167.82 437.28 171.41 442.23 175.10 442.68
  Q 179.84 443.26 184.09 446.43
  A 0.79 0.79 0.0 0 1 183.80 447.84
  Q 168.25 451.47 153.10 451.93
  C 141.52 452.28 128.51 452.25 116.90 451.17
  Q 108.22 450.37 100.94 448.21
  A 0.86 0.86 0.0 0 1 100.96 446.56
  Q 106.98 444.92 112.54 442.04
  Q 115.85 440.33 117.66 437.64
  Q 120.46 433.48 121.15 432.88
  A 4.61 4.46 13.3 0 1 122.63 432.00
  C 129.78 429.37 134.94 419.87 129.52 413.03
  A 1.92 1.88 -73.4 0 1 129.23 412.48
  C 127.77 407.93 124.50 403.64 121.82 400.06
  A 16.24 15.81 16.0 0 1 119.91 396.72
  Q 112.75 379.69 111.89 376.44
  C 109.78 368.48 109.27 360.70 102.06 356.65
  A 1.58 1.58 0.0 0 0 100.09 357.00
  Q 95.95 361.83 96.86 368.34
  Q 97.75 374.69 99.43 378.83
  Q 102.33 386.02 105.09 392.73
  Q 101.53 394.28 97.92 395.24
  Q 92.71 396.62 91.03 397.61
  Q 82.98 402.34 77.57 410.49
  A 1.82 1.79 -28.4 0 0 77.26 411.50
  Q 77.28 413.66 78.54 414.72
  Q 81.98 417.64 84.16 420.88
  Q 88.00 426.60 91.97 432.22
  Q 92.35 432.76 92.10 432.95
  Q 91.87 433.13 91.25 433.06
  C 87.64 429.39 85.02 424.83 80.43 417.83
  Q 79.26 416.04 76.18 414.03
  A 4.13 4.09 85.6 0 1 75.29 413.26
  C 70.87 408.21 66.18 404.29 62.76 399.11
  Q 57.03 390.42 53.55 382.22
  Q 52.39 379.46 50.04 371.77
  C 49.07 368.61 47.16 366.18 43.82 368.49
  Q 44.00 367.80 43.80 367.40
  A 0.53 0.53 0.0 0 0 43.04 367.19
  Q 39.46 369.45 40.30 373.71
  Q 40.60 375.24 43.91 384.96
  Q 45.69 390.20 49.05 395.57
  Q 54.71 404.62 58.20 409.03
  Q 60.57 412.03 74.22 426.36
  A 2.15 2.12 -76.6 0 1 74.68 427.12
  Q 75.04 428.12 75.56 428.66
  Q 78.41 431.69 79.85 435.73
  C 80.31 437.03 81.25 438.96 81.13 440.44
  A 1.62 1.61 -86.3 0 1 79.45 441.92
  Q 77.40 441.83 75.32 441.16
  Q 69.67 439.36 64.01 435.91
  C 59.43 433.13 55.80 430.71 52.25 427.61
  Q 49.11 424.88 48.14 424.52
  A 1.67 1.65 -6.2 0 1 47.32 423.87
  Q 46.43 422.47 44.17 421.33
  A 3.17 2.94 80.8 0 1 43.27 420.63
  C 40.36 417.32 36.21 414.27 33.58 410.46
  Q 26.68 400.48 24.94 396.60
  Q 20.88 387.54 19.26 382.20
  Q 18.98 381.29 18.91 381.11
  Q 17.27 377.12 16.93 373.28
  A 4.18 4.10 34.1 0 0 16.74 372.34
  Q 13.71 363.38 13.42 354.00
  Q 12.98 339.38 14.02 326.27
  A 4.48 4.08 57.6 0 1 14.19 325.30
  C 14.91 322.74 15.54 321.15 16.05 317.98
  Q 18.01 305.72 23.04 293.97
  Q 23.65 292.55 23.32 291.08
  Q 23.18 290.46 21.98 291.01
  L 24.39 283.62
  A 0.63 0.63 0.0 0 1 25.59 283.64
  C 26.74 287.59 28.15 291.36 30.25 294.94
  Q 31.86 297.67 33.43 300.35
  C 36.79 306.10 40.81 309.51 45.75 313.71
  Q 46.63 314.46 47.28 314.42
  A 2.06 2.01 -17.2 0 0 48.96 311.33
  Q 45.38 305.66 41.54 299.73
  L 42.67 300.19
  A 0.34 0.34 0.0 0 0 43.09 299.69
  C 37.42 290.81 34.71 280.72 33.16 270.22
  Q 30.79 254.28 34.64 239.04
  C 38.88 222.26 44.92 207.04 51.76 191.22
  C 52.61 189.26 54.18 186.30 55.49 183.98
  A 0.45 0.44 -73.2 0 0 55.14 183.32
  Q 54.75 183.29 54.20 183.45
  L 58.59 174.61
  L 66.72 164.15
  A 2.93 2.88 0.5 0 1 67.30 163.59
  L 68.17 162.96
  L 70.20 159.70
  Q 76.42 157.71 79.20 153.23
  L 80.11 155.19
  A 0.66 0.66 0.0 0 0 80.83 155.57
  Q 82.55 155.25 84.07 154.56
  Q 85.00 154.14 99.53 148.06
  Q 102.18 146.96 112.46 144.68
  C 125.25 141.85 136.90 139.91 148.86 140.75
  Q 158.38 141.42 170.72 144.13
  Q 188.59 148.05 203.21 156.87
  Q 206.87 159.07 210.07 162.25
  A 0.62 0.62 0.0 0 0 211.11 161.65
  L 210.71 160.11
  Z
  M 92.94 206.32
  Q 91.03 203.76 88.94 202.53
  Q 81.86 198.39 71.92 195.31
  C 68.30 194.18 64.10 193.01 61.79 193.96
  Q 58.13 195.48 57.14 198.38
  Q 56.29 200.88 57.47 202.35
  C 62.61 208.72 69.35 209.58 77.90 212.08
  A 6.27 5.26 59.5 0 1 78.69 212.36
  Q 84.41 214.80 86.19 214.72
  Q 93.25 214.41 93.38 207.71
  A 2.24 2.23 27.5 0 0 92.94 206.32
  Z
  M 227.40 203.05
  Q 228.70 199.89 225.98 195.78
  C 224.46 193.50 220.54 193.68 218.26 194.22
  Q 210.42 196.08 202.30 199.30
  C 196.34 201.67 188.94 206.33 193.63 213.89
  A 1.46 1.43 -11.2 0 0 194.65 214.56
  C 202.35 215.68 208.15 211.85 215.08 209.54
  C 219.18 208.17 223.71 207.53 226.79 204.03
  A 3.47 3.38 -13.8 0 0 227.40 203.05
  Z
  M 93.60 299.96
  Q 97.77 308.84 102.60 312.73
  Q 110.52 319.12 122.79 321.63
  Q 136.54 324.45 151.01 323.56
  C 158.86 323.07 170.23 320.67 177.34 315.89
  C 181.52 313.07 183.92 311.87 186.17 308.12
  Q 194.15 294.79 195.34 278.98
  Q 196.11 268.77 195.39 251.93
  Q 195.04 243.55 193.54 237.70
  C 191.85 231.13 189.51 223.06 185.46 217.51
  Q 181.56 212.17 180.67 211.49
  Q 175.42 207.47 171.93 205.35
  A 10.90 10.74 -22.7 0 0 168.62 204.02
  L 154.72 200.93
  A 2.21 1.58 -27.8 0 0 154.43 200.89
  Q 144.20 200.81 136.13 200.83
  Q 132.87 200.84 130.33 201.26
  C 125.48 202.06 120.14 202.22 116.08 204.09
  Q 107.46 208.05 104.36 211.13
  Q 93.54 221.83 90.08 237.04
  Q 87.70 247.48 88.01 258.00
  Q 88.43 272.21 88.33 276.22
  Q 88.22 280.86 89.23 285.57
  C 90.45 291.32 91.40 295.28 93.60 299.96
  Z
  M 182.85 340.07
  C 178.54 340.10 174.11 342.01 169.45 342.41
  C 156.51 343.52 143.35 345.43 130.99 343.55
  C 123.21 342.37 118.73 342.30 112.01 340.71
  Q 108.64 339.92 104.51 339.70
  Q 102.99 339.62 102.83 339.67
  A 1.25 1.24 -35.8 0 0 102.46 341.90
  Q 107.70 345.44 110.04 347.44
  C 113.60 350.49 118.55 353.11 121.92 353.85
  Q 130.87 355.82 135.74 356.68
  Q 139.68 357.38 149.55 356.75
  Q 153.24 356.52 155.48 355.87
  C 158.42 355.02 162.91 354.26 166.55 352.71
  Q 170.20 351.15 171.47 350.14
  Q 176.60 346.06 183.47 342.71
  A 1.39 1.39 0.0 0 0 182.85 340.07
  Z"
/>
<path fill="#a27b58" d="
  M 46.48 176.91
  L 47.05 174.35
  Q 48.70 175.73 46.48 176.91
  Z"
/>
<path fill="#deb28c" d="
  M 225.75 177.26
  Q 233.18 191.43 239.32 206.19
  Q 244.34 218.24 247.36 228.88
  Q 254.17 252.88 250.56 275.38
  C 248.64 287.34 242.41 298.59 234.54 309.99
  Q 234.25 309.96 234.04 309.92
  A 0.77 0.77 0.0 0 1 233.54 308.77
  L 240.69 296.91
  A 0.01 0.01 0.0 0 0 240.70 296.90
  L 243.82 291.90
  A 2.07 2.02 -24.3 0 0 244.07 291.26
  Q 244.69 288.19 246.16 285.50
  A 6.25 6.03 68.7 0 0 246.67 284.28
  Q 247.79 280.47 248.05 279.57
  C 249.05 275.99 248.99 272.28 249.63 268.66
  Q 250.15 265.68 250.23 262.19
  Q 250.50 249.90 247.65 238.74
  Q 245.56 230.51 245.55 230.03
  A 1.85 1.82 -61.1 0 0 245.28 229.07
  Q 244.45 227.74 243.51 224.72
  C 242.06 220.08 240.29 212.22 238.06 207.25
  Q 236.33 203.38 231.90 192.98
  Q 231.54 192.15 228.03 185.52
  Q 225.99 181.67 224.42 177.88
  A 0.56 0.56 0.0 0 1 224.84 177.11
  Q 225.21 177.05 225.75 177.26
  Z"
/>
<path fill="#deb28c" d="
  M 41.54 299.73
  C 30.23 280.28 28.04 259.48 33.01 237.89
  Q 34.44 231.69 36.82 224.61
  Q 43.95 203.38 54.20 183.45
  Q 54.75 183.29 55.14 183.32
  A 0.45 0.44 -73.2 0 1 55.49 183.98
  C 54.18 186.30 52.61 189.26 51.76 191.22
  C 44.92 207.04 38.88 222.26 34.64 239.04
  Q 30.79 254.28 33.16 270.22
  C 34.71 280.72 37.42 290.81 43.09 299.69
  A 0.34 0.34 0.0 0 1 42.67 300.19
  L 41.54 299.73
  Z"
/>
<path fill="#deb28c" d="
  M 93.38 207.71
  Q 93.25 214.41 86.19 214.72
  Q 84.41 214.80 78.69 212.36
  A 6.27 5.26 59.5 0 0 77.90 212.08
  C 69.35 209.58 62.61 208.72 57.47 202.35
  Q 56.29 200.88 57.14 198.38
  Q 58.13 195.48 61.79 193.96
  C 64.10 193.01 68.30 194.18 71.92 195.31
  Q 81.86 198.39 88.94 202.53
  Q 91.03 203.76 92.94 206.32
  A 2.24 2.23 27.5 0 1 93.38 207.71
  Z
  M 58.43 200.27
  C 60.10 204.42 65.61 205.38 70.38 206.69
  C 76.31 208.31 81.83 210.32 86.71 212.24
  A 2.91 2.91 0.0 0 0 89.58 211.81
  C 95.54 207.09 85.51 202.02 81.89 200.84
  Q 74.51 198.44 67.02 196.15
  Q 61.84 194.57 58.66 198.64
  A 1.66 1.66 0.0 0 0 58.43 200.27
  Z"
/>
<path fill="#deb28c" d="
  M 226.79 204.03
  C 223.71 207.53 219.18 208.17 215.08 209.54
  C 208.15 211.85 202.35 215.68 194.65 214.56
  A 1.46 1.43 -11.2 0 1 193.63 213.89
  C 188.94 206.33 196.34 201.67 202.30 199.30
  Q 210.42 196.08 218.26 194.22
  C 220.54 193.68 224.46 193.50 225.98 195.78
  Q 228.70 199.89 227.40 203.05
  A 3.47 3.38 -13.8 0 1 226.79 204.03
  Z
  M 196.80 212.40
  L 225.57 203.16
  A 2.04 2.04 0.0 0 0 226.89 200.60
  L 226.50 199.39
  A 7.19 5.31 -17.8 0 0 218.04 196.53
  L 199.07 202.62
  A 7.19 5.31 -17.8 0 0 193.85 209.87
  L 194.23 211.08
  A 2.04 2.04 0.0 0 0 196.80 212.40
  Z"
/>
<path fill="#522e16" d="
  M 58.43 200.27
  A 1.66 1.66 0.0 0 1 58.66 198.64
  Q 61.84 194.57 67.02 196.15
  Q 74.51 198.44 81.89 200.84
  C 85.51 202.02 95.54 207.09 89.58 211.81
  A 2.91 2.91 0.0 0 1 86.71 212.24
  C 81.83 210.32 76.31 208.31 70.38 206.69
  C 65.61 205.38 60.10 204.42 58.43 200.27
  Z"
/>
<path fill="#522e16" d="
  M 196.80 212.40
  A 2.04 2.04 0.0 0 1 194.23 211.08
  L 193.85 209.87
  A 7.19 5.31 -17.8 0 1 199.07 202.62
  L 218.04 196.53
  A 7.19 5.31 -17.8 0 1 226.50 199.39
  L 226.89 200.60
  A 2.04 2.04 0.0 0 1 225.57 203.16
  L 196.80 212.40
  Z"
/>
<path fill="#a27b58" d="
  M 93.60 299.96
  C 91.40 295.28 90.45 291.32 89.23 285.57
  Q 88.22 280.86 88.33 276.22
  Q 88.43 272.21 88.01 258.00
  Q 87.70 247.48 90.08 237.04
  Q 93.54 221.83 104.36 211.13
  Q 107.46 208.05 116.08 204.09
  C 120.14 202.22 125.48 202.06 130.33 201.26
  Q 132.87 200.84 136.13 200.83
  Q 144.20 200.81 154.43 200.89
  A 2.21 1.58 -27.8 0 1 154.72 200.93
  L 168.62 204.02
  A 10.90 10.74 -22.7 0 1 171.93 205.35
  Q 175.42 207.47 180.67 211.49
  Q 181.56 212.17 185.46 217.51
  C 189.51 223.06 191.85 231.13 193.54 237.70
  Q 195.04 243.55 195.39 251.93
  Q 196.11 268.77 195.34 278.98
  Q 194.15 294.79 186.17 308.12
  C 183.92 311.87 181.52 313.07 177.34 315.89
  C 170.23 320.67 158.86 323.07 151.01 323.56
  Q 136.54 324.45 122.79 321.63
  Q 110.52 319.12 102.60 312.73
  Q 97.77 308.84 93.60 299.96
  Z
  M 174.64 228.44
  C 175.20 226.03 171.89 223.71 169.72 222.98
  A 2.17 2.14 -41.4 0 0 168.64 222.92
  Q 165.48 223.56 163.65 224.67
  C 160.27 226.71 154.39 231.84 154.32 236.27
  C 154.17 245.65 170.42 233.45 172.86 231.59
  Q 174.12 230.63 174.64 228.44
  Z
  M 129.47 238.99
  C 131.58 236.69 128.33 231.86 126.52 230.25
  Q 123.56 227.60 119.15 224.66
  A 6.05 6.03 -47.4 0 0 112.04 224.97
  L 111.60 225.31
  A 3.97 3.97 0.0 0 0 111.63 231.54
  Q 116.79 235.60 122.65 238.76
  C 125.69 240.40 127.00 241.70 129.47 238.99
  Z
  M 146.60 288.58
  Q 146.16 287.31 146.13 286.73
  Q 145.42 273.70 145.22 246.00
  A 2.55 2.54 86.5 0 0 142.38 243.49
  L 142.04 243.51
  A 2.91 2.91 0.0 0 0 139.31 246.45
  L 139.75 287.43
  A 1.98 1.97 73.4 0 1 138.85 289.11
  L 133.66 292.48
  A 8.97 8.83 -72.0 0 1 132.08 293.30
  Q 126.86 295.42 121.33 299.01
  C 119.16 300.42 117.93 302.15 119.75 304.30
  A 1.43 1.41 68.3 0 0 120.92 304.81
  C 129.09 304.35 133.38 301.30 141.89 296.12
  A 1.61 1.50 22.7 0 1 142.46 295.91
  C 145.07 295.52 150.61 300.06 152.10 301.15
  Q 153.88 302.45 161.72 305.10
  Q 164.09 305.90 166.31 303.75
  A 1.08 1.06 -29.9 0 0 166.60 302.71
  Q 165.58 298.69 163.26 297.73
  Q 155.44 294.48 147.60 289.81
  A 2.34 2.31 -84.6 0 1 146.60 288.58
  Z"
/>
<path fill="#522e16" d="
  M 174.64 228.44
  Q 174.12 230.63 172.86 231.59
  C 170.42 233.45 154.17 245.65 154.32 236.27
  C 154.39 231.84 160.27 226.71 163.65 224.67
  Q 165.48 223.56 168.64 222.92
  A 2.17 2.14 -41.4 0 1 169.72 222.98
  C 171.89 223.71 175.20 226.03 174.64 228.44
  Z"
/>
<path fill="#522e16" d="
  M 129.47 238.99
  C 127.00 241.70 125.69 240.40 122.65 238.76
  Q 116.79 235.60 111.63 231.54
  A 3.97 3.97 0.0 0 1 111.60 225.31
  L 112.04 224.97
  A 6.05 6.03 -47.4 0 1 119.15 224.66
  Q 123.56 227.60 126.52 230.25
  C 128.33 231.86 131.58 236.69 129.47 238.99
  Z"
/>
<path fill="#522e16" d="
  M 146.60 288.58
  A 2.34 2.31 -84.6 0 0 147.60 289.81
  Q 155.44 294.48 163.26 297.73
  Q 165.58 298.69 166.60 302.71
  A 1.08 1.06 -29.9 0 1 166.31 303.75
  Q 164.09 305.90 161.72 305.10
  Q 153.88 302.45 152.10 301.15
  C 150.61 300.06 145.07 295.52 142.46 295.91
  A 1.61 1.50 22.7 0 0 141.89 296.12
  C 133.38 301.30 129.09 304.35 120.92 304.81
  A 1.43 1.41 68.3 0 1 119.75 304.30
  C 117.93 302.15 119.16 300.42 121.33 299.01
  Q 126.86 295.42 132.08 293.30
  A 8.97 8.83 -72.0 0 0 133.66 292.48
  L 138.85 289.11
  A 1.98 1.97 73.4 0 0 139.75 287.43
  L 139.31 246.45
  A 2.91 2.91 0.0 0 1 142.04 243.51
  L 142.38 243.49
  A 2.55 2.54 86.5 0 1 145.22 246.00
  Q 145.42 273.70 146.13 286.73
  Q 146.16 287.31 146.60 288.58
  Z"
/>
<path fill="#deb28c" d="
  M 205.02 443.52
  L 204.70 443.47
  A 0.48 0.47 33.0 0 1 204.51 442.60
  C 207.57 440.68 211.07 439.65 214.44 437.67
  Q 224.15 431.97 231.85 425.96
  Q 240.76 419.00 246.57 411.10
  C 254.39 400.48 259.63 389.94 263.05 377.72
  C 264.14 373.87 265.88 368.26 266.54 363.94
  Q 269.25 346.33 266.67 328.24
  Q 266.39 326.27 264.63 317.91
  Q 263.58 312.92 261.89 307.78
  Q 260.72 304.23 257.51 292.89
  A 0.87 0.87 0.0 0 0 255.87 292.79
  Q 249.65 307.51 235.14 318.48
  Q 234.67 318.83 234.11 318.42
  Q 233.46 317.94 234.12 317.10
  Q 239.72 313.10 241.58 311.07
  Q 251.52 300.22 256.04 286.00
  A 0.36 0.36 0.0 0 1 256.71 285.98
  Q 261.06 297.16 264.23 307.63
  C 266.06 313.70 266.77 319.87 267.84 325.54
  Q 271.99 347.54 266.89 370.94
  Q 260.55 400.10 240.85 420.11
  Q 226.43 434.76 205.02 443.52
  Z"
/>
<path fill="#deb28c" d="
  M 43.82 368.49
  C 41.43 371.66 43.63 377.93 45.07 382.19
  Q 49.73 395.99 59.13 407.39
  Q 64.14 413.46 72.85 422.21
  C 76.19 425.56 79.18 429.81 81.09 432.71
  Q 84.82 438.41 87.53 440.27
  C 90.94 442.62 100.08 445.41 103.76 441.46
  A 1.27 1.26 24.6 0 1 104.85 441.06
  L 107.75 441.44
  A 2.41 2.34 41.1 0 0 108.50 441.40
  Q 116.91 439.49 119.22 431.18
  A 0.82 0.81 8.8 0 1 120.05 430.58
  C 123.58 430.75 128.24 426.15 128.89 422.81
  C 131.10 411.37 121.30 404.04 116.88 394.74
  Q 112.61 385.76 110.03 376.99
  Q 106.33 364.41 106.18 363.80
  Q 105.37 360.38 101.95 359.24
  A 2.20 1.83 -73.8 0 0 99.50 360.89
  Q 98.69 364.03 99.57 367.49
  Q 103.08 381.34 108.32 394.56
  C 109.55 397.66 111.54 401.92 112.95 403.79
  Q 115.02 406.54 116.76 409.41
  L 116.63 410.15
  A 0.39 0.38 -71.5 0 1 116.08 410.43
  Q 115.27 410.01 114.93 409.34
  Q 113.56 406.59 111.53 404.44
  A 1.89 1.83 10.4 0 1 111.23 404.02
  L 105.09 392.73
  Q 102.33 386.02 99.43 378.83
  Q 97.75 374.69 96.86 368.34
  Q 95.95 361.83 100.09 357.00
  A 1.58 1.58 0.0 0 1 102.06 356.65
  C 109.27 360.70 109.78 368.48 111.89 376.44
  Q 112.75 379.69 119.91 396.72
  A 16.24 15.81 16.0 0 0 121.82 400.06
  C 124.50 403.64 127.77 407.93 129.23 412.48
  A 1.92 1.88 -73.4 0 0 129.52 413.03
  C 134.94 419.87 129.78 429.37 122.63 432.00
  A 4.61 4.46 13.3 0 0 121.15 432.88
  Q 120.46 433.48 117.66 437.64
  Q 115.85 440.33 112.54 442.04
  Q 106.98 444.92 100.96 446.56
  A 0.86 0.86 0.0 0 0 100.94 448.21
  Q 108.22 450.37 116.90 451.17
  C 128.51 452.25 141.52 452.28 153.10 451.93
  Q 168.25 451.47 183.80 447.84
  A 0.79 0.79 0.0 0 0 184.09 446.43
  Q 179.84 443.26 175.10 442.68
  C 171.41 442.23 167.82 437.28 164.65 433.64
  C 162.73 431.45 159.91 430.01 158.19 427.61
  Q 153.01 420.37 157.13 412.17
  C 159.54 407.37 164.38 399.63 167.26 393.70
  Q 169.78 388.50 173.00 376.75
  Q 174.36 371.76 178.86 361.59
  C 179.69 359.69 181.63 358.15 183.56 357.54
  A 3.01 2.62 -19.4 0 1 187.12 358.95
  Q 188.56 362.44 188.29 365.76
  Q 187.20 379.06 180.34 388.97
  Q 181.25 385.82 182.29 382.86
  Q 183.44 379.63 184.06 376.75
  Q 186.47 365.60 186.93 362.84
  A 2.72 2.71 4.7 0 0 184.25 359.69
  L 184.09 359.69
  A 4.31 4.30 8.4 0 0 179.95 362.76
  Q 174.26 381.77 171.29 389.81
  Q 168.89 396.32 162.64 405.78
  C 161.07 408.15 160.72 409.18 159.37 411.74
  C 156.66 416.94 156.58 422.34 159.98 427.24
  A 2.30 2.26 87.1 0 0 160.74 427.94
  L 164.21 429.95
  A 1.18 1.00 80.7 0 1 164.48 430.18
  L 171.31 438.75
  A 4.24 4.22 -14.6 0 0 173.95 440.29
  Q 177.79 440.91 180.47 440.17
  A 1.06 1.04 64.4 0 1 181.61 440.58
  Q 184.69 444.94 190.66 442.70
  A 2.75 2.74 -48.8 0 1 192.23 442.59
  L 194.02 442.98
  A 1.65 1.62 -56.4 0 0 195.36 442.70
  Q 200.16 439.14 202.46 435.94
  C 206.05 430.94 209.08 425.84 213.54 421.64
  Q 217.83 417.60 223.25 411.82
  Q 228.87 405.81 234.35 396.77
  C 238.12 390.55 240.78 382.45 242.44 376.73
  Q 243.49 373.08 243.37 369.58
  A 2.62 2.33 -88.1 0 0 241.31 367.10
  Q 237.97 366.71 236.50 369.21
  A 2.55 2.52 -22.9 0 0 236.22 369.89
  Q 229.47 396.85 208.53 414.86
  L 207.96 414.84
  A 0.43 0.42 -70.2 0 1 207.64 414.15
  L 209.32 411.99
  Q 210.88 410.11 213.10 408.15
  Q 215.46 406.04 216.80 404.27
  Q 223.75 395.12 226.41 390.94
  Q 230.18 385.04 232.66 377.18
  Q 233.91 373.21 233.98 370.79
  Q 234.02 369.63 236.39 365.88
  A 1.13 1.09 -72.6 0 1 237.34 365.36
  Q 241.16 365.37 243.42 366.70
  Q 246.27 368.39 245.27 372.48
  Q 240.39 392.58 228.58 407.85
  Q 226.14 411.01 209.28 428.50
  A 5.76 5.17 86.9 0 0 208.63 429.31
  Q 202.55 438.52 200.37 440.85
  Q 198.04 443.34 198.78 445.81
  Q 193.49 448.02 190.32 448.85
  Q 180.59 451.40 169.24 453.18
  Q 126.80 459.82 86.41 447.52
  Q 80.78 445.80 69.86 440.69
  C 56.53 434.45 42.39 423.84 33.42 412.16
  Q 24.05 399.96 18.27 386.05
  C 10.14 366.47 9.73 342.12 13.41 321.21
  Q 14.04 317.61 16.70 306.48
  C 17.87 301.60 20.45 296.29 21.98 291.01
  Q 23.18 290.46 23.32 291.08
  Q 23.65 292.55 23.04 293.97
  Q 18.01 305.72 16.05 317.98
  C 15.54 321.15 14.91 322.74 14.19 325.30
  A 4.48 4.08 57.6 0 0 14.02 326.27
  Q 12.98 339.38 13.42 354.00
  Q 13.71 363.38 16.74 372.34
  A 4.18 4.10 34.1 0 1 16.93 373.28
  Q 17.27 377.12 18.91 381.11
  Q 18.98 381.29 19.26 382.20
  Q 20.88 387.54 24.94 396.60
  Q 26.68 400.48 33.58 410.46
  C 36.21 414.27 40.36 417.32 43.27 420.63
  A 3.17 2.94 80.8 0 0 44.17 421.33
  Q 46.43 422.47 47.32 423.87
  A 1.67 1.65 -6.2 0 0 48.14 424.52
  Q 49.11 424.88 52.25 427.61
  C 55.80 430.71 59.43 433.13 64.01 435.91
  Q 69.67 439.36 75.32 441.16
  Q 77.40 441.83 79.45 441.92
  A 1.62 1.61 -86.3 0 0 81.13 440.44
  C 81.25 438.96 80.31 437.03 79.85 435.73
  Q 78.41 431.69 75.56 428.66
  Q 75.04 428.12 74.68 427.12
  A 2.15 2.12 -76.6 0 0 74.22 426.36
  Q 60.57 412.03 58.20 409.03
  Q 54.71 404.62 49.05 395.57
  Q 45.69 390.20 43.91 384.96
  Q 40.60 375.24 40.30 373.71
  Q 39.46 369.45 43.04 367.19
  A 0.53 0.53 0.0 0 1 43.80 367.40
  Q 44.00 367.80 43.82 368.49
  Z"
/>
<path fill="#a27b58" d="
  M 182.85 340.07
  A 1.39 1.39 0.0 0 1 183.47 342.71
  Q 176.60 346.06 171.47 350.14
  Q 170.20 351.15 166.55 352.71
  C 162.91 354.26 158.42 355.02 155.48 355.87
  Q 153.24 356.52 149.55 356.75
  Q 139.68 357.38 135.74 356.68
  Q 130.87 355.82 121.92 353.85
  C 118.55 353.11 113.60 350.49 110.04 347.44
  Q 107.70 345.44 102.46 341.90
  A 1.25 1.24 -35.8 0 1 102.83 339.67
  Q 102.99 339.62 104.51 339.70
  Q 108.64 339.92 112.01 340.71
  C 118.73 342.30 123.21 342.37 130.99 343.55
  C 143.35 345.43 156.51 343.52 169.45 342.41
  C 174.11 342.01 178.54 340.10 182.85 340.07
  Z"
/>
<path fill="#522e16" d="
  M 43.82 368.49
  C 47.16 366.18 49.07 368.61 50.04 371.77
  Q 52.39 379.46 53.55 382.22
  Q 57.03 390.42 62.76 399.11
  C 66.18 404.29 70.87 408.21 75.29 413.26
  A 4.13 4.09 85.6 0 0 76.18 414.03
  Q 79.26 416.04 80.43 417.83
  C 85.02 424.83 87.64 429.39 91.25 433.06
  Q 94.42 436.19 98.52 435.27
  A 0.92 0.92 0.0 0 0 99.18 434.04
  Q 98.07 431.24 97.79 428.90
  A 1.90 1.39 79.5 0 1 98.72 426.97
  C 101.91 425.96 103.59 429.23 105.10 431.77
  A 2.30 2.29 -20.0 0 0 107.47 432.87
  Q 109.71 432.49 110.91 431.64
  A 2.61 2.61 0.0 0 0 111.95 428.95
  C 111.18 425.42 109.52 420.06 111.94 418.05
  A 1.70 1.64 52.3 0 1 114.37 418.41
  Q 116.30 421.13 119.32 422.33
  A 1.13 1.13 0.0 0 0 120.85 421.05
  L 120.43 418.97
  A 1.18 1.07 47.9 0 1 120.43 418.50
  C 121.15 415.36 118.71 412.04 116.76 409.41
  Q 115.02 406.54 112.95 403.79
  C 111.54 401.92 109.55 397.66 108.32 394.56
  Q 103.08 381.34 99.57 367.49
  Q 98.69 364.03 99.50 360.89
  A 2.20 1.83 -73.8 0 1 101.95 359.24
  Q 105.37 360.38 106.18 363.80
  Q 106.33 364.41 110.03 376.99
  Q 112.61 385.76 116.88 394.74
  C 121.30 404.04 131.10 411.37 128.89 422.81
  C 128.24 426.15 123.58 430.75 120.05 430.58
  A 0.82 0.81 8.8 0 0 119.22 431.18
  Q 116.91 439.49 108.50 441.40
  A 2.41 2.34 41.1 0 1 107.75 441.44
  L 104.85 441.06
  A 1.27 1.26 24.6 0 0 103.76 441.46
  C 100.08 445.41 90.94 442.62 87.53 440.27
  Q 84.82 438.41 81.09 432.71
  C 79.18 429.81 76.19 425.56 72.85 422.21
  Q 64.14 413.46 59.13 407.39
  Q 49.73 395.99 45.07 382.19
  C 43.63 377.93 41.43 371.66 43.82 368.49
  Z"
/>
<path fill="#522e16" d="
  M 180.34 388.97
  Q 176.37 399.15 170.88 408.19
  Q 167.80 411.93 165.83 416.14
  C 165.08 417.75 164.78 421.50 167.07 422.07
  A 1.15 1.13 32.0 0 0 168.07 421.85
  L 172.56 418.28
  A 1.63 1.63 0.0 0 1 174.82 418.50
  C 177.49 421.65 175.70 424.13 174.12 427.87
  Q 172.60 431.44 176.37 432.77
  A 1.90 1.90 0.0 0 0 178.47 432.18
  C 180.63 429.55 183.39 426.95 186.78 426.39
  A 1.08 1.08 0.0 0 1 188.03 427.53
  Q 187.84 430.05 186.32 432.74
  A 1.24 1.23 38.9 0 0 186.48 434.19
  Q 187.48 435.29 189.40 435.72
  A 1.03 0.98 -52.2 0 0 190.13 435.61
  L 195.33 432.61
  A 2.64 2.50 1.6 0 0 196.10 431.92
  L 208.53 414.86
  Q 229.47 396.85 236.22 369.89
  A 2.55 2.52 -22.9 0 1 236.50 369.21
  Q 237.97 366.71 241.31 367.10
  A 2.62 2.33 -88.1 0 1 243.37 369.58
  Q 243.49 373.08 242.44 376.73
  C 240.78 382.45 238.12 390.55 234.35 396.77
  Q 228.87 405.81 223.25 411.82
  Q 217.83 417.60 213.54 421.64
  C 209.08 425.84 206.05 430.94 202.46 435.94
  Q 200.16 439.14 195.36 442.70
  A 1.65 1.62 -56.4 0 1 194.02 442.98
  L 192.23 442.59
  A 2.75 2.74 -48.8 0 0 190.66 442.70
  Q 184.69 444.94 181.61 440.58
  A 1.06 1.04 64.4 0 0 180.47 440.17
  Q 177.79 440.91 173.95 440.29
  A 4.24 4.22 -14.6 0 1 171.31 438.75
  L 164.48 430.18
  A 1.18 1.00 80.7 0 0 164.21 429.95
  L 160.74 427.94
  A 2.30 2.26 87.1 0 1 159.98 427.24
  C 156.58 422.34 156.66 416.94 159.37 411.74
  C 160.72 409.18 161.07 408.15 162.64 405.78
  Q 168.89 396.32 171.29 389.81
  Q 174.26 381.77 179.95 362.76
  A 4.31 4.30 8.4 0 1 184.09 359.69
  L 184.25 359.69
  A 2.72 2.71 4.7 0 1 186.93 362.84
  Q 186.47 365.60 184.06 376.75
  Q 183.44 379.63 182.29 382.86
  Q 181.25 385.82 180.34 388.97
  Z"
/>
<path fill="#a27b58" d="
  M 105.09 392.73
  L 111.23 404.02
  A 1.89 1.83 10.4 0 0 111.53 404.44
  Q 113.56 406.59 114.93 409.34
  Q 115.27 410.01 116.08 410.43
  A 0.39 0.38 -71.5 0 0 116.63 410.15
  L 116.76 409.41
  C 118.71 412.04 121.15 415.36 120.43 418.50
  A 1.18 1.07 47.9 0 0 120.43 418.97
  L 120.85 421.05
  A 1.13 1.13 0.0 0 1 119.32 422.33
  Q 116.30 421.13 114.37 418.41
  A 1.70 1.64 52.3 0 0 111.94 418.05
  C 109.52 420.06 111.18 425.42 111.95 428.95
  A 2.61 2.61 0.0 0 1 110.91 431.64
  Q 109.71 432.49 107.47 432.87
  A 2.30 2.29 -20.0 0 1 105.10 431.77
  C 103.59 429.23 101.91 425.96 98.72 426.97
  A 1.90 1.39 79.5 0 0 97.79 428.90
  Q 98.07 431.24 99.18 434.04
  A 0.92 0.92 0.0 0 1 98.52 435.27
  Q 94.42 436.19 91.25 433.06
  Q 91.87 433.13 92.10 432.95
  Q 92.35 432.76 91.97 432.22
  Q 88.00 426.60 84.16 420.88
  Q 81.98 417.64 78.54 414.72
  Q 77.28 413.66 77.26 411.50
  A 1.82 1.79 -28.4 0 1 77.57 410.49
  Q 82.98 402.34 91.03 397.61
  Q 92.71 396.62 97.92 395.24
  Q 101.53 394.28 105.09 392.73
  Z"
/>
<path fill="#a27b58" d="
  M 209.32 411.99
  L 207.64 414.15
  A 0.43 0.42 -70.2 0 0 207.96 414.84
  L 208.53 414.86
  L 196.10 431.92
  A 2.64 2.50 1.6 0 1 195.33 432.61
  L 190.13 435.61
  A 1.03 0.98 -52.2 0 1 189.40 435.72
  Q 187.48 435.29 186.48 434.19
  A 1.24 1.23 38.9 0 1 186.32 432.74
  Q 187.84 430.05 188.03 427.53
  A 1.08 1.08 0.0 0 0 186.78 426.39
  C 183.39 426.95 180.63 429.55 178.47 432.18
  A 1.90 1.90 0.0 0 1 176.37 432.77
  Q 172.60 431.44 174.12 427.87
  C 175.70 424.13 177.49 421.65 174.82 418.50
  A 1.63 1.63 0.0 0 0 172.56 418.28
  L 168.07 421.85
  A 1.15 1.13 32.0 0 1 167.07 422.07
  C 164.78 421.50 165.08 417.75 165.83 416.14
  Q 167.80 411.93 170.88 408.19
  L 170.47 409.44
  A 0.34 0.33 -16.7 0 0 171.05 409.75
  Q 176.61 402.82 178.16 396.76
  A 2.62 2.61 -83.6 0 1 180.61 394.79
  C 184.67 394.66 188.30 394.86 192.49 397.10
  Q 199.85 401.03 201.83 402.40
  Q 207.10 406.06 209.32 411.99
  Z"
/>
<path fill="#a27b58" d="
  M 196.95 478.05
  A 0.32 0.32 0.0 0 1 196.45 477.70
  Q 197.57 474.08 197.44 472.24
  A 2.57 2.49 -11.3 0 0 194.08 470.07
  Q 193.10 470.39 192.75 471.72
  Q 191.02 478.29 185.96 481.42
  Q 184.84 482.11 183.49 482.04
  A 1.23 1.22 10.8 0 1 182.39 480.43
  Q 183.28 477.77 184.14 472.98
  C 184.66 470.02 180.89 468.47 179.30 471.35
  Q 177.08 475.36 176.98 479.00
  A 0.95 0.94 -60.2 0 1 175.23 479.48
  L 174.29 477.96
  A 1.68 1.18 -84.3 0 1 174.20 477.77
  L 170.84 468.54
  A 2.83 2.67 38.2 0 1 170.68 467.46
  Q 170.82 464.47 170.15 462.11
  A 0.77 0.77 0.0 0 1 171.01 461.14
  Q 173.45 461.51 175.46 461.10
  Q 193.23 457.39 209.10 451.40
  A 0.41 0.41 0.0 0 1 209.61 451.97
  L 208.13 454.81
  A 1.14 1.11 -25.9 0 0 208.04 455.06
  Q 206.08 464.07 201.41 472.64
  Q 199.52 476.10 196.95 478.05
  Z"
/>
<path fill="#a27b58" d="
  M 73.75 452.62
  A 0.53 0.53 0.0 0 1 74.41 451.97
  C 78.87 453.27 82.27 455.00 86.77 456.29
  Q 99.58 459.95 112.20 462.05
  A 0.95 0.95 0.0 0 1 112.98 463.08
  Q 112.36 469.12 111.75 474.71
  Q 111.38 478.09 108.44 479.97
  A 1.31 1.31 0.0 0 1 106.45 479.13
  L 104.96 471.84
  A 2.37 2.37 0.0 0 0 102.16 469.99
  L 101.57 470.11
  A 2.05 2.04 -11.6 0 0 99.97 472.52
  L 101.91 482.04
  A 1.14 1.14 0.0 0 1 101.00 483.39
  Q 97.32 484.06 95.67 481.15
  Q 94.16 478.49 91.88 471.76
  A 2.63 2.62 72.3 0 0 88.63 470.08
  L 88.33 470.17
  A 2.57 2.57 0.0 0 0 86.68 473.50
  L 88.51 478.53
  A 0.39 0.39 0.0 0 1 88.25 479.04
  Q 87.81 479.17 87.58 479.04
  C 83.68 476.88 80.21 469.40 78.86 465.59
  C 77.15 460.77 74.90 456.60 73.75 452.62
  Z"
/>
</svg>
