<?xml version="1.0" encoding="UTF-8" standalone="no"?>
<!DOCTYPE svg PUBLIC "-//W3C//DTD SVG 1.1//EN" "http://www.w3.org/Graphics/SVG/1.1/DTD/svg11.dtd">
<svg xmlns="http://www.w3.org/2000/svg" version="1.1" viewBox="0.00 0.00 284.00 424.00">
<g stroke-width="2.00" fill="none" stroke-linecap="butt">
<path stroke="#88603b" vector-effect="non-scaling-stroke" d="
  M 159.64 79.85
  Q 159.71 81.08 159.88 81.64
  Q 160.01 82.07 160.64 82.39
  Q 161.14 82.65 161.73 82.63"
/>
<path stroke="#724f2f" vector-effect="non-scaling-stroke" d="
  M 127.25 81.99
  Q 127.74 81.91 128.05 81.68
  Q 128.39 81.44 128.21 81.21
  Q 128.08 81.04 127.71 80.99"
/>
<path stroke="#7a5336" vector-effect="non-scaling-stroke" d="
  M 44.56 171.56
  Q 47.68 171.30 48.34 168.19"
/>
<path stroke="#9d7e45" vector-effect="non-scaling-stroke" d="
  M 107.79 55.11
  L 113.73 56.55
  A 1.50 1.50 0.0 0 1 114.88 58.07
  Q 114.77 60.57 116.02 62.96
  Q 117.96 66.69 120.32 69.34"
/>
<path stroke="#a0885a" vector-effect="non-scaling-stroke" d="
  M 120.32 69.34
  Q 125.83 74.61 132.35 76.14
  Q 142.55 78.53 154.15 76.60
  Q 164.17 74.92 170.82 65.07
  C 172.09 63.18 172.43 60.19 172.57 57.95
  A 1.71 1.70 89.8 0 1 174.14 56.36
  Q 180.71 55.89 185.53 52.78
  A 1.84 1.84 0.0 0 0 186.16 50.38
  C 183.79 45.88 178.03 43.89 173.54 41.75
  Q 171.66 40.85 171.23 38.76
  Q 170.16 33.60 168.48 27.26
  C 164.11 10.80 148.22 3.85 132.47 10.53
  A 5.57 5.54 -77.1 0 0 130.98 11.47
  L 125.56 16.26
  A 5.34 5.13 83.7 0 0 124.34 17.85
  Q 123.26 20.01 121.61 22.59
  Q 120.41 24.45 119.00 30.23
  C 118.14 33.75 117.27 40.78 113.88 42.39
  C 109.69 44.37 104.67 45.96 101.95 50.44
  A 1.52 1.51 28.6 0 0 102.59 52.59
  L 107.79 55.11"
/>
<path stroke="#f8e199" vector-effect="non-scaling-stroke" d="
  M 120.32 69.34
  Q 123.70 69.45 126.92 70.85
  Q 130.25 72.30 131.39 72.50
  Q 133.12 72.80 136.12 73.05
  Q 144.85 73.76 152.21 72.88
  Q 164.66 71.38 169.31 60.50
  C 171.86 54.52 176.15 53.42 181.70 51.36
  A 1.07 1.07 0.0 0 0 181.91 49.47
  C 176.53 45.91 170.15 44.11 168.03 37.22
  Q 166.73 32.98 165.71 29.74
  A 0.85 0.84 -19.6 0 0 164.58 29.21
  Q 163.06 29.84 161.14 29.59"
/>
<path stroke="#a88c62" vector-effect="non-scaling-stroke" d="
  M 161.14 29.59
  Q 164.54 26.05 160.41 22.76"
/>
<path stroke="#f8e199" vector-effect="non-scaling-stroke" d="
  M 160.41 22.76
  Q 160.18 17.89 158.74 16.02
  Q 157.08 13.87 154.60 13.20
  Q 145.85 10.81 137.06 12.39
  C 131.17 13.45 127.44 17.09 126.82 23.02"
/>
<path stroke="#a88c62" vector-effect="non-scaling-stroke" d="
  M 126.82 23.02
  L 126.06 24.09"
/>
<path stroke="#f8e199" vector-effect="non-scaling-stroke" d="
  M 126.06 24.09
  Q 122.55 26.28 121.88 29.15
  Q 120.39 35.45 118.90 39.41
  Q 117.51 43.09 113.09 44.96
  C 111.01 45.84 109.41 47.18 107.68 48.21
  A 1.36 1.33 83.3 0 0 107.07 49.00
  Q 106.18 52.04 107.79 55.11"
/>
<path stroke="#a5824c" vector-effect="non-scaling-stroke" d="
  M 160.41 22.76
  Q 158.20 21.82 156.84 22.99
  Q 155.58 24.08 155.65 26.42
  Q 155.80 31.19 161.14 29.59"
/>
<path stroke="#a5824c" vector-effect="non-scaling-stroke" d="
  M 126.06 24.09
  Q 125.02 25.84 125.55 26.75
  C 126.67 28.65 129.54 30.98 131.53 28.69
  C 134.72 25.01 130.04 19.79 126.82 23.02"
/>
<path stroke="#a5824c" vector-effect="non-scaling-stroke" d="
  M 144.39 39.61
  Q 148.89 39.55 152.27 36.79
  C 156.90 33.01 148.06 25.53 144.19 25.59
  C 140.32 25.64 131.69 33.37 136.43 37.02
  Q 139.89 39.68 144.39 39.61"
/>
<path stroke="#a5824c" vector-effect="non-scaling-stroke" d="
  M 139.45 34.08
  L 148.49 33.86
  A 0.11 0.11 0.0 0 0 148.59 33.75
  L 148.59 33.73
  A 4.50 3.01 -1.4 0 0 144.02 30.83
  L 143.76 30.83
  A 4.50 3.01 -1.4 0 0 139.34 33.95
  L 139.34 33.97
  A 0.11 0.11 0.0 0 0 139.45 34.08"
/>
<path stroke="#916442" vector-effect="non-scaling-stroke" d="
  M 63.69 171.83
  C 60.07 178.31 56.49 183.33 54.73 190.80
  Q 54.71 190.85 54.69 190.90
  L 48.53 208.28"
/>
<path stroke="#9a7153" vector-effect="non-scaling-stroke" d="
  M 48.53 208.28
  C 45.74 215.59 42.44 223.16 40.51 230.46
  Q 39.06 235.91 38.01 240.19
  Q 31.16 268.10 45.89 293.16
  Q 49.93 300.04 51.13 302.15
  C 53.64 306.53 56.96 310.52 59.39 314.14
  A 1.68 1.67 -43.3 0 1 59.33 316.08
  Q 58.04 317.77 56.46 317.51
  A 2.43 2.37 -23.4 0 1 55.59 317.18
  Q 51.72 314.74 48.72 310.80
  Q 40.44 299.91 35.30 290.28
  C 25.38 271.68 26.60 247.91 32.64 227.87
  Q 34.22 222.62 40.51 205.62
  Q 41.21 203.71 41.84 201.77"
/>
<path stroke="#916442" vector-effect="non-scaling-stroke" d="
  M 41.84 201.77
  L 49.53 183.71"
/>
<path stroke="#9a7153" vector-effect="non-scaling-stroke" d="
  M 49.53 183.71
  L 53.20 176.58
  A 0.33 0.32 5.0 0 0 52.81 176.12
  Q 51.85 176.42 50.78 177.30
  C 41.85 184.56 36.62 192.92 29.06 204.26
  Q 21.20 216.04 17.05 231.28
  Q 13.22 245.33 12.11 254.55
  Q 10.35 269.11 12.10 283.61
  Q 12.60 287.74 14.16 294.88
  Q 16.17 304.00 16.83 305.98
  C 20.02 315.48 25.01 326.76 32.65 333.91
  Q 40.59 341.33 46.63 346.28
  A 0.22 0.22 0.0 0 0 46.98 346.05
  L 45.37 340.68"
/>
<path stroke="#916442" vector-effect="non-scaling-stroke" d="
  M 45.37 340.68
  L 44.16 330.38
  A 1.23 1.23 0.0 0 1 45.38 329.01
  L 48.18 329.01
  A 2.24 2.24 0.0 0 1 50.36 330.73
  Q 54.41 348.07 57.95 357.15
  Q 61.09 365.20 64.12 371.45
  Q 67.86 379.13 73.80 388.07
  C 76.49 392.11 79.06 394.90 82.44 399.14
  C 84.97 402.33 86.31 405.63 88.37 408.64
  Q 90.72 412.08 94.54 414.49
  A 0.27 0.27 0.0 0 0 94.95 414.24
  Q 94.83 412.49 93.86 411.50"
/>
<path stroke="#7a5336" vector-effect="non-scaling-stroke" d="
  M 93.86 411.50
  Q 93.83 410.01 94.15 409.24
  A 0.85 0.84 -76.1 0 1 95.00 408.72
  Q 97.46 408.91 98.34 410.02
  Q 102.51 415.35 109.24 412.85
  A 1.05 1.04 74.9 0 0 109.90 411.69
  C 109.29 408.32 109.37 406.42 108.23 403.79
  Q 107.40 401.87 109.45 400.03
  A 1.28 1.28 0.0 0 1 110.74 399.78
  Q 115.30 401.46 117.05 404.50"
/>
<path stroke="#916442" vector-effect="non-scaling-stroke" d="
  M 117.05 404.50
  Q 120.33 402.64 119.82 398.84
  Q 119.55 396.76 117.27 392.65
  Q 112.78 384.52 110.37 376.66
  Q 107.14 366.09 105.69 359.30
  Q 105.17 356.87 105.33 352.02
  A 1.98 1.98 0.0 0 1 106.07 350.54
  Q 107.14 349.68 107.72 348.44
  A 0.59 0.58 -58.8 0 1 108.60 348.22
  Q 109.23 348.68 109.34 349.76
  A 1.23 1.22 -72.6 0 0 109.78 350.61
  Q 111.18 351.77 111.52 353.28
  Q 113.87 363.61 114.00 364.14
  A 2.29 2.28 1.1 0 0 115.62 365.82
  C 126.84 368.89 137.36 369.20 148.85 369.01
  Q 157.37 368.87 160.13 368.30
  Q 163.06 367.70 171.11 365.50
  Q 173.70 364.79 174.17 361.93
  Q 174.73 358.47 175.57 353.80
  Q 175.84 352.31 178.36 349.18
  A 0.87 0.87 0.0 0 1 179.29 348.89
  Q 182.72 349.91 182.66 352.79
  Q 182.57 357.03 182.27 358.26
  Q 180.04 367.47 177.85 376.61
  C 177.12 379.63 175.85 382.71 174.83 385.95"
/>
<path stroke="#7a5336" vector-effect="non-scaling-stroke" d="
  M 174.83 385.95
  Q 172.36 390.76 169.37 396.58
  C 168.22 398.82 166.91 403.81 170.44 404.52
  A 1.22 1.20 27.3 0 0 171.53 404.18
  C 173.23 402.43 175.47 400.50 178.12 400.20
  A 1.61 1.61 0.0 0 1 179.90 402.03
  L 178.87 409.23
  A 1.51 1.49 66.6 0 1 178.62 409.87
  L 177.97 410.79
  A 1.63 1.62 28.2 0 0 178.71 413.23
  C 183.88 415.26 187.56 413.10 191.01 409.52
  A 0.91 0.91 0.0 0 1 192.37 409.57
  Q 193.54 411.00 192.94 412.91"
/>
<path stroke="#916442" vector-effect="non-scaling-stroke" d="
  M 192.94 412.91
  L 191.46 415.27
  A 0.43 0.43 0.0 0 0 192.04 415.87
  C 195.90 413.63 198.22 411.46 200.68 407.18
  Q 204.54 400.44 206.48 396.94
  A 2.85 2.73 -7.6 0 1 207.11 396.15
  Q 211.59 392.27 214.78 386.52
  C 219.87 377.34 225.09 368.32 228.82 357.85
  Q 233.99 343.38 237.14 329.42
  A 0.85 0.85 0.0 0 1 237.97 328.76
  L 241.85 328.76
  A 0.96 0.95 87.4 0 1 242.80 329.63
  Q 243.26 335.01 241.81 339.97"
/>
<path stroke="#9a7153" vector-effect="non-scaling-stroke" d="
  M 241.81 339.97
  Q 240.79 342.32 240.76 344.70
  A 0.26 0.26 0.0 0 0 241.20 344.90
  Q 250.09 337.11 257.47 327.56
  C 260.58 323.53 262.68 319.34 264.52 314.79
  Q 274.90 289.16 272.90 260.73
  Q 272.02 248.32 269.33 237.34
  Q 266.08 224.07 258.95 209.15
  Q 257.72 206.59 254.36 201.86
  Q 252.37 199.07 249.18 194.48
  Q 246.01 189.90 237.15 180.07
  Q 235.93 178.72 233.69 177.45
  A 0.35 0.35 0.0 0 0 233.25 177.98
  C 235.78 180.94 237.84 184.74 239.31 189.02
  Q 240.11 191.34 243.56 199.39
  Q 246.53 206.36 252.55 223.26
  C 255.45 231.42 257.58 241.14 258.36 249.32
  C 259.75 263.88 256.95 279.54 249.56 292.80
  Q 244.98 301.02 243.33 303.33
  Q 239.66 308.49 233.23 315.58
  A 5.86 5.84 25.1 0 1 228.04 317.45
  L 227.68 317.40
  A 2.11 2.11 0.0 0 1 226.22 314.14
  Q 237.41 297.41 242.63 288.39
  C 248.10 278.93 249.55 270.24 250.54 258.77
  Q 251.12 252.10 249.06 241.89
  Q 247.13 232.34 245.06 225.95
  Q 240.00 210.30 232.24 191.95"
/>
<path stroke="#916442" vector-effect="non-scaling-stroke" d="
  M 232.24 191.95
  Q 230.32 188.53 229.19 184.62
  A 7.27 6.94 -67.7 0 0 228.76 183.52
  L 222.65 171.02"
/>
<path stroke="#7a5336" vector-effect="non-scaling-stroke" d="
  M 222.65 171.02
  Q 227.72 167.99 231.20 163.57
  C 232.79 161.54 233.36 159.45 234.36 157.51
  C 238.10 150.28 236.63 141.07 232.00 134.89
  Q 226.90 128.10 218.63 130.69
  A 4.20 4.06 19.4 0 0 217.76 131.09
  Q 205.35 138.65 201.07 152.69"
/>
<path stroke="#9a7153" vector-effect="non-scaling-stroke" d="
  M 201.07 152.69
  Q 186.71 144.54 175.15 141.60
  Q 161.82 138.21 142.81 137.87
  Q 132.67 137.69 122.79 139.49
  Q 110.40 141.74 103.29 144.25
  Q 96.07 146.79 85.14 153.16"
/>
<path stroke="#7a5336" vector-effect="non-scaling-stroke" d="
  M 85.14 153.16
  Q 84.56 153.01 84.53 151.48
  A 3.68 3.61 32.5 0 0 84.18 149.97
  Q 80.78 142.81 79.11 140.13
  Q 76.08 135.28 69.17 131.12
  C 63.26 127.56 55.20 131.23 52.24 136.99
  Q 48.00 145.24 50.26 154.08
  C 51.16 157.60 53.82 161.13 55.82 164.92
  A 2.62 2.49 7.3 0 0 56.43 165.67
  L 63.69 171.83"
/>
<path stroke="#bf9774" vector-effect="non-scaling-stroke" d="
  M 85.14 153.16
  Q 85.30 153.75 84.14 154.45"
/>
<path stroke="#b68a63" vector-effect="non-scaling-stroke" d="
  M 84.14 154.45
  Q 73.18 162.18 63.69 171.83"
/>
<path stroke="#d6a780" vector-effect="non-scaling-stroke" d="
  M 210.44 159.76
  L 212.79 162.26
  A 0.75 0.75 0.0 0 1 211.79 163.38
  Q 207.10 159.87 203.24 157.31
  Q 182.92 143.83 158.16 140.83
  C 146.29 139.39 134.59 138.98 123.25 141.51
  C 112.07 143.99 100.49 147.84 90.02 153.21
  Q 87.31 154.60 84.14 154.45"
/>
<path stroke="#d6a780" vector-effect="non-scaling-stroke" d="
  M 232.24 191.95
  Q 230.96 192.51 230.67 193.22
  A 0.58 0.56 -44.3 0 0 230.66 193.62
  Q 235.53 207.84 241.78 223.74
  Q 246.09 234.71 247.90 246.74
  Q 248.61 251.50 248.38 254.06
  Q 247.91 259.24 248.07 261.44
  C 248.68 269.69 245.47 278.93 241.45 285.71
  Q 238.18 291.23 224.22 314.47
  A 1.73 1.72 35.6 0 0 224.59 316.68
  L 227.17 318.85
  A 1.14 1.10 60.8 0 0 228.03 319.11
  Q 232.35 318.57 236.07 314.81
  Q 243.63 307.18 248.77 298.69
  Q 254.21 289.68 256.86 279.86
  C 259.66 269.48 261.70 257.82 259.79 246.84
  Q 259.47 244.94 258.11 234.16
  C 257.49 229.27 254.62 223.37 252.84 217.44
  Q 250.04 208.09 245.39 197.11
  A 0.52 0.52 0.0 0 1 245.65 196.44
  Q 247.02 195.78 247.98 196.77
  Q 251.49 200.43 255.55 207.73
  Q 265.51 225.62 269.31 246.17
  Q 270.24 251.15 270.52 256.57
  C 270.98 265.42 271.63 272.01 270.62 279.44
  C 270.32 281.65 270.45 284.10 270.11 286.70
  Q 268.11 302.14 262.27 315.61
  Q 258.83 323.55 255.40 327.18
  Q 251.14 331.71 247.19 336.68
  Q 245.80 338.44 241.81 339.97"
/>
<path stroke="#b68a63" vector-effect="non-scaling-stroke" d="
  M 192.94 412.91
  Q 196.05 411.69 197.23 410.24
  Q 200.41 406.32 205.42 396.11
  Q 206.20 394.52 207.07 393.57
  A 1.19 1.18 41.5 0 0 206.96 391.87
  C 200.82 386.68 191.65 383.60 184.53 382.36
  Q 180.10 381.60 174.83 385.95"
/>
<path stroke="#b68a63" vector-effect="non-scaling-stroke" d="
  M 117.05 404.50
  C 118.59 397.99 116.64 393.22 113.49 388.05
  A 2.55 2.24 22.8 0 1 113.32 387.70
  Q 112.33 385.17 110.43 383.80
  A 2.14 2.14 0.0 0 0 109.47 383.40
  Q 105.27 382.72 98.12 384.58
  Q 87.98 387.23 80.72 392.32
  A 1.50 1.48 -35.4 0 0 80.36 394.41
  L 86.37 402.78
  A 1.52 1.50 17.9 0 1 86.49 403.01
  Q 89.00 409.21 93.86 411.50"
/>
<path stroke="#d6a780" vector-effect="non-scaling-stroke" d="
  M 45.37 340.68
  Q 41.43 339.66 38.89 337.12
  Q 34.88 333.12 28.89 325.88
  Q 25.54 321.84 20.87 312.94
  Q 19.83 310.96 18.49 306.17
  Q 17.79 303.70 17.27 302.86
  A 1.01 1.01 0.0 0 1 17.15 302.07
  Q 17.18 301.95 15.73 295.16
  Q 15.03 291.88 14.86 288.25
  Q 14.74 285.43 13.93 274.78
  Q 13.84 273.67 13.33 270.38
  Q 13.00 268.27 13.13 265.50
  Q 13.53 256.67 14.53 249.49
  Q 15.63 241.67 20.49 225.52
  C 21.65 221.64 23.76 218.28 25.29 214.59
  Q 27.13 210.14 28.84 207.60
  C 29.90 206.03 32.45 201.77 34.62 199.00
  Q 36.14 197.08 38.64 192.90
  Q 40.04 190.54 44.63 185.64
  Q 45.53 184.68 49.53 183.71"
/>
<path stroke="#d6a780" vector-effect="non-scaling-stroke" d="
  M 41.84 201.77
  L 42.34 199.01
  A 0.61 0.61 0.0 0 0 41.18 198.67
  Q 36.40 210.35 31.98 222.02
  Q 30.22 226.68 29.02 233.07
  C 26.56 246.18 24.62 257.24 26.47 268.79
  Q 27.11 272.84 30.35 283.10
  Q 32.14 288.81 36.70 296.39
  Q 44.01 308.55 46.56 311.74
  A 7.23 5.62 53.1 0 0 47.24 312.50
  C 49.07 314.32 52.82 317.95 56.09 319.12
  A 1.33 1.26 46.4 0 0 56.89 319.16
  L 62.13 317.76
  A 0.85 0.85 0.0 0 0 62.68 316.57
  C 60.34 311.74 57.14 307.30 54.81 302.91
  C 51.23 296.14 46.92 289.86 43.95 283.82
  C 39.56 274.86 37.65 262.30 39.44 251.42
  Q 41.04 241.78 41.17 241.23
  Q 44.58 227.04 48.58 214.40
  Q 49.31 212.09 48.53 208.28"
/>
<path stroke="#b68a63" vector-effect="non-scaling-stroke" d="
  M 222.65 171.02
  Q 219.60 167.14 215.48 163.85
  C 214.01 162.68 212.71 160.42 210.44 159.76"
/>
<path stroke="#bf9774" vector-effect="non-scaling-stroke" d="
  M 210.44 159.76
  L 201.07 152.69"
/>
<path stroke="#7a5336" vector-effect="non-scaling-stroke" d="
  M 229.55 382.70
  Q 232.45 383.00 233.88 381.09
  Q 236.43 377.66 238.81 370.80
  Q 239.51 368.80 240.92 367.68
  A 0.85 0.85 0.0 0 1 242.20 367.95
  C 243.59 370.54 242.59 374.78 242.06 376.78
  A 0.72 0.71 79.9 0 0 243.16 377.55
  C 247.16 374.73 249.04 369.45 249.71 364.72
  Q 251.07 355.11 251.56 346.47
  A 0.52 0.52 0.0 0 0 250.60 346.17
  C 247.94 350.59 243.97 353.04 239.25 356.03
  A 8.44 8.43 88.8 0 0 236.40 359.01
  C 233.23 364.60 232.35 371.40 230.88 377.67
  C 230.54 379.10 228.85 381.16 228.87 381.97
  A 0.77 0.76 -88.3 0 0 229.55 382.70"
/>
<path stroke="#7a5336" vector-effect="non-scaling-stroke" d="
  M 44.40 378.42
  L 42.72 369.09
  A 1.24 1.24 0.0 0 1 43.71 367.65
  Q 45.29 367.36 46.65 368.88
  A 1.85 1.72 -79.7 0 1 46.97 369.38
  Q 48.50 373.22 51.23 379.36
  Q 52.86 383.03 57.21 382.14
  A 0.52 0.52 0.0 0 0 57.53 381.34
  C 54.15 376.42 53.97 370.36 52.77 365.75
  Q 51.54 361.06 48.44 357.41
  A 4.80 4.68 84.7 0 0 47.23 356.38
  Q 43.20 353.95 35.35 347.81
  Q 34.98 347.52 34.75 347.58
  A 0.98 0.95 71.5 0 0 34.12 348.89
  Q 34.73 350.36 34.94 351.58
  A 3.05 2.91 -49.3 0 1 34.98 352.35
  Q 34.66 357.44 36.02 362.73
  C 37.52 368.58 38.82 374.99 43.83 378.77
  A 0.36 0.36 0.0 0 0 44.40 378.42"
/>
<path stroke="#7a5336" vector-effect="non-scaling-stroke" d="
  M 58.49 139.05
  A 0.86 0.86 0.0 0 0 58.67 140.55
  Q 60.66 141.38 61.62 142.69
  Q 66.25 149.05 69.74 156.76
  Q 70.79 159.08 72.95 159.80
  A 1.65 1.65 0.0 0 0 75.12 158.23
  L 75.12 153.16
  A 1.07 0.88 39.5 0 0 75.05 152.80
  Q 72.05 145.01 66.53 138.75
  Q 64.25 136.16 62.23 136.54
  A 1.34 1.29 21.4 0 0 61.67 136.77
  L 58.49 139.05"
/>
<path stroke="#7a5336" vector-effect="non-scaling-stroke" d="
  M 211.55 159.44
  Q 215.02 160.85 216.23 157.13
  Q 218.55 150.03 223.54 142.14
  Q 224.55 140.54 225.12 138.67
  A 1.44 1.43 -85.2 0 0 223.57 136.83
  C 216.53 137.72 212.21 145.85 211.46 152.00
  Q 210.84 157.08 210.90 158.52
  A 1.04 1.04 0.0 0 0 211.55 159.44"
/>
<path stroke="#d6a780" vector-effect="non-scaling-stroke" d="
  M 91.34 202.95
  C 94.90 201.55 96.75 200.11 96.54 196.29
  C 96.38 193.21 88.13 188.66 86.49 188.03
  Q 83.40 186.85 78.01 184.54
  C 76.06 183.70 73.15 183.34 71.71 182.90
  Q 68.34 181.89 66.88 182.38
  C 62.16 183.94 58.24 188.78 62.91 192.88
  C 64.96 194.68 68.34 196.87 71.73 197.74
  Q 74.61 198.48 83.77 201.50
  Q 88.60 203.09 90.40 203.12
  A 2.52 2.34 -53.1 0 0 91.34 202.95"
/>
<path stroke="#d6a780" vector-effect="non-scaling-stroke" d="
  M 193.84 196.78
  Q 194.03 196.13 193.09 195.74
  A 0.65 0.64 17.5 0 0 192.22 196.19
  Q 191.37 199.75 194.33 202.63
  A 1.72 1.70 66.2 0 0 195.54 203.11
  Q 202.20 203.04 206.67 201.42
  Q 215.54 198.21 219.67 196.91
  Q 225.08 195.21 227.02 190.47
  A 0.42 0.42 0.0 0 0 226.78 189.92
  Q 226.24 189.70 225.61 190.31"
/>
<path stroke="#916442" vector-effect="non-scaling-stroke" d="
  M 225.61 190.31
  C 226.34 185.59 222.67 183.97 218.72 185.20
  Q 206.12 189.11 204.82 189.58
  C 199.65 191.43 196.32 192.55 193.84 196.78"
/>
<path stroke="#9a7153" vector-effect="non-scaling-stroke" d="
  M 225.61 190.31
  Q 224.62 192.52 222.90 192.97
  Q 211.37 195.99 200.07 199.85
  C 196.66 201.02 194.04 200.99 193.84 196.78"
/>
<path stroke="#b68a63" vector-effect="non-scaling-stroke" d="
  M 94.13 249.46
  C 93.58 257.73 92.61 266.89 93.26 275.44
  Q 93.83 282.92 93.86 283.55
  Q 94.14 289.33 94.99 293.11
  Q 96.51 299.93 100.22 307.56
  C 104.31 315.99 112.61 319.91 121.85 321.85
  Q 129.56 323.47 134.06 323.77
  Q 143.12 324.37 153.32 323.95
  C 158.03 323.75 162.45 322.88 166.98 322.16
  Q 171.25 321.49 176.40 318.88
  Q 180.21 316.95 184.10 312.75
  Q 189.76 306.64 192.00 298.77
  C 193.65 293.00 195.01 288.51 195.38 283.01
  Q 196.48 266.72 194.84 251.60
  C 194.36 247.17 193.14 242.46 192.32 239.44
  C 189.61 229.41 183.31 220.07 173.97 215.01
  Q 168.51 212.05 163.23 210.40
  Q 159.04 209.08 151.60 208.97
  Q 143.30 208.85 138.00 208.87
  Q 120.56 208.93 107.08 219.91
  Q 102.65 223.51 98.84 231.87
  Q 94.70 240.95 94.13 249.46"
/>
<path stroke="#b68a63" vector-effect="non-scaling-stroke" d="
  M 124.45 343.49
  Q 130.76 344.34 137.00 345.24
  Q 141.97 345.96 151.80 345.38
  Q 154.72 345.20 166.00 343.40"
/>
<path stroke="#916442" vector-effect="non-scaling-stroke" d="
  M 166.00 343.40
  C 174.64 341.87 184.46 340.02 192.46 336.42
  Q 196.57 334.57 197.32 330.05
  A 0.74 0.73 11.6 0 0 196.76 329.21
  Q 192.26 328.16 190.44 328.73
  Q 183.84 330.79 176.84 331.39
  A 0.11 0.11 0.0 0 0 176.74 331.49
  L 176.68 331.87
  A 0.09 0.09 0.0 0 0 176.77 331.97
  L 185.26 332.31
  A 0.17 0.17 0.0 0 1 185.30 332.65
  Q 182.41 333.51 179.69 333.82
  Q 151.02 337.10 117.74 334.64
  Q 110.42 334.10 108.26 333.49
  Q 106.33 332.95 106.27 332.93
  A 0.50 0.50 0.0 0 1 106.52 331.98
  L 112.77 332.59
  A 0.32 0.31 21.1 0 0 113.03 332.48
  L 113.07 332.44
  A 0.28 0.28 0.0 0 0 112.88 332.09
  Q 108.40 330.62 103.79 330.07
  A 4.92 4.60 -30.3 0 1 102.82 329.85
  Q 100.79 329.15 98.85 328.42
  C 96.60 327.58 95.39 328.22 93.52 329.47
  A 0.89 0.88 68.2 0 0 93.14 330.36
  L 93.68 333.34
  A 2.62 2.60 10.2 0 0 94.94 335.14
  Q 99.75 337.94 105.01 339.48
  Q 114.60 342.30 124.45 343.49"
/>
<path stroke="#7a5336" vector-effect="non-scaling-stroke" d="
  M 166.00 343.40
  Q 145.26 342.67 124.45 343.49"
/>
<path stroke="#9a7153" vector-effect="non-scaling-stroke" d="
  M 94.84 196.95
  Q 93.41 192.93 88.53 190.95
  Q 78.76 186.99 68.83 184.65
  A 2.26 2.18 46.0 0 0 67.97 184.62
  C 64.74 185.18 61.03 187.75 64.48 191.34
  Q 66.06 192.97 70.37 194.15
  Q 80.55 196.94 88.52 200.10
  C 91.60 201.32 93.37 201.03 94.78 198.13
  A 1.58 1.56 -42.4 0 0 94.84 196.95"
/>
<path stroke="#7a5336" vector-effect="non-scaling-stroke" d="
  M 162.21 235.00
  C 159.06 236.93 155.10 240.19 155.80 244.27
  C 156.83 250.30 164.74 245.35 167.52 243.65
  C 170.29 241.95 178.29 237.14 173.38 233.49
  C 170.06 231.02 165.36 233.06 162.21 235.00"
/>
<path stroke="#7a5336" vector-effect="non-scaling-stroke" d="
  M 114.85 233.48
  Q 111.67 237.70 116.13 240.98
  Q 121.65 245.03 127.81 247.51
  A 1.73 1.72 52.4 0 0 128.70 247.63
  Q 131.39 247.32 132.23 245.10
  A 2.03 1.96 52.3 0 0 132.34 244.08
  Q 131.97 241.36 131.17 240.38
  Q 126.28 234.39 118.23 232.58
  Q 115.92 232.06 114.85 233.48"
/>
<path stroke="#7a5336" vector-effect="non-scaling-stroke" d="
  M 143.72 299.78
  C 148.95 302.64 155.16 306.35 162.65 308.58
  A 2.23 2.23 0.0 0 0 165.41 307.10
  L 166.32 304.18
  A 1.75 1.74 -73.4 0 0 165.14 301.98
  C 161.18 300.83 154.32 297.86 149.35 295.06
  C 147.72 294.14 146.75 291.99 146.74 290.48
  Q 146.53 254.17 146.52 253.18
  A 2.92 2.92 0.0 0 0 143.94 250.31
  L 143.84 250.30
  A 2.42 2.42 0.0 0 0 141.14 252.61
  Q 140.43 272.61 140.79 285.75
  Q 140.96 292.16 136.13 295.33
  Q 128.82 300.14 121.77 302.68
  A 1.04 1.04 0.0 0 0 121.22 304.18
  L 123.28 307.76
  A 1.47 1.46 -21.9 0 0 124.91 308.45
  Q 134.27 306.09 141.15 300.07
  A 2.27 2.26 -51.2 0 1 143.72 299.78"
/>
</g>
<path fill="#442506" d="
  M 159.64 79.85
  Q 159.71 81.08 159.88 81.64
  Q 160.01 82.07 160.64 82.39
  Q 161.14 82.65 161.73 82.63
  L 164.63 85.83
  A 1.17 1.16 -43.7 0 1 164.59 87.44
  L 160.62 91.41
  A 1.24 1.23 -60.7 0 1 159.46 91.74
  C 154.57 90.54 155.35 86.87 155.28 82.86
  A 1.15 1.14 -0.3 0 0 154.13 81.73
  L 134.98 81.73
  A 1.58 1.58 0.0 0 0 133.40 83.26
  C 133.31 86.24 133.03 90.55 129.85 91.61
  A 0.92 0.91 55.4 0 1 128.96 91.44
  L 123.58 86.92
  A 1.28 1.28 0.0 0 1 123.60 84.94
  L 127.25 81.99
  Q 127.74 81.91 128.05 81.68
  Q 128.39 81.44 128.21 81.21
  Q 128.08 81.04 127.71 80.99
  Q 127.92 80.11 127.40 79.85
  C 119.68 75.92 115.37 70.70 110.86 63.50
  A 3.07 3.06 -1.2 0 0 109.78 62.47
  C 103.54 58.93 90.51 52.80 101.27 44.52
  Q 103.20 43.04 109.51 38.77
  Q 110.42 38.15 111.67 36.24
  A 3.70 3.67 -21.2 0 0 112.13 35.21
  Q 113.98 28.11 114.84 25.79
  Q 120.45 10.70 135.13 5.11
  C 142.46 2.31 149.19 2.97 156.41 6.15
  Q 164.92 9.90 169.04 16.95
  Q 174.21 25.80 175.43 35.60
  A 2.30 2.29 9.2 0 0 176.71 37.37
  C 180.82 39.36 197.67 48.49 190.23 55.04
  C 186.81 58.05 182.94 59.66 178.55 61.22
  A 1.94 1.93 88.5 0 0 177.35 62.49
  Q 175.94 67.36 173.30 71.54
  Q 169.19 78.04 159.64 79.85
  Z
  M 107.79 55.11
  L 113.73 56.55
  A 1.50 1.50 0.0 0 1 114.88 58.07
  Q 114.77 60.57 116.02 62.96
  Q 117.96 66.69 120.32 69.34
  Q 125.83 74.61 132.35 76.14
  Q 142.55 78.53 154.15 76.60
  Q 164.17 74.92 170.82 65.07
  C 172.09 63.18 172.43 60.19 172.57 57.95
  A 1.71 1.70 89.8 0 1 174.14 56.36
  Q 180.71 55.89 185.53 52.78
  A 1.84 1.84 0.0 0 0 186.16 50.38
  C 183.79 45.88 178.03 43.89 173.54 41.75
  Q 171.66 40.85 171.23 38.76
  Q 170.16 33.60 168.48 27.26
  C 164.11 10.80 148.22 3.85 132.47 10.53
  A 5.57 5.54 -77.1 0 0 130.98 11.47
  L 125.56 16.26
  A 5.34 5.13 83.7 0 0 124.34 17.85
  Q 123.26 20.01 121.61 22.59
  Q 120.41 24.45 119.00 30.23
  C 118.14 33.75 117.27 40.78 113.88 42.39
  C 109.69 44.37 104.67 45.96 101.95 50.44
  A 1.52 1.51 28.6 0 0 102.59 52.59
  L 107.79 55.11
  Z"
/>
<path fill="#fbeaae" d="
  M 120.32 69.34
  Q 123.70 69.45 126.92 70.85
  Q 130.25 72.30 131.39 72.50
  Q 133.12 72.80 136.12 73.05
  Q 144.85 73.76 152.21 72.88
  Q 164.66 71.38 169.31 60.50
  C 171.86 54.52 176.15 53.42 181.70 51.36
  A 1.07 1.07 0.0 0 0 181.91 49.47
  C 176.53 45.91 170.15 44.11 168.03 37.22
  Q 166.73 32.98 165.71 29.74
  A 0.85 0.84 -19.6 0 0 164.58 29.21
  Q 163.06 29.84 161.14 29.59
  Q 164.54 26.05 160.41 22.76
  Q 160.18 17.89 158.74 16.02
  Q 157.08 13.87 154.60 13.20
  Q 145.85 10.81 137.06 12.39
  C 131.17 13.45 127.44 17.09 126.82 23.02
  L 126.06 24.09
  Q 122.55 26.28 121.88 29.15
  Q 120.39 35.45 118.90 39.41
  Q 117.51 43.09 113.09 44.96
  C 111.01 45.84 109.41 47.18 107.68 48.21
  A 1.36 1.33 83.3 0 0 107.07 49.00
  Q 106.18 52.04 107.79 55.11
  L 102.59 52.59
  A 1.52 1.51 28.6 0 1 101.95 50.44
  C 104.67 45.96 109.69 44.37 113.88 42.39
  C 117.27 40.78 118.14 33.75 119.00 30.23
  Q 120.41 24.45 121.61 22.59
  Q 123.26 20.01 124.34 17.85
  A 5.34 5.13 83.7 0 1 125.56 16.26
  L 130.98 11.47
  A 5.57 5.54 -77.1 0 1 132.47 10.53
  C 148.22 3.85 164.11 10.80 168.48 27.26
  Q 170.16 33.60 171.23 38.76
  Q 171.66 40.85 173.54 41.75
  C 178.03 43.89 183.79 45.88 186.16 50.38
  A 1.84 1.84 0.0 0 1 185.53 52.78
  Q 180.71 55.89 174.14 56.36
  A 1.71 1.70 89.8 0 0 172.57 57.95
  C 172.43 60.19 172.09 63.18 170.82 65.07
  Q 164.17 74.92 154.15 76.60
  Q 142.55 78.53 132.35 76.14
  Q 125.83 74.61 120.32 69.34
  Z"
/>
<path fill="#f5d783" d="
  M 160.41 22.76
  Q 158.20 21.82 156.84 22.99
  Q 155.58 24.08 155.65 26.42
  Q 155.80 31.19 161.14 29.59
  Q 163.06 29.84 164.58 29.21
  A 0.85 0.84 -19.6 0 1 165.71 29.74
  Q 166.73 32.98 168.03 37.22
  C 170.15 44.11 176.53 45.91 181.91 49.47
  A 1.07 1.07 0.0 0 1 181.70 51.36
  C 176.15 53.42 171.86 54.52 169.31 60.50
  Q 164.66 71.38 152.21 72.88
  Q 144.85 73.76 136.12 73.05
  Q 133.12 72.80 131.39 72.50
  Q 130.25 72.30 126.92 70.85
  Q 123.70 69.45 120.32 69.34
  Q 117.96 66.69 116.02 62.96
  Q 114.77 60.57 114.88 58.07
  A 1.50 1.50 0.0 0 0 113.73 56.55
  L 107.79 55.11
  Q 106.18 52.04 107.07 49.00
  A 1.36 1.33 83.3 0 1 107.68 48.21
  C 109.41 47.18 111.01 45.84 113.09 44.96
  Q 117.51 43.09 118.90 39.41
  Q 120.39 35.45 121.88 29.15
  Q 122.55 26.28 126.06 24.09
  Q 125.02 25.84 125.55 26.75
  C 126.67 28.65 129.54 30.98 131.53 28.69
  C 134.72 25.01 130.04 19.79 126.82 23.02
  C 127.44 17.09 131.17 13.45 137.06 12.39
  Q 145.85 10.81 154.60 13.20
  Q 157.08 13.87 158.74 16.02
  Q 160.18 17.89 160.41 22.76
  Z
  M 144.39 39.61
  Q 148.89 39.55 152.27 36.79
  C 156.90 33.01 148.06 25.53 144.19 25.59
  C 140.32 25.64 131.69 33.37 136.43 37.02
  Q 139.89 39.68 144.39 39.61
  Z"
/>
<path fill="#552d15" d="
  M 126.06 24.09
  L 126.82 23.02
  C 130.04 19.79 134.72 25.01 131.53 28.69
  C 129.54 30.98 126.67 28.65 125.55 26.75
  Q 125.02 25.84 126.06 24.09
  Z"
/>
<path fill="#552d15" d="
  M 160.41 22.76
  Q 164.54 26.05 161.14 29.59
  Q 155.80 31.19 155.65 26.42
  Q 155.58 24.08 156.84 22.99
  Q 158.20 21.82 160.41 22.76
  Z"
/>
<path fill="#552d15" d="
  M 144.19 25.59
  C 148.06 25.53 156.90 33.01 152.27 36.79
  Q 148.89 39.55 144.39 39.61
  Q 139.89 39.68 136.43 37.02
  C 131.69 33.37 140.32 25.64 144.19 25.59
  Z
  M 139.45 34.08
  L 148.49 33.86
  A 0.11 0.11 0.0 0 0 148.59 33.75
  L 148.59 33.73
  A 4.50 3.01 -1.4 0 0 144.02 30.83
  L 143.76 30.83
  A 4.50 3.01 -1.4 0 0 139.34 33.95
  L 139.34 33.97
  A 0.11 0.11 0.0 0 0 139.45 34.08
  Z"
/>
<path fill="#f5d783" d="
  M 139.45 34.08
  A 0.11 0.11 0.0 0 1 139.34 33.97
  L 139.34 33.95
  A 4.50 3.01 -1.4 0 1 143.76 30.83
  L 144.02 30.83
  A 4.50 3.01 -1.4 0 1 148.59 33.73
  L 148.59 33.75
  A 0.11 0.11 0.0 0 1 148.49 33.86
  L 139.45 34.08
  Z"
/>
<path fill="#cc9a6f" d="
  M 159.64 79.85
  L 161.73 82.63
  Q 161.14 82.65 160.64 82.39
  Q 160.01 82.07 159.88 81.64
  Q 159.71 81.08 159.64 79.85
  Z"
/>
<path fill="#9f7957" d="
  M 127.71 80.99
  Q 128.08 81.04 128.21 81.21
  Q 128.39 81.44 128.05 81.68
  Q 127.74 81.91 127.25 81.99
  Q 127.34 81.38 127.71 80.99
  Z"
/>
<path fill="#552d15" d="
  M 44.56 171.56
  Q 47.68 171.30 48.34 168.19
  L 48.58 167.35
  A 1.12 1.10 -51.9 0 0 48.49 166.55
  C 42.30 154.96 39.92 142.17 48.80 130.83
  C 52.89 125.61 57.14 123.38 63.79 123.87
  Q 71.76 124.46 78.02 129.59
  C 81.38 132.35 85.12 136.20 87.53 140.39
  A 2.30 2.30 0.0 0 0 90.38 141.39
  C 111.27 133.03 132.69 127.83 155.26 130.68
  C 169.71 132.51 183.38 136.64 197.33 141.61
  A 1.45 1.43 -65.3 0 0 199.06 140.96
  C 203.17 133.72 209.81 126.61 217.96 124.71
  C 224.60 123.17 233.55 124.00 237.44 130.68
  C 244.84 143.40 242.93 156.27 236.41 168.98
  A 1.23 1.22 33.6 0 0 236.72 170.48
  C 243.74 176.36 249.55 183.26 255.17 190.44
  Q 271.89 211.79 277.89 240.83
  Q 280.48 253.39 280.62 263.72
  C 280.99 290.33 272.59 316.44 258.33 338.99
  A 5.73 5.71 -29.7 0 0 257.44 342.22
  Q 257.87 357.37 253.88 371.63
  C 249.29 388.00 236.79 390.82 221.34 389.58
  A 1.43 1.42 -73.6 0 0 219.98 390.33
  Q 213.97 401.74 205.75 411.32
  C 200.86 417.03 195.97 420.58 188.68 421.11
  Q 187.39 421.21 181.95 421.19
  C 177.97 421.17 174.61 419.49 173.39 415.92
  Q 172.18 412.36 169.65 410.58
  C 164.72 407.09 162.00 402.54 160.61 396.41
  A 1.94 1.93 58.2 0 1 160.99 394.76
  C 165.79 388.93 168.26 382.67 170.35 375.43
  A 1.09 1.09 0.0 0 0 169.20 374.04
  Q 152.16 375.61 134.82 374.86
  Q 126.24 374.49 118.75 373.05
  A 0.88 0.88 0.0 0 0 117.71 374.00
  C 118.46 382.56 122.01 389.00 127.01 395.75
  C 127.87 396.93 127.43 398.65 127.08 400.47
  Q 126.08 405.63 122.43 409.10
  C 121.01 410.45 118.77 411.62 117.58 412.40
  A 7.78 7.62 0.6 0 0 115.55 414.35
  C 113.58 417.12 112.11 419.08 108.84 420.10
  C 98.67 423.24 91.61 419.27 84.22 411.46
  Q 74.36 401.05 66.12 389.25
  A 1.96 1.94 -23.4 0 0 64.10 388.46
  C 53.12 390.83 38.97 389.13 33.71 377.57
  C 28.68 366.51 26.81 354.86 26.60 342.81
  A 9.29 9.26 30.0 0 0 25.43 338.46
  C 13.96 317.70 5.49 294.85 3.68 271.26
  C 2.56 256.64 5.45 241.82 10.12 227.29
  Q 19.05 199.55 38.61 177.61
  Q 41.56 174.31 44.56 171.56
  Z
  M 63.69 171.83
  C 60.07 178.31 56.49 183.33 54.73 190.80
  Q 54.71 190.85 54.69 190.90
  L 48.53 208.28
  C 45.74 215.59 42.44 223.16 40.51 230.46
  Q 39.06 235.91 38.01 240.19
  Q 31.16 268.10 45.89 293.16
  Q 49.93 300.04 51.13 302.15
  C 53.64 306.53 56.96 310.52 59.39 314.14
  A 1.68 1.67 -43.3 0 1 59.33 316.08
  Q 58.04 317.77 56.46 317.51
  A 2.43 2.37 -23.4 0 1 55.59 317.18
  Q 51.72 314.74 48.72 310.80
  Q 40.44 299.91 35.30 290.28
  C 25.38 271.68 26.60 247.91 32.64 227.87
  Q 34.22 222.62 40.51 205.62
  Q 41.21 203.71 41.84 201.77
  L 49.53 183.71
  L 53.20 176.58
  A 0.33 0.32 5.0 0 0 52.81 176.12
  Q 51.85 176.42 50.78 177.30
  C 41.85 184.56 36.62 192.92 29.06 204.26
  Q 21.20 216.04 17.05 231.28
  Q 13.22 245.33 12.11 254.55
  Q 10.35 269.11 12.10 283.61
  Q 12.60 287.74 14.16 294.88
  Q 16.17 304.00 16.83 305.98
  C 20.02 315.48 25.01 326.76 32.65 333.91
  Q 40.59 341.33 46.63 346.28
  A 0.22 0.22 0.0 0 0 46.98 346.05
  L 45.37 340.68
  L 44.16 330.38
  A 1.23 1.23 0.0 0 1 45.38 329.01
  L 48.18 329.01
  A 2.24 2.24 0.0 0 1 50.36 330.73
  Q 54.41 348.07 57.95 357.15
  Q 61.09 365.20 64.12 371.45
  Q 67.86 379.13 73.80 388.07
  C 76.49 392.11 79.06 394.90 82.44 399.14
  C 84.97 402.33 86.31 405.63 88.37 408.64
  Q 90.72 412.08 94.54 414.49
  A 0.27 0.27 0.0 0 0 94.95 414.24
  Q 94.83 412.49 93.86 411.50
  Q 93.83 410.01 94.15 409.24
  A 0.85 0.84 -76.1 0 1 95.00 408.72
  Q 97.46 408.91 98.34 410.02
  Q 102.51 415.35 109.24 412.85
  A 1.05 1.04 74.9 0 0 109.90 411.69
  C 109.29 408.32 109.37 406.42 108.23 403.79
  Q 107.40 401.87 109.45 400.03
  A 1.28 1.28 0.0 0 1 110.74 399.78
  Q 115.30 401.46 117.05 404.50
  Q 120.33 402.64 119.82 398.84
  Q 119.55 396.76 117.27 392.65
  Q 112.78 384.52 110.37 376.66
  Q 107.14 366.09 105.69 359.30
  Q 105.17 356.87 105.33 352.02
  A 1.98 1.98 0.0 0 1 106.07 350.54
  Q 107.14 349.68 107.72 348.44
  A 0.59 0.58 -58.8 0 1 108.60 348.22
  Q 109.23 348.68 109.34 349.76
  A 1.23 1.22 -72.6 0 0 109.78 350.61
  Q 111.18 351.77 111.52 353.28
  Q 113.87 363.61 114.00 364.14
  A 2.29 2.28 1.1 0 0 115.62 365.82
  C 126.84 368.89 137.36 369.20 148.85 369.01
  Q 157.37 368.87 160.13 368.30
  Q 163.06 367.70 171.11 365.50
  Q 173.70 364.79 174.17 361.93
  Q 174.73 358.47 175.57 353.80
  Q 175.84 352.31 178.36 349.18
  A 0.87 0.87 0.0 0 1 179.29 348.89
  Q 182.72 349.91 182.66 352.79
  Q 182.57 357.03 182.27 358.26
  Q 180.04 367.47 177.85 376.61
  C 177.12 379.63 175.85 382.71 174.83 385.95
  Q 172.36 390.76 169.37 396.58
  C 168.22 398.82 166.91 403.81 170.44 404.52
  A 1.22 1.20 27.3 0 0 171.53 404.18
  C 173.23 402.43 175.47 400.50 178.12 400.20
  A 1.61 1.61 0.0 0 1 179.90 402.03
  L 178.87 409.23
  A 1.51 1.49 66.6 0 1 178.62 409.87
  L 177.97 410.79
  A 1.63 1.62 28.2 0 0 178.71 413.23
  C 183.88 415.26 187.56 413.10 191.01 409.52
  A 0.91 0.91 0.0 0 1 192.37 409.57
  Q 193.54 411.00 192.94 412.91
  L 191.46 415.27
  A 0.43 0.43 0.0 0 0 192.04 415.87
  C 195.90 413.63 198.22 411.46 200.68 407.18
  Q 204.54 400.44 206.48 396.94
  A 2.85 2.73 -7.6 0 1 207.11 396.15
  Q 211.59 392.27 214.78 386.52
  C 219.87 377.34 225.09 368.32 228.82 357.85
  Q 233.99 343.38 237.14 329.42
  A 0.85 0.85 0.0 0 1 237.97 328.76
  L 241.85 328.76
  A 0.96 0.95 87.4 0 1 242.80 329.63
  Q 243.26 335.01 241.81 339.97
  Q 240.79 342.32 240.76 344.70
  A 0.26 0.26 0.0 0 0 241.20 344.90
  Q 250.09 337.11 257.47 327.56
  C 260.58 323.53 262.68 319.34 264.52 314.79
  Q 274.90 289.16 272.90 260.73
  Q 272.02 248.32 269.33 237.34
  Q 266.08 224.07 258.95 209.15
  Q 257.72 206.59 254.36 201.86
  Q 252.37 199.07 249.18 194.48
  Q 246.01 189.90 237.15 180.07
  Q 235.93 178.72 233.69 177.45
  A 0.35 0.35 0.0 0 0 233.25 177.98
  C 235.78 180.94 237.84 184.74 239.31 189.02
  Q 240.11 191.34 243.56 199.39
  Q 246.53 206.36 252.55 223.26
  C 255.45 231.42 257.58 241.14 258.36 249.32
  C 259.75 263.88 256.95 279.54 249.56 292.80
  Q 244.98 301.02 243.33 303.33
  Q 239.66 308.49 233.23 315.58
  A 5.86 5.84 25.1 0 1 228.04 317.45
  L 227.68 317.40
  A 2.11 2.11 0.0 0 1 226.22 314.14
  Q 237.41 297.41 242.63 288.39
  C 248.10 278.93 249.55 270.24 250.54 258.77
  Q 251.12 252.10 249.06 241.89
  Q 247.13 232.34 245.06 225.95
  Q 240.00 210.30 232.24 191.95
  Q 230.32 188.53 229.19 184.62
  A 7.27 6.94 -67.7 0 0 228.76 183.52
  L 222.65 171.02
  Q 227.72 167.99 231.20 163.57
  C 232.79 161.54 233.36 159.45 234.36 157.51
  C 238.10 150.28 236.63 141.07 232.00 134.89
  Q 226.90 128.10 218.63 130.69
  A 4.20 4.06 19.4 0 0 217.76 131.09
  Q 205.35 138.65 201.07 152.69
  Q 186.71 144.54 175.15 141.60
  Q 161.82 138.21 142.81 137.87
  Q 132.67 137.69 122.79 139.49
  Q 110.40 141.74 103.29 144.25
  Q 96.07 146.79 85.14 153.16
  Q 84.56 153.01 84.53 151.48
  A 3.68 3.61 32.5 0 0 84.18 149.97
  Q 80.78 142.81 79.11 140.13
  Q 76.08 135.28 69.17 131.12
  C 63.26 127.56 55.20 131.23 52.24 136.99
  Q 48.00 145.24 50.26 154.08
  C 51.16 157.60 53.82 161.13 55.82 164.92
  A 2.62 2.49 7.3 0 0 56.43 165.67
  L 63.69 171.83
  Z
  M 229.55 382.70
  Q 232.45 383.00 233.88 381.09
  Q 236.43 377.66 238.81 370.80
  Q 239.51 368.80 240.92 367.68
  A 0.85 0.85 0.0 0 1 242.20 367.95
  C 243.59 370.54 242.59 374.78 242.06 376.78
  A 0.72 0.71 79.9 0 0 243.16 377.55
  C 247.16 374.73 249.04 369.45 249.71 364.72
  Q 251.07 355.11 251.56 346.47
  A 0.52 0.52 0.0 0 0 250.60 346.17
  C 247.94 350.59 243.97 353.04 239.25 356.03
  A 8.44 8.43 88.8 0 0 236.40 359.01
  C 233.23 364.60 232.35 371.40 230.88 377.67
  C 230.54 379.10 228.85 381.16 228.87 381.97
  A 0.77 0.76 -88.3 0 0 229.55 382.70
  Z
  M 44.40 378.42
  L 42.72 369.09
  A 1.24 1.24 0.0 0 1 43.71 367.65
  Q 45.29 367.36 46.65 368.88
  A 1.85 1.72 -79.7 0 1 46.97 369.38
  Q 48.50 373.22 51.23 379.36
  Q 52.86 383.03 57.21 382.14
  A 0.52 0.52 0.0 0 0 57.53 381.34
  C 54.15 376.42 53.97 370.36 52.77 365.75
  Q 51.54 361.06 48.44 357.41
  A 4.80 4.68 84.7 0 0 47.23 356.38
  Q 43.20 353.95 35.35 347.81
  Q 34.98 347.52 34.75 347.58
  A 0.98 0.95 71.5 0 0 34.12 348.89
  Q 34.73 350.36 34.94 351.58
  A 3.05 2.91 -49.3 0 1 34.98 352.35
  Q 34.66 357.44 36.02 362.73
  C 37.52 368.58 38.82 374.99 43.83 378.77
  A 0.36 0.36 0.0 0 0 44.40 378.42
  Z"
/>
<path fill="#9f7957" d="
  M 85.14 153.16
  Q 85.30 153.75 84.14 154.45
  Q 73.18 162.18 63.69 171.83
  L 56.43 165.67
  A 2.62 2.49 7.3 0 1 55.82 164.92
  C 53.82 161.13 51.16 157.60 50.26 154.08
  Q 48.00 145.24 52.24 136.99
  C 55.20 131.23 63.26 127.56 69.17 131.12
  Q 76.08 135.28 79.11 140.13
  Q 80.78 142.81 84.18 149.97
  A 3.68 3.61 32.5 0 1 84.53 151.48
  Q 84.56 153.01 85.14 153.16
  Z
  M 58.49 139.05
  A 0.86 0.86 0.0 0 0 58.67 140.55
  Q 60.66 141.38 61.62 142.69
  Q 66.25 149.05 69.74 156.76
  Q 70.79 159.08 72.95 159.80
  A 1.65 1.65 0.0 0 0 75.12 158.23
  L 75.12 153.16
  A 1.07 0.88 39.5 0 0 75.05 152.80
  Q 72.05 145.01 66.53 138.75
  Q 64.25 136.16 62.23 136.54
  A 1.34 1.29 21.4 0 0 61.67 136.77
  L 58.49 139.05
  Z"
/>
<path fill="#9f7957" d="
  M 222.65 171.02
  Q 219.60 167.14 215.48 163.85
  C 214.01 162.68 212.71 160.42 210.44 159.76
  L 201.07 152.69
  Q 205.35 138.65 217.76 131.09
  A 4.20 4.06 19.4 0 1 218.63 130.69
  Q 226.90 128.10 232.00 134.89
  C 236.63 141.07 238.10 150.28 234.36 157.51
  C 233.36 159.45 232.79 161.54 231.20 163.57
  Q 227.72 167.99 222.65 171.02
  Z
  M 211.55 159.44
  Q 215.02 160.85 216.23 157.13
  Q 218.55 150.03 223.54 142.14
  Q 224.55 140.54 225.12 138.67
  A 1.44 1.43 -85.2 0 0 223.57 136.83
  C 216.53 137.72 212.21 145.85 211.46 152.00
  Q 210.84 157.08 210.90 158.52
  A 1.04 1.04 0.0 0 0 211.55 159.44
  Z"
/>
<path fill="#552d15" d="
  M 58.49 139.05
  L 61.67 136.77
  A 1.34 1.29 21.4 0 1 62.23 136.54
  Q 64.25 136.16 66.53 138.75
  Q 72.05 145.01 75.05 152.80
  A 1.07 0.88 39.5 0 1 75.12 153.16
  L 75.12 158.23
  A 1.65 1.65 0.0 0 1 72.95 159.80
  Q 70.79 159.08 69.74 156.76
  Q 66.25 149.05 61.62 142.69
  Q 60.66 141.38 58.67 140.55
  A 0.86 0.86 0.0 0 1 58.49 139.05
  Z"
/>
<path fill="#552d15" d="
  M 211.55 159.44
  A 1.04 1.04 0.0 0 1 210.90 158.52
  Q 210.84 157.08 211.46 152.00
  C 212.21 145.85 216.53 137.72 223.57 136.83
  A 1.44 1.43 -85.2 0 1 225.12 138.67
  Q 224.55 140.54 223.54 142.14
  Q 218.55 150.03 216.23 157.13
  Q 215.02 160.85 211.55 159.44
  Z"
/>
<path fill="#dfb490" d="
  M 201.07 152.69
  L 210.44 159.76
  L 212.79 162.26
  A 0.75 0.75 0.0 0 1 211.79 163.38
  Q 207.10 159.87 203.24 157.31
  Q 182.92 143.83 158.16 140.83
  C 146.29 139.39 134.59 138.98 123.25 141.51
  C 112.07 143.99 100.49 147.84 90.02 153.21
  Q 87.31 154.60 84.14 154.45
  Q 85.30 153.75 85.14 153.16
  Q 96.07 146.79 103.29 144.25
  Q 110.40 141.74 122.79 139.49
  Q 132.67 137.69 142.81 137.87
  Q 161.82 138.21 175.15 141.60
  Q 186.71 144.54 201.07 152.69
  Z"
/>
<path fill="#cc9a6f" d="
  M 210.44 159.76
  C 212.71 160.42 214.01 162.68 215.48 163.85
  Q 219.60 167.14 222.65 171.02
  L 228.76 183.52
  A 7.27 6.94 -67.7 0 1 229.19 184.62
  Q 230.32 188.53 232.24 191.95
  Q 230.96 192.51 230.67 193.22
  A 0.58 0.56 -44.3 0 0 230.66 193.62
  Q 235.53 207.84 241.78 223.74
  Q 246.09 234.71 247.90 246.74
  Q 248.61 251.50 248.38 254.06
  Q 247.91 259.24 248.07 261.44
  C 248.68 269.69 245.47 278.93 241.45 285.71
  Q 238.18 291.23 224.22 314.47
  A 1.73 1.72 35.6 0 0 224.59 316.68
  L 227.17 318.85
  A 1.14 1.10 60.8 0 0 228.03 319.11
  Q 232.35 318.57 236.07 314.81
  Q 243.63 307.18 248.77 298.69
  Q 254.21 289.68 256.86 279.86
  C 259.66 269.48 261.70 257.82 259.79 246.84
  Q 259.47 244.94 258.11 234.16
  C 257.49 229.27 254.62 223.37 252.84 217.44
  Q 250.04 208.09 245.39 197.11
  A 0.52 0.52 0.0 0 1 245.65 196.44
  Q 247.02 195.78 247.98 196.77
  Q 251.49 200.43 255.55 207.73
  Q 265.51 225.62 269.31 246.17
  Q 270.24 251.15 270.52 256.57
  C 270.98 265.42 271.63 272.01 270.62 279.44
  C 270.32 281.65 270.45 284.10 270.11 286.70
  Q 268.11 302.14 262.27 315.61
  Q 258.83 323.55 255.40 327.18
  Q 251.14 331.71 247.19 336.68
  Q 245.80 338.44 241.81 339.97
  Q 243.26 335.01 242.80 329.63
  A 0.96 0.95 87.4 0 0 241.85 328.76
  L 237.97 328.76
  A 0.85 0.85 0.0 0 0 237.14 329.42
  Q 233.99 343.38 228.82 357.85
  C 225.09 368.32 219.87 377.34 214.78 386.52
  Q 211.59 392.27 207.11 396.15
  A 2.85 2.73 -7.6 0 0 206.48 396.94
  Q 204.54 400.44 200.68 407.18
  C 198.22 411.46 195.90 413.63 192.04 415.87
  A 0.43 0.43 0.0 0 1 191.46 415.27
  L 192.94 412.91
  Q 196.05 411.69 197.23 410.24
  Q 200.41 406.32 205.42 396.11
  Q 206.20 394.52 207.07 393.57
  A 1.19 1.18 41.5 0 0 206.96 391.87
  C 200.82 386.68 191.65 383.60 184.53 382.36
  Q 180.10 381.60 174.83 385.95
  C 175.85 382.71 177.12 379.63 177.85 376.61
  Q 180.04 367.47 182.27 358.26
  Q 182.57 357.03 182.66 352.79
  Q 182.72 349.91 179.29 348.89
  A 0.87 0.87 0.0 0 0 178.36 349.18
  Q 175.84 352.31 175.57 353.80
  Q 174.73 358.47 174.17 361.93
  Q 173.70 364.79 171.11 365.50
  Q 163.06 367.70 160.13 368.30
  Q 157.37 368.87 148.85 369.01
  C 137.36 369.20 126.84 368.89 115.62 365.82
  A 2.29 2.28 1.1 0 1 114.00 364.14
  Q 113.87 363.61 111.52 353.28
  Q 111.18 351.77 109.78 350.61
  A 1.23 1.22 -72.6 0 1 109.34 349.76
  Q 109.23 348.68 108.60 348.22
  A 0.59 0.58 -58.8 0 0 107.72 348.44
  Q 107.14 349.68 106.07 350.54
  A 1.98 1.98 0.0 0 0 105.33 352.02
  Q 105.17 356.87 105.69 359.30
  Q 107.14 366.09 110.37 376.66
  Q 112.78 384.52 117.27 392.65
  Q 119.55 396.76 119.82 398.84
  Q 120.33 402.64 117.05 404.50
  C 118.59 397.99 116.64 393.22 113.49 388.05
  A 2.55 2.24 22.8 0 1 113.32 387.70
  Q 112.33 385.17 110.43 383.80
  A 2.14 2.14 0.0 0 0 109.47 383.40
  Q 105.27 382.72 98.12 384.58
  Q 87.98 387.23 80.72 392.32
  A 1.50 1.48 -35.4 0 0 80.36 394.41
  L 86.37 402.78
  A 1.52 1.50 17.9 0 1 86.49 403.01
  Q 89.00 409.21 93.86 411.50
  Q 94.83 412.49 94.95 414.24
  A 0.27 0.27 0.0 0 1 94.54 414.49
  Q 90.72 412.08 88.37 408.64
  C 86.31 405.63 84.97 402.33 82.44 399.14
  C 79.06 394.90 76.49 392.11 73.80 388.07
  Q 67.86 379.13 64.12 371.45
  Q 61.09 365.20 57.95 357.15
  Q 54.41 348.07 50.36 330.73
  A 2.24 2.24 0.0 0 0 48.18 329.01
  L 45.38 329.01
  A 1.23 1.23 0.0 0 0 44.16 330.38
  L 45.37 340.68
  Q 41.43 339.66 38.89 337.12
  Q 34.88 333.12 28.89 325.88
  Q 25.54 321.84 20.87 312.94
  Q 19.83 310.96 18.49 306.17
  Q 17.79 303.70 17.27 302.86
  A 1.01 1.01 0.0 0 1 17.15 302.07
  Q 17.18 301.95 15.73 295.16
  Q 15.03 291.88 14.86 288.25
  Q 14.74 285.43 13.93 274.78
  Q 13.84 273.67 13.33 270.38
  Q 13.00 268.27 13.13 265.50
  Q 13.53 256.67 14.53 249.49
  Q 15.63 241.67 20.49 225.52
  C 21.65 221.64 23.76 218.28 25.29 214.59
  Q 27.13 210.14 28.84 207.60
  C 29.90 206.03 32.45 201.77 34.62 199.00
  Q 36.14 197.08 38.64 192.90
  Q 40.04 190.54 44.63 185.64
  Q 45.53 184.68 49.53 183.71
  L 41.84 201.77
  L 42.34 199.01
  A 0.61 0.61 0.0 0 0 41.18 198.67
  Q 36.40 210.35 31.98 222.02
  Q 30.22 226.68 29.02 233.07
  C 26.56 246.18 24.62 257.24 26.47 268.79
  Q 27.11 272.84 30.35 283.10
  Q 32.14 288.81 36.70 296.39
  Q 44.01 308.55 46.56 311.74
  A 7.23 5.62 53.1 0 0 47.24 312.50
  C 49.07 314.32 52.82 317.95 56.09 319.12
  A 1.33 1.26 46.4 0 0 56.89 319.16
  L 62.13 317.76
  A 0.85 0.85 0.0 0 0 62.68 316.57
  C 60.34 311.74 57.14 307.30 54.81 302.91
  C 51.23 296.14 46.92 289.86 43.95 283.82
  C 39.56 274.86 37.65 262.30 39.44 251.42
  Q 41.04 241.78 41.17 241.23
  Q 44.58 227.04 48.58 214.40
  Q 49.31 212.09 48.53 208.28
  L 54.69 190.90
  Q 54.71 190.85 54.73 190.80
  C 56.49 183.33 60.07 178.31 63.69 171.83
  Q 73.18 162.18 84.14 154.45
  Q 87.31 154.60 90.02 153.21
  C 100.49 147.84 112.07 143.99 123.25 141.51
  C 134.59 138.98 146.29 139.39 158.16 140.83
  Q 182.92 143.83 203.24 157.31
  Q 207.10 159.87 211.79 163.38
  A 0.75 0.75 0.0 0 0 212.79 162.26
  L 210.44 159.76
  Z
  M 91.34 202.95
  C 94.90 201.55 96.75 200.11 96.54 196.29
  C 96.38 193.21 88.13 188.66 86.49 188.03
  Q 83.40 186.85 78.01 184.54
  C 76.06 183.70 73.15 183.34 71.71 182.90
  Q 68.34 181.89 66.88 182.38
  C 62.16 183.94 58.24 188.78 62.91 192.88
  C 64.96 194.68 68.34 196.87 71.73 197.74
  Q 74.61 198.48 83.77 201.50
  Q 88.60 203.09 90.40 203.12
  A 2.52 2.34 -53.1 0 0 91.34 202.95
  Z
  M 193.84 196.78
  Q 194.03 196.13 193.09 195.74
  A 0.65 0.64 17.5 0 0 192.22 196.19
  Q 191.37 199.75 194.33 202.63
  A 1.72 1.70 66.2 0 0 195.54 203.11
  Q 202.20 203.04 206.67 201.42
  Q 215.54 198.21 219.67 196.91
  Q 225.08 195.21 227.02 190.47
  A 0.42 0.42 0.0 0 0 226.78 189.92
  Q 226.24 189.70 225.61 190.31
  C 226.34 185.59 222.67 183.97 218.72 185.20
  Q 206.12 189.11 204.82 189.58
  C 199.65 191.43 196.32 192.55 193.84 196.78
  Z
  M 94.13 249.46
  C 93.58 257.73 92.61 266.89 93.26 275.44
  Q 93.83 282.92 93.86 283.55
  Q 94.14 289.33 94.99 293.11
  Q 96.51 299.93 100.22 307.56
  C 104.31 315.99 112.61 319.91 121.85 321.85
  Q 129.56 323.47 134.06 323.77
  Q 143.12 324.37 153.32 323.95
  C 158.03 323.75 162.45 322.88 166.98 322.16
  Q 171.25 321.49 176.40 318.88
  Q 180.21 316.95 184.10 312.75
  Q 189.76 306.64 192.00 298.77
  C 193.65 293.00 195.01 288.51 195.38 283.01
  Q 196.48 266.72 194.84 251.60
  C 194.36 247.17 193.14 242.46 192.32 239.44
  C 189.61 229.41 183.31 220.07 173.97 215.01
  Q 168.51 212.05 163.23 210.40
  Q 159.04 209.08 151.60 208.97
  Q 143.30 208.85 138.00 208.87
  Q 120.56 208.93 107.08 219.91
  Q 102.65 223.51 98.84 231.87
  Q 94.70 240.95 94.13 249.46
  Z
  M 124.45 343.49
  Q 130.76 344.34 137.00 345.24
  Q 141.97 345.96 151.80 345.38
  Q 154.72 345.20 166.00 343.40
  C 174.64 341.87 184.46 340.02 192.46 336.42
  Q 196.57 334.57 197.32 330.05
  A 0.74 0.73 11.6 0 0 196.76 329.21
  Q 192.26 328.16 190.44 328.73
  Q 183.84 330.79 176.84 331.39
  A 0.11 0.11 0.0 0 0 176.74 331.49
  L 176.68 331.87
  A 0.09 0.09 0.0 0 0 176.77 331.97
  L 185.26 332.31
  A 0.17 0.17 0.0 0 1 185.30 332.65
  Q 182.41 333.51 179.69 333.82
  Q 151.02 337.10 117.74 334.64
  Q 110.42 334.10 108.26 333.49
  Q 106.33 332.95 106.27 332.93
  A 0.50 0.50 0.0 0 1 106.52 331.98
  L 112.77 332.59
  A 0.32 0.31 21.1 0 0 113.03 332.48
  L 113.07 332.44
  A 0.28 0.28 0.0 0 0 112.88 332.09
  Q 108.40 330.62 103.79 330.07
  A 4.92 4.60 -30.3 0 1 102.82 329.85
  Q 100.79 329.15 98.85 328.42
  C 96.60 327.58 95.39 328.22 93.52 329.47
  A 0.89 0.88 68.2 0 0 93.14 330.36
  L 93.68 333.34
  A 2.62 2.60 10.2 0 0 94.94 335.14
  Q 99.75 337.94 105.01 339.48
  Q 114.60 342.30 124.45 343.49
  Z"
/>
<path fill="#9f7957" d="
  M 48.34 168.19
  Q 47.68 171.30 44.56 171.56
  L 48.34 168.19
  Z"
/>
<path fill="#dfb490" d="
  M 49.53 183.71
  Q 45.53 184.68 44.63 185.64
  Q 40.04 190.54 38.64 192.90
  Q 36.14 197.08 34.62 199.00
  C 32.45 201.77 29.90 206.03 28.84 207.60
  Q 27.13 210.14 25.29 214.59
  C 23.76 218.28 21.65 221.64 20.49 225.52
  Q 15.63 241.67 14.53 249.49
  Q 13.53 256.67 13.13 265.50
  Q 13.00 268.27 13.33 270.38
  Q 13.84 273.67 13.93 274.78
  Q 14.74 285.43 14.86 288.25
  Q 15.03 291.88 15.73 295.16
  Q 17.18 301.95 17.15 302.07
  A 1.01 1.01 0.0 0 0 17.27 302.86
  Q 17.79 303.70 18.49 306.17
  Q 19.83 310.96 20.87 312.94
  Q 25.54 321.84 28.89 325.88
  Q 34.88 333.12 38.89 337.12
  Q 41.43 339.66 45.37 340.68
  L 46.98 346.05
  A 0.22 0.22 0.0 0 1 46.63 346.28
  Q 40.59 341.33 32.65 333.91
  C 25.01 326.76 20.02 315.48 16.83 305.98
  Q 16.17 304.00 14.16 294.88
  Q 12.60 287.74 12.10 283.61
  Q 10.35 269.11 12.11 254.55
  Q 13.22 245.33 17.05 231.28
  Q 21.20 216.04 29.06 204.26
  C 36.62 192.92 41.85 184.56 50.78 177.30
  Q 51.85 176.42 52.81 176.12
  A 0.33 0.32 5.0 0 1 53.20 176.58
  L 49.53 183.71
  Z"
/>
<path fill="#dfb490" d="
  M 241.81 339.97
  Q 245.80 338.44 247.19 336.68
  Q 251.14 331.71 255.40 327.18
  Q 258.83 323.55 262.27 315.61
  Q 268.11 302.14 270.11 286.70
  C 270.45 284.10 270.32 281.65 270.62 279.44
  C 271.63 272.01 270.98 265.42 270.52 256.57
  Q 270.24 251.15 269.31 246.17
  Q 265.51 225.62 255.55 207.73
  Q 251.49 200.43 247.98 196.77
  Q 247.02 195.78 245.65 196.44
  A 0.52 0.52 0.0 0 0 245.39 197.11
  Q 250.04 208.09 252.84 217.44
  C 254.62 223.37 257.49 229.27 258.11 234.16
  Q 259.47 244.94 259.79 246.84
  C 261.70 257.82 259.66 269.48 256.86 279.86
  Q 254.21 289.68 248.77 298.69
  Q 243.63 307.18 236.07 314.81
  Q 232.35 318.57 228.03 319.11
  A 1.14 1.10 60.8 0 1 227.17 318.85
  L 224.59 316.68
  A 1.73 1.72 35.6 0 1 224.22 314.47
  Q 238.18 291.23 241.45 285.71
  C 245.47 278.93 248.68 269.69 248.07 261.44
  Q 247.91 259.24 248.38 254.06
  Q 248.61 251.50 247.90 246.74
  Q 246.09 234.71 241.78 223.74
  Q 235.53 207.84 230.66 193.62
  A 0.58 0.56 -44.3 0 1 230.67 193.22
  Q 230.96 192.51 232.24 191.95
  Q 240.00 210.30 245.06 225.95
  Q 247.13 232.34 249.06 241.89
  Q 251.12 252.10 250.54 258.77
  C 249.55 270.24 248.10 278.93 242.63 288.39
  Q 237.41 297.41 226.22 314.14
  A 2.11 2.11 0.0 0 0 227.68 317.40
  L 228.04 317.45
  A 5.86 5.84 25.1 0 0 233.23 315.58
  Q 239.66 308.49 243.33 303.33
  Q 244.98 301.02 249.56 292.80
  C 256.95 279.54 259.75 263.88 258.36 249.32
  C 257.58 241.14 255.45 231.42 252.55 223.26
  Q 246.53 206.36 243.56 199.39
  Q 240.11 191.34 239.31 189.02
  C 237.84 184.74 235.78 180.94 233.25 177.98
  A 0.35 0.35 0.0 0 1 233.69 177.45
  Q 235.93 178.72 237.15 180.07
  Q 246.01 189.90 249.18 194.48
  Q 252.37 199.07 254.36 201.86
  Q 257.72 206.59 258.95 209.15
  Q 266.08 224.07 269.33 237.34
  Q 272.02 248.32 272.90 260.73
  Q 274.90 289.16 264.52 314.79
  C 262.68 319.34 260.58 323.53 257.47 327.56
  Q 250.09 337.11 241.20 344.90
  A 0.26 0.26 0.0 0 1 240.76 344.70
  Q 240.79 342.32 241.81 339.97
  Z"
/>
<path fill="#dfb490" d="
  M 90.40 203.12
  Q 88.60 203.09 83.77 201.50
  Q 74.61 198.48 71.73 197.74
  C 68.34 196.87 64.96 194.68 62.91 192.88
  C 58.24 188.78 62.16 183.94 66.88 182.38
  Q 68.34 181.89 71.71 182.90
  C 73.15 183.34 76.06 183.70 78.01 184.54
  Q 83.40 186.85 86.49 188.03
  C 88.13 188.66 96.38 193.21 96.54 196.29
  C 96.75 200.11 94.90 201.55 91.34 202.95
  A 2.52 2.34 -53.1 0 1 90.40 203.12
  Z
  M 94.84 196.95
  Q 93.41 192.93 88.53 190.95
  Q 78.76 186.99 68.83 184.65
  A 2.26 2.18 46.0 0 0 67.97 184.62
  C 64.74 185.18 61.03 187.75 64.48 191.34
  Q 66.06 192.97 70.37 194.15
  Q 80.55 196.94 88.52 200.10
  C 91.60 201.32 93.37 201.03 94.78 198.13
  A 1.58 1.56 -42.4 0 0 94.84 196.95
  Z"
/>
<path fill="#552d15" d="
  M 94.78 198.13
  C 93.37 201.03 91.60 201.32 88.52 200.10
  Q 80.55 196.94 70.37 194.15
  Q 66.06 192.97 64.48 191.34
  C 61.03 187.75 64.74 185.18 67.97 184.62
  A 2.26 2.18 46.0 0 1 68.83 184.65
  Q 78.76 186.99 88.53 190.95
  Q 93.41 192.93 94.84 196.95
  A 1.58 1.56 -42.4 0 1 94.78 198.13
  Z"
/>
<path fill="#552d15" d="
  M 225.61 190.31
  Q 224.62 192.52 222.90 192.97
  Q 211.37 195.99 200.07 199.85
  C 196.66 201.02 194.04 200.99 193.84 196.78
  C 196.32 192.55 199.65 191.43 204.82 189.58
  Q 206.12 189.11 218.72 185.20
  C 222.67 183.97 226.34 185.59 225.61 190.31
  Z"
/>
<path fill="#dfb490" d="
  M 193.84 196.78
  C 194.04 200.99 196.66 201.02 200.07 199.85
  Q 211.37 195.99 222.90 192.97
  Q 224.62 192.52 225.61 190.31
  Q 226.24 189.70 226.78 189.92
  A 0.42 0.42 0.0 0 1 227.02 190.47
  Q 225.08 195.21 219.67 196.91
  Q 215.54 198.21 206.67 201.42
  Q 202.20 203.04 195.54 203.11
  A 1.72 1.70 66.2 0 1 194.33 202.63
  Q 191.37 199.75 192.22 196.19
  A 0.65 0.64 17.5 0 1 193.09 195.74
  Q 194.03 196.13 193.84 196.78
  Z"
/>
<path fill="#dfb490" d="
  M 41.84 201.77
  Q 41.21 203.71 40.51 205.62
  Q 34.22 222.62 32.64 227.87
  C 26.60 247.91 25.38 271.68 35.30 290.28
  Q 40.44 299.91 48.72 310.80
  Q 51.72 314.74 55.59 317.18
  A 2.43 2.37 -23.4 0 0 56.46 317.51
  Q 58.04 317.77 59.33 316.08
  A 1.68 1.67 -43.3 0 0 59.39 314.14
  C 56.96 310.52 53.64 306.53 51.13 302.15
  Q 49.93 300.04 45.89 293.16
  Q 31.16 268.10 38.01 240.19
  Q 39.06 235.91 40.51 230.46
  C 42.44 223.16 45.74 215.59 48.53 208.28
  Q 49.31 212.09 48.58 214.40
  Q 44.58 227.04 41.17 241.23
  Q 41.04 241.78 39.44 251.42
  C 37.65 262.30 39.56 274.86 43.95 283.82
  C 46.92 289.86 51.23 296.14 54.81 302.91
  C 57.14 307.30 60.34 311.74 62.68 316.57
  A 0.85 0.85 0.0 0 1 62.13 317.76
  L 56.89 319.16
  A 1.33 1.26 46.4 0 1 56.09 319.12
  C 52.82 317.95 49.07 314.32 47.24 312.50
  A 7.23 5.62 53.1 0 1 46.56 311.74
  Q 44.01 308.55 36.70 296.39
  Q 32.14 288.81 30.35 283.10
  Q 27.11 272.84 26.47 268.79
  C 24.62 257.24 26.56 246.18 29.02 233.07
  Q 30.22 226.68 31.98 222.02
  Q 36.40 210.35 41.18 198.67
  A 0.61 0.61 0.0 0 1 42.34 199.01
  L 41.84 201.77
  Z"
/>
<path fill="#9f7957" d="
  M 93.26 275.44
  C 92.61 266.89 93.58 257.73 94.13 249.46
  Q 94.70 240.95 98.84 231.87
  Q 102.65 223.51 107.08 219.91
  Q 120.56 208.93 138.00 208.87
  Q 143.30 208.85 151.60 208.97
  Q 159.04 209.08 163.23 210.40
  Q 168.51 212.05 173.97 215.01
  C 183.31 220.07 189.61 229.41 192.32 239.44
  C 193.14 242.46 194.36 247.17 194.84 251.60
  Q 196.48 266.72 195.38 283.01
  C 195.01 288.51 193.65 293.00 192.00 298.77
  Q 189.76 306.64 184.10 312.75
  Q 180.21 316.95 176.40 318.88
  Q 171.25 321.49 166.98 322.16
  C 162.45 322.88 158.03 323.75 153.32 323.95
  Q 143.12 324.37 134.06 323.77
  Q 129.56 323.47 121.85 321.85
  C 112.61 319.91 104.31 315.99 100.22 307.56
  Q 96.51 299.93 94.99 293.11
  Q 94.14 289.33 93.86 283.55
  Q 93.83 282.92 93.26 275.44
  Z
  M 162.21 235.00
  C 159.06 236.93 155.10 240.19 155.80 244.27
  C 156.83 250.30 164.74 245.35 167.52 243.65
  C 170.29 241.95 178.29 237.14 173.38 233.49
  C 170.06 231.02 165.36 233.06 162.21 235.00
  Z
  M 114.85 233.48
  Q 111.67 237.70 116.13 240.98
  Q 121.65 245.03 127.81 247.51
  A 1.73 1.72 52.4 0 0 128.70 247.63
  Q 131.39 247.32 132.23 245.10
  A 2.03 1.96 52.3 0 0 132.34 244.08
  Q 131.97 241.36 131.17 240.38
  Q 126.28 234.39 118.23 232.58
  Q 115.92 232.06 114.85 233.48
  Z
  M 143.72 299.78
  C 148.95 302.64 155.16 306.35 162.65 308.58
  A 2.23 2.23 0.0 0 0 165.41 307.10
  L 166.32 304.18
  A 1.75 1.74 -73.4 0 0 165.14 301.98
  C 161.18 300.83 154.32 297.86 149.35 295.06
  C 147.72 294.14 146.75 291.99 146.74 290.48
  Q 146.53 254.17 146.52 253.18
  A 2.92 2.92 0.0 0 0 143.94 250.31
  L 143.84 250.30
  A 2.42 2.42 0.0 0 0 141.14 252.61
  Q 140.43 272.61 140.79 285.75
  Q 140.96 292.16 136.13 295.33
  Q 128.82 300.14 121.77 302.68
  A 1.04 1.04 0.0 0 0 121.22 304.18
  L 123.28 307.76
  A 1.47 1.46 -21.9 0 0 124.91 308.45
  Q 134.27 306.09 141.15 300.07
  A 2.27 2.26 -51.2 0 1 143.72 299.78
  Z"
/>
<path fill="#552d15" d="
  M 167.52 243.65
  C 164.74 245.35 156.83 250.30 155.80 244.27
  C 155.10 240.19 159.06 236.93 162.21 235.00
  C 165.36 233.06 170.06 231.02 173.38 233.49
  C 178.29 237.14 170.29 241.95 167.52 243.65
  Z"
/>
<path fill="#552d15" d="
  M 114.85 233.48
  Q 115.92 232.06 118.23 232.58
  Q 126.28 234.39 131.17 240.38
  Q 131.97 241.36 132.34 244.08
  A 2.03 1.96 52.3 0 1 132.23 245.10
  Q 131.39 247.32 128.70 247.63
  A 1.73 1.72 52.4 0 1 127.81 247.51
  Q 121.65 245.03 116.13 240.98
  Q 111.67 237.70 114.85 233.48
  Z"
/>
<path fill="#552d15" d="
  M 143.72 299.78
  A 2.27 2.26 -51.2 0 0 141.15 300.07
  Q 134.27 306.09 124.91 308.45
  A 1.47 1.46 -21.9 0 1 123.28 307.76
  L 121.22 304.18
  A 1.04 1.04 0.0 0 1 121.77 302.68
  Q 128.82 300.14 136.13 295.33
  Q 140.96 292.16 140.79 285.75
  Q 140.43 272.61 141.14 252.61
  A 2.42 2.42 0.0 0 1 143.84 250.30
  L 143.94 250.31
  A 2.92 2.92 0.0 0 1 146.52 253.18
  Q 146.53 254.17 146.74 290.48
  C 146.75 291.99 147.72 294.14 149.35 295.06
  C 154.32 297.86 161.18 300.83 165.14 301.98
  A 1.75 1.74 -73.4 0 1 166.32 304.18
  L 165.41 307.10
  A 2.23 2.23 0.0 0 1 162.65 308.58
  C 155.16 306.35 148.95 302.64 143.72 299.78
  Z"
/>
<path fill="#552d15" d="
  M 166.00 343.40
  Q 145.26 342.67 124.45 343.49
  Q 114.60 342.30 105.01 339.48
  Q 99.75 337.94 94.94 335.14
  A 2.62 2.60 10.2 0 1 93.68 333.34
  L 93.14 330.36
  A 0.89 0.88 68.2 0 1 93.52 329.47
  C 95.39 328.22 96.60 327.58 98.85 328.42
  Q 100.79 329.15 102.82 329.85
  A 4.92 4.60 -30.3 0 0 103.79 330.07
  Q 108.40 330.62 112.88 332.09
  A 0.28 0.28 0.0 0 1 113.07 332.44
  L 113.03 332.48
  A 0.32 0.31 21.1 0 1 112.77 332.59
  L 106.52 331.98
  A 0.50 0.50 0.0 0 0 106.27 332.93
  Q 106.33 332.95 108.26 333.49
  Q 110.42 334.10 117.74 334.64
  Q 151.02 337.10 179.69 333.82
  Q 182.41 333.51 185.30 332.65
  A 0.17 0.17 0.0 0 0 185.26 332.31
  L 176.77 331.97
  A 0.09 0.09 0.0 0 1 176.68 331.87
  L 176.74 331.49
  A 0.11 0.11 0.0 0 1 176.84 331.39
  Q 183.84 330.79 190.44 328.73
  Q 192.26 328.16 196.76 329.21
  A 0.74 0.73 11.6 0 1 197.32 330.05
  Q 196.57 334.57 192.46 336.42
  C 184.46 340.02 174.64 341.87 166.00 343.40
  Z"
/>
<path fill="#9f7957" d="
  M 166.00 343.40
  Q 154.72 345.20 151.80 345.38
  Q 141.97 345.96 137.00 345.24
  Q 130.76 344.34 124.45 343.49
  Q 145.26 342.67 166.00 343.40
  Z"
/>
<path fill="#9f7957" d="
  M 228.87 381.97
  C 228.85 381.16 230.54 379.10 230.88 377.67
  C 232.35 371.40 233.23 364.60 236.40 359.01
  A 8.44 8.43 88.8 0 1 239.25 356.03
  C 243.97 353.04 247.94 350.59 250.60 346.17
  A 0.52 0.52 0.0 0 1 251.56 346.47
  Q 251.07 355.11 249.71 364.72
  C 249.04 369.45 247.16 374.73 243.16 377.55
  A 0.72 0.71 79.9 0 1 242.06 376.78
  C 242.59 374.78 243.59 370.54 242.20 367.95
  A 0.85 0.85 0.0 0 0 240.92 367.68
  Q 239.51 368.80 238.81 370.80
  Q 236.43 377.66 233.88 381.09
  Q 232.45 383.00 229.55 382.70
  A 0.77 0.76 -88.3 0 1 228.87 381.97
  Z"
/>
<path fill="#9f7957" d="
  M 44.40 378.42
  A 0.36 0.36 0.0 0 1 43.83 378.77
  C 38.82 374.99 37.52 368.58 36.02 362.73
  Q 34.66 357.44 34.98 352.35
  A 3.05 2.91 -49.3 0 0 34.94 351.58
  Q 34.73 350.36 34.12 348.89
  A 0.98 0.95 71.5 0 1 34.75 347.58
  Q 34.98 347.52 35.35 347.81
  Q 43.20 353.95 47.23 356.38
  A 4.80 4.68 84.7 0 1 48.44 357.41
  Q 51.54 361.06 52.77 365.75
  C 53.97 370.36 54.15 376.42 57.53 381.34
  A 0.52 0.52 0.0 0 1 57.21 382.14
  Q 52.86 383.03 51.23 379.36
  Q 48.50 373.22 46.97 369.38
  A 1.85 1.72 -79.7 0 0 46.65 368.88
  Q 45.29 367.36 43.71 367.65
  A 1.24 1.24 0.0 0 0 42.72 369.09
  L 44.40 378.42
  Z"
/>
<path fill="#9f7957" d="
  M 192.94 412.91
  Q 193.54 411.00 192.37 409.57
  A 0.91 0.91 0.0 0 0 191.01 409.52
  C 187.56 413.10 183.88 415.26 178.71 413.23
  A 1.63 1.62 28.2 0 1 177.97 410.79
  L 178.62 409.87
  A 1.51 1.49 66.6 0 0 178.87 409.23
  L 179.90 402.03
  A 1.61 1.61 0.0 0 0 178.12 400.20
  C 175.47 400.50 173.23 402.43 171.53 404.18
  A 1.22 1.20 27.3 0 1 170.44 404.52
  C 166.91 403.81 168.22 398.82 169.37 396.58
  Q 172.36 390.76 174.83 385.95
  Q 180.10 381.60 184.53 382.36
  C 191.65 383.60 200.82 386.68 206.96 391.87
  A 1.19 1.18 41.5 0 1 207.07 393.57
  Q 206.20 394.52 205.42 396.11
  Q 200.41 406.32 197.23 410.24
  Q 196.05 411.69 192.94 412.91
  Z"
/>
<path fill="#9f7957" d="
  M 117.05 404.50
  Q 115.30 401.46 110.74 399.78
  A 1.28 1.28 0.0 0 0 109.45 400.03
  Q 107.40 401.87 108.23 403.79
  C 109.37 406.42 109.29 408.32 109.90 411.69
  A 1.05 1.04 74.9 0 1 109.24 412.85
  Q 102.51 415.35 98.34 410.02
  Q 97.46 408.91 95.00 408.72
  A 0.85 0.84 -76.1 0 0 94.15 409.24
  Q 93.83 410.01 93.86 411.50
  Q 89.00 409.21 86.49 403.01
  A 1.52 1.50 17.9 0 0 86.37 402.78
  L 80.36 394.41
  A 1.50 1.48 -35.4 0 1 80.72 392.32
  Q 87.98 387.23 98.12 384.58
  Q 105.27 382.72 109.47 383.40
  A 2.14 2.14 0.0 0 1 110.43 383.80
  Q 112.33 385.17 113.32 387.70
  A 2.55 2.24 22.8 0 0 113.49 388.05
  C 116.64 393.22 118.59 397.99 117.05 404.50
  Z"
/>
</svg>
