<?xml version="1.0" encoding="UTF-8" standalone="no"?>
<!DOCTYPE svg PUBLIC "-//W3C//DTD SVG 1.1//EN" "http://www.w3.org/Graphics/SVG/1.1/DTD/svg11.dtd">
<svg xmlns="http://www.w3.org/2000/svg" version="1.1" viewBox="0.00 0.00 284.00 472.00">
<g stroke-width="2.00" fill="none" stroke-linecap="butt">
<path stroke="#795337" vector-effect="non-scaling-stroke" d="
  M 184.40 64.53
  Q 183.90 65.24 184.29 65.71
  Q 184.74 66.26 185.50 65.94"
/>
<path stroke="#a3804b" vector-effect="non-scaling-stroke" d="
  M 111.67 68.06
  Q 112.91 71.04 115.63 72.78
  Q 125.13 78.87 137.00 79.55
  Q 148.69 80.23 155.65 78.53
  Q 161.52 77.10 164.70 74.82
  Q 168.75 71.93 171.32 67.62
  A 0.98 0.97 41.7 0 0 171.25 66.52
  Q 167.65 61.88 167.63 55.94
  Q 167.62 54.27 169.29 53.71
  A 1.60 1.59 70.2 0 1 171.28 54.65
  C 172.89 58.82 173.45 60.92 175.34 63.49
  A 1.14 1.14 0.0 0 0 177.00 63.67
  Q 178.69 62.20 179.61 60.45
  C 182.24 55.43 173.76 45.31 170.48 40.97
  A 6.54 6.46 -70.7 0 1 169.35 38.59
  C 166.70 27.70 163.85 15.19 151.87 10.85
  Q 136.19 5.19 124.53 15.32
  C 120.45 18.86 117.70 23.62 116.39 28.15
  C 115.12 32.53 114.40 39.87 110.69 43.93
  C 105.42 49.70 100.71 56.47 105.44 64.21
  A 0.89 0.88 64.1 0 0 106.50 64.58
  C 108.60 63.81 111.44 57.19 112.21 54.93
  A 1.51 1.42 20.8 0 1 114.18 54.12
  C 116.46 55.06 114.86 60.86 114.23 61.99
  Q 112.86 64.46 111.69 66.99
  A 1.36 1.35 46.2 0 0 111.67 68.06"
/>
<path stroke="#997153" vector-effect="non-scaling-stroke" d="
  M 202.79 82.60
  Q 190.36 76.62 177.69 72.36
  A 1.91 1.90 27.9 0 0 175.59 73.00
  Q 168.33 82.37 155.33 84.37
  C 142.76 86.30 128.46 85.92 117.15 81.13
  Q 110.74 78.42 106.60 72.82
  A 1.16 1.15 -27.0 0 0 105.32 72.41
  Q 92.84 76.41 81.34 82.60"
/>
<path stroke="#795337" vector-effect="non-scaling-stroke" d="
  M 81.34 82.60
  L 80.64 82.60
  A 0.73 0.72 84.1 0 1 79.93 82.02
  L 79.40 79.40"
/>
<path stroke="#8e6342" vector-effect="non-scaling-stroke" d="
  M 79.40 79.40
  Q 75.84 70.86 69.29 64.20
  Q 68.87 63.77 64.11 60.93
  Q 61.05 59.10 58.36 59.38
  C 50.05 60.21 44.46 66.60 43.62 74.65
  Q 42.85 82.00 46.04 88.52
  Q 48.23 92.99 49.61 94.91
  Q 51.68 97.78 54.83 99.98"
/>
<path stroke="#795337" vector-effect="non-scaling-stroke" d="
  M 54.83 99.98
  Q 55.21 101.62 58.28 103.33"
/>
<path stroke="#8e6342" vector-effect="non-scaling-stroke" d="
  M 58.28 103.33
  Q 56.56 106.82 55.07 109.67
  Q 51.26 116.93 47.15 125.98
  C 45.20 130.28 43.92 134.25 42.05 138.43
  C 37.57 148.38 34.66 158.33 31.66 170.13
  Q 29.43 178.88 29.24 185.95
  Q 28.99 194.99 29.28 202.04
  Q 29.61 209.87 33.58 219.45
  Q 39.19 232.97 47.22 242.38
  A 0.14 0.11 -83.0 0 1 47.25 242.43
  L 50.22 247.18
  A 1.22 1.22 0.0 0 1 49.71 248.93
  Q 47.40 250.04 45.67 248.84
  Q 31.73 239.16 26.62 222.92
  A 0.35 0.35 0.0 0 0 25.95 222.94
  Q 23.08 233.84 19.35 244.77
  Q 15.81 255.12 12.94 271.57
  Q 8.90 294.74 12.83 317.74"
/>
<path stroke="#997153" vector-effect="non-scaling-stroke" d="
  M 12.83 317.74
  Q 15.80 332.70 19.14 340.83
  Q 23.04 350.31 32.23 364.26
  Q 34.26 367.35 44.03 377.80"
/>
<path stroke="#8e6342" vector-effect="non-scaling-stroke" d="
  M 44.03 377.80
  Q 45.11 380.21 43.44 383.47
  A 1.30 1.30 0.0 0 1 41.38 383.82
  Q 41.21 383.65 40.45 383.45"
/>
<path stroke="#997153" vector-effect="non-scaling-stroke" d="
  M 40.45 383.45
  Q 33.84 378.65 28.36 371.71
  A 0.72 0.72 0.0 0 0 27.10 372.35
  L 27.74 374.64"
/>
<path stroke="#8e6342" vector-effect="non-scaling-stroke" d="
  M 27.74 374.64
  Q 27.77 387.67 31.91 398.11
  C 35.73 407.72 43.04 417.64 52.50 422.01
  Q 59.28 425.14 62.49 425.81
  Q 73.78 428.19 85.24 426.29
  Q 86.13 426.15 86.41 427.62"
/>
<path stroke="#795337" vector-effect="non-scaling-stroke" d="
  M 86.41 427.62
  Q 86.71 430.16 83.94 431.44
  Q 74.02 435.99 63.06 434.36
  A 0.59 0.58 2.4 0 0 62.39 434.97
  Q 62.78 441.49 62.54 444.76
  Q 62.52 445.04 62.80 449.66
  Q 63.05 453.73 66.25 456.28
  A 0.31 0.31 0.0 0 0 66.74 455.94
  Q 65.16 450.79 67.31 445.38
  A 1.82 1.81 37.1 0 1 70.44 444.95
  Q 71.04 445.74 71.23 447.49
  C 71.68 451.64 72.90 458.32 76.48 460.81
  A 0.86 0.86 0.0 0 0 77.83 460.10
  Q 77.82 455.38 77.97 452.78
  Q 78.08 450.78 80.15 445.70
  A 1.14 1.13 -86.7 0 1 80.89 445.04
  Q 82.47 444.58 83.25 445.34
  A 1.33 1.30 -66.4 0 1 83.64 446.37
  Q 83.25 452.21 84.86 458.79
  A 0.90 0.89 -32.3 0 0 86.42 459.14
  L 91.70 452.78
  A 1.45 1.35 -16.3 0 0 91.92 452.41
  Q 97.13 439.83 98.34 436.56
  Q 101.41 428.23 101.85 418.50"
/>
<path stroke="#8e6342" vector-effect="non-scaling-stroke" d="
  M 101.85 418.50
  Q 101.98 418.25 101.93 417.95"
/>
<path stroke="#997153" vector-effect="non-scaling-stroke" d="
  M 101.93 417.95
  Q 102.29 417.06 102.00 416.25
  A 0.96 0.95 -2.7 0 0 101.31 415.63
  Q 94.15 413.91 86.99 410.60
  C 82.83 408.68 79.09 407.19 78.18 402.97
  A 2.37 2.08 79.5 0 1 79.85 400.17
  C 82.41 399.81 85.04 401.17 88.24 402.68
  Q 89.86 403.44 92.79 404.21
  Q 103.84 407.12 107.14 407.78
  Q 132.58 412.87 159.96 410.28
  Q 169.02 409.42 180.51 406.52
  Q 192.01 403.62 202.82 400.87"
/>
<path stroke="#8e6342" vector-effect="non-scaling-stroke" d="
  M 202.82 400.87
  Q 206.60 404.05 202.10 407.35
  C 196.83 411.22 189.21 413.51 182.14 415.41
  A 1.01 1.01 0.0 0 0 181.46 416.76
  Q 182.06 418.25 181.78 419.58"
/>
<path stroke="#795337" vector-effect="non-scaling-stroke" d="
  M 181.78 419.58
  C 182.11 431.93 186.40 444.08 193.00 454.26
  Q 194.68 456.83 196.66 458.59
  A 1.33 1.33 0.0 0 0 198.86 457.54
  Q 198.65 451.70 201.38 445.62
  A 0.99 0.99 0.0 0 1 202.97 445.30
  C 206.37 448.52 206.29 454.10 205.42 458.43
  Q 205.25 459.24 205.40 459.55
  A 1.31 1.24 -38.9 0 0 207.53 459.72
  Q 208.62 458.40 209.20 456.96
  Q 211.09 452.30 213.14 445.37
  A 1.57 1.57 0.0 0 1 216.04 445.11
  Q 217.93 448.79 216.86 453.54
  A 1.67 1.66 20.0 0 0 217.72 455.38
  L 217.83 455.43
  A 1.23 1.23 0.0 0 0 219.52 454.83
  Q 221.33 450.72 221.49 446.73
  Q 221.77 439.38 222.02 435.99
  A 1.03 1.02 0.5 0 0 220.94 434.90
  Q 210.17 435.47 201.16 429.82
  Q 197.53 427.55 197.97 425.70"
/>
<path stroke="#997153" vector-effect="non-scaling-stroke" d="
  M 197.97 425.70
  Q 209.40 427.09 213.01 426.87
  Q 224.04 426.20 233.93 420.41
  Q 237.49 418.33 240.72 414.62
  Q 245.28 409.36 246.46 407.71
  C 252.47 399.23 254.65 387.93 254.73 377.70
  A 6.92 6.58 53.6 0 1 254.92 376.19
  L 255.87 372.34
  A 0.37 0.37 0.0 0 0 255.24 372.01
  Q 254.98 372.29 251.26 376.75
  Q 248.56 379.98 242.49 383.37"
/>
<path stroke="#8e6342" vector-effect="non-scaling-stroke" d="
  M 242.49 383.37
  Q 238.66 383.47 239.00 379.10"
/>
<path stroke="#997153" vector-effect="non-scaling-stroke" d="
  M 239.00 379.10
  Q 240.27 376.69 242.21 374.69
  Q 245.06 371.74 245.56 371.15
  Q 260.39 353.55 267.19 332.52
  Q 272.10 317.32 272.59 297.12
  C 272.77 289.95 272.55 283.59 271.50 276.75
  Q 267.42 250.33 257.84 224.90
  A 0.55 0.55 0.0 0 0 256.81 224.91
  C 253.44 234.66 246.52 246.14 236.89 250.76
  Q 234.54 251.89 232.91 249.07
  A 1.32 1.31 -40.9 0 1 233.02 247.58
  Q 236.31 243.56 242.59 234.60
  C 244.69 231.59 246.75 227.88 248.00 224.79
  Q 250.44 218.81 251.22 217.14
  A 7.60 7.54 -28.1 0 0 251.86 215.07
  C 252.28 212.42 252.30 211.51 253.14 208.42
  Q 254.34 204.06 254.54 198.99
  C 255.21 181.95 251.86 166.34 246.41 149.72
  Q 244.19 142.95 238.57 130.95
  Q 231.98 116.89 226.13 104.86
  Q 225.92 104.44 225.78 103.50"
/>
<path stroke="#795337" vector-effect="non-scaling-stroke" d="
  M 225.78 103.50
  Q 225.62 102.94 226.09 102.58
  Q 235.07 95.85 238.10 85.87
  C 240.78 77.06 239.56 68.24 233.18 61.20
  A 3.78 3.56 -5.5 0 0 232.20 60.44
  C 225.46 56.86 218.43 59.33 213.59 64.86
  Q 206.67 72.76 202.79 82.60"
/>
<path stroke="#c29874" vector-effect="non-scaling-stroke" d="
  M 225.78 103.50
  L 215.77 91.89"
/>
<path stroke="#795337" vector-effect="non-scaling-stroke" d="
  M 215.77 91.89
  Q 216.61 91.79 216.95 91.52
  Q 217.03 91.45 217.34 90.38
  Q 220.74 78.80 228.39 70.42
  A 2.34 2.33 32.5 0 0 227.56 66.69
  L 227.28 66.57
  A 4.80 4.79 -57.8 0 0 221.87 67.81
  C 216.84 73.46 213.94 80.61 212.66 88.51"
/>
<path stroke="#c29874" vector-effect="non-scaling-stroke" d="
  M 212.66 88.51
  Q 206.95 86.75 202.79 82.60"
/>
<path stroke="#997153" vector-effect="non-scaling-stroke" d="
  M 215.77 91.89
  L 212.66 88.51"
/>
<path stroke="#d7a87f" vector-effect="non-scaling-stroke" d="
  M 239.00 379.10
  Q 237.52 379.32 238.20 377.54
  C 238.93 375.64 240.79 374.23 242.63 372.40
  A 4.40 4.39 82.8 0 0 243.24 371.61
  Q 243.73 370.77 247.59 366.09
  Q 255.14 356.94 259.87 345.63
  Q 265.12 333.10 266.02 329.40
  Q 268.76 318.14 269.14 314.55
  Q 270.80 298.81 269.09 279.28
  Q 268.89 276.99 268.63 276.18
  C 267.81 273.55 268.33 270.97 267.79 268.43
  Q 267.10 265.13 266.34 258.11
  A 2.63 2.38 -60.5 0 0 266.19 257.44
  L 263.14 249.26
  A 2.00 1.89 32.2 0 1 263.03 248.83
  Q 261.87 240.25 257.97 232.43
  A 0.89 0.89 0.0 0 0 256.60 232.15
  C 255.20 233.32 254.70 235.47 253.60 236.43
  Q 253.19 236.79 248.67 243.18
  Q 244.66 248.84 237.21 252.49
  A 1.77 1.77 0.0 0 1 235.94 252.62
  C 233.72 252.04 229.92 249.87 231.87 247.18
  Q 238.23 238.39 240.40 235.43
  Q 243.08 231.78 244.35 227.56
  A 5.88 5.72 -21.8 0 1 244.94 226.23
  Q 249.02 219.54 249.96 214.82
  C 251.92 205.03 253.38 193.85 252.13 183.72
  C 251.13 175.59 250.64 168.91 248.41 162.79
  Q 243.14 148.28 239.75 138.68
  Q 238.52 135.20 237.63 133.36
  C 235.90 129.80 235.25 127.22 233.34 124.16
  Q 232.45 122.74 231.46 120.13
  C 229.60 115.24 227.98 112.68 224.58 106.71
  C 220.88 100.22 216.34 96.05 210.82 91.21
  Q 208.42 89.10 202.95 86.64
  C 200.08 85.34 197.80 83.00 194.89 81.55
  Q 186.59 77.39 177.61 74.62
  A 1.32 1.32 0.0 0 0 176.16 75.08
  C 168.58 85.03 158.88 86.51 146.10 87.22
  Q 137.11 87.72 129.58 86.69
  Q 116.11 84.85 105.98 75.47
  A 1.35 1.32 -22.7 0 0 105.10 75.12
  C 100.48 75.03 97.39 77.31 93.60 79.08
  Q 85.04 83.08 80.16 85.98
  Q 78.14 87.18 75.00 86.95"
/>
<path stroke="#d7a87f" vector-effect="non-scaling-stroke" d="
  M 242.49 383.37
  Q 241.90 383.68 241.38 383.62
  A 0.50 0.50 0.0 0 0 241.09 384.56
  C 243.19 385.67 245.78 383.66 246.95 382.05
  A 1.95 1.83 -87.5 0 1 247.37 381.64
  L 252.25 378.18
  A 0.88 0.88 0.0 0 1 253.64 379.00
  C 252.72 387.07 251.48 395.00 247.87 401.93
  Q 242.51 412.23 233.62 418.44
  Q 229.78 421.11 221.86 423.71
  C 215.82 425.69 207.68 424.95 201.75 424.41
  Q 198.92 424.15 195.81 424.67"
/>
<path stroke="#b78a63" vector-effect="non-scaling-stroke" d="
  M 195.81 424.67
  L 187.90 419.88
  A 1.88 1.81 -1.1 0 1 187.35 419.37
  L 186.43 418.08
  A 1.15 1.15 0.0 0 0 185.53 417.59
  Q 182.01 417.48 181.78 419.58"
/>
<path stroke="#d7a87f" vector-effect="non-scaling-stroke" d="
  M 202.82 400.87
  Q 205.71 400.04 200.73 399.43
  A 3.53 3.39 39.6 0 0 199.40 399.53
  Q 192.86 401.32 186.24 403.33
  Q 180.28 405.13 172.91 406.14
  Q 153.44 408.80 144.48 409.29
  Q 141.08 409.48 112.71 407.02
  C 110.69 406.84 107.69 405.92 105.76 405.87
  A 4.56 4.50 -32.2 0 1 104.04 405.49
  Q 102.54 404.83 97.01 403.48
  Q 90.39 401.85 83.14 398.80
  C 80.87 397.85 80.10 398.40 78.38 399.64
  C 71.62 404.53 82.37 410.73 86.29 412.23
  Q 91.70 414.31 97.02 416.39
  A 1.76 1.45 -11.8 0 1 97.42 416.60
  Q 99.44 417.97 101.93 417.95"
/>
<path stroke="#b78a63" vector-effect="non-scaling-stroke" d="
  M 101.85 418.50
  Q 99.63 417.62 97.22 419.22
  Q 90.88 423.45 88.67 425.17
  Q 87.53 426.06 86.41 427.62"
/>
<path stroke="#d7a87f" vector-effect="non-scaling-stroke" d="
  M 27.74 374.64
  Q 31.48 378.27 38.31 383.94
  Q 39.97 385.31 41.79 385.17
  A 0.24 0.23 -26.6 0 0 41.93 384.76
  L 40.45 383.45"
/>
<path stroke="#d7a87f" vector-effect="non-scaling-stroke" d="
  M 44.03 377.80
  Q 44.51 377.99 44.75 377.87
  A 0.73 0.67 56.2 0 0 44.92 376.78
  Q 40.35 371.33 37.33 368.05
  Q 33.67 364.08 30.45 358.82
  Q 23.87 348.06 19.68 337.39
  C 18.55 334.50 17.97 328.80 16.78 325.38
  Q 15.19 320.75 14.50 315.40
  A 0.62 0.61 67.6 0 0 13.52 314.99
  Q 12.65 315.65 12.83 317.74"
/>
<path stroke="#c29874" vector-effect="non-scaling-stroke" d="
  M 81.34 82.60
  L 75.00 86.95"
/>
<path stroke="#b78a63" vector-effect="non-scaling-stroke" d="
  M 75.00 86.95
  L 70.97 88.92"
/>
<path stroke="#795337" vector-effect="non-scaling-stroke" d="
  M 70.97 88.92
  Q 69.86 85.69 68.91 82.41
  Q 67.63 78.01 66.64 76.25
  C 63.80 71.17 60.29 65.88 53.42 67.54
  A 0.76 0.75 83.5 0 0 52.85 68.26
  Q 52.83 69.46 54.25 70.26
  A 0.77 0.74 -1.1 0 1 54.51 70.50
  Q 57.00 74.33 58.52 76.47
  Q 60.10 78.71 62.00 82.53
  Q 64.39 87.33 66.83 92.60"
/>
<path stroke="#b78a63" vector-effect="non-scaling-stroke" d="
  M 66.83 92.60
  L 58.28 103.33"
/>
<path stroke="#c29874" vector-effect="non-scaling-stroke" d="
  M 197.97 425.70
  L 195.81 424.67"
/>
<path stroke="#8e6342" vector-effect="non-scaling-stroke" d="
  M 70.97 88.92
  L 66.83 92.60"
/>
<path stroke="#b78a63" vector-effect="non-scaling-stroke" d="
  M 79.40 79.40
  L 79.21 80.37
  A 0.50 0.50 0.0 0 1 78.25 80.43
  Q 76.04 73.88 70.99 67.90
  C 67.76 64.06 60.63 60.17 55.96 61.53
  Q 50.23 63.19 46.52 68.88
  A 3.52 3.41 69.3 0 0 46.07 69.92
  Q 44.46 76.66 45.79 83.82
  A 2.08 1.97 29.4 0 0 45.91 84.21
  L 49.57 92.60
  A 8.14 7.94 15.5 0 0 50.53 94.25
  L 54.83 99.98"
/>
<path stroke="#a3804b" vector-effect="non-scaling-stroke" d="
  M 129.82 28.72
  A 3.55 3.55 0.0 0 0 126.27 25.17
  A 3.55 3.55 0.0 0 0 122.72 28.72
  A 3.55 3.55 0.0 0 0 126.27 32.27
  A 3.55 3.55 0.0 0 0 129.82 28.72"
/>
<path stroke="#a3804b" vector-effect="non-scaling-stroke" d="
  M 159.71 28.53
  A 3.44 3.44 0.0 0 0 156.27 25.09
  A 3.44 3.44 0.0 0 0 152.83 28.53
  A 3.44 3.44 0.0 0 0 156.27 31.97
  A 3.44 3.44 0.0 0 0 159.71 28.53"
/>
<path stroke="#a3804b" vector-effect="non-scaling-stroke" d="
  M 131.2504 36.4814
  A 10.15 6.53 -179.5 0 0 141.3430 43.0998
  A 10.15 6.53 -179.5 0 0 151.5496 36.6586
  A 10.15 6.53 -179.5 0 0 141.4570 30.0402
  A 10.15 6.53 -179.5 0 0 131.2504 36.4814"
/>
<path stroke="#997153" vector-effect="non-scaling-stroke" d="
  M 146.7499 36.7981
  A 1.82 1.82 0.0 0 0 144.9879 34.9218
  L 137.9314 34.7001
  A 1.82 1.82 0.0 0 0 136.0552 36.4620
  L 136.0501 36.6219
  A 1.82 1.82 0.0 0 0 137.8121 38.4982
  L 144.8686 38.7199
  A 1.82 1.82 0.0 0 0 146.7448 36.9580
  L 146.7499 36.7981"
/>
<path stroke="#d7a87f" vector-effect="non-scaling-stroke" d="
  M 90.86 132.96
  Q 86.45 128.79 81.88 126.67
  Q 77.57 124.67 66.86 121.32
  Q 66.83 121.31 62.01 120.49
  A 2.73 2.71 -51.6 0 0 60.50 120.67
  Q 56.53 122.40 55.38 124.17
  C 51.87 129.50 57.25 132.40 61.78 134.89
  Q 64.04 136.14 67.96 137.29
  Q 76.38 139.76 80.62 141.26
  Q 84.05 142.47 85.52 142.15
  C 89.54 141.26 92.45 138.77 91.53 134.17
  A 2.36 2.34 -74.3 0 0 90.86 132.96"
/>
<path stroke="#8e6342" vector-effect="non-scaling-stroke" d="
  M 199.61 130.03
  Q 195.11 132.22 193.58 136.11"
/>
<path stroke="#d7a87f" vector-effect="non-scaling-stroke" d="
  M 193.58 136.11
  Q 192.58 135.61 192.46 135.71
  A 2.23 1.92 61.7 0 0 191.91 138.19
  Q 193.92 143.12 199.32 142.51
  Q 204.67 141.90 209.58 139.76
  C 215.36 137.24 217.80 136.67 223.60 134.39
  Q 228.50 132.47 229.23 128.03
  A 1.82 1.68 42.7 0 0 229.16 127.15
  Q 226.60 119.52 218.93 121.32
  C 214.66 122.31 209.68 124.09 204.33 125.71
  Q 199.95 127.05 199.61 130.03"
/>
<path stroke="#997153" vector-effect="non-scaling-stroke" d="
  M 193.58 136.11
  Q 194.80 140.63 198.56 139.37
  Q 214.72 133.93 224.25 131.54
  A 4.15 4.14 74.3 0 0 227.19 126.29
  L 227.18 126.24
  A 4.72 4.71 74.2 0 0 221.53 123.07
  Q 209.75 126.06 199.61 130.03"
/>
<path stroke="#b78a63" vector-effect="non-scaling-stroke" d="
  M 89.42 219.93
  Q 89.98 220.75 90.20 221.49
  Q 91.53 225.82 93.10 228.74
  Q 96.24 234.54 99.08 238.86
  Q 101.34 242.29 104.36 244.23
  Q 112.65 249.54 120.04 250.89
  Q 135.69 253.76 154.00 252.22
  C 163.14 251.45 177.20 248.41 183.81 241.07
  C 187.44 237.04 190.67 233.16 192.52 228.11
  Q 195.76 219.27 196.54 214.56
  Q 197.54 208.61 197.74 188.29
  Q 197.85 177.83 196.07 167.48
  Q 192.70 147.91 179.48 135.76
  Q 177.32 133.78 171.80 130.94
  Q 164.84 127.38 157.51 127.10
  Q 154.18 126.98 132.38 126.71
  Q 125.53 126.63 123.15 127.28
  Q 119.88 128.17 114.26 130.01
  C 111.01 131.07 106.35 134.63 104.01 136.49
  Q 99.65 139.97 96.88 144.35
  Q 92.08 151.96 89.99 159.41
  Q 88.61 164.32 87.09 175.72
  Q 85.97 184.10 86.19 192.70
  A 8.24 7.56 -53.8 0 0 86.33 193.96
  Q 86.76 196.11 86.45 197.20
  A 2.77 2.72 -47.5 0 0 86.51 198.91
  Q 86.77 199.60 87.09 206.76
  Q 87.24 209.92 89.07 219.11
  A 2.20 2.12 -69.2 0 0 89.42 219.93"
/>
<path stroke="#d7a87f" vector-effect="non-scaling-stroke" d="
  M 181.68 304.74
  Q 176.44 312.03 173.09 320.02
  A 8.02 7.93 -16.6 0 1 172.30 321.46
  Q 163.81 333.60 158.31 344.52
  C 155.14 350.81 152.57 364.29 159.15 369.77
  Q 164.58 374.28 166.93 378.15
  A 5.25 5.13 -86.2 0 0 167.98 379.38
  Q 170.13 381.24 171.24 381.74
  Q 177.13 384.37 183.16 385.79
  Q 187.74 386.88 193.01 384.85
  Q 196.71 383.43 200.53 378.47
  Q 203.69 374.37 206.72 369.46
  Q 208.02 367.35 209.13 366.64
  Q 215.67 362.46 219.18 359.18
  Q 225.79 353.03 233.09 344.13
  Q 240.28 335.37 244.20 323.68
  A 0.51 0.50 -72.4 0 0 243.87 323.04
  Q 243.32 322.87 242.64 322.90"
/>
<path stroke="#8e6342" vector-effect="non-scaling-stroke" d="
  M 242.64 322.90
  Q 244.87 315.97 244.47 309.19
  A 2.63 2.62 -84.8 0 0 242.48 306.79
  Q 238.36 305.79 237.50 309.79
  Q 236.84 312.86 235.69 318.44
  A 8.08 7.79 65.0 0 1 235.01 320.42
  Q 229.43 331.55 226.42 335.96
  C 221.99 342.45 214.89 350.39 207.87 355.43"
/>
<path stroke="#b78a63" vector-effect="non-scaling-stroke" d="
  M 207.87 355.43
  L 208.49 351.97
  A 1.25 1.24 33.3 0 0 208.30 351.08
  Q 203.91 344.49 202.08 342.37
  Q 193.90 332.91 181.06 331.50
  A 0.33 0.33 0.0 0 1 180.80 331.01
  C 185.06 323.21 187.49 318.95 189.14 313.52
  A 3.68 3.52 -22.0 0 1 189.50 312.72
  Q 191.50 309.48 189.18 308.97"
/>
<path stroke="#8e6342" vector-effect="non-scaling-stroke" d="
  M 189.18 308.97
  Q 190.62 304.44 188.37 301.19
  Q 187.04 299.28 185.44 300.67
  Q 183.12 302.67 181.68 304.74"
/>
<path stroke="#795337" vector-effect="non-scaling-stroke" d="
  M 189.18 308.97
  Q 187.94 312.21 186.67 315.40
  C 184.63 320.50 181.29 325.38 179.38 329.21
  Q 177.76 332.46 174.86 336.70
  Q 171.54 341.56 166.22 351.06
  A 4.86 4.83 -26.9 0 0 165.64 352.81
  L 164.60 361.01
  A 1.47 1.46 81.4 0 0 166.66 362.53
  Q 168.89 361.52 170.76 359.56
  A 2.46 2.43 43.6 0 1 174.21 359.50
  C 175.97 361.17 175.21 363.01 174.35 365.42
  A 2.79 2.76 45.4 0 0 174.35 367.33
  Q 174.37 367.40 175.28 369.42
  Q 175.61 370.17 175.30 370.66
  Q 174.99 371.17 174.16 371.38
  A 0.45 0.44 -28.6 0 0 173.94 372.11
  Q 174.92 373.16 176.23 373.04
  A 1.46 1.41 19.5 0 0 177.07 372.66
  Q 179.56 370.37 182.25 367.74
  C 183.71 366.32 185.30 366.34 186.91 367.27
  A 0.94 0.94 0.0 0 1 187.33 368.40
  L 185.01 375.07
  A 0.38 0.37 -76.2 0 0 185.31 375.57
  Q 187.99 375.90 189.94 374.99
  A 2.65 2.63 10.5 0 0 190.69 374.48
  Q 196.63 368.90 199.97 362.03
  A 2.47 2.45 -6.1 0 1 200.67 361.17
  L 207.87 355.43"
/>
<path stroke="#997153" vector-effect="non-scaling-stroke" d="
  M 242.64 322.90
  Q 240.09 330.06 238.61 332.60
  C 231.17 345.32 221.26 356.07 209.28 364.70
  Q 206.21 366.91 205.23 368.50
  Q 201.46 374.72 198.07 378.47
  Q 190.39 386.95 181.00 382.48
  Q 179.30 381.67 177.34 381.61
  C 171.68 381.46 167.29 376.21 164.72 371.65
  A 2.72 2.70 -88.6 0 0 163.83 370.71
  Q 163.25 370.33 162.05 369.92
  C 153.28 366.89 156.63 352.53 159.76 346.77
  Q 164.22 338.57 174.06 322.31
  Q 178.90 314.32 181.68 304.74"
/>
<path stroke="#b78a63" vector-effect="non-scaling-stroke" d="
  M 118.12 353.41
  L 105.63 332.57
  A 1.18 1.18 0.0 0 0 104.88 332.03
  Q 103.06 331.63 101.53 332.06
  Q 84.66 336.87 75.85 351.84
  Q 75.31 352.77 75.94 354.24"
/>
<path stroke="#d7a87f" vector-effect="non-scaling-stroke" d="
  M 75.94 354.24
  Q 74.10 351.11 72.00 349.25
  Q 62.89 341.23 56.80 331.73
  C 52.58 325.17 50.74 318.27 48.25 309.97
  C 47.22 306.57 43.77 302.15 39.76 304.25
  Q 36.47 305.97 36.82 310.34
  Q 37.29 316.16 38.34 318.73
  Q 40.04 322.88 40.94 326.27
  A 3.98 3.89 -66.1 0 0 41.26 327.13
  Q 47.05 338.95 49.80 342.93
  Q 58.79 355.90 74.71 367.25
  A 2.88 2.82 -0.6 0 1 75.21 367.73
  C 77.35 370.37 79.27 373.31 80.65 375.66
  C 83.37 380.32 87.45 383.56 91.89 385.76
  A 4.26 4.07 -26.1 0 0 93.12 386.15
  Q 96.56 386.72 97.51 386.59
  Q 103.41 385.75 109.83 383.45
  C 112.57 382.47 114.79 380.60 116.24 378.73
  Q 118.95 375.24 119.85 374.82
  Q 123.88 372.94 126.46 370.35
  A 3.94 3.73 -10.7 0 0 127.12 369.44
  Q 129.46 364.94 129.54 361.99
  Q 129.84 351.58 124.66 342.11
  Q 118.81 331.44 112.56 322.36
  Q 111.05 320.17 108.00 314.73
  Q 105.85 310.90 103.20 307.30"
/>
<path stroke="#8e6342" vector-effect="non-scaling-stroke" d="
  M 103.20 307.30
  Q 102.11 303.77 99.17 301.13
  A 2.44 2.30 -41.0 0 0 96.22 301.01
  C 94.15 302.48 94.03 304.75 94.74 307.18
  Q 98.05 318.55 101.55 323.98
  Q 112.07 340.32 114.83 344.93
  Q 116.93 348.44 118.12 353.41"
/>
<path stroke="#997153" vector-effect="non-scaling-stroke" d="
  M 103.20 307.30
  Q 105.51 315.07 108.65 319.85
  Q 117.46 333.27 118.35 334.62
  Q 123.84 342.90 125.24 346.94
  C 127.31 352.89 130.13 362.62 126.29 367.65
  Q 123.18 371.75 119.34 372.40
  A 1.87 1.85 -77.5 0 0 118.10 373.20
  C 116.24 375.96 114.39 378.67 111.84 380.38
  C 109.81 381.74 106.31 382.10 104.24 382.43
  Q 103.39 382.57 100.93 383.35
  C 94.00 385.55 90.53 383.44 85.41 379.10
  Q 83.71 377.65 81.55 374.04
  Q 78.91 369.65 76.25 366.08
  A 5.14 5.09 -0.3 0 0 75.17 365.02
  C 73.72 363.97 71.83 363.13 70.00 361.55
  Q 61.72 354.38 54.91 346.55
  Q 51.27 342.36 48.67 338.00
  Q 44.46 330.95 43.57 328.68
  Q 42.59 326.23 39.81 316.67
  C 39.11 314.29 38.91 311.54 39.14 309.37
  C 39.43 306.64 42.73 304.65 44.54 307.46
  C 47.06 311.36 47.25 315.88 49.25 320.22
  Q 54.20 330.92 55.48 333.01
  Q 63.37 345.85 75.40 354.89"
/>
<path stroke="#795337" vector-effect="non-scaling-stroke" d="
  M 75.40 354.89
  L 81.18 358.97
  A 7.84 7.68 88.4 0 1 82.89 360.62
  Q 84.89 363.27 86.52 366.48
  C 88.43 370.22 92.38 375.20 96.46 375.94
  Q 99.38 376.47 99.20 374.82
  A 0.66 0.64 -67.0 0 0 99.09 374.53
  L 96.18 370.44
  A 1.51 1.50 -43.2 0 1 96.24 368.62
  Q 99.04 365.18 101.82 367.94
  Q 105.07 371.15 106.55 372.96
  A 0.80 0.80 0.0 0 0 107.46 373.20
  Q 109.84 372.29 109.70 369.20
  C 109.58 366.72 108.13 362.95 109.68 359.63
  A 1.21 1.20 2.4 0 1 110.35 359.02
  Q 112.18 358.33 113.48 358.89
  A 1.98 1.96 88.6 0 1 114.47 359.84
  Q 114.85 360.65 115.16 361.49
  C 115.85 363.43 117.87 364.37 119.47 362.67
  A 1.41 1.37 -22.1 0 0 119.85 361.80
  Q 120.14 356.98 118.12 353.41"
/>
<path stroke="#c29874" vector-effect="non-scaling-stroke" d="
  M 75.94 354.24
  Q 76.20 354.88 75.40 354.89"
/>
<path stroke="#997153" vector-effect="non-scaling-stroke" d="
  M 89.60 135.05
  Q 87.26 130.76 81.93 128.79
  Q 72.74 125.39 63.87 123.11
  Q 59.90 122.08 56.60 125.46
  A 1.40 1.38 61.9 0 0 56.23 126.70
  C 56.91 130.17 60.13 131.68 63.64 132.63
  Q 75.03 135.70 85.08 139.76
  A 2.52 2.49 42.8 0 0 87.12 139.69
  Q 88.86 138.84 89.69 136.87
  A 2.08 2.07 42.3 0 0 89.60 135.05"
/>
<path stroke="#795337" vector-effect="non-scaling-stroke" d="
  M 110.11 155.87
  Q 111.80 158.05 113.28 159.03
  C 117.85 162.05 122.24 165.46 126.73 166.24
  A 2.54 2.53 -80.8 0 0 129.68 164.11
  C 130.83 156.04 122.97 152.17 116.22 149.08
  A 2.32 2.28 -38.6 0 0 114.76 148.93
  Q 109.92 150.02 109.73 154.67
  A 1.83 1.83 0.0 0 0 110.11 155.87"
/>
<path stroke="#795337" vector-effect="non-scaling-stroke" d="
  M 156.55 166.22
  A 2.81 2.50 50.6 0 0 159.60 166.70
  Q 167.54 162.35 173.72 157.49
  C 177.61 154.44 175.35 150.77 171.72 149.31
  A 1.99 1.97 -40.3 0 0 170.57 149.22
  C 163.37 150.77 154.99 156.60 155.87 165.00
  Q 155.94 165.67 156.55 166.22"
/>
<path stroke="#795337" vector-effect="non-scaling-stroke" d="
  M 141.93 223.33
  A 0.80 0.78 45.6 0 1 142.91 223.35
  Q 150.98 229.96 161.10 233.27
  A 2.42 2.24 52.9 0 0 161.77 233.39
  Q 164.49 233.52 165.89 233.06
  A 0.98 0.97 -10.1 0 0 166.56 232.11
  Q 166.43 228.17 163.53 226.45
  Q 157.25 222.73 146.93 217.13
  A 2.40 2.37 -76.5 0 1 145.68 215.06
  L 145.18 172.52
  A 2.06 2.06 0.0 0 0 143.12 170.49
  L 142.34 170.49
  A 2.82 2.81 0.1 0 0 139.52 173.29
  L 139.30 214.00
  A 1.15 1.14 -26.3 0 1 139.06 214.70
  Q 136.40 218.18 133.54 219.84
  Q 130.00 221.89 120.12 227.40
  A 2.90 2.89 -35.5 0 0 119.37 231.86
  L 119.55 232.06
  A 4.76 4.74 -33.3 0 0 125.09 233.20
  Q 134.94 228.66 141.93 223.33"
/>
</g>
<path fill="#502c15" d="
  M 184.40 64.53
  Q 183.90 65.24 184.29 65.71
  Q 184.74 66.26 185.50 65.94
  L 195.76 71.14
  A 1.97 1.97 0.0 0 0 198.22 70.57
  C 203.35 63.82 212.47 54.36 220.89 52.45
  C 227.96 50.84 236.61 53.85 240.65 60.10
  C 250.76 75.73 247.29 90.53 236.52 104.06
  A 2.05 2.04 50.9 0 0 236.30 106.25
  Q 245.52 124.45 252.77 144.98
  Q 259.55 164.20 261.05 176.92
  Q 262.95 193.07 260.72 209.98
  A 8.27 8.21 37.5 0 0 261.30 214.29
  C 271.62 238.73 278.86 264.40 280.56 290.74
  C 282.06 314.15 274.49 338.15 263.48 359.40
  A 7.44 7.42 57.0 0 0 262.66 363.29
  C 263.56 377.10 262.72 392.51 256.90 404.73
  C 251.78 415.46 241.52 425.60 230.96 431.83
  A 3.22 3.20 -15.5 0 0 229.38 434.61
  C 229.41 446.18 227.72 460.91 215.59 466.19
  Q 209.25 468.96 203.44 466.88
  C 192.13 462.83 184.32 455.75 179.93 444.32
  Q 175.07 431.65 173.75 417.82
  A 1.07 1.06 83.2 0 0 172.55 416.87
  Q 141.78 421.19 110.25 416.80
  A 0.87 0.87 0.0 0 0 109.26 417.59
  C 107.89 433.18 103.90 449.32 92.82 460.77
  C 88.40 465.33 84.66 466.26 77.64 467.38
  C 67.97 468.91 58.69 461.80 56.39 452.59
  Q 54.05 443.16 55.61 434.07
  A 1.49 1.48 -74.1 0 0 54.72 432.46
  C 39.70 426.25 27.37 414.00 23.40 398.08
  C 20.41 386.10 19.99 373.98 20.17 361.32
  A 5.52 5.47 -59.6 0 0 19.44 358.47
  C 7.52 337.57 1.30 313.62 3.71 289.49
  C 6.25 263.98 12.73 239.63 21.61 215.49
  A 9.29 9.28 51.2 0 0 22.09 211.05
  C 20.13 196.86 19.87 181.99 23.78 168.05
  C 26.88 156.99 28.59 149.28 32.13 139.75
  Q 39.01 121.26 47.67 105.95
  A 1.68 1.67 -50.1 0 0 47.51 104.07
  C 41.91 97.22 37.15 88.82 36.29 80.14
  C 35.53 72.50 38.85 64.26 43.69 58.12
  Q 47.67 53.09 54.57 53.06
  Q 61.40 53.03 65.25 54.38
  C 73.47 57.25 80.10 63.42 84.74 70.54
  A 1.88 1.87 63.2 0 0 86.96 71.27
  L 98.43 67.00
  A 1.33 1.32 -17.6 0 0 99.25 65.43
  C 96.22 53.47 103.39 44.33 108.87 35.39
  A 10.98 10.89 -22.1 0 0 110.12 32.47
  C 112.45 23.77 116.99 13.93 124.49 8.58
  Q 136.95 -0.31 153.17 5.92
  C 165.68 10.73 170.85 20.62 173.31 33.44
  A 10.28 10.26 22.0 0 0 175.00 37.40
  C 180.84 45.65 184.62 53.92 184.40 64.53
  Z
  M 111.67 68.06
  Q 112.91 71.04 115.63 72.78
  Q 125.13 78.87 137.00 79.55
  Q 148.69 80.23 155.65 78.53
  Q 161.52 77.10 164.70 74.82
  Q 168.75 71.93 171.32 67.62
  A 0.98 0.97 41.7 0 0 171.25 66.52
  Q 167.65 61.88 167.63 55.94
  Q 167.62 54.27 169.29 53.71
  A 1.60 1.59 70.2 0 1 171.28 54.65
  C 172.89 58.82 173.45 60.92 175.34 63.49
  A 1.14 1.14 0.0 0 0 177.00 63.67
  Q 178.69 62.20 179.61 60.45
  C 182.24 55.43 173.76 45.31 170.48 40.97
  A 6.54 6.46 -70.7 0 1 169.35 38.59
  C 166.70 27.70 163.85 15.19 151.87 10.85
  Q 136.19 5.19 124.53 15.32
  C 120.45 18.86 117.70 23.62 116.39 28.15
  C 115.12 32.53 114.40 39.87 110.69 43.93
  C 105.42 49.70 100.71 56.47 105.44 64.21
  A 0.89 0.88 64.1 0 0 106.50 64.58
  C 108.60 63.81 111.44 57.19 112.21 54.93
  A 1.51 1.42 20.8 0 1 114.18 54.12
  C 116.46 55.06 114.86 60.86 114.23 61.99
  Q 112.86 64.46 111.69 66.99
  A 1.36 1.35 46.2 0 0 111.67 68.06
  Z
  M 202.79 82.60
  Q 190.36 76.62 177.69 72.36
  A 1.91 1.90 27.9 0 0 175.59 73.00
  Q 168.33 82.37 155.33 84.37
  C 142.76 86.30 128.46 85.92 117.15 81.13
  Q 110.74 78.42 106.60 72.82
  A 1.16 1.15 -27.0 0 0 105.32 72.41
  Q 92.84 76.41 81.34 82.60
  L 80.64 82.60
  A 0.73 0.72 84.1 0 1 79.93 82.02
  L 79.40 79.40
  Q 75.84 70.86 69.29 64.20
  Q 68.87 63.77 64.11 60.93
  Q 61.05 59.10 58.36 59.38
  C 50.05 60.21 44.46 66.60 43.62 74.65
  Q 42.85 82.00 46.04 88.52
  Q 48.23 92.99 49.61 94.91
  Q 51.68 97.78 54.83 99.98
  Q 55.21 101.62 58.28 103.33
  Q 56.56 106.82 55.07 109.67
  Q 51.26 116.93 47.15 125.98
  C 45.20 130.28 43.92 134.25 42.05 138.43
  C 37.57 148.38 34.66 158.33 31.66 170.13
  Q 29.43 178.88 29.24 185.95
  Q 28.99 194.99 29.28 202.04
  Q 29.61 209.87 33.58 219.45
  Q 39.19 232.97 47.22 242.38
  A 0.14 0.11 -83.0 0 1 47.25 242.43
  L 50.22 247.18
  A 1.22 1.22 0.0 0 1 49.71 248.93
  Q 47.40 250.04 45.67 248.84
  Q 31.73 239.16 26.62 222.92
  A 0.35 0.35 0.0 0 0 25.95 222.94
  Q 23.08 233.84 19.35 244.77
  Q 15.81 255.12 12.94 271.57
  Q 8.90 294.74 12.83 317.74
  Q 15.80 332.70 19.14 340.83
  Q 23.04 350.31 32.23 364.26
  Q 34.26 367.35 44.03 377.80
  Q 45.11 380.21 43.44 383.47
  A 1.30 1.30 0.0 0 1 41.38 383.82
  Q 41.21 383.65 40.45 383.45
  Q 33.84 378.65 28.36 371.71
  A 0.72 0.72 0.0 0 0 27.10 372.35
  L 27.74 374.64
  Q 27.77 387.67 31.91 398.11
  C 35.73 407.72 43.04 417.64 52.50 422.01
  Q 59.28 425.14 62.49 425.81
  Q 73.78 428.19 85.24 426.29
  Q 86.13 426.15 86.41 427.62
  Q 86.71 430.16 83.94 431.44
  Q 74.02 435.99 63.06 434.36
  A 0.59 0.58 2.4 0 0 62.39 434.97
  Q 62.78 441.49 62.54 444.76
  Q 62.52 445.04 62.80 449.66
  Q 63.05 453.73 66.25 456.28
  A 0.31 0.31 0.0 0 0 66.74 455.94
  Q 65.16 450.79 67.31 445.38
  A 1.82 1.81 37.1 0 1 70.44 444.95
  Q 71.04 445.74 71.23 447.49
  C 71.68 451.64 72.90 458.32 76.48 460.81
  A 0.86 0.86 0.0 0 0 77.83 460.10
  Q 77.82 455.38 77.97 452.78
  Q 78.08 450.78 80.15 445.70
  A 1.14 1.13 -86.7 0 1 80.89 445.04
  Q 82.47 444.58 83.25 445.34
  A 1.33 1.30 -66.4 0 1 83.64 446.37
  Q 83.25 452.21 84.86 458.79
  A 0.90 0.89 -32.3 0 0 86.42 459.14
  L 91.70 452.78
  A 1.45 1.35 -16.3 0 0 91.92 452.41
  Q 97.13 439.83 98.34 436.56
  Q 101.41 428.23 101.85 418.50
  Q 101.98 418.25 101.93 417.95
  Q 102.29 417.06 102.00 416.25
  A 0.96 0.95 -2.7 0 0 101.31 415.63
  Q 94.15 413.91 86.99 410.60
  C 82.83 408.68 79.09 407.19 78.18 402.97
  A 2.37 2.08 79.5 0 1 79.85 400.17
  C 82.41 399.81 85.04 401.17 88.24 402.68
  Q 89.86 403.44 92.79 404.21
  Q 103.84 407.12 107.14 407.78
  Q 132.58 412.87 159.96 410.28
  Q 169.02 409.42 180.51 406.52
  Q 192.01 403.62 202.82 400.87
  Q 206.60 404.05 202.10 407.35
  C 196.83 411.22 189.21 413.51 182.14 415.41
  A 1.01 1.01 0.0 0 0 181.46 416.76
  Q 182.06 418.25 181.78 419.58
  C 182.11 431.93 186.40 444.08 193.00 454.26
  Q 194.68 456.83 196.66 458.59
  A 1.33 1.33 0.0 0 0 198.86 457.54
  Q 198.65 451.70 201.38 445.62
  A 0.99 0.99 0.0 0 1 202.97 445.30
  C 206.37 448.52 206.29 454.10 205.42 458.43
  Q 205.25 459.24 205.40 459.55
  A 1.31 1.24 -38.9 0 0 207.53 459.72
  Q 208.62 458.40 209.20 456.96
  Q 211.09 452.30 213.14 445.37
  A 1.57 1.57 0.0 0 1 216.04 445.11
  Q 217.93 448.79 216.86 453.54
  A 1.67 1.66 20.0 0 0 217.72 455.38
  L 217.83 455.43
  A 1.23 1.23 0.0 0 0 219.52 454.83
  Q 221.33 450.72 221.49 446.73
  Q 221.77 439.38 222.02 435.99
  A 1.03 1.02 0.5 0 0 220.94 434.90
  Q 210.17 435.47 201.16 429.82
  Q 197.53 427.55 197.97 425.70
  Q 209.40 427.09 213.01 426.87
  Q 224.04 426.20 233.93 420.41
  Q 237.49 418.33 240.72 414.62
  Q 245.28 409.36 246.46 407.71
  C 252.47 399.23 254.65 387.93 254.73 377.70
  A 6.92 6.58 53.6 0 1 254.92 376.19
  L 255.87 372.34
  A 0.37 0.37 0.0 0 0 255.24 372.01
  Q 254.98 372.29 251.26 376.75
  Q 248.56 379.98 242.49 383.37
  Q 238.66 383.47 239.00 379.10
  Q 240.27 376.69 242.21 374.69
  Q 245.06 371.74 245.56 371.15
  Q 260.39 353.55 267.19 332.52
  Q 272.10 317.32 272.59 297.12
  C 272.77 289.95 272.55 283.59 271.50 276.75
  Q 267.42 250.33 257.84 224.90
  A 0.55 0.55 0.0 0 0 256.81 224.91
  C 253.44 234.66 246.52 246.14 236.89 250.76
  Q 234.54 251.89 232.91 249.07
  A 1.32 1.31 -40.9 0 1 233.02 247.58
  Q 236.31 243.56 242.59 234.60
  C 244.69 231.59 246.75 227.88 248.00 224.79
  Q 250.44 218.81 251.22 217.14
  A 7.60 7.54 -28.1 0 0 251.86 215.07
  C 252.28 212.42 252.30 211.51 253.14 208.42
  Q 254.34 204.06 254.54 198.99
  C 255.21 181.95 251.86 166.34 246.41 149.72
  Q 244.19 142.95 238.57 130.95
  Q 231.98 116.89 226.13 104.86
  Q 225.92 104.44 225.78 103.50
  Q 225.62 102.94 226.09 102.58
  Q 235.07 95.85 238.10 85.87
  C 240.78 77.06 239.56 68.24 233.18 61.20
  A 3.78 3.56 -5.5 0 0 232.20 60.44
  C 225.46 56.86 218.43 59.33 213.59 64.86
  Q 206.67 72.76 202.79 82.60
  Z"
/>
<path fill="#f6d480" d="
  M 111.69 66.99
  Q 112.86 64.46 114.23 61.99
  C 114.86 60.86 116.46 55.06 114.18 54.12
  A 1.51 1.42 20.8 0 0 112.21 54.93
  C 111.44 57.19 108.60 63.81 106.50 64.58
  A 0.89 0.88 64.1 0 1 105.44 64.21
  C 100.71 56.47 105.42 49.70 110.69 43.93
  C 114.40 39.87 115.12 32.53 116.39 28.15
  C 117.70 23.62 120.45 18.86 124.53 15.32
  Q 136.19 5.19 151.87 10.85
  C 163.85 15.19 166.70 27.70 169.35 38.59
  A 6.54 6.46 -70.7 0 0 170.48 40.97
  C 173.76 45.31 182.24 55.43 179.61 60.45
  Q 178.69 62.20 177.00 63.67
  A 1.14 1.14 0.0 0 1 175.34 63.49
  C 173.45 60.92 172.89 58.82 171.28 54.65
  A 1.60 1.59 70.2 0 0 169.29 53.71
  Q 167.62 54.27 167.63 55.94
  Q 167.65 61.88 171.25 66.52
  A 0.98 0.97 41.7 0 1 171.32 67.62
  Q 168.75 71.93 164.70 74.82
  Q 161.52 77.10 155.65 78.53
  Q 148.69 80.23 137.00 79.55
  Q 125.13 78.87 115.63 72.78
  Q 112.91 71.04 111.67 68.06
  A 1.36 1.35 46.2 0 1 111.69 66.99
  Z
  M 129.82 28.72
  A 3.55 3.55 0.0 0 0 126.27 25.17
  A 3.55 3.55 0.0 0 0 122.72 28.72
  A 3.55 3.55 0.0 0 0 126.27 32.27
  A 3.55 3.55 0.0 0 0 129.82 28.72
  Z
  M 159.71 28.53
  A 3.44 3.44 0.0 0 0 156.27 25.09
  A 3.44 3.44 0.0 0 0 152.83 28.53
  A 3.44 3.44 0.0 0 0 156.27 31.97
  A 3.44 3.44 0.0 0 0 159.71 28.53
  Z
  M 131.2504 36.4814
  A 10.15 6.53 -179.5 0 0 141.3430 43.0998
  A 10.15 6.53 -179.5 0 0 151.5496 36.6586
  A 10.15 6.53 -179.5 0 0 141.4570 30.0402
  A 10.15 6.53 -179.5 0 0 131.2504 36.4814
  Z"
/>
<circle fill="#502c15" cx="126.27" cy="28.72" r="3.55"/>
<circle fill="#502c15" cx="156.27" cy="28.53" r="3.44"/>
<path fill="#502c15" d="
  M 131.2504 36.4814
  A 10.15 6.53 -179.5 0 1 141.4570 30.0402
  A 10.15 6.53 -179.5 0 1 151.5496 36.6586
  A 10.15 6.53 -179.5 0 1 141.3430 43.0998
  A 10.15 6.53 -179.5 0 1 131.2504 36.4814
  Z
  M 146.7499 36.7981
  A 1.82 1.82 0.0 0 0 144.9879 34.9218
  L 137.9314 34.7001
  A 1.82 1.82 0.0 0 0 136.0552 36.4620
  L 136.0501 36.6219
  A 1.82 1.82 0.0 0 0 137.8121 38.4982
  L 144.8686 38.7199
  A 1.82 1.82 0.0 0 0 146.7448 36.9580
  L 146.7499 36.7981
  Z"
/>
<rect fill="#e2b590" x="-5.35" y="-1.90" transform="translate(141.40,36.71) rotate(1.8)" width="10.70" height="3.80" rx="1.82"/>
<path fill="#a17a58" d="
  M 225.78 103.50
  L 215.77 91.89
  Q 216.61 91.79 216.95 91.52
  Q 217.03 91.45 217.34 90.38
  Q 220.74 78.80 228.39 70.42
  A 2.34 2.33 32.5 0 0 227.56 66.69
  L 227.28 66.57
  A 4.80 4.79 -57.8 0 0 221.87 67.81
  C 216.84 73.46 213.94 80.61 212.66 88.51
  Q 206.95 86.75 202.79 82.60
  Q 206.67 72.76 213.59 64.86
  C 218.43 59.33 225.46 56.86 232.20 60.44
  A 3.78 3.56 -5.5 0 1 233.18 61.20
  C 239.56 68.24 240.78 77.06 238.10 85.87
  Q 235.07 95.85 226.09 102.58
  Q 225.62 102.94 225.78 103.50
  Z"
/>
<path fill="#cc9a6e" d="
  M 79.40 79.40
  L 79.21 80.37
  A 0.50 0.50 0.0 0 1 78.25 80.43
  Q 76.04 73.88 70.99 67.90
  C 67.76 64.06 60.63 60.17 55.96 61.53
  Q 50.23 63.19 46.52 68.88
  A 3.52 3.41 69.3 0 0 46.07 69.92
  Q 44.46 76.66 45.79 83.82
  A 2.08 1.97 29.4 0 0 45.91 84.21
  L 49.57 92.60
  A 8.14 7.94 15.5 0 0 50.53 94.25
  L 54.83 99.98
  Q 51.68 97.78 49.61 94.91
  Q 48.23 92.99 46.04 88.52
  Q 42.85 82.00 43.62 74.65
  C 44.46 66.60 50.05 60.21 58.36 59.38
  Q 61.05 59.10 64.11 60.93
  Q 68.87 63.77 69.29 64.20
  Q 75.84 70.86 79.40 79.40
  Z"
/>
<path fill="#a17a58" d="
  M 79.40 79.40
  L 79.93 82.02
  A 0.73 0.72 84.1 0 0 80.64 82.60
  L 81.34 82.60
  L 75.00 86.95
  L 70.97 88.92
  Q 69.86 85.69 68.91 82.41
  Q 67.63 78.01 66.64 76.25
  C 63.80 71.17 60.29 65.88 53.42 67.54
  A 0.76 0.75 83.5 0 0 52.85 68.26
  Q 52.83 69.46 54.25 70.26
  A 0.77 0.74 -1.1 0 1 54.51 70.50
  Q 57.00 74.33 58.52 76.47
  Q 60.10 78.71 62.00 82.53
  Q 64.39 87.33 66.83 92.60
  L 58.28 103.33
  Q 55.21 101.62 54.83 99.98
  L 50.53 94.25
  A 8.14 7.94 15.5 0 1 49.57 92.60
  L 45.91 84.21
  A 2.08 1.97 29.4 0 1 45.79 83.82
  Q 44.46 76.66 46.07 69.92
  A 3.52 3.41 69.3 0 1 46.52 68.88
  Q 50.23 63.19 55.96 61.53
  C 60.63 60.17 67.76 64.06 70.99 67.90
  Q 76.04 73.88 78.25 80.43
  A 0.50 0.50 0.0 0 0 79.21 80.37
  L 79.40 79.40
  Z"
/>
<path fill="#a17a58" d="
  M 184.40 64.53
  L 185.50 65.94
  Q 184.74 66.26 184.29 65.71
  Q 183.90 65.24 184.40 64.53
  Z"
/>
<path fill="#502c15" d="
  M 215.77 91.89
  L 212.66 88.51
  C 213.94 80.61 216.84 73.46 221.87 67.81
  A 4.80 4.79 -57.8 0 1 227.28 66.57
  L 227.56 66.69
  A 2.34 2.33 32.5 0 1 228.39 70.42
  Q 220.74 78.80 217.34 90.38
  Q 217.03 91.45 216.95 91.52
  Q 216.61 91.79 215.77 91.89
  Z"
/>
<path fill="#502c15" d="
  M 70.97 88.92
  L 66.83 92.60
  Q 64.39 87.33 62.00 82.53
  Q 60.10 78.71 58.52 76.47
  Q 57.00 74.33 54.51 70.50
  A 0.77 0.74 -1.1 0 0 54.25 70.26
  Q 52.83 69.46 52.85 68.26
  A 0.76 0.75 83.5 0 1 53.42 67.54
  C 60.29 65.88 63.80 71.17 66.64 76.25
  Q 67.63 78.01 68.91 82.41
  Q 69.86 85.69 70.97 88.92
  Z"
/>
<path fill="#e2b590" d="
  M 202.79 82.60
  Q 206.95 86.75 212.66 88.51
  L 215.77 91.89
  L 225.78 103.50
  Q 225.92 104.44 226.13 104.86
  Q 231.98 116.89 238.57 130.95
  Q 244.19 142.95 246.41 149.72
  C 251.86 166.34 255.21 181.95 254.54 198.99
  Q 254.34 204.06 253.14 208.42
  C 252.30 211.51 252.28 212.42 251.86 215.07
  A 7.60 7.54 -28.1 0 1 251.22 217.14
  Q 250.44 218.81 248.00 224.79
  C 246.75 227.88 244.69 231.59 242.59 234.60
  Q 236.31 243.56 233.02 247.58
  A 1.32 1.31 -40.9 0 0 232.91 249.07
  Q 234.54 251.89 236.89 250.76
  C 246.52 246.14 253.44 234.66 256.81 224.91
  A 0.55 0.55 0.0 0 1 257.84 224.90
  Q 267.42 250.33 271.50 276.75
  C 272.55 283.59 272.77 289.95 272.59 297.12
  Q 272.10 317.32 267.19 332.52
  Q 260.39 353.55 245.56 371.15
  Q 245.06 371.74 242.21 374.69
  Q 240.27 376.69 239.00 379.10
  Q 237.52 379.32 238.20 377.54
  C 238.93 375.64 240.79 374.23 242.63 372.40
  A 4.40 4.39 82.8 0 0 243.24 371.61
  Q 243.73 370.77 247.59 366.09
  Q 255.14 356.94 259.87 345.63
  Q 265.12 333.10 266.02 329.40
  Q 268.76 318.14 269.14 314.55
  Q 270.80 298.81 269.09 279.28
  Q 268.89 276.99 268.63 276.18
  C 267.81 273.55 268.33 270.97 267.79 268.43
  Q 267.10 265.13 266.34 258.11
  A 2.63 2.38 -60.5 0 0 266.19 257.44
  L 263.14 249.26
  A 2.00 1.89 32.2 0 1 263.03 248.83
  Q 261.87 240.25 257.97 232.43
  A 0.89 0.89 0.0 0 0 256.60 232.15
  C 255.20 233.32 254.70 235.47 253.60 236.43
  Q 253.19 236.79 248.67 243.18
  Q 244.66 248.84 237.21 252.49
  A 1.77 1.77 0.0 0 1 235.94 252.62
  C 233.72 252.04 229.92 249.87 231.87 247.18
  Q 238.23 238.39 240.40 235.43
  Q 243.08 231.78 244.35 227.56
  A 5.88 5.72 -21.8 0 1 244.94 226.23
  Q 249.02 219.54 249.96 214.82
  C 251.92 205.03 253.38 193.85 252.13 183.72
  C 251.13 175.59 250.64 168.91 248.41 162.79
  Q 243.14 148.28 239.75 138.68
  Q 238.52 135.20 237.63 133.36
  C 235.90 129.80 235.25 127.22 233.34 124.16
  Q 232.45 122.74 231.46 120.13
  C 229.60 115.24 227.98 112.68 224.58 106.71
  C 220.88 100.22 216.34 96.05 210.82 91.21
  Q 208.42 89.10 202.95 86.64
  C 200.08 85.34 197.80 83.00 194.89 81.55
  Q 186.59 77.39 177.61 74.62
  A 1.32 1.32 0.0 0 0 176.16 75.08
  C 168.58 85.03 158.88 86.51 146.10 87.22
  Q 137.11 87.72 129.58 86.69
  Q 116.11 84.85 105.98 75.47
  A 1.35 1.32 -22.7 0 0 105.10 75.12
  C 100.48 75.03 97.39 77.31 93.60 79.08
  Q 85.04 83.08 80.16 85.98
  Q 78.14 87.18 75.00 86.95
  L 81.34 82.60
  Q 92.84 76.41 105.32 72.41
  A 1.16 1.15 -27.0 0 1 106.60 72.82
  Q 110.74 78.42 117.15 81.13
  C 128.46 85.92 142.76 86.30 155.33 84.37
  Q 168.33 82.37 175.59 73.00
  A 1.91 1.90 27.9 0 1 177.69 72.36
  Q 190.36 76.62 202.79 82.60
  Z"
/>
<path fill="#cc9a6e" d="
  M 239.00 379.10
  Q 238.66 383.47 242.49 383.37
  Q 241.90 383.68 241.38 383.62
  A 0.50 0.50 0.0 0 0 241.09 384.56
  C 243.19 385.67 245.78 383.66 246.95 382.05
  A 1.95 1.83 -87.5 0 1 247.37 381.64
  L 252.25 378.18
  A 0.88 0.88 0.0 0 1 253.64 379.00
  C 252.72 387.07 251.48 395.00 247.87 401.93
  Q 242.51 412.23 233.62 418.44
  Q 229.78 421.11 221.86 423.71
  C 215.82 425.69 207.68 424.95 201.75 424.41
  Q 198.92 424.15 195.81 424.67
  L 187.90 419.88
  A 1.88 1.81 -1.1 0 1 187.35 419.37
  L 186.43 418.08
  A 1.15 1.15 0.0 0 0 185.53 417.59
  Q 182.01 417.48 181.78 419.58
  Q 182.06 418.25 181.46 416.76
  A 1.01 1.01 0.0 0 1 182.14 415.41
  C 189.21 413.51 196.83 411.22 202.10 407.35
  Q 206.60 404.05 202.82 400.87
  Q 205.71 400.04 200.73 399.43
  A 3.53 3.39 39.6 0 0 199.40 399.53
  Q 192.86 401.32 186.24 403.33
  Q 180.28 405.13 172.91 406.14
  Q 153.44 408.80 144.48 409.29
  Q 141.08 409.48 112.71 407.02
  C 110.69 406.84 107.69 405.92 105.76 405.87
  A 4.56 4.50 -32.2 0 1 104.04 405.49
  Q 102.54 404.83 97.01 403.48
  Q 90.39 401.85 83.14 398.80
  C 80.87 397.85 80.10 398.40 78.38 399.64
  C 71.62 404.53 82.37 410.73 86.29 412.23
  Q 91.70 414.31 97.02 416.39
  A 1.76 1.45 -11.8 0 1 97.42 416.60
  Q 99.44 417.97 101.93 417.95
  Q 101.98 418.25 101.85 418.50
  Q 99.63 417.62 97.22 419.22
  Q 90.88 423.45 88.67 425.17
  Q 87.53 426.06 86.41 427.62
  Q 86.13 426.15 85.24 426.29
  Q 73.78 428.19 62.49 425.81
  Q 59.28 425.14 52.50 422.01
  C 43.04 417.64 35.73 407.72 31.91 398.11
  Q 27.77 387.67 27.74 374.64
  Q 31.48 378.27 38.31 383.94
  Q 39.97 385.31 41.79 385.17
  A 0.24 0.23 -26.6 0 0 41.93 384.76
  L 40.45 383.45
  Q 41.21 383.65 41.38 383.82
  A 1.30 1.30 0.0 0 0 43.44 383.47
  Q 45.11 380.21 44.03 377.80
  Q 44.51 377.99 44.75 377.87
  A 0.73 0.67 56.2 0 0 44.92 376.78
  Q 40.35 371.33 37.33 368.05
  Q 33.67 364.08 30.45 358.82
  Q 23.87 348.06 19.68 337.39
  C 18.55 334.50 17.97 328.80 16.78 325.38
  Q 15.19 320.75 14.50 315.40
  A 0.62 0.61 67.6 0 0 13.52 314.99
  Q 12.65 315.65 12.83 317.74
  Q 8.90 294.74 12.94 271.57
  Q 15.81 255.12 19.35 244.77
  Q 23.08 233.84 25.95 222.94
  A 0.35 0.35 0.0 0 1 26.62 222.92
  Q 31.73 239.16 45.67 248.84
  Q 47.40 250.04 49.71 248.93
  A 1.22 1.22 0.0 0 0 50.22 247.18
  L 47.25 242.43
  A 0.14 0.11 -83.0 0 0 47.22 242.38
  Q 39.19 232.97 33.58 219.45
  Q 29.61 209.87 29.28 202.04
  Q 28.99 194.99 29.24 185.95
  Q 29.43 178.88 31.66 170.13
  C 34.66 158.33 37.57 148.38 42.05 138.43
  C 43.92 134.25 45.20 130.28 47.15 125.98
  Q 51.26 116.93 55.07 109.67
  Q 56.56 106.82 58.28 103.33
  L 66.83 92.60
  L 70.97 88.92
  L 75.00 86.95
  Q 78.14 87.18 80.16 85.98
  Q 85.04 83.08 93.60 79.08
  C 97.39 77.31 100.48 75.03 105.10 75.12
  A 1.35 1.32 -22.7 0 1 105.98 75.47
  Q 116.11 84.85 129.58 86.69
  Q 137.11 87.72 146.10 87.22
  C 158.88 86.51 168.58 85.03 176.16 75.08
  A 1.32 1.32 0.0 0 1 177.61 74.62
  Q 186.59 77.39 194.89 81.55
  C 197.80 83.00 200.08 85.34 202.95 86.64
  Q 208.42 89.10 210.82 91.21
  C 216.34 96.05 220.88 100.22 224.58 106.71
  C 227.98 112.68 229.60 115.24 231.46 120.13
  Q 232.45 122.74 233.34 124.16
  C 235.25 127.22 235.90 129.80 237.63 133.36
  Q 238.52 135.20 239.75 138.68
  Q 243.14 148.28 248.41 162.79
  C 250.64 168.91 251.13 175.59 252.13 183.72
  C 253.38 193.85 251.92 205.03 249.96 214.82
  Q 249.02 219.54 244.94 226.23
  A 5.88 5.72 -21.8 0 0 244.35 227.56
  Q 243.08 231.78 240.40 235.43
  Q 238.23 238.39 231.87 247.18
  C 229.92 249.87 233.72 252.04 235.94 252.62
  A 1.77 1.77 0.0 0 0 237.21 252.49
  Q 244.66 248.84 248.67 243.18
  Q 253.19 236.79 253.60 236.43
  C 254.70 235.47 255.20 233.32 256.60 232.15
  A 0.89 0.89 0.0 0 1 257.97 232.43
  Q 261.87 240.25 263.03 248.83
  A 2.00 1.89 32.2 0 0 263.14 249.26
  L 266.19 257.44
  A 2.63 2.38 -60.5 0 1 266.34 258.11
  Q 267.10 265.13 267.79 268.43
  C 268.33 270.97 267.81 273.55 268.63 276.18
  Q 268.89 276.99 269.09 279.28
  Q 270.80 298.81 269.14 314.55
  Q 268.76 318.14 266.02 329.40
  Q 265.12 333.10 259.87 345.63
  Q 255.14 356.94 247.59 366.09
  Q 243.73 370.77 243.24 371.61
  A 4.40 4.39 82.8 0 1 242.63 372.40
  C 240.79 374.23 238.93 375.64 238.20 377.54
  Q 237.52 379.32 239.00 379.10
  Z
  M 90.86 132.96
  Q 86.45 128.79 81.88 126.67
  Q 77.57 124.67 66.86 121.32
  Q 66.83 121.31 62.01 120.49
  A 2.73 2.71 -51.6 0 0 60.50 120.67
  Q 56.53 122.40 55.38 124.17
  C 51.87 129.50 57.25 132.40 61.78 134.89
  Q 64.04 136.14 67.96 137.29
  Q 76.38 139.76 80.62 141.26
  Q 84.05 142.47 85.52 142.15
  C 89.54 141.26 92.45 138.77 91.53 134.17
  A 2.36 2.34 -74.3 0 0 90.86 132.96
  Z
  M 199.61 130.03
  Q 195.11 132.22 193.58 136.11
  Q 192.58 135.61 192.46 135.71
  A 2.23 1.92 61.7 0 0 191.91 138.19
  Q 193.92 143.12 199.32 142.51
  Q 204.67 141.90 209.58 139.76
  C 215.36 137.24 217.80 136.67 223.60 134.39
  Q 228.50 132.47 229.23 128.03
  A 1.82 1.68 42.7 0 0 229.16 127.15
  Q 226.60 119.52 218.93 121.32
  C 214.66 122.31 209.68 124.09 204.33 125.71
  Q 199.95 127.05 199.61 130.03
  Z
  M 89.42 219.93
  Q 89.98 220.75 90.20 221.49
  Q 91.53 225.82 93.10 228.74
  Q 96.24 234.54 99.08 238.86
  Q 101.34 242.29 104.36 244.23
  Q 112.65 249.54 120.04 250.89
  Q 135.69 253.76 154.00 252.22
  C 163.14 251.45 177.20 248.41 183.81 241.07
  C 187.44 237.04 190.67 233.16 192.52 228.11
  Q 195.76 219.27 196.54 214.56
  Q 197.54 208.61 197.74 188.29
  Q 197.85 177.83 196.07 167.48
  Q 192.70 147.91 179.48 135.76
  Q 177.32 133.78 171.80 130.94
  Q 164.84 127.38 157.51 127.10
  Q 154.18 126.98 132.38 126.71
  Q 125.53 126.63 123.15 127.28
  Q 119.88 128.17 114.26 130.01
  C 111.01 131.07 106.35 134.63 104.01 136.49
  Q 99.65 139.97 96.88 144.35
  Q 92.08 151.96 89.99 159.41
  Q 88.61 164.32 87.09 175.72
  Q 85.97 184.10 86.19 192.70
  A 8.24 7.56 -53.8 0 0 86.33 193.96
  Q 86.76 196.11 86.45 197.20
  A 2.77 2.72 -47.5 0 0 86.51 198.91
  Q 86.77 199.60 87.09 206.76
  Q 87.24 209.92 89.07 219.11
  A 2.20 2.12 -69.2 0 0 89.42 219.93
  Z
  M 181.68 304.74
  Q 176.44 312.03 173.09 320.02
  A 8.02 7.93 -16.6 0 1 172.30 321.46
  Q 163.81 333.60 158.31 344.52
  C 155.14 350.81 152.57 364.29 159.15 369.77
  Q 164.58 374.28 166.93 378.15
  A 5.25 5.13 -86.2 0 0 167.98 379.38
  Q 170.13 381.24 171.24 381.74
  Q 177.13 384.37 183.16 385.79
  Q 187.74 386.88 193.01 384.85
  Q 196.71 383.43 200.53 378.47
  Q 203.69 374.37 206.72 369.46
  Q 208.02 367.35 209.13 366.64
  Q 215.67 362.46 219.18 359.18
  Q 225.79 353.03 233.09 344.13
  Q 240.28 335.37 244.20 323.68
  A 0.51 0.50 -72.4 0 0 243.87 323.04
  Q 243.32 322.87 242.64 322.90
  Q 244.87 315.97 244.47 309.19
  A 2.63 2.62 -84.8 0 0 242.48 306.79
  Q 238.36 305.79 237.50 309.79
  Q 236.84 312.86 235.69 318.44
  A 8.08 7.79 65.0 0 1 235.01 320.42
  Q 229.43 331.55 226.42 335.96
  C 221.99 342.45 214.89 350.39 207.87 355.43
  L 208.49 351.97
  A 1.25 1.24 33.3 0 0 208.30 351.08
  Q 203.91 344.49 202.08 342.37
  Q 193.90 332.91 181.06 331.50
  A 0.33 0.33 0.0 0 1 180.80 331.01
  C 185.06 323.21 187.49 318.95 189.14 313.52
  A 3.68 3.52 -22.0 0 1 189.50 312.72
  Q 191.50 309.48 189.18 308.97
  Q 190.62 304.44 188.37 301.19
  Q 187.04 299.28 185.44 300.67
  Q 183.12 302.67 181.68 304.74
  Z
  M 118.12 353.41
  L 105.63 332.57
  A 1.18 1.18 0.0 0 0 104.88 332.03
  Q 103.06 331.63 101.53 332.06
  Q 84.66 336.87 75.85 351.84
  Q 75.31 352.77 75.94 354.24
  Q 74.10 351.11 72.00 349.25
  Q 62.89 341.23 56.80 331.73
  C 52.58 325.17 50.74 318.27 48.25 309.97
  C 47.22 306.57 43.77 302.15 39.76 304.25
  Q 36.47 305.97 36.82 310.34
  Q 37.29 316.16 38.34 318.73
  Q 40.04 322.88 40.94 326.27
  A 3.98 3.89 -66.1 0 0 41.26 327.13
  Q 47.05 338.95 49.80 342.93
  Q 58.79 355.90 74.71 367.25
  A 2.88 2.82 -0.6 0 1 75.21 367.73
  C 77.35 370.37 79.27 373.31 80.65 375.66
  C 83.37 380.32 87.45 383.56 91.89 385.76
  A 4.26 4.07 -26.1 0 0 93.12 386.15
  Q 96.56 386.72 97.51 386.59
  Q 103.41 385.75 109.83 383.45
  C 112.57 382.47 114.79 380.60 116.24 378.73
  Q 118.95 375.24 119.85 374.82
  Q 123.88 372.94 126.46 370.35
  A 3.94 3.73 -10.7 0 0 127.12 369.44
  Q 129.46 364.94 129.54 361.99
  Q 129.84 351.58 124.66 342.11
  Q 118.81 331.44 112.56 322.36
  Q 111.05 320.17 108.00 314.73
  Q 105.85 310.90 103.20 307.30
  Q 102.11 303.77 99.17 301.13
  A 2.44 2.30 -41.0 0 0 96.22 301.01
  C 94.15 302.48 94.03 304.75 94.74 307.18
  Q 98.05 318.55 101.55 323.98
  Q 112.07 340.32 114.83 344.93
  Q 116.93 348.44 118.12 353.41
  Z"
/>
<path fill="#e2b590" d="
  M 91.53 134.17
  C 92.45 138.77 89.54 141.26 85.52 142.15
  Q 84.05 142.47 80.62 141.26
  Q 76.38 139.76 67.96 137.29
  Q 64.04 136.14 61.78 134.89
  C 57.25 132.40 51.87 129.50 55.38 124.17
  Q 56.53 122.40 60.50 120.67
  A 2.73 2.71 -51.6 0 1 62.01 120.49
  Q 66.83 121.31 66.86 121.32
  Q 77.57 124.67 81.88 126.67
  Q 86.45 128.79 90.86 132.96
  A 2.36 2.34 -74.3 0 1 91.53 134.17
  Z
  M 89.60 135.05
  Q 87.26 130.76 81.93 128.79
  Q 72.74 125.39 63.87 123.11
  Q 59.90 122.08 56.60 125.46
  A 1.40 1.38 61.9 0 0 56.23 126.70
  C 56.91 130.17 60.13 131.68 63.64 132.63
  Q 75.03 135.70 85.08 139.76
  A 2.52 2.49 42.8 0 0 87.12 139.69
  Q 88.86 138.84 89.69 136.87
  A 2.08 2.07 42.3 0 0 89.60 135.05
  Z"
/>
<path fill="#e2b590" d="
  M 193.58 136.11
  Q 194.80 140.63 198.56 139.37
  Q 214.72 133.93 224.25 131.54
  A 4.15 4.14 74.3 0 0 227.19 126.29
  L 227.18 126.24
  A 4.72 4.71 74.2 0 0 221.53 123.07
  Q 209.75 126.06 199.61 130.03
  Q 199.95 127.05 204.33 125.71
  C 209.68 124.09 214.66 122.31 218.93 121.32
  Q 226.60 119.52 229.16 127.15
  A 1.82 1.68 42.7 0 1 229.23 128.03
  Q 228.50 132.47 223.60 134.39
  C 217.80 136.67 215.36 137.24 209.58 139.76
  Q 204.67 141.90 199.32 142.51
  Q 193.92 143.12 191.91 138.19
  A 2.23 1.92 61.7 0 1 192.46 135.71
  Q 192.58 135.61 193.58 136.11
  Z"
/>
<path fill="#502c15" d="
  M 89.69 136.87
  Q 88.86 138.84 87.12 139.69
  A 2.52 2.49 42.8 0 1 85.08 139.76
  Q 75.03 135.70 63.64 132.63
  C 60.13 131.68 56.91 130.17 56.23 126.70
  A 1.40 1.38 61.9 0 1 56.60 125.46
  Q 59.90 122.08 63.87 123.11
  Q 72.74 125.39 81.93 128.79
  Q 87.26 130.76 89.60 135.05
  A 2.08 2.07 42.3 0 1 89.69 136.87
  Z"
/>
<path fill="#502c15" d="
  M 193.58 136.11
  Q 195.11 132.22 199.61 130.03
  Q 209.75 126.06 221.53 123.07
  A 4.72 4.71 74.2 0 1 227.18 126.24
  L 227.19 126.29
  A 4.15 4.14 74.3 0 1 224.25 131.54
  Q 214.72 133.93 198.56 139.37
  Q 194.80 140.63 193.58 136.11
  Z"
/>
<path fill="#a17a58" d="
  M 89.07 219.11
  Q 87.24 209.92 87.09 206.76
  Q 86.77 199.60 86.51 198.91
  A 2.77 2.72 -47.5 0 1 86.45 197.20
  Q 86.76 196.11 86.33 193.96
  A 8.24 7.56 -53.8 0 1 86.19 192.70
  Q 85.97 184.10 87.09 175.72
  Q 88.61 164.32 89.99 159.41
  Q 92.08 151.96 96.88 144.35
  Q 99.65 139.97 104.01 136.49
  C 106.35 134.63 111.01 131.07 114.26 130.01
  Q 119.88 128.17 123.15 127.28
  Q 125.53 126.63 132.38 126.71
  Q 154.18 126.98 157.51 127.10
  Q 164.84 127.38 171.80 130.94
  Q 177.32 133.78 179.48 135.76
  Q 192.70 147.91 196.07 167.48
  Q 197.85 177.83 197.74 188.29
  Q 197.54 208.61 196.54 214.56
  Q 195.76 219.27 192.52 228.11
  C 190.67 233.16 187.44 237.04 183.81 241.07
  C 177.20 248.41 163.14 251.45 154.00 252.22
  Q 135.69 253.76 120.04 250.89
  Q 112.65 249.54 104.36 244.23
  Q 101.34 242.29 99.08 238.86
  Q 96.24 234.54 93.10 228.74
  Q 91.53 225.82 90.20 221.49
  Q 89.98 220.75 89.42 219.93
  A 2.20 2.12 -69.2 0 1 89.07 219.11
  Z
  M 110.11 155.87
  Q 111.80 158.05 113.28 159.03
  C 117.85 162.05 122.24 165.46 126.73 166.24
  A 2.54 2.53 -80.8 0 0 129.68 164.11
  C 130.83 156.04 122.97 152.17 116.22 149.08
  A 2.32 2.28 -38.6 0 0 114.76 148.93
  Q 109.92 150.02 109.73 154.67
  A 1.83 1.83 0.0 0 0 110.11 155.87
  Z
  M 156.55 166.22
  A 2.81 2.50 50.6 0 0 159.60 166.70
  Q 167.54 162.35 173.72 157.49
  C 177.61 154.44 175.35 150.77 171.72 149.31
  A 1.99 1.97 -40.3 0 0 170.57 149.22
  C 163.37 150.77 154.99 156.60 155.87 165.00
  Q 155.94 165.67 156.55 166.22
  Z
  M 141.93 223.33
  A 0.80 0.78 45.6 0 1 142.91 223.35
  Q 150.98 229.96 161.10 233.27
  A 2.42 2.24 52.9 0 0 161.77 233.39
  Q 164.49 233.52 165.89 233.06
  A 0.98 0.97 -10.1 0 0 166.56 232.11
  Q 166.43 228.17 163.53 226.45
  Q 157.25 222.73 146.93 217.13
  A 2.40 2.37 -76.5 0 1 145.68 215.06
  L 145.18 172.52
  A 2.06 2.06 0.0 0 0 143.12 170.49
  L 142.34 170.49
  A 2.82 2.81 0.1 0 0 139.52 173.29
  L 139.30 214.00
  A 1.15 1.14 -26.3 0 1 139.06 214.70
  Q 136.40 218.18 133.54 219.84
  Q 130.00 221.89 120.12 227.40
  A 2.90 2.89 -35.5 0 0 119.37 231.86
  L 119.55 232.06
  A 4.76 4.74 -33.3 0 0 125.09 233.20
  Q 134.94 228.66 141.93 223.33
  Z"
/>
<path fill="#502c15" d="
  M 109.73 154.67
  Q 109.92 150.02 114.76 148.93
  A 2.32 2.28 -38.6 0 1 116.22 149.08
  C 122.97 152.17 130.83 156.04 129.68 164.11
  A 2.54 2.53 -80.8 0 1 126.73 166.24
  C 122.24 165.46 117.85 162.05 113.28 159.03
  Q 111.80 158.05 110.11 155.87
  A 1.83 1.83 0.0 0 1 109.73 154.67
  Z"
/>
<path fill="#502c15" d="
  M 156.55 166.22
  Q 155.94 165.67 155.87 165.00
  C 154.99 156.60 163.37 150.77 170.57 149.22
  A 1.99 1.97 -40.3 0 1 171.72 149.31
  C 175.35 150.77 177.61 154.44 173.72 157.49
  Q 167.54 162.35 159.60 166.70
  A 2.81 2.50 50.6 0 1 156.55 166.22
  Z"
/>
<path fill="#502c15" d="
  M 141.93 223.33
  Q 134.94 228.66 125.09 233.20
  A 4.76 4.74 -33.3 0 1 119.55 232.06
  L 119.37 231.86
  A 2.90 2.89 -35.5 0 1 120.12 227.40
  Q 130.00 221.89 133.54 219.84
  Q 136.40 218.18 139.06 214.70
  A 1.15 1.14 -26.3 0 0 139.30 214.00
  L 139.52 173.29
  A 2.82 2.81 0.1 0 1 142.34 170.49
  L 143.12 170.49
  A 2.06 2.06 0.0 0 1 145.18 172.52
  L 145.68 215.06
  A 2.40 2.37 -76.5 0 0 146.93 217.13
  Q 157.25 222.73 163.53 226.45
  Q 166.43 228.17 166.56 232.11
  A 0.98 0.97 -10.1 0 1 165.89 233.06
  Q 164.49 233.52 161.77 233.39
  A 2.42 2.24 52.9 0 1 161.10 233.27
  Q 150.98 229.96 142.91 223.35
  A 0.80 0.78 45.6 0 0 141.93 223.33
  Z"
/>
<path fill="#502c15" d="
  M 189.18 308.97
  Q 187.94 312.21 186.67 315.40
  C 184.63 320.50 181.29 325.38 179.38 329.21
  Q 177.76 332.46 174.86 336.70
  Q 171.54 341.56 166.22 351.06
  A 4.86 4.83 -26.9 0 0 165.64 352.81
  L 164.60 361.01
  A 1.47 1.46 81.4 0 0 166.66 362.53
  Q 168.89 361.52 170.76 359.56
  A 2.46 2.43 43.6 0 1 174.21 359.50
  C 175.97 361.17 175.21 363.01 174.35 365.42
  A 2.79 2.76 45.4 0 0 174.35 367.33
  Q 174.37 367.40 175.28 369.42
  Q 175.61 370.17 175.30 370.66
  Q 174.99 371.17 174.16 371.38
  A 0.45 0.44 -28.6 0 0 173.94 372.11
  Q 174.92 373.16 176.23 373.04
  A 1.46 1.41 19.5 0 0 177.07 372.66
  Q 179.56 370.37 182.25 367.74
  C 183.71 366.32 185.30 366.34 186.91 367.27
  A 0.94 0.94 0.0 0 1 187.33 368.40
  L 185.01 375.07
  A 0.38 0.37 -76.2 0 0 185.31 375.57
  Q 187.99 375.90 189.94 374.99
  A 2.65 2.63 10.5 0 0 190.69 374.48
  Q 196.63 368.90 199.97 362.03
  A 2.47 2.45 -6.1 0 1 200.67 361.17
  L 207.87 355.43
  C 214.89 350.39 221.99 342.45 226.42 335.96
  Q 229.43 331.55 235.01 320.42
  A 8.08 7.79 65.0 0 0 235.69 318.44
  Q 236.84 312.86 237.50 309.79
  Q 238.36 305.79 242.48 306.79
  A 2.63 2.62 -84.8 0 1 244.47 309.19
  Q 244.87 315.97 242.64 322.90
  Q 240.09 330.06 238.61 332.60
  C 231.17 345.32 221.26 356.07 209.28 364.70
  Q 206.21 366.91 205.23 368.50
  Q 201.46 374.72 198.07 378.47
  Q 190.39 386.95 181.00 382.48
  Q 179.30 381.67 177.34 381.61
  C 171.68 381.46 167.29 376.21 164.72 371.65
  A 2.72 2.70 -88.6 0 0 163.83 370.71
  Q 163.25 370.33 162.05 369.92
  C 153.28 366.89 156.63 352.53 159.76 346.77
  Q 164.22 338.57 174.06 322.31
  Q 178.90 314.32 181.68 304.74
  Q 183.12 302.67 185.44 300.67
  Q 187.04 299.28 188.37 301.19
  Q 190.62 304.44 189.18 308.97
  Z"
/>
<path fill="#502c15" d="
  M 103.20 307.30
  Q 105.51 315.07 108.65 319.85
  Q 117.46 333.27 118.35 334.62
  Q 123.84 342.90 125.24 346.94
  C 127.31 352.89 130.13 362.62 126.29 367.65
  Q 123.18 371.75 119.34 372.40
  A 1.87 1.85 -77.5 0 0 118.10 373.20
  C 116.24 375.96 114.39 378.67 111.84 380.38
  C 109.81 381.74 106.31 382.10 104.24 382.43
  Q 103.39 382.57 100.93 383.35
  C 94.00 385.55 90.53 383.44 85.41 379.10
  Q 83.71 377.65 81.55 374.04
  Q 78.91 369.65 76.25 366.08
  A 5.14 5.09 -0.3 0 0 75.17 365.02
  C 73.72 363.97 71.83 363.13 70.00 361.55
  Q 61.72 354.38 54.91 346.55
  Q 51.27 342.36 48.67 338.00
  Q 44.46 330.95 43.57 328.68
  Q 42.59 326.23 39.81 316.67
  C 39.11 314.29 38.91 311.54 39.14 309.37
  C 39.43 306.64 42.73 304.65 44.54 307.46
  C 47.06 311.36 47.25 315.88 49.25 320.22
  Q 54.20 330.92 55.48 333.01
  Q 63.37 345.85 75.40 354.89
  L 81.18 358.97
  A 7.84 7.68 88.4 0 1 82.89 360.62
  Q 84.89 363.27 86.52 366.48
  C 88.43 370.22 92.38 375.20 96.46 375.94
  Q 99.38 376.47 99.20 374.82
  A 0.66 0.64 -67.0 0 0 99.09 374.53
  L 96.18 370.44
  A 1.51 1.50 -43.2 0 1 96.24 368.62
  Q 99.04 365.18 101.82 367.94
  Q 105.07 371.15 106.55 372.96
  A 0.80 0.80 0.0 0 0 107.46 373.20
  Q 109.84 372.29 109.70 369.20
  C 109.58 366.72 108.13 362.95 109.68 359.63
  A 1.21 1.20 2.4 0 1 110.35 359.02
  Q 112.18 358.33 113.48 358.89
  A 1.98 1.96 88.6 0 1 114.47 359.84
  Q 114.85 360.65 115.16 361.49
  C 115.85 363.43 117.87 364.37 119.47 362.67
  A 1.41 1.37 -22.1 0 0 119.85 361.80
  Q 120.14 356.98 118.12 353.41
  Q 116.93 348.44 114.83 344.93
  Q 112.07 340.32 101.55 323.98
  Q 98.05 318.55 94.74 307.18
  C 94.03 304.75 94.15 302.48 96.22 301.01
  A 2.44 2.30 -41.0 0 1 99.17 301.13
  Q 102.11 303.77 103.20 307.30
  Z"
/>
<path fill="#e2b590" d="
  M 75.94 354.24
  Q 76.20 354.88 75.40 354.89
  Q 63.37 345.85 55.48 333.01
  Q 54.20 330.92 49.25 320.22
  C 47.25 315.88 47.06 311.36 44.54 307.46
  C 42.73 304.65 39.43 306.64 39.14 309.37
  C 38.91 311.54 39.11 314.29 39.81 316.67
  Q 42.59 326.23 43.57 328.68
  Q 44.46 330.95 48.67 338.00
  Q 51.27 342.36 54.91 346.55
  Q 61.72 354.38 70.00 361.55
  C 71.83 363.13 73.72 363.97 75.17 365.02
  A 5.14 5.09 -0.3 0 1 76.25 366.08
  Q 78.91 369.65 81.55 374.04
  Q 83.71 377.65 85.41 379.10
  C 90.53 383.44 94.00 385.55 100.93 383.35
  Q 103.39 382.57 104.24 382.43
  C 106.31 382.10 109.81 381.74 111.84 380.38
  C 114.39 378.67 116.24 375.96 118.10 373.20
  A 1.87 1.85 -77.5 0 1 119.34 372.40
  Q 123.18 371.75 126.29 367.65
  C 130.13 362.62 127.31 352.89 125.24 346.94
  Q 123.84 342.90 118.35 334.62
  Q 117.46 333.27 108.65 319.85
  Q 105.51 315.07 103.20 307.30
  Q 105.85 310.90 108.00 314.73
  Q 111.05 320.17 112.56 322.36
  Q 118.81 331.44 124.66 342.11
  Q 129.84 351.58 129.54 361.99
  Q 129.46 364.94 127.12 369.44
  A 3.94 3.73 -10.7 0 1 126.46 370.35
  Q 123.88 372.94 119.85 374.82
  Q 118.95 375.24 116.24 378.73
  C 114.79 380.60 112.57 382.47 109.83 383.45
  Q 103.41 385.75 97.51 386.59
  Q 96.56 386.72 93.12 386.15
  A 4.26 4.07 -26.1 0 1 91.89 385.76
  C 87.45 383.56 83.37 380.32 80.65 375.66
  C 79.27 373.31 77.35 370.37 75.21 367.73
  A 2.88 2.82 -0.6 0 0 74.71 367.25
  Q 58.79 355.90 49.80 342.93
  Q 47.05 338.95 41.26 327.13
  A 3.98 3.89 -66.1 0 1 40.94 326.27
  Q 40.04 322.88 38.34 318.73
  Q 37.29 316.16 36.82 310.34
  Q 36.47 305.97 39.76 304.25
  C 43.77 302.15 47.22 306.57 48.25 309.97
  C 50.74 318.27 52.58 325.17 56.80 331.73
  Q 62.89 341.23 72.00 349.25
  Q 74.10 351.11 75.94 354.24
  Z"
/>
<path fill="#e2b590" d="
  M 181.68 304.74
  Q 178.90 314.32 174.06 322.31
  Q 164.22 338.57 159.76 346.77
  C 156.63 352.53 153.28 366.89 162.05 369.92
  Q 163.25 370.33 163.83 370.71
  A 2.72 2.70 -88.6 0 1 164.72 371.65
  C 167.29 376.21 171.68 381.46 177.34 381.61
  Q 179.30 381.67 181.00 382.48
  Q 190.39 386.95 198.07 378.47
  Q 201.46 374.72 205.23 368.50
  Q 206.21 366.91 209.28 364.70
  C 221.26 356.07 231.17 345.32 238.61 332.60
  Q 240.09 330.06 242.64 322.90
  Q 243.32 322.87 243.87 323.04
  A 0.51 0.50 -72.4 0 1 244.20 323.68
  Q 240.28 335.37 233.09 344.13
  Q 225.79 353.03 219.18 359.18
  Q 215.67 362.46 209.13 366.64
  Q 208.02 367.35 206.72 369.46
  Q 203.69 374.37 200.53 378.47
  Q 196.71 383.43 193.01 384.85
  Q 187.74 386.88 183.16 385.79
  Q 177.13 384.37 171.24 381.74
  Q 170.13 381.24 167.98 379.38
  A 5.25 5.13 -86.2 0 1 166.93 378.15
  Q 164.58 374.28 159.15 369.77
  C 152.57 364.29 155.14 350.81 158.31 344.52
  Q 163.81 333.60 172.30 321.46
  A 8.02 7.93 -16.6 0 0 173.09 320.02
  Q 176.44 312.03 181.68 304.74
  Z"
/>
<path fill="#a17a58" d="
  M 207.87 355.43
  L 200.67 361.17
  A 2.47 2.45 -6.1 0 0 199.97 362.03
  Q 196.63 368.90 190.69 374.48
  A 2.65 2.63 10.5 0 1 189.94 374.99
  Q 187.99 375.90 185.31 375.57
  A 0.38 0.37 -76.2 0 1 185.01 375.07
  L 187.33 368.40
  A 0.94 0.94 0.0 0 0 186.91 367.27
  C 185.30 366.34 183.71 366.32 182.25 367.74
  Q 179.56 370.37 177.07 372.66
  A 1.46 1.41 19.5 0 1 176.23 373.04
  Q 174.92 373.16 173.94 372.11
  A 0.45 0.44 -28.6 0 1 174.16 371.38
  Q 174.99 371.17 175.30 370.66
  Q 175.61 370.17 175.28 369.42
  Q 174.37 367.40 174.35 367.33
  A 2.79 2.76 45.4 0 1 174.35 365.42
  C 175.21 363.01 175.97 361.17 174.21 359.50
  A 2.46 2.43 43.6 0 0 170.76 359.56
  Q 168.89 361.52 166.66 362.53
  A 1.47 1.46 81.4 0 1 164.60 361.01
  L 165.64 352.81
  A 4.86 4.83 -26.9 0 1 166.22 351.06
  Q 171.54 341.56 174.86 336.70
  Q 177.76 332.46 179.38 329.21
  C 181.29 325.38 184.63 320.50 186.67 315.40
  Q 187.94 312.21 189.18 308.97
  Q 191.50 309.48 189.50 312.72
  A 3.68 3.52 -22.0 0 0 189.14 313.52
  C 187.49 318.95 185.06 323.21 180.80 331.01
  A 0.33 0.33 0.0 0 0 181.06 331.50
  Q 193.90 332.91 202.08 342.37
  Q 203.91 344.49 208.30 351.08
  A 1.25 1.24 33.3 0 1 208.49 351.97
  L 207.87 355.43
  Z"
/>
<path fill="#e2b590" d="
  M 44.03 377.80
  Q 34.26 367.35 32.23 364.26
  Q 23.04 350.31 19.14 340.83
  Q 15.80 332.70 12.83 317.74
  Q 12.65 315.65 13.52 314.99
  A 0.62 0.61 67.6 0 1 14.50 315.40
  Q 15.19 320.75 16.78 325.38
  C 17.97 328.80 18.55 334.50 19.68 337.39
  Q 23.87 348.06 30.45 358.82
  Q 33.67 364.08 37.33 368.05
  Q 40.35 371.33 44.92 376.78
  A 0.73 0.67 56.2 0 1 44.75 377.87
  Q 44.51 377.99 44.03 377.80
  Z"
/>
<path fill="#a17a58" d="
  M 118.12 353.41
  Q 120.14 356.98 119.85 361.80
  A 1.41 1.37 -22.1 0 1 119.47 362.67
  C 117.87 364.37 115.85 363.43 115.16 361.49
  Q 114.85 360.65 114.47 359.84
  A 1.98 1.96 88.6 0 0 113.48 358.89
  Q 112.18 358.33 110.35 359.02
  A 1.21 1.20 2.4 0 0 109.68 359.63
  C 108.13 362.95 109.58 366.72 109.70 369.20
  Q 109.84 372.29 107.46 373.20
  A 0.80 0.80 0.0 0 1 106.55 372.96
  Q 105.07 371.15 101.82 367.94
  Q 99.04 365.18 96.24 368.62
  A 1.51 1.50 -43.2 0 0 96.18 370.44
  L 99.09 374.53
  A 0.66 0.64 -67.0 0 1 99.20 374.82
  Q 99.38 376.47 96.46 375.94
  C 92.38 375.20 88.43 370.22 86.52 366.48
  Q 84.89 363.27 82.89 360.62
  A 7.84 7.68 88.4 0 0 81.18 358.97
  L 75.40 354.89
  Q 76.20 354.88 75.94 354.24
  Q 75.31 352.77 75.85 351.84
  Q 84.66 336.87 101.53 332.06
  Q 103.06 331.63 104.88 332.03
  A 1.18 1.18 0.0 0 1 105.63 332.57
  L 118.12 353.41
  Z"
/>
<path fill="#e2b590" d="
  M 40.45 383.45
  L 41.93 384.76
  A 0.24 0.23 -26.6 0 1 41.79 385.17
  Q 39.97 385.31 38.31 383.94
  Q 31.48 378.27 27.74 374.64
  L 27.10 372.35
  A 0.72 0.72 0.0 0 1 28.36 371.71
  Q 33.84 378.65 40.45 383.45
  Z"
/>
<path fill="#e2b590" d="
  M 197.97 425.70
  L 195.81 424.67
  Q 198.92 424.15 201.75 424.41
  C 207.68 424.95 215.82 425.69 221.86 423.71
  Q 229.78 421.11 233.62 418.44
  Q 242.51 412.23 247.87 401.93
  C 251.48 395.00 252.72 387.07 253.64 379.00
  A 0.88 0.88 0.0 0 0 252.25 378.18
  L 247.37 381.64
  A 1.95 1.83 -87.5 0 0 246.95 382.05
  C 245.78 383.66 243.19 385.67 241.09 384.56
  A 0.50 0.50 0.0 0 1 241.38 383.62
  Q 241.90 383.68 242.49 383.37
  Q 248.56 379.98 251.26 376.75
  Q 254.98 372.29 255.24 372.01
  A 0.37 0.37 0.0 0 1 255.87 372.34
  L 254.92 376.19
  A 6.92 6.58 53.6 0 0 254.73 377.70
  C 254.65 387.93 252.47 399.23 246.46 407.71
  Q 245.28 409.36 240.72 414.62
  Q 237.49 418.33 233.93 420.41
  Q 224.04 426.20 213.01 426.87
  Q 209.40 427.09 197.97 425.70
  Z"
/>
<path fill="#e2b590" d="
  M 202.82 400.87
  Q 192.01 403.62 180.51 406.52
  Q 169.02 409.42 159.96 410.28
  Q 132.58 412.87 107.14 407.78
  Q 103.84 407.12 92.79 404.21
  Q 89.86 403.44 88.24 402.68
  C 85.04 401.17 82.41 399.81 79.85 400.17
  A 2.37 2.08 79.5 0 0 78.18 402.97
  C 79.09 407.19 82.83 408.68 86.99 410.60
  Q 94.15 413.91 101.31 415.63
  A 0.96 0.95 -2.7 0 1 102.00 416.25
  Q 102.29 417.06 101.93 417.95
  Q 99.44 417.97 97.42 416.60
  A 1.76 1.45 -11.8 0 0 97.02 416.39
  Q 91.70 414.31 86.29 412.23
  C 82.37 410.73 71.62 404.53 78.38 399.64
  C 80.10 398.40 80.87 397.85 83.14 398.80
  Q 90.39 401.85 97.01 403.48
  Q 102.54 404.83 104.04 405.49
  A 4.56 4.50 -32.2 0 0 105.76 405.87
  C 107.69 405.92 110.69 406.84 112.71 407.02
  Q 141.08 409.48 144.48 409.29
  Q 153.44 408.80 172.91 406.14
  Q 180.28 405.13 186.24 403.33
  Q 192.86 401.32 199.40 399.53
  A 3.53 3.39 39.6 0 1 200.73 399.43
  Q 205.71 400.04 202.82 400.87
  Z"
/>
<path fill="#a17a58" d="
  M 195.81 424.67
  L 197.97 425.70
  Q 197.53 427.55 201.16 429.82
  Q 210.17 435.47 220.94 434.90
  A 1.03 1.02 0.5 0 1 222.02 435.99
  Q 221.77 439.38 221.49 446.73
  Q 221.33 450.72 219.52 454.83
  A 1.23 1.23 0.0 0 1 217.83 455.43
  L 217.72 455.38
  A 1.67 1.66 20.0 0 1 216.86 453.54
  Q 217.93 448.79 216.04 445.11
  A 1.57 1.57 0.0 0 0 213.14 445.37
  Q 211.09 452.30 209.20 456.96
  Q 208.62 458.40 207.53 459.72
  A 1.31 1.24 -38.9 0 1 205.40 459.55
  Q 205.25 459.24 205.42 458.43
  C 206.29 454.10 206.37 448.52 202.97 445.30
  A 0.99 0.99 0.0 0 0 201.38 445.62
  Q 198.65 451.70 198.86 457.54
  A 1.33 1.33 0.0 0 1 196.66 458.59
  Q 194.68 456.83 193.00 454.26
  C 186.40 444.08 182.11 431.93 181.78 419.58
  Q 182.01 417.48 185.53 417.59
  A 1.15 1.15 0.0 0 1 186.43 418.08
  L 187.35 419.37
  A 1.88 1.81 -1.1 0 0 187.90 419.88
  L 195.81 424.67
  Z"
/>
<path fill="#a17a58" d="
  M 101.85 418.50
  Q 101.41 428.23 98.34 436.56
  Q 97.13 439.83 91.92 452.41
  A 1.45 1.35 -16.3 0 1 91.70 452.78
  L 86.42 459.14
  A 0.90 0.89 -32.3 0 1 84.86 458.79
  Q 83.25 452.21 83.64 446.37
  A 1.33 1.30 -66.4 0 0 83.25 445.34
  Q 82.47 444.58 80.89 445.04
  A 1.14 1.13 -86.7 0 0 80.15 445.70
  Q 78.08 450.78 77.97 452.78
  Q 77.82 455.38 77.83 460.10
  A 0.86 0.86 0.0 0 1 76.48 460.81
  C 72.90 458.32 71.68 451.64 71.23 447.49
  Q 71.04 445.74 70.44 444.95
  A 1.82 1.81 37.1 0 0 67.31 445.38
  Q 65.16 450.79 66.74 455.94
  A 0.31 0.31 0.0 0 1 66.25 456.28
  Q 63.05 453.73 62.80 449.66
  Q 62.52 445.04 62.54 444.76
  Q 62.78 441.49 62.39 434.97
  A 0.59 0.58 2.4 0 1 63.06 434.36
  Q 74.02 435.99 83.94 431.44
  Q 86.71 430.16 86.41 427.62
  Q 87.53 426.06 88.67 425.17
  Q 90.88 423.45 97.22 419.22
  Q 99.63 417.62 101.85 418.50
  Z"
/>
</svg>
