<?xml version="1.0" encoding="UTF-8" standalone="no"?>
<!DOCTYPE svg PUBLIC "-//W3C//DTD SVG 1.1//EN" "http://www.w3.org/Graphics/SVG/1.1/DTD/svg11.dtd">
<svg xmlns="http://www.w3.org/2000/svg" version="1.1" viewBox="0.00 0.00 280.00 353.00">
<g stroke-width="2.00" fill="none" stroke-linecap="butt">
<path stroke="#7b5536" vector-effect="non-scaling-stroke" d="
  M 233.78 96.29
  Q 235.78 99.88 239.92 102.96"
/>
<path stroke="#7b5536" vector-effect="non-scaling-stroke" d="
  M 39.07 103.75
  Q 39.46 103.96 39.60 103.83
  Q 42.04 101.65 44.40 99.40
  Q 46.77 97.14 46.87 95.90
  Q 47.11 93.05 45.70 93.15"
/>
<path stroke="#986f4f" vector-effect="non-scaling-stroke" d="
  M 88.03 69.64
  Q 87.83 70.21 88.13 70.64
  Q 88.44 71.08 89.03 70.98
  Q 90.04 70.81 90.44 69.55"
/>
<path stroke="#a7844d" vector-effect="non-scaling-stroke" d="
  M 119.66 19.25
  Q 116.03 25.13 115.08 32.07"
/>
<path stroke="#a88e66" vector-effect="non-scaling-stroke" d="
  M 115.08 32.07
  Q 114.32 36.39 113.40 37.64
  C 108.43 44.43 103.20 50.23 103.59 57.42
  A 3.17 3.17 0.0 0 0 105.44 60.14
  L 106.84 60.79
  A 0.99 0.99 0.0 0 0 108.19 59.59
  Q 107.42 57.22 108.19 54.85"
/>
<path stroke="#a7844d" vector-effect="non-scaling-stroke" d="
  M 108.19 54.85
  Q 108.46 53.40 110.73 54.11"
/>
<path stroke="#a88e66" vector-effect="non-scaling-stroke" d="
  M 110.73 54.11
  Q 111.01 56.44 111.32 58.69
  C 111.69 61.37 112.49 62.90 114.26 64.77
  C 123.07 74.11 136.94 75.16 149.42 73.64
  Q 157.82 72.62 164.40 66.93
  C 168.95 63.00 169.64 59.97 169.31 54.37
  A 1.20 1.20 0.0 0 1 171.15 53.29
  C 172.87 54.37 174.01 56.38 173.48 58.47
  Q 172.86 60.94 172.86 60.96
  A 0.60 0.60 0.0 0 0 173.58 61.43
  C 176.28 60.86 178.33 59.16 177.92 56.06
  C 177.28 51.36 174.72 46.72 171.69 42.87
  C 167.28 37.27 166.57 33.87 164.04 25.78
  C 160.68 15.02 152.11 8.25 140.53 8.40
  Q 126.87 8.57 119.66 19.25"
/>
<path stroke="#fae39e" vector-effect="non-scaling-stroke" d="
  M 110.73 54.11
  Q 112.89 53.93 113.53 58.20
  Q 113.88 60.58 114.46 61.61
  Q 115.37 63.23 116.69 64.32
  C 126.26 72.21 137.11 72.20 149.23 71.17
  Q 154.53 70.71 157.27 68.86
  C 161.99 65.68 167.80 62.62 167.09 56.40
  Q 166.59 52.08 170.41 48.41
  A 0.40 0.40 0.0 0 1 171.06 48.56
  Q 171.66 50.18 172.97 50.13
  A 0.46 0.46 0.0 0 0 173.33 49.41
  Q 169.60 44.12 166.17 39.59
  Q 165.11 38.19 164.53 36.21
  Q 163.15 31.44 161.42 26.66
  A 0.96 0.93 1.9 0 0 160.91 26.13
  Q 160.02 25.75 159.94 24.83
  C 159.53 20.26 157.21 16.55 153.19 14.27
  C 142.31 8.08 129.93 9.38 122.34 19.67
  A 1.03 1.02 19.2 0 1 121.48 20.08
  Q 120.43 20.03 119.66 19.25"
/>
<path stroke="#fae39e" vector-effect="non-scaling-stroke" d="
  M 108.19 54.85
  Q 106.46 51.54 108.04 49.52
  Q 112.56 43.76 115.68 37.92
  Q 116.69 36.04 117.38 32.71
  A 0.65 0.64 16.6 0 0 116.98 31.98
  Q 116.14 31.67 115.08 32.07"
/>
<path stroke="#986f4f" vector-effect="non-scaling-stroke" d="
  M 196.69 81.39
  Q 183.85 75.00 172.10 71.59
  A 4.92 4.92 0.0 0 0 167.80 72.36
  Q 162.12 76.54 154.12 78.83"
/>
<path stroke="#916542" vector-effect="non-scaling-stroke" d="
  M 154.12 78.83
  Q 144.65 80.60 134.83 79.79
  C 126.20 79.07 118.23 76.22 111.79 72.00
  C 109.46 70.47 107.15 72.49 104.92 73.04
  Q 95.13 75.42 85.21 81.12"
/>
<path stroke="#7b5536" vector-effect="non-scaling-stroke" d="
  M 85.21 81.12
  Q 81.64 72.80 76.17 66.07
  C 71.78 60.67 65.31 57.66 58.76 61.09
  C 53.94 63.61 50.55 71.44 50.54 76.74
  C 50.51 83.48 52.78 93.58 58.79 97.75
  A 0.29 0.29 0.0 0 0 59.18 97.32
  L 58.45 96.46
  A 0.39 0.39 0.0 0 1 58.87 95.84
  Q 63.11 97.18 63.44 102.04"
/>
<path stroke="#986f4f" vector-effect="non-scaling-stroke" d="
  M 63.44 102.04
  C 59.77 108.97 57.51 116.20 54.50 123.27
  Q 51.84 129.47 49.54 136.43
  Q 47.27 143.30 44.55 149.99"
/>
<path stroke="#916542" vector-effect="non-scaling-stroke" d="
  M 44.55 149.99
  C 40.06 161.95 35.81 176.29 36.16 188.35
  Q 36.56 201.93 41.58 215.43
  C 43.37 220.24 46.46 224.13 49.00 228.86
  Q 50.62 231.87 53.90 235.55
  Q 56.88 238.90 59.74 241.87
  A 1.84 1.68 -6.9 0 0 60.20 242.20
  Q 61.30 242.72 61.71 243.59
  A 0.93 0.93 0.0 0 1 61.63 244.52
  L 58.60 248.74"
/>
<path stroke="#7b5536" vector-effect="non-scaling-stroke" d="
  M 58.60 248.74
  Q 59.92 246.92 58.39 245.91
  A 0.42 0.41 86.3 0 0 57.85 246.53
  L 58.37 247.15
  A 0.51 0.50 -35.3 0 1 58.23 247.92
  Q 57.19 248.52 56.84 248.43
  A 0.25 0.25 0.0 0 1 56.85 247.94
  Q 57.05 247.90 57.50 248.18
  A 0.28 0.27 -73.4 0 0 57.92 247.95
  A 0.25 0.25 0.0 0 0 57.61 247.70
  Q 57.15 247.82 56.67 247.73
  A 1.23 1.19 -14.7 0 1 55.92 247.31
  L 45.60 235.16
  A 0.16 0.08 26.6 0 1 45.57 235.12
  Q 40.46 227.13 37.72 219.30
  A 1.87 1.83 -81.2 0 0 37.12 218.46
  L 33.44 215.53"
/>
<path stroke="#916542" vector-effect="non-scaling-stroke" d="
  M 33.44 215.53
  C 31.74 209.38 29.06 202.25 28.78 196.51
  C 28.23 184.94 28.38 173.69 31.82 162.55
  C 33.75 156.33 36.27 147.70 38.90 141.43
  C 41.08 136.24 42.34 131.51 44.76 125.78
  Q 48.91 115.98 52.56 105.99"
/>
<path stroke="#986f4f" vector-effect="non-scaling-stroke" d="
  M 52.56 105.99
  Q 53.74 104.36 53.69 102.92
  A 0.41 0.41 0.0 0 0 53.02 102.61
  Q 49.23 105.60 46.30 108.79
  C 38.19 117.62 31.07 126.69 24.04 138.96"
/>
<path stroke="#916542" vector-effect="non-scaling-stroke" d="
  M 24.04 138.96
  Q 14.22 159.26 11.10 181.62
  C 10.20 188.04 9.86 196.67 10.23 202.26
  Q 11.21 217.08 15.97 231.81
  Q 17.92 237.84 20.17 241.86
  Q 21.72 244.64 28.72 254.56
  Q 34.68 263.01 41.92 269.03
  A 0.48 0.48 0.0 0 0 42.69 268.55
  Q 41.40 263.02 40.85 255.25
  Q 40.66 252.65 42.09 251.64
  C 44.04 250.27 46.33 251.91 46.79 253.78
  Q 50.37 268.48 51.91 273.62
  Q 53.17 277.84 57.93 289.65
  C 60.73 296.62 65.98 305.01 68.65 309.36
  Q 72.81 316.12 81.95 325.86
  Q 83.56 327.57 84.25 328.77
  Q 89.65 338.07 95.70 343.84
  A 0.90 0.90 0.0 0 0 97.22 343.20
  Q 97.23 342.92 96.82 342.14"
/>
<path stroke="#7b5536" vector-effect="non-scaling-stroke" d="
  M 96.82 342.14
  C 95.99 339.90 96.35 335.33 99.86 335.39"
/>
<path stroke="#986f4f" vector-effect="non-scaling-stroke" d="
  M 99.86 335.39
  Q 102.50 337.04 104.88 339.36
  Q 106.50 340.95 108.12 340.89
  A 1.42 1.42 0.0 0 0 109.49 339.33
  C 108.99 334.21 108.23 330.35 110.32 326.59
  A 1.18 1.17 -64.7 0 1 111.77 326.07
  Q 112.50 326.36 116.17 328.00
  A 2.22 2.10 29.4 0 0 118.85 327.33
  Q 120.11 325.53 118.88 323.62
  Q 113.31 314.98 108.58 304.27
  Q 102.53 290.56 102.02 276.07"
/>
<path stroke="#916542" vector-effect="non-scaling-stroke" d="
  M 102.02 276.07
  Q 106.95 273.98 108.21 277.51
  Q 109.85 282.13 110.36 286.81
  A 1.72 1.72 0.0 0 0 111.78 288.32
  Q 115.98 289.05 127.94 290.66
  C 142.94 292.69 153.80 290.73 170.58 288.36
  A 2.17 2.17 0.0 0 0 172.41 286.55
  C 172.88 283.49 172.78 279.44 174.93 276.95
  C 176.13 275.55 179.87 274.84 180.56 277.58
  Q 180.92 278.99 180.68 280.50
  Q 178.56 293.80 173.79 306.26"
/>
<path stroke="#7b5536" vector-effect="non-scaling-stroke" d="
  M 173.79 306.26
  Q 170.02 314.56 164.83 322.84
  C 163.32 325.26 164.24 329.49 167.90 327.86
  C 170.06 326.89 171.89 326.26 174.06 327.20
  A 1.08 1.08 0.0 0 1 174.69 327.94
  C 175.54 331.31 175.19 335.22 175.10 338.50
  A 2.63 2.58 4.2 0 0 177.42 341.14
  Q 177.65 341.16 178.30 340.57
  C 180.91 338.18 186.78 331.70 187.44 340.11
  A 1.84 1.83 -33.2 0 1 187.23 341.11
  Q 186.57 342.35 186.58 343.18
  A 0.98 0.97 -26.5 0 0 188.33 343.76
  L 195.60 334.30"
/>
<path stroke="#986f4f" vector-effect="non-scaling-stroke" d="
  M 195.60 334.30
  L 202.69 324.20
  A 14.47 14.07 -6.0 0 1 204.13 322.47
  Q 208.48 318.07 211.02 314.01
  Q 215.91 306.21 220.79 298.49"
/>
<path stroke="#916542" vector-effect="non-scaling-stroke" d="
  M 220.79 298.49
  Q 226.75 287.24 230.60 275.21
  Q 231.99 270.84 233.41 263.76
  Q 234.86 256.54 236.72 252.46
  Q 237.86 249.96 240.08 250.33
  A 2.62 2.55 -24.0 0 1 241.06 250.69
  Q 242.73 251.73 242.60 254.08
  Q 242.32 259.04 242.38 262.30
  A 1.33 1.31 63.7 0 1 242.12 263.09
  Q 240.86 264.75 240.64 266.78
  A 0.48 0.48 0.0 0 0 241.44 267.18
  Q 246.99 261.99 253.08 255.54
  Q 254.16 254.40 254.46 253.60
  A 3.15 2.10 -24.2 0 1 254.98 252.77
  Q 256.02 251.59 261.96 245.63
  Q 262.73 244.85 263.07 244.56
  Q 264.67 243.17 264.69 241.49
  Q 264.74 236.44 266.39 230.78
  Q 268.10 224.95 268.47 222.42
  Q 270.53 208.32 270.48 201.25
  Q 270.34 180.63 264.19 158.98
  Q 262.97 154.68 261.48 150.35"
/>
<path stroke="#a7844d" vector-effect="non-scaling-stroke" d="
  M 261.48 150.35
  Q 254.62 133.20 243.06 118.92
  C 239.02 113.93 233.30 108.76 229.13 103.97
  A 0.45 0.45 0.0 0 0 228.37 104.44
  L 244.79 145.27"
/>
<path stroke="#916542" vector-effect="non-scaling-stroke" d="
  M 244.79 145.27
  C 246.70 152.03 249.13 158.83 250.49 165.47
  Q 251.72 171.47 252.31 175.37
  Q 254.25 188.07 252.09 201.51"
/>
<path stroke="#7b5536" vector-effect="non-scaling-stroke" d="
  M 252.09 201.51
  L 251.16 203.36
  A 0.36 0.36 0.0 0 1 250.55 203.41
  Q 250.22 202.95 250.14 202.10
  A 0.48 0.48 0.0 0 0 249.20 202.00
  Q 248.17 205.43 248.68 208.32
  A 4.07 4.02 -35.3 0 1 248.19 211.09
  C 245.11 216.40 243.08 222.24 238.94 227.46
  Q 238.13 228.49 237.45 231.02
  A 2.53 2.51 85.5 0 1 236.05 232.67
  Q 235.38 232.98 234.91 233.83
  A 3.44 3.40 -87.0 0 1 233.31 235.29
  Q 228.70 237.33 226.13 241.28"
/>
<path stroke="#855d3d" vector-effect="non-scaling-stroke" d="
  M 226.13 241.28
  L 221.43 246.24"
/>
<path stroke="#986f4f" vector-effect="non-scaling-stroke" d="
  M 221.43 246.24
  Q 214.90 252.24 210.02 254.51
  Q 201.22 258.62 192.66 262.44
  A 2.16 2.07 -55.7 0 1 191.81 262.62
  L 190.47 262.62
  A 3.91 3.82 34.9 0 0 189.21 262.83
  Q 178.76 266.50 174.61 267.30
  Q 165.57 269.05 164.35 269.66
  A 2.10 1.99 -55.6 0 1 163.37 269.87
  Q 161.05 269.79 158.27 270.22
  Q 156.82 270.45 152.68 270.77
  Q 137.44 271.95 117.19 269.37
  Q 113.85 268.95 111.33 268.21
  C 107.49 267.07 103.99 266.36 98.46 265.04
  Q 90.24 263.08 73.11 255.87
  Q 71.28 255.10 69.45 253.98"
/>
<path stroke="#916542" vector-effect="non-scaling-stroke" d="
  M 69.45 253.98
  Q 69.61 252.42 74.24 254.61
  A 0.93 0.92 -62.1 0 0 75.44 254.24
  L 75.45 254.21
  A 0.86 0.86 0.0 0 0 75.11 253.02
  C 73.40 252.11 70.02 250.63 69.38 248.66
  A 0.62 0.62 0.0 0 1 70.08 247.85
  L 74.92 248.72
  A 1.17 0.97 -23.7 0 1 75.13 248.78
  Q 88.12 253.84 97.07 256.62
  Q 124.40 265.14 153.54 263.00"
/>
<path stroke="#855d3d" vector-effect="non-scaling-stroke" d="
  M 153.54 263.00
  C 158.52 262.50 163.70 262.00 168.36 260.86
  Q 173.67 259.55 179.05 258.51
  C 183.81 257.58 188.98 255.51 193.82 253.74"
/>
<path stroke="#916542" vector-effect="non-scaling-stroke" d="
  M 193.82 253.74
  L 200.31 251.25"
/>
<path stroke="#855d3d" vector-effect="non-scaling-stroke" d="
  M 200.31 251.25
  Q 203.45 250.36 205.90 248.18
  A 2.27 2.22 -74.7 0 1 206.72 247.70
  Q 210.36 246.52 213.48 245.54
  Q 215.20 245.00 216.42 245.77
  Q 218.26 246.93 219.92 245.18
  Q 223.44 241.45 226.64 237.61"
/>
<path stroke="#7b5536" vector-effect="non-scaling-stroke" d="
  M 226.64 237.61
  Q 228.62 235.35 231.01 233.84
  A 3.03 2.83 -83.0 0 0 231.69 233.27
  Q 242.41 221.22 244.29 205.23"
/>
<path stroke="#916542" vector-effect="non-scaling-stroke" d="
  M 244.29 205.23
  Q 245.82 196.96 245.87 188.64
  Q 245.89 185.69 245.46 183.39
  C 244.63 179.02 244.58 174.97 243.38 170.43
  Q 241.03 161.54 238.33 153.94
  Q 235.06 144.76 222.51 111.48
  Q 221.19 108.00 219.09 104.14
  Q 218.21 102.53 218.38 100.38"
/>
<path stroke="#7b5536" vector-effect="non-scaling-stroke" d="
  M 218.38 100.38
  Q 218.40 99.47 219.52 98.56
  Q 220.24 97.98 223.03 96.63
  A 3.45 3.34 6.9 0 0 224.10 95.82
  C 229.56 89.54 232.79 79.88 230.34 71.64
  C 229.00 67.10 227.62 63.43 223.49 60.83
  C 217.97 57.36 209.75 60.34 205.90 64.89
  Q 200.27 71.54 196.69 81.39"
/>
<path stroke="#b68a63" vector-effect="non-scaling-stroke" d="
  M 218.38 100.38
  L 209.07 90.49"
/>
<path stroke="#7b5536" vector-effect="non-scaling-stroke" d="
  M 209.07 90.49
  Q 211.74 87.97 213.11 82.08
  Q 214.51 76.07 219.78 70.30
  A 3.45 3.44 54.2 0 0 220.38 66.56
  L 219.93 65.56
  A 1.70 1.70 0.0 0 0 217.37 64.90
  Q 210.41 70.09 207.33 77.57
  Q 205.48 82.06 206.75 88.24"
/>
<path stroke="#b68a63" vector-effect="non-scaling-stroke" d="
  M 206.75 88.24
  Q 206.42 87.81 206.04 87.57
  A 0.80 0.80 0.0 0 0 205.07 87.63
  Q 204.64 88.00 203.96 87.62
  A 0.79 0.76 -1.0 0 1 203.66 87.34
  Q 202.54 85.66 200.72 84.71"
/>
<path stroke="#bd9570" vector-effect="non-scaling-stroke" d="
  M 200.72 84.71
  L 196.69 81.39"
/>
<path stroke="#b68a63" vector-effect="non-scaling-stroke" d="
  M 244.29 205.23
  Q 242.06 207.86 240.82 210.53
  Q 235.58 221.81 229.68 231.19"
/>
<path stroke="#c0936a" vector-effect="non-scaling-stroke" d="
  M 229.68 231.19
  Q 227.80 231.91 225.71 231.87
  A 1.04 1.02 -69.1 0 0 224.90 232.24
  Q 220.85 237.07 218.08 238.85
  Q 208.95 244.71 200.31 251.25"
/>
<path stroke="#c0936a" vector-effect="non-scaling-stroke" d="
  M 193.82 253.74
  L 190.00 254.03
  A 0.48 0.48 0.0 0 1 189.48 253.54
  Q 189.52 252.05 190.51 251.52
  Q 201.93 245.49 204.52 243.99
  Q 204.83 243.82 204.77 243.48
  A 0.35 0.34 -10.7 0 0 204.36 243.21
  Q 195.53 245.11 188.48 250.22
  C 184.82 252.88 182.60 254.13 179.07 255.11
  A 0.49 0.48 -65.9 0 1 178.73 254.21
  Q 185.11 250.98 185.72 243.76"
/>
<path stroke="#b68a63" vector-effect="non-scaling-stroke" d="
  M 185.72 243.76
  Q 187.62 239.48 188.12 235.56
  C 190.47 217.11 191.66 198.56 187.85 180.38
  C 186.60 174.44 182.14 164.43 176.61 161.15
  Q 168.96 156.61 167.49 156.01
  Q 160.53 153.18 155.50 152.58
  Q 137.38 150.40 118.49 154.72
  C 112.62 156.06 109.03 158.68 104.45 162.45
  C 98.96 166.97 95.42 172.92 94.05 179.74
  Q 91.40 192.88 91.33 207.48"
/>
<path stroke="#c0936a" vector-effect="non-scaling-stroke" d="
  M 91.33 207.48
  Q 89.32 226.80 95.69 242.31
  Q 101.55 256.60 117.55 258.44
  Q 128.07 259.65 138.65 260.04
  Q 148.40 260.40 151.78 260.94
  Q 154.00 261.29 153.54 263.00"
/>
<path stroke="#d3a57b" vector-effect="non-scaling-stroke" d="
  M 69.45 253.98
  L 62.52 248.97
  A 0.54 0.54 0.0 0 0 61.72 249.65
  Q 63.52 253.26 67.08 255.10
  Q 76.04 259.71 88.60 264.91
  C 98.64 269.07 111.80 270.78 119.91 272.33
  Q 126.97 273.68 134.17 273.84
  Q 152.12 274.24 166.03 272.37
  Q 170.66 271.75 185.06 267.70
  Q 191.02 266.02 196.92 263.20
  Q 202.77 260.39 208.34 257.57"
/>
<path stroke="#c0936a" vector-effect="non-scaling-stroke" d="
  M 208.34 257.57
  Q 214.66 256.84 220.57 251.84
  A 0.72 0.72 0.0 0 1 221.75 252.39
  L 221.75 255.06
  A 0.62 0.62 0.0 0 0 222.86 255.43
  Q 225.46 251.98 229.49 250.02"
/>
<path stroke="#b68a63" vector-effect="non-scaling-stroke" d="
  M 229.49 250.02
  C 231.57 249.28 234.67 246.96 233.68 244.21"
/>
<path stroke="#916542" vector-effect="non-scaling-stroke" d="
  M 233.68 244.21
  C 236.47 241.51 237.77 238.39 239.91 235.47"
/>
<path stroke="#b68a63" vector-effect="non-scaling-stroke" d="
  M 239.91 235.47
  Q 242.08 232.84 242.52 231.32
  C 244.16 225.61 247.93 219.54 249.13 215.42
  Q 249.41 214.48 249.45 211.75
  A 4.61 4.55 -37.0 0 1 249.62 210.59
  L 252.09 201.51"
/>
<path stroke="#e3b979" vector-effect="non-scaling-stroke" d="
  M 244.79 145.27
  Q 245.56 145.64 245.69 146.82
  A 0.31 0.30 86.8 0 0 245.99 147.10
  L 246.36 147.10
  A 0.29 0.28 88.1 0 0 246.64 146.79
  Q 246.53 145.44 246.22 144.52
  Q 241.43 130.30 235.54 118.00
  C 234.84 116.53 234.35 114.61 233.50 112.90
  A 0.66 0.66 0.0 0 1 234.60 112.18
  Q 235.41 113.14 240.30 118.46
  C 247.45 126.24 253.26 136.08 258.01 145.65
  C 258.71 147.05 258.77 148.16 259.15 149.46
  Q 259.54 150.79 260.61 150.98
  Q 260.79 151.01 261.48 150.35"
/>
<path stroke="#d3a57b" vector-effect="non-scaling-stroke" d="
  M 220.79 298.49
  Q 221.16 297.06 220.63 296.79
  A 0.87 0.87 0.0 0 0 219.53 297.09
  C 215.84 302.57 213.20 308.04 209.28 313.64
  Q 206.81 317.16 204.15 320.70"
/>
<path stroke="#b68a63" vector-effect="non-scaling-stroke" d="
  M 204.15 320.70
  Q 203.87 319.21 203.42 318.82
  Q 195.50 311.95 185.52 308.25
  C 182.89 307.28 180.22 306.95 177.50 306.29
  Q 176.01 305.93 173.79 306.26"
/>
<path stroke="#d3a57b" vector-effect="non-scaling-stroke" d="
  M 102.02 276.07
  Q 101.51 275.46 99.55 276.31
  A 0.82 0.81 -19.0 0 0 99.08 277.26
  C 100.63 283.49 101.19 290.14 102.98 296.06
  Q 105.02 302.81 108.08 308.69"
/>
<path stroke="#b68a63" vector-effect="non-scaling-stroke" d="
  M 108.08 308.69
  Q 103.02 308.22 97.37 309.58
  Q 96.81 309.71 92.49 311.84
  C 88.04 314.03 83.74 318.71 80.58 320.40
  A 0.63 0.63 0.0 0 0 80.31 321.24
  Q 81.68 323.93 84.45 326.83
  A 5.71 5.70 -80.5 0 1 85.44 328.22
  Q 88.94 335.11 94.38 340.91
  A 1.03 0.93 77.7 0 0 94.70 341.14
  L 96.82 342.14"
/>
<path stroke="#d3a57b" vector-effect="non-scaling-stroke" d="
  M 24.04 138.96
  Q 24.25 139.72 25.01 139.33
  Q 25.52 139.07 25.88 138.46
  C 27.63 135.50 29.25 132.64 31.47 129.84
  Q 35.33 124.97 38.85 119.86
  Q 41.68 115.77 52.56 105.99"
/>
<path stroke="#b68a63" vector-effect="non-scaling-stroke" d="
  M 33.44 215.53
  Q 35.04 224.00 40.52 230.64
  A 3.84 3.57 13.2 0 1 40.95 231.28
  Q 42.06 233.28 43.70 234.76
  A 1.68 1.67 -78.5 0 1 44.16 235.46
  Q 45.87 240.55 46.92 242.18
  C 49.01 245.44 52.39 247.39 55.35 249.61
  A 1.50 1.50 0.0 0 0 56.25 249.91
  Q 57.89 249.90 58.60 248.74"
/>
<path stroke="#d3a57b" vector-effect="non-scaling-stroke" d="
  M 44.55 149.99
  Q 44.80 150.96 45.32 151.09
  Q 46.04 151.27 46.48 150.52
  Q 49.55 145.27 51.06 139.25
  Q 52.50 133.50 54.01 129.93
  C 56.70 123.60 58.67 119.84 60.40 114.31
  Q 61.84 109.70 64.44 104.47
  A 4.45 4.36 -12.0 0 1 65.03 103.58
  Q 66.40 101.94 68.35 100.17
  Q 68.98 99.59 68.46 98.99
  Q 68.31 98.82 67.70 99.00"
/>
<path stroke="#d3a57b" vector-effect="non-scaling-stroke" d="
  M 200.72 84.71
  L 200.69 85.38
  A 0.48 0.47 21.3 0 1 199.91 85.72
  Q 196.39 82.79 192.20 81.06
  Q 182.12 76.90 171.57 73.79
  A 3.22 3.22 0.0 0 0 169.17 74.04
  Q 165.43 76.04 160.51 78.43
  Q 157.02 80.14 154.12 78.83"
/>
<path stroke="#916542" vector-effect="non-scaling-stroke" d="
  M 209.07 90.49
  Q 207.26 89.28 206.75 88.24"
/>
<path stroke="#bd9570" vector-effect="non-scaling-stroke" d="
  M 99.86 335.39
  Q 99.01 335.13 98.85 335.00
  A 0.55 0.55 0.0 0 1 99.48 334.11
  L 106.87 338.23
  A 0.71 0.71 0.0 0 0 107.89 337.39
  L 105.27 329.09
  A 0.45 0.45 0.0 0 1 105.43 328.60
  L 112.66 323.29
  A 0.18 0.18 0.0 0 0 112.70 323.05
  Q 110.93 320.51 110.12 318.41
  A 0.16 0.16 0.0 0 1 110.40 318.26
  L 115.85 325.67
  A 1.10 1.09 70.4 0 0 116.79 326.12
  L 117.10 326.10
  A 0.78 0.75 -17.3 0 0 117.72 324.96
  L 108.08 308.69"
/>
<path stroke="#b68a63" vector-effect="non-scaling-stroke" d="
  M 85.21 81.12
  Q 81.38 85.84 74.75 86.51"
/>
<path stroke="#7b5536" vector-effect="non-scaling-stroke" d="
  M 74.75 86.51
  Q 75.81 74.50 64.74 66.43
  A 3.17 3.16 -46.6 0 0 60.88 66.54
  L 60.68 66.70
  A 2.17 2.16 46.1 0 0 60.62 70.00
  Q 67.59 76.16 69.12 84.65
  C 69.43 86.35 71.11 91.48 73.67 89.75"
/>
<path stroke="#b68a63" vector-effect="non-scaling-stroke" d="
  M 73.67 89.75
  L 72.76 93.21
  A 2.11 2.07 -16.7 0 1 72.31 94.03
  L 67.70 99.00"
/>
<path stroke="#bd9570" vector-effect="non-scaling-stroke" d="
  M 67.70 99.00
  L 63.44 102.04"
/>
<path stroke="#c79d77" vector-effect="non-scaling-stroke" d="
  M 208.34 257.57
  Q 216.15 253.99 221.86 248.12
  Q 222.70 247.25 222.25 246.13
  Q 222.18 245.95 221.43 246.24"
/>
<path stroke="#aa835e" vector-effect="non-scaling-stroke" d="
  M 185.72 243.76
  Q 179.18 251.72 168.86 253.26
  A 0.39 0.38 28.4 0 1 168.64 252.53
  L 176.33 249.07
  A 1.63 1.61 6.2 0 0 176.96 248.57
  L 180.41 244.08
  A 0.32 0.32 0.0 0 0 179.95 243.64
  Q 172.37 249.86 162.28 249.89"
/>
<path stroke="#7b5536" vector-effect="non-scaling-stroke" d="
  M 162.28 249.89
  C 163.59 247.99 161.41 244.52 159.91 243.17
  A 1.24 1.23 43.4 0 0 158.22 243.21
  Q 155.91 245.49 154.70 248.29
  A 1.12 1.12 0.0 0 0 155.42 249.81
  Q 157.90 250.54 160.70 250.29"
/>
<path stroke="#aa835e" vector-effect="non-scaling-stroke" d="
  M 160.70 250.29
  Q 153.25 251.65 151.05 251.14
  Q 142.51 249.16 133.75 250.68
  A 0.46 0.46 0.0 0 1 133.40 249.86
  L 139.48 245.39
  A 2.07 2.06 -52.3 0 1 141.48 245.13
  Q 147.09 247.35 152.92 246.83
  A 0.53 0.53 0.0 0 0 153.03 245.79
  L 148.57 244.47"
/>
<path stroke="#7b5536" vector-effect="non-scaling-stroke" d="
  M 148.57 244.47
  L 144.08 239.52
  A 0.39 0.39 0.0 0 1 144.51 238.89
  L 147.82 240.15
  A 1.06 1.03 45.9 0 0 148.48 240.17
  L 150.80 239.43
  A 1.60 1.60 0.0 0 1 151.83 239.46
  L 156.95 241.35
  A 0.42 0.41 81.5 0 0 157.42 240.71
  C 155.56 238.25 152.97 237.56 149.70 235.79
  A 1.39 1.11 31.9 0 0 148.06 235.98
  Q 147.50 236.75 146.26 236.18
  Q 143.88 235.08 143.71 231.74
  Q 143.54 228.17 143.55 209.75
  Q 143.55 205.91 142.51 193.06
  A 1.56 1.55 78.9 0 0 140.49 191.70
  L 139.63 191.97
  A 1.87 1.87 0.0 0 0 138.32 193.70
  Q 137.85 207.63 137.76 222.91
  C 137.74 226.53 136.93 229.78 137.07 233.20
  A 1.94 1.89 -32.2 0 1 136.83 234.20
  Q 135.94 235.84 134.47 236.74
  Q 129.65 239.71 124.32 241.36
  A 0.73 0.73 0.0 0 0 124.44 242.79
  Q 124.61 242.81 124.87 243.02
  A 0.96 0.91 -38.5 0 1 124.65 244.57
  Q 121.50 246.20 122.56 250.03"
/>
<path stroke="#aa835e" vector-effect="non-scaling-stroke" d="
  M 122.56 250.03
  C 115.20 250.55 108.35 248.27 102.72 243.51
  Q 99.88 241.11 96.79 239.00
  C 93.57 236.80 92.54 230.52 92.10 226.63
  Q 91.01 217.05 91.33 207.48"
/>
<path stroke="#bd9570" vector-effect="non-scaling-stroke" d="
  M 195.60 334.30
  Q 195.00 334.46 194.68 334.71
  A 0.38 0.38 0.0 0 1 194.12 334.23
  Q 198.24 326.79 204.15 320.70"
/>
<path stroke="#855d3d" vector-effect="non-scaling-stroke" d="
  M 160.70 250.29
  Q 161.43 250.36 162.28 249.89"
/>
<path stroke="#aa835e" vector-effect="non-scaling-stroke" d="
  M 226.64 237.61
  L 229.68 231.19"
/>
<path stroke="#7b5536" vector-effect="non-scaling-stroke" d="
  M 239.91 235.47
  L 240.20 234.09
  A 0.28 0.28 0.0 0 0 239.74 233.82
  Q 238.30 235.12 236.85 237.54
  A 1.47 1.30 86.4 0 1 236.64 237.81
  L 228.10 246.42
  A 0.48 0.47 16.9 0 0 228.53 247.22
  Q 231.43 246.64 233.68 244.21"
/>
<path stroke="#aa835e" vector-effect="non-scaling-stroke" d="
  M 229.49 250.02
  L 224.86 247.15
  A 0.65 0.64 41.3 0 1 224.79 246.10
  Q 229.87 241.98 226.13 241.28"
/>
<path stroke="#916542" vector-effect="non-scaling-stroke" d="
  M 74.75 86.51
  Q 74.52 88.63 73.67 89.75"
/>
<path stroke="#855d3d" vector-effect="non-scaling-stroke" d="
  M 148.57 244.47
  Q 144.18 244.91 141.79 242.30
  A 1.29 1.29 0.0 0 0 140.07 242.13
  L 131.27 248.60
  A 6.57 6.53 25.7 0 1 127.61 249.87
  L 122.56 250.03"
/>
<path stroke="#7b5536" vector-effect="non-scaling-stroke" d="
  M 43.45 293.01
  Q 44.66 291.78 46.55 291.57
  A 1.34 1.34 0.0 0 1 48.02 292.74
  Q 48.59 297.42 49.80 302.44
  Q 50.75 306.36 54.49 307.76
  A 1.52 1.52 0.0 0 0 56.52 306.63
  Q 57.05 303.89 55.22 301.24
  Q 54.68 300.47 51.89 296.00
  A 6.25 6.24 22.8 0 1 51.11 294.09
  L 50.81 292.74
  A 4.94 4.74 -65.7 0 0 50.47 291.78
  Q 49.36 289.56 46.95 283.81
  Q 45.51 280.38 42.68 278.30
  Q 37.11 274.20 34.05 271.21
  A 0.35 0.35 0.0 0 0 33.48 271.60
  L 34.59 274.17
  A 0.90 0.87 32.6 0 1 34.66 274.46
  Q 35.08 283.07 36.90 291.85
  Q 38.43 299.24 43.75 304.25
  A 0.55 0.55 0.0 0 0 44.58 303.53
  Q 41.46 299.04 42.94 293.89
  A 2.20 2.19 -15.1 0 1 43.45 293.01"
/>
<path stroke="#855d3d" vector-effect="non-scaling-stroke" d="
  M 237.95 304.69
  C 245.75 297.97 246.84 286.49 246.31 277.16
  A 1.73 1.58 -42.4 0 1 246.36 276.62
  L 247.36 272.91
  A 0.42 0.42 0.0 0 0 246.71 272.46
  L 238.60 278.39
  A 0.85 0.67 -4.8 0 0 238.43 278.55
  Q 237.21 279.99 236.36 282.11
  Q 233.48 289.30 231.10 297.65
  C 230.45 299.91 231.48 301.48 229.16 303.29
  Q 227.98 304.22 226.50 306.13
  A 0.65 0.65 0.0 0 0 226.98 307.18
  C 232.72 307.46 234.42 297.93 235.40 293.39
  A 1.23 1.04 -30.8 0 1 235.52 293.04
  Q 236.45 291.14 237.82 290.86
  A 1.02 1.01 -15.8 0 1 238.97 291.50
  Q 241.51 298.31 237.38 304.17
  A 0.39 0.39 0.0 0 0 237.95 304.69"
/>
<path stroke="#7b5536" vector-effect="non-scaling-stroke" d="
  M 99.7838 337.9419
  A 2.57 0.44 -142.4 0 0 101.5515 339.8586
  A 2.57 0.44 -142.4 0 0 103.8562 341.0781
  A 2.57 0.44 -142.4 0 0 102.0885 339.1614
  A 2.57 0.44 -142.4 0 0 99.7838 337.9419"
/>
<path stroke="#a7844d" vector-effect="non-scaling-stroke" d="
  M 121.6380 24.8231
  A 4.90 2.70 -149.5 0 0 124.4896 29.6364
  A 4.90 2.70 -149.5 0 0 130.0820 29.7969
  A 4.90 2.70 -149.5 0 0 127.2304 24.9836
  A 4.90 2.70 -149.5 0 0 121.6380 24.8231"
/>
<path stroke="#a7844d" vector-effect="non-scaling-stroke" d="
  M 159.1098 24.9323
  A 4.81 2.64 -29.9 0 0 153.6240 25.0414
  A 4.81 2.64 -29.9 0 0 150.7702 29.7277
  A 4.81 2.64 -29.9 0 0 156.2560 29.6186
  A 4.81 2.64 -29.9 0 0 159.1098 24.9323"
/>
<path stroke="#a7844d" vector-effect="non-scaling-stroke" d="
  M 140.52 41.39
  C 143.76 41.37 147.74 40.90 149.34 37.82
  C 151.95 32.81 144.01 28.84 140.47 28.86
  C 136.93 28.87 129.02 32.91 131.68 37.90
  C 133.31 40.97 137.29 41.40 140.52 41.39"
/>
<path stroke="#a88e66" vector-effect="non-scaling-stroke" d="
  M 140.18 36.14
  Q 141.66 36.16 143.22 36.51
  A 0.51 0.51 0.0 0 0 143.83 35.92
  C 143.52 34.27 141.54 33.39 140.22 33.38
  C 138.90 33.36 136.90 34.18 136.54 35.82
  A 0.51 0.51 0.0 0 0 137.14 36.44
  Q 138.71 36.12 140.18 36.14"
/>
<path stroke="#d3a57b" vector-effect="non-scaling-stroke" d="
  M 60.17 137.63
  C 61.83 141.19 67.03 144.02 70.10 144.93
  Q 78.16 147.31 85.91 149.76
  Q 88.55 150.60 89.99 150.39
  C 95.75 149.53 97.49 142.85 92.48 139.71
  Q 83.03 133.77 72.02 130.76
  Q 67.59 129.55 65.84 130.03
  C 63.40 130.69 58.68 134.42 60.17 137.63"
/>
<path stroke="#d3a57b" vector-effect="non-scaling-stroke" d="
  M 191.43 149.76
  A 1.91 1.87 74.0 0 0 192.88 150.58
  Q 197.87 150.89 202.67 149.12
  Q 209.68 146.54 216.83 144.06
  C 223.05 141.92 226.56 136.59 220.73 131.14
  A 3.31 3.31 0.0 0 0 217.89 130.30
  C 211.54 131.45 183.27 137.79 191.43 149.76"
/>
<path stroke="#b68a63" vector-effect="non-scaling-stroke" d="
  M 254.9763 247.7616
  A 8.21 1.02 -50.1 0 0 248.9275 253.4057
  A 8.21 1.02 -50.1 0 0 244.4437 260.3584
  A 8.21 1.02 -50.1 0 0 250.4925 254.7143
  A 8.21 1.02 -50.1 0 0 254.9763 247.7616"
/>
<path stroke="#986f4f" vector-effect="non-scaling-stroke" d="
  M 62.04 136.21
  Q 63.25 139.94 67.50 141.09
  Q 79.61 144.37 89.26 148.22
  A 1.82 1.76 -41.6 0 0 90.41 148.27
  Q 91.76 147.87 93.02 146.43
  C 94.75 144.46 91.91 141.23 90.31 140.19
  C 84.54 136.43 76.51 134.63 69.81 132.61
  Q 65.84 131.42 62.45 134.62
  A 1.54 1.52 59.7 0 0 62.04 136.21"
/>
<path stroke="#986f4f" vector-effect="non-scaling-stroke" d="
  M 194.42 148.26
  L 221.82 139.36
  A 1.95 1.95 0.0 0 0 223.07 136.90
  L 222.70 135.76
  A 6.80 5.07 -18.0 0 0 214.66 133.04
  L 196.50 138.94
  A 6.80 5.07 -18.0 0 0 191.60 145.87
  L 191.97 147.01
  A 1.95 1.95 0.0 0 0 194.42 148.26"
/>
<path stroke="#7b5536" vector-effect="non-scaling-stroke" d="
  M 155.38 187.47
  C 159.73 185.98 170.09 181.23 170.96 176.76
  C 171.43 174.30 168.91 171.49 166.15 172.12
  C 162.80 172.90 157.80 175.28 155.59 177.16
  C 152.52 179.78 150.40 184.25 154.20 187.26
  A 1.26 1.23 54.4 0 0 155.38 187.47"
/>
<path stroke="#7b5536" vector-effect="non-scaling-stroke" d="
  M 129.24 183.76
  C 128.17 178.86 122.05 174.90 117.74 173.20
  C 114.19 171.80 111.25 172.32 110.67 176.48
  Q 110.15 180.23 113.18 182.07
  Q 117.82 184.87 121.58 186.76
  C 124.95 188.46 128.12 189.14 129.22 184.80
  A 2.34 2.29 -44.4 0 0 129.24 183.76"
/>
</g>
<path fill="#552f15" d="
  M 233.78 96.29
  Q 235.78 99.88 239.92 102.96
  C 264.42 129.26 277.90 163.07 276.97 199.25
  Q 276.07 233.81 255.85 262.17
  A 5.88 5.87 62.8 0 0 254.76 265.58
  Q 254.77 279.48 252.29 291.76
  C 249.83 303.96 243.27 312.62 230.24 314.04
  Q 225.97 314.50 222.92 314.12
  A 2.39 2.38 -66.4 0 0 220.78 314.96
  L 192.17 349.35
  A 2.03 2.02 26.3 0 1 190.14 350.03
  Q 185.89 349.03 181.24 348.36
  C 177.32 347.78 171.69 350.00 169.62 345.12
  Q 168.88 343.38 166.66 336.81
  A 3.48 3.47 85.3 0 0 163.94 334.50
  L 159.98 333.84
  A 1.50 1.48 84.5 0 1 158.82 332.87
  Q 157.09 328.02 157.26 323.96
  A 4.59 4.56 -26.9 0 1 158.03 321.63
  C 163.11 314.09 167.13 305.98 168.91 297.06
  A 1.03 1.02 87.8 0 0 167.63 295.87
  Q 165.74 296.40 165.09 296.53
  Q 139.55 301.41 114.12 295.91
  A 0.90 0.90 0.0 0 0 113.06 297.05
  Q 117.08 310.50 125.89 320.67
  A 3.90 3.89 -60.7 0 1 126.79 323.88
  L 125.64 330.78
  A 2.82 2.82 0.0 0 1 123.70 333.02
  L 120.09 334.16
  A 3.76 3.76 0.0 0 0 117.92 335.93
  Q 116.88 337.78 115.39 343.06
  C 113.57 349.50 109.26 347.94 104.09 347.23
  A 3.48 3.46 -58.0 0 0 101.68 347.79
  C 99.68 349.12 98.81 349.91 96.90 350.24
  C 90.11 351.39 88.90 348.40 84.41 342.83
  Q 69.85 324.75 61.21 313.95
  A 2.22 2.22 0.0 0 0 59.01 313.17
  C 52.32 314.65 43.57 314.20 38.43 309.31
  C 33.41 304.53 30.65 295.43 29.24 288.76
  Q 26.93 277.78 26.27 266.87
  A 8.84 8.78 -62.1 0 0 25.08 262.96
  C 11.17 239.26 0.77 212.06 4.12 184.04
  Q 7.57 155.18 18.51 133.55
  Q 25.61 119.51 39.07 103.75
  Q 39.46 103.96 39.60 103.83
  Q 42.04 101.65 44.40 99.40
  Q 46.77 97.14 46.87 95.90
  Q 47.11 93.05 45.70 93.15
  Q 43.55 84.43 44.11 76.07
  C 45.24 59.17 60.36 47.30 76.35 58.41
  Q 83.08 63.09 88.03 69.64
  Q 87.83 70.21 88.13 70.64
  Q 88.44 71.08 89.03 70.98
  Q 90.04 70.81 90.44 69.55
  L 100.44 65.84
  A 0.98 0.97 63.6 0 0 100.92 64.41
  Q 96.07 56.53 100.22 47.38
  Q 104.09 38.86 106.89 35.37
  C 107.79 34.24 109.14 31.30 109.44 30.22
  Q 112.00 20.92 117.12 13.89
  C 124.14 4.26 138.15 0.38 149.29 4.39
  C 162.34 9.08 168.30 18.83 172.05 32.51
  A 7.27 7.24 -70.2 0 0 173.09 34.73
  C 179.25 43.46 186.30 52.97 180.01 63.90
  A 1.38 1.38 0.0 0 0 180.63 65.84
  L 191.41 70.79
  A 1.27 1.27 0.0 0 0 193.04 70.27
  Q 196.24 64.70 201.54 59.50
  Q 210.35 50.87 222.84 53.85
  Q 229.83 55.51 232.85 60.84
  C 239.29 72.20 238.74 84.35 233.78 96.29
  Z
  M 119.66 19.25
  Q 116.03 25.13 115.08 32.07
  Q 114.32 36.39 113.40 37.64
  C 108.43 44.43 103.20 50.23 103.59 57.42
  A 3.17 3.17 0.0 0 0 105.44 60.14
  L 106.84 60.79
  A 0.99 0.99 0.0 0 0 108.19 59.59
  Q 107.42 57.22 108.19 54.85
  Q 108.46 53.40 110.73 54.11
  Q 111.01 56.44 111.32 58.69
  C 111.69 61.37 112.49 62.90 114.26 64.77
  C 123.07 74.11 136.94 75.16 149.42 73.64
  Q 157.82 72.62 164.40 66.93
  C 168.95 63.00 169.64 59.97 169.31 54.37
  A 1.20 1.20 0.0 0 1 171.15 53.29
  C 172.87 54.37 174.01 56.38 173.48 58.47
  Q 172.86 60.94 172.86 60.96
  A 0.60 0.60 0.0 0 0 173.58 61.43
  C 176.28 60.86 178.33 59.16 177.92 56.06
  C 177.28 51.36 174.72 46.72 171.69 42.87
  C 167.28 37.27 166.57 33.87 164.04 25.78
  C 160.68 15.02 152.11 8.25 140.53 8.40
  Q 126.87 8.57 119.66 19.25
  Z
  M 196.69 81.39
  Q 183.85 75.00 172.10 71.59
  A 4.92 4.92 0.0 0 0 167.80 72.36
  Q 162.12 76.54 154.12 78.83
  Q 144.65 80.60 134.83 79.79
  C 126.20 79.07 118.23 76.22 111.79 72.00
  C 109.46 70.47 107.15 72.49 104.92 73.04
  Q 95.13 75.42 85.21 81.12
  Q 81.64 72.80 76.17 66.07
  C 71.78 60.67 65.31 57.66 58.76 61.09
  C 53.94 63.61 50.55 71.44 50.54 76.74
  C 50.51 83.48 52.78 93.58 58.79 97.75
  A 0.29 0.29 0.0 0 0 59.18 97.32
  L 58.45 96.46
  A 0.39 0.39 0.0 0 1 58.87 95.84
  Q 63.11 97.18 63.44 102.04
  C 59.77 108.97 57.51 116.20 54.50 123.27
  Q 51.84 129.47 49.54 136.43
  Q 47.27 143.30 44.55 149.99
  C 40.06 161.95 35.81 176.29 36.16 188.35
  Q 36.56 201.93 41.58 215.43
  C 43.37 220.24 46.46 224.13 49.00 228.86
  Q 50.62 231.87 53.90 235.55
  Q 56.88 238.90 59.74 241.87
  A 1.84 1.68 -6.9 0 0 60.20 242.20
  Q 61.30 242.72 61.71 243.59
  A 0.93 0.93 0.0 0 1 61.63 244.52
  L 58.60 248.74
  Q 59.92 246.92 58.39 245.91
  A 0.42 0.41 86.3 0 0 57.85 246.53
  L 58.37 247.15
  A 0.51 0.50 -35.3 0 1 58.23 247.92
  Q 57.19 248.52 56.84 248.43
  A 0.25 0.25 0.0 0 1 56.85 247.94
  Q 57.05 247.90 57.50 248.18
  A 0.28 0.27 -73.4 0 0 57.92 247.95
  A 0.25 0.25 0.0 0 0 57.61 247.70
  Q 57.15 247.82 56.67 247.73
  A 1.23 1.19 -14.7 0 1 55.92 247.31
  L 45.60 235.16
  A 0.16 0.08 26.6 0 1 45.57 235.12
  Q 40.46 227.13 37.72 219.30
  A 1.87 1.83 -81.2 0 0 37.12 218.46
  L 33.44 215.53
  C 31.74 209.38 29.06 202.25 28.78 196.51
  C 28.23 184.94 28.38 173.69 31.82 162.55
  C 33.75 156.33 36.27 147.70 38.90 141.43
  C 41.08 136.24 42.34 131.51 44.76 125.78
  Q 48.91 115.98 52.56 105.99
  Q 53.74 104.36 53.69 102.92
  A 0.41 0.41 0.0 0 0 53.02 102.61
  Q 49.23 105.60 46.30 108.79
  C 38.19 117.62 31.07 126.69 24.04 138.96
  Q 14.22 159.26 11.10 181.62
  C 10.20 188.04 9.86 196.67 10.23 202.26
  Q 11.21 217.08 15.97 231.81
  Q 17.92 237.84 20.17 241.86
  Q 21.72 244.64 28.72 254.56
  Q 34.68 263.01 41.92 269.03
  A 0.48 0.48 0.0 0 0 42.69 268.55
  Q 41.40 263.02 40.85 255.25
  Q 40.66 252.65 42.09 251.64
  C 44.04 250.27 46.33 251.91 46.79 253.78
  Q 50.37 268.48 51.91 273.62
  Q 53.17 277.84 57.93 289.65
  C 60.73 296.62 65.98 305.01 68.65 309.36
  Q 72.81 316.12 81.95 325.86
  Q 83.56 327.57 84.25 328.77
  Q 89.65 338.07 95.70 343.84
  A 0.90 0.90 0.0 0 0 97.22 343.20
  Q 97.23 342.92 96.82 342.14
  C 95.99 339.90 96.35 335.33 99.86 335.39
  Q 102.50 337.04 104.88 339.36
  Q 106.50 340.95 108.12 340.89
  A 1.42 1.42 0.0 0 0 109.49 339.33
  C 108.99 334.21 108.23 330.35 110.32 326.59
  A 1.18 1.17 -64.7 0 1 111.77 326.07
  Q 112.50 326.36 116.17 328.00
  A 2.22 2.10 29.4 0 0 118.85 327.33
  Q 120.11 325.53 118.88 323.62
  Q 113.31 314.98 108.58 304.27
  Q 102.53 290.56 102.02 276.07
  Q 106.95 273.98 108.21 277.51
  Q 109.85 282.13 110.36 286.81
  A 1.72 1.72 0.0 0 0 111.78 288.32
  Q 115.98 289.05 127.94 290.66
  C 142.94 292.69 153.80 290.73 170.58 288.36
  A 2.17 2.17 0.0 0 0 172.41 286.55
  C 172.88 283.49 172.78 279.44 174.93 276.95
  C 176.13 275.55 179.87 274.84 180.56 277.58
  Q 180.92 278.99 180.68 280.50
  Q 178.56 293.80 173.79 306.26
  Q 170.02 314.56 164.83 322.84
  C 163.32 325.26 164.24 329.49 167.90 327.86
  C 170.06 326.89 171.89 326.26 174.06 327.20
  A 1.08 1.08 0.0 0 1 174.69 327.94
  C 175.54 331.31 175.19 335.22 175.10 338.50
  A 2.63 2.58 4.2 0 0 177.42 341.14
  Q 177.65 341.16 178.30 340.57
  C 180.91 338.18 186.78 331.70 187.44 340.11
  A 1.84 1.83 -33.2 0 1 187.23 341.11
  Q 186.57 342.35 186.58 343.18
  A 0.98 0.97 -26.5 0 0 188.33 343.76
  L 195.60 334.30
  L 202.69 324.20
  A 14.47 14.07 -6.0 0 1 204.13 322.47
  Q 208.48 318.07 211.02 314.01
  Q 215.91 306.21 220.79 298.49
  Q 226.75 287.24 230.60 275.21
  Q 231.99 270.84 233.41 263.76
  Q 234.86 256.54 236.72 252.46
  Q 237.86 249.96 240.08 250.33
  A 2.62 2.55 -24.0 0 1 241.06 250.69
  Q 242.73 251.73 242.60 254.08
  Q 242.32 259.04 242.38 262.30
  A 1.33 1.31 63.7 0 1 242.12 263.09
  Q 240.86 264.75 240.64 266.78
  A 0.48 0.48 0.0 0 0 241.44 267.18
  Q 246.99 261.99 253.08 255.54
  Q 254.16 254.40 254.46 253.60
  A 3.15 2.10 -24.2 0 1 254.98 252.77
  Q 256.02 251.59 261.96 245.63
  Q 262.73 244.85 263.07 244.56
  Q 264.67 243.17 264.69 241.49
  Q 264.74 236.44 266.39 230.78
  Q 268.10 224.95 268.47 222.42
  Q 270.53 208.32 270.48 201.25
  Q 270.34 180.63 264.19 158.98
  Q 262.97 154.68 261.48 150.35
  Q 254.62 133.20 243.06 118.92
  C 239.02 113.93 233.30 108.76 229.13 103.97
  A 0.45 0.45 0.0 0 0 228.37 104.44
  L 244.79 145.27
  C 246.70 152.03 249.13 158.83 250.49 165.47
  Q 251.72 171.47 252.31 175.37
  Q 254.25 188.07 252.09 201.51
  L 251.16 203.36
  A 0.36 0.36 0.0 0 1 250.55 203.41
  Q 250.22 202.95 250.14 202.10
  A 0.48 0.48 0.0 0 0 249.20 202.00
  Q 248.17 205.43 248.68 208.32
  A 4.07 4.02 -35.3 0 1 248.19 211.09
  C 245.11 216.40 243.08 222.24 238.94 227.46
  Q 238.13 228.49 237.45 231.02
  A 2.53 2.51 85.5 0 1 236.05 232.67
  Q 235.38 232.98 234.91 233.83
  A 3.44 3.40 -87.0 0 1 233.31 235.29
  Q 228.70 237.33 226.13 241.28
  L 221.43 246.24
  Q 214.90 252.24 210.02 254.51
  Q 201.22 258.62 192.66 262.44
  A 2.16 2.07 -55.7 0 1 191.81 262.62
  L 190.47 262.62
  A 3.91 3.82 34.9 0 0 189.21 262.83
  Q 178.76 266.50 174.61 267.30
  Q 165.57 269.05 164.35 269.66
  A 2.10 1.99 -55.6 0 1 163.37 269.87
  Q 161.05 269.79 158.27 270.22
  Q 156.82 270.45 152.68 270.77
  Q 137.44 271.95 117.19 269.37
  Q 113.85 268.95 111.33 268.21
  C 107.49 267.07 103.99 266.36 98.46 265.04
  Q 90.24 263.08 73.11 255.87
  Q 71.28 255.10 69.45 253.98
  Q 69.61 252.42 74.24 254.61
  A 0.93 0.92 -62.1 0 0 75.44 254.24
  L 75.45 254.21
  A 0.86 0.86 0.0 0 0 75.11 253.02
  C 73.40 252.11 70.02 250.63 69.38 248.66
  A 0.62 0.62 0.0 0 1 70.08 247.85
  L 74.92 248.72
  A 1.17 0.97 -23.7 0 1 75.13 248.78
  Q 88.12 253.84 97.07 256.62
  Q 124.40 265.14 153.54 263.00
  C 158.52 262.50 163.70 262.00 168.36 260.86
  Q 173.67 259.55 179.05 258.51
  C 183.81 257.58 188.98 255.51 193.82 253.74
  L 200.31 251.25
  Q 203.45 250.36 205.90 248.18
  A 2.27 2.22 -74.7 0 1 206.72 247.70
  Q 210.36 246.52 213.48 245.54
  Q 215.20 245.00 216.42 245.77
  Q 218.26 246.93 219.92 245.18
  Q 223.44 241.45 226.64 237.61
  Q 228.62 235.35 231.01 233.84
  A 3.03 2.83 -83.0 0 0 231.69 233.27
  Q 242.41 221.22 244.29 205.23
  Q 245.82 196.96 245.87 188.64
  Q 245.89 185.69 245.46 183.39
  C 244.63 179.02 244.58 174.97 243.38 170.43
  Q 241.03 161.54 238.33 153.94
  Q 235.06 144.76 222.51 111.48
  Q 221.19 108.00 219.09 104.14
  Q 218.21 102.53 218.38 100.38
  Q 218.40 99.47 219.52 98.56
  Q 220.24 97.98 223.03 96.63
  A 3.45 3.34 6.9 0 0 224.10 95.82
  C 229.56 89.54 232.79 79.88 230.34 71.64
  C 229.00 67.10 227.62 63.43 223.49 60.83
  C 217.97 57.36 209.75 60.34 205.90 64.89
  Q 200.27 71.54 196.69 81.39
  Z
  M 43.45 293.01
  Q 44.66 291.78 46.55 291.57
  A 1.34 1.34 0.0 0 1 48.02 292.74
  Q 48.59 297.42 49.80 302.44
  Q 50.75 306.36 54.49 307.76
  A 1.52 1.52 0.0 0 0 56.52 306.63
  Q 57.05 303.89 55.22 301.24
  Q 54.68 300.47 51.89 296.00
  A 6.25 6.24 22.8 0 1 51.11 294.09
  L 50.81 292.74
  A 4.94 4.74 -65.7 0 0 50.47 291.78
  Q 49.36 289.56 46.95 283.81
  Q 45.51 280.38 42.68 278.30
  Q 37.11 274.20 34.05 271.21
  A 0.35 0.35 0.0 0 0 33.48 271.60
  L 34.59 274.17
  A 0.90 0.87 32.6 0 1 34.66 274.46
  Q 35.08 283.07 36.90 291.85
  Q 38.43 299.24 43.75 304.25
  A 0.55 0.55 0.0 0 0 44.58 303.53
  Q 41.46 299.04 42.94 293.89
  A 2.20 2.19 -15.1 0 1 43.45 293.01
  Z
  M 237.95 304.69
  C 245.75 297.97 246.84 286.49 246.31 277.16
  A 1.73 1.58 -42.4 0 1 246.36 276.62
  L 247.36 272.91
  A 0.42 0.42 0.0 0 0 246.71 272.46
  L 238.60 278.39
  A 0.85 0.67 -4.8 0 0 238.43 278.55
  Q 237.21 279.99 236.36 282.11
  Q 233.48 289.30 231.10 297.65
  C 230.45 299.91 231.48 301.48 229.16 303.29
  Q 227.98 304.22 226.50 306.13
  A 0.65 0.65 0.0 0 0 226.98 307.18
  C 232.72 307.46 234.42 297.93 235.40 293.39
  A 1.23 1.04 -30.8 0 1 235.52 293.04
  Q 236.45 291.14 237.82 290.86
  A 1.02 1.01 -15.8 0 1 238.97 291.50
  Q 241.51 298.31 237.38 304.17
  A 0.39 0.39 0.0 0 0 237.95 304.69
  Z
  M 99.7838 337.9419
  A 2.57 0.44 -142.4 0 0 101.5515 339.8586
  A 2.57 0.44 -142.4 0 0 103.8562 341.0781
  A 2.57 0.44 -142.4 0 0 102.0885 339.1614
  A 2.57 0.44 -142.4 0 0 99.7838 337.9419
  Z"
/>
<path fill="#fbedb7" d="
  M 110.73 54.11
  Q 112.89 53.93 113.53 58.20
  Q 113.88 60.58 114.46 61.61
  Q 115.37 63.23 116.69 64.32
  C 126.26 72.21 137.11 72.20 149.23 71.17
  Q 154.53 70.71 157.27 68.86
  C 161.99 65.68 167.80 62.62 167.09 56.40
  Q 166.59 52.08 170.41 48.41
  A 0.40 0.40 0.0 0 1 171.06 48.56
  Q 171.66 50.18 172.97 50.13
  A 0.46 0.46 0.0 0 0 173.33 49.41
  Q 169.60 44.12 166.17 39.59
  Q 165.11 38.19 164.53 36.21
  Q 163.15 31.44 161.42 26.66
  A 0.96 0.93 1.9 0 0 160.91 26.13
  Q 160.02 25.75 159.94 24.83
  C 159.53 20.26 157.21 16.55 153.19 14.27
  C 142.31 8.08 129.93 9.38 122.34 19.67
  A 1.03 1.02 19.2 0 1 121.48 20.08
  Q 120.43 20.03 119.66 19.25
  Q 126.87 8.57 140.53 8.40
  C 152.11 8.25 160.68 15.02 164.04 25.78
  C 166.57 33.87 167.28 37.27 171.69 42.87
  C 174.72 46.72 177.28 51.36 177.92 56.06
  C 178.33 59.16 176.28 60.86 173.58 61.43
  A 0.60 0.60 0.0 0 1 172.86 60.96
  Q 172.86 60.94 173.48 58.47
  C 174.01 56.38 172.87 54.37 171.15 53.29
  A 1.20 1.20 0.0 0 0 169.31 54.37
  C 169.64 59.97 168.95 63.00 164.40 66.93
  Q 157.82 72.62 149.42 73.64
  C 136.94 75.16 123.07 74.11 114.26 64.77
  C 112.49 62.90 111.69 61.37 111.32 58.69
  Q 111.01 56.44 110.73 54.11
  Z"
/>
<path fill="#f9d884" d="
  M 110.73 54.11
  Q 108.46 53.40 108.19 54.85
  Q 106.46 51.54 108.04 49.52
  Q 112.56 43.76 115.68 37.92
  Q 116.69 36.04 117.38 32.71
  A 0.65 0.64 16.6 0 0 116.98 31.98
  Q 116.14 31.67 115.08 32.07
  Q 116.03 25.13 119.66 19.25
  Q 120.43 20.03 121.48 20.08
  A 1.03 1.02 19.2 0 0 122.34 19.67
  C 129.93 9.38 142.31 8.08 153.19 14.27
  C 157.21 16.55 159.53 20.26 159.94 24.83
  Q 160.02 25.75 160.91 26.13
  A 0.96 0.93 1.9 0 1 161.42 26.66
  Q 163.15 31.44 164.53 36.21
  Q 165.11 38.19 166.17 39.59
  Q 169.60 44.12 173.33 49.41
  A 0.46 0.46 0.0 0 1 172.97 50.13
  Q 171.66 50.18 171.06 48.56
  A 0.40 0.40 0.0 0 0 170.41 48.41
  Q 166.59 52.08 167.09 56.40
  C 167.80 62.62 161.99 65.68 157.27 68.86
  Q 154.53 70.71 149.23 71.17
  C 137.11 72.20 126.26 72.21 116.69 64.32
  Q 115.37 63.23 114.46 61.61
  Q 113.88 60.58 113.53 58.20
  Q 112.89 53.93 110.73 54.11
  Z
  M 121.6380 24.8231
  A 4.90 2.70 -149.5 0 0 124.4896 29.6364
  A 4.90 2.70 -149.5 0 0 130.0820 29.7969
  A 4.90 2.70 -149.5 0 0 127.2304 24.9836
  A 4.90 2.70 -149.5 0 0 121.6380 24.8231
  Z
  M 159.1098 24.9323
  A 4.81 2.64 -29.9 0 0 153.6240 25.0414
  A 4.81 2.64 -29.9 0 0 150.7702 29.7277
  A 4.81 2.64 -29.9 0 0 156.2560 29.6186
  A 4.81 2.64 -29.9 0 0 159.1098 24.9323
  Z
  M 140.52 41.39
  C 143.76 41.37 147.74 40.90 149.34 37.82
  C 151.95 32.81 144.01 28.84 140.47 28.86
  C 136.93 28.87 129.02 32.91 131.68 37.90
  C 133.31 40.97 137.29 41.40 140.52 41.39
  Z"
/>
<ellipse fill="#552f15" cx="0.00" cy="0.00" transform="translate(125.86,27.31) rotate(-149.5)" rx="4.90" ry="2.70"/>
<ellipse fill="#552f15" cx="0.00" cy="0.00" transform="translate(154.94,27.33) rotate(-29.9)" rx="4.81" ry="2.64"/>
<path fill="#552f15" d="
  M 140.47 28.86
  C 144.01 28.84 151.95 32.81 149.34 37.82
  C 147.74 40.90 143.76 41.37 140.52 41.39
  C 137.29 41.40 133.31 40.97 131.68 37.90
  C 129.02 32.91 136.93 28.87 140.47 28.86
  Z
  M 140.18 36.14
  Q 141.66 36.16 143.22 36.51
  A 0.51 0.51 0.0 0 0 143.83 35.92
  C 143.52 34.27 141.54 33.39 140.22 33.38
  C 138.90 33.36 136.90 34.18 136.54 35.82
  A 0.51 0.51 0.0 0 0 137.14 36.44
  Q 138.71 36.12 140.18 36.14
  Z"
/>
<path fill="#fbedb7" d="
  M 108.19 54.85
  Q 107.42 57.22 108.19 59.59
  A 0.99 0.99 0.0 0 1 106.84 60.79
  L 105.44 60.14
  A 3.17 3.17 0.0 0 1 103.59 57.42
  C 103.20 50.23 108.43 44.43 113.40 37.64
  Q 114.32 36.39 115.08 32.07
  Q 116.14 31.67 116.98 31.98
  A 0.65 0.64 16.6 0 1 117.38 32.71
  Q 116.69 36.04 115.68 37.92
  Q 112.56 43.76 108.04 49.52
  Q 106.46 51.54 108.19 54.85
  Z"
/>
<path fill="#fbedb7" d="
  M 140.22 33.38
  C 141.54 33.39 143.52 34.27 143.83 35.92
  A 0.51 0.51 0.0 0 1 143.22 36.51
  Q 141.66 36.16 140.18 36.14
  Q 138.71 36.12 137.14 36.44
  A 0.51 0.51 0.0 0 1 136.54 35.82
  C 136.90 34.18 138.90 33.36 140.22 33.38
  Z"
/>
<path fill="#a07a57" d="
  M 218.38 100.38
  L 209.07 90.49
  Q 211.74 87.97 213.11 82.08
  Q 214.51 76.07 219.78 70.30
  A 3.45 3.44 54.2 0 0 220.38 66.56
  L 219.93 65.56
  A 1.70 1.70 0.0 0 0 217.37 64.90
  Q 210.41 70.09 207.33 77.57
  Q 205.48 82.06 206.75 88.24
  Q 206.42 87.81 206.04 87.57
  A 0.80 0.80 0.0 0 0 205.07 87.63
  Q 204.64 88.00 203.96 87.62
  A 0.79 0.76 -1.0 0 1 203.66 87.34
  Q 202.54 85.66 200.72 84.71
  L 196.69 81.39
  Q 200.27 71.54 205.90 64.89
  C 209.75 60.34 217.97 57.36 223.49 60.83
  C 227.62 63.43 229.00 67.10 230.34 71.64
  C 232.79 79.88 229.56 89.54 224.10 95.82
  A 3.45 3.34 6.9 0 1 223.03 96.63
  Q 220.24 97.98 219.52 98.56
  Q 218.40 99.47 218.38 100.38
  Z"
/>
<path fill="#a07a57" d="
  M 85.21 81.12
  Q 81.38 85.84 74.75 86.51
  Q 75.81 74.50 64.74 66.43
  A 3.17 3.16 -46.6 0 0 60.88 66.54
  L 60.68 66.70
  A 2.17 2.16 46.1 0 0 60.62 70.00
  Q 67.59 76.16 69.12 84.65
  C 69.43 86.35 71.11 91.48 73.67 89.75
  L 72.76 93.21
  A 2.11 2.07 -16.7 0 1 72.31 94.03
  L 67.70 99.00
  L 63.44 102.04
  Q 63.11 97.18 58.87 95.84
  A 0.39 0.39 0.0 0 0 58.45 96.46
  L 59.18 97.32
  A 0.29 0.29 0.0 0 1 58.79 97.75
  C 52.78 93.58 50.51 83.48 50.54 76.74
  C 50.55 71.44 53.94 63.61 58.76 61.09
  C 65.31 57.66 71.78 60.67 76.17 66.07
  Q 81.64 72.80 85.21 81.12
  Z"
/>
<path fill="#552f15" d="
  M 209.07 90.49
  Q 207.26 89.28 206.75 88.24
  Q 205.48 82.06 207.33 77.57
  Q 210.41 70.09 217.37 64.90
  A 1.70 1.70 0.0 0 1 219.93 65.56
  L 220.38 66.56
  A 3.45 3.44 54.2 0 1 219.78 70.30
  Q 214.51 76.07 213.11 82.08
  Q 211.74 87.97 209.07 90.49
  Z"
/>
<path fill="#552f15" d="
  M 74.75 86.51
  Q 74.52 88.63 73.67 89.75
  C 71.11 91.48 69.43 86.35 69.12 84.65
  Q 67.59 76.16 60.62 70.00
  A 2.17 2.16 46.1 0 1 60.68 66.70
  L 60.88 66.54
  A 3.17 3.16 -46.6 0 1 64.74 66.43
  Q 75.81 74.50 74.75 86.51
  Z"
/>
<path fill="#daaf88" d="
  M 88.03 69.64
  L 90.44 69.55
  Q 90.04 70.81 89.03 70.98
  Q 88.44 71.08 88.13 70.64
  Q 87.83 70.21 88.03 69.64
  Z"
/>
<path fill="#daaf88" d="
  M 196.69 81.39
  L 200.72 84.71
  L 200.69 85.38
  A 0.48 0.47 21.3 0 1 199.91 85.72
  Q 196.39 82.79 192.20 81.06
  Q 182.12 76.90 171.57 73.79
  A 3.22 3.22 0.0 0 0 169.17 74.04
  Q 165.43 76.04 160.51 78.43
  Q 157.02 80.14 154.12 78.83
  Q 162.12 76.54 167.80 72.36
  A 4.92 4.92 0.0 0 1 172.10 71.59
  Q 183.85 75.00 196.69 81.39
  Z"
/>
<path fill="#cc9a6e" d="
  M 154.12 78.83
  Q 157.02 80.14 160.51 78.43
  Q 165.43 76.04 169.17 74.04
  A 3.22 3.22 0.0 0 1 171.57 73.79
  Q 182.12 76.90 192.20 81.06
  Q 196.39 82.79 199.91 85.72
  A 0.48 0.47 21.3 0 0 200.69 85.38
  L 200.72 84.71
  Q 202.54 85.66 203.66 87.34
  A 0.79 0.76 -1.0 0 0 203.96 87.62
  Q 204.64 88.00 205.07 87.63
  A 0.80 0.80 0.0 0 1 206.04 87.57
  Q 206.42 87.81 206.75 88.24
  Q 207.26 89.28 209.07 90.49
  L 218.38 100.38
  Q 218.21 102.53 219.09 104.14
  Q 221.19 108.00 222.51 111.48
  Q 235.06 144.76 238.33 153.94
  Q 241.03 161.54 243.38 170.43
  C 244.58 174.97 244.63 179.02 245.46 183.39
  Q 245.89 185.69 245.87 188.64
  Q 245.82 196.96 244.29 205.23
  Q 242.06 207.86 240.82 210.53
  Q 235.58 221.81 229.68 231.19
  Q 227.80 231.91 225.71 231.87
  A 1.04 1.02 -69.1 0 0 224.90 232.24
  Q 220.85 237.07 218.08 238.85
  Q 208.95 244.71 200.31 251.25
  L 193.82 253.74
  L 190.00 254.03
  A 0.48 0.48 0.0 0 1 189.48 253.54
  Q 189.52 252.05 190.51 251.52
  Q 201.93 245.49 204.52 243.99
  Q 204.83 243.82 204.77 243.48
  A 0.35 0.34 -10.7 0 0 204.36 243.21
  Q 195.53 245.11 188.48 250.22
  C 184.82 252.88 182.60 254.13 179.07 255.11
  A 0.49 0.48 -65.9 0 1 178.73 254.21
  Q 185.11 250.98 185.72 243.76
  Q 187.62 239.48 188.12 235.56
  C 190.47 217.11 191.66 198.56 187.85 180.38
  C 186.60 174.44 182.14 164.43 176.61 161.15
  Q 168.96 156.61 167.49 156.01
  Q 160.53 153.18 155.50 152.58
  Q 137.38 150.40 118.49 154.72
  C 112.62 156.06 109.03 158.68 104.45 162.45
  C 98.96 166.97 95.42 172.92 94.05 179.74
  Q 91.40 192.88 91.33 207.48
  Q 89.32 226.80 95.69 242.31
  Q 101.55 256.60 117.55 258.44
  Q 128.07 259.65 138.65 260.04
  Q 148.40 260.40 151.78 260.94
  Q 154.00 261.29 153.54 263.00
  Q 124.40 265.14 97.07 256.62
  Q 88.12 253.84 75.13 248.78
  A 1.17 0.97 -23.7 0 0 74.92 248.72
  L 70.08 247.85
  A 0.62 0.62 0.0 0 0 69.38 248.66
  C 70.02 250.63 73.40 252.11 75.11 253.02
  A 0.86 0.86 0.0 0 1 75.45 254.21
  L 75.44 254.24
  A 0.93 0.92 -62.1 0 1 74.24 254.61
  Q 69.61 252.42 69.45 253.98
  L 62.52 248.97
  A 0.54 0.54 0.0 0 0 61.72 249.65
  Q 63.52 253.26 67.08 255.10
  Q 76.04 259.71 88.60 264.91
  C 98.64 269.07 111.80 270.78 119.91 272.33
  Q 126.97 273.68 134.17 273.84
  Q 152.12 274.24 166.03 272.37
  Q 170.66 271.75 185.06 267.70
  Q 191.02 266.02 196.92 263.20
  Q 202.77 260.39 208.34 257.57
  Q 214.66 256.84 220.57 251.84
  A 0.72 0.72 0.0 0 1 221.75 252.39
  L 221.75 255.06
  A 0.62 0.62 0.0 0 0 222.86 255.43
  Q 225.46 251.98 229.49 250.02
  C 231.57 249.28 234.67 246.96 233.68 244.21
  C 236.47 241.51 237.77 238.39 239.91 235.47
  Q 242.08 232.84 242.52 231.32
  C 244.16 225.61 247.93 219.54 249.13 215.42
  Q 249.41 214.48 249.45 211.75
  A 4.61 4.55 -37.0 0 1 249.62 210.59
  L 252.09 201.51
  Q 254.25 188.07 252.31 175.37
  Q 251.72 171.47 250.49 165.47
  C 249.13 158.83 246.70 152.03 244.79 145.27
  Q 245.56 145.64 245.69 146.82
  A 0.31 0.30 86.8 0 0 245.99 147.10
  L 246.36 147.10
  A 0.29 0.28 88.1 0 0 246.64 146.79
  Q 246.53 145.44 246.22 144.52
  Q 241.43 130.30 235.54 118.00
  C 234.84 116.53 234.35 114.61 233.50 112.90
  A 0.66 0.66 0.0 0 1 234.60 112.18
  Q 235.41 113.14 240.30 118.46
  C 247.45 126.24 253.26 136.08 258.01 145.65
  C 258.71 147.05 258.77 148.16 259.15 149.46
  Q 259.54 150.79 260.61 150.98
  Q 260.79 151.01 261.48 150.35
  Q 262.97 154.68 264.19 158.98
  Q 270.34 180.63 270.48 201.25
  Q 270.53 208.32 268.47 222.42
  Q 268.10 224.95 266.39 230.78
  Q 264.74 236.44 264.69 241.49
  Q 264.67 243.17 263.07 244.56
  Q 262.73 244.85 261.96 245.63
  Q 256.02 251.59 254.98 252.77
  A 3.15 2.10 -24.2 0 0 254.46 253.60
  Q 254.16 254.40 253.08 255.54
  Q 246.99 261.99 241.44 267.18
  A 0.48 0.48 0.0 0 1 240.64 266.78
  Q 240.86 264.75 242.12 263.09
  A 1.33 1.31 63.7 0 0 242.38 262.30
  Q 242.32 259.04 242.60 254.08
  Q 242.73 251.73 241.06 250.69
  A 2.62 2.55 -24.0 0 0 240.08 250.33
  Q 237.86 249.96 236.72 252.46
  Q 234.86 256.54 233.41 263.76
  Q 231.99 270.84 230.60 275.21
  Q 226.75 287.24 220.79 298.49
  Q 221.16 297.06 220.63 296.79
  A 0.87 0.87 0.0 0 0 219.53 297.09
  C 215.84 302.57 213.20 308.04 209.28 313.64
  Q 206.81 317.16 204.15 320.70
  Q 203.87 319.21 203.42 318.82
  Q 195.50 311.95 185.52 308.25
  C 182.89 307.28 180.22 306.95 177.50 306.29
  Q 176.01 305.93 173.79 306.26
  Q 178.56 293.80 180.68 280.50
  Q 180.92 278.99 180.56 277.58
  C 179.87 274.84 176.13 275.55 174.93 276.95
  C 172.78 279.44 172.88 283.49 172.41 286.55
  A 2.17 2.17 0.0 0 1 170.58 288.36
  C 153.80 290.73 142.94 292.69 127.94 290.66
  Q 115.98 289.05 111.78 288.32
  A 1.72 1.72 0.0 0 1 110.36 286.81
  Q 109.85 282.13 108.21 277.51
  Q 106.95 273.98 102.02 276.07
  Q 101.51 275.46 99.55 276.31
  A 0.82 0.81 -19.0 0 0 99.08 277.26
  C 100.63 283.49 101.19 290.14 102.98 296.06
  Q 105.02 302.81 108.08 308.69
  Q 103.02 308.22 97.37 309.58
  Q 96.81 309.71 92.49 311.84
  C 88.04 314.03 83.74 318.71 80.58 320.40
  A 0.63 0.63 0.0 0 0 80.31 321.24
  Q 81.68 323.93 84.45 326.83
  A 5.71 5.70 -80.5 0 1 85.44 328.22
  Q 88.94 335.11 94.38 340.91
  A 1.03 0.93 77.7 0 0 94.70 341.14
  L 96.82 342.14
  Q 97.23 342.92 97.22 343.20
  A 0.90 0.90 0.0 0 1 95.70 343.84
  Q 89.65 338.07 84.25 328.77
  Q 83.56 327.57 81.95 325.86
  Q 72.81 316.12 68.65 309.36
  C 65.98 305.01 60.73 296.62 57.93 289.65
  Q 53.17 277.84 51.91 273.62
  Q 50.37 268.48 46.79 253.78
  C 46.33 251.91 44.04 250.27 42.09 251.64
  Q 40.66 252.65 40.85 255.25
  Q 41.40 263.02 42.69 268.55
  A 0.48 0.48 0.0 0 1 41.92 269.03
  Q 34.68 263.01 28.72 254.56
  Q 21.72 244.64 20.17 241.86
  Q 17.92 237.84 15.97 231.81
  Q 11.21 217.08 10.23 202.26
  C 9.86 196.67 10.20 188.04 11.10 181.62
  Q 14.22 159.26 24.04 138.96
  Q 24.25 139.72 25.01 139.33
  Q 25.52 139.07 25.88 138.46
  C 27.63 135.50 29.25 132.64 31.47 129.84
  Q 35.33 124.97 38.85 119.86
  Q 41.68 115.77 52.56 105.99
  Q 48.91 115.98 44.76 125.78
  C 42.34 131.51 41.08 136.24 38.90 141.43
  C 36.27 147.70 33.75 156.33 31.82 162.55
  C 28.38 173.69 28.23 184.94 28.78 196.51
  C 29.06 202.25 31.74 209.38 33.44 215.53
  Q 35.04 224.00 40.52 230.64
  A 3.84 3.57 13.2 0 1 40.95 231.28
  Q 42.06 233.28 43.70 234.76
  A 1.68 1.67 -78.5 0 1 44.16 235.46
  Q 45.87 240.55 46.92 242.18
  C 49.01 245.44 52.39 247.39 55.35 249.61
  A 1.50 1.50 0.0 0 0 56.25 249.91
  Q 57.89 249.90 58.60 248.74
  L 61.63 244.52
  A 0.93 0.93 0.0 0 0 61.71 243.59
  Q 61.30 242.72 60.20 242.20
  A 1.84 1.68 -6.9 0 1 59.74 241.87
  Q 56.88 238.90 53.90 235.55
  Q 50.62 231.87 49.00 228.86
  C 46.46 224.13 43.37 220.24 41.58 215.43
  Q 36.56 201.93 36.16 188.35
  C 35.81 176.29 40.06 161.95 44.55 149.99
  Q 44.80 150.96 45.32 151.09
  Q 46.04 151.27 46.48 150.52
  Q 49.55 145.27 51.06 139.25
  Q 52.50 133.50 54.01 129.93
  C 56.70 123.60 58.67 119.84 60.40 114.31
  Q 61.84 109.70 64.44 104.47
  A 4.45 4.36 -12.0 0 1 65.03 103.58
  Q 66.40 101.94 68.35 100.17
  Q 68.98 99.59 68.46 98.99
  Q 68.31 98.82 67.70 99.00
  L 72.31 94.03
  A 2.11 2.07 -16.7 0 0 72.76 93.21
  L 73.67 89.75
  Q 74.52 88.63 74.75 86.51
  Q 81.38 85.84 85.21 81.12
  Q 95.13 75.42 104.92 73.04
  C 107.15 72.49 109.46 70.47 111.79 72.00
  C 118.23 76.22 126.20 79.07 134.83 79.79
  Q 144.65 80.60 154.12 78.83
  Z
  M 60.17 137.63
  C 61.83 141.19 67.03 144.02 70.10 144.93
  Q 78.16 147.31 85.91 149.76
  Q 88.55 150.60 89.99 150.39
  C 95.75 149.53 97.49 142.85 92.48 139.71
  Q 83.03 133.77 72.02 130.76
  Q 67.59 129.55 65.84 130.03
  C 63.40 130.69 58.68 134.42 60.17 137.63
  Z
  M 191.43 149.76
  A 1.91 1.87 74.0 0 0 192.88 150.58
  Q 197.87 150.89 202.67 149.12
  Q 209.68 146.54 216.83 144.06
  C 223.05 141.92 226.56 136.59 220.73 131.14
  A 3.31 3.31 0.0 0 0 217.89 130.30
  C 211.54 131.45 183.27 137.79 191.43 149.76
  Z
  M 254.9763 247.7616
  A 8.21 1.02 -50.1 0 0 248.9275 253.4057
  A 8.21 1.02 -50.1 0 0 244.4437 260.3584
  A 8.21 1.02 -50.1 0 0 250.4925 254.7143
  A 8.21 1.02 -50.1 0 0 254.9763 247.7616
  Z"
/>
<path fill="#a07a57" d="
  M 39.07 103.75
  Q 46.55 97.59 45.70 93.15
  Q 47.11 93.05 46.87 95.90
  Q 46.77 97.14 44.40 99.40
  Q 42.04 101.65 39.60 103.83
  Q 39.46 103.96 39.07 103.75
  Z"
/>
<path fill="#a07a57" d="
  M 233.78 96.29
  L 239.92 102.96
  Q 235.78 99.88 233.78 96.29
  Z"
/>
<path fill="#daaf88" d="
  M 67.70 99.00
  Q 68.31 98.82 68.46 98.99
  Q 68.98 99.59 68.35 100.17
  Q 66.40 101.94 65.03 103.58
  A 4.45 4.36 -12.0 0 0 64.44 104.47
  Q 61.84 109.70 60.40 114.31
  C 58.67 119.84 56.70 123.60 54.01 129.93
  Q 52.50 133.50 51.06 139.25
  Q 49.55 145.27 46.48 150.52
  Q 46.04 151.27 45.32 151.09
  Q 44.80 150.96 44.55 149.99
  Q 47.27 143.30 49.54 136.43
  Q 51.84 129.47 54.50 123.27
  C 57.51 116.20 59.77 108.97 63.44 102.04
  L 67.70 99.00
  Z"
/>
<path fill="#daaf88" d="
  M 52.56 105.99
  Q 41.68 115.77 38.85 119.86
  Q 35.33 124.97 31.47 129.84
  C 29.25 132.64 27.63 135.50 25.88 138.46
  Q 25.52 139.07 25.01 139.33
  Q 24.25 139.72 24.04 138.96
  C 31.07 126.69 38.19 117.62 46.30 108.79
  Q 49.23 105.60 53.02 102.61
  A 0.41 0.41 0.0 0 1 53.69 102.92
  Q 53.74 104.36 52.56 105.99
  Z"
/>
<path fill="#f9d884" d="
  M 261.48 150.35
  Q 260.79 151.01 260.61 150.98
  Q 259.54 150.79 259.15 149.46
  C 258.77 148.16 258.71 147.05 258.01 145.65
  C 253.26 136.08 247.45 126.24 240.30 118.46
  Q 235.41 113.14 234.60 112.18
  A 0.66 0.66 0.0 0 0 233.50 112.90
  C 234.35 114.61 234.84 116.53 235.54 118.00
  Q 241.43 130.30 246.22 144.52
  Q 246.53 145.44 246.64 146.79
  A 0.29 0.28 88.1 0 1 246.36 147.10
  L 245.99 147.10
  A 0.31 0.30 86.8 0 1 245.69 146.82
  Q 245.56 145.64 244.79 145.27
  L 228.37 104.44
  A 0.45 0.45 0.0 0 1 229.13 103.97
  C 233.30 108.76 239.02 113.93 243.06 118.92
  Q 254.62 133.20 261.48 150.35
  Z"
/>
<path fill="#daaf88" d="
  M 60.17 137.63
  C 58.68 134.42 63.40 130.69 65.84 130.03
  Q 67.59 129.55 72.02 130.76
  Q 83.03 133.77 92.48 139.71
  C 97.49 142.85 95.75 149.53 89.99 150.39
  Q 88.55 150.60 85.91 149.76
  Q 78.16 147.31 70.10 144.93
  C 67.03 144.02 61.83 141.19 60.17 137.63
  Z
  M 62.04 136.21
  Q 63.25 139.94 67.50 141.09
  Q 79.61 144.37 89.26 148.22
  A 1.82 1.76 -41.6 0 0 90.41 148.27
  Q 91.76 147.87 93.02 146.43
  C 94.75 144.46 91.91 141.23 90.31 140.19
  C 84.54 136.43 76.51 134.63 69.81 132.61
  Q 65.84 131.42 62.45 134.62
  A 1.54 1.52 59.7 0 0 62.04 136.21
  Z"
/>
<path fill="#daaf88" d="
  M 191.43 149.76
  C 183.27 137.79 211.54 131.45 217.89 130.30
  A 3.31 3.31 0.0 0 1 220.73 131.14
  C 226.56 136.59 223.05 141.92 216.83 144.06
  Q 209.68 146.54 202.67 149.12
  Q 197.87 150.89 192.88 150.58
  A 1.91 1.87 74.0 0 1 191.43 149.76
  Z
  M 194.42 148.26
  L 221.82 139.36
  A 1.95 1.95 0.0 0 0 223.07 136.90
  L 222.70 135.76
  A 6.80 5.07 -18.0 0 0 214.66 133.04
  L 196.50 138.94
  A 6.80 5.07 -18.0 0 0 191.60 145.87
  L 191.97 147.01
  A 1.95 1.95 0.0 0 0 194.42 148.26
  Z"
/>
<path fill="#552f15" d="
  M 62.04 136.21
  A 1.54 1.52 59.7 0 1 62.45 134.62
  Q 65.84 131.42 69.81 132.61
  C 76.51 134.63 84.54 136.43 90.31 140.19
  C 91.91 141.23 94.75 144.46 93.02 146.43
  Q 91.76 147.87 90.41 148.27
  A 1.82 1.76 -41.6 0 1 89.26 148.22
  Q 79.61 144.37 67.50 141.09
  Q 63.25 139.94 62.04 136.21
  Z"
/>
<path fill="#552f15" d="
  M 194.42 148.26
  A 1.95 1.95 0.0 0 1 191.97 147.01
  L 191.60 145.87
  A 6.80 5.07 -18.0 0 1 196.50 138.94
  L 214.66 133.04
  A 6.80 5.07 -18.0 0 1 222.70 135.76
  L 223.07 136.90
  A 1.95 1.95 0.0 0 1 221.82 139.36
  L 194.42 148.26
  Z"
/>
<path fill="#a07a57" d="
  M 185.72 243.76
  Q 179.18 251.72 168.86 253.26
  A 0.39 0.38 28.4 0 1 168.64 252.53
  L 176.33 249.07
  A 1.63 1.61 6.2 0 0 176.96 248.57
  L 180.41 244.08
  A 0.32 0.32 0.0 0 0 179.95 243.64
  Q 172.37 249.86 162.28 249.89
  C 163.59 247.99 161.41 244.52 159.91 243.17
  A 1.24 1.23 43.4 0 0 158.22 243.21
  Q 155.91 245.49 154.70 248.29
  A 1.12 1.12 0.0 0 0 155.42 249.81
  Q 157.90 250.54 160.70 250.29
  Q 153.25 251.65 151.05 251.14
  Q 142.51 249.16 133.75 250.68
  A 0.46 0.46 0.0 0 1 133.40 249.86
  L 139.48 245.39
  A 2.07 2.06 -52.3 0 1 141.48 245.13
  Q 147.09 247.35 152.92 246.83
  A 0.53 0.53 0.0 0 0 153.03 245.79
  L 148.57 244.47
  L 144.08 239.52
  A 0.39 0.39 0.0 0 1 144.51 238.89
  L 147.82 240.15
  A 1.06 1.03 45.9 0 0 148.48 240.17
  L 150.80 239.43
  A 1.60 1.60 0.0 0 1 151.83 239.46
  L 156.95 241.35
  A 0.42 0.41 81.5 0 0 157.42 240.71
  C 155.56 238.25 152.97 237.56 149.70 235.79
  A 1.39 1.11 31.9 0 0 148.06 235.98
  Q 147.50 236.75 146.26 236.18
  Q 143.88 235.08 143.71 231.74
  Q 143.54 228.17 143.55 209.75
  Q 143.55 205.91 142.51 193.06
  A 1.56 1.55 78.9 0 0 140.49 191.70
  L 139.63 191.97
  A 1.87 1.87 0.0 0 0 138.32 193.70
  Q 137.85 207.63 137.76 222.91
  C 137.74 226.53 136.93 229.78 137.07 233.20
  A 1.94 1.89 -32.2 0 1 136.83 234.20
  Q 135.94 235.84 134.47 236.74
  Q 129.65 239.71 124.32 241.36
  A 0.73 0.73 0.0 0 0 124.44 242.79
  Q 124.61 242.81 124.87 243.02
  A 0.96 0.91 -38.5 0 1 124.65 244.57
  Q 121.50 246.20 122.56 250.03
  C 115.20 250.55 108.35 248.27 102.72 243.51
  Q 99.88 241.11 96.79 239.00
  C 93.57 236.80 92.54 230.52 92.10 226.63
  Q 91.01 217.05 91.33 207.48
  Q 91.40 192.88 94.05 179.74
  C 95.42 172.92 98.96 166.97 104.45 162.45
  C 109.03 158.68 112.62 156.06 118.49 154.72
  Q 137.38 150.40 155.50 152.58
  Q 160.53 153.18 167.49 156.01
  Q 168.96 156.61 176.61 161.15
  C 182.14 164.43 186.60 174.44 187.85 180.38
  C 191.66 198.56 190.47 217.11 188.12 235.56
  Q 187.62 239.48 185.72 243.76
  Z
  M 155.38 187.47
  C 159.73 185.98 170.09 181.23 170.96 176.76
  C 171.43 174.30 168.91 171.49 166.15 172.12
  C 162.80 172.90 157.80 175.28 155.59 177.16
  C 152.52 179.78 150.40 184.25 154.20 187.26
  A 1.26 1.23 54.4 0 0 155.38 187.47
  Z
  M 129.24 183.76
  C 128.17 178.86 122.05 174.90 117.74 173.20
  C 114.19 171.80 111.25 172.32 110.67 176.48
  Q 110.15 180.23 113.18 182.07
  Q 117.82 184.87 121.58 186.76
  C 124.95 188.46 128.12 189.14 129.22 184.80
  A 2.34 2.29 -44.4 0 0 129.24 183.76
  Z"
/>
<path fill="#552f15" d="
  M 154.20 187.26
  C 150.40 184.25 152.52 179.78 155.59 177.16
  C 157.80 175.28 162.80 172.90 166.15 172.12
  C 168.91 171.49 171.43 174.30 170.96 176.76
  C 170.09 181.23 159.73 185.98 155.38 187.47
  A 1.26 1.23 54.4 0 1 154.20 187.26
  Z"
/>
<path fill="#552f15" d="
  M 129.22 184.80
  C 128.12 189.14 124.95 188.46 121.58 186.76
  Q 117.82 184.87 113.18 182.07
  Q 110.15 180.23 110.67 176.48
  C 111.25 172.32 114.19 171.80 117.74 173.20
  C 122.05 174.90 128.17 178.86 129.24 183.76
  A 2.34 2.29 -44.4 0 1 129.22 184.80
  Z"
/>
<path fill="#552f15" d="
  M 148.57 244.47
  Q 144.18 244.91 141.79 242.30
  A 1.29 1.29 0.0 0 0 140.07 242.13
  L 131.27 248.60
  A 6.57 6.53 25.7 0 1 127.61 249.87
  L 122.56 250.03
  Q 121.50 246.20 124.65 244.57
  A 0.96 0.91 -38.5 0 0 124.87 243.02
  Q 124.61 242.81 124.44 242.79
  A 0.73 0.73 0.0 0 1 124.32 241.36
  Q 129.65 239.71 134.47 236.74
  Q 135.94 235.84 136.83 234.20
  A 1.94 1.89 -32.2 0 0 137.07 233.20
  C 136.93 229.78 137.74 226.53 137.76 222.91
  Q 137.85 207.63 138.32 193.70
  A 1.87 1.87 0.0 0 1 139.63 191.97
  L 140.49 191.70
  A 1.56 1.55 78.9 0 1 142.51 193.06
  Q 143.55 205.91 143.55 209.75
  Q 143.54 228.17 143.71 231.74
  Q 143.88 235.08 146.26 236.18
  Q 147.50 236.75 148.06 235.98
  A 1.39 1.11 31.9 0 1 149.70 235.79
  C 152.97 237.56 155.56 238.25 157.42 240.71
  A 0.42 0.41 81.5 0 1 156.95 241.35
  L 151.83 239.46
  A 1.60 1.60 0.0 0 0 150.80 239.43
  L 148.48 240.17
  A 1.06 1.03 45.9 0 1 147.82 240.15
  L 144.51 238.89
  A 0.39 0.39 0.0 0 0 144.08 239.52
  L 148.57 244.47
  Z"
/>
<path fill="#a07a57" d="
  M 252.09 201.51
  L 249.62 210.59
  A 4.61 4.55 -37.0 0 0 249.45 211.75
  Q 249.41 214.48 249.13 215.42
  C 247.93 219.54 244.16 225.61 242.52 231.32
  Q 242.08 232.84 239.91 235.47
  L 240.20 234.09
  A 0.28 0.28 0.0 0 0 239.74 233.82
  Q 238.30 235.12 236.85 237.54
  A 1.47 1.30 86.4 0 1 236.64 237.81
  L 228.10 246.42
  A 0.48 0.47 16.9 0 0 228.53 247.22
  Q 231.43 246.64 233.68 244.21
  C 234.67 246.96 231.57 249.28 229.49 250.02
  L 224.86 247.15
  A 0.65 0.64 41.3 0 1 224.79 246.10
  Q 229.87 241.98 226.13 241.28
  Q 228.70 237.33 233.31 235.29
  A 3.44 3.40 -87.0 0 0 234.91 233.83
  Q 235.38 232.98 236.05 232.67
  A 2.53 2.51 85.5 0 0 237.45 231.02
  Q 238.13 228.49 238.94 227.46
  C 243.08 222.24 245.11 216.40 248.19 211.09
  A 4.07 4.02 -35.3 0 0 248.68 208.32
  Q 248.17 205.43 249.20 202.00
  A 0.48 0.48 0.0 0 1 250.14 202.10
  Q 250.22 202.95 250.55 203.41
  A 0.36 0.36 0.0 0 0 251.16 203.36
  L 252.09 201.51
  Z"
/>
<path fill="#a07a57" d="
  M 244.29 205.23
  Q 242.41 221.22 231.69 233.27
  A 3.03 2.83 -83.0 0 1 231.01 233.84
  Q 228.62 235.35 226.64 237.61
  L 229.68 231.19
  Q 235.58 221.81 240.82 210.53
  Q 242.06 207.86 244.29 205.23
  Z"
/>
<path fill="#b48b65" d="
  M 91.33 207.48
  Q 91.01 217.05 92.10 226.63
  C 92.54 230.52 93.57 236.80 96.79 239.00
  Q 99.88 241.11 102.72 243.51
  C 108.35 248.27 115.20 250.55 122.56 250.03
  L 127.61 249.87
  A 6.57 6.53 25.7 0 0 131.27 248.60
  L 140.07 242.13
  A 1.29 1.29 0.0 0 1 141.79 242.30
  Q 144.18 244.91 148.57 244.47
  L 153.03 245.79
  A 0.53 0.53 0.0 0 1 152.92 246.83
  Q 147.09 247.35 141.48 245.13
  A 2.07 2.06 -52.3 0 0 139.48 245.39
  L 133.40 249.86
  A 0.46 0.46 0.0 0 0 133.75 250.68
  Q 142.51 249.16 151.05 251.14
  Q 153.25 251.65 160.70 250.29
  Q 161.43 250.36 162.28 249.89
  Q 172.37 249.86 179.95 243.64
  A 0.32 0.32 0.0 0 1 180.41 244.08
  L 176.96 248.57
  A 1.63 1.61 6.2 0 1 176.33 249.07
  L 168.64 252.53
  A 0.39 0.38 28.4 0 0 168.86 253.26
  Q 179.18 251.72 185.72 243.76
  Q 185.11 250.98 178.73 254.21
  A 0.49 0.48 -65.9 0 0 179.07 255.11
  C 182.60 254.13 184.82 252.88 188.48 250.22
  Q 195.53 245.11 204.36 243.21
  A 0.35 0.34 -10.7 0 1 204.77 243.48
  Q 204.83 243.82 204.52 243.99
  Q 201.93 245.49 190.51 251.52
  Q 189.52 252.05 189.48 253.54
  A 0.48 0.48 0.0 0 0 190.00 254.03
  L 193.82 253.74
  C 188.98 255.51 183.81 257.58 179.05 258.51
  Q 173.67 259.55 168.36 260.86
  C 163.70 262.00 158.52 262.50 153.54 263.00
  Q 154.00 261.29 151.78 260.94
  Q 148.40 260.40 138.65 260.04
  Q 128.07 259.65 117.55 258.44
  Q 101.55 256.60 95.69 242.31
  Q 89.32 226.80 91.33 207.48
  Z"
/>
<path fill="#a07a57" d="
  M 58.60 248.74
  Q 57.89 249.90 56.25 249.91
  A 1.50 1.50 0.0 0 1 55.35 249.61
  C 52.39 247.39 49.01 245.44 46.92 242.18
  Q 45.87 240.55 44.16 235.46
  A 1.68 1.67 -78.5 0 0 43.70 234.76
  Q 42.06 233.28 40.95 231.28
  A 3.84 3.57 13.2 0 0 40.52 230.64
  Q 35.04 224.00 33.44 215.53
  L 37.12 218.46
  A 1.87 1.83 -81.2 0 1 37.72 219.30
  Q 40.46 227.13 45.57 235.12
  A 0.16 0.08 26.6 0 0 45.60 235.16
  L 55.92 247.31
  A 1.23 1.19 -14.7 0 0 56.67 247.73
  Q 57.15 247.82 57.61 247.70
  A 0.25 0.25 0.0 0 1 57.92 247.95
  A 0.28 0.27 -73.4 0 1 57.50 248.18
  Q 57.05 247.90 56.85 247.94
  A 0.25 0.25 0.0 0 0 56.84 248.43
  Q 57.19 248.52 58.23 247.92
  A 0.51 0.50 -35.3 0 0 58.37 247.15
  L 57.85 246.53
  A 0.42 0.41 86.3 0 1 58.39 245.91
  Q 59.92 246.92 58.60 248.74
  Z"
/>
<path fill="#b48b65" d="
  M 229.68 231.19
  L 226.64 237.61
  Q 223.44 241.45 219.92 245.18
  Q 218.26 246.93 216.42 245.77
  Q 215.20 245.00 213.48 245.54
  Q 210.36 246.52 206.72 247.70
  A 2.27 2.22 -74.7 0 0 205.90 248.18
  Q 203.45 250.36 200.31 251.25
  Q 208.95 244.71 218.08 238.85
  Q 220.85 237.07 224.90 232.24
  A 1.04 1.02 -69.1 0 1 225.71 231.87
  Q 227.80 231.91 229.68 231.19
  Z"
/>
<path fill="#552f15" d="
  M 239.91 235.47
  C 237.77 238.39 236.47 241.51 233.68 244.21
  Q 231.43 246.64 228.53 247.22
  A 0.48 0.47 16.9 0 1 228.10 246.42
  L 236.64 237.81
  A 1.47 1.30 86.4 0 0 236.85 237.54
  Q 238.30 235.12 239.74 233.82
  A 0.28 0.28 0.0 0 1 240.20 234.09
  L 239.91 235.47
  Z"
/>
<path fill="#b48b65" d="
  M 226.13 241.28
  Q 229.87 241.98 224.79 246.10
  A 0.65 0.64 41.3 0 0 224.86 247.15
  L 229.49 250.02
  Q 225.46 251.98 222.86 255.43
  A 0.62 0.62 0.0 0 1 221.75 255.06
  L 221.75 252.39
  A 0.72 0.72 0.0 0 0 220.57 251.84
  Q 214.66 256.84 208.34 257.57
  Q 216.15 253.99 221.86 248.12
  Q 222.70 247.25 222.25 246.13
  Q 222.18 245.95 221.43 246.24
  L 226.13 241.28
  Z"
/>
<path fill="#552f15" d="
  M 162.28 249.89
  Q 161.43 250.36 160.70 250.29
  Q 157.90 250.54 155.42 249.81
  A 1.12 1.12 0.0 0 1 154.70 248.29
  Q 155.91 245.49 158.22 243.21
  A 1.24 1.23 43.4 0 1 159.91 243.17
  C 161.41 244.52 163.59 247.99 162.28 249.89
  Z"
/>
<path fill="#daaf88" d="
  M 221.43 246.24
  Q 222.18 245.95 222.25 246.13
  Q 222.70 247.25 221.86 248.12
  Q 216.15 253.99 208.34 257.57
  Q 202.77 260.39 196.92 263.20
  Q 191.02 266.02 185.06 267.70
  Q 170.66 271.75 166.03 272.37
  Q 152.12 274.24 134.17 273.84
  Q 126.97 273.68 119.91 272.33
  C 111.80 270.78 98.64 269.07 88.60 264.91
  Q 76.04 259.71 67.08 255.10
  Q 63.52 253.26 61.72 249.65
  A 0.54 0.54 0.0 0 1 62.52 248.97
  L 69.45 253.98
  Q 71.28 255.10 73.11 255.87
  Q 90.24 263.08 98.46 265.04
  C 103.99 266.36 107.49 267.07 111.33 268.21
  Q 113.85 268.95 117.19 269.37
  Q 137.44 271.95 152.68 270.77
  Q 156.82 270.45 158.27 270.22
  Q 161.05 269.79 163.37 269.87
  A 2.10 1.99 -55.6 0 0 164.35 269.66
  Q 165.57 269.05 174.61 267.30
  Q 178.76 266.50 189.21 262.83
  A 3.91 3.82 34.9 0 1 190.47 262.62
  L 191.81 262.62
  A 2.16 2.07 -55.7 0 0 192.66 262.44
  Q 201.22 258.62 210.02 254.51
  Q 214.90 252.24 221.43 246.24
  Z"
/>
<ellipse fill="#a07a57" cx="0.00" cy="0.00" transform="translate(249.71,254.06) rotate(-50.1)" rx="8.21" ry="1.02"/>
<path fill="#a07a57" d="
  M 42.94 293.89
  Q 41.46 299.04 44.58 303.53
  A 0.55 0.55 0.0 0 1 43.75 304.25
  Q 38.43 299.24 36.90 291.85
  Q 35.08 283.07 34.66 274.46
  A 0.90 0.87 32.6 0 0 34.59 274.17
  L 33.48 271.60
  A 0.35 0.35 0.0 0 1 34.05 271.21
  Q 37.11 274.20 42.68 278.30
  Q 45.51 280.38 46.95 283.81
  Q 49.36 289.56 50.47 291.78
  A 4.94 4.74 -65.7 0 1 50.81 292.74
  L 51.11 294.09
  A 6.25 6.24 22.8 0 0 51.89 296.00
  Q 54.68 300.47 55.22 301.24
  Q 57.05 303.89 56.52 306.63
  A 1.52 1.52 0.0 0 1 54.49 307.76
  Q 50.75 306.36 49.80 302.44
  Q 48.59 297.42 48.02 292.74
  A 1.34 1.34 0.0 0 0 46.55 291.57
  Q 44.66 291.78 43.45 293.01
  A 2.20 2.19 -15.1 0 0 42.94 293.89
  Z"
/>
<path fill="#b48b65" d="
  M 237.95 304.69
  A 0.39 0.39 0.0 0 1 237.38 304.17
  Q 241.51 298.31 238.97 291.50
  A 1.02 1.01 -15.8 0 0 237.82 290.86
  Q 236.45 291.14 235.52 293.04
  A 1.23 1.04 -30.8 0 0 235.40 293.39
  C 234.42 297.93 232.72 307.46 226.98 307.18
  A 0.65 0.65 0.0 0 1 226.50 306.13
  Q 227.98 304.22 229.16 303.29
  C 231.48 301.48 230.45 299.91 231.10 297.65
  Q 233.48 289.30 236.36 282.11
  Q 237.21 279.99 238.43 278.55
  A 0.85 0.67 -4.8 0 1 238.60 278.39
  L 246.71 272.46
  A 0.42 0.42 0.0 0 1 247.36 272.91
  L 246.36 276.62
  A 1.73 1.58 -42.4 0 0 246.31 277.16
  C 246.84 286.49 245.75 297.97 237.95 304.69
  Z"
/>
<path fill="#daaf88" d="
  M 102.02 276.07
  Q 102.53 290.56 108.58 304.27
  Q 113.31 314.98 118.88 323.62
  Q 120.11 325.53 118.85 327.33
  A 2.22 2.10 29.4 0 1 116.17 328.00
  Q 112.50 326.36 111.77 326.07
  A 1.18 1.17 -64.7 0 0 110.32 326.59
  C 108.23 330.35 108.99 334.21 109.49 339.33
  A 1.42 1.42 0.0 0 1 108.12 340.89
  Q 106.50 340.95 104.88 339.36
  Q 102.50 337.04 99.86 335.39
  Q 99.01 335.13 98.85 335.00
  A 0.55 0.55 0.0 0 1 99.48 334.11
  L 106.87 338.23
  A 0.71 0.71 0.0 0 0 107.89 337.39
  L 105.27 329.09
  A 0.45 0.45 0.0 0 1 105.43 328.60
  L 112.66 323.29
  A 0.18 0.18 0.0 0 0 112.70 323.05
  Q 110.93 320.51 110.12 318.41
  A 0.16 0.16 0.0 0 1 110.40 318.26
  L 115.85 325.67
  A 1.10 1.09 70.4 0 0 116.79 326.12
  L 117.10 326.10
  A 0.78 0.75 -17.3 0 0 117.72 324.96
  L 108.08 308.69
  Q 105.02 302.81 102.98 296.06
  C 101.19 290.14 100.63 283.49 99.08 277.26
  A 0.82 0.81 -19.0 0 1 99.55 276.31
  Q 101.51 275.46 102.02 276.07
  Z"
/>
<path fill="#daaf88" d="
  M 220.79 298.49
  Q 215.91 306.21 211.02 314.01
  Q 208.48 318.07 204.13 322.47
  A 14.47 14.07 -6.0 0 0 202.69 324.20
  L 195.60 334.30
  Q 195.00 334.46 194.68 334.71
  A 0.38 0.38 0.0 0 1 194.12 334.23
  Q 198.24 326.79 204.15 320.70
  Q 206.81 317.16 209.28 313.64
  C 213.20 308.04 215.84 302.57 219.53 297.09
  A 0.87 0.87 0.0 0 1 220.63 296.79
  Q 221.16 297.06 220.79 298.49
  Z"
/>
<path fill="#a07a57" d="
  M 173.79 306.26
  Q 176.01 305.93 177.50 306.29
  C 180.22 306.95 182.89 307.28 185.52 308.25
  Q 195.50 311.95 203.42 318.82
  Q 203.87 319.21 204.15 320.70
  Q 198.24 326.79 194.12 334.23
  A 0.38 0.38 0.0 0 0 194.68 334.71
  Q 195.00 334.46 195.60 334.30
  L 188.33 343.76
  A 0.98 0.97 -26.5 0 1 186.58 343.18
  Q 186.57 342.35 187.23 341.11
  A 1.84 1.83 -33.2 0 0 187.44 340.11
  C 186.78 331.70 180.91 338.18 178.30 340.57
  Q 177.65 341.16 177.42 341.14
  A 2.63 2.58 4.2 0 1 175.10 338.50
  C 175.19 335.22 175.54 331.31 174.69 327.94
  A 1.08 1.08 0.0 0 0 174.06 327.20
  C 171.89 326.26 170.06 326.89 167.90 327.86
  C 164.24 329.49 163.32 325.26 164.83 322.84
  Q 170.02 314.56 173.79 306.26
  Z"
/>
<path fill="#a07a57" d="
  M 108.08 308.69
  L 117.72 324.96
  A 0.78 0.75 -17.3 0 1 117.10 326.10
  L 116.79 326.12
  A 1.10 1.09 70.4 0 1 115.85 325.67
  L 110.40 318.26
  A 0.16 0.16 0.0 0 0 110.12 318.41
  Q 110.93 320.51 112.70 323.05
  A 0.18 0.18 0.0 0 1 112.66 323.29
  L 105.43 328.60
  A 0.45 0.45 0.0 0 0 105.27 329.09
  L 107.89 337.39
  A 0.71 0.71 0.0 0 1 106.87 338.23
  L 99.48 334.11
  A 0.55 0.55 0.0 0 0 98.85 335.00
  Q 99.01 335.13 99.86 335.39
  C 96.35 335.33 95.99 339.90 96.82 342.14
  L 94.70 341.14
  A 1.03 0.93 77.7 0 1 94.38 340.91
  Q 88.94 335.11 85.44 328.22
  A 5.71 5.70 -80.5 0 0 84.45 326.83
  Q 81.68 323.93 80.31 321.24
  A 0.63 0.63 0.0 0 1 80.58 320.40
  C 83.74 318.71 88.04 314.03 92.49 311.84
  Q 96.81 309.71 97.37 309.58
  Q 103.02 308.22 108.08 308.69
  Z"
/>
<ellipse fill="#a07a57" cx="0.00" cy="0.00" transform="translate(101.82,339.51) rotate(-142.4)" rx="2.57" ry="0.44"/>
</svg>
