<?xml version="1.0" encoding="UTF-8" standalone="no"?>
<!DOCTYPE svg PUBLIC "-//W3C//DTD SVG 1.1//EN" "http://www.w3.org/Graphics/SVG/1.1/DTD/svg11.dtd">
<svg xmlns="http://www.w3.org/2000/svg" version="1.1" viewBox="0.00 0.00 280.00 471.00">
<g stroke-width="2.00" fill="none" stroke-linecap="butt">
<path stroke="#a5814c" vector-effect="non-scaling-stroke" d="
  M 107.89 62.42
  Q 109.12 56.72 113.15 52.04
  A 0.75 0.75 0.0 0 1 114.41 52.24
  Q 114.76 53.09 114.50 53.75
  Q 113.08 57.29 111.29 64.25
  A 2.76 2.74 33.8 0 0 111.76 66.59
  Q 116.25 72.55 123.66 74.59
  C 137.09 78.29 151.79 77.97 163.79 70.73
  Q 164.88 70.07 167.93 65.81
  A 1.76 1.73 -29.9 0 0 168.25 64.66
  C 167.95 60.91 165.70 56.12 165.33 53.80
  Q 165.18 52.84 166.05 51.51
  A 0.41 0.41 0.0 0 1 166.73 51.50
  Q 171.21 57.86 171.51 62.65
  A 1.12 1.11 -32.0 0 0 173.59 63.13
  L 175.67 59.53
  A 6.42 6.39 -38.7 0 0 176.24 54.43
  Q 174.49 48.86 171.20 44.82
  C 167.20 39.92 165.57 37.01 164.70 31.97
  Q 163.81 26.79 163.09 25.06
  C 158.02 12.98 147.63 6.59 134.72 9.23
  Q 122.04 11.82 116.82 24.34
  C 114.36 30.26 115.03 36.58 111.02 41.54
  Q 107.26 46.18 105.48 50.15
  Q 102.44 56.96 106.72 62.67
  A 0.66 0.65 32.7 0 0 107.89 62.42"
/>
<path stroke="#8f6441" vector-effect="non-scaling-stroke" d="
  M 195.74 83.82
  Q 193.40 83.27 192.80 82.96
  Q 184.30 78.57 176.75 75.76
  Q 175.10 75.15 169.98 74.91
  A 5.00 4.91 -60.3 0 0 166.95 75.77
  C 158.92 81.24 147.31 82.90 137.99 82.52
  C 128.85 82.14 120.21 81.24 112.68 75.77
  A 5.05 5.00 -32.7 0 0 108.71 74.92
  L 102.83 76.14
  A 3.96 3.77 -62.4 0 0 101.83 76.48
  Q 96.79 79.03 91.39 80.30
  A 7.07 6.95 21.7 0 0 89.30 81.18
  Q 85.87 83.35 82.23 84.16"
/>
<path stroke="#7a5335" vector-effect="non-scaling-stroke" d="
  M 82.23 84.16
  Q 80.16 76.32 75.25 70.02
  Q 69.43 62.58 59.95 63.39
  A 4.25 4.10 -59.5 0 0 58.55 63.78
  Q 52.00 66.98 49.64 74.03
  C 48.60 77.15 48.50 82.39 49.19 85.27
  Q 51.85 96.35 60.85 103.01
  A 1.10 1.03 9.3 0 1 61.22 103.49
  Q 61.28 103.63 61.32 103.80"
/>
<path stroke="#8f6441" vector-effect="non-scaling-stroke" d="
  M 61.32 103.80
  C 58.98 109.76 54.95 116.57 53.13 120.95
  C 51.00 126.05 49.07 129.60 47.03 134.96
  Q 39.73 154.17 38.53 157.78
  Q 33.08 174.24 33.57 193.48
  C 33.71 199.23 35.41 206.08 35.83 211.74
  Q 36.21 216.74 33.95 221.70
  Q 23.52 244.63 16.16 269.06
  Q 11.64 284.09 10.73 296.02
  C 9.67 310.00 9.97 324.59 13.41 337.85"
/>
<path stroke="#987052" vector-effect="non-scaling-stroke" d="
  M 13.41 337.85
  Q 16.57 348.46 17.68 351.30
  Q 21.94 362.27 34.58 378.15
  Q 35.93 379.85 34.91 381.76
  A 1.12 1.11 8.6 0 1 34.14 382.32
  C 30.49 382.97 27.83 380.89 25.72 378.00
  A 0.41 0.41 0.0 0 0 25.02 378.05
  Q 22.38 383.03 21.71 384.45
  C 14.62 399.46 16.65 417.66 26.19 430.91
  C 27.98 433.38 30.54 435.65 32.76 438.02"
/>
<path stroke="#8f6441" vector-effect="non-scaling-stroke" d="
  M 32.76 438.02
  Q 33.60 439.82 32.73 441.00
  Q 30.34 444.29 24.10 450.11
  Q 23.63 450.54 21.21 454.32
  A 1.79 1.79 0.0 0 0 20.92 455.33
  Q 20.96 456.93 22.36 458.72
  A 0.29 0.29 0.0 0 0 22.88 458.54
  L 22.88 455.78
  A 1.28 1.26 59.5 0 1 23.03 455.18
  Q 25.56 450.35 30.33 447.35"
/>
<path stroke="#7a5335" vector-effect="non-scaling-stroke" d="
  M 30.33 447.35
  C 31.88 446.90 34.67 447.82 33.97 449.96
  Q 32.44 454.64 29.98 457.60
  A 1.72 1.71 19.9 0 0 31.30 460.41
  L 33.08 460.41
  A 3.61 3.59 10.3 0 0 36.45 458.10
  C 37.71 454.79 40.87 449.99 44.64 448.76
  A 1.36 1.36 0.0 0 1 46.37 449.71
  Q 47.07 452.34 46.18 454.48
  C 45.81 455.38 43.82 456.71 43.04 457.99"
/>
<path stroke="#8f6441" vector-effect="non-scaling-stroke" d="
  M 43.04 457.99
  Q 42.42 459.29 43.49 459.69
  Q 44.27 459.97 47.24 459.96
  Q 58.55 459.93 68.99 457.17
  C 70.59 456.75 72.95 455.70 74.01 455.20
  C 76.95 453.82 77.00 451.69 77.63 448.69
  Q 77.90 447.42 77.95 445.80
  Q 78.15 439.38 78.70 433.03"
/>
<path stroke="#987052" vector-effect="non-scaling-stroke" d="
  M 78.70 433.03
  Q 81.58 425.00 87.82 419.33
  A 0.63 0.63 0.0 0 0 87.56 418.25
  C 84.80 417.50 78.35 414.56 76.90 412.12
  A 1.39 1.39 0.0 0 1 76.76 411.02
  C 77.38 408.89 78.34 407.13 80.81 408.08
  Q 98.89 415.05 116.37 417.63
  C 127.98 419.34 140.72 418.96 151.75 418.41
  Q 165.89 417.71 181.50 413.37
  Q 188.73 411.36 196.10 409.09"
/>
<path stroke="#8f6441" vector-effect="non-scaling-stroke" d="
  M 196.10 409.09
  Q 198.06 408.42 199.57 407.86
  A 2.79 2.46 68.2 0 1 202.81 409.50
  Q 203.42 410.94 202.03 412.05
  Q 197.92 415.36 192.17 417.99
  A 0.85 0.85 0.0 0 0 191.94 419.39
  Q 198.83 425.75 200.99 434.73
  C 201.76 437.93 201.77 442.14 202.12 445.95"
/>
<path stroke="#7a5335" vector-effect="non-scaling-stroke" d="
  M 202.12 445.95
  Q 201.88 449.22 203.33 453.32
  A 2.31 2.28 -78.8 0 0 203.93 454.23
  Q 206.92 456.99 212.18 457.89
  Q 224.76 460.04 236.19 459.87
  A 0.79 0.79 0.0 0 0 236.70 458.48
  C 234.07 456.19 231.22 453.46 233.28 449.66
  A 1.58 1.57 24.9 0 1 235.24 448.95
  C 239.49 450.61 241.65 453.80 243.42 458.05
  A 3.49 3.47 78.5 0 0 246.62 460.18
  L 248.44 460.18
  A 1.68 1.68 0.0 0 0 249.87 457.62
  Q 247.98 454.57 246.26 451.57
  C 244.76 448.95 247.98 446.76 250.19 446.78"
/>
<path stroke="#8f6441" vector-effect="non-scaling-stroke" d="
  M 250.19 446.78
  C 253.24 450.04 257.04 453.35 258.56 457.40
  A 0.67 0.67 0.0 0 0 259.85 457.18
  C 259.97 453.10 254.44 447.85 251.21 445.13
  Q 249.19 443.43 248.33 441.92
  Q 247.00 439.60 247.44 437.78"
/>
<path stroke="#987052" vector-effect="non-scaling-stroke" d="
  M 247.44 437.78
  C 261.31 424.76 265.35 406.98 260.22 388.95
  C 259.03 384.77 256.75 381.55 254.15 378.37
  A 0.59 0.59 0.0 0 0 253.14 378.56
  Q 252.16 381.50 248.99 383.55
  C 246.12 385.40 242.90 381.67 244.81 379.61
  Q 250.73 373.24 256.21 363.69
  C 266.29 346.16 270.01 324.87 269.13 304.89
  Q 268.45 289.36 265.70 277.78
  Q 262.83 265.70 257.18 249.14
  C 255.36 243.81 252.55 239.10 250.90 234.00
  C 249.37 229.27 245.68 223.07 244.18 218.81
  Q 242.72 214.66 243.06 212.26
  C 244.92 199.27 246.51 189.22 245.34 177.94
  C 244.33 168.32 241.70 157.59 237.65 147.13
  Q 229.43 125.96 219.34 107.14
  Q 218.70 105.96 217.83 103.15"
/>
<path stroke="#7a5335" vector-effect="non-scaling-stroke" d="
  M 217.83 103.15
  Q 218.73 102.29 220.30 101.60
  A 2.50 2.34 10.1 0 0 221.01 101.14
  C 229.61 93.13 234.19 80.11 228.14 69.45
  Q 225.53 64.85 220.10 62.82
  A 2.96 2.90 52.5 0 0 218.91 62.65
  C 210.80 63.17 203.64 69.03 200.83 76.35
  C 199.75 79.16 198.59 80.64 197.32 83.15
  A 1.05 1.03 8.9 0 1 196.55 83.70
  L 195.74 83.82"
/>
<path stroke="#be9674" vector-effect="non-scaling-stroke" d="
  M 217.83 103.15
  L 216.46 101.75"
/>
<path stroke="#b68a63" vector-effect="non-scaling-stroke" d="
  M 216.46 101.75
  Q 211.91 97.34 209.18 92.89"
/>
<path stroke="#7a5335" vector-effect="non-scaling-stroke" d="
  M 209.18 92.89
  Q 212.47 87.48 214.34 81.51"
/>
<path stroke="#b68a63" vector-effect="non-scaling-stroke" d="
  M 214.34 81.51
  Q 216.73 81.13 218.24 78.46
  A 1.01 0.97 3.0 0 1 218.74 78.03
  L 223.10 76.31
  A 0.89 0.88 77.9 0 0 223.66 75.43
  L 223.48 72.65
  A 1.01 0.94 -64.0 0 0 223.33 72.16
  C 221.82 69.60 218.31 65.89 215.07 67.88
  C 212.82 69.25 207.96 72.84 206.77 75.92
  Q 204.20 82.57 204.07 88.15
  A 1.11 1.10 18.0 0 1 202.34 89.03
  Q 200.09 87.48 197.87 84.96
  C 197.30 84.31 196.55 84.03 195.74 83.82"
/>
<path stroke="#8f6441" vector-effect="non-scaling-stroke" d="
  M 214.34 81.51
  Q 216.44 76.31 220.85 75.58
  A 1.53 1.53 0.0 0 0 221.98 73.42
  Q 220.53 70.34 218.03 69.42
  A 1.89 1.89 0.0 0 0 216.45 69.55
  C 211.46 72.35 207.28 78.84 206.03 83.54
  C 204.82 88.11 204.69 90.32 209.18 92.89"
/>
<path stroke="#d4a77f" vector-effect="non-scaling-stroke" d="
  M 216.46 101.75
  Q 214.98 102.05 215.80 103.92
  Q 218.68 110.47 224.10 119.69
  Q 225.05 121.30 227.89 129.21
  A 6.98 6.71 20.7 0 0 228.51 130.51
  C 231.78 135.76 233.66 142.43 235.14 148.64
  C 235.71 151.01 237.06 153.03 237.66 155.33
  Q 239.65 162.91 241.76 170.51
  C 243.25 175.85 244.30 182.13 243.96 187.51
  C 243.64 192.62 243.54 197.33 242.38 202.04
  C 241.21 206.73 240.16 212.22 241.52 216.69
  C 243.64 223.64 246.65 228.95 249.03 235.49
  Q 252.17 244.13 256.85 254.41
  C 258.79 258.69 259.46 263.23 261.03 268.04
  Q 263.83 276.61 264.58 281.56
  Q 265.27 286.11 265.52 287.26
  Q 266.20 290.43 266.45 292.98
  Q 268.60 315.20 264.05 337.46
  Q 259.43 360.06 244.46 377.22
  Q 243.23 378.64 242.99 380.92
  Q 242.53 385.26 247.69 385.85
  A 1.33 1.27 31.8 0 0 248.50 385.68
  L 252.56 383.34
  A 1.68 1.68 0.0 0 1 254.42 383.46
  C 258.80 386.82 258.76 391.12 259.93 395.01
  C 261.03 398.66 261.18 404.67 260.76 407.42
  Q 260.64 408.22 258.28 419.20
  A 6.51 6.34 -25.1 0 1 257.62 420.95
  Q 252.95 429.42 246.19 436.51
  A 0.64 0.63 -54.3 0 0 246.35 437.51
  Q 246.73 437.70 247.44 437.78"
/>
<path stroke="#b68a63" vector-effect="non-scaling-stroke" d="
  M 250.19 446.78
  L 246.22 439.63
  A 2.69 2.69 0.0 0 0 243.74 438.25
  Q 236.09 438.63 228.28 439.06
  Q 218.90 439.58 209.16 441.47
  Q 204.77 442.31 202.12 445.95"
/>
<path stroke="#d4a77f" vector-effect="non-scaling-stroke" d="
  M 196.10 409.09
  Q 197.03 407.28 193.27 408.56
  Q 190.66 409.44 178.78 412.06
  C 177.35 412.37 175.78 413.17 174.63 413.38
  Q 162.02 415.68 149.42 416.15
  A 9.83 9.41 -50.6 0 0 147.85 416.34
  Q 145.28 416.88 144.25 416.89
  Q 129.17 417.11 119.38 415.80
  Q 112.14 414.83 96.21 411.37
  C 91.32 410.30 85.88 408.06 80.30 406.51
  Q 78.68 406.06 77.30 406.83
  A 1.78 1.75 -0.9 0 0 76.62 407.52
  Q 74.34 411.72 77.68 414.54
  C 79.64 416.21 81.34 417.41 83.68 418.52
  A 1.38 1.38 0.0 0 1 84.15 420.65
  Q 79.98 425.71 77.70 431.61
  A 1.13 1.10 -44.2 0 0 77.68 432.35
  Q 78.00 433.30 78.70 433.03"
/>
<path stroke="#b68a63" vector-effect="non-scaling-stroke" d="
  M 43.04 457.99
  Q 57.44 459.00 69.89 454.71
  Q 79.29 451.48 75.49 442.14
  A 0.85 0.84 81.9 0 0 74.79 441.61
  Q 66.37 440.69 63.04 440.12
  C 54.08 438.58 45.22 439.13 37.17 438.24
  Q 36.09 438.12 35.01 438.71
  Q 33.82 439.37 33.52 440.30
  C 32.78 442.64 31.24 444.96 30.33 447.35"
/>
<path stroke="#d4a77f" vector-effect="non-scaling-stroke" d="
  M 32.76 438.02
  L 34.08 438.12
  A 0.99 0.99 0.0 0 0 34.71 436.31
  C 29.56 432.80 24.33 426.82 22.29 420.50
  Q 20.01 413.40 19.83 410.14
  Q 19.81 409.67 19.73 401.57
  Q 19.69 397.34 20.69 393.06
  Q 22.39 385.76 24.89 381.87
  A 1.03 1.02 30.3 0 1 26.25 381.52
  L 30.29 383.71
  A 1.21 1.21 0.0 0 0 30.74 383.86
  Q 35.54 384.58 36.30 379.98
  A 2.14 2.08 41.9 0 0 36.23 378.97
  Q 35.95 378.07 33.17 374.63
  Q 31.79 372.93 26.64 364.74
  Q 23.04 359.02 21.13 354.27
  Q 17.47 345.15 15.43 337.43
  A 0.63 0.61 88.1 0 0 14.97 336.98
  Q 14.11 336.79 13.41 337.85"
/>
<path stroke="#8f6441" vector-effect="non-scaling-stroke" d="
  M 70.69 92.81
  L 74.88 89.41"
/>
<path stroke="#b68a63" vector-effect="non-scaling-stroke" d="
  M 82.23 84.16
  Q 78.92 87.47 74.88 89.41"
/>
<path stroke="#7a5335" vector-effect="non-scaling-stroke" d="
  M 74.88 89.41
  L 70.36 77.98
  A 6.84 6.78 -78.5 0 0 68.84 75.66
  L 64.06 70.88
  A 3.32 3.32 0.0 0 0 59.37 70.88
  L 58.47 71.79
  A 1.83 1.83 0.0 0 0 59.03 74.77
  Q 64.63 77.22 66.29 83.98
  Q 67.80 90.12 70.69 92.81"
/>
<path stroke="#b68a63" vector-effect="non-scaling-stroke" d="
  M 70.69 92.81
  Q 67.66 97.82 62.10 102.38
  A 1.73 1.67 -10.3 0 0 61.57 103.12
  L 61.32 103.80"
/>
<path stroke="#a5814c" vector-effect="non-scaling-stroke" d="
  M 123.03 25.06
  L 122.11 29.94
  A 1.32 1.32 0.0 0 0 123.16 31.48
  L 123.89 31.62
  A 3.86 3.67 10.7 0 0 128.36 28.73
  L 128.41 28.47
  A 3.86 3.67 10.7 0 0 125.30 24.15
  L 124.57 24.01
  A 1.32 1.32 0.0 0 0 123.03 25.06"
/>
<path stroke="#a5814c" vector-effect="non-scaling-stroke" d="
  M 153.6203 24.7023
  A 3.88 3.05 -97.4 0 0 151.0954 28.9428
  A 3.88 3.05 -97.4 0 0 154.6197 32.3977
  A 3.88 3.05 -97.4 0 0 157.1446 28.1572
  A 3.88 3.05 -97.4 0 0 153.6203 24.7023"
/>
<path stroke="#a5814c" vector-effect="non-scaling-stroke" d="
  M 140.61 42.07
  Q 142.25 41.99 144.60 41.32
  C 155.49 38.19 146.03 29.08 140.01 29.37
  C 133.99 29.65 125.44 39.61 136.57 41.70
  Q 138.98 42.15 140.61 42.07"
/>
<path stroke="#8f6441" vector-effect="non-scaling-stroke" d="
  M 136.3196 34.6659
  A 4.21 2.59 -171.2 0 0 140.0838 37.8695
  A 4.21 2.59 -171.2 0 0 144.6404 35.9541
  A 4.21 2.59 -171.2 0 0 140.8762 32.7505
  A 4.21 2.59 -171.2 0 0 136.3196 34.6659"
/>
<path stroke="#8f6441" vector-effect="non-scaling-stroke" d="
  M 93.65 129.89
  Q 95.51 130.02 95.94 128.72
  Q 96.82 126.06 97.18 125.37"
/>
<path stroke="#d4a77f" vector-effect="non-scaling-stroke" d="
  M 97.18 125.37
  Q 99.63 125.15 96.27 121.24
  Q 94.01 118.61 90.98 116.51
  A 7.94 6.70 79.6 0 1 90.14 115.82
  Q 85.00 110.87 79.44 106.76
  C 75.98 104.20 74.39 110.78 74.00 112.78
  A 3.16 3.13 27.9 0 0 74.90 115.66
  L 86.20 126.66
  Q 86.22 126.68 86.24 126.70
  Q 89.54 129.13 92.95 131.79
  A 1.05 0.99 7.8 0 0 94.56 130.64
  Q 94.38 130.28 93.65 129.89"
/>
<path stroke="#987052" vector-effect="non-scaling-stroke" d="
  M 97.18 125.37
  Q 90.60 118.09 83.01 111.22
  Q 81.68 110.01 79.22 108.57
  A 1.90 1.90 0.0 0 0 76.54 109.41
  Q 74.70 113.36 77.47 115.77
  Q 77.87 116.12 90.91 128.10
  Q 92.16 129.24 93.65 129.89"
/>
<path stroke="#8f6441" vector-effect="non-scaling-stroke" d="
  M 200.92 108.94
  Q 196.16 111.70 192.57 115.93
  C 190.58 118.28 187.37 120.90 185.58 122.45
  C 183.11 124.58 181.23 127.14 184.43 129.55
  A 1.73 1.73 0.0 0 0 186.43 129.61
  C 191.95 125.89 194.84 122.44 201.16 115.85
  Q 202.70 114.24 202.91 113.35
  C 203.21 112.00 203.53 109.18 201.68 108.69
  Q 201.46 108.63 200.92 108.94"
/>
<path stroke="#8f6441" vector-effect="non-scaling-stroke" d="
  M 77.28 139.92
  C 71.84 139.90 67.42 141.99 60.35 144.52
  A 2.60 2.60 0.0 0 0 58.81 147.95
  L 58.90 148.17
  A 3.42 3.41 -19.5 0 0 63.05 150.15
  C 69.52 148.58 76.70 146.20 83.82 145.46
  Q 87.25 145.11 88.40 144.32
  C 90.43 142.92 92.37 139.69 90.17 137.54
  Q 88.92 136.32 87.10 135.17
  Q 76.15 128.26 63.48 122.14
  A 2.13 2.12 -50.4 0 0 61.30 122.35
  Q 60.54 122.93 59.43 125.62
  C 58.81 127.13 60.97 128.81 62.04 129.45
  Q 69.10 133.68 77.60 138.15
  Q 78.11 138.42 78.05 139.20
  A 0.77 0.76 -87.6 0 1 77.28 139.92"
/>
<path stroke="#8f6441" vector-effect="non-scaling-stroke" d="
  M 201.97 139.29
  A 0.53 0.53 0.0 0 1 201.83 138.31
  L 218.60 129.11
  A 3.87 3.86 -27.5 0 0 220.21 124.01
  L 220.17 123.93
  A 3.60 3.59 -27.0 0 0 215.26 122.34
  C 207.46 126.47 197.60 131.48 190.50 137.48
  C 186.96 140.47 190.25 144.26 193.66 144.83
  Q 206.33 146.92 209.41 147.93
  Q 213.75 149.35 217.04 149.93
  C 219.94 150.44 222.36 148.46 220.80 145.44
  A 1.87 1.84 -89.6 0 0 220.05 144.67
  C 214.35 141.53 209.42 140.88 201.97 139.29"
/>
<path stroke="#b68a63" vector-effect="non-scaling-stroke" d="
  M 125.22 128.33
  Q 113.79 129.80 104.37 137.40
  C 100.89 140.20 97.59 144.79 96.05 148.56
  C 94.42 152.56 92.44 156.96 91.31 161.01
  Q 89.52 167.46 88.57 177.11
  C 87.76 185.30 88.35 191.66 88.69 201.75
  Q 89.01 211.38 91.68 218.42
  Q 94.53 225.93 102.63 235.36
  C 107.25 240.73 115.98 243.98 122.93 244.53
  Q 127.14 244.86 132.94 245.51
  Q 141.81 246.49 157.26 244.64
  C 167.63 243.40 176.27 238.48 182.03 230.05
  Q 185.29 225.28 186.54 221.59
  Q 190.00 211.43 190.37 208.84
  Q 192.73 192.07 191.17 176.04
  Q 189.56 159.52 181.74 144.99
  A 4.32 3.76 14.5 0 0 181.26 144.29
  L 174.52 136.25
  A 2.79 2.73 -3.4 0 0 173.84 135.66
  C 168.07 132.09 162.96 129.32 155.53 128.50
  Q 138.51 126.61 125.22 128.33"
/>
<path stroke="#d4a77f" vector-effect="non-scaling-stroke" d="
  M 78.06 291.28
  Q 77.07 291.69 77.27 293.02
  A 1.65 1.64 19.0 0 0 77.70 293.89
  C 82.77 299.16 88.07 300.76 95.50 302.81
  Q 97.00 303.22 97.91 302.49"
/>
<path stroke="#b68a63" vector-effect="non-scaling-stroke" d="
  M 97.91 302.49
  Q 98.13 303.06 97.10 303.54
  A 0.50 0.50 0.0 0 0 96.83 304.13
  L 97.44 306.32
  A 2.07 2.04 41.4 0 1 97.50 307.17
  Q 97.12 310.24 97.88 314.05
  C 98.91 319.23 99.04 322.33 100.17 326.90
  A 7.70 7.54 -66.6 0 0 100.85 328.67
  L 103.72 333.95"
/>
<path stroke="#d4a77f" vector-effect="non-scaling-stroke" d="
  M 103.72 333.95
  Q 100.40 336.70 94.66 337.24
  Q 82.59 338.39 73.39 336.34
  Q 64.14 334.29 57.19 329.10
  Q 50.05 323.76 45.21 315.93
  Q 44.18 314.27 40.72 313.22"
/>
<path stroke="#8f6441" vector-effect="non-scaling-stroke" d="
  M 40.72 313.22
  Q 37.56 306.75 35.58 299.66
  A 2.03 2.03 0.0 0 0 33.11 298.25
  Q 31.35 298.72 30.30 301.62"
/>
<path stroke="#d4a77f" vector-effect="non-scaling-stroke" d="
  M 30.30 301.62
  Q 29.79 300.47 29.26 300.74
  Q 28.33 301.20 28.41 302.38
  Q 28.97 310.09 31.09 316.15
  A 10.50 10.12 -72.1 0 0 32.21 318.44
  Q 32.22 318.46 36.57 325.42
  C 40.81 332.22 48.00 337.07 55.11 341.16
  Q 59.71 343.80 72.28 348.07
  Q 77.30 349.77 82.08 350.07
  C 87.17 350.39 93.13 350.89 98.58 349.56
  Q 100.59 349.07 104.97 348.12
  Q 111.02 346.81 116.53 344.36
  Q 119.89 342.86 124.01 341.93
  C 128.43 340.94 135.38 338.11 139.05 334.41
  A 1.06 1.06 0.0 0 1 140.52 334.38
  C 146.12 339.62 153.45 340.69 160.48 343.29
  Q 173.83 348.21 176.81 348.67
  C 186.45 350.14 192.29 351.31 200.22 349.72
  C 205.35 348.69 211.22 347.40 215.98 345.19
  Q 220.28 343.18 222.74 342.33
  A 13.05 12.89 -71.9 0 0 226.04 340.63
  Q 233.30 335.50 235.58 333.35
  Q 246.17 323.39 249.76 309.31
  Q 251.88 300.97 246.66 294.37
  A 0.49 0.49 0.0 0 0 245.83 294.47
  Q 244.67 297.05 242.97 298.82
  A 2.58 2.51 -14.1 0 0 242.42 299.71
  Q 240.57 304.81 240.08 305.86
  Q 238.13 310.05 232.36 319.11
  Q 229.49 323.61 226.13 325.71
  Q 223.49 327.37 221.00 329.50
  C 216.66 333.19 210.65 334.64 204.69 336.35
  C 196.43 338.71 186.12 337.88 177.82 336.31
  A 0.65 0.65 0.0 0 1 177.34 335.42
  Q 178.10 333.57 178.06 331.51"
/>
<path stroke="#b68a63" vector-effect="non-scaling-stroke" d="
  M 178.06 331.51
  L 182.25 314.10
  A 6.83 1.56 81.4 0 0 182.45 311.41
  Q 182.39 309.32 182.01 304.26
  Q 181.88 302.52 180.25 300.98
  A 0.47 0.47 0.0 0 1 180.41 300.20
  Q 181.09 299.95 182.13 300.24"
/>
<path stroke="#8f6441" vector-effect="non-scaling-stroke" d="
  M 182.13 300.24
  C 196.30 300.55 206.90 289.58 206.77 275.78
  C 206.72 270.95 201.36 270.85 200.34 275.12
  C 199.12 280.29 197.43 285.77 193.24 289.11
  Q 188.88 292.59 183.35 292.83
  C 180.85 292.93 179.86 293.27 178.71 291.08
  C 176.14 286.19 170.11 279.87 164.26 280.10
  C 160.69 280.24 156.92 282.34 154.49 285.28
  Q 153.73 286.19 151.09 286.45
  Q 149.44 286.61 146.40 287.91
  Q 140.18 290.57 140.57 299.42
  A 0.53 0.52 14.0 0 1 139.78 299.89
  L 139.49 299.72
  A 0.88 0.86 -79.6 0 1 139.06 299.08
  L 138.24 293.34
  A 1.87 1.75 -63.7 0 0 138.08 292.81
  Q 135.78 288.17 130.84 286.24
  A 1.45 1.39 -33.6 0 0 130.34 286.15
  L 127.41 286.15
  A 1.84 1.82 63.3 0 1 126.31 285.78
  Q 123.31 283.55 119.97 281.60
  C 112.02 276.96 102.90 285.53 100.00 292.28
  A 1.37 1.36 11.3 0 1 98.74 293.11
  Q 85.56 293.05 80.88 281.14
  Q 80.36 279.83 78.29 273.98
  A 2.59 2.45 73.0 0 0 75.33 272.30
  C 73.88 272.67 72.99 273.60 73.02 275.29
  Q 73.16 284.17 78.06 291.28"
/>
<path stroke="#7a5335" vector-effect="non-scaling-stroke" d="
  M 182.13 300.24
  L 175.80 299.64
  A 2.29 2.28 -10.1 0 1 173.95 298.36
  C 171.76 293.89 169.51 289.87 164.86 287.91
  Q 163.54 287.35 162.95 287.67
  A 1.95 1.76 56.6 0 0 162.53 290.46
  Q 163.09 291.20 165.68 294.19
  A 2.33 2.28 49.8 0 1 165.44 297.47
  C 164.15 298.55 162.47 298.27 160.98 297.44
  Q 158.06 295.80 154.18 294.28
  Q 149.57 292.47 148.17 296.98
  A 1.75 1.74 -50.0 0 0 148.28 298.31
  C 149.84 301.33 152.17 303.43 155.08 306.37
  A 1.04 1.04 0.0 0 1 154.55 308.12
  L 149.92 309.08
  A 2.31 2.28 -31.1 0 1 148.01 308.62
  L 145.96 306.97
  A 1.12 1.12 0.0 0 0 144.15 308.00
  Q 144.48 310.35 145.62 312.64
  A 4.39 4.23 -83.0 0 0 146.53 313.85
  L 149.27 316.43
  A 2.74 2.60 9.9 0 1 149.79 317.13
  C 150.72 318.93 152.21 323.86 148.18 323.15
  A 1.41 1.35 68.0 0 1 147.58 322.88
  L 145.27 321.02
  A 0.51 0.51 0.0 0 0 144.45 321.48
  C 144.99 325.63 149.68 329.11 153.22 330.77
  Q 160.24 334.06 174.71 337.80"
/>
<path stroke="#987052" vector-effect="non-scaling-stroke" d="
  M 174.71 337.80
  Q 189.21 341.59 202.17 339.09
  Q 230.08 333.71 241.62 306.85
  C 242.96 303.75 242.27 299.96 246.16 298.53
  A 1.61 1.61 0.0 0 1 247.26 298.53
  Q 249.52 299.36 249.02 302.75
  Q 247.51 312.87 244.12 319.51
  C 238.23 331.01 225.60 340.09 213.39 344.09
  Q 194.56 350.25 174.92 345.94
  C 169.10 344.66 161.42 341.36 155.27 339.77
  C 148.62 338.06 144.08 335.56 140.19 330.74
  A 0.73 0.73 0.0 0 0 139.04 330.76
  Q 134.50 336.76 127.32 338.83
  Q 120.69 340.75 115.29 342.56
  Q 107.91 345.05 103.24 346.08
  Q 82.25 350.73 62.11 342.53
  Q 44.07 335.18 35.69 320.08
  Q 31.63 312.77 30.30 301.62"
/>
<path stroke="#987052" vector-effect="non-scaling-stroke" d="
  M 40.72 313.22
  Q 42.12 316.27 44.98 319.77
  C 60.74 339.06 83.65 343.87 107.17 336.88"
/>
<path stroke="#7a5335" vector-effect="non-scaling-stroke" d="
  M 107.17 336.88
  Q 109.97 336.65 112.49 335.75
  Q 121.03 332.70 123.91 331.78
  C 130.62 329.64 133.08 326.12 136.38 320.16
  A 0.15 0.14 -50.1 0 0 136.37 320.01
  Q 136.23 319.84 136.05 319.82
  A 0.25 0.23 -59.0 0 0 135.85 319.88
  L 132.27 322.88
  A 2.04 2.04 0.0 0 1 128.96 321.73
  L 128.79 320.91
  A 5.03 5.03 0.0 0 1 130.92 315.72
  Q 134.70 313.19 136.30 308.60
  A 1.30 1.30 0.0 0 0 135.40 306.91
  C 134.77 306.75 133.93 306.95 133.32 307.26
  C 131.21 308.36 124.17 311.10 124.34 306.78
  A 1.76 1.75 64.0 0 1 124.67 305.82
  Q 124.93 305.47 129.48 301.21
  Q 132.43 298.44 130.32 295.35
  C 129.13 293.59 128.17 292.22 125.95 293.39
  C 122.67 295.13 118.75 297.87 114.82 298.21
  A 1.14 1.11 66.3 0 1 113.88 297.83
  C 111.32 294.91 114.73 291.84 117.10 290.41
  A 0.71 0.71 0.0 0 0 117.09 289.19
  L 115.79 288.44
  A 1.88 1.88 0.0 0 0 113.99 288.40
  C 110.24 290.36 107.62 294.83 105.42 298.27
  A 3.93 3.92 16.2 0 1 102.08 300.10
  L 96.89 300.09"
/>
<path stroke="#987052" vector-effect="non-scaling-stroke" d="
  M 96.89 300.09
  Q 85.47 300.60 78.06 291.28"
/>
<path stroke="#be9674" vector-effect="non-scaling-stroke" d="
  M 178.06 331.51
  L 174.30 336.36
  A 0.72 0.72 0.0 0 0 174.19 337.04
  Q 174.32 337.42 174.71 337.80"
/>
<path stroke="#be9674" vector-effect="non-scaling-stroke" d="
  M 107.17 336.88
  Q 106.82 335.41 103.72 333.95"
/>
<path stroke="#be9674" vector-effect="non-scaling-stroke" d="
  M 97.91 302.49
  Q 98.44 300.87 96.89 300.09"
/>
<path stroke="#7a5335" vector-effect="non-scaling-stroke" d="
  M 123.33 165.67
  C 128.77 166.18 128.61 161.07 126.28 157.97
  Q 122.15 152.48 115.80 150.06
  A 2.23 2.14 50.0 0 0 114.68 149.94
  Q 111.42 150.43 109.45 153.04
  A 1.64 1.63 56.5 0 0 109.17 154.44
  Q 110.14 158.09 112.20 159.28
  Q 118.20 162.77 122.62 165.43
  A 1.74 1.70 63.0 0 0 123.33 165.67"
/>
<path stroke="#7a5335" vector-effect="non-scaling-stroke" d="
  M 152.59 164.39
  Q 154.63 166.45 156.94 165.45
  Q 160.99 163.69 167.48 158.75
  C 170.26 156.64 171.65 151.48 167.05 150.50
  C 161.94 149.41 157.35 153.73 153.87 157.29
  Q 150.64 160.59 152.01 163.55
  A 3.10 3.05 -80.1 0 0 152.59 164.39"
/>
<path stroke="#7a5335" vector-effect="non-scaling-stroke" d="
  M 139.72 218.08
  A 1.04 1.02 -41.1 0 1 140.88 218.15
  C 144.45 220.96 156.03 229.30 160.66 226.33
  Q 163.72 224.37 161.56 221.36
  A 1.94 1.81 -1.9 0 0 160.92 220.80
  C 158.45 219.48 154.88 218.72 152.49 217.25
  Q 151.24 216.49 145.87 213.42
  C 143.57 212.10 143.10 210.24 143.12 207.75
  Q 143.20 194.86 142.67 172.01
  A 2.87 2.87 0.0 0 0 139.78 169.20
  L 139.63 169.20
  A 2.77 2.77 0.0 0 0 136.87 171.94
  C 136.78 180.65 137.45 188.63 136.62 196.99
  Q 136.12 202.01 136.27 210.47
  Q 136.31 212.42 134.33 213.55
  Q 127.45 217.46 121.76 219.64
  C 119.90 220.35 118.47 221.52 117.81 223.31
  A 2.20 2.02 -64.6 0 0 118.61 225.89
  C 124.66 229.55 135.00 220.90 139.72 218.08"
/>
</g>
<path fill="#532d13" d="
  M 104.20 67.65
  A 0.73 0.73 0.0 0 0 103.99 66.79
  Q 99.26 62.99 99.39 56.26
  C 99.49 50.61 103.77 43.65 107.37 39.11
  A 10.04 9.93 70.5 0 0 109.30 35.01
  C 111.90 22.70 116.65 11.26 128.65 5.65
  Q 140.13 0.30 153.12 5.92
  C 164.15 10.69 167.82 22.58 169.85 34.47
  A 4.94 4.69 28.3 0 0 170.31 35.87
  Q 170.90 37.02 173.05 39.93
  Q 176.66 44.82 179.02 50.46
  Q 182.90 59.72 176.44 66.60
  A 1.37 1.37 0.0 0 0 177.02 68.84
  L 192.01 73.56
  A 1.59 1.58 -66.2 0 0 193.87 72.83
  C 198.75 64.37 207.89 54.62 218.56 55.99
  C 223.47 56.63 230.17 58.86 232.92 63.34
  Q 237.53 70.86 237.50 80.78
  C 237.48 89.71 233.95 97.71 228.61 105.18
  A 1.85 1.84 -42.0 0 0 228.50 107.14
  Q 240.55 128.70 248.00 153.46
  Q 256.83 182.78 251.30 213.27
  A 5.88 5.86 38.0 0 0 251.73 216.72
  C 263.24 242.09 272.12 270.46 275.99 297.74
  Q 279.29 320.97 272.62 343.33
  Q 268.15 358.32 260.43 372.42
  A 1.46 1.44 45.4 0 0 260.43 373.81
  C 267.39 386.59 272.68 403.01 268.42 417.40
  Q 265.21 428.22 258.60 437.00
  A 1.22 1.22 0.0 0 0 258.63 438.51
  C 263.13 443.93 272.69 456.35 263.58 462.09
  C 256.69 466.43 245.29 467.29 235.71 467.76
  C 224.20 468.33 214.28 467.76 204.48 463.59
  C 194.17 459.21 195.95 451.58 194.61 442.62
  Q 193.87 437.70 192.03 430.92
  A 4.74 4.67 -72.9 0 0 191.10 429.13
  L 185.31 422.23
  A 2.82 2.80 63.2 0 0 182.51 421.30
  Q 168.68 424.60 154.12 426.11
  Q 125.52 429.09 97.34 421.22
  A 2.05 2.05 0.0 0 0 95.18 421.91
  L 87.94 430.90
  A 5.44 5.38 68.2 0 0 86.78 433.64
  Q 85.37 444.87 84.28 453.01
  C 83.36 459.94 74.32 463.92 68.04 465.36
  Q 53.36 468.73 35.99 467.94
  C 26.51 467.50 18.27 465.16 12.67 457.86
  C 9.76 454.07 18.78 442.63 21.22 439.91
  A 1.56 1.55 50.7 0 0 21.40 438.07
  C 13.90 425.43 7.95 410.63 10.70 396.01
  Q 12.99 383.79 19.22 373.32
  A 2.33 2.33 0.0 0 0 19.24 370.95
  Q 5.25 346.83 3.11 319.20
  C 1.62 300.11 5.79 279.92 11.47 260.23
  Q 18.32 236.48 28.39 213.17
  A 5.30 5.20 -37.1 0 0 28.78 210.54
  C 26.79 192.64 27.36 175.15 30.88 157.58
  C 34.27 140.62 42.63 122.53 51.36 107.08
  A 1.84 1.82 40.9 0 0 51.20 105.05
  Q 40.35 91.24 42.83 73.58
  C 44.65 60.62 55.14 55.98 67.15 57.93
  C 74.43 59.11 82.48 67.30 87.05 72.86
  A 2.18 2.16 -29.4 0 0 89.44 73.52
  C 96.34 71.07 100.37 69.38 102.52 69.15
  Q 103.58 69.04 104.20 67.65
  Z
  M 107.89 62.42
  Q 109.12 56.72 113.15 52.04
  A 0.75 0.75 0.0 0 1 114.41 52.24
  Q 114.76 53.09 114.50 53.75
  Q 113.08 57.29 111.29 64.25
  A 2.76 2.74 33.8 0 0 111.76 66.59
  Q 116.25 72.55 123.66 74.59
  C 137.09 78.29 151.79 77.97 163.79 70.73
  Q 164.88 70.07 167.93 65.81
  A 1.76 1.73 -29.9 0 0 168.25 64.66
  C 167.95 60.91 165.70 56.12 165.33 53.80
  Q 165.18 52.84 166.05 51.51
  A 0.41 0.41 0.0 0 1 166.73 51.50
  Q 171.21 57.86 171.51 62.65
  A 1.12 1.11 -32.0 0 0 173.59 63.13
  L 175.67 59.53
  A 6.42 6.39 -38.7 0 0 176.24 54.43
  Q 174.49 48.86 171.20 44.82
  C 167.20 39.92 165.57 37.01 164.70 31.97
  Q 163.81 26.79 163.09 25.06
  C 158.02 12.98 147.63 6.59 134.72 9.23
  Q 122.04 11.82 116.82 24.34
  C 114.36 30.26 115.03 36.58 111.02 41.54
  Q 107.26 46.18 105.48 50.15
  Q 102.44 56.96 106.72 62.67
  A 0.66 0.65 32.7 0 0 107.89 62.42
  Z
  M 195.74 83.82
  Q 193.40 83.27 192.80 82.96
  Q 184.30 78.57 176.75 75.76
  Q 175.10 75.15 169.98 74.91
  A 5.00 4.91 -60.3 0 0 166.95 75.77
  C 158.92 81.24 147.31 82.90 137.99 82.52
  C 128.85 82.14 120.21 81.24 112.68 75.77
  A 5.05 5.00 -32.7 0 0 108.71 74.92
  L 102.83 76.14
  A 3.96 3.77 -62.4 0 0 101.83 76.48
  Q 96.79 79.03 91.39 80.30
  A 7.07 6.95 21.7 0 0 89.30 81.18
  Q 85.87 83.35 82.23 84.16
  Q 80.16 76.32 75.25 70.02
  Q 69.43 62.58 59.95 63.39
  A 4.25 4.10 -59.5 0 0 58.55 63.78
  Q 52.00 66.98 49.64 74.03
  C 48.60 77.15 48.50 82.39 49.19 85.27
  Q 51.85 96.35 60.85 103.01
  A 1.10 1.03 9.3 0 1 61.22 103.49
  Q 61.28 103.63 61.32 103.80
  C 58.98 109.76 54.95 116.57 53.13 120.95
  C 51.00 126.05 49.07 129.60 47.03 134.96
  Q 39.73 154.17 38.53 157.78
  Q 33.08 174.24 33.57 193.48
  C 33.71 199.23 35.41 206.08 35.83 211.74
  Q 36.21 216.74 33.95 221.70
  Q 23.52 244.63 16.16 269.06
  Q 11.64 284.09 10.73 296.02
  C 9.67 310.00 9.97 324.59 13.41 337.85
  Q 16.57 348.46 17.68 351.30
  Q 21.94 362.27 34.58 378.15
  Q 35.93 379.85 34.91 381.76
  A 1.12 1.11 8.6 0 1 34.14 382.32
  C 30.49 382.97 27.83 380.89 25.72 378.00
  A 0.41 0.41 0.0 0 0 25.02 378.05
  Q 22.38 383.03 21.71 384.45
  C 14.62 399.46 16.65 417.66 26.19 430.91
  C 27.98 433.38 30.54 435.65 32.76 438.02
  Q 33.60 439.82 32.73 441.00
  Q 30.34 444.29 24.10 450.11
  Q 23.63 450.54 21.21 454.32
  A 1.79 1.79 0.0 0 0 20.92 455.33
  Q 20.96 456.93 22.36 458.72
  A 0.29 0.29 0.0 0 0 22.88 458.54
  L 22.88 455.78
  A 1.28 1.26 59.5 0 1 23.03 455.18
  Q 25.56 450.35 30.33 447.35
  C 31.88 446.90 34.67 447.82 33.97 449.96
  Q 32.44 454.64 29.98 457.60
  A 1.72 1.71 19.9 0 0 31.30 460.41
  L 33.08 460.41
  A 3.61 3.59 10.3 0 0 36.45 458.10
  C 37.71 454.79 40.87 449.99 44.64 448.76
  A 1.36 1.36 0.0 0 1 46.37 449.71
  Q 47.07 452.34 46.18 454.48
  C 45.81 455.38 43.82 456.71 43.04 457.99
  Q 42.42 459.29 43.49 459.69
  Q 44.27 459.97 47.24 459.96
  Q 58.55 459.93 68.99 457.17
  C 70.59 456.75 72.95 455.70 74.01 455.20
  C 76.95 453.82 77.00 451.69 77.63 448.69
  Q 77.90 447.42 77.95 445.80
  Q 78.15 439.38 78.70 433.03
  Q 81.58 425.00 87.82 419.33
  A 0.63 0.63 0.0 0 0 87.56 418.25
  C 84.80 417.50 78.35 414.56 76.90 412.12
  A 1.39 1.39 0.0 0 1 76.76 411.02
  C 77.38 408.89 78.34 407.13 80.81 408.08
  Q 98.89 415.05 116.37 417.63
  C 127.98 419.34 140.72 418.96 151.75 418.41
  Q 165.89 417.71 181.50 413.37
  Q 188.73 411.36 196.10 409.09
  Q 198.06 408.42 199.57 407.86
  A 2.79 2.46 68.2 0 1 202.81 409.50
  Q 203.42 410.94 202.03 412.05
  Q 197.92 415.36 192.17 417.99
  A 0.85 0.85 0.0 0 0 191.94 419.39
  Q 198.83 425.75 200.99 434.73
  C 201.76 437.93 201.77 442.14 202.12 445.95
  Q 201.88 449.22 203.33 453.32
  A 2.31 2.28 -78.8 0 0 203.93 454.23
  Q 206.92 456.99 212.18 457.89
  Q 224.76 460.04 236.19 459.87
  A 0.79 0.79 0.0 0 0 236.70 458.48
  C 234.07 456.19 231.22 453.46 233.28 449.66
  A 1.58 1.57 24.9 0 1 235.24 448.95
  C 239.49 450.61 241.65 453.80 243.42 458.05
  A 3.49 3.47 78.5 0 0 246.62 460.18
  L 248.44 460.18
  A 1.68 1.68 0.0 0 0 249.87 457.62
  Q 247.98 454.57 246.26 451.57
  C 244.76 448.95 247.98 446.76 250.19 446.78
  C 253.24 450.04 257.04 453.35 258.56 457.40
  A 0.67 0.67 0.0 0 0 259.85 457.18
  C 259.97 453.10 254.44 447.85 251.21 445.13
  Q 249.19 443.43 248.33 441.92
  Q 247.00 439.60 247.44 437.78
  C 261.31 424.76 265.35 406.98 260.22 388.95
  C 259.03 384.77 256.75 381.55 254.15 378.37
  A 0.59 0.59 0.0 0 0 253.14 378.56
  Q 252.16 381.50 248.99 383.55
  C 246.12 385.40 242.90 381.67 244.81 379.61
  Q 250.73 373.24 256.21 363.69
  C 266.29 346.16 270.01 324.87 269.13 304.89
  Q 268.45 289.36 265.70 277.78
  Q 262.83 265.70 257.18 249.14
  C 255.36 243.81 252.55 239.10 250.90 234.00
  C 249.37 229.27 245.68 223.07 244.18 218.81
  Q 242.72 214.66 243.06 212.26
  C 244.92 199.27 246.51 189.22 245.34 177.94
  C 244.33 168.32 241.70 157.59 237.65 147.13
  Q 229.43 125.96 219.34 107.14
  Q 218.70 105.96 217.83 103.15
  Q 218.73 102.29 220.30 101.60
  A 2.50 2.34 10.1 0 0 221.01 101.14
  C 229.61 93.13 234.19 80.11 228.14 69.45
  Q 225.53 64.85 220.10 62.82
  A 2.96 2.90 52.5 0 0 218.91 62.65
  C 210.80 63.17 203.64 69.03 200.83 76.35
  C 199.75 79.16 198.59 80.64 197.32 83.15
  A 1.05 1.03 8.9 0 1 196.55 83.70
  L 195.74 83.82
  Z"
/>
<path fill="#f7d585" d="
  M 107.89 62.42
  A 0.66 0.65 32.7 0 1 106.72 62.67
  Q 102.44 56.96 105.48 50.15
  Q 107.26 46.18 111.02 41.54
  C 115.03 36.58 114.36 30.26 116.82 24.34
  Q 122.04 11.82 134.72 9.23
  C 147.63 6.59 158.02 12.98 163.09 25.06
  Q 163.81 26.79 164.70 31.97
  C 165.57 37.01 167.20 39.92 171.20 44.82
  Q 174.49 48.86 176.24 54.43
  A 6.42 6.39 -38.7 0 1 175.67 59.53
  L 173.59 63.13
  A 1.12 1.11 -32.0 0 1 171.51 62.65
  Q 171.21 57.86 166.73 51.50
  A 0.41 0.41 0.0 0 0 166.05 51.51
  Q 165.18 52.84 165.33 53.80
  C 165.70 56.12 167.95 60.91 168.25 64.66
  A 1.76 1.73 -29.9 0 1 167.93 65.81
  Q 164.88 70.07 163.79 70.73
  C 151.79 77.97 137.09 78.29 123.66 74.59
  Q 116.25 72.55 111.76 66.59
  A 2.76 2.74 33.8 0 1 111.29 64.25
  Q 113.08 57.29 114.50 53.75
  Q 114.76 53.09 114.41 52.24
  A 0.75 0.75 0.0 0 0 113.15 52.04
  Q 109.12 56.72 107.89 62.42
  Z
  M 123.03 25.06
  L 122.11 29.94
  A 1.32 1.32 0.0 0 0 123.16 31.48
  L 123.89 31.62
  A 3.86 3.67 10.7 0 0 128.36 28.73
  L 128.41 28.47
  A 3.86 3.67 10.7 0 0 125.30 24.15
  L 124.57 24.01
  A 1.32 1.32 0.0 0 0 123.03 25.06
  Z
  M 153.6203 24.7023
  A 3.88 3.05 -97.4 0 0 151.0954 28.9428
  A 3.88 3.05 -97.4 0 0 154.6197 32.3977
  A 3.88 3.05 -97.4 0 0 157.1446 28.1572
  A 3.88 3.05 -97.4 0 0 153.6203 24.7023
  Z
  M 140.61 42.07
  Q 142.25 41.99 144.60 41.32
  C 155.49 38.19 146.03 29.08 140.01 29.37
  C 133.99 29.65 125.44 39.61 136.57 41.70
  Q 138.98 42.15 140.61 42.07
  Z"
/>
<path fill="#532d13" d="
  M 123.03 25.06
  A 1.32 1.32 0.0 0 1 124.57 24.01
  L 125.30 24.15
  A 3.86 3.67 10.7 0 1 128.41 28.47
  L 128.36 28.73
  A 3.86 3.67 10.7 0 1 123.89 31.62
  L 123.16 31.48
  A 1.32 1.32 0.0 0 1 122.11 29.94
  L 123.03 25.06
  Z"
/>
<ellipse fill="#532d13" cx="0.00" cy="0.00" transform="translate(154.12,28.55) rotate(-97.4)" rx="3.88" ry="3.05"/>
<path fill="#532d13" d="
  M 140.61 42.07
  Q 138.98 42.15 136.57 41.70
  C 125.44 39.61 133.99 29.65 140.01 29.37
  C 146.03 29.08 155.49 38.19 144.60 41.32
  Q 142.25 41.99 140.61 42.07
  Z
  M 136.3196 34.6659
  A 4.21 2.59 -171.2 0 0 140.0838 37.8695
  A 4.21 2.59 -171.2 0 0 144.6404 35.9541
  A 4.21 2.59 -171.2 0 0 140.8762 32.7505
  A 4.21 2.59 -171.2 0 0 136.3196 34.6659
  Z"
/>
<ellipse fill="#cb9a6e" cx="0.00" cy="0.00" transform="translate(140.48,35.31) rotate(-171.2)" rx="4.21" ry="2.59"/>
<path fill="#a07957" d="
  M 217.83 103.15
  L 216.46 101.75
  Q 211.91 97.34 209.18 92.89
  Q 212.47 87.48 214.34 81.51
  Q 216.73 81.13 218.24 78.46
  A 1.01 0.97 3.0 0 1 218.74 78.03
  L 223.10 76.31
  A 0.89 0.88 77.9 0 0 223.66 75.43
  L 223.48 72.65
  A 1.01 0.94 -64.0 0 0 223.33 72.16
  C 221.82 69.60 218.31 65.89 215.07 67.88
  C 212.82 69.25 207.96 72.84 206.77 75.92
  Q 204.20 82.57 204.07 88.15
  A 1.11 1.10 18.0 0 1 202.34 89.03
  Q 200.09 87.48 197.87 84.96
  C 197.30 84.31 196.55 84.03 195.74 83.82
  L 196.55 83.70
  A 1.05 1.03 8.9 0 0 197.32 83.15
  C 198.59 80.64 199.75 79.16 200.83 76.35
  C 203.64 69.03 210.80 63.17 218.91 62.65
  A 2.96 2.90 52.5 0 1 220.10 62.82
  Q 225.53 64.85 228.14 69.45
  C 234.19 80.11 229.61 93.13 221.01 101.14
  A 2.50 2.34 10.1 0 1 220.30 101.60
  Q 218.73 102.29 217.83 103.15
  Z"
/>
<path fill="#a07957" d="
  M 82.23 84.16
  Q 78.92 87.47 74.88 89.41
  L 70.36 77.98
  A 6.84 6.78 -78.5 0 0 68.84 75.66
  L 64.06 70.88
  A 3.32 3.32 0.0 0 0 59.37 70.88
  L 58.47 71.79
  A 1.83 1.83 0.0 0 0 59.03 74.77
  Q 64.63 77.22 66.29 83.98
  Q 67.80 90.12 70.69 92.81
  Q 67.66 97.82 62.10 102.38
  A 1.73 1.67 -10.3 0 0 61.57 103.12
  L 61.32 103.80
  Q 61.28 103.63 61.22 103.49
  A 1.10 1.03 9.3 0 0 60.85 103.01
  Q 51.85 96.35 49.19 85.27
  C 48.50 82.39 48.60 77.15 49.64 74.03
  Q 52.00 66.98 58.55 63.78
  A 4.25 4.10 -59.5 0 1 59.95 63.39
  Q 69.43 62.58 75.25 70.02
  Q 80.16 76.32 82.23 84.16
  Z"
/>
<path fill="#cb9a6e" d="
  M 214.34 81.51
  Q 216.44 76.31 220.85 75.58
  A 1.53 1.53 0.0 0 0 221.98 73.42
  Q 220.53 70.34 218.03 69.42
  A 1.89 1.89 0.0 0 0 216.45 69.55
  C 211.46 72.35 207.28 78.84 206.03 83.54
  C 204.82 88.11 204.69 90.32 209.18 92.89
  Q 211.91 97.34 216.46 101.75
  Q 214.98 102.05 215.80 103.92
  Q 218.68 110.47 224.10 119.69
  Q 225.05 121.30 227.89 129.21
  A 6.98 6.71 20.7 0 0 228.51 130.51
  C 231.78 135.76 233.66 142.43 235.14 148.64
  C 235.71 151.01 237.06 153.03 237.66 155.33
  Q 239.65 162.91 241.76 170.51
  C 243.25 175.85 244.30 182.13 243.96 187.51
  C 243.64 192.62 243.54 197.33 242.38 202.04
  C 241.21 206.73 240.16 212.22 241.52 216.69
  C 243.64 223.64 246.65 228.95 249.03 235.49
  Q 252.17 244.13 256.85 254.41
  C 258.79 258.69 259.46 263.23 261.03 268.04
  Q 263.83 276.61 264.58 281.56
  Q 265.27 286.11 265.52 287.26
  Q 266.20 290.43 266.45 292.98
  Q 268.60 315.20 264.05 337.46
  Q 259.43 360.06 244.46 377.22
  Q 243.23 378.64 242.99 380.92
  Q 242.53 385.26 247.69 385.85
  A 1.33 1.27 31.8 0 0 248.50 385.68
  L 252.56 383.34
  A 1.68 1.68 0.0 0 1 254.42 383.46
  C 258.80 386.82 258.76 391.12 259.93 395.01
  C 261.03 398.66 261.18 404.67 260.76 407.42
  Q 260.64 408.22 258.28 419.20
  A 6.51 6.34 -25.1 0 1 257.62 420.95
  Q 252.95 429.42 246.19 436.51
  A 0.64 0.63 -54.3 0 0 246.35 437.51
  Q 246.73 437.70 247.44 437.78
  Q 247.00 439.60 248.33 441.92
  Q 249.19 443.43 251.21 445.13
  C 254.44 447.85 259.97 453.10 259.85 457.18
  A 0.67 0.67 0.0 0 1 258.56 457.40
  C 257.04 453.35 253.24 450.04 250.19 446.78
  L 246.22 439.63
  A 2.69 2.69 0.0 0 0 243.74 438.25
  Q 236.09 438.63 228.28 439.06
  Q 218.90 439.58 209.16 441.47
  Q 204.77 442.31 202.12 445.95
  C 201.77 442.14 201.76 437.93 200.99 434.73
  Q 198.83 425.75 191.94 419.39
  A 0.85 0.85 0.0 0 1 192.17 417.99
  Q 197.92 415.36 202.03 412.05
  Q 203.42 410.94 202.81 409.50
  A 2.79 2.46 68.2 0 0 199.57 407.86
  Q 198.06 408.42 196.10 409.09
  Q 197.03 407.28 193.27 408.56
  Q 190.66 409.44 178.78 412.06
  C 177.35 412.37 175.78 413.17 174.63 413.38
  Q 162.02 415.68 149.42 416.15
  A 9.83 9.41 -50.6 0 0 147.85 416.34
  Q 145.28 416.88 144.25 416.89
  Q 129.17 417.11 119.38 415.80
  Q 112.14 414.83 96.21 411.37
  C 91.32 410.30 85.88 408.06 80.30 406.51
  Q 78.68 406.06 77.30 406.83
  A 1.78 1.75 -0.9 0 0 76.62 407.52
  Q 74.34 411.72 77.68 414.54
  C 79.64 416.21 81.34 417.41 83.68 418.52
  A 1.38 1.38 0.0 0 1 84.15 420.65
  Q 79.98 425.71 77.70 431.61
  A 1.13 1.10 -44.2 0 0 77.68 432.35
  Q 78.00 433.30 78.70 433.03
  Q 78.15 439.38 77.95 445.80
  Q 77.90 447.42 77.63 448.69
  C 77.00 451.69 76.95 453.82 74.01 455.20
  C 72.95 455.70 70.59 456.75 68.99 457.17
  Q 58.55 459.93 47.24 459.96
  Q 44.27 459.97 43.49 459.69
  Q 42.42 459.29 43.04 457.99
  Q 57.44 459.00 69.89 454.71
  Q 79.29 451.48 75.49 442.14
  A 0.85 0.84 81.9 0 0 74.79 441.61
  Q 66.37 440.69 63.04 440.12
  C 54.08 438.58 45.22 439.13 37.17 438.24
  Q 36.09 438.12 35.01 438.71
  Q 33.82 439.37 33.52 440.30
  C 32.78 442.64 31.24 444.96 30.33 447.35
  Q 25.56 450.35 23.03 455.18
  A 1.28 1.26 59.5 0 0 22.88 455.78
  L 22.88 458.54
  A 0.29 0.29 0.0 0 1 22.36 458.72
  Q 20.96 456.93 20.92 455.33
  A 1.79 1.79 0.0 0 1 21.21 454.32
  Q 23.63 450.54 24.10 450.11
  Q 30.34 444.29 32.73 441.00
  Q 33.60 439.82 32.76 438.02
  L 34.08 438.12
  A 0.99 0.99 0.0 0 0 34.71 436.31
  C 29.56 432.80 24.33 426.82 22.29 420.50
  Q 20.01 413.40 19.83 410.14
  Q 19.81 409.67 19.73 401.57
  Q 19.69 397.34 20.69 393.06
  Q 22.39 385.76 24.89 381.87
  A 1.03 1.02 30.3 0 1 26.25 381.52
  L 30.29 383.71
  A 1.21 1.21 0.0 0 0 30.74 383.86
  Q 35.54 384.58 36.30 379.98
  A 2.14 2.08 41.9 0 0 36.23 378.97
  Q 35.95 378.07 33.17 374.63
  Q 31.79 372.93 26.64 364.74
  Q 23.04 359.02 21.13 354.27
  Q 17.47 345.15 15.43 337.43
  A 0.63 0.61 88.1 0 0 14.97 336.98
  Q 14.11 336.79 13.41 337.85
  C 9.97 324.59 9.67 310.00 10.73 296.02
  Q 11.64 284.09 16.16 269.06
  Q 23.52 244.63 33.95 221.70
  Q 36.21 216.74 35.83 211.74
  C 35.41 206.08 33.71 199.23 33.57 193.48
  Q 33.08 174.24 38.53 157.78
  Q 39.73 154.17 47.03 134.96
  C 49.07 129.60 51.00 126.05 53.13 120.95
  C 54.95 116.57 58.98 109.76 61.32 103.80
  L 61.57 103.12
  A 1.73 1.67 -10.3 0 1 62.10 102.38
  Q 67.66 97.82 70.69 92.81
  L 74.88 89.41
  Q 78.92 87.47 82.23 84.16
  Q 85.87 83.35 89.30 81.18
  A 7.07 6.95 21.7 0 1 91.39 80.30
  Q 96.79 79.03 101.83 76.48
  A 3.96 3.77 -62.4 0 1 102.83 76.14
  L 108.71 74.92
  A 5.05 5.00 -32.7 0 1 112.68 75.77
  C 120.21 81.24 128.85 82.14 137.99 82.52
  C 147.31 82.90 158.92 81.24 166.95 75.77
  A 5.00 4.91 -60.3 0 1 169.98 74.91
  Q 175.10 75.15 176.75 75.76
  Q 184.30 78.57 192.80 82.96
  Q 193.40 83.27 195.74 83.82
  C 196.55 84.03 197.30 84.31 197.87 84.96
  Q 200.09 87.48 202.34 89.03
  A 1.11 1.10 18.0 0 0 204.07 88.15
  Q 204.20 82.57 206.77 75.92
  C 207.96 72.84 212.82 69.25 215.07 67.88
  C 218.31 65.89 221.82 69.60 223.33 72.16
  A 1.01 0.94 -64.0 0 1 223.48 72.65
  L 223.66 75.43
  A 0.89 0.88 77.9 0 1 223.10 76.31
  L 218.74 78.03
  A 1.01 0.97 3.0 0 0 218.24 78.46
  Q 216.73 81.13 214.34 81.51
  Z
  M 93.65 129.89
  Q 95.51 130.02 95.94 128.72
  Q 96.82 126.06 97.18 125.37
  Q 99.63 125.15 96.27 121.24
  Q 94.01 118.61 90.98 116.51
  A 7.94 6.70 79.6 0 1 90.14 115.82
  Q 85.00 110.87 79.44 106.76
  C 75.98 104.20 74.39 110.78 74.00 112.78
  A 3.16 3.13 27.9 0 0 74.90 115.66
  L 86.20 126.66
  Q 86.22 126.68 86.24 126.70
  Q 89.54 129.13 92.95 131.79
  A 1.05 0.99 7.8 0 0 94.56 130.64
  Q 94.38 130.28 93.65 129.89
  Z
  M 200.92 108.94
  Q 196.16 111.70 192.57 115.93
  C 190.58 118.28 187.37 120.90 185.58 122.45
  C 183.11 124.58 181.23 127.14 184.43 129.55
  A 1.73 1.73 0.0 0 0 186.43 129.61
  C 191.95 125.89 194.84 122.44 201.16 115.85
  Q 202.70 114.24 202.91 113.35
  C 203.21 112.00 203.53 109.18 201.68 108.69
  Q 201.46 108.63 200.92 108.94
  Z
  M 77.28 139.92
  C 71.84 139.90 67.42 141.99 60.35 144.52
  A 2.60 2.60 0.0 0 0 58.81 147.95
  L 58.90 148.17
  A 3.42 3.41 -19.5 0 0 63.05 150.15
  C 69.52 148.58 76.70 146.20 83.82 145.46
  Q 87.25 145.11 88.40 144.32
  C 90.43 142.92 92.37 139.69 90.17 137.54
  Q 88.92 136.32 87.10 135.17
  Q 76.15 128.26 63.48 122.14
  A 2.13 2.12 -50.4 0 0 61.30 122.35
  Q 60.54 122.93 59.43 125.62
  C 58.81 127.13 60.97 128.81 62.04 129.45
  Q 69.10 133.68 77.60 138.15
  Q 78.11 138.42 78.05 139.20
  A 0.77 0.76 -87.6 0 1 77.28 139.92
  Z
  M 201.97 139.29
  A 0.53 0.53 0.0 0 1 201.83 138.31
  L 218.60 129.11
  A 3.87 3.86 -27.5 0 0 220.21 124.01
  L 220.17 123.93
  A 3.60 3.59 -27.0 0 0 215.26 122.34
  C 207.46 126.47 197.60 131.48 190.50 137.48
  C 186.96 140.47 190.25 144.26 193.66 144.83
  Q 206.33 146.92 209.41 147.93
  Q 213.75 149.35 217.04 149.93
  C 219.94 150.44 222.36 148.46 220.80 145.44
  A 1.87 1.84 -89.6 0 0 220.05 144.67
  C 214.35 141.53 209.42 140.88 201.97 139.29
  Z
  M 125.22 128.33
  Q 113.79 129.80 104.37 137.40
  C 100.89 140.20 97.59 144.79 96.05 148.56
  C 94.42 152.56 92.44 156.96 91.31 161.01
  Q 89.52 167.46 88.57 177.11
  C 87.76 185.30 88.35 191.66 88.69 201.75
  Q 89.01 211.38 91.68 218.42
  Q 94.53 225.93 102.63 235.36
  C 107.25 240.73 115.98 243.98 122.93 244.53
  Q 127.14 244.86 132.94 245.51
  Q 141.81 246.49 157.26 244.64
  C 167.63 243.40 176.27 238.48 182.03 230.05
  Q 185.29 225.28 186.54 221.59
  Q 190.00 211.43 190.37 208.84
  Q 192.73 192.07 191.17 176.04
  Q 189.56 159.52 181.74 144.99
  A 4.32 3.76 14.5 0 0 181.26 144.29
  L 174.52 136.25
  A 2.79 2.73 -3.4 0 0 173.84 135.66
  C 168.07 132.09 162.96 129.32 155.53 128.50
  Q 138.51 126.61 125.22 128.33
  Z
  M 78.06 291.28
  Q 77.07 291.69 77.27 293.02
  A 1.65 1.64 19.0 0 0 77.70 293.89
  C 82.77 299.16 88.07 300.76 95.50 302.81
  Q 97.00 303.22 97.91 302.49
  Q 98.13 303.06 97.10 303.54
  A 0.50 0.50 0.0 0 0 96.83 304.13
  L 97.44 306.32
  A 2.07 2.04 41.4 0 1 97.50 307.17
  Q 97.12 310.24 97.88 314.05
  C 98.91 319.23 99.04 322.33 100.17 326.90
  A 7.70 7.54 -66.6 0 0 100.85 328.67
  L 103.72 333.95
  Q 100.40 336.70 94.66 337.24
  Q 82.59 338.39 73.39 336.34
  Q 64.14 334.29 57.19 329.10
  Q 50.05 323.76 45.21 315.93
  Q 44.18 314.27 40.72 313.22
  Q 37.56 306.75 35.58 299.66
  A 2.03 2.03 0.0 0 0 33.11 298.25
  Q 31.35 298.72 30.30 301.62
  Q 29.79 300.47 29.26 300.74
  Q 28.33 301.20 28.41 302.38
  Q 28.97 310.09 31.09 316.15
  A 10.50 10.12 -72.1 0 0 32.21 318.44
  Q 32.22 318.46 36.57 325.42
  C 40.81 332.22 48.00 337.07 55.11 341.16
  Q 59.71 343.80 72.28 348.07
  Q 77.30 349.77 82.08 350.07
  C 87.17 350.39 93.13 350.89 98.58 349.56
  Q 100.59 349.07 104.97 348.12
  Q 111.02 346.81 116.53 344.36
  Q 119.89 342.86 124.01 341.93
  C 128.43 340.94 135.38 338.11 139.05 334.41
  A 1.06 1.06 0.0 0 1 140.52 334.38
  C 146.12 339.62 153.45 340.69 160.48 343.29
  Q 173.83 348.21 176.81 348.67
  C 186.45 350.14 192.29 351.31 200.22 349.72
  C 205.35 348.69 211.22 347.40 215.98 345.19
  Q 220.28 343.18 222.74 342.33
  A 13.05 12.89 -71.9 0 0 226.04 340.63
  Q 233.30 335.50 235.58 333.35
  Q 246.17 323.39 249.76 309.31
  Q 251.88 300.97 246.66 294.37
  A 0.49 0.49 0.0 0 0 245.83 294.47
  Q 244.67 297.05 242.97 298.82
  A 2.58 2.51 -14.1 0 0 242.42 299.71
  Q 240.57 304.81 240.08 305.86
  Q 238.13 310.05 232.36 319.11
  Q 229.49 323.61 226.13 325.71
  Q 223.49 327.37 221.00 329.50
  C 216.66 333.19 210.65 334.64 204.69 336.35
  C 196.43 338.71 186.12 337.88 177.82 336.31
  A 0.65 0.65 0.0 0 1 177.34 335.42
  Q 178.10 333.57 178.06 331.51
  L 182.25 314.10
  A 6.83 1.56 81.4 0 0 182.45 311.41
  Q 182.39 309.32 182.01 304.26
  Q 181.88 302.52 180.25 300.98
  A 0.47 0.47 0.0 0 1 180.41 300.20
  Q 181.09 299.95 182.13 300.24
  C 196.30 300.55 206.90 289.58 206.77 275.78
  C 206.72 270.95 201.36 270.85 200.34 275.12
  C 199.12 280.29 197.43 285.77 193.24 289.11
  Q 188.88 292.59 183.35 292.83
  C 180.85 292.93 179.86 293.27 178.71 291.08
  C 176.14 286.19 170.11 279.87 164.26 280.10
  C 160.69 280.24 156.92 282.34 154.49 285.28
  Q 153.73 286.19 151.09 286.45
  Q 149.44 286.61 146.40 287.91
  Q 140.18 290.57 140.57 299.42
  A 0.53 0.52 14.0 0 1 139.78 299.89
  L 139.49 299.72
  A 0.88 0.86 -79.6 0 1 139.06 299.08
  L 138.24 293.34
  A 1.87 1.75 -63.7 0 0 138.08 292.81
  Q 135.78 288.17 130.84 286.24
  A 1.45 1.39 -33.6 0 0 130.34 286.15
  L 127.41 286.15
  A 1.84 1.82 63.3 0 1 126.31 285.78
  Q 123.31 283.55 119.97 281.60
  C 112.02 276.96 102.90 285.53 100.00 292.28
  A 1.37 1.36 11.3 0 1 98.74 293.11
  Q 85.56 293.05 80.88 281.14
  Q 80.36 279.83 78.29 273.98
  A 2.59 2.45 73.0 0 0 75.33 272.30
  C 73.88 272.67 72.99 273.60 73.02 275.29
  Q 73.16 284.17 78.06 291.28
  Z"
/>
<path fill="#532d13" d="
  M 214.34 81.51
  Q 212.47 87.48 209.18 92.89
  C 204.69 90.32 204.82 88.11 206.03 83.54
  C 207.28 78.84 211.46 72.35 216.45 69.55
  A 1.89 1.89 0.0 0 1 218.03 69.42
  Q 220.53 70.34 221.98 73.42
  A 1.53 1.53 0.0 0 1 220.85 75.58
  Q 216.44 76.31 214.34 81.51
  Z"
/>
<path fill="#532d13" d="
  M 74.88 89.41
  L 70.69 92.81
  Q 67.80 90.12 66.29 83.98
  Q 64.63 77.22 59.03 74.77
  A 1.83 1.83 0.0 0 1 58.47 71.79
  L 59.37 70.88
  A 3.32 3.32 0.0 0 1 64.06 70.88
  L 68.84 75.66
  A 6.84 6.78 -78.5 0 1 70.36 77.98
  L 74.88 89.41
  Z"
/>
<path fill="#dcb390" d="
  M 216.46 101.75
  L 217.83 103.15
  Q 218.70 105.96 219.34 107.14
  Q 229.43 125.96 237.65 147.13
  C 241.70 157.59 244.33 168.32 245.34 177.94
  C 246.51 189.22 244.92 199.27 243.06 212.26
  Q 242.72 214.66 244.18 218.81
  C 245.68 223.07 249.37 229.27 250.90 234.00
  C 252.55 239.10 255.36 243.81 257.18 249.14
  Q 262.83 265.70 265.70 277.78
  Q 268.45 289.36 269.13 304.89
  C 270.01 324.87 266.29 346.16 256.21 363.69
  Q 250.73 373.24 244.81 379.61
  C 242.90 381.67 246.12 385.40 248.99 383.55
  Q 252.16 381.50 253.14 378.56
  A 0.59 0.59 0.0 0 1 254.15 378.37
  C 256.75 381.55 259.03 384.77 260.22 388.95
  C 265.35 406.98 261.31 424.76 247.44 437.78
  Q 246.73 437.70 246.35 437.51
  A 0.64 0.63 -54.3 0 1 246.19 436.51
  Q 252.95 429.42 257.62 420.95
  A 6.51 6.34 -25.1 0 0 258.28 419.20
  Q 260.64 408.22 260.76 407.42
  C 261.18 404.67 261.03 398.66 259.93 395.01
  C 258.76 391.12 258.80 386.82 254.42 383.46
  A 1.68 1.68 0.0 0 0 252.56 383.34
  L 248.50 385.68
  A 1.33 1.27 31.8 0 1 247.69 385.85
  Q 242.53 385.26 242.99 380.92
  Q 243.23 378.64 244.46 377.22
  Q 259.43 360.06 264.05 337.46
  Q 268.60 315.20 266.45 292.98
  Q 266.20 290.43 265.52 287.26
  Q 265.27 286.11 264.58 281.56
  Q 263.83 276.61 261.03 268.04
  C 259.46 263.23 258.79 258.69 256.85 254.41
  Q 252.17 244.13 249.03 235.49
  C 246.65 228.95 243.64 223.64 241.52 216.69
  C 240.16 212.22 241.21 206.73 242.38 202.04
  C 243.54 197.33 243.64 192.62 243.96 187.51
  C 244.30 182.13 243.25 175.85 241.76 170.51
  Q 239.65 162.91 237.66 155.33
  C 237.06 153.03 235.71 151.01 235.14 148.64
  C 233.66 142.43 231.78 135.76 228.51 130.51
  A 6.98 6.71 20.7 0 1 227.89 129.21
  Q 225.05 121.30 224.10 119.69
  Q 218.68 110.47 215.80 103.92
  Q 214.98 102.05 216.46 101.75
  Z"
/>
<path fill="#dcb390" d="
  M 97.18 125.37
  Q 90.60 118.09 83.01 111.22
  Q 81.68 110.01 79.22 108.57
  A 1.90 1.90 0.0 0 0 76.54 109.41
  Q 74.70 113.36 77.47 115.77
  Q 77.87 116.12 90.91 128.10
  Q 92.16 129.24 93.65 129.89
  Q 94.38 130.28 94.56 130.64
  A 1.05 0.99 7.8 0 1 92.95 131.79
  Q 89.54 129.13 86.24 126.70
  Q 86.22 126.68 86.20 126.66
  L 74.90 115.66
  A 3.16 3.13 27.9 0 1 74.00 112.78
  C 74.39 110.78 75.98 104.20 79.44 106.76
  Q 85.00 110.87 90.14 115.82
  A 7.94 6.70 79.6 0 0 90.98 116.51
  Q 94.01 118.61 96.27 121.24
  Q 99.63 125.15 97.18 125.37
  Z"
/>
<path fill="#532d13" d="
  M 97.18 125.37
  Q 96.82 126.06 95.94 128.72
  Q 95.51 130.02 93.65 129.89
  Q 92.16 129.24 90.91 128.10
  Q 77.87 116.12 77.47 115.77
  Q 74.70 113.36 76.54 109.41
  A 1.90 1.90 0.0 0 1 79.22 108.57
  Q 81.68 110.01 83.01 111.22
  Q 90.60 118.09 97.18 125.37
  Z"
/>
<path fill="#532d13" d="
  M 200.92 108.94
  Q 201.46 108.63 201.68 108.69
  C 203.53 109.18 203.21 112.00 202.91 113.35
  Q 202.70 114.24 201.16 115.85
  C 194.84 122.44 191.95 125.89 186.43 129.61
  A 1.73 1.73 0.0 0 1 184.43 129.55
  C 181.23 127.14 183.11 124.58 185.58 122.45
  C 187.37 120.90 190.58 118.28 192.57 115.93
  Q 196.16 111.70 200.92 108.94
  Z"
/>
<path fill="#532d13" d="
  M 77.28 139.92
  A 0.77 0.76 -87.6 0 0 78.05 139.20
  Q 78.11 138.42 77.60 138.15
  Q 69.10 133.68 62.04 129.45
  C 60.97 128.81 58.81 127.13 59.43 125.62
  Q 60.54 122.93 61.30 122.35
  A 2.13 2.12 -50.4 0 1 63.48 122.14
  Q 76.15 128.26 87.10 135.17
  Q 88.92 136.32 90.17 137.54
  C 92.37 139.69 90.43 142.92 88.40 144.32
  Q 87.25 145.11 83.82 145.46
  C 76.70 146.20 69.52 148.58 63.05 150.15
  A 3.42 3.41 -19.5 0 1 58.90 148.17
  L 58.81 147.95
  A 2.60 2.60 0.0 0 1 60.35 144.52
  C 67.42 141.99 71.84 139.90 77.28 139.92
  Z"
/>
<path fill="#532d13" d="
  M 201.97 139.29
  C 209.42 140.88 214.35 141.53 220.05 144.67
  A 1.87 1.84 -89.6 0 1 220.80 145.44
  C 222.36 148.46 219.94 150.44 217.04 149.93
  Q 213.75 149.35 209.41 147.93
  Q 206.33 146.92 193.66 144.83
  C 190.25 144.26 186.96 140.47 190.50 137.48
  C 197.60 131.48 207.46 126.47 215.26 122.34
  A 3.60 3.59 -27.0 0 1 220.17 123.93
  L 220.21 124.01
  A 3.87 3.86 -27.5 0 1 218.60 129.11
  L 201.83 138.31
  A 0.53 0.53 0.0 0 0 201.97 139.29
  Z"
/>
<path fill="#a07957" d="
  M 125.22 128.33
  Q 138.51 126.61 155.53 128.50
  C 162.96 129.32 168.07 132.09 173.84 135.66
  A 2.79 2.73 -3.4 0 1 174.52 136.25
  L 181.26 144.29
  A 4.32 3.76 14.5 0 1 181.74 144.99
  Q 189.56 159.52 191.17 176.04
  Q 192.73 192.07 190.37 208.84
  Q 190.00 211.43 186.54 221.59
  Q 185.29 225.28 182.03 230.05
  C 176.27 238.48 167.63 243.40 157.26 244.64
  Q 141.81 246.49 132.94 245.51
  Q 127.14 244.86 122.93 244.53
  C 115.98 243.98 107.25 240.73 102.63 235.36
  Q 94.53 225.93 91.68 218.42
  Q 89.01 211.38 88.69 201.75
  C 88.35 191.66 87.76 185.30 88.57 177.11
  Q 89.52 167.46 91.31 161.01
  C 92.44 156.96 94.42 152.56 96.05 148.56
  C 97.59 144.79 100.89 140.20 104.37 137.40
  Q 113.79 129.80 125.22 128.33
  Z
  M 123.33 165.67
  C 128.77 166.18 128.61 161.07 126.28 157.97
  Q 122.15 152.48 115.80 150.06
  A 2.23 2.14 50.0 0 0 114.68 149.94
  Q 111.42 150.43 109.45 153.04
  A 1.64 1.63 56.5 0 0 109.17 154.44
  Q 110.14 158.09 112.20 159.28
  Q 118.20 162.77 122.62 165.43
  A 1.74 1.70 63.0 0 0 123.33 165.67
  Z
  M 152.59 164.39
  Q 154.63 166.45 156.94 165.45
  Q 160.99 163.69 167.48 158.75
  C 170.26 156.64 171.65 151.48 167.05 150.50
  C 161.94 149.41 157.35 153.73 153.87 157.29
  Q 150.64 160.59 152.01 163.55
  A 3.10 3.05 -80.1 0 0 152.59 164.39
  Z
  M 139.72 218.08
  A 1.04 1.02 -41.1 0 1 140.88 218.15
  C 144.45 220.96 156.03 229.30 160.66 226.33
  Q 163.72 224.37 161.56 221.36
  A 1.94 1.81 -1.9 0 0 160.92 220.80
  C 158.45 219.48 154.88 218.72 152.49 217.25
  Q 151.24 216.49 145.87 213.42
  C 143.57 212.10 143.10 210.24 143.12 207.75
  Q 143.20 194.86 142.67 172.01
  A 2.87 2.87 0.0 0 0 139.78 169.20
  L 139.63 169.20
  A 2.77 2.77 0.0 0 0 136.87 171.94
  C 136.78 180.65 137.45 188.63 136.62 196.99
  Q 136.12 202.01 136.27 210.47
  Q 136.31 212.42 134.33 213.55
  Q 127.45 217.46 121.76 219.64
  C 119.90 220.35 118.47 221.52 117.81 223.31
  A 2.20 2.02 -64.6 0 0 118.61 225.89
  C 124.66 229.55 135.00 220.90 139.72 218.08
  Z"
/>
<path fill="#532d13" d="
  M 122.62 165.43
  Q 118.20 162.77 112.20 159.28
  Q 110.14 158.09 109.17 154.44
  A 1.64 1.63 56.5 0 1 109.45 153.04
  Q 111.42 150.43 114.68 149.94
  A 2.23 2.14 50.0 0 1 115.80 150.06
  Q 122.15 152.48 126.28 157.97
  C 128.61 161.07 128.77 166.18 123.33 165.67
  A 1.74 1.70 63.0 0 1 122.62 165.43
  Z"
/>
<path fill="#532d13" d="
  M 152.01 163.55
  Q 150.64 160.59 153.87 157.29
  C 157.35 153.73 161.94 149.41 167.05 150.50
  C 171.65 151.48 170.26 156.64 167.48 158.75
  Q 160.99 163.69 156.94 165.45
  Q 154.63 166.45 152.59 164.39
  A 3.10 3.05 -80.1 0 1 152.01 163.55
  Z"
/>
<path fill="#532d13" d="
  M 139.72 218.08
  C 135.00 220.90 124.66 229.55 118.61 225.89
  A 2.20 2.02 -64.6 0 1 117.81 223.31
  C 118.47 221.52 119.90 220.35 121.76 219.64
  Q 127.45 217.46 134.33 213.55
  Q 136.31 212.42 136.27 210.47
  Q 136.12 202.01 136.62 196.99
  C 137.45 188.63 136.78 180.65 136.87 171.94
  A 2.77 2.77 0.0 0 1 139.63 169.20
  L 139.78 169.20
  A 2.87 2.87 0.0 0 1 142.67 172.01
  Q 143.20 194.86 143.12 207.75
  C 143.10 210.24 143.57 212.10 145.87 213.42
  Q 151.24 216.49 152.49 217.25
  C 154.88 218.72 158.45 219.48 160.92 220.80
  A 1.94 1.81 -1.9 0 1 161.56 221.36
  Q 163.72 224.37 160.66 226.33
  C 156.03 229.30 144.45 220.96 140.88 218.15
  A 1.04 1.02 -41.1 0 0 139.72 218.08
  Z"
/>
<path fill="#532d13" d="
  M 182.13 300.24
  L 175.80 299.64
  A 2.29 2.28 -10.1 0 1 173.95 298.36
  C 171.76 293.89 169.51 289.87 164.86 287.91
  Q 163.54 287.35 162.95 287.67
  A 1.95 1.76 56.6 0 0 162.53 290.46
  Q 163.09 291.20 165.68 294.19
  A 2.33 2.28 49.8 0 1 165.44 297.47
  C 164.15 298.55 162.47 298.27 160.98 297.44
  Q 158.06 295.80 154.18 294.28
  Q 149.57 292.47 148.17 296.98
  A 1.75 1.74 -50.0 0 0 148.28 298.31
  C 149.84 301.33 152.17 303.43 155.08 306.37
  A 1.04 1.04 0.0 0 1 154.55 308.12
  L 149.92 309.08
  A 2.31 2.28 -31.1 0 1 148.01 308.62
  L 145.96 306.97
  A 1.12 1.12 0.0 0 0 144.15 308.00
  Q 144.48 310.35 145.62 312.64
  A 4.39 4.23 -83.0 0 0 146.53 313.85
  L 149.27 316.43
  A 2.74 2.60 9.9 0 1 149.79 317.13
  C 150.72 318.93 152.21 323.86 148.18 323.15
  A 1.41 1.35 68.0 0 1 147.58 322.88
  L 145.27 321.02
  A 0.51 0.51 0.0 0 0 144.45 321.48
  C 144.99 325.63 149.68 329.11 153.22 330.77
  Q 160.24 334.06 174.71 337.80
  Q 189.21 341.59 202.17 339.09
  Q 230.08 333.71 241.62 306.85
  C 242.96 303.75 242.27 299.96 246.16 298.53
  A 1.61 1.61 0.0 0 1 247.26 298.53
  Q 249.52 299.36 249.02 302.75
  Q 247.51 312.87 244.12 319.51
  C 238.23 331.01 225.60 340.09 213.39 344.09
  Q 194.56 350.25 174.92 345.94
  C 169.10 344.66 161.42 341.36 155.27 339.77
  C 148.62 338.06 144.08 335.56 140.19 330.74
  A 0.73 0.73 0.0 0 0 139.04 330.76
  Q 134.50 336.76 127.32 338.83
  Q 120.69 340.75 115.29 342.56
  Q 107.91 345.05 103.24 346.08
  Q 82.25 350.73 62.11 342.53
  Q 44.07 335.18 35.69 320.08
  Q 31.63 312.77 30.30 301.62
  Q 31.35 298.72 33.11 298.25
  A 2.03 2.03 0.0 0 1 35.58 299.66
  Q 37.56 306.75 40.72 313.22
  Q 42.12 316.27 44.98 319.77
  C 60.74 339.06 83.65 343.87 107.17 336.88
  Q 109.97 336.65 112.49 335.75
  Q 121.03 332.70 123.91 331.78
  C 130.62 329.64 133.08 326.12 136.38 320.16
  A 0.15 0.14 -50.1 0 0 136.37 320.01
  Q 136.23 319.84 136.05 319.82
  A 0.25 0.23 -59.0 0 0 135.85 319.88
  L 132.27 322.88
  A 2.04 2.04 0.0 0 1 128.96 321.73
  L 128.79 320.91
  A 5.03 5.03 0.0 0 1 130.92 315.72
  Q 134.70 313.19 136.30 308.60
  A 1.30 1.30 0.0 0 0 135.40 306.91
  C 134.77 306.75 133.93 306.95 133.32 307.26
  C 131.21 308.36 124.17 311.10 124.34 306.78
  A 1.76 1.75 64.0 0 1 124.67 305.82
  Q 124.93 305.47 129.48 301.21
  Q 132.43 298.44 130.32 295.35
  C 129.13 293.59 128.17 292.22 125.95 293.39
  C 122.67 295.13 118.75 297.87 114.82 298.21
  A 1.14 1.11 66.3 0 1 113.88 297.83
  C 111.32 294.91 114.73 291.84 117.10 290.41
  A 0.71 0.71 0.0 0 0 117.09 289.19
  L 115.79 288.44
  A 1.88 1.88 0.0 0 0 113.99 288.40
  C 110.24 290.36 107.62 294.83 105.42 298.27
  A 3.93 3.92 16.2 0 1 102.08 300.10
  L 96.89 300.09
  Q 85.47 300.60 78.06 291.28
  Q 73.16 284.17 73.02 275.29
  C 72.99 273.60 73.88 272.67 75.33 272.30
  A 2.59 2.45 73.0 0 1 78.29 273.98
  Q 80.36 279.83 80.88 281.14
  Q 85.56 293.05 98.74 293.11
  A 1.37 1.36 11.3 0 0 100.00 292.28
  C 102.90 285.53 112.02 276.96 119.97 281.60
  Q 123.31 283.55 126.31 285.78
  A 1.84 1.82 63.3 0 0 127.41 286.15
  L 130.34 286.15
  A 1.45 1.39 -33.6 0 1 130.84 286.24
  Q 135.78 288.17 138.08 292.81
  A 1.87 1.75 -63.7 0 1 138.24 293.34
  L 139.06 299.08
  A 0.88 0.86 -79.6 0 0 139.49 299.72
  L 139.78 299.89
  A 0.53 0.52 14.0 0 0 140.57 299.42
  Q 140.18 290.57 146.40 287.91
  Q 149.44 286.61 151.09 286.45
  Q 153.73 286.19 154.49 285.28
  C 156.92 282.34 160.69 280.24 164.26 280.10
  C 170.11 279.87 176.14 286.19 178.71 291.08
  C 179.86 293.27 180.85 292.93 183.35 292.83
  Q 188.88 292.59 193.24 289.11
  C 197.43 285.77 199.12 280.29 200.34 275.12
  C 201.36 270.85 206.72 270.95 206.77 275.78
  C 206.90 289.58 196.30 300.55 182.13 300.24
  Z"
/>
<path fill="#a07957" d="
  M 182.13 300.24
  Q 181.09 299.95 180.41 300.20
  A 0.47 0.47 0.0 0 0 180.25 300.98
  Q 181.88 302.52 182.01 304.26
  Q 182.39 309.32 182.45 311.41
  A 6.83 1.56 81.4 0 1 182.25 314.10
  L 178.06 331.51
  L 174.30 336.36
  A 0.72 0.72 0.0 0 0 174.19 337.04
  Q 174.32 337.42 174.71 337.80
  Q 160.24 334.06 153.22 330.77
  C 149.68 329.11 144.99 325.63 144.45 321.48
  A 0.51 0.51 0.0 0 1 145.27 321.02
  L 147.58 322.88
  A 1.41 1.35 68.0 0 0 148.18 323.15
  C 152.21 323.86 150.72 318.93 149.79 317.13
  A 2.74 2.60 9.9 0 0 149.27 316.43
  L 146.53 313.85
  A 4.39 4.23 -83.0 0 1 145.62 312.64
  Q 144.48 310.35 144.15 308.00
  A 1.12 1.12 0.0 0 1 145.96 306.97
  L 148.01 308.62
  A 2.31 2.28 -31.1 0 0 149.92 309.08
  L 154.55 308.12
  A 1.04 1.04 0.0 0 0 155.08 306.37
  C 152.17 303.43 149.84 301.33 148.28 298.31
  A 1.75 1.74 -50.0 0 1 148.17 296.98
  Q 149.57 292.47 154.18 294.28
  Q 158.06 295.80 160.98 297.44
  C 162.47 298.27 164.15 298.55 165.44 297.47
  A 2.33 2.28 49.8 0 0 165.68 294.19
  Q 163.09 291.20 162.53 290.46
  A 1.95 1.76 56.6 0 1 162.95 287.67
  Q 163.54 287.35 164.86 287.91
  C 169.51 289.87 171.76 293.89 173.95 298.36
  A 2.29 2.28 -10.1 0 0 175.80 299.64
  L 182.13 300.24
  Z"
/>
<path fill="#a07957" d="
  M 107.17 336.88
  Q 106.82 335.41 103.72 333.95
  L 100.85 328.67
  A 7.70 7.54 -66.6 0 1 100.17 326.90
  C 99.04 322.33 98.91 319.23 97.88 314.05
  Q 97.12 310.24 97.50 307.17
  A 2.07 2.04 41.4 0 0 97.44 306.32
  L 96.83 304.13
  A 0.50 0.50 0.0 0 1 97.10 303.54
  Q 98.13 303.06 97.91 302.49
  Q 98.44 300.87 96.89 300.09
  L 102.08 300.10
  A 3.93 3.92 16.2 0 0 105.42 298.27
  C 107.62 294.83 110.24 290.36 113.99 288.40
  A 1.88 1.88 0.0 0 1 115.79 288.44
  L 117.09 289.19
  A 0.71 0.71 0.0 0 1 117.10 290.41
  C 114.73 291.84 111.32 294.91 113.88 297.83
  A 1.14 1.11 66.3 0 0 114.82 298.21
  C 118.75 297.87 122.67 295.13 125.95 293.39
  C 128.17 292.22 129.13 293.59 130.32 295.35
  Q 132.43 298.44 129.48 301.21
  Q 124.93 305.47 124.67 305.82
  A 1.76 1.75 64.0 0 0 124.34 306.78
  C 124.17 311.10 131.21 308.36 133.32 307.26
  C 133.93 306.95 134.77 306.75 135.40 306.91
  A 1.30 1.30 0.0 0 1 136.30 308.60
  Q 134.70 313.19 130.92 315.72
  A 5.03 5.03 0.0 0 0 128.79 320.91
  L 128.96 321.73
  A 2.04 2.04 0.0 0 0 132.27 322.88
  L 135.85 319.88
  A 0.25 0.23 -59.0 0 1 136.05 319.82
  Q 136.23 319.84 136.37 320.01
  A 0.15 0.14 -50.1 0 1 136.38 320.16
  C 133.08 326.12 130.62 329.64 123.91 331.78
  Q 121.03 332.70 112.49 335.75
  Q 109.97 336.65 107.17 336.88
  Z"
/>
<path fill="#dcb390" d="
  M 78.06 291.28
  Q 85.47 300.60 96.89 300.09
  Q 98.44 300.87 97.91 302.49
  Q 97.00 303.22 95.50 302.81
  C 88.07 300.76 82.77 299.16 77.70 293.89
  A 1.65 1.64 19.0 0 1 77.27 293.02
  Q 77.07 291.69 78.06 291.28
  Z"
/>
<path fill="#dcb390" d="
  M 30.30 301.62
  Q 31.63 312.77 35.69 320.08
  Q 44.07 335.18 62.11 342.53
  Q 82.25 350.73 103.24 346.08
  Q 107.91 345.05 115.29 342.56
  Q 120.69 340.75 127.32 338.83
  Q 134.50 336.76 139.04 330.76
  A 0.73 0.73 0.0 0 1 140.19 330.74
  C 144.08 335.56 148.62 338.06 155.27 339.77
  C 161.42 341.36 169.10 344.66 174.92 345.94
  Q 194.56 350.25 213.39 344.09
  C 225.60 340.09 238.23 331.01 244.12 319.51
  Q 247.51 312.87 249.02 302.75
  Q 249.52 299.36 247.26 298.53
  A 1.61 1.61 0.0 0 0 246.16 298.53
  C 242.27 299.96 242.96 303.75 241.62 306.85
  Q 230.08 333.71 202.17 339.09
  Q 189.21 341.59 174.71 337.80
  Q 174.32 337.42 174.19 337.04
  A 0.72 0.72 0.0 0 1 174.30 336.36
  L 178.06 331.51
  Q 178.10 333.57 177.34 335.42
  A 0.65 0.65 0.0 0 0 177.82 336.31
  C 186.12 337.88 196.43 338.71 204.69 336.35
  C 210.65 334.64 216.66 333.19 221.00 329.50
  Q 223.49 327.37 226.13 325.71
  Q 229.49 323.61 232.36 319.11
  Q 238.13 310.05 240.08 305.86
  Q 240.57 304.81 242.42 299.71
  A 2.58 2.51 -14.1 0 1 242.97 298.82
  Q 244.67 297.05 245.83 294.47
  A 0.49 0.49 0.0 0 1 246.66 294.37
  Q 251.88 300.97 249.76 309.31
  Q 246.17 323.39 235.58 333.35
  Q 233.30 335.50 226.04 340.63
  A 13.05 12.89 -71.9 0 1 222.74 342.33
  Q 220.28 343.18 215.98 345.19
  C 211.22 347.40 205.35 348.69 200.22 349.72
  C 192.29 351.31 186.45 350.14 176.81 348.67
  Q 173.83 348.21 160.48 343.29
  C 153.45 340.69 146.12 339.62 140.52 334.38
  A 1.06 1.06 0.0 0 0 139.05 334.41
  C 135.38 338.11 128.43 340.94 124.01 341.93
  Q 119.89 342.86 116.53 344.36
  Q 111.02 346.81 104.97 348.12
  Q 100.59 349.07 98.58 349.56
  C 93.13 350.89 87.17 350.39 82.08 350.07
  Q 77.30 349.77 72.28 348.07
  Q 59.71 343.80 55.11 341.16
  C 48.00 337.07 40.81 332.22 36.57 325.42
  Q 32.22 318.46 32.21 318.44
  A 10.50 10.12 -72.1 0 1 31.09 316.15
  Q 28.97 310.09 28.41 302.38
  Q 28.33 301.20 29.26 300.74
  Q 29.79 300.47 30.30 301.62
  Z"
/>
<path fill="#dcb390" d="
  M 103.72 333.95
  Q 106.82 335.41 107.17 336.88
  C 83.65 343.87 60.74 339.06 44.98 319.77
  Q 42.12 316.27 40.72 313.22
  Q 44.18 314.27 45.21 315.93
  Q 50.05 323.76 57.19 329.10
  Q 64.14 334.29 73.39 336.34
  Q 82.59 338.39 94.66 337.24
  Q 100.40 336.70 103.72 333.95
  Z"
/>
<path fill="#dcb390" d="
  M 32.76 438.02
  C 30.54 435.65 27.98 433.38 26.19 430.91
  C 16.65 417.66 14.62 399.46 21.71 384.45
  Q 22.38 383.03 25.02 378.05
  A 0.41 0.41 0.0 0 1 25.72 378.00
  C 27.83 380.89 30.49 382.97 34.14 382.32
  A 1.12 1.11 8.6 0 0 34.91 381.76
  Q 35.93 379.85 34.58 378.15
  Q 21.94 362.27 17.68 351.30
  Q 16.57 348.46 13.41 337.85
  Q 14.11 336.79 14.97 336.98
  A 0.63 0.61 88.1 0 1 15.43 337.43
  Q 17.47 345.15 21.13 354.27
  Q 23.04 359.02 26.64 364.74
  Q 31.79 372.93 33.17 374.63
  Q 35.95 378.07 36.23 378.97
  A 2.14 2.08 41.9 0 1 36.30 379.98
  Q 35.54 384.58 30.74 383.86
  A 1.21 1.21 0.0 0 1 30.29 383.71
  L 26.25 381.52
  A 1.03 1.02 30.3 0 0 24.89 381.87
  Q 22.39 385.76 20.69 393.06
  Q 19.69 397.34 19.73 401.57
  Q 19.81 409.67 19.83 410.14
  Q 20.01 413.40 22.29 420.50
  C 24.33 426.82 29.56 432.80 34.71 436.31
  A 0.99 0.99 0.0 0 1 34.08 438.12
  L 32.76 438.02
  Z"
/>
<path fill="#dcb390" d="
  M 196.10 409.09
  Q 188.73 411.36 181.50 413.37
  Q 165.89 417.71 151.75 418.41
  C 140.72 418.96 127.98 419.34 116.37 417.63
  Q 98.89 415.05 80.81 408.08
  C 78.34 407.13 77.38 408.89 76.76 411.02
  A 1.39 1.39 0.0 0 0 76.90 412.12
  C 78.35 414.56 84.80 417.50 87.56 418.25
  A 0.63 0.63 0.0 0 1 87.82 419.33
  Q 81.58 425.00 78.70 433.03
  Q 78.00 433.30 77.68 432.35
  A 1.13 1.10 -44.2 0 1 77.70 431.61
  Q 79.98 425.71 84.15 420.65
  A 1.38 1.38 0.0 0 0 83.68 418.52
  C 81.34 417.41 79.64 416.21 77.68 414.54
  Q 74.34 411.72 76.62 407.52
  A 1.78 1.75 -0.9 0 1 77.30 406.83
  Q 78.68 406.06 80.30 406.51
  C 85.88 408.06 91.32 410.30 96.21 411.37
  Q 112.14 414.83 119.38 415.80
  Q 129.17 417.11 144.25 416.89
  Q 145.28 416.88 147.85 416.34
  A 9.83 9.41 -50.6 0 1 149.42 416.15
  Q 162.02 415.68 174.63 413.38
  C 175.78 413.17 177.35 412.37 178.78 412.06
  Q 190.66 409.44 193.27 408.56
  Q 197.03 407.28 196.10 409.09
  Z"
/>
<path fill="#a07957" d="
  M 250.19 446.78
  C 247.98 446.76 244.76 448.95 246.26 451.57
  Q 247.98 454.57 249.87 457.62
  A 1.68 1.68 0.0 0 1 248.44 460.18
  L 246.62 460.18
  A 3.49 3.47 78.5 0 1 243.42 458.05
  C 241.65 453.80 239.49 450.61 235.24 448.95
  A 1.58 1.57 24.9 0 0 233.28 449.66
  C 231.22 453.46 234.07 456.19 236.70 458.48
  A 0.79 0.79 0.0 0 1 236.19 459.87
  Q 224.76 460.04 212.18 457.89
  Q 206.92 456.99 203.93 454.23
  A 2.31 2.28 -78.8 0 1 203.33 453.32
  Q 201.88 449.22 202.12 445.95
  Q 204.77 442.31 209.16 441.47
  Q 218.90 439.58 228.28 439.06
  Q 236.09 438.63 243.74 438.25
  A 2.69 2.69 0.0 0 1 246.22 439.63
  L 250.19 446.78
  Z"
/>
<path fill="#a07957" d="
  M 43.04 457.99
  C 43.82 456.71 45.81 455.38 46.18 454.48
  Q 47.07 452.34 46.37 449.71
  A 1.36 1.36 0.0 0 0 44.64 448.76
  C 40.87 449.99 37.71 454.79 36.45 458.10
  A 3.61 3.59 10.3 0 1 33.08 460.41
  L 31.30 460.41
  A 1.72 1.71 19.9 0 1 29.98 457.60
  Q 32.44 454.64 33.97 449.96
  C 34.67 447.82 31.88 446.90 30.33 447.35
  C 31.24 444.96 32.78 442.64 33.52 440.30
  Q 33.82 439.37 35.01 438.71
  Q 36.09 438.12 37.17 438.24
  C 45.22 439.13 54.08 438.58 63.04 440.12
  Q 66.37 440.69 74.79 441.61
  A 0.85 0.84 81.9 0 1 75.49 442.14
  Q 79.29 451.48 69.89 454.71
  Q 57.44 459.00 43.04 457.99
  Z"
/>
</svg>
