<?xml version="1.0" encoding="UTF-8" standalone="no"?>
<!DOCTYPE svg PUBLIC "-//W3C//DTD SVG 1.1//EN" "http://www.w3.org/Graphics/SVG/1.1/DTD/svg11.dtd">
<svg xmlns="http://www.w3.org/2000/svg" version="1.1" viewBox="0.00 0.00 286.00 485.00">
<g stroke-width="2.00" fill="none" stroke-linecap="butt">
<path stroke="#4a290e" vector-effect="non-scaling-stroke" d="
  M 171.55 17.87
  Q 171.52 19.05 172.36 19.26"
/>
<path stroke="#704f2e" vector-effect="non-scaling-stroke" d="
  M 172.36 19.26
  L 175.03 26.71"
/>
<path stroke="#8f6442" vector-effect="non-scaling-stroke" d="
  M 264.02 402.27
  Q 259.72 406.72 258.31 408.80
  Q 257.48 410.01 256.29 413.55"
/>
<path stroke="#7a5336" vector-effect="non-scaling-stroke" d="
  M 256.29 413.55
  Q 255.45 415.27 255.30 416.96"
/>
<path stroke="#4a290e" vector-effect="non-scaling-stroke" d="
  M 186.81 481.50
  Q 186.25 481.25 185.49 481.37"
/>
<path stroke="#b68a62" vector-effect="non-scaling-stroke" d="
  M 256.40 414.72
  L 256.29 413.55"
/>
<path stroke="#9b7e48" vector-effect="non-scaling-stroke" d="
  M 121.91 70.52
  C 129.30 74.96 136.68 77.13 145.54 76.79
  Q 151.96 76.55 155.42 75.80
  Q 165.34 73.65 172.23 66.88
  C 173.31 65.82 174.81 63.71 174.96 62.43
  Q 175.67 56.70 175.19 50.47
  C 174.66 43.68 171.20 37.00 169.66 30.06
  C 167.04 18.20 158.68 9.48 146.81 9.08
  Q 132.28 8.60 124.03 20.34
  Q 121.51 23.93 119.50 30.63
  C 116.78 39.67 115.16 44.88 113.89 52.16
  Q 111.76 64.41 121.91 70.52"
/>
<path stroke="#9b7e48" vector-effect="non-scaling-stroke" d="
  M 181.72 57.46
  C 185.85 52.89 181.11 45.57 177.75 41.61
  A 0.19 0.19 0.0 0 0 177.43 41.81
  Q 180.91 49.14 180.97 57.17
  A 0.43 0.43 0.0 0 0 181.72 57.46"
/>
<path stroke="#9b7e48" vector-effect="non-scaling-stroke" d="
  M 108.30 56.77
  L 111.17 44.23
  A 0.10 0.10 0.0 0 0 111.10 44.11
  L 111.03 44.10
  A 6.31 2.27 -77.1 0 0 107.41 49.74
  L 107.31 50.17
  A 6.31 2.27 -77.1 0 0 108.12 56.83
  L 108.18 56.85
  A 0.10 0.10 0.0 0 0 108.30 56.77"
/>
<path stroke="#9b7e48" vector-effect="non-scaling-stroke" d="
  M 131.2156 24.5045
  A 2.72 2.03 -97.7 0 0 129.5683 27.4720
  A 2.72 2.03 -97.7 0 0 131.9444 29.8955
  A 2.72 2.03 -97.7 0 0 133.5917 26.9280
  A 2.72 2.03 -97.7 0 0 131.2156 24.5045"
/>
<path stroke="#9b7e48" vector-effect="non-scaling-stroke" d="
  M 158.8297 24.4871
  A 2.53 1.92 -85.7 0 0 156.7254 26.8660
  A 2.53 1.92 -85.7 0 0 158.4503 29.5329
  A 2.53 1.92 -85.7 0 0 160.5546 27.1540
  A 2.53 1.92 -85.7 0 0 158.8297 24.4871"
/>
<path stroke="#9b7e48" vector-effect="non-scaling-stroke" d="
  M 147.72 33.06
  Q 150.08 32.94 151.41 31.49
  A 1.06 1.06 0.0 0 0 151.09 29.82
  L 148.26 28.44"
/>
<path stroke="#a5834f" vector-effect="non-scaling-stroke" d="
  M 148.26 28.44
  Q 146.08 26.73 143.57 27.05
  A 1.11 1.03 -59.9 0 0 143.15 27.18
  L 138.72 29.61
  A 1.34 1.34 0.0 0 0 138.20 31.46
  C 140.05 34.63 144.78 33.41 147.72 33.06"
/>
<path stroke="#4a290e" vector-effect="non-scaling-stroke" d="
  M 148.26 28.44
  Q 148.00 28.47 147.73 28.63"
/>
<path stroke="#a5834f" vector-effect="non-scaling-stroke" d="
  M 147.73 28.63
  Q 144.16 26.77 141.57 28.66
  A 1.65 1.65 0.0 0 0 141.63 31.36
  Q 144.12 33.03 147.19 32.15"
/>
<path stroke="#4a290e" vector-effect="non-scaling-stroke" d="
  M 147.19 32.15
  Q 147.42 33.19 147.72 33.06"
/>
<path stroke="#9b7e48" vector-effect="non-scaling-stroke" d="
  M 147.73 28.63
  C 149.33 29.74 148.93 31.52 147.19 32.15"
/>
<path stroke="#9b7254" vector-effect="non-scaling-stroke" d="
  M 59.11 163.05
  C 53.03 173.58 47.76 186.54 44.44 193.90
  C 35.23 214.30 28.34 236.04 29.63 258.26
  Q 30.10 266.40 32.13 272.20
  Q 37.94 288.73 51.52 306.01
  Q 53.24 308.21 51.16 309.77
  A 3.30 2.46 -43.3 0 1 47.71 310.17
  C 37.40 302.82 29.87 291.61 25.80 279.88
  C 25.25 278.29 25.40 276.27 24.98 274.41
  A 0.34 0.34 0.0 0 0 24.33 274.39
  Q 21.98 282.07 20.27 287.24
  Q 15.99 300.11 13.61 311.74
  C 12.56 316.88 12.26 322.05 11.66 326.65
  Q 10.82 333.14 10.89 337.89
  Q 11.22 359.47 19.55 378.50
  Q 22.28 384.71 24.45 389.72
  A 17.48 17.17 -75.4 0 0 26.32 392.97
  Q 30.44 398.64 36.74 404.77
  Q 52.69 420.29 72.85 427.90
  Q 82.37 431.50 93.83 436.17
  C 99.35 438.42 107.59 440.68 114.24 443.77"
/>
<path stroke="#8f6442" vector-effect="non-scaling-stroke" d="
  M 114.24 443.77
  Q 115.83 445.98 117.40 446.40
  Q 121.23 447.41 128.57 447.88
  Q 141.42 448.70 154.30 447.82"
/>
<path stroke="#9b7254" vector-effect="non-scaling-stroke" d="
  M 154.30 447.82
  Q 161.41 447.58 168.51 446.77
  Q 168.77 446.74 170.69 445.89
  A 4.26 4.11 -61.3 0 1 171.62 445.60
  Q 177.40 444.57 178.78 443.98
  Q 184.62 441.47 190.64 440.22
  A 6.89 6.56 25.9 0 0 192.08 439.76
  C 196.76 437.68 201.15 436.57 206.24 434.27
  Q 215.33 430.16 223.96 425.06
  Q 228.86 422.16 231.91 419.72
  C 235.94 416.50 240.08 413.83 244.23 409.81
  Q 244.87 409.19 249.01 405.75
  C 254.85 400.91 261.76 393.00 264.78 385.13
  Q 268.38 375.76 270.93 367.25
  Q 278.05 343.55 273.29 319.65
  Q 272.11 313.70 271.01 307.95
  Q 269.28 298.95 264.64 285.30
  C 263.53 282.06 263.13 278.25 261.65 275.68
  A 0.58 0.58 0.0 0 0 260.58 275.88
  C 260.12 278.82 260.04 280.67 258.91 283.43
  Q 254.61 293.88 247.79 301.43
  C 244.39 305.19 240.51 310.64 235.22 310.32
  A 1.69 1.69 0.0 0 1 233.62 308.57
  Q 233.69 306.67 235.01 304.77
  Q 236.94 302.01 246.44 287.88
  Q 249.58 283.21 251.54 277.55
  Q 254.65 268.59 254.95 266.48
  Q 257.39 249.59 254.39 235.03
  Q 250.43 215.88 247.81 209.41
  Q 238.97 187.56 236.29 181.46
  Q 232.67 173.23 226.95 163.00"
/>
<path stroke="#7a5336" vector-effect="non-scaling-stroke" d="
  M 226.95 163.00
  L 232.60 158.42
  A 1.17 0.52 -66.0 0 0 232.70 158.33
  C 239.74 150.21 243.26 140.75 239.44 130.39
  C 237.27 124.54 234.92 120.62 229.14 118.63
  Q 224.98 117.21 220.27 119.71
  C 215.50 122.24 213.31 125.53 209.98 129.23
  Q 207.39 132.12 206.55 134.31
  Q 204.63 139.28 202.74 141.87"
/>
<path stroke="#9b7254" vector-effect="non-scaling-stroke" d="
  M 202.74 141.87
  C 195.23 136.40 187.86 133.97 179.27 131.40"
/>
<path stroke="#8f6442" vector-effect="non-scaling-stroke" d="
  M 179.27 131.40
  C 173.68 129.36 169.82 128.78 161.31 127.36
  Q 154.74 126.26 148.62 126.39
  Q 133.54 126.70 130.74 126.93
  Q 113.93 128.27 97.29 134.65
  C 93.95 135.92 90.30 138.26 86.62 139.85
  Q 85.33 140.41 81.92 143.62"
/>
<path stroke="#7a5336" vector-effect="non-scaling-stroke" d="
  M 81.92 143.62
  Q 77.89 126.94 63.94 119.32
  C 57.65 115.89 53.16 118.83 49.43 123.90
  C 42.10 133.88 44.11 143.45 49.65 153.47
  Q 52.54 158.68 58.36 161.78
  A 1.20 1.20 0.0 0 1 58.95 162.51
  L 59.11 163.05"
/>
<path stroke="#b68a62" vector-effect="non-scaling-stroke" d="
  M 81.92 143.62
  Q 75.35 146.83 70.35 151.60
  Q 65.35 156.38 60.76 161.46"
/>
<path stroke="#c19874" vector-effect="non-scaling-stroke" d="
  M 60.76 161.46
  L 59.11 163.05"
/>
<path stroke="#d7a880" vector-effect="non-scaling-stroke" d="
  M 179.27 131.40
  Q 178.47 131.30 177.95 131.43
  A 0.81 0.80 46.1 0 0 177.92 132.99
  Q 181.95 134.09 189.65 136.97
  Q 193.55 138.43 199.45 142.31
  Q 203.28 144.83 209.07 147.91
  A 6.62 6.38 -7.4 0 1 210.53 148.99
  Q 214.92 153.32 221.32 160.18
  Q 222.07 160.98 224.37 162.45
  A 1.61 1.59 5.8 0 1 225.00 163.21
  Q 226.02 165.73 228.95 170.53
  Q 230.21 172.61 232.90 177.84
  Q 234.37 180.71 236.00 185.50
  Q 238.53 192.94 241.78 201.60
  Q 242.73 204.11 244.05 206.71
  C 245.84 210.20 246.36 213.95 247.65 217.51
  Q 248.04 218.59 252.05 230.89
  Q 252.54 232.38 252.68 241.55
  A 17.27 15.80 42.5 0 0 252.89 243.91
  Q 256.80 267.65 243.91 287.66
  Q 238.31 296.36 232.64 305.14
  Q 230.80 307.98 232.59 310.08
  C 235.04 312.96 239.75 311.35 242.50 309.69
  C 245.73 307.73 250.92 302.02 253.49 297.86
  Q 259.39 288.32 260.91 285.28
  A 0.67 0.66 51.8 0 1 262.15 285.43
  C 263.12 289.63 264.69 292.67 265.72 296.90
  Q 267.22 303.08 270.11 317.62
  Q 272.92 331.75 272.12 343.52
  C 271.29 355.86 270.49 364.16 266.94 373.24
  Q 263.92 380.96 261.86 386.35
  Q 260.42 390.11 255.48 396.15
  C 255.13 396.58 254.97 397.18 254.59 397.59
  Q 250.51 401.97 248.21 403.88
  Q 244.29 407.16 241.61 409.92
  Q 238.10 413.52 230.42 419.09
  Q 228.89 420.20 224.76 422.34
  Q 224.25 422.61 219.01 425.52
  Q 202.48 434.71 181.64 440.91
  Q 172.52 443.63 156.55 445.37
  Q 154.47 445.59 151.77 447.12
  A 0.22 0.22 0.0 0 0 151.86 447.53
  L 154.30 447.82"
/>
<path stroke="#d7a880" vector-effect="non-scaling-stroke" d="
  M 114.24 443.77
  Q 114.64 444.02 114.88 443.83
  A 0.79 0.76 39.3 0 0 114.73 442.55
  C 111.41 440.75 106.77 438.78 102.87 437.54
  Q 96.57 435.52 89.48 432.38
  Q 87.76 431.62 84.96 430.70
  Q 80.49 429.23 80.36 429.23
  A 2.27 2.23 60.8 0 1 79.40 428.95
  C 75.50 426.72 71.92 425.85 68.01 423.73
  Q 66.00 422.63 62.01 421.19
  Q 57.98 419.73 51.87 415.15
  Q 45.39 410.28 34.73 399.33
  Q 31.40 395.91 28.24 391.21
  Q 25.31 386.87 23.43 382.04
  Q 21.03 375.85 18.36 369.68
  C 17.05 366.65 16.44 362.87 15.45 359.69
  A 5.40 5.19 35.7 0 1 15.23 358.49
  Q 14.92 354.55 13.78 351.12
  A 6.40 6.39 -57.9 0 1 13.49 349.85
  Q 12.56 342.50 12.18 337.78
  Q 11.97 335.10 13.50 325.06
  C 14.11 321.03 14.15 317.34 15.13 313.86
  Q 16.03 310.63 16.75 306.78
  C 18.09 299.53 20.60 292.07 22.14 285.56
  A 1.46 1.04 -35.5 0 1 22.23 285.30
  L 23.35 282.88
  A 0.70 0.70 0.0 0 1 24.65 282.96
  Q 27.00 290.10 33.02 297.77
  Q 38.03 304.15 38.67 304.86
  Q 41.98 308.51 47.33 311.67
  Q 49.01 312.67 51.03 311.59
  Q 54.26 309.87 53.86 306.77
  A 1.96 1.90 -64.7 0 0 53.60 306.01
  Q 52.38 303.94 50.32 301.98
  A 6.51 6.28 7.1 0 1 49.32 300.74
  Q 42.50 289.55 36.91 278.67
  C 34.39 273.75 32.32 267.57 31.92 263.02
  Q 31.50 258.16 32.10 242.90
  Q 32.17 241.13 32.75 238.40
  C 33.41 235.30 33.62 232.56 34.91 228.85
  Q 35.95 225.90 36.01 223.67
  A 2.56 2.45 60.7 0 1 36.28 222.62
  Q 36.61 221.98 37.91 217.16
  Q 38.66 214.39 39.74 211.84
  C 41.99 206.53 43.44 200.87 45.72 195.22
  Q 47.67 190.38 51.40 181.33
  Q 54.44 173.94 60.73 164.01
  Q 61.57 162.69 60.76 161.46"
/>
<path stroke="#c19874" vector-effect="non-scaling-stroke" d="
  M 226.95 163.00
  Q 220.63 157.78 215.29 150.86
  A 6.31 6.12 -0.8 0 0 213.90 149.55
  L 202.74 141.87"
/>
<path stroke="#7a5336" vector-effect="non-scaling-stroke" d="
  M 198.60 471.03
  Q 199.09 470.87 199.59 470.35
  Q 205.55 464.24 207.80 456.75
  A 0.49 0.49 0.0 0 0 207.41 456.13
  L 199.64 454.84
  A 1.23 1.23 0.0 0 1 198.74 453.09
  C 200.14 450.21 202.08 449.75 205.24 449.60
  Q 219.37 448.96 230.11 439.49
  Q 232.63 437.26 234.39 434.99
  Q 235.89 433.04 238.61 430.40
  Q 239.84 429.22 243.62 422.29
  Q 243.79 421.98 243.62 421.75
  A 0.43 0.42 -39.9 0 0 242.99 421.70
  C 236.93 427.55 229.66 432.85 221.45 436.42
  Q 215.44 439.03 208.66 442.90
  Q 203.80 445.67 197.42 447.72
  Q 183.45 452.21 179.75 452.99
  C 176.61 453.65 172.74 452.81 173.68 457.76
  C 174.50 462.04 176.10 469.72 179.10 471.45
  A 0.64 0.63 -76.7 0 0 180.05 470.86
  C 179.86 467.70 181.69 464.82 183.84 460.90
  A 1.28 1.27 -42.3 0 1 186.13 461.00
  Q 188.98 467.60 185.08 473.75
  A 1.11 1.11 0.0 0 0 186.26 475.43
  L 188.24 474.90
  A 4.54 4.54 0.0 0 0 191.30 472.17
  L 195.35 461.92
  A 0.87 0.87 0.0 0 1 196.88 461.76
  Q 199.62 465.93 198.20 470.64
  A 0.32 0.32 0.0 0 0 198.60 471.03"
/>
<path stroke="#7a5336" vector-effect="non-scaling-stroke" d="
  M 45.00 422.73
  A 0.45 0.45 0.0 0 0 44.38 423.35
  Q 48.02 429.12 52.05 432.51
  Q 57.92 437.45 58.17 437.67
  C 61.24 440.39 66.65 443.55 70.24 444.33
  Q 73.54 445.04 81.15 445.65
  A 6.01 6.00 77.2 0 1 85.87 448.63
  L 87.40 451.28
  A 1.54 1.54 0.0 0 1 85.68 453.54
  Q 82.34 452.68 79.62 453.52
  A 1.36 1.35 70.8 0 0 78.76 455.31
  Q 81.81 463.17 86.74 469.55
  Q 87.64 470.72 88.43 471.18
  A 0.53 0.53 0.0 0 0 89.21 470.60
  Q 87.97 465.61 88.59 460.14
  A 0.79 0.78 -73.0 0 1 89.73 459.53
  C 93.25 461.38 94.61 467.42 95.92 471.87
  A 4.33 4.31 -3.3 0 0 99.35 474.91
  L 101.34 475.24
  A 1.33 1.32 81.5 0 0 102.74 473.34
  C 101.53 470.91 98.09 462.42 101.38 460.91
  A 1.58 1.49 63.7 0 1 103.36 461.65
  C 105.01 464.82 107.92 468.78 107.89 472.48
  A 0.69 0.69 0.0 0 0 109.18 472.82
  Q 114.06 464.17 113.96 454.83
  A 1.88 1.87 9.5 0 0 112.72 453.10
  Q 105.80 450.64 103.71 450.02
  C 93.32 446.92 83.31 442.02 73.40 437.08
  Q 70.99 435.87 66.12 435.10
  Q 64.17 434.79 59.43 431.82
  Q 52.23 427.30 45.00 422.73"
/>
<path stroke="#7a5336" vector-effect="non-scaling-stroke" d="
  M 70.52 150.09
  L 70.67 149.53
  Q 70.67 149.52 70.67 149.51
  C 70.47 143.19 67.76 129.78 61.01 126.93
  Q 56.88 125.19 54.43 128.94
  A 0.51 0.50 -51.3 0 0 54.49 129.56
  C 59.82 135.04 62.30 141.04 65.27 147.97
  Q 66.21 150.17 68.19 151.15
  A 1.65 1.65 0.0 0 0 70.52 150.09"
/>
<path stroke="#7a5336" vector-effect="non-scaling-stroke" d="
  M 215.06 148.43
  C 215.54 152.57 220.12 150.59 221.05 147.96
  Q 223.09 142.27 225.30 136.54
  A 7.00 6.86 72.7 0 1 225.95 135.27
  Q 227.65 132.71 229.88 129.78
  A 2.29 2.17 -53.2 0 0 229.51 126.61
  C 225.76 123.87 219.60 130.04 217.99 133.20
  Q 214.17 140.72 215.06 148.43"
/>
<path stroke="#d7a880" vector-effect="non-scaling-stroke" d="
  M 95.39 199.62
  Q 95.37 197.18 94.68 196.30
  C 90.46 190.95 84.05 189.09 76.45 186.04
  Q 74.71 185.35 68.66 183.87
  C 63.74 182.67 60.06 184.44 57.86 188.53
  A 2.01 1.94 59.5 0 0 57.61 189.57
  C 57.78 194.18 64.78 197.82 68.57 198.99
  Q 76.22 201.34 84.18 203.90
  C 89.38 205.56 92.33 205.10 95.13 200.56
  A 1.89 1.81 -30.8 0 0 95.39 199.62"
/>
<path stroke="#d7a880" vector-effect="non-scaling-stroke" d="
  M 195.67 200.95
  L 197.60 204.29
  A 1.99 1.99 0.0 0 0 199.25 205.28
  Q 205.45 205.50 212.03 202.76
  C 218.07 200.23 220.28 199.75 226.33 197.65
  Q 230.84 196.08 232.67 191.99
  A 1.86 1.77 54.1 0 0 232.80 191.02
  Q 231.59 182.66 223.64 184.13
  Q 211.75 186.33 201.08 192.41
  Q 196.66 194.93 195.51 199.89
  A 1.46 1.45 36.6 0 0 195.67 200.95"
/>
<path stroke="#b68a62" vector-effect="non-scaling-stroke" d="
  M 92.72 292.96
  C 93.18 294.56 94.36 296.62 94.83 298.49
  A 2.68 2.66 21.5 0 0 95.19 299.31
  Q 99.96 306.61 106.19 309.80
  Q 113.39 313.49 119.82 314.88
  Q 139.85 319.19 162.28 315.63
  C 170.68 314.29 179.13 310.99 184.68 304.91
  Q 186.34 303.08 189.89 298.26
  C 193.75 293.00 195.10 287.12 195.94 281.00
  Q 197.26 271.39 197.81 263.50
  Q 199.16 244.34 195.15 226.66
  Q 193.35 218.75 190.97 214.74
  C 185.97 206.34 176.38 198.08 167.12 195.81
  C 162.21 194.60 158.73 193.23 153.95 192.85
  Q 144.81 192.13 134.25 192.53
  C 131.24 192.65 128.10 193.75 124.54 194.41
  C 118.23 195.60 111.20 198.70 106.04 203.14
  C 102.35 206.32 98.57 208.94 97.13 211.61
  Q 95.15 215.27 90.60 225.63
  A 4.41 4.27 62.6 0 0 90.30 226.63
  Q 88.86 235.14 87.85 244.46
  Q 86.08 260.87 88.40 276.06
  Q 89.02 280.10 92.72 292.96"
/>
<path stroke="#b68a62" vector-effect="non-scaling-stroke" d="
  M 180.14 326.97
  A 1.21 1.21 0.0 0 0 178.22 326.56
  Q 175.92 328.65 173.53 329.04
  C 166.57 330.19 158.65 332.10 152.32 332.65
  Q 133.19 334.30 113.49 329.24
  Q 111.34 328.69 109.15 327.57
  A 1.19 1.19 0.0 0 0 107.43 328.41
  L 107.09 330.34
  A 2.56 2.56 0.0 0 0 108.40 333.06
  C 110.41 334.21 113.50 336.39 116.49 337.59
  Q 125.15 341.04 127.25 342.02
  C 129.28 342.97 133.11 343.94 134.60 344.01
  Q 150.22 344.75 157.33 343.52
  Q 163.32 342.48 174.98 336.77
  A 3.93 3.86 3.5 0 0 176.50 335.45
  Q 177.50 333.96 178.95 333.22
  C 181.34 332.02 180.95 328.79 180.14 326.97"
/>
<path stroke="#8f6442" vector-effect="non-scaling-stroke" d="
  M 169.58 422.40
  Q 170.33 428.86 175.86 429.64
  Q 177.13 429.82 180.42 429.53
  A 3.94 3.94 0.0 0 1 181.57 429.60
  Q 189.96 431.30 195.49 426.18"
/>
<path stroke="#d7a880" vector-effect="non-scaling-stroke" d="
  M 195.49 426.18
  L 200.08 423.54
  A 1.49 1.47 43.0 0 1 201.47 423.50
  L 210.17 427.87
  A 0.32 0.31 33.9 0 0 210.55 427.80
  L 210.73 427.60
  A 0.67 0.67 0.0 0 0 210.66 426.67
  L 203.00 419.97
  A 0.95 0.94 -54.4 0 1 202.81 418.78
  Q 204.37 416.14 206.96 412.85
  Q 208.84 410.45 212.41 408.11
  Q 219.45 403.48 225.05 399.81
  C 227.21 398.38 230.50 394.51 233.76 392.21
  Q 235.25 391.15 236.33 389.62
  Q 242.54 380.76 245.78 372.09
  Q 247.75 366.84 247.22 364.87
  Q 245.51 358.50 238.81 359.68
  A 2.30 2.28 0.7 0 0 236.96 361.47
  Q 233.74 376.88 222.27 388.04
  Q 218.68 391.54 215.24 393.23
  A 0.23 0.22 51.8 0 0 215.20 393.60
  L 215.49 393.86
  A 0.12 0.12 0.0 0 0 215.60 393.88
  L 219.00 392.79"
/>
<path stroke="#8f6442" vector-effect="non-scaling-stroke" d="
  M 219.00 392.79
  L 207.17 401.32
  A 1.48 1.37 24.7 0 1 206.37 401.58
  Q 203.13 401.59 200.83 404.04"
/>
<path stroke="#b68a62" vector-effect="non-scaling-stroke" d="
  M 200.83 404.04
  L 199.69 404.31
  A 0.41 0.40 10.4 0 1 199.26 403.69
  Q 202.62 398.59 208.42 396.61
  A 0.77 0.77 0.0 0 0 208.46 395.17
  Q 204.18 393.45 202.11 388.91
  C 199.75 383.69 194.88 375.97 189.14 374.31
  Q 185.24 373.18 182.07 373.31
  A 1.61 1.60 -67.4 0 0 181.03 373.74
  L 178.78 375.83
  A 1.32 1.26 -9.9 0 0 178.47 376.25
  Q 175.40 382.53 171.77 388.55
  C 170.68 390.37 169.96 392.75 169.39 394.63
  A 0.48 0.48 0.0 0 1 168.50 394.69
  Q 168.29 394.23 168.46 393.17"
/>
<path stroke="#8f6442" vector-effect="non-scaling-stroke" d="
  M 168.46 393.17
  Q 169.04 390.59 169.41 389.93
  Q 174.33 381.02 176.84 376.19
  C 179.11 371.81 182.45 368.01 185.78 365.21
  C 189.67 361.93 192.15 357.80 193.89 354.00
  A 1.83 1.81 -36.8 0 0 194.04 353.00
  Q 193.82 351.06 192.42 349.56"
/>
<path stroke="#d7a880" vector-effect="non-scaling-stroke" d="
  M 192.42 349.56
  Q 192.75 349.38 192.85 349.10
  A 0.44 0.43 -69.7 0 0 192.60 348.54
  Q 189.80 347.49 187.68 349.50
  Q 181.08 355.72 177.08 359.32
  Q 173.54 362.50 166.75 371.77
  Q 163.16 376.67 162.28 379.80
  Q 161.29 383.29 160.47 384.23
  A 1.63 1.62 -18.3 0 0 160.11 384.94
  Q 158.82 390.31 157.35 394.82
  C 155.48 400.53 155.68 404.54 158.74 409.02
  Q 163.48 415.95 169.58 422.40"
/>
<path stroke="#9b7254" vector-effect="non-scaling-stroke" d="
  M 192.42 349.56
  Q 190.83 348.91 189.51 350.01
  Q 186.98 352.11 178.52 360.27
  Q 176.02 362.68 170.30 370.50
  Q 166.69 375.43 164.03 382.00
  Q 159.56 393.06 158.58 398.64
  Q 157.44 405.14 162.39 411.14
  C 163.17 412.08 165.43 413.11 166.60 414.23
  A 2.01 2.00 -77.9 0 1 167.12 415.04
  L 169.58 422.40"
/>
<path stroke="#7a5336" vector-effect="non-scaling-stroke" d="
  M 168.46 393.17
  Q 166.06 398.29 167.62 403.97
  A 1.47 1.47 0.0 0 0 170.20 404.48
  L 174.26 399.21
  A 1.23 1.22 -45.3 0 1 176.19 399.20
  Q 176.47 399.56 176.63 401.09
  Q 176.99 404.69 175.43 409.36
  C 174.73 411.42 174.70 414.14 175.80 416.08
  A 1.46 1.46 0.0 0 0 177.95 416.52
  Q 182.60 412.99 185.64 408.09
  A 1.15 1.15 0.0 0 1 187.74 408.43
  Q 188.26 410.63 187.76 412.54
  C 187.26 414.47 187.07 416.90 186.95 418.20
  A 0.68 0.68 0.0 0 0 187.92 418.87
  C 190.80 417.45 192.84 415.13 194.90 411.94
  Q 197.57 407.79 200.83 404.04"
/>
<path stroke="#9b7254" vector-effect="non-scaling-stroke" d="
  M 219.00 392.79
  Q 233.85 381.61 238.85 362.92
  A 1.80 1.80 0.0 0 1 240.54 361.57
  C 245.84 361.41 246.01 365.53 244.57 369.60
  Q 241.30 378.79 236.82 385.26
  C 232.05 392.13 225.03 398.47 218.08 402.81
  Q 208.59 408.73 208.24 408.99
  Q 204.94 411.34 204.45 412.22
  Q 200.60 419.11 195.49 426.18"
/>
<path stroke="#d7a880" vector-effect="non-scaling-stroke" d="
  M 101.43 363.98
  Q 100.42 363.61 100.18 364.22
  A 0.39 0.37 -58.5 0 0 100.27 364.63
  Q 103.86 367.93 106.24 372.19"
/>
<path stroke="#b68a62" vector-effect="non-scaling-stroke" d="
  M 106.24 372.19
  C 101.77 372.62 98.35 372.59 94.29 375.12
  Q 92.44 376.27 89.64 381.15
  Q 87.76 384.42 84.34 388.65
  A 3.88 3.88 0.0 0 1 83.68 389.31
  Q 80.03 392.22 78.52 396.03"
/>
<path stroke="#d7a880" vector-effect="non-scaling-stroke" d="
  M 78.52 396.03
  Q 77.20 394.72 75.06 393.64
  A 7.46 7.37 -10.0 0 1 73.35 392.46
  C 70.10 389.50 66.48 386.92 64.20 384.24
  Q 58.87 377.95 54.67 370.69
  C 53.04 367.87 52.22 363.70 51.39 361.40
  C 50.67 359.38 48.40 359.23 46.70 359.07
  Q 45.15 358.93 44.32 359.76
  Q 43.24 360.85 40.56 364.23
  A 1.06 1.05 53.3 0 0 40.41 365.28
  Q 40.77 366.20 41.14 368.67
  Q 41.38 370.27 42.20 372.43
  Q 50.20 393.47 70.20 404.19
  C 74.00 406.22 76.44 407.85 79.97 410.07
  A 2.09 2.07 -88.3 0 1 80.69 410.84
  Q 83.10 415.22 83.36 411.00"
/>
<path stroke="#8f6442" vector-effect="non-scaling-stroke" d="
  M 83.36 411.00
  Q 87.06 418.37 89.97 421.03
  Q 91.77 422.66 93.91 424.59
  Q 94.49 425.11 94.45 425.42
  A 0.98 0.88 21.8 0 1 92.97 425.96
  Q 91.28 424.86 90.00 424.87
  A 0.69 0.69 0.0 0 0 89.67 426.16
  Q 95.84 429.68 102.92 429.29
  A 1.91 1.89 -61.9 0 0 103.76 429.03
  Q 105.02 428.27 106.17 426.61
  A 1.12 1.12 0.0 0 1 108.06 426.69
  Q 109.20 428.68 111.48 428.56
  A 2.19 2.13 -64.2 0 0 112.61 428.15
  Q 115.78 425.79 116.35 424.68
  Q 117.73 422.02 119.28 420.14
  C 120.72 418.39 120.72 417.29 120.88 415.24
  Q 121.07 412.93 122.74 411.86
  C 125.62 410.01 130.60 404.99 130.02 401.00
  Q 128.44 390.27 125.20 383.18
  Q 123.32 379.07 117.96 370.67
  Q 115.53 366.86 110.21 361.34
  Q 104.32 355.22 101.30 352.31
  Q 98.89 350.00 95.96 349.47
  A 0.53 0.52 -79.7 0 0 95.35 349.90
  L 95.05 351.71
  A 0.56 0.55 9.4 0 1 94.41 352.16
  L 93.47 352.01
  A 0.54 0.53 -23.1 0 0 93.08 352.98
  Q 94.02 353.60 94.82 355.14
  Q 97.41 360.16 101.43 363.98"
/>
<path stroke="#9b7254" vector-effect="non-scaling-stroke" d="
  M 83.36 411.00
  Q 76.94 405.94 69.22 401.26
  Q 61.33 396.48 58.74 394.08
  Q 47.07 383.21 43.03 366.54
  A 4.41 4.40 -19.1 0 1 45.49 361.49
  L 45.91 361.30
  A 2.85 2.84 73.5 0 1 49.90 363.47
  Q 50.76 369.18 53.79 373.98
  Q 57.57 379.96 62.84 385.91
  Q 66.25 389.77 78.51 398.02"
/>
<path stroke="#7a5336" vector-effect="non-scaling-stroke" d="
  M 78.51 398.02
  Q 84.50 400.74 89.00 405.35
  Q 90.97 407.38 92.16 409.40
  C 93.95 412.42 95.61 416.03 98.83 418.02
  A 1.13 1.13 0.0 0 0 100.55 417.06
  L 100.55 408.27
  A 1.06 1.06 0.0 0 1 102.29 407.46
  Q 103.61 408.59 105.18 411.17
  C 106.70 413.65 108.53 414.88 111.15 415.64
  A 1.45 1.44 13.9 0 0 112.97 414.55
  C 113.59 411.49 112.50 408.63 111.34 403.74
  Q 110.78 401.38 111.55 399.09
  A 1.25 1.25 0.0 0 1 113.75 398.76
  Q 115.89 401.72 118.55 403.44
  A 0.92 0.92 0.0 0 0 119.83 403.15
  Q 120.87 401.49 120.87 399.51
  Q 120.89 390.05 116.15 383.32"
/>
<path stroke="#9b7254" vector-effect="non-scaling-stroke" d="
  M 116.15 383.32
  Q 112.70 377.70 109.88 372.62
  Q 108.27 369.71 101.43 363.98"
/>
<path stroke="#c19874" vector-effect="non-scaling-stroke" d="
  M 78.52 396.03
  Q 79.12 396.95 79.06 397.50
  Q 79.04 397.74 78.51 398.02"
/>
<path stroke="#c19874" vector-effect="non-scaling-stroke" d="
  M 116.15 383.32
  Q 115.78 384.65 114.05 382.32
  Q 113.53 381.62 112.54 379.73
  Q 110.13 375.12 106.24 372.19"
/>
<path stroke="#9b7254" vector-effect="non-scaling-stroke" d="
  M 59.72 189.81
  C 60.46 193.68 65.80 195.20 69.34 196.14
  Q 79.05 198.69 88.25 202.53
  A 3.16 3.16 0.0 0 0 91.50 202.05
  Q 94.88 199.24 92.06 196.08
  Q 89.85 193.59 87.86 192.68
  Q 80.77 189.44 66.71 185.66
  A 3.41 3.26 50.1 0 0 65.72 185.55
  C 63.89 185.61 59.24 187.31 59.72 189.81"
/>
<path stroke="#9b7254" vector-effect="non-scaling-stroke" d="
  M 201.07 202.71
  L 230.37 193.19
  A 2.09 2.09 0.0 0 0 231.71 190.56
  L 231.29 189.28
  A 7.84 5.42 -18.0 0 0 222.16 186.54
  L 203.80 192.51
  A 7.84 5.42 -18.0 0 0 198.02 200.09
  L 198.44 201.37
  A 2.09 2.09 0.0 0 0 201.07 202.71"
/>
<path stroke="#7a5336" vector-effect="non-scaling-stroke" d="
  M 156.61 232.59
  Q 159.16 233.49 161.31 232.49
  Q 167.57 229.59 173.55 225.05
  C 178.65 221.17 173.40 215.27 168.65 216.74
  Q 162.39 218.67 158.16 223.20
  C 155.42 226.14 152.68 228.43 155.81 232.05
  A 1.88 1.83 78.2 0 0 156.61 232.59"
/>
<path stroke="#7a5336" vector-effect="non-scaling-stroke" d="
  M 129.31 232.66
  Q 131.85 229.98 129.63 226.85
  C 127.08 223.23 120.59 217.55 115.73 216.73
  Q 113.68 216.38 111.26 218.23
  C 103.33 224.29 123.12 232.00 126.67 233.29
  A 2.49 2.47 -58.2 0 0 129.31 232.66"
/>
<path stroke="#7a5336" vector-effect="non-scaling-stroke" d="
  M 167.72 295.86
  A 1.19 1.18 29.2 0 0 167.34 294.54
  Q 165.25 292.89 162.53 291.71
  Q 156.62 289.16 147.24 284.71
  A 0.99 0.98 9.0 0 1 146.68 283.95
  Q 146.01 279.22 145.98 278.53
  Q 145.33 263.43 146.04 242.22
  A 4.75 4.74 -75.8 0 0 143.43 237.82
  L 142.76 237.48
  A 2.25 2.25 0.0 0 0 139.50 239.52
  Q 139.72 258.62 139.30 272.59
  C 139.09 279.53 139.52 283.05 133.95 286.29
  Q 128.45 289.49 125.18 290.71
  Q 122.74 291.62 119.62 293.83
  Q 117.76 295.16 118.17 296.74
  C 119.49 301.76 130.85 296.30 133.61 294.63
  Q 137.39 292.34 141.23 290.76
  A 2.78 2.76 46.8 0 1 143.54 290.84
  L 158.03 298.12
  A 2.81 2.59 61.3 0 0 158.80 298.38
  C 162.40 299.06 166.33 299.82 167.72 295.86"
/>
<path stroke="#8f6442" vector-effect="non-scaling-stroke" d="
  M 179.6528 424.0554
  A 2.33 0.84 -169.0 0 0 181.7797 425.3246
  A 2.33 0.84 -169.0 0 0 184.2272 424.9446
  A 2.33 0.84 -169.0 0 0 182.1003 423.6754
  A 2.33 0.84 -169.0 0 0 179.6528 424.0554"
/>
<path stroke="#7a5336" vector-effect="non-scaling-stroke" d="
  M 103.5500 424.0474
  A 1.48 0.67 -179.9 0 0 105.0288 424.7200
  A 1.48 0.67 -179.9 0 0 106.5100 424.0526
  A 1.48 0.67 -179.9 0 0 105.0312 423.3800
  A 1.48 0.67 -179.9 0 0 103.5500 424.0474"
/>
</g>
<path fill="#402406" d="
  M 171.55 17.87
  Q 171.52 19.05 172.36 19.26
  L 175.03 26.71
  L 176.52 32.75
  A 3.23 3.15 18.4 0 0 177.21 34.09
  C 181.46 38.99 189.08 47.01 188.08 54.03
  C 187.24 59.97 182.29 62.49 178.79 67.05
  C 168.33 80.63 151.01 85.32 134.47 81.52
  C 125.71 79.51 118.80 75.14 112.67 68.29
  Q 108.37 63.49 104.89 60.05
  C 97.54 52.77 106.95 41.48 111.71 35.46
  Q 112.76 34.14 114.64 27.91
  C 118.83 14.09 128.87 7.13 142.44 3.65
  C 145.04 2.99 148.79 4.03 151.82 4.87
  C 159.34 6.95 167.98 10.76 171.55 17.87
  Z
  M 121.91 70.52
  C 129.30 74.96 136.68 77.13 145.54 76.79
  Q 151.96 76.55 155.42 75.80
  Q 165.34 73.65 172.23 66.88
  C 173.31 65.82 174.81 63.71 174.96 62.43
  Q 175.67 56.70 175.19 50.47
  C 174.66 43.68 171.20 37.00 169.66 30.06
  C 167.04 18.20 158.68 9.48 146.81 9.08
  Q 132.28 8.60 124.03 20.34
  Q 121.51 23.93 119.50 30.63
  C 116.78 39.67 115.16 44.88 113.89 52.16
  Q 111.76 64.41 121.91 70.52
  Z
  M 181.72 57.46
  C 185.85 52.89 181.11 45.57 177.75 41.61
  A 0.19 0.19 0.0 0 0 177.43 41.81
  Q 180.91 49.14 180.97 57.17
  A 0.43 0.43 0.0 0 0 181.72 57.46
  Z
  M 108.30 56.77
  L 111.17 44.23
  A 0.10 0.10 0.0 0 0 111.10 44.11
  L 111.03 44.10
  A 6.31 2.27 -77.1 0 0 107.41 49.74
  L 107.31 50.17
  A 6.31 2.27 -77.1 0 0 108.12 56.83
  L 108.18 56.85
  A 0.10 0.10 0.0 0 0 108.30 56.77
  Z"
/>
<path fill="#f6d889" d="
  M 145.54 76.79
  C 136.68 77.13 129.30 74.96 121.91 70.52
  Q 111.76 64.41 113.89 52.16
  C 115.16 44.88 116.78 39.67 119.50 30.63
  Q 121.51 23.93 124.03 20.34
  Q 132.28 8.60 146.81 9.08
  C 158.68 9.48 167.04 18.20 169.66 30.06
  C 171.20 37.00 174.66 43.68 175.19 50.47
  Q 175.67 56.70 174.96 62.43
  C 174.81 63.71 173.31 65.82 172.23 66.88
  Q 165.34 73.65 155.42 75.80
  Q 151.96 76.55 145.54 76.79
  Z
  M 131.2156 24.5045
  A 2.72 2.03 -97.7 0 0 129.5683 27.4720
  A 2.72 2.03 -97.7 0 0 131.9444 29.8955
  A 2.72 2.03 -97.7 0 0 133.5917 26.9280
  A 2.72 2.03 -97.7 0 0 131.2156 24.5045
  Z
  M 158.8297 24.4871
  A 2.53 1.92 -85.7 0 0 156.7254 26.8660
  A 2.53 1.92 -85.7 0 0 158.4503 29.5329
  A 2.53 1.92 -85.7 0 0 160.5546 27.1540
  A 2.53 1.92 -85.7 0 0 158.8297 24.4871
  Z
  M 147.72 33.06
  Q 150.08 32.94 151.41 31.49
  A 1.06 1.06 0.0 0 0 151.09 29.82
  L 148.26 28.44
  Q 146.08 26.73 143.57 27.05
  A 1.11 1.03 -59.9 0 0 143.15 27.18
  L 138.72 29.61
  A 1.34 1.34 0.0 0 0 138.20 31.46
  C 140.05 34.63 144.78 33.41 147.72 33.06
  Z"
/>
<path fill="#532d15" d="
  M 172.36 19.26
  Q 171.52 19.05 171.55 17.87
  L 172.36 19.26
  Z"
/>
<path fill="#a07956" d="
  M 175.03 26.71
  L 172.36 19.26
  L 175.03 26.71
  Z"
/>
<ellipse fill="#402406" cx="0.00" cy="0.00" transform="translate(131.58,27.20) rotate(-97.7)" rx="2.72" ry="2.03"/>
<ellipse fill="#402406" cx="0.00" cy="0.00" transform="translate(158.64,27.01) rotate(-85.7)" rx="2.53" ry="1.92"/>
<path fill="#532d15" d="
  M 148.26 28.44
  Q 148.00 28.47 147.73 28.63
  Q 144.16 26.77 141.57 28.66
  A 1.65 1.65 0.0 0 0 141.63 31.36
  Q 144.12 33.03 147.19 32.15
  Q 147.42 33.19 147.72 33.06
  C 144.78 33.41 140.05 34.63 138.20 31.46
  A 1.34 1.34 0.0 0 1 138.72 29.61
  L 143.15 27.18
  A 1.11 1.03 -59.9 0 1 143.57 27.05
  Q 146.08 26.73 148.26 28.44
  Z"
/>
<path fill="#f6d889" d="
  M 147.73 28.63
  C 149.33 29.74 148.93 31.52 147.19 32.15
  Q 144.12 33.03 141.63 31.36
  A 1.65 1.65 0.0 0 1 141.57 28.66
  Q 144.16 26.77 147.73 28.63
  Z"
/>
<path fill="#402406" d="
  M 148.26 28.44
  L 151.09 29.82
  A 1.06 1.06 0.0 0 1 151.41 31.49
  Q 150.08 32.94 147.72 33.06
  Q 147.42 33.19 147.19 32.15
  C 148.93 31.52 149.33 29.74 147.73 28.63
  Q 148.00 28.47 148.26 28.44
  Z"
/>
<path fill="#f6d889" d="
  M 181.72 57.46
  A 0.43 0.43 0.0 0 1 180.97 57.17
  Q 180.91 49.14 177.43 41.81
  A 0.19 0.19 0.0 0 1 177.75 41.61
  C 181.11 45.57 185.85 52.89 181.72 57.46
  Z"
/>
<path fill="#f6d889" d="
  M 108.30 56.77
  A 0.10 0.10 0.0 0 1 108.18 56.85
  L 108.12 56.83
  A 6.31 2.27 -77.1 0 1 107.31 50.17
  L 107.41 49.74
  A 6.31 2.27 -77.1 0 1 111.03 44.10
  L 111.10 44.11
  A 0.10 0.10 0.0 0 1 111.17 44.23
  L 108.30 56.77
  Z"
/>
<path fill="#532d15" d="
  M 264.02 402.27
  Q 259.72 406.72 258.31 408.80
  Q 257.48 410.01 256.29 413.55
  Q 255.45 415.27 255.30 416.96
  Q 244.49 444.13 217.86 455.15
  A 4.00 3.97 -1.0 0 0 215.65 457.42
  Q 213.71 462.49 210.88 467.38
  C 206.19 475.46 196.54 482.18 186.81 481.50
  Q 186.25 481.25 185.49 481.37
  C 171.24 480.06 167.48 467.29 165.62 455.32
  A 0.55 0.54 86.1 0 0 165.10 454.85
  L 123.37 453.80
  A 1.02 1.02 0.0 0 0 122.32 454.71
  C 121.07 466.32 116.94 479.56 103.73 481.48
  C 96.05 482.59 86.53 478.91 80.57 473.41
  C 74.71 467.99 71.23 457.13 70.02 449.23
  A 1.02 1.02 0.0 0 0 69.19 448.38
  C 62.69 447.24 56.69 445.41 51.07 441.66
  C 41.56 435.33 36.57 424.07 32.32 413.67
  A 10.52 10.41 -74.4 0 0 31.06 411.41
  C 14.43 388.78 1.60 359.73 3.15 331.06
  C 4.40 307.96 11.08 285.16 20.62 264.06
  A 12.16 12.12 59.5 0 0 21.65 260.06
  C 22.67 247.41 24.25 235.96 26.47 224.17
  Q 32.36 193.01 47.95 165.31
  A 1.54 1.52 44.1 0 0 47.92 163.76
  C 38.41 148.06 33.22 130.32 46.39 114.70
  C 47.75 113.08 51.07 111.95 53.38 111.78
  Q 66.12 110.87 75.60 118.83
  Q 81.43 123.74 84.82 129.62
  A 2.16 2.16 0.0 0 0 87.53 130.53
  Q 102.63 124.17 121.04 120.52
  Q 146.24 115.53 173.26 122.07
  Q 184.63 124.82 198.42 129.40
  A 2.40 2.39 26.0 0 0 201.16 128.46
  Q 206.77 120.05 214.57 114.82
  C 223.35 108.93 238.97 111.76 243.92 121.65
  C 251.31 136.40 246.93 151.55 238.30 164.51
  A 2.34 2.33 48.0 0 0 238.18 166.91
  Q 246.65 182.78 252.86 199.78
  C 260.07 219.53 263.37 239.46 263.36 260.18
  A 10.70 10.66 -56.5 0 0 264.19 264.31
  Q 276.71 294.14 281.36 325.64
  Q 282.61 334.09 282.75 344.50
  C 283.01 365.16 275.08 385.83 264.02 402.27
  Z
  M 59.11 163.05
  C 53.03 173.58 47.76 186.54 44.44 193.90
  C 35.23 214.30 28.34 236.04 29.63 258.26
  Q 30.10 266.40 32.13 272.20
  Q 37.94 288.73 51.52 306.01
  Q 53.24 308.21 51.16 309.77
  A 3.30 2.46 -43.3 0 1 47.71 310.17
  C 37.40 302.82 29.87 291.61 25.80 279.88
  C 25.25 278.29 25.40 276.27 24.98 274.41
  A 0.34 0.34 0.0 0 0 24.33 274.39
  Q 21.98 282.07 20.27 287.24
  Q 15.99 300.11 13.61 311.74
  C 12.56 316.88 12.26 322.05 11.66 326.65
  Q 10.82 333.14 10.89 337.89
  Q 11.22 359.47 19.55 378.50
  Q 22.28 384.71 24.45 389.72
  A 17.48 17.17 -75.4 0 0 26.32 392.97
  Q 30.44 398.64 36.74 404.77
  Q 52.69 420.29 72.85 427.90
  Q 82.37 431.50 93.83 436.17
  C 99.35 438.42 107.59 440.68 114.24 443.77
  Q 115.83 445.98 117.40 446.40
  Q 121.23 447.41 128.57 447.88
  Q 141.42 448.70 154.30 447.82
  Q 161.41 447.58 168.51 446.77
  Q 168.77 446.74 170.69 445.89
  A 4.26 4.11 -61.3 0 1 171.62 445.60
  Q 177.40 444.57 178.78 443.98
  Q 184.62 441.47 190.64 440.22
  A 6.89 6.56 25.9 0 0 192.08 439.76
  C 196.76 437.68 201.15 436.57 206.24 434.27
  Q 215.33 430.16 223.96 425.06
  Q 228.86 422.16 231.91 419.72
  C 235.94 416.50 240.08 413.83 244.23 409.81
  Q 244.87 409.19 249.01 405.75
  C 254.85 400.91 261.76 393.00 264.78 385.13
  Q 268.38 375.76 270.93 367.25
  Q 278.05 343.55 273.29 319.65
  Q 272.11 313.70 271.01 307.95
  Q 269.28 298.95 264.64 285.30
  C 263.53 282.06 263.13 278.25 261.65 275.68
  A 0.58 0.58 0.0 0 0 260.58 275.88
  C 260.12 278.82 260.04 280.67 258.91 283.43
  Q 254.61 293.88 247.79 301.43
  C 244.39 305.19 240.51 310.64 235.22 310.32
  A 1.69 1.69 0.0 0 1 233.62 308.57
  Q 233.69 306.67 235.01 304.77
  Q 236.94 302.01 246.44 287.88
  Q 249.58 283.21 251.54 277.55
  Q 254.65 268.59 254.95 266.48
  Q 257.39 249.59 254.39 235.03
  Q 250.43 215.88 247.81 209.41
  Q 238.97 187.56 236.29 181.46
  Q 232.67 173.23 226.95 163.00
  L 232.60 158.42
  A 1.17 0.52 -66.0 0 0 232.70 158.33
  C 239.74 150.21 243.26 140.75 239.44 130.39
  C 237.27 124.54 234.92 120.62 229.14 118.63
  Q 224.98 117.21 220.27 119.71
  C 215.50 122.24 213.31 125.53 209.98 129.23
  Q 207.39 132.12 206.55 134.31
  Q 204.63 139.28 202.74 141.87
  C 195.23 136.40 187.86 133.97 179.27 131.40
  C 173.68 129.36 169.82 128.78 161.31 127.36
  Q 154.74 126.26 148.62 126.39
  Q 133.54 126.70 130.74 126.93
  Q 113.93 128.27 97.29 134.65
  C 93.95 135.92 90.30 138.26 86.62 139.85
  Q 85.33 140.41 81.92 143.62
  Q 77.89 126.94 63.94 119.32
  C 57.65 115.89 53.16 118.83 49.43 123.90
  C 42.10 133.88 44.11 143.45 49.65 153.47
  Q 52.54 158.68 58.36 161.78
  A 1.20 1.20 0.0 0 1 58.95 162.51
  L 59.11 163.05
  Z
  M 198.60 471.03
  Q 199.09 470.87 199.59 470.35
  Q 205.55 464.24 207.80 456.75
  A 0.49 0.49 0.0 0 0 207.41 456.13
  L 199.64 454.84
  A 1.23 1.23 0.0 0 1 198.74 453.09
  C 200.14 450.21 202.08 449.75 205.24 449.60
  Q 219.37 448.96 230.11 439.49
  Q 232.63 437.26 234.39 434.99
  Q 235.89 433.04 238.61 430.40
  Q 239.84 429.22 243.62 422.29
  Q 243.79 421.98 243.62 421.75
  A 0.43 0.42 -39.9 0 0 242.99 421.70
  C 236.93 427.55 229.66 432.85 221.45 436.42
  Q 215.44 439.03 208.66 442.90
  Q 203.80 445.67 197.42 447.72
  Q 183.45 452.21 179.75 452.99
  C 176.61 453.65 172.74 452.81 173.68 457.76
  C 174.50 462.04 176.10 469.72 179.10 471.45
  A 0.64 0.63 -76.7 0 0 180.05 470.86
  C 179.86 467.70 181.69 464.82 183.84 460.90
  A 1.28 1.27 -42.3 0 1 186.13 461.00
  Q 188.98 467.60 185.08 473.75
  A 1.11 1.11 0.0 0 0 186.26 475.43
  L 188.24 474.90
  A 4.54 4.54 0.0 0 0 191.30 472.17
  L 195.35 461.92
  A 0.87 0.87 0.0 0 1 196.88 461.76
  Q 199.62 465.93 198.20 470.64
  A 0.32 0.32 0.0 0 0 198.60 471.03
  Z
  M 45.00 422.73
  A 0.45 0.45 0.0 0 0 44.38 423.35
  Q 48.02 429.12 52.05 432.51
  Q 57.92 437.45 58.17 437.67
  C 61.24 440.39 66.65 443.55 70.24 444.33
  Q 73.54 445.04 81.15 445.65
  A 6.01 6.00 77.2 0 1 85.87 448.63
  L 87.40 451.28
  A 1.54 1.54 0.0 0 1 85.68 453.54
  Q 82.34 452.68 79.62 453.52
  A 1.36 1.35 70.8 0 0 78.76 455.31
  Q 81.81 463.17 86.74 469.55
  Q 87.64 470.72 88.43 471.18
  A 0.53 0.53 0.0 0 0 89.21 470.60
  Q 87.97 465.61 88.59 460.14
  A 0.79 0.78 -73.0 0 1 89.73 459.53
  C 93.25 461.38 94.61 467.42 95.92 471.87
  A 4.33 4.31 -3.3 0 0 99.35 474.91
  L 101.34 475.24
  A 1.33 1.32 81.5 0 0 102.74 473.34
  C 101.53 470.91 98.09 462.42 101.38 460.91
  A 1.58 1.49 63.7 0 1 103.36 461.65
  C 105.01 464.82 107.92 468.78 107.89 472.48
  A 0.69 0.69 0.0 0 0 109.18 472.82
  Q 114.06 464.17 113.96 454.83
  A 1.88 1.87 9.5 0 0 112.72 453.10
  Q 105.80 450.64 103.71 450.02
  C 93.32 446.92 83.31 442.02 73.40 437.08
  Q 70.99 435.87 66.12 435.10
  Q 64.17 434.79 59.43 431.82
  Q 52.23 427.30 45.00 422.73
  Z"
/>
<path fill="#a07956" d="
  M 81.92 143.62
  Q 75.35 146.83 70.35 151.60
  Q 65.35 156.38 60.76 161.46
  L 59.11 163.05
  L 58.95 162.51
  A 1.20 1.20 0.0 0 0 58.36 161.78
  Q 52.54 158.68 49.65 153.47
  C 44.11 143.45 42.10 133.88 49.43 123.90
  C 53.16 118.83 57.65 115.89 63.94 119.32
  Q 77.89 126.94 81.92 143.62
  Z
  M 70.52 150.09
  L 70.67 149.53
  Q 70.67 149.52 70.67 149.51
  C 70.47 143.19 67.76 129.78 61.01 126.93
  Q 56.88 125.19 54.43 128.94
  A 0.51 0.50 -51.3 0 0 54.49 129.56
  C 59.82 135.04 62.30 141.04 65.27 147.97
  Q 66.21 150.17 68.19 151.15
  A 1.65 1.65 0.0 0 0 70.52 150.09
  Z"
/>
<path fill="#a07956" d="
  M 226.95 163.00
  Q 220.63 157.78 215.29 150.86
  A 6.31 6.12 -0.8 0 0 213.90 149.55
  L 202.74 141.87
  Q 204.63 139.28 206.55 134.31
  Q 207.39 132.12 209.98 129.23
  C 213.31 125.53 215.50 122.24 220.27 119.71
  Q 224.98 117.21 229.14 118.63
  C 234.92 120.62 237.27 124.54 239.44 130.39
  C 243.26 140.75 239.74 150.21 232.70 158.33
  A 1.17 0.52 -66.0 0 1 232.60 158.42
  L 226.95 163.00
  Z
  M 215.06 148.43
  C 215.54 152.57 220.12 150.59 221.05 147.96
  Q 223.09 142.27 225.30 136.54
  A 7.00 6.86 72.7 0 1 225.95 135.27
  Q 227.65 132.71 229.88 129.78
  A 2.29 2.17 -53.2 0 0 229.51 126.61
  C 225.76 123.87 219.60 130.04 217.99 133.20
  Q 214.17 140.72 215.06 148.43
  Z"
/>
<path fill="#532d15" d="
  M 221.05 147.96
  C 220.12 150.59 215.54 152.57 215.06 148.43
  Q 214.17 140.72 217.99 133.20
  C 219.60 130.04 225.76 123.87 229.51 126.61
  A 2.29 2.17 -53.2 0 1 229.88 129.78
  Q 227.65 132.71 225.95 135.27
  A 7.00 6.86 72.7 0 0 225.30 136.54
  Q 223.09 142.27 221.05 147.96
  Z"
/>
<path fill="#532d15" d="
  M 70.52 150.09
  A 1.65 1.65 0.0 0 1 68.19 151.15
  Q 66.21 150.17 65.27 147.97
  C 62.30 141.04 59.82 135.04 54.49 129.56
  A 0.51 0.50 -51.3 0 1 54.43 128.94
  Q 56.88 125.19 61.01 126.93
  C 67.76 129.78 70.47 143.19 70.67 149.51
  Q 70.67 149.52 70.67 149.53
  L 70.52 150.09
  Z"
/>
<path fill="#cb9a6e" d="
  M 179.27 131.40
  Q 178.47 131.30 177.95 131.43
  A 0.81 0.80 46.1 0 0 177.92 132.99
  Q 181.95 134.09 189.65 136.97
  Q 193.55 138.43 199.45 142.31
  Q 203.28 144.83 209.07 147.91
  A 6.62 6.38 -7.4 0 1 210.53 148.99
  Q 214.92 153.32 221.32 160.18
  Q 222.07 160.98 224.37 162.45
  A 1.61 1.59 5.8 0 1 225.00 163.21
  Q 226.02 165.73 228.95 170.53
  Q 230.21 172.61 232.90 177.84
  Q 234.37 180.71 236.00 185.50
  Q 238.53 192.94 241.78 201.60
  Q 242.73 204.11 244.05 206.71
  C 245.84 210.20 246.36 213.95 247.65 217.51
  Q 248.04 218.59 252.05 230.89
  Q 252.54 232.38 252.68 241.55
  A 17.27 15.80 42.5 0 0 252.89 243.91
  Q 256.80 267.65 243.91 287.66
  Q 238.31 296.36 232.64 305.14
  Q 230.80 307.98 232.59 310.08
  C 235.04 312.96 239.75 311.35 242.50 309.69
  C 245.73 307.73 250.92 302.02 253.49 297.86
  Q 259.39 288.32 260.91 285.28
  A 0.67 0.66 51.8 0 1 262.15 285.43
  C 263.12 289.63 264.69 292.67 265.72 296.90
  Q 267.22 303.08 270.11 317.62
  Q 272.92 331.75 272.12 343.52
  C 271.29 355.86 270.49 364.16 266.94 373.24
  Q 263.92 380.96 261.86 386.35
  Q 260.42 390.11 255.48 396.15
  C 255.13 396.58 254.97 397.18 254.59 397.59
  Q 250.51 401.97 248.21 403.88
  Q 244.29 407.16 241.61 409.92
  Q 238.10 413.52 230.42 419.09
  Q 228.89 420.20 224.76 422.34
  Q 224.25 422.61 219.01 425.52
  Q 202.48 434.71 181.64 440.91
  Q 172.52 443.63 156.55 445.37
  Q 154.47 445.59 151.77 447.12
  A 0.22 0.22 0.0 0 0 151.86 447.53
  L 154.30 447.82
  Q 141.42 448.70 128.57 447.88
  Q 121.23 447.41 117.40 446.40
  Q 115.83 445.98 114.24 443.77
  Q 114.64 444.02 114.88 443.83
  A 0.79 0.76 39.3 0 0 114.73 442.55
  C 111.41 440.75 106.77 438.78 102.87 437.54
  Q 96.57 435.52 89.48 432.38
  Q 87.76 431.62 84.96 430.70
  Q 80.49 429.23 80.36 429.23
  A 2.27 2.23 60.8 0 1 79.40 428.95
  C 75.50 426.72 71.92 425.85 68.01 423.73
  Q 66.00 422.63 62.01 421.19
  Q 57.98 419.73 51.87 415.15
  Q 45.39 410.28 34.73 399.33
  Q 31.40 395.91 28.24 391.21
  Q 25.31 386.87 23.43 382.04
  Q 21.03 375.85 18.36 369.68
  C 17.05 366.65 16.44 362.87 15.45 359.69
  A 5.40 5.19 35.7 0 1 15.23 358.49
  Q 14.92 354.55 13.78 351.12
  A 6.40 6.39 -57.9 0 1 13.49 349.85
  Q 12.56 342.50 12.18 337.78
  Q 11.97 335.10 13.50 325.06
  C 14.11 321.03 14.15 317.34 15.13 313.86
  Q 16.03 310.63 16.75 306.78
  C 18.09 299.53 20.60 292.07 22.14 285.56
  A 1.46 1.04 -35.5 0 1 22.23 285.30
  L 23.35 282.88
  A 0.70 0.70 0.0 0 1 24.65 282.96
  Q 27.00 290.10 33.02 297.77
  Q 38.03 304.15 38.67 304.86
  Q 41.98 308.51 47.33 311.67
  Q 49.01 312.67 51.03 311.59
  Q 54.26 309.87 53.86 306.77
  A 1.96 1.90 -64.7 0 0 53.60 306.01
  Q 52.38 303.94 50.32 301.98
  A 6.51 6.28 7.1 0 1 49.32 300.74
  Q 42.50 289.55 36.91 278.67
  C 34.39 273.75 32.32 267.57 31.92 263.02
  Q 31.50 258.16 32.10 242.90
  Q 32.17 241.13 32.75 238.40
  C 33.41 235.30 33.62 232.56 34.91 228.85
  Q 35.95 225.90 36.01 223.67
  A 2.56 2.45 60.7 0 1 36.28 222.62
  Q 36.61 221.98 37.91 217.16
  Q 38.66 214.39 39.74 211.84
  C 41.99 206.53 43.44 200.87 45.72 195.22
  Q 47.67 190.38 51.40 181.33
  Q 54.44 173.94 60.73 164.01
  Q 61.57 162.69 60.76 161.46
  Q 65.35 156.38 70.35 151.60
  Q 75.35 146.83 81.92 143.62
  Q 85.33 140.41 86.62 139.85
  C 90.30 138.26 93.95 135.92 97.29 134.65
  Q 113.93 128.27 130.74 126.93
  Q 133.54 126.70 148.62 126.39
  Q 154.74 126.26 161.31 127.36
  C 169.82 128.78 173.68 129.36 179.27 131.40
  Z
  M 95.39 199.62
  Q 95.37 197.18 94.68 196.30
  C 90.46 190.95 84.05 189.09 76.45 186.04
  Q 74.71 185.35 68.66 183.87
  C 63.74 182.67 60.06 184.44 57.86 188.53
  A 2.01 1.94 59.5 0 0 57.61 189.57
  C 57.78 194.18 64.78 197.82 68.57 198.99
  Q 76.22 201.34 84.18 203.90
  C 89.38 205.56 92.33 205.10 95.13 200.56
  A 1.89 1.81 -30.8 0 0 95.39 199.62
  Z
  M 195.67 200.95
  L 197.60 204.29
  A 1.99 1.99 0.0 0 0 199.25 205.28
  Q 205.45 205.50 212.03 202.76
  C 218.07 200.23 220.28 199.75 226.33 197.65
  Q 230.84 196.08 232.67 191.99
  A 1.86 1.77 54.1 0 0 232.80 191.02
  Q 231.59 182.66 223.64 184.13
  Q 211.75 186.33 201.08 192.41
  Q 196.66 194.93 195.51 199.89
  A 1.46 1.45 36.6 0 0 195.67 200.95
  Z
  M 92.72 292.96
  C 93.18 294.56 94.36 296.62 94.83 298.49
  A 2.68 2.66 21.5 0 0 95.19 299.31
  Q 99.96 306.61 106.19 309.80
  Q 113.39 313.49 119.82 314.88
  Q 139.85 319.19 162.28 315.63
  C 170.68 314.29 179.13 310.99 184.68 304.91
  Q 186.34 303.08 189.89 298.26
  C 193.75 293.00 195.10 287.12 195.94 281.00
  Q 197.26 271.39 197.81 263.50
  Q 199.16 244.34 195.15 226.66
  Q 193.35 218.75 190.97 214.74
  C 185.97 206.34 176.38 198.08 167.12 195.81
  C 162.21 194.60 158.73 193.23 153.95 192.85
  Q 144.81 192.13 134.25 192.53
  C 131.24 192.65 128.10 193.75 124.54 194.41
  C 118.23 195.60 111.20 198.70 106.04 203.14
  C 102.35 206.32 98.57 208.94 97.13 211.61
  Q 95.15 215.27 90.60 225.63
  A 4.41 4.27 62.6 0 0 90.30 226.63
  Q 88.86 235.14 87.85 244.46
  Q 86.08 260.87 88.40 276.06
  Q 89.02 280.10 92.72 292.96
  Z
  M 180.14 326.97
  A 1.21 1.21 0.0 0 0 178.22 326.56
  Q 175.92 328.65 173.53 329.04
  C 166.57 330.19 158.65 332.10 152.32 332.65
  Q 133.19 334.30 113.49 329.24
  Q 111.34 328.69 109.15 327.57
  A 1.19 1.19 0.0 0 0 107.43 328.41
  L 107.09 330.34
  A 2.56 2.56 0.0 0 0 108.40 333.06
  C 110.41 334.21 113.50 336.39 116.49 337.59
  Q 125.15 341.04 127.25 342.02
  C 129.28 342.97 133.11 343.94 134.60 344.01
  Q 150.22 344.75 157.33 343.52
  Q 163.32 342.48 174.98 336.77
  A 3.93 3.86 3.5 0 0 176.50 335.45
  Q 177.50 333.96 178.95 333.22
  C 181.34 332.02 180.95 328.79 180.14 326.97
  Z
  M 169.58 422.40
  Q 170.33 428.86 175.86 429.64
  Q 177.13 429.82 180.42 429.53
  A 3.94 3.94 0.0 0 1 181.57 429.60
  Q 189.96 431.30 195.49 426.18
  L 200.08 423.54
  A 1.49 1.47 43.0 0 1 201.47 423.50
  L 210.17 427.87
  A 0.32 0.31 33.9 0 0 210.55 427.80
  L 210.73 427.60
  A 0.67 0.67 0.0 0 0 210.66 426.67
  L 203.00 419.97
  A 0.95 0.94 -54.4 0 1 202.81 418.78
  Q 204.37 416.14 206.96 412.85
  Q 208.84 410.45 212.41 408.11
  Q 219.45 403.48 225.05 399.81
  C 227.21 398.38 230.50 394.51 233.76 392.21
  Q 235.25 391.15 236.33 389.62
  Q 242.54 380.76 245.78 372.09
  Q 247.75 366.84 247.22 364.87
  Q 245.51 358.50 238.81 359.68
  A 2.30 2.28 0.7 0 0 236.96 361.47
  Q 233.74 376.88 222.27 388.04
  Q 218.68 391.54 215.24 393.23
  A 0.23 0.22 51.8 0 0 215.20 393.60
  L 215.49 393.86
  A 0.12 0.12 0.0 0 0 215.60 393.88
  L 219.00 392.79
  L 207.17 401.32
  A 1.48 1.37 24.7 0 1 206.37 401.58
  Q 203.13 401.59 200.83 404.04
  L 199.69 404.31
  A 0.41 0.40 10.4 0 1 199.26 403.69
  Q 202.62 398.59 208.42 396.61
  A 0.77 0.77 0.0 0 0 208.46 395.17
  Q 204.18 393.45 202.11 388.91
  C 199.75 383.69 194.88 375.97 189.14 374.31
  Q 185.24 373.18 182.07 373.31
  A 1.61 1.60 -67.4 0 0 181.03 373.74
  L 178.78 375.83
  A 1.32 1.26 -9.9 0 0 178.47 376.25
  Q 175.40 382.53 171.77 388.55
  C 170.68 390.37 169.96 392.75 169.39 394.63
  A 0.48 0.48 0.0 0 1 168.50 394.69
  Q 168.29 394.23 168.46 393.17
  Q 169.04 390.59 169.41 389.93
  Q 174.33 381.02 176.84 376.19
  C 179.11 371.81 182.45 368.01 185.78 365.21
  C 189.67 361.93 192.15 357.80 193.89 354.00
  A 1.83 1.81 -36.8 0 0 194.04 353.00
  Q 193.82 351.06 192.42 349.56
  Q 192.75 349.38 192.85 349.10
  A 0.44 0.43 -69.7 0 0 192.60 348.54
  Q 189.80 347.49 187.68 349.50
  Q 181.08 355.72 177.08 359.32
  Q 173.54 362.50 166.75 371.77
  Q 163.16 376.67 162.28 379.80
  Q 161.29 383.29 160.47 384.23
  A 1.63 1.62 -18.3 0 0 160.11 384.94
  Q 158.82 390.31 157.35 394.82
  C 155.48 400.53 155.68 404.54 158.74 409.02
  Q 163.48 415.95 169.58 422.40
  Z
  M 101.43 363.98
  Q 100.42 363.61 100.18 364.22
  A 0.39 0.37 -58.5 0 0 100.27 364.63
  Q 103.86 367.93 106.24 372.19
  C 101.77 372.62 98.35 372.59 94.29 375.12
  Q 92.44 376.27 89.64 381.15
  Q 87.76 384.42 84.34 388.65
  A 3.88 3.88 0.0 0 1 83.68 389.31
  Q 80.03 392.22 78.52 396.03
  Q 77.20 394.72 75.06 393.64
  A 7.46 7.37 -10.0 0 1 73.35 392.46
  C 70.10 389.50 66.48 386.92 64.20 384.24
  Q 58.87 377.95 54.67 370.69
  C 53.04 367.87 52.22 363.70 51.39 361.40
  C 50.67 359.38 48.40 359.23 46.70 359.07
  Q 45.15 358.93 44.32 359.76
  Q 43.24 360.85 40.56 364.23
  A 1.06 1.05 53.3 0 0 40.41 365.28
  Q 40.77 366.20 41.14 368.67
  Q 41.38 370.27 42.20 372.43
  Q 50.20 393.47 70.20 404.19
  C 74.00 406.22 76.44 407.85 79.97 410.07
  A 2.09 2.07 -88.3 0 1 80.69 410.84
  Q 83.10 415.22 83.36 411.00
  Q 87.06 418.37 89.97 421.03
  Q 91.77 422.66 93.91 424.59
  Q 94.49 425.11 94.45 425.42
  A 0.98 0.88 21.8 0 1 92.97 425.96
  Q 91.28 424.86 90.00 424.87
  A 0.69 0.69 0.0 0 0 89.67 426.16
  Q 95.84 429.68 102.92 429.29
  A 1.91 1.89 -61.9 0 0 103.76 429.03
  Q 105.02 428.27 106.17 426.61
  A 1.12 1.12 0.0 0 1 108.06 426.69
  Q 109.20 428.68 111.48 428.56
  A 2.19 2.13 -64.2 0 0 112.61 428.15
  Q 115.78 425.79 116.35 424.68
  Q 117.73 422.02 119.28 420.14
  C 120.72 418.39 120.72 417.29 120.88 415.24
  Q 121.07 412.93 122.74 411.86
  C 125.62 410.01 130.60 404.99 130.02 401.00
  Q 128.44 390.27 125.20 383.18
  Q 123.32 379.07 117.96 370.67
  Q 115.53 366.86 110.21 361.34
  Q 104.32 355.22 101.30 352.31
  Q 98.89 350.00 95.96 349.47
  A 0.53 0.52 -79.7 0 0 95.35 349.90
  L 95.05 351.71
  A 0.56 0.55 9.4 0 1 94.41 352.16
  L 93.47 352.01
  A 0.54 0.53 -23.1 0 0 93.08 352.98
  Q 94.02 353.60 94.82 355.14
  Q 97.41 360.16 101.43 363.98
  Z"
/>
<path fill="#e2b692" d="
  M 179.27 131.40
  C 187.86 133.97 195.23 136.40 202.74 141.87
  L 213.90 149.55
  A 6.31 6.12 -0.8 0 1 215.29 150.86
  Q 220.63 157.78 226.95 163.00
  Q 232.67 173.23 236.29 181.46
  Q 238.97 187.56 247.81 209.41
  Q 250.43 215.88 254.39 235.03
  Q 257.39 249.59 254.95 266.48
  Q 254.65 268.59 251.54 277.55
  Q 249.58 283.21 246.44 287.88
  Q 236.94 302.01 235.01 304.77
  Q 233.69 306.67 233.62 308.57
  A 1.69 1.69 0.0 0 0 235.22 310.32
  C 240.51 310.64 244.39 305.19 247.79 301.43
  Q 254.61 293.88 258.91 283.43
  C 260.04 280.67 260.12 278.82 260.58 275.88
  A 0.58 0.58 0.0 0 1 261.65 275.68
  C 263.13 278.25 263.53 282.06 264.64 285.30
  Q 269.28 298.95 271.01 307.95
  Q 272.11 313.70 273.29 319.65
  Q 278.05 343.55 270.93 367.25
  Q 268.38 375.76 264.78 385.13
  C 261.76 393.00 254.85 400.91 249.01 405.75
  Q 244.87 409.19 244.23 409.81
  C 240.08 413.83 235.94 416.50 231.91 419.72
  Q 228.86 422.16 223.96 425.06
  Q 215.33 430.16 206.24 434.27
  C 201.15 436.57 196.76 437.68 192.08 439.76
  A 6.89 6.56 25.9 0 1 190.64 440.22
  Q 184.62 441.47 178.78 443.98
  Q 177.40 444.57 171.62 445.60
  A 4.26 4.11 -61.3 0 0 170.69 445.89
  Q 168.77 446.74 168.51 446.77
  Q 161.41 447.58 154.30 447.82
  L 151.86 447.53
  A 0.22 0.22 0.0 0 1 151.77 447.12
  Q 154.47 445.59 156.55 445.37
  Q 172.52 443.63 181.64 440.91
  Q 202.48 434.71 219.01 425.52
  Q 224.25 422.61 224.76 422.34
  Q 228.89 420.20 230.42 419.09
  Q 238.10 413.52 241.61 409.92
  Q 244.29 407.16 248.21 403.88
  Q 250.51 401.97 254.59 397.59
  C 254.97 397.18 255.13 396.58 255.48 396.15
  Q 260.42 390.11 261.86 386.35
  Q 263.92 380.96 266.94 373.24
  C 270.49 364.16 271.29 355.86 272.12 343.52
  Q 272.92 331.75 270.11 317.62
  Q 267.22 303.08 265.72 296.90
  C 264.69 292.67 263.12 289.63 262.15 285.43
  A 0.67 0.66 51.8 0 0 260.91 285.28
  Q 259.39 288.32 253.49 297.86
  C 250.92 302.02 245.73 307.73 242.50 309.69
  C 239.75 311.35 235.04 312.96 232.59 310.08
  Q 230.80 307.98 232.64 305.14
  Q 238.31 296.36 243.91 287.66
  Q 256.80 267.65 252.89 243.91
  A 17.27 15.80 42.5 0 1 252.68 241.55
  Q 252.54 232.38 252.05 230.89
  Q 248.04 218.59 247.65 217.51
  C 246.36 213.95 245.84 210.20 244.05 206.71
  Q 242.73 204.11 241.78 201.60
  Q 238.53 192.94 236.00 185.50
  Q 234.37 180.71 232.90 177.84
  Q 230.21 172.61 228.95 170.53
  Q 226.02 165.73 225.00 163.21
  A 1.61 1.59 5.8 0 0 224.37 162.45
  Q 222.07 160.98 221.32 160.18
  Q 214.92 153.32 210.53 148.99
  A 6.62 6.38 -7.4 0 0 209.07 147.91
  Q 203.28 144.83 199.45 142.31
  Q 193.55 138.43 189.65 136.97
  Q 181.95 134.09 177.92 132.99
  A 0.81 0.80 46.1 0 1 177.95 131.43
  Q 178.47 131.30 179.27 131.40
  Z"
/>
<path fill="#e2b692" d="
  M 60.76 161.46
  Q 61.57 162.69 60.73 164.01
  Q 54.44 173.94 51.40 181.33
  Q 47.67 190.38 45.72 195.22
  C 43.44 200.87 41.99 206.53 39.74 211.84
  Q 38.66 214.39 37.91 217.16
  Q 36.61 221.98 36.28 222.62
  A 2.56 2.45 60.7 0 0 36.01 223.67
  Q 35.95 225.90 34.91 228.85
  C 33.62 232.56 33.41 235.30 32.75 238.40
  Q 32.17 241.13 32.10 242.90
  Q 31.50 258.16 31.92 263.02
  C 32.32 267.57 34.39 273.75 36.91 278.67
  Q 42.50 289.55 49.32 300.74
  A 6.51 6.28 7.1 0 0 50.32 301.98
  Q 52.38 303.94 53.60 306.01
  A 1.96 1.90 -64.7 0 1 53.86 306.77
  Q 54.26 309.87 51.03 311.59
  Q 49.01 312.67 47.33 311.67
  Q 41.98 308.51 38.67 304.86
  Q 38.03 304.15 33.02 297.77
  Q 27.00 290.10 24.65 282.96
  A 0.70 0.70 0.0 0 0 23.35 282.88
  L 22.23 285.30
  A 1.46 1.04 -35.5 0 0 22.14 285.56
  C 20.60 292.07 18.09 299.53 16.75 306.78
  Q 16.03 310.63 15.13 313.86
  C 14.15 317.34 14.11 321.03 13.50 325.06
  Q 11.97 335.10 12.18 337.78
  Q 12.56 342.50 13.49 349.85
  A 6.40 6.39 -57.9 0 0 13.78 351.12
  Q 14.92 354.55 15.23 358.49
  A 5.40 5.19 35.7 0 0 15.45 359.69
  C 16.44 362.87 17.05 366.65 18.36 369.68
  Q 21.03 375.85 23.43 382.04
  Q 25.31 386.87 28.24 391.21
  Q 31.40 395.91 34.73 399.33
  Q 45.39 410.28 51.87 415.15
  Q 57.98 419.73 62.01 421.19
  Q 66.00 422.63 68.01 423.73
  C 71.92 425.85 75.50 426.72 79.40 428.95
  A 2.27 2.23 60.8 0 0 80.36 429.23
  Q 80.49 429.23 84.96 430.70
  Q 87.76 431.62 89.48 432.38
  Q 96.57 435.52 102.87 437.54
  C 106.77 438.78 111.41 440.75 114.73 442.55
  A 0.79 0.76 39.3 0 1 114.88 443.83
  Q 114.64 444.02 114.24 443.77
  C 107.59 440.68 99.35 438.42 93.83 436.17
  Q 82.37 431.50 72.85 427.90
  Q 52.69 420.29 36.74 404.77
  Q 30.44 398.64 26.32 392.97
  A 17.48 17.17 -75.4 0 1 24.45 389.72
  Q 22.28 384.71 19.55 378.50
  Q 11.22 359.47 10.89 337.89
  Q 10.82 333.14 11.66 326.65
  C 12.26 322.05 12.56 316.88 13.61 311.74
  Q 15.99 300.11 20.27 287.24
  Q 21.98 282.07 24.33 274.39
  A 0.34 0.34 0.0 0 1 24.98 274.41
  C 25.40 276.27 25.25 278.29 25.80 279.88
  C 29.87 291.61 37.40 302.82 47.71 310.17
  A 3.30 2.46 -43.3 0 0 51.16 309.77
  Q 53.24 308.21 51.52 306.01
  Q 37.94 288.73 32.13 272.20
  Q 30.10 266.40 29.63 258.26
  C 28.34 236.04 35.23 214.30 44.44 193.90
  C 47.76 186.54 53.03 173.58 59.11 163.05
  L 60.76 161.46
  Z"
/>
<path fill="#e2b692" d="
  M 95.13 200.56
  C 92.33 205.10 89.38 205.56 84.18 203.90
  Q 76.22 201.34 68.57 198.99
  C 64.78 197.82 57.78 194.18 57.61 189.57
  A 2.01 1.94 59.5 0 1 57.86 188.53
  C 60.06 184.44 63.74 182.67 68.66 183.87
  Q 74.71 185.35 76.45 186.04
  C 84.05 189.09 90.46 190.95 94.68 196.30
  Q 95.37 197.18 95.39 199.62
  A 1.89 1.81 -30.8 0 1 95.13 200.56
  Z
  M 59.72 189.81
  C 60.46 193.68 65.80 195.20 69.34 196.14
  Q 79.05 198.69 88.25 202.53
  A 3.16 3.16 0.0 0 0 91.50 202.05
  Q 94.88 199.24 92.06 196.08
  Q 89.85 193.59 87.86 192.68
  Q 80.77 189.44 66.71 185.66
  A 3.41 3.26 50.1 0 0 65.72 185.55
  C 63.89 185.61 59.24 187.31 59.72 189.81
  Z"
/>
<path fill="#e2b692" d="
  M 195.67 200.95
  A 1.46 1.45 36.6 0 1 195.51 199.89
  Q 196.66 194.93 201.08 192.41
  Q 211.75 186.33 223.64 184.13
  Q 231.59 182.66 232.80 191.02
  A 1.86 1.77 54.1 0 1 232.67 191.99
  Q 230.84 196.08 226.33 197.65
  C 220.28 199.75 218.07 200.23 212.03 202.76
  Q 205.45 205.50 199.25 205.28
  A 1.99 1.99 0.0 0 1 197.60 204.29
  L 195.67 200.95
  Z
  M 201.07 202.71
  L 230.37 193.19
  A 2.09 2.09 0.0 0 0 231.71 190.56
  L 231.29 189.28
  A 7.84 5.42 -18.0 0 0 222.16 186.54
  L 203.80 192.51
  A 7.84 5.42 -18.0 0 0 198.02 200.09
  L 198.44 201.37
  A 2.09 2.09 0.0 0 0 201.07 202.71
  Z"
/>
<path fill="#532d15" d="
  M 59.72 189.81
  C 59.24 187.31 63.89 185.61 65.72 185.55
  A 3.41 3.26 50.1 0 1 66.71 185.66
  Q 80.77 189.44 87.86 192.68
  Q 89.85 193.59 92.06 196.08
  Q 94.88 199.24 91.50 202.05
  A 3.16 3.16 0.0 0 1 88.25 202.53
  Q 79.05 198.69 69.34 196.14
  C 65.80 195.20 60.46 193.68 59.72 189.81
  Z"
/>
<path fill="#532d15" d="
  M 201.07 202.71
  A 2.09 2.09 0.0 0 1 198.44 201.37
  L 198.02 200.09
  A 7.84 5.42 -18.0 0 1 203.80 192.51
  L 222.16 186.54
  A 7.84 5.42 -18.0 0 1 231.29 189.28
  L 231.71 190.56
  A 2.09 2.09 0.0 0 1 230.37 193.19
  L 201.07 202.71
  Z"
/>
<path fill="#a07956" d="
  M 92.72 292.96
  Q 89.02 280.10 88.40 276.06
  Q 86.08 260.87 87.85 244.46
  Q 88.86 235.14 90.30 226.63
  A 4.41 4.27 62.6 0 1 90.60 225.63
  Q 95.15 215.27 97.13 211.61
  C 98.57 208.94 102.35 206.32 106.04 203.14
  C 111.20 198.70 118.23 195.60 124.54 194.41
  C 128.10 193.75 131.24 192.65 134.25 192.53
  Q 144.81 192.13 153.95 192.85
  C 158.73 193.23 162.21 194.60 167.12 195.81
  C 176.38 198.08 185.97 206.34 190.97 214.74
  Q 193.35 218.75 195.15 226.66
  Q 199.16 244.34 197.81 263.50
  Q 197.26 271.39 195.94 281.00
  C 195.10 287.12 193.75 293.00 189.89 298.26
  Q 186.34 303.08 184.68 304.91
  C 179.13 310.99 170.68 314.29 162.28 315.63
  Q 139.85 319.19 119.82 314.88
  Q 113.39 313.49 106.19 309.80
  Q 99.96 306.61 95.19 299.31
  A 2.68 2.66 21.5 0 1 94.83 298.49
  C 94.36 296.62 93.18 294.56 92.72 292.96
  Z
  M 156.61 232.59
  Q 159.16 233.49 161.31 232.49
  Q 167.57 229.59 173.55 225.05
  C 178.65 221.17 173.40 215.27 168.65 216.74
  Q 162.39 218.67 158.16 223.20
  C 155.42 226.14 152.68 228.43 155.81 232.05
  A 1.88 1.83 78.2 0 0 156.61 232.59
  Z
  M 129.31 232.66
  Q 131.85 229.98 129.63 226.85
  C 127.08 223.23 120.59 217.55 115.73 216.73
  Q 113.68 216.38 111.26 218.23
  C 103.33 224.29 123.12 232.00 126.67 233.29
  A 2.49 2.47 -58.2 0 0 129.31 232.66
  Z
  M 167.72 295.86
  A 1.19 1.18 29.2 0 0 167.34 294.54
  Q 165.25 292.89 162.53 291.71
  Q 156.62 289.16 147.24 284.71
  A 0.99 0.98 9.0 0 1 146.68 283.95
  Q 146.01 279.22 145.98 278.53
  Q 145.33 263.43 146.04 242.22
  A 4.75 4.74 -75.8 0 0 143.43 237.82
  L 142.76 237.48
  A 2.25 2.25 0.0 0 0 139.50 239.52
  Q 139.72 258.62 139.30 272.59
  C 139.09 279.53 139.52 283.05 133.95 286.29
  Q 128.45 289.49 125.18 290.71
  Q 122.74 291.62 119.62 293.83
  Q 117.76 295.16 118.17 296.74
  C 119.49 301.76 130.85 296.30 133.61 294.63
  Q 137.39 292.34 141.23 290.76
  A 2.78 2.76 46.8 0 1 143.54 290.84
  L 158.03 298.12
  A 2.81 2.59 61.3 0 0 158.80 298.38
  C 162.40 299.06 166.33 299.82 167.72 295.86
  Z"
/>
<path fill="#532d15" d="
  M 155.81 232.05
  C 152.68 228.43 155.42 226.14 158.16 223.20
  Q 162.39 218.67 168.65 216.74
  C 173.40 215.27 178.65 221.17 173.55 225.05
  Q 167.57 229.59 161.31 232.49
  Q 159.16 233.49 156.61 232.59
  A 1.88 1.83 78.2 0 1 155.81 232.05
  Z"
/>
<path fill="#532d15" d="
  M 129.31 232.66
  A 2.49 2.47 -58.2 0 1 126.67 233.29
  C 123.12 232.00 103.33 224.29 111.26 218.23
  Q 113.68 216.38 115.73 216.73
  C 120.59 217.55 127.08 223.23 129.63 226.85
  Q 131.85 229.98 129.31 232.66
  Z"
/>
<path fill="#532d15" d="
  M 167.72 295.86
  C 166.33 299.82 162.40 299.06 158.80 298.38
  A 2.81 2.59 61.3 0 1 158.03 298.12
  L 143.54 290.84
  A 2.78 2.76 46.8 0 0 141.23 290.76
  Q 137.39 292.34 133.61 294.63
  C 130.85 296.30 119.49 301.76 118.17 296.74
  Q 117.76 295.16 119.62 293.83
  Q 122.74 291.62 125.18 290.71
  Q 128.45 289.49 133.95 286.29
  C 139.52 283.05 139.09 279.53 139.30 272.59
  Q 139.72 258.62 139.50 239.52
  A 2.25 2.25 0.0 0 1 142.76 237.48
  L 143.43 237.82
  A 4.75 4.74 -75.8 0 1 146.04 242.22
  Q 145.33 263.43 145.98 278.53
  Q 146.01 279.22 146.68 283.95
  A 0.99 0.98 9.0 0 0 147.24 284.71
  Q 156.62 289.16 162.53 291.71
  Q 165.25 292.89 167.34 294.54
  A 1.19 1.18 29.2 0 1 167.72 295.86
  Z"
/>
<path fill="#a07956" d="
  M 180.14 326.97
  C 180.95 328.79 181.34 332.02 178.95 333.22
  Q 177.50 333.96 176.50 335.45
  A 3.93 3.86 3.5 0 1 174.98 336.77
  Q 163.32 342.48 157.33 343.52
  Q 150.22 344.75 134.60 344.01
  C 133.11 343.94 129.28 342.97 127.25 342.02
  Q 125.15 341.04 116.49 337.59
  C 113.50 336.39 110.41 334.21 108.40 333.06
  A 2.56 2.56 0.0 0 1 107.09 330.34
  L 107.43 328.41
  A 1.19 1.19 0.0 0 1 109.15 327.57
  Q 111.34 328.69 113.49 329.24
  Q 133.19 334.30 152.32 332.65
  C 158.65 332.10 166.57 330.19 173.53 329.04
  Q 175.92 328.65 178.22 326.56
  A 1.21 1.21 0.0 0 1 180.14 326.97
  Z"
/>
<path fill="#e2b692" d="
  M 192.42 349.56
  Q 190.83 348.91 189.51 350.01
  Q 186.98 352.11 178.52 360.27
  Q 176.02 362.68 170.30 370.50
  Q 166.69 375.43 164.03 382.00
  Q 159.56 393.06 158.58 398.64
  Q 157.44 405.14 162.39 411.14
  C 163.17 412.08 165.43 413.11 166.60 414.23
  A 2.01 2.00 -77.9 0 1 167.12 415.04
  L 169.58 422.40
  Q 163.48 415.95 158.74 409.02
  C 155.68 404.54 155.48 400.53 157.35 394.82
  Q 158.82 390.31 160.11 384.94
  A 1.63 1.62 -18.3 0 1 160.47 384.23
  Q 161.29 383.29 162.28 379.80
  Q 163.16 376.67 166.75 371.77
  Q 173.54 362.50 177.08 359.32
  Q 181.08 355.72 187.68 349.50
  Q 189.80 347.49 192.60 348.54
  A 0.44 0.43 -69.7 0 1 192.85 349.10
  Q 192.75 349.38 192.42 349.56
  Z"
/>
<path fill="#532d15" d="
  M 192.42 349.56
  Q 193.82 351.06 194.04 353.00
  A 1.83 1.81 -36.8 0 1 193.89 354.00
  C 192.15 357.80 189.67 361.93 185.78 365.21
  C 182.45 368.01 179.11 371.81 176.84 376.19
  Q 174.33 381.02 169.41 389.93
  Q 169.04 390.59 168.46 393.17
  Q 166.06 398.29 167.62 403.97
  A 1.47 1.47 0.0 0 0 170.20 404.48
  L 174.26 399.21
  A 1.23 1.22 -45.3 0 1 176.19 399.20
  Q 176.47 399.56 176.63 401.09
  Q 176.99 404.69 175.43 409.36
  C 174.73 411.42 174.70 414.14 175.80 416.08
  A 1.46 1.46 0.0 0 0 177.95 416.52
  Q 182.60 412.99 185.64 408.09
  A 1.15 1.15 0.0 0 1 187.74 408.43
  Q 188.26 410.63 187.76 412.54
  C 187.26 414.47 187.07 416.90 186.95 418.20
  A 0.68 0.68 0.0 0 0 187.92 418.87
  C 190.80 417.45 192.84 415.13 194.90 411.94
  Q 197.57 407.79 200.83 404.04
  Q 203.13 401.59 206.37 401.58
  A 1.48 1.37 24.7 0 0 207.17 401.32
  L 219.00 392.79
  Q 233.85 381.61 238.85 362.92
  A 1.80 1.80 0.0 0 1 240.54 361.57
  C 245.84 361.41 246.01 365.53 244.57 369.60
  Q 241.30 378.79 236.82 385.26
  C 232.05 392.13 225.03 398.47 218.08 402.81
  Q 208.59 408.73 208.24 408.99
  Q 204.94 411.34 204.45 412.22
  Q 200.60 419.11 195.49 426.18
  Q 189.96 431.30 181.57 429.60
  A 3.94 3.94 0.0 0 0 180.42 429.53
  Q 177.13 429.82 175.86 429.64
  Q 170.33 428.86 169.58 422.40
  L 167.12 415.04
  A 2.01 2.00 -77.9 0 0 166.60 414.23
  C 165.43 413.11 163.17 412.08 162.39 411.14
  Q 157.44 405.14 158.58 398.64
  Q 159.56 393.06 164.03 382.00
  Q 166.69 375.43 170.30 370.50
  Q 176.02 362.68 178.52 360.27
  Q 186.98 352.11 189.51 350.01
  Q 190.83 348.91 192.42 349.56
  Z
  M 179.6528 424.0554
  A 2.33 0.84 -169.0 0 0 181.7797 425.3246
  A 2.33 0.84 -169.0 0 0 184.2272 424.9446
  A 2.33 0.84 -169.0 0 0 182.1003 423.6754
  A 2.33 0.84 -169.0 0 0 179.6528 424.0554
  Z"
/>
<path fill="#532d15" d="
  M 83.36 411.00
  Q 76.94 405.94 69.22 401.26
  Q 61.33 396.48 58.74 394.08
  Q 47.07 383.21 43.03 366.54
  A 4.41 4.40 -19.1 0 1 45.49 361.49
  L 45.91 361.30
  A 2.85 2.84 73.5 0 1 49.90 363.47
  Q 50.76 369.18 53.79 373.98
  Q 57.57 379.96 62.84 385.91
  Q 66.25 389.77 78.51 398.02
  Q 84.50 400.74 89.00 405.35
  Q 90.97 407.38 92.16 409.40
  C 93.95 412.42 95.61 416.03 98.83 418.02
  A 1.13 1.13 0.0 0 0 100.55 417.06
  L 100.55 408.27
  A 1.06 1.06 0.0 0 1 102.29 407.46
  Q 103.61 408.59 105.18 411.17
  C 106.70 413.65 108.53 414.88 111.15 415.64
  A 1.45 1.44 13.9 0 0 112.97 414.55
  C 113.59 411.49 112.50 408.63 111.34 403.74
  Q 110.78 401.38 111.55 399.09
  A 1.25 1.25 0.0 0 1 113.75 398.76
  Q 115.89 401.72 118.55 403.44
  A 0.92 0.92 0.0 0 0 119.83 403.15
  Q 120.87 401.49 120.87 399.51
  Q 120.89 390.05 116.15 383.32
  Q 112.70 377.70 109.88 372.62
  Q 108.27 369.71 101.43 363.98
  Q 97.41 360.16 94.82 355.14
  Q 94.02 353.60 93.08 352.98
  A 0.54 0.53 -23.1 0 1 93.47 352.01
  L 94.41 352.16
  A 0.56 0.55 9.4 0 0 95.05 351.71
  L 95.35 349.90
  A 0.53 0.52 -79.7 0 1 95.96 349.47
  Q 98.89 350.00 101.30 352.31
  Q 104.32 355.22 110.21 361.34
  Q 115.53 366.86 117.96 370.67
  Q 123.32 379.07 125.20 383.18
  Q 128.44 390.27 130.02 401.00
  C 130.60 404.99 125.62 410.01 122.74 411.86
  Q 121.07 412.93 120.88 415.24
  C 120.72 417.29 120.72 418.39 119.28 420.14
  Q 117.73 422.02 116.35 424.68
  Q 115.78 425.79 112.61 428.15
  A 2.19 2.13 -64.2 0 1 111.48 428.56
  Q 109.20 428.68 108.06 426.69
  A 1.12 1.12 0.0 0 0 106.17 426.61
  Q 105.02 428.27 103.76 429.03
  A 1.91 1.89 -61.9 0 1 102.92 429.29
  Q 95.84 429.68 89.67 426.16
  A 0.69 0.69 0.0 0 1 90.00 424.87
  Q 91.28 424.86 92.97 425.96
  A 0.98 0.88 21.8 0 0 94.45 425.42
  Q 94.49 425.11 93.91 424.59
  Q 91.77 422.66 89.97 421.03
  Q 87.06 418.37 83.36 411.00
  Z
  M 103.5500 424.0474
  A 1.48 0.67 -179.9 0 0 105.0288 424.7200
  A 1.48 0.67 -179.9 0 0 106.5100 424.0526
  A 1.48 0.67 -179.9 0 0 105.0312 423.3800
  A 1.48 0.67 -179.9 0 0 103.5500 424.0474
  Z"
/>
<path fill="#e2b692" d="
  M 78.52 396.03
  Q 79.12 396.95 79.06 397.50
  Q 79.04 397.74 78.51 398.02
  Q 66.25 389.77 62.84 385.91
  Q 57.57 379.96 53.79 373.98
  Q 50.76 369.18 49.90 363.47
  A 2.85 2.84 73.5 0 0 45.91 361.30
  L 45.49 361.49
  A 4.41 4.40 -19.1 0 0 43.03 366.54
  Q 47.07 383.21 58.74 394.08
  Q 61.33 396.48 69.22 401.26
  Q 76.94 405.94 83.36 411.00
  Q 83.10 415.22 80.69 410.84
  A 2.09 2.07 -88.3 0 0 79.97 410.07
  C 76.44 407.85 74.00 406.22 70.20 404.19
  Q 50.20 393.47 42.20 372.43
  Q 41.38 370.27 41.14 368.67
  Q 40.77 366.20 40.41 365.28
  A 1.06 1.05 53.3 0 1 40.56 364.23
  Q 43.24 360.85 44.32 359.76
  Q 45.15 358.93 46.70 359.07
  C 48.40 359.23 50.67 359.38 51.39 361.40
  C 52.22 363.70 53.04 367.87 54.67 370.69
  Q 58.87 377.95 64.20 384.24
  C 66.48 386.92 70.10 389.50 73.35 392.46
  A 7.46 7.37 -10.0 0 0 75.06 393.64
  Q 77.20 394.72 78.52 396.03
  Z"
/>
<path fill="#e2b692" d="
  M 195.49 426.18
  Q 200.60 419.11 204.45 412.22
  Q 204.94 411.34 208.24 408.99
  Q 208.59 408.73 218.08 402.81
  C 225.03 398.47 232.05 392.13 236.82 385.26
  Q 241.30 378.79 244.57 369.60
  C 246.01 365.53 245.84 361.41 240.54 361.57
  A 1.80 1.80 0.0 0 0 238.85 362.92
  Q 233.85 381.61 219.00 392.79
  L 215.60 393.88
  A 0.12 0.12 0.0 0 1 215.49 393.86
  L 215.20 393.60
  A 0.23 0.22 51.8 0 1 215.24 393.23
  Q 218.68 391.54 222.27 388.04
  Q 233.74 376.88 236.96 361.47
  A 2.30 2.28 0.7 0 1 238.81 359.68
  Q 245.51 358.50 247.22 364.87
  Q 247.75 366.84 245.78 372.09
  Q 242.54 380.76 236.33 389.62
  Q 235.25 391.15 233.76 392.21
  C 230.50 394.51 227.21 398.38 225.05 399.81
  Q 219.45 403.48 212.41 408.11
  Q 208.84 410.45 206.96 412.85
  Q 204.37 416.14 202.81 418.78
  A 0.95 0.94 -54.4 0 0 203.00 419.97
  L 210.66 426.67
  A 0.67 0.67 0.0 0 1 210.73 427.60
  L 210.55 427.80
  A 0.32 0.31 33.9 0 1 210.17 427.87
  L 201.47 423.50
  A 1.49 1.47 43.0 0 0 200.08 423.54
  L 195.49 426.18
  Z"
/>
<path fill="#e2b692" d="
  M 101.43 363.98
  Q 108.27 369.71 109.88 372.62
  Q 112.70 377.70 116.15 383.32
  Q 115.78 384.65 114.05 382.32
  Q 113.53 381.62 112.54 379.73
  Q 110.13 375.12 106.24 372.19
  Q 103.86 367.93 100.27 364.63
  A 0.39 0.37 -58.5 0 1 100.18 364.22
  Q 100.42 363.61 101.43 363.98
  Z"
/>
<path fill="#a07956" d="
  M 106.24 372.19
  Q 110.13 375.12 112.54 379.73
  Q 113.53 381.62 114.05 382.32
  Q 115.78 384.65 116.15 383.32
  Q 120.89 390.05 120.87 399.51
  Q 120.87 401.49 119.83 403.15
  A 0.92 0.92 0.0 0 1 118.55 403.44
  Q 115.89 401.72 113.75 398.76
  A 1.25 1.25 0.0 0 0 111.55 399.09
  Q 110.78 401.38 111.34 403.74
  C 112.50 408.63 113.59 411.49 112.97 414.55
  A 1.45 1.44 13.9 0 1 111.15 415.64
  C 108.53 414.88 106.70 413.65 105.18 411.17
  Q 103.61 408.59 102.29 407.46
  A 1.06 1.06 0.0 0 0 100.55 408.27
  L 100.55 417.06
  A 1.13 1.13 0.0 0 1 98.83 418.02
  C 95.61 416.03 93.95 412.42 92.16 409.40
  Q 90.97 407.38 89.00 405.35
  Q 84.50 400.74 78.51 398.02
  Q 79.04 397.74 79.06 397.50
  Q 79.12 396.95 78.52 396.03
  Q 80.03 392.22 83.68 389.31
  A 3.88 3.88 0.0 0 0 84.34 388.65
  Q 87.76 384.42 89.64 381.15
  Q 92.44 376.27 94.29 375.12
  C 98.35 372.59 101.77 372.62 106.24 372.19
  Z"
/>
<path fill="#a07956" d="
  M 200.83 404.04
  Q 197.57 407.79 194.90 411.94
  C 192.84 415.13 190.80 417.45 187.92 418.87
  A 0.68 0.68 0.0 0 1 186.95 418.20
  C 187.07 416.90 187.26 414.47 187.76 412.54
  Q 188.26 410.63 187.74 408.43
  A 1.15 1.15 0.0 0 0 185.64 408.09
  Q 182.60 412.99 177.95 416.52
  A 1.46 1.46 0.0 0 1 175.80 416.08
  C 174.70 414.14 174.73 411.42 175.43 409.36
  Q 176.99 404.69 176.63 401.09
  Q 176.47 399.56 176.19 399.20
  A 1.23 1.22 -45.3 0 0 174.26 399.21
  L 170.20 404.48
  A 1.47 1.47 0.0 0 1 167.62 403.97
  Q 166.06 398.29 168.46 393.17
  Q 168.29 394.23 168.50 394.69
  A 0.48 0.48 0.0 0 0 169.39 394.63
  C 169.96 392.75 170.68 390.37 171.77 388.55
  Q 175.40 382.53 178.47 376.25
  A 1.32 1.26 -9.9 0 1 178.78 375.83
  L 181.03 373.74
  A 1.61 1.60 -67.4 0 1 182.07 373.31
  Q 185.24 373.18 189.14 374.31
  C 194.88 375.97 199.75 383.69 202.11 388.91
  Q 204.18 393.45 208.46 395.17
  A 0.77 0.77 0.0 0 1 208.42 396.61
  Q 202.62 398.59 199.26 403.69
  A 0.41 0.40 10.4 0 0 199.69 404.31
  L 200.83 404.04
  Z"
/>
<path fill="#cb9a6e" d="
  M 264.02 402.27
  C 261.35 406.47 258.34 410.09 256.40 414.72
  L 256.29 413.55
  Q 257.48 410.01 258.31 408.80
  Q 259.72 406.72 264.02 402.27
  Z"
/>
<path fill="#a07956" d="
  M 256.29 413.55
  L 256.40 414.72
  Q 256.08 415.97 255.30 416.96
  Q 255.45 415.27 256.29 413.55
  Z"
/>
<path fill="#a07956" d="
  M 198.60 471.03
  A 0.32 0.32 0.0 0 1 198.20 470.64
  Q 199.62 465.93 196.88 461.76
  A 0.87 0.87 0.0 0 0 195.35 461.92
  L 191.30 472.17
  A 4.54 4.54 0.0 0 1 188.24 474.90
  L 186.26 475.43
  A 1.11 1.11 0.0 0 1 185.08 473.75
  Q 188.98 467.60 186.13 461.00
  A 1.28 1.27 -42.3 0 0 183.84 460.90
  C 181.69 464.82 179.86 467.70 180.05 470.86
  A 0.64 0.63 -76.7 0 1 179.10 471.45
  C 176.10 469.72 174.50 462.04 173.68 457.76
  C 172.74 452.81 176.61 453.65 179.75 452.99
  Q 183.45 452.21 197.42 447.72
  Q 203.80 445.67 208.66 442.90
  Q 215.44 439.03 221.45 436.42
  C 229.66 432.85 236.93 427.55 242.99 421.70
  A 0.43 0.42 -39.9 0 1 243.62 421.75
  Q 243.79 421.98 243.62 422.29
  Q 239.84 429.22 238.61 430.40
  Q 235.89 433.04 234.39 434.99
  Q 232.63 437.26 230.11 439.49
  Q 219.37 448.96 205.24 449.60
  C 202.08 449.75 200.14 450.21 198.74 453.09
  A 1.23 1.23 0.0 0 0 199.64 454.84
  L 207.41 456.13
  A 0.49 0.49 0.0 0 1 207.80 456.75
  Q 205.55 464.24 199.59 470.35
  Q 199.09 470.87 198.60 471.03
  Z"
/>
<path fill="#a07956" d="
  M 45.00 422.73
  Q 52.23 427.30 59.43 431.82
  Q 64.17 434.79 66.12 435.10
  Q 70.99 435.87 73.40 437.08
  C 83.31 442.02 93.32 446.92 103.71 450.02
  Q 105.80 450.64 112.72 453.10
  A 1.88 1.87 9.5 0 1 113.96 454.83
  Q 114.06 464.17 109.18 472.82
  A 0.69 0.69 0.0 0 1 107.89 472.48
  C 107.92 468.78 105.01 464.82 103.36 461.65
  A 1.58 1.49 63.7 0 0 101.38 460.91
  C 98.09 462.42 101.53 470.91 102.74 473.34
  A 1.33 1.32 81.5 0 1 101.34 475.24
  L 99.35 474.91
  A 4.33 4.31 -3.3 0 1 95.92 471.87
  C 94.61 467.42 93.25 461.38 89.73 459.53
  A 0.79 0.78 -73.0 0 0 88.59 460.14
  Q 87.97 465.61 89.21 470.60
  A 0.53 0.53 0.0 0 1 88.43 471.18
  Q 87.64 470.72 86.74 469.55
  Q 81.81 463.17 78.76 455.31
  A 1.36 1.35 70.8 0 1 79.62 453.52
  Q 82.34 452.68 85.68 453.54
  A 1.54 1.54 0.0 0 0 87.40 451.28
  L 85.87 448.63
  A 6.01 6.00 77.2 0 0 81.15 445.65
  Q 73.54 445.04 70.24 444.33
  C 66.65 443.55 61.24 440.39 58.17 437.67
  Q 57.92 437.45 52.05 432.51
  Q 48.02 429.12 44.38 423.35
  A 0.45 0.45 0.0 0 1 45.00 422.73
  Z"
/>
<ellipse fill="#a07956" cx="0.00" cy="0.00" transform="translate(105.03,424.05) rotate(-179.9)" rx="1.48" ry="0.67"/>
<ellipse fill="#cb9a6e" cx="0.00" cy="0.00" transform="translate(181.94,424.50) rotate(-169.0)" rx="2.33" ry="0.84"/>
<path fill="#402406" d="
  M 186.81 481.50
  L 185.49 481.37
  Q 186.25 481.25 186.81 481.50
  Z"
/>
</svg>
