<?xml version="1.0" encoding="UTF-8" standalone="no"?>
<!DOCTYPE svg PUBLIC "-//W3C//DTD SVG 1.1//EN" "http://www.w3.org/Graphics/SVG/1.1/DTD/svg11.dtd">
<svg xmlns="http://www.w3.org/2000/svg" version="1.1" viewBox="0.00 0.00 329.00 413.00">
<g stroke-width="2.00" fill="none" stroke-linecap="butt">
<path stroke="#7d5536" vector-effect="non-scaling-stroke" d="
  M 197.60 32.96
  Q 197.37 34.66 199.29 36.64"
/>
<path stroke="#926541" vector-effect="non-scaling-stroke" d="
  M 190.29 379.42
  L 201.45 377.13"
/>
<path stroke="#9d7455" vector-effect="non-scaling-stroke" d="
  M 201.45 377.13
  L 222.65 371.80
  A 4.36 4.36 0.0 0 0 223.94 371.25
  Q 226.66 369.54 227.37 368.35
  C 229.52 364.74 231.68 361.52 234.13 357.71
  Q 240.46 347.88 250.69 341.97"
/>
<path stroke="#926541" vector-effect="non-scaling-stroke" d="
  M 250.69 341.97
  Q 252.04 341.99 252.42 342.39"
/>
<path stroke="#9d7455" vector-effect="non-scaling-stroke" d="
  M 252.42 342.39
  Q 254.91 345.92 251.89 348.34
  Q 248.98 350.67 246.16 354.17
  Q 238.98 363.08 234.07 373.90"
/>
<path stroke="#926541" vector-effect="non-scaling-stroke" d="
  M 234.07 373.90
  Q 231.90 378.94 230.77 385.95"
/>
<path stroke="#7d5536" vector-effect="non-scaling-stroke" d="
  M 230.77 385.95
  Q 228.65 394.39 237.29 396.71
  Q 247.86 399.55 258.74 400.25
  A 4.04 3.90 54.8 0 1 259.74 400.44
  Q 263.64 401.67 267.52 401.11
  A 1.09 1.09 0.0 0 0 268.25 399.39
  C 266.03 396.27 263.40 393.41 264.03 390.91
  A 0.70 0.69 -85.4 0 1 264.65 390.38
  Q 272.13 389.71 275.48 399.69
  A 2.44 2.42 -9.1 0 0 277.79 401.35
  L 280.32 401.35
  A 1.68 1.68 0.0 0 0 281.63 398.62
  C 280.10 396.70 275.34 389.48 279.57 388.15
  A 1.51 1.48 -39.5 0 1 280.72 388.25
  Q 284.50 390.15 287.65 393.71
  Q 289.41 395.70 289.11 398.61
  A 0.48 0.47 76.5 0 0 289.84 399.06
  Q 291.20 398.18 291.53 396.50
  A 1.39 1.37 -55.3 0 0 291.36 395.53
  C 289.41 392.14 283.19 385.73 278.41 386.16
  Q 271.74 386.74 267.23 381.94
  A 0.46 0.43 24.9 0 1 267.11 381.64
  Q 267.12 381.21 267.52 381.00"
/>
<path stroke="#926541" vector-effect="non-scaling-stroke" d="
  M 267.52 381.00
  Q 273.58 380.55 278.77 378.32"
/>
<path stroke="#9d7455" vector-effect="non-scaling-stroke" d="
  M 278.77 378.32
  C 292.95 373.19 307.27 362.46 314.28 348.52
  Q 319.55 338.05 317.82 324.77
  Q 316.27 312.99 307.64 305.27
  C 302.89 301.01 296.93 299.44 290.85 298.48
  Q 285.14 297.57 277.00 297.88
  A 2.27 2.25 -84.5 0 0 274.88 299.64
  Q 273.34 306.51 269.78 312.28
  Q 265.91 318.55 264.32 320.59
  Q 256.29 330.93 244.75 336.76
  C 236.10 341.13 225.18 342.63 215.89 343.33
  Q 210.40 343.75 201.20 342.33
  Q 185.60 339.94 185.18 339.86
  C 178.00 338.56 167.96 333.96 167.45 325.69
  A 0.75 0.74 49.2 0 0 165.98 325.58
  Q 164.64 331.90 159.03 335.37
  Q 152.73 339.28 145.43 340.45
  Q 128.83 343.11 124.73 343.43
  Q 118.57 343.92 114.50 343.23
  C 108.96 342.30 101.90 341.13 95.54 338.77
  Q 84.10 334.53 75.12 326.32
  C 66.95 318.85 61.84 310.09 58.62 299.79
  A 2.85 2.85 0.0 0 0 56.57 297.87
  Q 54.48 297.36 52.00 297.44
  Q 41.01 297.78 30.99 301.77
  A 5.61 5.49 -73.6 0 0 29.72 302.48
  Q 23.07 307.54 18.94 314.98
  C 13.33 325.10 14.38 338.82 19.35 349.01
  C 23.97 358.47 34.49 367.73 44.11 373.39
  C 50.65 377.25 55.09 378.24 63.41 380.45"
/>
<path stroke="#926541" vector-effect="non-scaling-stroke" d="
  M 63.41 380.45
  L 69.83 381.41"
/>
<path stroke="#7d5536" vector-effect="non-scaling-stroke" d="
  M 69.83 381.41
  L 61.26 385.54
  A 0.99 0.89 -56.3 0 1 60.91 385.63
  L 55.37 385.92
  A 4.74 4.72 32.8 0 0 53.92 386.23
  Q 46.20 389.19 42.32 396.00
  A 1.55 1.52 53.2 0 0 42.17 397.13
  Q 42.35 397.87 43.78 399.23
  A 0.27 0.27 0.0 0 0 44.24 399.08
  Q 45.11 393.92 48.71 390.96
  Q 50.87 389.19 52.52 388.91
  C 55.13 388.48 55.98 391.59 55.04 393.56
  Q 53.72 396.34 51.38 399.99
  A 0.82 0.82 0.0 0 0 51.78 401.20
  Q 54.31 402.14 57.80 401.99
  A 0.92 0.91 -4.2 0 0 58.67 400.99
  C 58.24 396.45 61.99 392.78 65.48 390.28
  A 1.00 0.97 24.1 0 1 66.00 390.09
  L 69.76 389.85
  A 0.59 0.59 0.0 0 1 70.34 390.67
  Q 68.57 394.78 64.85 399.31
  A 1.09 1.09 0.0 0 0 65.38 401.05
  Q 66.96 401.52 69.00 401.30
  Q 85.24 399.59 95.31 397.34
  Q 98.49 396.62 101.10 395.03
  A 1.83 1.75 88.7 0 0 101.75 394.32
  Q 103.36 391.03 103.07 387.25"
/>
<path stroke="#926541" vector-effect="non-scaling-stroke" d="
  M 103.07 387.25
  L 100.82 377.87"
/>
<path stroke="#9d7455" vector-effect="non-scaling-stroke" d="
  M 100.82 377.87
  Q 96.60 367.05 94.69 363.81
  Q 89.38 354.83 81.04 347.21
  Q 80.13 346.38 80.03 345.04"
/>
<path stroke="#926541" vector-effect="non-scaling-stroke" d="
  M 80.03 345.04
  C 81.38 342.04 84.68 343.10 86.75 344.53
  Q 97.58 352.04 102.73 363.67
  C 104.33 367.27 105.87 369.82 109.19 370.80
  Q 113.77 372.14 125.26 375.16
  Q 127.57 375.76 130.07 376.71
  Q 132.38 377.58 134.82 378.43"
/>
<path stroke="#ab957d" vector-effect="non-scaling-stroke" d="
  M 14.37 357.58
  Q 12.61 353.64 10.89 350.04
  C 7.89 343.74 7.39 337.48 6.56 330.64"
/>
<path stroke="#d7a982" vector-effect="non-scaling-stroke" d="
  M 278.77 378.32
  Q 277.80 378.53 277.14 378.16
  A 0.58 0.58 0.0 0 1 277.24 377.11
  Q 281.78 375.58 287.78 372.48
  Q 290.53 371.06 293.20 368.81
  Q 293.49 368.57 298.52 364.94
  C 304.50 360.61 308.52 355.29 312.30 349.11
  C 316.76 341.83 317.06 334.87 316.85 326.12
  A 3.77 3.45 38.4 0 0 316.69 325.13
  C 315.51 321.31 315.14 317.89 313.30 314.84
  Q 308.88 307.53 304.04 304.79
  Q 294.93 299.62 281.29 299.39
  C 276.44 299.32 276.52 300.05 275.03 304.75
  Q 274.29 307.09 274.09 308.70
  A 1.77 1.74 -22.7 0 1 273.72 309.58
  Q 271.07 312.78 268.99 317.14
  A 5.02 4.77 -14.5 0 1 268.46 317.99
  Q 259.38 329.62 247.60 337.35
  Q 242.81 340.49 237.60 341.64
  C 235.82 342.03 234.24 342.93 232.58 343.19
  Q 229.44 343.69 224.11 345.12
  A 9.08 8.55 35.0 0 1 222.06 345.42
  Q 204.66 345.93 187.49 342.51
  C 180.27 341.07 171.67 337.47 167.48 331.36
  A 1.16 1.15 -43.7 0 0 165.60 331.32
  L 163.23 334.50
  A 2.29 1.91 -6.2 0 1 162.96 334.78
  Q 159.72 337.55 154.35 340.03
  C 151.66 341.27 148.85 341.36 145.88 342.23
  Q 143.23 343.00 139.39 343.34
  Q 137.54 343.50 125.62 345.65
  Q 119.12 346.82 110.74 345.68
  C 109.85 345.56 109.02 345.10 108.15 344.66
  A 5.93 5.81 64.0 0 0 106.75 344.16
  Q 97.54 342.16 94.26 340.76
  Q 91.65 339.65 85.15 335.98
  Q 81.08 333.69 76.83 329.95
  C 72.23 325.92 70.00 324.20 66.93 320.49
  Q 64.91 318.05 63.52 316.10
  Q 60.61 312.02 55.94 301.84
  A 1.54 1.49 4.6 0 0 55.34 301.16
  Q 52.70 299.55 50.13 299.66
  C 42.89 299.98 33.36 301.90 27.29 306.66
  A 4.57 3.90 -3.6 0 0 26.63 307.30
  Q 25.37 308.83 24.35 310.07
  C 19.73 315.68 17.26 321.68 17.07 328.94
  Q 16.87 336.23 16.87 336.48
  A 7.68 7.63 -55.4 0 0 17.35 339.15
  C 18.56 342.42 19.11 345.97 20.82 348.89
  C 24.70 355.52 29.69 359.67 36.55 366.19
  Q 39.86 369.33 42.94 371.17
  C 50.59 375.72 57.69 378.69 66.68 379.01
  A 0.62 0.61 87.9 0 1 67.28 379.57
  L 67.29 379.60
  A 0.56 0.53 -5.2 0 1 66.78 380.18
  L 63.41 380.45"
/>
<path stroke="#b68a63" vector-effect="non-scaling-stroke" d="
  M 267.52 381.00
  Q 266.69 380.41 266.35 380.40
  Q 253.63 380.08 241.16 382.54
  A 9.06 8.90 26.3 0 0 239.18 383.19
  Q 235.10 385.11 230.77 385.95"
/>
<path stroke="#d7a982" vector-effect="non-scaling-stroke" d="
  M 234.07 373.90
  Q 236.25 374.02 238.11 370.53
  Q 242.39 362.47 247.20 356.02
  C 249.42 353.04 251.44 351.27 254.19 348.60
  A 1.75 1.70 75.6 0 0 254.66 347.78
  Q 254.97 346.48 254.95 344.27
  Q 254.92 341.59 252.42 342.39"
/>
<path stroke="#d7a982" vector-effect="non-scaling-stroke" d="
  M 250.69 341.97
  Q 250.77 340.65 248.50 341.75
  Q 242.26 344.77 237.39 350.39
  C 234.47 353.77 232.13 358.05 228.98 361.58
  A 2.67 2.65 74.9 0 0 228.45 362.51
  Q 227.15 366.52 223.54 369.45
  A 2.65 2.49 -70.3 0 1 222.54 369.96
  Q 217.74 371.16 215.56 372.11
  A 8.72 8.29 27.4 0 1 213.49 372.71
  Q 205.72 373.95 202.94 375.23
  Q 199.84 376.65 201.45 377.13"
/>
<path stroke="#d7a982" vector-effect="non-scaling-stroke" d="
  M 80.03 345.04
  Q 78.72 345.47 78.81 346.33
  Q 78.98 348.02 80.64 349.46
  C 84.81 353.08 87.47 356.18 90.28 361.27
  Q 95.24 370.24 99.40 378.64
  A 0.63 0.62 42.4 0 0 100.54 378.59
  L 100.82 377.87"
/>
<path stroke="#b68a63" vector-effect="non-scaling-stroke" d="
  M 103.07 387.25
  C 101.21 386.58 99.83 385.51 98.05 384.98
  Q 83.85 380.74 69.83 381.41"
/>
<path stroke="#a7834c" vector-effect="non-scaling-stroke" d="
  M 134.99 60.86
  L 134.99 53.45
  A 2.13 2.12 -7.7 0 1 136.56 51.40
  L 136.85 51.33
  A 0.92 0.91 -2.7 0 1 137.96 52.34
  Q 137.04 59.37 141.18 64.00
  C 143.66 66.77 148.47 68.63 150.70 70.78
  A 0.67 0.66 44.0 0 0 151.62 70.77
  Q 152.57 69.82 152.91 68.77
  A 1.05 1.04 53.9 0 1 154.95 69.09
  L 154.95 70.38
  A 0.76 0.76 0.0 0 0 155.53 71.12
  Q 166.54 73.87 177.72 71.28
  A 1.00 0.99 85.2 0 0 178.48 70.38
  L 178.62 68.39
  A 0.66 0.66 0.0 0 1 179.75 67.96
  L 181.53 69.74
  A 1.30 1.30 0.0 0 0 183.13 69.94
  C 186.97 67.62 194.12 62.59 193.84 58.23
  Q 193.55 53.70 193.95 51.46
  A 0.93 0.93 0.0 0 1 195.65 51.12
  C 197.49 53.99 197.51 56.90 197.46 60.43
  A 0.53 0.53 0.0 0 0 198.37 60.80
  Q 202.66 56.45 200.68 51.07
  Q 198.92 46.27 198.11 45.12
  C 194.00 39.35 192.40 37.11 191.12 31.00
  C 190.18 26.53 189.39 24.60 187.42 20.29
  C 183.62 12.03 176.48 9.41 167.53 8.74
  Q 162.15 8.34 158.11 9.90
  Q 152.45 12.08 149.89 14.64
  C 144.97 19.57 142.29 27.06 141.10 34.45
  A 7.59 7.50 63.9 0 1 140.30 36.83
  Q 138.81 39.62 136.21 43.69
  Q 134.92 45.72 132.06 52.96
  A 3.75 3.67 -37.9 0 0 131.82 54.73
  Q 132.18 58.00 134.62 60.99
  A 0.21 0.21 0.0 0 0 134.99 60.86"
/>
<path stroke="#926541" vector-effect="non-scaling-stroke" d="
  M 223.71 79.45
  Q 216.98 77.68 211.00 74.79
  A 13.21 12.61 -23.1 0 0 208.73 73.94
  C 205.99 73.21 198.45 70.09 194.41 70.93
  Q 191.62 71.51 187.44 74.83
  C 185.02 76.75 183.30 79.91 181.18 82.11
  A 1.61 1.60 -31.6 0 1 178.49 81.47
  L 177.62 78.61
  A 1.03 1.02 -8.4 0 0 176.64 77.89
  L 158.95 78.05
  A 0.82 0.82 0.0 0 0 158.54 78.16
  Q 155.53 79.84 154.39 82.14
  A 0.86 0.86 0.0 0 1 153.15 82.48
  Q 150.96 81.07 149.56 78.91
  C 146.81 74.67 143.54 72.49 139.08 71.15
  A 4.44 4.36 -37.6 0 0 137.50 70.96
  Q 134.78 71.11 130.02 72.52
  Q 122.04 74.90 111.97 79.41
  Q 109.32 80.60 108.16 77.91
  C 105.91 72.70 102.36 66.12 97.41 62.44
  Q 93.32 59.41 90.51 59.17
  C 79.50 58.24 76.79 65.98 75.77 74.99
  Q 74.79 83.61 79.57 90.42
  Q 81.43 93.07 87.21 97.88"
/>
<path stroke="#7d5536" vector-effect="non-scaling-stroke" d="
  M 87.21 97.88
  Q 88.64 98.77 89.10 99.51"
/>
<path stroke="#9d7455" vector-effect="non-scaling-stroke" d="
  M 89.10 99.51
  Q 74.79 125.79 65.64 154.18
  Q 61.30 167.66 61.42 183.76
  C 61.55 202.31 67.64 217.92 79.23 231.79
  Q 80.27 233.03 79.89 235.95"
/>
<path stroke="#926541" vector-effect="non-scaling-stroke" d="
  M 79.89 235.95
  Q 79.04 236.97 77.84 236.41
  C 69.73 232.62 65.12 224.43 60.76 218.05
  A 0.47 0.47 0.0 0 0 59.94 218.13
  Q 56.07 227.34 51.42 236.42
  C 43.03 252.79 38.84 271.99 39.15 290.04
  A 1.04 1.04 0.0 0 0 40.38 291.04
  Q 48.60 289.49 56.01 290.78
  A 0.80 0.80 0.0 0 0 56.95 289.92
  Q 56.46 283.99 57.00 276.20
  Q 57.34 271.26 60.44 269.57
  A 1.75 1.67 31.8 0 1 61.44 269.36
  Q 63.50 269.55 64.53 272.11
  A 1.85 1.74 -57.2 0 1 64.65 272.76
  C 64.52 283.25 64.41 291.82 67.10 300.37
  Q 69.02 306.47 73.39 312.64
  Q 83.25 326.54 100.63 332.08
  Q 114.88 336.61 128.81 335.05"
/>
<path stroke="#7d5536" vector-effect="non-scaling-stroke" d="
  M 128.81 335.05
  Q 137.77 333.66 146.63 331.65
  C 149.37 331.03 157.97 327.57 158.61 324.75
  A 0.59 0.58 83.7 0 0 157.79 324.09
  Q 156.77 324.58 155.46 325.16
  C 153.66 325.95 151.42 324.75 151.83 322.74
  C 152.44 319.73 157.39 317.21 160.61 315.05
  A 1.94 1.93 -25.5 0 0 161.38 312.89
  L 161.25 312.46
  A 1.73 1.73 0.0 0 0 158.87 311.40
  L 155.76 312.85
  A 1.53 1.50 34.9 0 1 154.98 312.98
  Q 152.05 312.64 151.74 309.87
  A 1.13 1.12 70.1 0 1 152.24 308.80
  Q 156.99 305.66 158.73 300.73
  A 2.16 2.16 0.0 0 0 156.96 297.87
  Q 155.59 297.71 153.20 298.06
  C 151.17 298.36 149.19 300.46 147.25 300.96
  Q 143.15 302.03 141.39 299.00
  A 1.59 1.59 0.0 0 1 141.58 297.14
  Q 143.47 295.03 146.60 293.71
  A 0.49 0.49 0.0 0 0 146.71 292.88
  Q 142.97 289.94 139.13 293.35
  C 136.72 295.48 134.88 297.87 132.10 299.19
  Q 128.81 300.74 125.27 300.83"
/>
<path stroke="#9d7455" vector-effect="non-scaling-stroke" d="
  M 125.27 300.83
  C 119.71 299.45 112.90 297.13 109.11 292.65
  Q 104.00 286.60 102.94 278.97
  C 102.38 274.87 101.26 271.52 106.05 270.67"
/>
<path stroke="#926541" vector-effect="non-scaling-stroke" d="
  M 106.05 270.67
  Q 108.00 270.85 108.73 273.26"
/>
<path stroke="#9d7455" vector-effect="non-scaling-stroke" d="
  M 108.73 273.26
  C 109.57 279.10 113.02 288.31 119.27 290.49
  Q 121.95 291.42 126.29 292.71
  A 2.07 2.05 -57.7 0 0 128.28 292.25
  C 133.96 286.99 142.46 279.51 150.35 286.55
  Q 151.40 287.50 153.01 288.75
  A 6.00 5.90 68.7 0 0 155.58 289.90
  Q 166.70 291.89 165.40 303.97
  A 0.64 0.64 0.0 0 0 166.26 304.65
  Q 167.78 304.10 167.56 303.00
  C 165.90 294.67 170.29 291.50 177.46 289.88
  A 4.05 3.86 17.0 0 0 179.12 289.05
  C 184.05 284.86 187.95 281.64 194.83 284.89
  Q 200.77 287.70 205.96 292.97
  A 1.29 1.28 58.8 0 0 207.25 293.29
  Q 210.97 292.13 214.07 290.79
  C 220.47 288.02 222.65 282.63 223.85 276.19
  C 224.47 272.90 226.12 271.05 229.45 271.55
  A 1.14 1.12 -10.1 0 1 230.28 272.12
  C 232.55 276.17 229.66 283.87 228.03 287.57
  C 224.60 295.34 216.58 299.27 208.42 300.51"
/>
<path stroke="#926541" vector-effect="non-scaling-stroke" d="
  M 208.42 300.51
  L 203.12 300.64
  A 1.10 1.07 -20.3 0 1 202.27 300.26
  C 197.94 295.24 195.13 291.82 188.46 291.34
  Q 187.29 291.25 186.48 292.27
  A 1.02 1.02 0.0 0 0 186.75 293.78
  L 189.38 295.35"
/>
<path stroke="#7d5536" vector-effect="non-scaling-stroke" d="
  M 189.38 295.35
  C 191.48 296.91 192.83 301.03 188.68 300.90
  Q 183.67 300.76 178.98 297.45
  A 1.96 1.94 -25.0 0 0 178.00 297.10
  C 176.06 296.95 173.37 298.89 174.35 301.28
  C 176.20 305.82 181.60 306.62 181.40 310.43
  A 2.55 2.36 -2.3 0 1 179.17 312.66
  Q 175.77 313.07 172.69 310.59
  A 0.84 0.84 0.0 0 0 171.32 311.25
  L 171.32 311.91
  A 2.58 2.58 0.0 0 0 172.19 313.84
  Q 175.52 316.74 178.72 318.73
  C 180.39 319.77 181.78 321.39 182.32 323.14
  A 1.49 1.48 72.1 0 1 181.38 324.99
  C 178.65 325.90 176.72 324.17 174.58 323.20
  A 0.52 0.51 -85.0 0 0 173.87 323.80
  C 175.84 331.65 198.64 334.21 205.46 334.85"
/>
<path stroke="#9d7455" vector-effect="non-scaling-stroke" d="
  M 205.46 334.85
  Q 218.50 336.45 230.69 333.25
  Q 243.53 329.88 252.84 321.34
  Q 268.38 307.11 269.70 284.08"
/>
<path stroke="#926541" vector-effect="non-scaling-stroke" d="
  M 269.70 284.08
  Q 270.05 279.63 269.63 275.26
  C 269.35 272.38 269.94 270.31 272.97 270.31
  A 2.00 1.95 59.8 0 1 273.98 270.59
  Q 275.80 271.67 276.07 273.25
  Q 277.35 280.98 276.58 289.36"
/>
<path stroke="#9d7455" vector-effect="non-scaling-stroke" d="
  M 276.58 289.36
  L 276.42 290.60
  A 0.40 0.40 0.0 0 0 276.94 291.03
  C 281.96 289.50 290.09 288.93 294.29 291.51
  A 0.37 0.37 0.0 0 0 294.81 291.04
  L 294.35 290.06
  A 2.56 2.51 32.2 0 1 294.10 289.01
  Q 293.92 275.05 291.72 264.75
  Q 288.78 250.95 282.65 236.82
  C 279.81 230.27 276.03 224.86 273.08 218.21
  A 0.73 0.73 0.0 0 0 271.75 218.21
  Q 267.21 228.46 258.72 235.47
  Q 256.99 236.91 255.23 237.55
  A 2.00 1.98 67.9 0 1 252.73 236.48
  Q 251.81 234.42 253.43 232.42
  C 263.03 220.60 270.73 207.67 272.17 192.18
  Q 273.08 182.36 272.15 174.53
  Q 269.66 153.62 260.97 133.27
  Q 254.33 117.74 246.82 102.64"
/>
<path stroke="#926541" vector-effect="non-scaling-stroke" d="
  M 246.82 102.64
  L 245.62 99.10"
/>
<path stroke="#7d5536" vector-effect="non-scaling-stroke" d="
  M 245.62 99.10
  Q 249.15 96.14 252.64 92.62
  Q 257.70 87.52 257.96 80.48
  C 258.25 72.92 257.96 66.50 251.63 61.23
  C 245.79 56.37 236.66 59.46 232.49 64.95
  Q 227.96 70.90 224.51 78.90
  A 0.92 0.92 0.0 0 1 224.17 79.30
  Q 223.86 79.51 223.71 79.45"
/>
<path stroke="#b68a63" vector-effect="non-scaling-stroke" d="
  M 245.62 99.10
  L 235.86 89.33"
/>
<path stroke="#7d5536" vector-effect="non-scaling-stroke" d="
  M 235.86 89.33
  Q 239.87 83.10 240.73 79.75
  Q 242.23 73.90 246.29 71.26
  A 3.53 3.53 0.0 0 0 247.56 66.80
  L 247.33 66.29
  A 2.24 2.24 0.0 0 0 243.84 65.49
  L 238.36 70.15
  A 1.56 1.25 -85.0 0 0 238.14 70.38
  Q 232.28 78.53 233.40 87.55"
/>
<path stroke="#b68a63" vector-effect="non-scaling-stroke" d="
  M 233.40 87.55
  Q 232.50 87.12 231.22 86.27
  Q 230.30 85.66 229.47 84.53
  Q 226.86 80.99 223.71 79.45"
/>
<path stroke="#926541" vector-effect="non-scaling-stroke" d="
  M 233.40 87.55
  L 235.86 89.33"
/>
<path stroke="#d7a982" vector-effect="non-scaling-stroke" d="
  M 246.82 102.64
  L 245.70 102.03
  A 0.18 0.18 0.0 0 0 245.44 102.24
  Q 246.65 106.12 247.75 108.31
  Q 252.96 118.69 258.48 132.53
  C 261.11 139.11 262.67 146.05 264.96 152.47
  C 267.44 159.38 268.92 168.82 269.75 174.83
  Q 270.49 180.21 270.35 191.26
  Q 270.27 197.48 268.04 203.43
  C 263.76 214.82 258.89 222.69 251.02 232.81
  A 1.00 1.00 0.0 0 0 250.83 233.64
  Q 251.82 238.40 257.12 238.52
  A 1.34 1.30 -63.3 0 0 257.98 238.22
  C 260.69 235.98 262.08 234.98 264.06 232.73
  Q 268.83 227.30 271.86 223.03
  A 1.16 1.16 0.0 0 1 273.91 223.34
  Q 275.15 227.02 277.27 230.17
  A 5.13 4.82 -75.2 0 1 277.73 231.02
  Q 280.04 236.49 283.69 244.28
  Q 284.68 246.38 286.52 253.58
  C 287.56 257.65 290.22 263.45 290.72 267.98
  Q 291.71 276.93 292.33 283.31
  Q 292.53 285.37 292.40 286.90
  A 1.29 1.29 0.0 0 1 291.23 288.08
  L 276.58 289.36"
/>
<path stroke="#d7a982" vector-effect="non-scaling-stroke" d="
  M 269.70 284.08
  L 269.31 281.97
  A 0.48 0.48 0.0 0 0 268.47 281.75
  Q 267.96 282.36 267.95 283.01
  Q 267.95 288.82 266.90 293.60
  Q 266.46 295.58 265.23 298.48
  Q 263.37 302.90 263.22 303.29
  Q 257.73 317.43 245.46 325.20
  Q 240.47 328.36 235.50 329.90
  C 233.11 330.63 229.45 331.71 227.10 332.06
  Q 217.30 333.56 207.65 331.75"
/>
<path stroke="#b68a63" vector-effect="non-scaling-stroke" d="
  M 207.65 331.75
  C 208.71 327.49 210.52 322.94 210.91 319.11
  Q 211.54 312.84 209.20 305.30
  Q 208.87 304.25 209.24 303.00
  A 0.85 0.84 -84.6 0 0 208.35 301.92
  Q 202.95 302.41 199.42 299.31
  C 196.02 296.32 193.70 294.96 189.38 295.35"
/>
<path stroke="#d7a982" vector-effect="non-scaling-stroke" d="
  M 208.42 300.51
  C 209.25 302.94 212.82 302.26 214.59 301.58
  C 224.95 297.63 230.98 289.31 233.42 278.81
  Q 234.72 273.24 230.04 269.32
  A 1.90 1.88 60.3 0 0 228.51 268.89
  C 219.59 270.28 222.68 279.86 218.40 284.73
  Q 214.22 289.49 207.81 290.65
  A 1.35 1.35 0.0 0 1 206.72 290.37
  Q 204.32 288.42 200.83 285.49
  Q 199.79 284.62 195.44 282.68
  C 190.30 280.40 185.92 281.00 181.63 284.14
  Q 177.67 287.04 174.47 288.00
  C 172.01 288.73 170.36 290.13 168.41 291.43
  A 1.52 1.49 82.3 0 0 167.82 292.22
  L 167.29 293.85
  A 0.76 0.76 0.0 0 1 165.95 294.06
  Q 162.18 288.91 155.92 287.59
  C 152.93 286.96 152.01 286.04 149.46 284.13
  Q 144.81 280.64 139.45 282.47
  Q 134.07 284.29 131.37 286.64
  Q 131.19 286.79 128.07 289.75
  A 1.39 1.38 23.5 0 1 127.09 290.13
  Q 120.78 289.97 117.86 287.24
  Q 112.32 282.05 110.42 273.59
  A 0.77 0.73 16.7 0 0 110.20 273.21
  Q 109.55 272.61 108.73 273.26"
/>
<path stroke="#d7a982" vector-effect="non-scaling-stroke" d="
  M 106.05 270.67
  C 101.79 267.89 100.77 275.39 101.01 277.90
  Q 101.77 285.89 106.58 292.28
  C 108.70 295.11 110.79 297.81 113.43 298.85
  Q 119.18 301.10 124.83 303.57"
/>
<path stroke="#b68a63" vector-effect="non-scaling-stroke" d="
  M 124.83 303.57
  C 122.67 309.92 122.11 316.42 123.81 322.96
  C 124.51 325.65 125.24 331.59 127.46 333.28
  Q 128.55 334.10 128.81 335.05"
/>
<path stroke="#d7a982" vector-effect="non-scaling-stroke" d="
  M 79.89 235.95
  Q 80.04 236.64 80.48 236.86
  A 0.63 0.63 0.0 0 0 81.37 236.51
  C 82.84 232.27 79.06 228.69 76.23 225.29
  Q 74.47 223.17 72.51 219.64
  Q 62.96 202.39 62.87 182.20
  C 62.84 176.57 64.18 171.38 64.55 167.02
  Q 65.00 161.82 67.04 155.88
  Q 68.94 150.39 71.62 144.03
  C 73.13 140.47 73.49 137.51 75.11 134.14
  C 77.00 130.21 77.92 125.87 79.62 122.19
  Q 85.14 110.20 89.96 100.80
  A 0.77 0.77 0.0 0 0 89.85 99.95
  Q 89.61 99.68 89.32 99.53"
/>
<path stroke="#b68a63" vector-effect="non-scaling-stroke" d="
  M 89.32 99.53
  L 98.27 89.10"
/>
<path stroke="#926541" vector-effect="non-scaling-stroke" d="
  M 98.27 89.10
  L 101.07 86.84"
/>
<path stroke="#b68a63" vector-effect="non-scaling-stroke" d="
  M 101.07 86.84
  Q 105.35 84.50 108.31 80.89
  A 0.61 0.60 -44.6 0 0 108.32 80.13
  Q 104.97 75.86 102.12 70.58
  Q 97.41 61.86 87.45 61.41
  C 82.86 61.20 80.38 63.64 79.78 68.09
  C 79.12 73.06 77.47 77.59 77.21 82.58
  A 2.18 2.11 36.3 0 0 77.37 83.53
  Q 79.47 88.42 80.16 89.34
  Q 83.26 93.46 87.75 97.11
  A 0.51 0.51 0.0 0 1 87.73 97.92
  Q 87.72 97.93 87.21 97.88"
/>
<path stroke="#7d5536" vector-effect="non-scaling-stroke" d="
  M 101.07 86.84
  C 100.11 78.63 97.54 71.68 90.60 66.67
  Q 87.16 64.19 85.12 67.53
  A 2.25 2.24 -50.4 0 0 85.37 70.20
  L 91.34 76.81
  A 4.54 4.40 -77.3 0 1 92.20 78.22
  Q 93.41 81.48 94.94 85.11
  Q 96.11 87.91 98.27 89.10"
/>
<path stroke="#c29976" vector-effect="non-scaling-stroke" d="
  M 89.32 99.53
  Q 89.21 99.52 89.10 99.51"
/>
<path stroke="#c29976" vector-effect="non-scaling-stroke" d="
  M 205.46 334.85
  L 204.47 334.23
  A 0.40 0.40 0.0 0 1 204.65 333.49
  Q 206.99 333.27 207.65 331.75"
/>
<path stroke="#c29976" vector-effect="non-scaling-stroke" d="
  M 125.27 300.83
  Q 125.77 300.93 126.15 301.16
  A 0.54 0.53 -58.2 0 1 126.32 301.90
  Q 125.64 302.95 124.83 303.57"
/>
<path stroke="#a7834c" vector-effect="non-scaling-stroke" d="
  M 152.7508 24.2412
  A 3.79 2.88 -85.6 0 0 149.5885 27.7990
  A 3.79 2.88 -85.6 0 0 152.1692 31.7988
  A 3.79 2.88 -85.6 0 0 155.3315 28.2410
  A 3.79 2.88 -85.6 0 0 152.7508 24.2412"
/>
<path stroke="#a7834c" vector-effect="non-scaling-stroke" d="
  M 180.5555 24.5047
  A 3.85 3.15 -85.0 0 0 177.0820 28.0655
  A 3.85 3.15 -85.0 0 0 179.8845 32.1753
  A 3.85 3.15 -85.0 0 0 183.3580 28.6145
  A 3.85 3.15 -85.0 0 0 180.5555 24.5047"
/>
<path stroke="#a7834c" vector-effect="non-scaling-stroke" d="
  M 166.53 41.86
  C 169.85 41.87 172.84 41.37 175.32 39.60
  A 2.62 2.62 0.0 0 0 176.25 36.58
  C 174.76 32.47 171.09 29.55 166.56 29.54
  C 162.02 29.53 158.34 32.44 156.83 36.53
  A 2.62 2.62 0.0 0 0 157.75 39.56
  C 160.22 41.34 163.21 41.85 166.53 41.86"
/>
<path stroke="#926541" vector-effect="non-scaling-stroke" d="
  M 161.27 37.39
  L 171.57 37.48
  A 0.17 0.17 0.0 0 0 171.74 37.32
  L 171.74 37.22
  A 4.50 4.03 0.5 0 0 167.28 33.15
  L 165.64 33.13
  A 4.50 4.03 0.5 0 0 161.10 37.12
  L 161.10 37.22
  A 0.17 0.17 0.0 0 0 161.27 37.39"
/>
<path stroke="#926541" vector-effect="non-scaling-stroke" d="
  M 243.1727 130.6168
  A 5.32 5.32 0.0 0 0 235.9627 128.4674
  L 220.5864 136.7813
  A 5.32 5.32 0.0 0 0 218.4370 143.9913
  L 218.6273 144.3432
  A 5.32 5.32 0.0 0 0 225.8373 146.4926
  L 241.2136 138.1787
  A 5.32 5.32 0.0 0 0 243.3630 130.9687
  L 243.1727 130.6168"
/>
<path stroke="#926541" vector-effect="non-scaling-stroke" d="
  M 115.3774 143.8868
  A 5.45 5.45 0.0 0 0 113.1240 136.5161
  L 98.2904 128.6290
  A 5.45 5.45 0.0 0 0 90.9198 130.8824
  L 90.7226 131.2532
  A 5.45 5.45 0.0 0 0 92.9760 138.6239
  L 107.8096 146.5110
  A 5.45 5.45 0.0 0 0 115.1802 144.2576
  L 115.3774 143.8868"
/>
<path stroke="#b68a63" vector-effect="non-scaling-stroke" d="
  M 121.53 231.61
  C 125.02 238.14 127.93 244.12 135.09 246.89
  C 138.56 248.24 141.49 249.65 144.95 250.32
  Q 166.97 254.56 188.26 250.76
  C 195.69 249.44 200.33 246.25 205.95 241.15
  A 7.93 7.80 84.8 0 0 207.41 239.37
  C 210.34 234.57 212.08 232.22 213.39 228.04
  Q 220.05 206.78 216.71 184.50
  Q 215.44 176.06 214.06 170.22
  C 212.85 165.14 209.40 158.65 205.24 154.01
  C 200.15 148.32 196.12 144.10 189.00 142.29
  Q 181.44 140.37 179.49 140.13
  Q 172.17 139.21 158.64 139.75
  Q 135.56 140.66 123.98 159.65
  Q 122.62 161.89 122.01 163.63
  C 120.59 167.64 119.30 169.93 118.46 174.21
  Q 117.35 179.90 117.11 185.19
  C 116.99 187.91 116.30 190.26 116.19 192.42
  Q 115.59 203.82 117.36 217.48
  Q 118.46 225.88 121.53 231.61"
/>
<path stroke="#b68a63" vector-effect="non-scaling-stroke" d="
  M 207.92 256.21
  Q 203.42 258.20 196.35 258.83
  A 13.07 11.92 25.1 0 0 194.58 259.11
  Q 183.33 261.74 172.13 262.57
  Q 151.91 264.08 130.89 257.23
  Q 127.82 256.23 127.70 256.20
  A 1.05 1.04 -66.7 0 0 126.60 256.64
  Q 125.44 258.37 126.61 259.83
  Q 133.37 268.22 143.86 271.10
  Q 152.53 273.48 163.96 274.08
  C 168.57 274.32 173.35 273.48 178.10 273.30
  C 186.66 272.98 194.67 270.07 201.76 265.54
  Q 206.74 262.35 206.94 262.16
  Q 208.75 260.40 208.13 256.32
  A 0.15 0.15 0.0 0 0 207.92 256.21"
/>
<path stroke="#7d5536" vector-effect="non-scaling-stroke" d="
  M 178.27 174.43
  Q 179.94 178.19 182.89 177.15
  Q 186.90 175.73 194.67 170.91
  Q 196.27 169.91 196.83 167.79
  C 198.11 162.96 192.93 161.94 189.60 162.91
  Q 183.61 164.66 179.58 170.60
  Q 178.20 172.63 178.12 173.45
  A 1.87 1.86 36.4 0 0 178.27 174.43"
/>
<path stroke="#7d5536" vector-effect="non-scaling-stroke" d="
  M 137.00 166.74
  Q 136.87 170.29 140.32 172.32
  C 144.97 175.05 149.37 177.73 153.75 177.34
  A 1.18 1.18 0.0 0 0 154.71 176.67
  Q 156.19 173.55 154.64 171.06
  C 152.03 166.89 141.25 158.40 137.28 165.74
  A 2.25 2.14 62.0 0 0 137.00 166.74"
/>
<path stroke="#7d5536" vector-effect="non-scaling-stroke" d="
  M 146.71 237.13
  L 146.74 237.24
  A 2.63 2.62 74.1 0 0 150.19 239.16
  Q 159.70 235.77 166.84 230.30
  A 1.49 1.49 0.0 0 1 168.63 230.29
  C 173.85 234.24 178.61 237.47 185.05 238.60
  A 2.73 2.73 0.0 0 0 188.24 236.19
  L 188.28 235.87
  A 3.90 3.90 0.0 0 0 185.48 231.73
  Q 178.96 229.86 172.86 225.63
  C 170.74 224.16 169.94 221.86 169.93 219.50
  Q 169.81 201.71 169.27 184.07
  A 2.20 2.20 0.0 0 0 166.79 181.96
  L 166.72 181.97
  A 3.42 3.42 0.0 0 0 164.00 185.32
  L 163.99 222.16
  A 1.79 1.75 64.6 0 1 163.61 223.26
  Q 160.33 227.41 155.25 229.77
  Q 150.72 231.89 148.68 232.95
  A 3.81 3.81 0.0 0 0 146.71 237.13"
/>
</g>
<path fill="#582f14" d="
  M 197.60 32.96
  Q 197.37 34.66 199.29 36.64
  C 203.26 45.01 206.10 54.14 202.49 62.67
  A 1.42 1.42 0.0 0 0 203.36 64.57
  L 218.52 69.44
  A 2.35 2.35 0.0 0 0 221.19 68.50
  Q 224.65 63.27 231.45 57.52
  Q 239.84 50.43 249.99 53.70
  Q 255.81 55.57 258.76 60.53
  C 267.11 74.51 265.07 87.65 255.85 100.00
  A 2.30 2.30 0.0 0 0 255.62 102.38
  Q 257.73 106.71 260.82 113.93
  Q 271.82 139.60 277.47 161.79
  Q 283.54 185.63 276.42 208.91
  A 2.98 2.96 -51.9 0 0 276.70 211.28
  C 285.47 226.01 294.08 244.25 297.57 258.44
  Q 301.70 275.31 302.05 292.41
  A 1.20 1.20 0.0 0 0 302.66 293.44
  C 312.66 299.22 321.13 307.10 323.91 318.24
  C 330.75 345.63 312.72 366.75 292.05 381.20
  A 1.10 1.10 0.0 0 0 291.83 382.80
  C 296.61 388.61 303.75 399.23 293.18 404.23
  C 284.06 408.54 273.42 410.19 262.67 409.35
  C 248.75 408.25 234.67 404.32 223.83 395.69
  A 2.09 2.08 21.1 0 1 223.04 393.92
  L 223.94 380.51
  A 0.54 0.53 2.5 0 0 223.41 379.94
  L 190.29 379.42
  L 201.45 377.13
  L 222.65 371.80
  A 4.36 4.36 0.0 0 0 223.94 371.25
  Q 226.66 369.54 227.37 368.35
  C 229.52 364.74 231.68 361.52 234.13 357.71
  Q 240.46 347.88 250.69 341.97
  Q 252.04 341.99 252.42 342.39
  Q 254.91 345.92 251.89 348.34
  Q 248.98 350.67 246.16 354.17
  Q 238.98 363.08 234.07 373.90
  Q 231.90 378.94 230.77 385.95
  Q 228.65 394.39 237.29 396.71
  Q 247.86 399.55 258.74 400.25
  A 4.04 3.90 54.8 0 1 259.74 400.44
  Q 263.64 401.67 267.52 401.11
  A 1.09 1.09 0.0 0 0 268.25 399.39
  C 266.03 396.27 263.40 393.41 264.03 390.91
  A 0.70 0.69 -85.4 0 1 264.65 390.38
  Q 272.13 389.71 275.48 399.69
  A 2.44 2.42 -9.1 0 0 277.79 401.35
  L 280.32 401.35
  A 1.68 1.68 0.0 0 0 281.63 398.62
  C 280.10 396.70 275.34 389.48 279.57 388.15
  A 1.51 1.48 -39.5 0 1 280.72 388.25
  Q 284.50 390.15 287.65 393.71
  Q 289.41 395.70 289.11 398.61
  A 0.48 0.47 76.5 0 0 289.84 399.06
  Q 291.20 398.18 291.53 396.50
  A 1.39 1.37 -55.3 0 0 291.36 395.53
  C 289.41 392.14 283.19 385.73 278.41 386.16
  Q 271.74 386.74 267.23 381.94
  A 0.46 0.43 24.9 0 1 267.11 381.64
  Q 267.12 381.21 267.52 381.00
  Q 273.58 380.55 278.77 378.32
  C 292.95 373.19 307.27 362.46 314.28 348.52
  Q 319.55 338.05 317.82 324.77
  Q 316.27 312.99 307.64 305.27
  C 302.89 301.01 296.93 299.44 290.85 298.48
  Q 285.14 297.57 277.00 297.88
  A 2.27 2.25 -84.5 0 0 274.88 299.64
  Q 273.34 306.51 269.78 312.28
  Q 265.91 318.55 264.32 320.59
  Q 256.29 330.93 244.75 336.76
  C 236.10 341.13 225.18 342.63 215.89 343.33
  Q 210.40 343.75 201.20 342.33
  Q 185.60 339.94 185.18 339.86
  C 178.00 338.56 167.96 333.96 167.45 325.69
  A 0.75 0.74 49.2 0 0 165.98 325.58
  Q 164.64 331.90 159.03 335.37
  Q 152.73 339.28 145.43 340.45
  Q 128.83 343.11 124.73 343.43
  Q 118.57 343.92 114.50 343.23
  C 108.96 342.30 101.90 341.13 95.54 338.77
  Q 84.10 334.53 75.12 326.32
  C 66.95 318.85 61.84 310.09 58.62 299.79
  A 2.85 2.85 0.0 0 0 56.57 297.87
  Q 54.48 297.36 52.00 297.44
  Q 41.01 297.78 30.99 301.77
  A 5.61 5.49 -73.6 0 0 29.72 302.48
  Q 23.07 307.54 18.94 314.98
  C 13.33 325.10 14.38 338.82 19.35 349.01
  C 23.97 358.47 34.49 367.73 44.11 373.39
  C 50.65 377.25 55.09 378.24 63.41 380.45
  L 69.83 381.41
  L 61.26 385.54
  A 0.99 0.89 -56.3 0 1 60.91 385.63
  L 55.37 385.92
  A 4.74 4.72 32.8 0 0 53.92 386.23
  Q 46.20 389.19 42.32 396.00
  A 1.55 1.52 53.2 0 0 42.17 397.13
  Q 42.35 397.87 43.78 399.23
  A 0.27 0.27 0.0 0 0 44.24 399.08
  Q 45.11 393.92 48.71 390.96
  Q 50.87 389.19 52.52 388.91
  C 55.13 388.48 55.98 391.59 55.04 393.56
  Q 53.72 396.34 51.38 399.99
  A 0.82 0.82 0.0 0 0 51.78 401.20
  Q 54.31 402.14 57.80 401.99
  A 0.92 0.91 -4.2 0 0 58.67 400.99
  C 58.24 396.45 61.99 392.78 65.48 390.28
  A 1.00 0.97 24.1 0 1 66.00 390.09
  L 69.76 389.85
  A 0.59 0.59 0.0 0 1 70.34 390.67
  Q 68.57 394.78 64.85 399.31
  A 1.09 1.09 0.0 0 0 65.38 401.05
  Q 66.96 401.52 69.00 401.30
  Q 85.24 399.59 95.31 397.34
  Q 98.49 396.62 101.10 395.03
  A 1.83 1.75 88.7 0 0 101.75 394.32
  Q 103.36 391.03 103.07 387.25
  L 100.82 377.87
  Q 96.60 367.05 94.69 363.81
  Q 89.38 354.83 81.04 347.21
  Q 80.13 346.38 80.03 345.04
  C 81.38 342.04 84.68 343.10 86.75 344.53
  Q 97.58 352.04 102.73 363.67
  C 104.33 367.27 105.87 369.82 109.19 370.80
  Q 113.77 372.14 125.26 375.16
  Q 127.57 375.76 130.07 376.71
  Q 132.38 377.58 134.82 378.43
  L 110.29 377.94
  A 1.13 1.12 86.5 0 0 109.16 379.22
  L 110.88 391.08
  A 4.12 4.11 -40.6 0 1 110.74 392.87
  C 108.87 399.07 102.04 403.26 95.91 404.94
  Q 79.71 409.40 58.53 409.15
  C 47.37 409.01 38.91 406.18 33.45 396.04
  A 1.60 1.59 52.2 0 1 33.68 394.19
  L 43.71 383.35
  A 0.35 0.35 0.0 0 0 43.62 382.80
  Q 28.39 374.70 18.22 361.13
  A 6.31 6.20 2.8 0 0 17.39 360.23
  L 14.37 357.58
  Q 12.61 353.64 10.89 350.04
  C 7.89 343.74 7.39 337.48 6.56 330.64
  Q 7.93 325.38 9.37 319.84
  Q 13.41 304.32 26.65 295.67
  Q 28.99 294.14 29.71 293.60
  A 3.45 3.44 -17.1 0 0 31.08 291.02
  C 32.06 271.03 35.78 252.29 44.05 234.51
  Q 49.96 221.79 57.30 210.07
  A 2.44 2.44 0.0 0 0 57.61 208.22
  Q 51.52 181.37 59.06 154.25
  Q 66.17 128.69 78.37 103.46
  A 2.59 2.58 -49.4 0 0 78.18 100.88
  C 72.83 93.06 69.03 85.08 69.95 75.52
  C 70.61 68.61 74.19 56.33 81.63 53.94
  Q 91.40 50.79 99.60 56.67
  Q 107.30 62.18 112.03 69.86
  A 1.75 1.73 -24.1 0 0 114.02 70.61
  L 130.90 65.45
  A 1.07 1.06 67.7 0 0 131.53 63.93
  C 126.39 54.28 129.75 44.57 134.80 35.86
  A 15.81 15.56 68.7 0 0 136.22 32.55
  Q 138.52 24.77 141.39 18.90
  C 147.68 6.03 159.79 0.32 173.58 4.55
  C 187.67 8.88 193.23 19.62 197.60 32.96
  Z
  M 134.99 60.86
  L 134.99 53.45
  A 2.13 2.12 -7.7 0 1 136.56 51.40
  L 136.85 51.33
  A 0.92 0.91 -2.7 0 1 137.96 52.34
  Q 137.04 59.37 141.18 64.00
  C 143.66 66.77 148.47 68.63 150.70 70.78
  A 0.67 0.66 44.0 0 0 151.62 70.77
  Q 152.57 69.82 152.91 68.77
  A 1.05 1.04 53.9 0 1 154.95 69.09
  L 154.95 70.38
  A 0.76 0.76 0.0 0 0 155.53 71.12
  Q 166.54 73.87 177.72 71.28
  A 1.00 0.99 85.2 0 0 178.48 70.38
  L 178.62 68.39
  A 0.66 0.66 0.0 0 1 179.75 67.96
  L 181.53 69.74
  A 1.30 1.30 0.0 0 0 183.13 69.94
  C 186.97 67.62 194.12 62.59 193.84 58.23
  Q 193.55 53.70 193.95 51.46
  A 0.93 0.93 0.0 0 1 195.65 51.12
  C 197.49 53.99 197.51 56.90 197.46 60.43
  A 0.53 0.53 0.0 0 0 198.37 60.80
  Q 202.66 56.45 200.68 51.07
  Q 198.92 46.27 198.11 45.12
  C 194.00 39.35 192.40 37.11 191.12 31.00
  C 190.18 26.53 189.39 24.60 187.42 20.29
  C 183.62 12.03 176.48 9.41 167.53 8.74
  Q 162.15 8.34 158.11 9.90
  Q 152.45 12.08 149.89 14.64
  C 144.97 19.57 142.29 27.06 141.10 34.45
  A 7.59 7.50 63.9 0 1 140.30 36.83
  Q 138.81 39.62 136.21 43.69
  Q 134.92 45.72 132.06 52.96
  A 3.75 3.67 -37.9 0 0 131.82 54.73
  Q 132.18 58.00 134.62 60.99
  A 0.21 0.21 0.0 0 0 134.99 60.86
  Z
  M 223.71 79.45
  Q 216.98 77.68 211.00 74.79
  A 13.21 12.61 -23.1 0 0 208.73 73.94
  C 205.99 73.21 198.45 70.09 194.41 70.93
  Q 191.62 71.51 187.44 74.83
  C 185.02 76.75 183.30 79.91 181.18 82.11
  A 1.61 1.60 -31.6 0 1 178.49 81.47
  L 177.62 78.61
  A 1.03 1.02 -8.4 0 0 176.64 77.89
  L 158.95 78.05
  A 0.82 0.82 0.0 0 0 158.54 78.16
  Q 155.53 79.84 154.39 82.14
  A 0.86 0.86 0.0 0 1 153.15 82.48
  Q 150.96 81.07 149.56 78.91
  C 146.81 74.67 143.54 72.49 139.08 71.15
  A 4.44 4.36 -37.6 0 0 137.50 70.96
  Q 134.78 71.11 130.02 72.52
  Q 122.04 74.90 111.97 79.41
  Q 109.32 80.60 108.16 77.91
  C 105.91 72.70 102.36 66.12 97.41 62.44
  Q 93.32 59.41 90.51 59.17
  C 79.50 58.24 76.79 65.98 75.77 74.99
  Q 74.79 83.61 79.57 90.42
  Q 81.43 93.07 87.21 97.88
  Q 88.64 98.77 89.10 99.51
  Q 74.79 125.79 65.64 154.18
  Q 61.30 167.66 61.42 183.76
  C 61.55 202.31 67.64 217.92 79.23 231.79
  Q 80.27 233.03 79.89 235.95
  Q 79.04 236.97 77.84 236.41
  C 69.73 232.62 65.12 224.43 60.76 218.05
  A 0.47 0.47 0.0 0 0 59.94 218.13
  Q 56.07 227.34 51.42 236.42
  C 43.03 252.79 38.84 271.99 39.15 290.04
  A 1.04 1.04 0.0 0 0 40.38 291.04
  Q 48.60 289.49 56.01 290.78
  A 0.80 0.80 0.0 0 0 56.95 289.92
  Q 56.46 283.99 57.00 276.20
  Q 57.34 271.26 60.44 269.57
  A 1.75 1.67 31.8 0 1 61.44 269.36
  Q 63.50 269.55 64.53 272.11
  A 1.85 1.74 -57.2 0 1 64.65 272.76
  C 64.52 283.25 64.41 291.82 67.10 300.37
  Q 69.02 306.47 73.39 312.64
  Q 83.25 326.54 100.63 332.08
  Q 114.88 336.61 128.81 335.05
  Q 137.77 333.66 146.63 331.65
  C 149.37 331.03 157.97 327.57 158.61 324.75
  A 0.59 0.58 83.7 0 0 157.79 324.09
  Q 156.77 324.58 155.46 325.16
  C 153.66 325.95 151.42 324.75 151.83 322.74
  C 152.44 319.73 157.39 317.21 160.61 315.05
  A 1.94 1.93 -25.5 0 0 161.38 312.89
  L 161.25 312.46
  A 1.73 1.73 0.0 0 0 158.87 311.40
  L 155.76 312.85
  A 1.53 1.50 34.9 0 1 154.98 312.98
  Q 152.05 312.64 151.74 309.87
  A 1.13 1.12 70.1 0 1 152.24 308.80
  Q 156.99 305.66 158.73 300.73
  A 2.16 2.16 0.0 0 0 156.96 297.87
  Q 155.59 297.71 153.20 298.06
  C 151.17 298.36 149.19 300.46 147.25 300.96
  Q 143.15 302.03 141.39 299.00
  A 1.59 1.59 0.0 0 1 141.58 297.14
  Q 143.47 295.03 146.60 293.71
  A 0.49 0.49 0.0 0 0 146.71 292.88
  Q 142.97 289.94 139.13 293.35
  C 136.72 295.48 134.88 297.87 132.10 299.19
  Q 128.81 300.74 125.27 300.83
  C 119.71 299.45 112.90 297.13 109.11 292.65
  Q 104.00 286.60 102.94 278.97
  C 102.38 274.87 101.26 271.52 106.05 270.67
  Q 108.00 270.85 108.73 273.26
  C 109.57 279.10 113.02 288.31 119.27 290.49
  Q 121.95 291.42 126.29 292.71
  A 2.07 2.05 -57.7 0 0 128.28 292.25
  C 133.96 286.99 142.46 279.51 150.35 286.55
  Q 151.40 287.50 153.01 288.75
  A 6.00 5.90 68.7 0 0 155.58 289.90
  Q 166.70 291.89 165.40 303.97
  A 0.64 0.64 0.0 0 0 166.26 304.65
  Q 167.78 304.10 167.56 303.00
  C 165.90 294.67 170.29 291.50 177.46 289.88
  A 4.05 3.86 17.0 0 0 179.12 289.05
  C 184.05 284.86 187.95 281.64 194.83 284.89
  Q 200.77 287.70 205.96 292.97
  A 1.29 1.28 58.8 0 0 207.25 293.29
  Q 210.97 292.13 214.07 290.79
  C 220.47 288.02 222.65 282.63 223.85 276.19
  C 224.47 272.90 226.12 271.05 229.45 271.55
  A 1.14 1.12 -10.1 0 1 230.28 272.12
  C 232.55 276.17 229.66 283.87 228.03 287.57
  C 224.60 295.34 216.58 299.27 208.42 300.51
  L 203.12 300.64
  A 1.10 1.07 -20.3 0 1 202.27 300.26
  C 197.94 295.24 195.13 291.82 188.46 291.34
  Q 187.29 291.25 186.48 292.27
  A 1.02 1.02 0.0 0 0 186.75 293.78
  L 189.38 295.35
  C 191.48 296.91 192.83 301.03 188.68 300.90
  Q 183.67 300.76 178.98 297.45
  A 1.96 1.94 -25.0 0 0 178.00 297.10
  C 176.06 296.95 173.37 298.89 174.35 301.28
  C 176.20 305.82 181.60 306.62 181.40 310.43
  A 2.55 2.36 -2.3 0 1 179.17 312.66
  Q 175.77 313.07 172.69 310.59
  A 0.84 0.84 0.0 0 0 171.32 311.25
  L 171.32 311.91
  A 2.58 2.58 0.0 0 0 172.19 313.84
  Q 175.52 316.74 178.72 318.73
  C 180.39 319.77 181.78 321.39 182.32 323.14
  A 1.49 1.48 72.1 0 1 181.38 324.99
  C 178.65 325.90 176.72 324.17 174.58 323.20
  A 0.52 0.51 -85.0 0 0 173.87 323.80
  C 175.84 331.65 198.64 334.21 205.46 334.85
  Q 218.50 336.45 230.69 333.25
  Q 243.53 329.88 252.84 321.34
  Q 268.38 307.11 269.70 284.08
  Q 270.05 279.63 269.63 275.26
  C 269.35 272.38 269.94 270.31 272.97 270.31
  A 2.00 1.95 59.8 0 1 273.98 270.59
  Q 275.80 271.67 276.07 273.25
  Q 277.35 280.98 276.58 289.36
  L 276.42 290.60
  A 0.40 0.40 0.0 0 0 276.94 291.03
  C 281.96 289.50 290.09 288.93 294.29 291.51
  A 0.37 0.37 0.0 0 0 294.81 291.04
  L 294.35 290.06
  A 2.56 2.51 32.2 0 1 294.10 289.01
  Q 293.92 275.05 291.72 264.75
  Q 288.78 250.95 282.65 236.82
  C 279.81 230.27 276.03 224.86 273.08 218.21
  A 0.73 0.73 0.0 0 0 271.75 218.21
  Q 267.21 228.46 258.72 235.47
  Q 256.99 236.91 255.23 237.55
  A 2.00 1.98 67.9 0 1 252.73 236.48
  Q 251.81 234.42 253.43 232.42
  C 263.03 220.60 270.73 207.67 272.17 192.18
  Q 273.08 182.36 272.15 174.53
  Q 269.66 153.62 260.97 133.27
  Q 254.33 117.74 246.82 102.64
  L 245.62 99.10
  Q 249.15 96.14 252.64 92.62
  Q 257.70 87.52 257.96 80.48
  C 258.25 72.92 257.96 66.50 251.63 61.23
  C 245.79 56.37 236.66 59.46 232.49 64.95
  Q 227.96 70.90 224.51 78.90
  A 0.92 0.92 0.0 0 1 224.17 79.30
  Q 223.86 79.51 223.71 79.45
  Z"
/>
<path fill="#f6d683" d="
  M 134.99 60.86
  A 0.21 0.21 0.0 0 1 134.62 60.99
  Q 132.18 58.00 131.82 54.73
  A 3.75 3.67 -37.9 0 1 132.06 52.96
  Q 134.92 45.72 136.21 43.69
  Q 138.81 39.62 140.30 36.83
  A 7.59 7.50 63.9 0 0 141.10 34.45
  C 142.29 27.06 144.97 19.57 149.89 14.64
  Q 152.45 12.08 158.11 9.90
  Q 162.15 8.34 167.53 8.74
  C 176.48 9.41 183.62 12.03 187.42 20.29
  C 189.39 24.60 190.18 26.53 191.12 31.00
  C 192.40 37.11 194.00 39.35 198.11 45.12
  Q 198.92 46.27 200.68 51.07
  Q 202.66 56.45 198.37 60.80
  A 0.53 0.53 0.0 0 1 197.46 60.43
  C 197.51 56.90 197.49 53.99 195.65 51.12
  A 0.93 0.93 0.0 0 0 193.95 51.46
  Q 193.55 53.70 193.84 58.23
  C 194.12 62.59 186.97 67.62 183.13 69.94
  A 1.30 1.30 0.0 0 1 181.53 69.74
  L 179.75 67.96
  A 0.66 0.66 0.0 0 0 178.62 68.39
  L 178.48 70.38
  A 1.00 0.99 85.2 0 1 177.72 71.28
  Q 166.54 73.87 155.53 71.12
  A 0.76 0.76 0.0 0 1 154.95 70.38
  L 154.95 69.09
  A 1.05 1.04 53.9 0 0 152.91 68.77
  Q 152.57 69.82 151.62 70.77
  A 0.67 0.66 44.0 0 1 150.70 70.78
  C 148.47 68.63 143.66 66.77 141.18 64.00
  Q 137.04 59.37 137.96 52.34
  A 0.92 0.91 -2.7 0 0 136.85 51.33
  L 136.56 51.40
  A 2.13 2.12 -7.7 0 0 134.99 53.45
  L 134.99 60.86
  Z
  M 152.7508 24.2412
  A 3.79 2.88 -85.6 0 0 149.5885 27.7990
  A 3.79 2.88 -85.6 0 0 152.1692 31.7988
  A 3.79 2.88 -85.6 0 0 155.3315 28.2410
  A 3.79 2.88 -85.6 0 0 152.7508 24.2412
  Z
  M 180.5555 24.5047
  A 3.85 3.15 -85.0 0 0 177.0820 28.0655
  A 3.85 3.15 -85.0 0 0 179.8845 32.1753
  A 3.85 3.15 -85.0 0 0 183.3580 28.6145
  A 3.85 3.15 -85.0 0 0 180.5555 24.5047
  Z
  M 166.53 41.86
  C 169.85 41.87 172.84 41.37 175.32 39.60
  A 2.62 2.62 0.0 0 0 176.25 36.58
  C 174.76 32.47 171.09 29.55 166.56 29.54
  C 162.02 29.53 158.34 32.44 156.83 36.53
  A 2.62 2.62 0.0 0 0 157.75 39.56
  C 160.22 41.34 163.21 41.85 166.53 41.86
  Z"
/>
<ellipse fill="#582f14" cx="0.00" cy="0.00" transform="translate(152.46,28.02) rotate(-85.6)" rx="3.79" ry="2.88"/>
<ellipse fill="#582f14" cx="0.00" cy="0.00" transform="translate(180.22,28.34) rotate(-85.0)" rx="3.85" ry="3.15"/>
<path fill="#582f14" d="
  M 166.56 29.54
  C 171.09 29.55 174.76 32.47 176.25 36.58
  A 2.62 2.62 0.0 0 1 175.32 39.60
  C 172.84 41.37 169.85 41.87 166.53 41.86
  C 163.21 41.85 160.22 41.34 157.75 39.56
  A 2.62 2.62 0.0 0 1 156.83 36.53
  C 158.34 32.44 162.02 29.53 166.56 29.54
  Z
  M 161.27 37.39
  L 171.57 37.48
  A 0.17 0.17 0.0 0 0 171.74 37.32
  L 171.74 37.22
  A 4.50 4.03 0.5 0 0 167.28 33.15
  L 165.64 33.13
  A 4.50 4.03 0.5 0 0 161.10 37.12
  L 161.10 37.22
  A 0.17 0.17 0.0 0 0 161.27 37.39
  Z"
/>
<path fill="#cb9a6e" d="
  M 161.27 37.39
  A 0.17 0.17 0.0 0 1 161.10 37.22
  L 161.10 37.12
  A 4.50 4.03 0.5 0 1 165.64 33.13
  L 167.28 33.15
  A 4.50 4.03 0.5 0 1 171.74 37.22
  L 171.74 37.32
  A 0.17 0.17 0.0 0 1 171.57 37.48
  L 161.27 37.39
  Z"
/>
<path fill="#a17a57" d="
  M 197.60 32.96
  L 199.29 36.64
  Q 197.37 34.66 197.60 32.96
  Z"
/>
<path fill="#a17a57" d="
  M 245.62 99.10
  L 235.86 89.33
  Q 239.87 83.10 240.73 79.75
  Q 242.23 73.90 246.29 71.26
  A 3.53 3.53 0.0 0 0 247.56 66.80
  L 247.33 66.29
  A 2.24 2.24 0.0 0 0 243.84 65.49
  L 238.36 70.15
  A 1.56 1.25 -85.0 0 0 238.14 70.38
  Q 232.28 78.53 233.40 87.55
  Q 232.50 87.12 231.22 86.27
  Q 230.30 85.66 229.47 84.53
  Q 226.86 80.99 223.71 79.45
  Q 223.86 79.51 224.17 79.30
  A 0.92 0.92 0.0 0 0 224.51 78.90
  Q 227.96 70.90 232.49 64.95
  C 236.66 59.46 245.79 56.37 251.63 61.23
  C 257.96 66.50 258.25 72.92 257.96 80.48
  Q 257.70 87.52 252.64 92.62
  Q 249.15 96.14 245.62 99.10
  Z"
/>
<path fill="#cb9a6e" d="
  M 223.71 79.45
  Q 226.86 80.99 229.47 84.53
  Q 230.30 85.66 231.22 86.27
  Q 232.50 87.12 233.40 87.55
  L 235.86 89.33
  L 245.62 99.10
  L 246.82 102.64
  L 245.70 102.03
  A 0.18 0.18 0.0 0 0 245.44 102.24
  Q 246.65 106.12 247.75 108.31
  Q 252.96 118.69 258.48 132.53
  C 261.11 139.11 262.67 146.05 264.96 152.47
  C 267.44 159.38 268.92 168.82 269.75 174.83
  Q 270.49 180.21 270.35 191.26
  Q 270.27 197.48 268.04 203.43
  C 263.76 214.82 258.89 222.69 251.02 232.81
  A 1.00 1.00 0.0 0 0 250.83 233.64
  Q 251.82 238.40 257.12 238.52
  A 1.34 1.30 -63.3 0 0 257.98 238.22
  C 260.69 235.98 262.08 234.98 264.06 232.73
  Q 268.83 227.30 271.86 223.03
  A 1.16 1.16 0.0 0 1 273.91 223.34
  Q 275.15 227.02 277.27 230.17
  A 5.13 4.82 -75.2 0 1 277.73 231.02
  Q 280.04 236.49 283.69 244.28
  Q 284.68 246.38 286.52 253.58
  C 287.56 257.65 290.22 263.45 290.72 267.98
  Q 291.71 276.93 292.33 283.31
  Q 292.53 285.37 292.40 286.90
  A 1.29 1.29 0.0 0 1 291.23 288.08
  L 276.58 289.36
  Q 277.35 280.98 276.07 273.25
  Q 275.80 271.67 273.98 270.59
  A 2.00 1.95 59.8 0 0 272.97 270.31
  C 269.94 270.31 269.35 272.38 269.63 275.26
  Q 270.05 279.63 269.70 284.08
  L 269.31 281.97
  A 0.48 0.48 0.0 0 0 268.47 281.75
  Q 267.96 282.36 267.95 283.01
  Q 267.95 288.82 266.90 293.60
  Q 266.46 295.58 265.23 298.48
  Q 263.37 302.90 263.22 303.29
  Q 257.73 317.43 245.46 325.20
  Q 240.47 328.36 235.50 329.90
  C 233.11 330.63 229.45 331.71 227.10 332.06
  Q 217.30 333.56 207.65 331.75
  C 208.71 327.49 210.52 322.94 210.91 319.11
  Q 211.54 312.84 209.20 305.30
  Q 208.87 304.25 209.24 303.00
  A 0.85 0.84 -84.6 0 0 208.35 301.92
  Q 202.95 302.41 199.42 299.31
  C 196.02 296.32 193.70 294.96 189.38 295.35
  L 186.75 293.78
  A 1.02 1.02 0.0 0 1 186.48 292.27
  Q 187.29 291.25 188.46 291.34
  C 195.13 291.82 197.94 295.24 202.27 300.26
  A 1.10 1.07 -20.3 0 0 203.12 300.64
  L 208.42 300.51
  C 209.25 302.94 212.82 302.26 214.59 301.58
  C 224.95 297.63 230.98 289.31 233.42 278.81
  Q 234.72 273.24 230.04 269.32
  A 1.90 1.88 60.3 0 0 228.51 268.89
  C 219.59 270.28 222.68 279.86 218.40 284.73
  Q 214.22 289.49 207.81 290.65
  A 1.35 1.35 0.0 0 1 206.72 290.37
  Q 204.32 288.42 200.83 285.49
  Q 199.79 284.62 195.44 282.68
  C 190.30 280.40 185.92 281.00 181.63 284.14
  Q 177.67 287.04 174.47 288.00
  C 172.01 288.73 170.36 290.13 168.41 291.43
  A 1.52 1.49 82.3 0 0 167.82 292.22
  L 167.29 293.85
  A 0.76 0.76 0.0 0 1 165.95 294.06
  Q 162.18 288.91 155.92 287.59
  C 152.93 286.96 152.01 286.04 149.46 284.13
  Q 144.81 280.64 139.45 282.47
  Q 134.07 284.29 131.37 286.64
  Q 131.19 286.79 128.07 289.75
  A 1.39 1.38 23.5 0 1 127.09 290.13
  Q 120.78 289.97 117.86 287.24
  Q 112.32 282.05 110.42 273.59
  A 0.77 0.73 16.7 0 0 110.20 273.21
  Q 109.55 272.61 108.73 273.26
  Q 108.00 270.85 106.05 270.67
  C 101.79 267.89 100.77 275.39 101.01 277.90
  Q 101.77 285.89 106.58 292.28
  C 108.70 295.11 110.79 297.81 113.43 298.85
  Q 119.18 301.10 124.83 303.57
  C 122.67 309.92 122.11 316.42 123.81 322.96
  C 124.51 325.65 125.24 331.59 127.46 333.28
  Q 128.55 334.10 128.81 335.05
  Q 114.88 336.61 100.63 332.08
  Q 83.25 326.54 73.39 312.64
  Q 69.02 306.47 67.10 300.37
  C 64.41 291.82 64.52 283.25 64.65 272.76
  A 1.85 1.74 -57.2 0 0 64.53 272.11
  Q 63.50 269.55 61.44 269.36
  A 1.75 1.67 31.8 0 0 60.44 269.57
  Q 57.34 271.26 57.00 276.20
  Q 56.46 283.99 56.95 289.92
  A 0.80 0.80 0.0 0 1 56.01 290.78
  Q 48.60 289.49 40.38 291.04
  A 1.04 1.04 0.0 0 1 39.15 290.04
  C 38.84 271.99 43.03 252.79 51.42 236.42
  Q 56.07 227.34 59.94 218.13
  A 0.47 0.47 0.0 0 1 60.76 218.05
  C 65.12 224.43 69.73 232.62 77.84 236.41
  Q 79.04 236.97 79.89 235.95
  Q 80.04 236.64 80.48 236.86
  A 0.63 0.63 0.0 0 0 81.37 236.51
  C 82.84 232.27 79.06 228.69 76.23 225.29
  Q 74.47 223.17 72.51 219.64
  Q 62.96 202.39 62.87 182.20
  C 62.84 176.57 64.18 171.38 64.55 167.02
  Q 65.00 161.82 67.04 155.88
  Q 68.94 150.39 71.62 144.03
  C 73.13 140.47 73.49 137.51 75.11 134.14
  C 77.00 130.21 77.92 125.87 79.62 122.19
  Q 85.14 110.20 89.96 100.80
  A 0.77 0.77 0.0 0 0 89.85 99.95
  Q 89.61 99.68 89.32 99.53
  L 98.27 89.10
  L 101.07 86.84
  Q 105.35 84.50 108.31 80.89
  A 0.61 0.60 -44.6 0 0 108.32 80.13
  Q 104.97 75.86 102.12 70.58
  Q 97.41 61.86 87.45 61.41
  C 82.86 61.20 80.38 63.64 79.78 68.09
  C 79.12 73.06 77.47 77.59 77.21 82.58
  A 2.18 2.11 36.3 0 0 77.37 83.53
  Q 79.47 88.42 80.16 89.34
  Q 83.26 93.46 87.75 97.11
  A 0.51 0.51 0.0 0 1 87.73 97.92
  Q 87.72 97.93 87.21 97.88
  Q 81.43 93.07 79.57 90.42
  Q 74.79 83.61 75.77 74.99
  C 76.79 65.98 79.50 58.24 90.51 59.17
  Q 93.32 59.41 97.41 62.44
  C 102.36 66.12 105.91 72.70 108.16 77.91
  Q 109.32 80.60 111.97 79.41
  Q 122.04 74.90 130.02 72.52
  Q 134.78 71.11 137.50 70.96
  A 4.44 4.36 -37.6 0 1 139.08 71.15
  C 143.54 72.49 146.81 74.67 149.56 78.91
  Q 150.96 81.07 153.15 82.48
  A 0.86 0.86 0.0 0 0 154.39 82.14
  Q 155.53 79.84 158.54 78.16
  A 0.82 0.82 0.0 0 1 158.95 78.05
  L 176.64 77.89
  A 1.03 1.02 -8.4 0 1 177.62 78.61
  L 178.49 81.47
  A 1.61 1.60 -31.6 0 0 181.18 82.11
  C 183.30 79.91 185.02 76.75 187.44 74.83
  Q 191.62 71.51 194.41 70.93
  C 198.45 70.09 205.99 73.21 208.73 73.94
  A 13.21 12.61 -23.1 0 1 211.00 74.79
  Q 216.98 77.68 223.71 79.45
  Z
  M 243.1727 130.6168
  A 5.32 5.32 0.0 0 0 235.9627 128.4674
  L 220.5864 136.7813
  A 5.32 5.32 0.0 0 0 218.4370 143.9913
  L 218.6273 144.3432
  A 5.32 5.32 0.0 0 0 225.8373 146.4926
  L 241.2136 138.1787
  A 5.32 5.32 0.0 0 0 243.3630 130.9687
  L 243.1727 130.6168
  Z
  M 115.3774 143.8868
  A 5.45 5.45 0.0 0 0 113.1240 136.5161
  L 98.2904 128.6290
  A 5.45 5.45 0.0 0 0 90.9198 130.8824
  L 90.7226 131.2532
  A 5.45 5.45 0.0 0 0 92.9760 138.6239
  L 107.8096 146.5110
  A 5.45 5.45 0.0 0 0 115.1802 144.2576
  L 115.3774 143.8868
  Z
  M 121.53 231.61
  C 125.02 238.14 127.93 244.12 135.09 246.89
  C 138.56 248.24 141.49 249.65 144.95 250.32
  Q 166.97 254.56 188.26 250.76
  C 195.69 249.44 200.33 246.25 205.95 241.15
  A 7.93 7.80 84.8 0 0 207.41 239.37
  C 210.34 234.57 212.08 232.22 213.39 228.04
  Q 220.05 206.78 216.71 184.50
  Q 215.44 176.06 214.06 170.22
  C 212.85 165.14 209.40 158.65 205.24 154.01
  C 200.15 148.32 196.12 144.10 189.00 142.29
  Q 181.44 140.37 179.49 140.13
  Q 172.17 139.21 158.64 139.75
  Q 135.56 140.66 123.98 159.65
  Q 122.62 161.89 122.01 163.63
  C 120.59 167.64 119.30 169.93 118.46 174.21
  Q 117.35 179.90 117.11 185.19
  C 116.99 187.91 116.30 190.26 116.19 192.42
  Q 115.59 203.82 117.36 217.48
  Q 118.46 225.88 121.53 231.61
  Z
  M 207.92 256.21
  Q 203.42 258.20 196.35 258.83
  A 13.07 11.92 25.1 0 0 194.58 259.11
  Q 183.33 261.74 172.13 262.57
  Q 151.91 264.08 130.89 257.23
  Q 127.82 256.23 127.70 256.20
  A 1.05 1.04 -66.7 0 0 126.60 256.64
  Q 125.44 258.37 126.61 259.83
  Q 133.37 268.22 143.86 271.10
  Q 152.53 273.48 163.96 274.08
  C 168.57 274.32 173.35 273.48 178.10 273.30
  C 186.66 272.98 194.67 270.07 201.76 265.54
  Q 206.74 262.35 206.94 262.16
  Q 208.75 260.40 208.13 256.32
  A 0.15 0.15 0.0 0 0 207.92 256.21
  Z"
/>
<path fill="#a17a57" d="
  M 101.07 86.84
  C 100.11 78.63 97.54 71.68 90.60 66.67
  Q 87.16 64.19 85.12 67.53
  A 2.25 2.24 -50.4 0 0 85.37 70.20
  L 91.34 76.81
  A 4.54 4.40 -77.3 0 1 92.20 78.22
  Q 93.41 81.48 94.94 85.11
  Q 96.11 87.91 98.27 89.10
  L 89.32 99.53
  Q 89.21 99.52 89.10 99.51
  Q 88.64 98.77 87.21 97.88
  Q 87.72 97.93 87.73 97.92
  A 0.51 0.51 0.0 0 0 87.75 97.11
  Q 83.26 93.46 80.16 89.34
  Q 79.47 88.42 77.37 83.53
  A 2.18 2.11 36.3 0 1 77.21 82.58
  C 77.47 77.59 79.12 73.06 79.78 68.09
  C 80.38 63.64 82.86 61.20 87.45 61.41
  Q 97.41 61.86 102.12 70.58
  Q 104.97 75.86 108.32 80.13
  A 0.61 0.60 -44.6 0 1 108.31 80.89
  Q 105.35 84.50 101.07 86.84
  Z"
/>
<path fill="#582f14" d="
  M 235.86 89.33
  L 233.40 87.55
  Q 232.28 78.53 238.14 70.38
  A 1.56 1.25 -85.0 0 1 238.36 70.15
  L 243.84 65.49
  A 2.24 2.24 0.0 0 1 247.33 66.29
  L 247.56 66.80
  A 3.53 3.53 0.0 0 1 246.29 71.26
  Q 242.23 73.90 240.73 79.75
  Q 239.87 83.10 235.86 89.33
  Z"
/>
<path fill="#582f14" d="
  M 101.07 86.84
  L 98.27 89.10
  Q 96.11 87.91 94.94 85.11
  Q 93.41 81.48 92.20 78.22
  A 4.54 4.40 -77.3 0 0 91.34 76.81
  L 85.37 70.20
  A 2.25 2.24 -50.4 0 1 85.12 67.53
  Q 87.16 64.19 90.60 66.67
  C 97.54 71.68 100.11 78.63 101.07 86.84
  Z"
/>
<path fill="#e2b895" d="
  M 89.32 99.53
  Q 89.61 99.68 89.85 99.95
  A 0.77 0.77 0.0 0 1 89.96 100.80
  Q 85.14 110.20 79.62 122.19
  C 77.92 125.87 77.00 130.21 75.11 134.14
  C 73.49 137.51 73.13 140.47 71.62 144.03
  Q 68.94 150.39 67.04 155.88
  Q 65.00 161.82 64.55 167.02
  C 64.18 171.38 62.84 176.57 62.87 182.20
  Q 62.96 202.39 72.51 219.64
  Q 74.47 223.17 76.23 225.29
  C 79.06 228.69 82.84 232.27 81.37 236.51
  A 0.63 0.63 0.0 0 1 80.48 236.86
  Q 80.04 236.64 79.89 235.95
  Q 80.27 233.03 79.23 231.79
  C 67.64 217.92 61.55 202.31 61.42 183.76
  Q 61.30 167.66 65.64 154.18
  Q 74.79 125.79 89.10 99.51
  Q 89.21 99.52 89.32 99.53
  Z"
/>
<path fill="#e2b895" d="
  M 246.82 102.64
  Q 254.33 117.74 260.97 133.27
  Q 269.66 153.62 272.15 174.53
  Q 273.08 182.36 272.17 192.18
  C 270.73 207.67 263.03 220.60 253.43 232.42
  Q 251.81 234.42 252.73 236.48
  A 2.00 1.98 67.9 0 0 255.23 237.55
  Q 256.99 236.91 258.72 235.47
  Q 267.21 228.46 271.75 218.21
  A 0.73 0.73 0.0 0 1 273.08 218.21
  C 276.03 224.86 279.81 230.27 282.65 236.82
  Q 288.78 250.95 291.72 264.75
  Q 293.92 275.05 294.10 289.01
  A 2.56 2.51 32.2 0 0 294.35 290.06
  L 294.81 291.04
  A 0.37 0.37 0.0 0 1 294.29 291.51
  C 290.09 288.93 281.96 289.50 276.94 291.03
  A 0.40 0.40 0.0 0 1 276.42 290.60
  L 276.58 289.36
  L 291.23 288.08
  A 1.29 1.29 0.0 0 0 292.40 286.90
  Q 292.53 285.37 292.33 283.31
  Q 291.71 276.93 290.72 267.98
  C 290.22 263.45 287.56 257.65 286.52 253.58
  Q 284.68 246.38 283.69 244.28
  Q 280.04 236.49 277.73 231.02
  A 5.13 4.82 -75.2 0 0 277.27 230.17
  Q 275.15 227.02 273.91 223.34
  A 1.16 1.16 0.0 0 0 271.86 223.03
  Q 268.83 227.30 264.06 232.73
  C 262.08 234.98 260.69 235.98 257.98 238.22
  A 1.34 1.30 -63.3 0 1 257.12 238.52
  Q 251.82 238.40 250.83 233.64
  A 1.00 1.00 0.0 0 1 251.02 232.81
  C 258.89 222.69 263.76 214.82 268.04 203.43
  Q 270.27 197.48 270.35 191.26
  Q 270.49 180.21 269.75 174.83
  C 268.92 168.82 267.44 159.38 264.96 152.47
  C 262.67 146.05 261.11 139.11 258.48 132.53
  Q 252.96 118.69 247.75 108.31
  Q 246.65 106.12 245.44 102.24
  A 0.18 0.18 0.0 0 1 245.70 102.03
  L 246.82 102.64
  Z"
/>
<rect fill="#582f14" x="-14.06" y="-5.52" transform="translate(230.90,137.48) rotate(-28.4)" width="28.12" height="11.04" rx="5.32"/>
<rect fill="#582f14" x="-13.85" y="-5.66" transform="translate(103.05,137.57) rotate(28.0)" width="27.70" height="11.32" rx="5.45"/>
<path fill="#a17a57" d="
  M 121.53 231.61
  Q 118.46 225.88 117.36 217.48
  Q 115.59 203.82 116.19 192.42
  C 116.30 190.26 116.99 187.91 117.11 185.19
  Q 117.35 179.90 118.46 174.21
  C 119.30 169.93 120.59 167.64 122.01 163.63
  Q 122.62 161.89 123.98 159.65
  Q 135.56 140.66 158.64 139.75
  Q 172.17 139.21 179.49 140.13
  Q 181.44 140.37 189.00 142.29
  C 196.12 144.10 200.15 148.32 205.24 154.01
  C 209.40 158.65 212.85 165.14 214.06 170.22
  Q 215.44 176.06 216.71 184.50
  Q 220.05 206.78 213.39 228.04
  C 212.08 232.22 210.34 234.57 207.41 239.37
  A 7.93 7.80 84.8 0 1 205.95 241.15
  C 200.33 246.25 195.69 249.44 188.26 250.76
  Q 166.97 254.56 144.95 250.32
  C 141.49 249.65 138.56 248.24 135.09 246.89
  C 127.93 244.12 125.02 238.14 121.53 231.61
  Z
  M 178.27 174.43
  Q 179.94 178.19 182.89 177.15
  Q 186.90 175.73 194.67 170.91
  Q 196.27 169.91 196.83 167.79
  C 198.11 162.96 192.93 161.94 189.60 162.91
  Q 183.61 164.66 179.58 170.60
  Q 178.20 172.63 178.12 173.45
  A 1.87 1.86 36.4 0 0 178.27 174.43
  Z
  M 137.00 166.74
  Q 136.87 170.29 140.32 172.32
  C 144.97 175.05 149.37 177.73 153.75 177.34
  A 1.18 1.18 0.0 0 0 154.71 176.67
  Q 156.19 173.55 154.64 171.06
  C 152.03 166.89 141.25 158.40 137.28 165.74
  A 2.25 2.14 62.0 0 0 137.00 166.74
  Z
  M 146.71 237.13
  L 146.74 237.24
  A 2.63 2.62 74.1 0 0 150.19 239.16
  Q 159.70 235.77 166.84 230.30
  A 1.49 1.49 0.0 0 1 168.63 230.29
  C 173.85 234.24 178.61 237.47 185.05 238.60
  A 2.73 2.73 0.0 0 0 188.24 236.19
  L 188.28 235.87
  A 3.90 3.90 0.0 0 0 185.48 231.73
  Q 178.96 229.86 172.86 225.63
  C 170.74 224.16 169.94 221.86 169.93 219.50
  Q 169.81 201.71 169.27 184.07
  A 2.20 2.20 0.0 0 0 166.79 181.96
  L 166.72 181.97
  A 3.42 3.42 0.0 0 0 164.00 185.32
  L 163.99 222.16
  A 1.79 1.75 64.6 0 1 163.61 223.26
  Q 160.33 227.41 155.25 229.77
  Q 150.72 231.89 148.68 232.95
  A 3.81 3.81 0.0 0 0 146.71 237.13
  Z"
/>
<path fill="#582f14" d="
  M 178.12 173.45
  Q 178.20 172.63 179.58 170.60
  Q 183.61 164.66 189.60 162.91
  C 192.93 161.94 198.11 162.96 196.83 167.79
  Q 196.27 169.91 194.67 170.91
  Q 186.90 175.73 182.89 177.15
  Q 179.94 178.19 178.27 174.43
  A 1.87 1.86 36.4 0 1 178.12 173.45
  Z"
/>
<path fill="#582f14" d="
  M 137.28 165.74
  C 141.25 158.40 152.03 166.89 154.64 171.06
  Q 156.19 173.55 154.71 176.67
  A 1.18 1.18 0.0 0 1 153.75 177.34
  C 149.37 177.73 144.97 175.05 140.32 172.32
  Q 136.87 170.29 137.00 166.74
  A 2.25 2.14 62.0 0 1 137.28 165.74
  Z"
/>
<path fill="#582f14" d="
  M 146.71 237.13
  A 3.81 3.81 0.0 0 1 148.68 232.95
  Q 150.72 231.89 155.25 229.77
  Q 160.33 227.41 163.61 223.26
  A 1.79 1.75 64.6 0 0 163.99 222.16
  L 164.00 185.32
  A 3.42 3.42 0.0 0 1 166.72 181.97
  L 166.79 181.96
  A 2.20 2.20 0.0 0 1 169.27 184.07
  Q 169.81 201.71 169.93 219.50
  C 169.94 221.86 170.74 224.16 172.86 225.63
  Q 178.96 229.86 185.48 231.73
  A 3.90 3.90 0.0 0 1 188.28 235.87
  L 188.24 236.19
  A 2.73 2.73 0.0 0 1 185.05 238.60
  C 178.61 237.47 173.85 234.24 168.63 230.29
  A 1.49 1.49 0.0 0 0 166.84 230.30
  Q 159.70 235.77 150.19 239.16
  A 2.63 2.62 74.1 0 1 146.74 237.24
  L 146.71 237.13
  Z"
/>
<path fill="#a17a57" d="
  M 207.92 256.21
  A 0.15 0.15 0.0 0 1 208.13 256.32
  Q 208.75 260.40 206.94 262.16
  Q 206.74 262.35 201.76 265.54
  C 194.67 270.07 186.66 272.98 178.10 273.30
  C 173.35 273.48 168.57 274.32 163.96 274.08
  Q 152.53 273.48 143.86 271.10
  Q 133.37 268.22 126.61 259.83
  Q 125.44 258.37 126.60 256.64
  A 1.05 1.04 -66.7 0 1 127.70 256.20
  Q 127.82 256.23 130.89 257.23
  Q 151.91 264.08 172.13 262.57
  Q 183.33 261.74 194.58 259.11
  A 13.07 11.92 25.1 0 1 196.35 258.83
  Q 203.42 258.20 207.92 256.21
  Z"
/>
<path fill="#e2b895" d="
  M 106.05 270.67
  C 101.26 271.52 102.38 274.87 102.94 278.97
  Q 104.00 286.60 109.11 292.65
  C 112.90 297.13 119.71 299.45 125.27 300.83
  Q 125.77 300.93 126.15 301.16
  A 0.54 0.53 -58.2 0 1 126.32 301.90
  Q 125.64 302.95 124.83 303.57
  Q 119.18 301.10 113.43 298.85
  C 110.79 297.81 108.70 295.11 106.58 292.28
  Q 101.77 285.89 101.01 277.90
  C 100.77 275.39 101.79 267.89 106.05 270.67
  Z"
/>
<path fill="#e2b895" d="
  M 208.42 300.51
  C 216.58 299.27 224.60 295.34 228.03 287.57
  C 229.66 283.87 232.55 276.17 230.28 272.12
  A 1.14 1.12 -10.1 0 0 229.45 271.55
  C 226.12 271.05 224.47 272.90 223.85 276.19
  C 222.65 282.63 220.47 288.02 214.07 290.79
  Q 210.97 292.13 207.25 293.29
  A 1.29 1.28 58.8 0 1 205.96 292.97
  Q 200.77 287.70 194.83 284.89
  C 187.95 281.64 184.05 284.86 179.12 289.05
  A 4.05 3.86 17.0 0 1 177.46 289.88
  C 170.29 291.50 165.90 294.67 167.56 303.00
  Q 167.78 304.10 166.26 304.65
  A 0.64 0.64 0.0 0 1 165.40 303.97
  Q 166.70 291.89 155.58 289.90
  A 6.00 5.90 68.7 0 1 153.01 288.75
  Q 151.40 287.50 150.35 286.55
  C 142.46 279.51 133.96 286.99 128.28 292.25
  A 2.07 2.05 -57.7 0 1 126.29 292.71
  Q 121.95 291.42 119.27 290.49
  C 113.02 288.31 109.57 279.10 108.73 273.26
  Q 109.55 272.61 110.20 273.21
  A 0.77 0.73 16.7 0 1 110.42 273.59
  Q 112.32 282.05 117.86 287.24
  Q 120.78 289.97 127.09 290.13
  A 1.39 1.38 23.5 0 0 128.07 289.75
  Q 131.19 286.79 131.37 286.64
  Q 134.07 284.29 139.45 282.47
  Q 144.81 280.64 149.46 284.13
  C 152.01 286.04 152.93 286.96 155.92 287.59
  Q 162.18 288.91 165.95 294.06
  A 0.76 0.76 0.0 0 0 167.29 293.85
  L 167.82 292.22
  A 1.52 1.49 82.3 0 1 168.41 291.43
  C 170.36 290.13 172.01 288.73 174.47 288.00
  Q 177.67 287.04 181.63 284.14
  C 185.92 281.00 190.30 280.40 195.44 282.68
  Q 199.79 284.62 200.83 285.49
  Q 204.32 288.42 206.72 290.37
  A 1.35 1.35 0.0 0 0 207.81 290.65
  Q 214.22 289.49 218.40 284.73
  C 222.68 279.86 219.59 270.28 228.51 268.89
  A 1.90 1.88 60.3 0 1 230.04 269.32
  Q 234.72 273.24 233.42 278.81
  C 230.98 289.31 224.95 297.63 214.59 301.58
  C 212.82 302.26 209.25 302.94 208.42 300.51
  Z"
/>
<path fill="#e2b895" d="
  M 269.70 284.08
  Q 268.38 307.11 252.84 321.34
  Q 243.53 329.88 230.69 333.25
  Q 218.50 336.45 205.46 334.85
  L 204.47 334.23
  A 0.40 0.40 0.0 0 1 204.65 333.49
  Q 206.99 333.27 207.65 331.75
  Q 217.30 333.56 227.10 332.06
  C 229.45 331.71 233.11 330.63 235.50 329.90
  Q 240.47 328.36 245.46 325.20
  Q 257.73 317.43 263.22 303.29
  Q 263.37 302.90 265.23 298.48
  Q 266.46 295.58 266.90 293.60
  Q 267.95 288.82 267.95 283.01
  Q 267.96 282.36 268.47 281.75
  A 0.48 0.48 0.0 0 1 269.31 281.97
  L 269.70 284.08
  Z"
/>
<path fill="#a17a57" d="
  M 128.81 335.05
  Q 128.55 334.10 127.46 333.28
  C 125.24 331.59 124.51 325.65 123.81 322.96
  C 122.11 316.42 122.67 309.92 124.83 303.57
  Q 125.64 302.95 126.32 301.90
  A 0.54 0.53 -58.2 0 0 126.15 301.16
  Q 125.77 300.93 125.27 300.83
  Q 128.81 300.74 132.10 299.19
  C 134.88 297.87 136.72 295.48 139.13 293.35
  Q 142.97 289.94 146.71 292.88
  A 0.49 0.49 0.0 0 1 146.60 293.71
  Q 143.47 295.03 141.58 297.14
  A 1.59 1.59 0.0 0 0 141.39 299.00
  Q 143.15 302.03 147.25 300.96
  C 149.19 300.46 151.17 298.36 153.20 298.06
  Q 155.59 297.71 156.96 297.87
  A 2.16 2.16 0.0 0 1 158.73 300.73
  Q 156.99 305.66 152.24 308.80
  A 1.13 1.12 70.1 0 0 151.74 309.87
  Q 152.05 312.64 154.98 312.98
  A 1.53 1.50 34.9 0 0 155.76 312.85
  L 158.87 311.40
  A 1.73 1.73 0.0 0 1 161.25 312.46
  L 161.38 312.89
  A 1.94 1.93 -25.5 0 1 160.61 315.05
  C 157.39 317.21 152.44 319.73 151.83 322.74
  C 151.42 324.75 153.66 325.95 155.46 325.16
  Q 156.77 324.58 157.79 324.09
  A 0.59 0.58 83.7 0 1 158.61 324.75
  C 157.97 327.57 149.37 331.03 146.63 331.65
  Q 137.77 333.66 128.81 335.05
  Z"
/>
<path fill="#a17a57" d="
  M 207.65 331.75
  Q 206.99 333.27 204.65 333.49
  A 0.40 0.40 0.0 0 0 204.47 334.23
  L 205.46 334.85
  C 198.64 334.21 175.84 331.65 173.87 323.80
  A 0.52 0.51 -85.0 0 1 174.58 323.20
  C 176.72 324.17 178.65 325.90 181.38 324.99
  A 1.49 1.48 72.1 0 0 182.32 323.14
  C 181.78 321.39 180.39 319.77 178.72 318.73
  Q 175.52 316.74 172.19 313.84
  A 2.58 2.58 0.0 0 1 171.32 311.91
  L 171.32 311.25
  A 0.84 0.84 0.0 0 1 172.69 310.59
  Q 175.77 313.07 179.17 312.66
  A 2.55 2.36 -2.3 0 0 181.40 310.43
  C 181.60 306.62 176.20 305.82 174.35 301.28
  C 173.37 298.89 176.06 296.95 178.00 297.10
  A 1.96 1.94 -25.0 0 1 178.98 297.45
  Q 183.67 300.76 188.68 300.90
  C 192.83 301.03 191.48 296.91 189.38 295.35
  C 193.70 294.96 196.02 296.32 199.42 299.31
  Q 202.95 302.41 208.35 301.92
  A 0.85 0.84 -84.6 0 1 209.24 303.00
  Q 208.87 304.25 209.20 305.30
  Q 211.54 312.84 210.91 319.11
  C 210.52 322.94 208.71 327.49 207.65 331.75
  Z"
/>
<path fill="#e2b895" d="
  M 278.77 378.32
  Q 277.80 378.53 277.14 378.16
  A 0.58 0.58 0.0 0 1 277.24 377.11
  Q 281.78 375.58 287.78 372.48
  Q 290.53 371.06 293.20 368.81
  Q 293.49 368.57 298.52 364.94
  C 304.50 360.61 308.52 355.29 312.30 349.11
  C 316.76 341.83 317.06 334.87 316.85 326.12
  A 3.77 3.45 38.4 0 0 316.69 325.13
  C 315.51 321.31 315.14 317.89 313.30 314.84
  Q 308.88 307.53 304.04 304.79
  Q 294.93 299.62 281.29 299.39
  C 276.44 299.32 276.52 300.05 275.03 304.75
  Q 274.29 307.09 274.09 308.70
  A 1.77 1.74 -22.7 0 1 273.72 309.58
  Q 271.07 312.78 268.99 317.14
  A 5.02 4.77 -14.5 0 1 268.46 317.99
  Q 259.38 329.62 247.60 337.35
  Q 242.81 340.49 237.60 341.64
  C 235.82 342.03 234.24 342.93 232.58 343.19
  Q 229.44 343.69 224.11 345.12
  A 9.08 8.55 35.0 0 1 222.06 345.42
  Q 204.66 345.93 187.49 342.51
  C 180.27 341.07 171.67 337.47 167.48 331.36
  A 1.16 1.15 -43.7 0 0 165.60 331.32
  L 163.23 334.50
  A 2.29 1.91 -6.2 0 1 162.96 334.78
  Q 159.72 337.55 154.35 340.03
  C 151.66 341.27 148.85 341.36 145.88 342.23
  Q 143.23 343.00 139.39 343.34
  Q 137.54 343.50 125.62 345.65
  Q 119.12 346.82 110.74 345.68
  C 109.85 345.56 109.02 345.10 108.15 344.66
  A 5.93 5.81 64.0 0 0 106.75 344.16
  Q 97.54 342.16 94.26 340.76
  Q 91.65 339.65 85.15 335.98
  Q 81.08 333.69 76.83 329.95
  C 72.23 325.92 70.00 324.20 66.93 320.49
  Q 64.91 318.05 63.52 316.10
  Q 60.61 312.02 55.94 301.84
  A 1.54 1.49 4.6 0 0 55.34 301.16
  Q 52.70 299.55 50.13 299.66
  C 42.89 299.98 33.36 301.90 27.29 306.66
  A 4.57 3.90 -3.6 0 0 26.63 307.30
  Q 25.37 308.83 24.35 310.07
  C 19.73 315.68 17.26 321.68 17.07 328.94
  Q 16.87 336.23 16.87 336.48
  A 7.68 7.63 -55.4 0 0 17.35 339.15
  C 18.56 342.42 19.11 345.97 20.82 348.89
  C 24.70 355.52 29.69 359.67 36.55 366.19
  Q 39.86 369.33 42.94 371.17
  C 50.59 375.72 57.69 378.69 66.68 379.01
  A 0.62 0.61 87.9 0 1 67.28 379.57
  L 67.29 379.60
  A 0.56 0.53 -5.2 0 1 66.78 380.18
  L 63.41 380.45
  C 55.09 378.24 50.65 377.25 44.11 373.39
  C 34.49 367.73 23.97 358.47 19.35 349.01
  C 14.38 338.82 13.33 325.10 18.94 314.98
  Q 23.07 307.54 29.72 302.48
  A 5.61 5.49 -73.6 0 1 30.99 301.77
  Q 41.01 297.78 52.00 297.44
  Q 54.48 297.36 56.57 297.87
  A 2.85 2.85 0.0 0 1 58.62 299.79
  C 61.84 310.09 66.95 318.85 75.12 326.32
  Q 84.10 334.53 95.54 338.77
  C 101.90 341.13 108.96 342.30 114.50 343.23
  Q 118.57 343.92 124.73 343.43
  Q 128.83 343.11 145.43 340.45
  Q 152.73 339.28 159.03 335.37
  Q 164.64 331.90 165.98 325.58
  A 0.75 0.74 49.2 0 1 167.45 325.69
  C 167.96 333.96 178.00 338.56 185.18 339.86
  Q 185.60 339.94 201.20 342.33
  Q 210.40 343.75 215.89 343.33
  C 225.18 342.63 236.10 341.13 244.75 336.76
  Q 256.29 330.93 264.32 320.59
  Q 265.91 318.55 269.78 312.28
  Q 273.34 306.51 274.88 299.64
  A 2.27 2.25 -84.5 0 1 277.00 297.88
  Q 285.14 297.57 290.85 298.48
  C 296.93 299.44 302.89 301.01 307.64 305.27
  Q 316.27 312.99 317.82 324.77
  Q 319.55 338.05 314.28 348.52
  C 307.27 362.46 292.95 373.19 278.77 378.32
  Z"
/>
<path fill="#cb9a6e" d="
  M 278.77 378.32
  Q 273.58 380.55 267.52 381.00
  Q 266.69 380.41 266.35 380.40
  Q 253.63 380.08 241.16 382.54
  A 9.06 8.90 26.3 0 0 239.18 383.19
  Q 235.10 385.11 230.77 385.95
  Q 231.90 378.94 234.07 373.90
  Q 236.25 374.02 238.11 370.53
  Q 242.39 362.47 247.20 356.02
  C 249.42 353.04 251.44 351.27 254.19 348.60
  A 1.75 1.70 75.6 0 0 254.66 347.78
  Q 254.97 346.48 254.95 344.27
  Q 254.92 341.59 252.42 342.39
  Q 252.04 341.99 250.69 341.97
  Q 250.77 340.65 248.50 341.75
  Q 242.26 344.77 237.39 350.39
  C 234.47 353.77 232.13 358.05 228.98 361.58
  A 2.67 2.65 74.9 0 0 228.45 362.51
  Q 227.15 366.52 223.54 369.45
  A 2.65 2.49 -70.3 0 1 222.54 369.96
  Q 217.74 371.16 215.56 372.11
  A 8.72 8.29 27.4 0 1 213.49 372.71
  Q 205.72 373.95 202.94 375.23
  Q 199.84 376.65 201.45 377.13
  L 190.29 379.42
  L 134.82 378.43
  Q 132.38 377.58 130.07 376.71
  Q 127.57 375.76 125.26 375.16
  Q 113.77 372.14 109.19 370.80
  C 105.87 369.82 104.33 367.27 102.73 363.67
  Q 97.58 352.04 86.75 344.53
  C 84.68 343.10 81.38 342.04 80.03 345.04
  Q 78.72 345.47 78.81 346.33
  Q 78.98 348.02 80.64 349.46
  C 84.81 353.08 87.47 356.18 90.28 361.27
  Q 95.24 370.24 99.40 378.64
  A 0.63 0.62 42.4 0 0 100.54 378.59
  L 100.82 377.87
  L 103.07 387.25
  C 101.21 386.58 99.83 385.51 98.05 384.98
  Q 83.85 380.74 69.83 381.41
  L 63.41 380.45
  L 66.78 380.18
  A 0.56 0.53 -5.2 0 0 67.29 379.60
  L 67.28 379.57
  A 0.62 0.61 87.9 0 0 66.68 379.01
  C 57.69 378.69 50.59 375.72 42.94 371.17
  Q 39.86 369.33 36.55 366.19
  C 29.69 359.67 24.70 355.52 20.82 348.89
  C 19.11 345.97 18.56 342.42 17.35 339.15
  A 7.68 7.63 -55.4 0 1 16.87 336.48
  Q 16.87 336.23 17.07 328.94
  C 17.26 321.68 19.73 315.68 24.35 310.07
  Q 25.37 308.83 26.63 307.30
  A 4.57 3.90 -3.6 0 1 27.29 306.66
  C 33.36 301.90 42.89 299.98 50.13 299.66
  Q 52.70 299.55 55.34 301.16
  A 1.54 1.49 4.6 0 1 55.94 301.84
  Q 60.61 312.02 63.52 316.10
  Q 64.91 318.05 66.93 320.49
  C 70.00 324.20 72.23 325.92 76.83 329.95
  Q 81.08 333.69 85.15 335.98
  Q 91.65 339.65 94.26 340.76
  Q 97.54 342.16 106.75 344.16
  A 5.93 5.81 64.0 0 1 108.15 344.66
  C 109.02 345.10 109.85 345.56 110.74 345.68
  Q 119.12 346.82 125.62 345.65
  Q 137.54 343.50 139.39 343.34
  Q 143.23 343.00 145.88 342.23
  C 148.85 341.36 151.66 341.27 154.35 340.03
  Q 159.72 337.55 162.96 334.78
  A 2.29 1.91 -6.2 0 0 163.23 334.50
  L 165.60 331.32
  A 1.16 1.15 -43.7 0 1 167.48 331.36
  C 171.67 337.47 180.27 341.07 187.49 342.51
  Q 204.66 345.93 222.06 345.42
  A 9.08 8.55 35.0 0 0 224.11 345.12
  Q 229.44 343.69 232.58 343.19
  C 234.24 342.93 235.82 342.03 237.60 341.64
  Q 242.81 340.49 247.60 337.35
  Q 259.38 329.62 268.46 317.99
  A 5.02 4.77 -14.5 0 0 268.99 317.14
  Q 271.07 312.78 273.72 309.58
  A 1.77 1.74 -22.7 0 0 274.09 308.70
  Q 274.29 307.09 275.03 304.75
  C 276.52 300.05 276.44 299.32 281.29 299.39
  Q 294.93 299.62 304.04 304.79
  Q 308.88 307.53 313.30 314.84
  C 315.14 317.89 315.51 321.31 316.69 325.13
  A 3.77 3.45 38.4 0 1 316.85 326.12
  C 317.06 334.87 316.76 341.83 312.30 349.11
  C 308.52 355.29 304.50 360.61 298.52 364.94
  Q 293.49 368.57 293.20 368.81
  Q 290.53 371.06 287.78 372.48
  Q 281.78 375.58 277.24 377.11
  A 0.58 0.58 0.0 0 0 277.14 378.16
  Q 277.80 378.53 278.77 378.32
  Z"
/>
<path fill="#fdfbe6" d="
  M 6.56 330.64
  C 7.39 337.48 7.89 343.74 10.89 350.04
  Q 12.61 353.64 14.37 357.58
  C 6.74 353.00 0.80 347.36 3.71 337.49
  Q 4.73 334.02 6.56 330.64
  Z"
/>
<path fill="#e2b895" d="
  M 250.69 341.97
  Q 240.46 347.88 234.13 357.71
  C 231.68 361.52 229.52 364.74 227.37 368.35
  Q 226.66 369.54 223.94 371.25
  A 4.36 4.36 0.0 0 1 222.65 371.80
  L 201.45 377.13
  Q 199.84 376.65 202.94 375.23
  Q 205.72 373.95 213.49 372.71
  A 8.72 8.29 27.4 0 0 215.56 372.11
  Q 217.74 371.16 222.54 369.96
  A 2.65 2.49 -70.3 0 0 223.54 369.45
  Q 227.15 366.52 228.45 362.51
  A 2.67 2.65 74.9 0 1 228.98 361.58
  C 232.13 358.05 234.47 353.77 237.39 350.39
  Q 242.26 344.77 248.50 341.75
  Q 250.77 340.65 250.69 341.97
  Z"
/>
<path fill="#e2b895" d="
  M 234.07 373.90
  Q 238.98 363.08 246.16 354.17
  Q 248.98 350.67 251.89 348.34
  Q 254.91 345.92 252.42 342.39
  Q 254.92 341.59 254.95 344.27
  Q 254.97 346.48 254.66 347.78
  A 1.75 1.70 75.6 0 1 254.19 348.60
  C 251.44 351.27 249.42 353.04 247.20 356.02
  Q 242.39 362.47 238.11 370.53
  Q 236.25 374.02 234.07 373.90
  Z"
/>
<path fill="#e2b895" d="
  M 80.03 345.04
  Q 80.13 346.38 81.04 347.21
  Q 89.38 354.83 94.69 363.81
  Q 96.60 367.05 100.82 377.87
  L 100.54 378.59
  A 0.63 0.62 42.4 0 1 99.40 378.64
  Q 95.24 370.24 90.28 361.27
  C 87.47 356.18 84.81 353.08 80.64 349.46
  Q 78.98 348.02 78.81 346.33
  Q 78.72 345.47 80.03 345.04
  Z"
/>
<path fill="#a17a57" d="
  M 267.52 381.00
  Q 267.12 381.21 267.11 381.64
  A 0.46 0.43 24.9 0 0 267.23 381.94
  Q 271.74 386.74 278.41 386.16
  C 283.19 385.73 289.41 392.14 291.36 395.53
  A 1.39 1.37 -55.3 0 1 291.53 396.50
  Q 291.20 398.18 289.84 399.06
  A 0.48 0.47 76.5 0 1 289.11 398.61
  Q 289.41 395.70 287.65 393.71
  Q 284.50 390.15 280.72 388.25
  A 1.51 1.48 -39.5 0 0 279.57 388.15
  C 275.34 389.48 280.10 396.70 281.63 398.62
  A 1.68 1.68 0.0 0 1 280.32 401.35
  L 277.79 401.35
  A 2.44 2.42 -9.1 0 1 275.48 399.69
  Q 272.13 389.71 264.65 390.38
  A 0.70 0.69 -85.4 0 0 264.03 390.91
  C 263.40 393.41 266.03 396.27 268.25 399.39
  A 1.09 1.09 0.0 0 1 267.52 401.11
  Q 263.64 401.67 259.74 400.44
  A 4.04 3.90 54.8 0 0 258.74 400.25
  Q 247.86 399.55 237.29 396.71
  Q 228.65 394.39 230.77 385.95
  Q 235.10 385.11 239.18 383.19
  A 9.06 8.90 26.3 0 1 241.16 382.54
  Q 253.63 380.08 266.35 380.40
  Q 266.69 380.41 267.52 381.00
  Z"
/>
<path fill="#a17a57" d="
  M 103.07 387.25
  Q 103.36 391.03 101.75 394.32
  A 1.83 1.75 88.7 0 1 101.10 395.03
  Q 98.49 396.62 95.31 397.34
  Q 85.24 399.59 69.00 401.30
  Q 66.96 401.52 65.38 401.05
  A 1.09 1.09 0.0 0 1 64.85 399.31
  Q 68.57 394.78 70.34 390.67
  A 0.59 0.59 0.0 0 0 69.76 389.85
  L 66.00 390.09
  A 1.00 0.97 24.1 0 0 65.48 390.28
  C 61.99 392.78 58.24 396.45 58.67 400.99
  A 0.92 0.91 -4.2 0 1 57.80 401.99
  Q 54.31 402.14 51.78 401.20
  A 0.82 0.82 0.0 0 1 51.38 399.99
  Q 53.72 396.34 55.04 393.56
  C 55.98 391.59 55.13 388.48 52.52 388.91
  Q 50.87 389.19 48.71 390.96
  Q 45.11 393.92 44.24 399.08
  A 0.27 0.27 0.0 0 1 43.78 399.23
  Q 42.35 397.87 42.17 397.13
  A 1.55 1.52 53.2 0 1 42.32 396.00
  Q 46.20 389.19 53.92 386.23
  A 4.74 4.72 32.8 0 1 55.37 385.92
  L 60.91 385.63
  A 0.99 0.89 -56.3 0 0 61.26 385.54
  L 69.83 381.41
  Q 83.85 380.74 98.05 384.98
  C 99.83 385.51 101.21 386.58 103.07 387.25
  Z"
/>
</svg>
