<?xml version="1.0" encoding="UTF-8" standalone="no"?>
<!DOCTYPE svg PUBLIC "-//W3C//DTD SVG 1.1//EN" "http://www.w3.org/Graphics/SVG/1.1/DTD/svg11.dtd">
<svg xmlns="http://www.w3.org/2000/svg" version="1.1" viewBox="0.00 0.00 148.00 272.00">
<g stroke-width="2.00" fill="none" stroke-linecap="butt">
<path stroke="#582f40" vector-effect="non-scaling-stroke" d="
  M 110.40 42.74
  Q 107.95 43.01 106.37 45.06"
/>
<path stroke="#a8767e" vector-effect="non-scaling-stroke" d="
  M 106.37 45.06
  Q 104.21 45.34 101.50 46.69"
/>
<path stroke="#96656d" vector-effect="non-scaling-stroke" d="
  M 101.50 46.69
  L 94.32 48.63"
/>
<path stroke="#b07c70" vector-effect="non-scaling-stroke" d="
  M 94.32 48.63
  Q 78.62 52.39 62.55 51.54
  Q 60.88 51.46 60.00 51.22
  C 57.77 50.64 55.93 51.07 53.60 50.39
  Q 51.09 49.65 47.30 49.22
  A 2.18 2.16 -31.1 0 1 46.89 49.12
  L 40.87 47.03"
/>
<path stroke="#b68888" vector-effect="non-scaling-stroke" d="
  M 40.87 47.03
  L 36.62 45.67"
/>
<path stroke="#582f40" vector-effect="non-scaling-stroke" d="
  M 36.62 45.67
  Q 34.75 44.25 33.00 44.15"
/>
<path stroke="#f8f2e4" vector-effect="non-scaling-stroke" d="
  M 40.87 47.03
  Q 38.72 49.22 38.15 50.64
  C 36.49 54.77 35.42 60.42 34.02 64.58
  Q 31.30 72.67 30.45 78.97
  Q 28.72 91.89 28.84 104.99
  Q 28.87 108.98 29.45 115.61
  Q 29.89 120.69 30.33 126.21
  Q 30.69 130.68 34.36 144.61
  A 5.51 5.26 -56.2 0 1 34.53 145.59
  Q 35.34 155.71 40.07 163.03
  A 0.24 0.17 -79.1 0 1 40.10 163.10
  L 42.77 170.66
  A 3.45 3.32 -72.6 0 0 43.18 171.48
  Q 44.38 173.24 48.88 175.03
  A 1.42 1.36 -38.3 0 0 49.63 175.10
  Q 51.03 174.84 56.80 175.99
  Q 57.93 176.21 61.88 175.74"
/>
<path stroke="#b68888" vector-effect="non-scaling-stroke" d="
  M 61.88 175.74
  L 62.26 178.27"
/>
<path stroke="#a8767e" vector-effect="non-scaling-stroke" d="
  M 84.78 178.32
  Q 85.51 167.61 84.51 156.99
  C 84.24 154.11 83.17 150.58 83.01 147.19"
/>
<path stroke="#d0c9d7" vector-effect="non-scaling-stroke" d="
  M 83.01 147.19
  C 85.34 149.43 85.68 155.07 85.67 158.09
  C 85.65 165.04 86.19 169.53 85.88 175.20
  A 0.96 0.95 -4.8 0 0 87.05 176.18
  Q 91.32 175.21 97.92 173.92
  Q 104.15 172.70 106.08 167.09
  C 108.45 160.18 111.64 152.53 113.12 145.42
  Q 115.87 132.25 116.32 128.53
  Q 117.44 119.25 117.77 99.57
  C 117.82 96.16 117.14 93.59 117.04 90.44
  Q 116.95 87.40 116.25 83.60
  Q 114.91 76.39 112.15 66.49
  C 110.77 61.52 107.92 56.01 106.30 51.95
  Q 104.82 48.28 101.50 46.69"
/>
<path stroke="#a0a5b4" vector-effect="non-scaling-stroke" d="
  M 36.62 45.67
  Q 28.32 64.61 25.64 85.28
  C 25.19 88.77 24.61 92.22 24.49 95.58
  Q 23.80 114.47 27.30 132.90
  C 27.93 136.22 29.00 139.13 29.66 143.32
  A 1.76 1.40 38.4 0 0 29.73 143.62
  L 33.54 155.23
  A 1.86 1.73 24.4 0 0 33.67 155.54
  C 35.59 159.06 36.26 162.96 38.07 166.02
  Q 38.91 167.44 41.42 172.80
  A 2.77 2.77 0.0 0 0 43.04 174.25
  L 48.42 176.05
  A 3.23 3.01 -28.6 0 0 48.85 176.16
  L 62.26 178.27"
/>
<path stroke="#582f40" vector-effect="non-scaling-stroke" d="
  M 62.26 178.27
  Q 63.59 180.04 62.90 182.48"
/>
<path stroke="#59688c" vector-effect="non-scaling-stroke" d="
  M 62.90 182.48
  C 60.75 182.89 58.60 181.91 57.04 181.74
  Q 53.62 181.36 50.29 180.65
  A 1.02 1.02 0.0 0 0 49.31 180.96
  Q 48.37 181.99 48.92 183.73"
/>
<path stroke="#9292aa" vector-effect="non-scaling-stroke" d="
  M 48.92 183.73
  C 48.43 186.66 48.83 190.27 52.47 190.56"
/>
<path stroke="#6d7a96" vector-effect="non-scaling-stroke" d="
  M 52.47 190.56
  Q 58.38 192.67 64.55 192.98"
/>
<path stroke="#582f40" vector-effect="non-scaling-stroke" d="
  M 64.55 192.98
  Q 66.03 195.49 65.42 197.86"
/>
<path stroke="#a0966b" vector-effect="non-scaling-stroke" d="
  M 65.42 197.86
  L 63.21 198.02"
/>
<path stroke="#9d6b52" vector-effect="non-scaling-stroke" d="
  M 63.21 198.02
  Q 60.80 196.87 58.73 197.07"
/>
<path stroke="#814c4b" vector-effect="non-scaling-stroke" d="
  M 58.73 197.07
  Q 56.11 196.35 54.22 196.68"
/>
<path stroke="#582f40" vector-effect="non-scaling-stroke" d="
  M 37.14 178.06
  Q 38.83 176.83 36.62 173.12"
/>
<path stroke="#85445b" vector-effect="non-scaling-stroke" d="
  M 36.62 173.12
  Q 34.34 169.21 32.80 164.94
  Q 31.15 160.39 29.70 157.20
  Q 26.85 150.96 25.93 144.04
  A 4.94 4.71 32.3 0 0 25.69 143.08
  Q 23.77 137.82 22.85 131.87"
/>
<path stroke="#582f40" vector-effect="non-scaling-stroke" d="
  M 22.85 131.87
  Q 22.14 127.96 20.78 127.33"
/>
<path stroke="#96656d" vector-effect="non-scaling-stroke" d="
  M 83.01 147.19
  L 79.62 137.45"
/>
<path stroke="#d8cfc9" vector-effect="non-scaling-stroke" d="
  M 79.62 137.45
  Q 88.12 142.56 90.48 151.47
  A 0.43 0.43 0.0 0 0 91.28 151.56
  Q 98.99 136.57 101.52 120.87
  Q 103.41 109.14 103.02 89.19
  C 102.99 87.87 102.64 86.97 102.27 85.51
  A 5.74 5.68 -51.3 0 1 102.09 83.80
  C 102.23 80.82 101.32 78.22 100.76 75.03
  Q 99.29 66.73 98.00 62.74
  Q 96.79 59.03 95.85 54.98
  A 4.74 4.67 26.2 0 0 95.54 54.09
  L 94.14 51.14
  A 1.01 1.00 52.5 0 1 94.27 50.09
  Q 95.36 48.72 94.32 48.63"
/>
<path stroke="#582f40" vector-effect="non-scaling-stroke" d="
  M 125.60 127.00
  Q 124.17 127.67 123.73 131.11"
/>
<path stroke="#85445b" vector-effect="non-scaling-stroke" d="
  M 123.73 131.11
  Q 122.79 134.38 122.53 137.63
  A 7.57 7.02 -37.6 0 1 122.32 138.88
  Q 119.04 151.32 115.12 163.58
  Q 114.59 165.23 111.77 170.84"
/>
<path stroke="#582f40" vector-effect="non-scaling-stroke" d="
  M 111.77 170.84
  Q 110.76 173.24 109.01 175.06"
/>
<path stroke="#814c4b" vector-effect="non-scaling-stroke" d="
  M 96.89 195.80
  L 91.50 196.73"
/>
<path stroke="#9d6b52" vector-effect="non-scaling-stroke" d="
  M 91.50 196.73
  Q 89.36 197.41 88.19 197.23"
/>
<path stroke="#a0966b" vector-effect="non-scaling-stroke" d="
  M 88.19 197.23
  L 82.16 197.68"
/>
<path stroke="#582f40" vector-effect="non-scaling-stroke" d="
  M 82.16 197.68
  Q 82.12 195.37 82.99 193.25"
/>
<path stroke="#545e82" vector-effect="non-scaling-stroke" d="
  M 82.99 193.25
  C 89.20 192.70 101.40 192.27 100.94 184.18
  Q 100.79 181.61 99.79 179.93
  A 0.48 0.47 70.9 0 0 99.32 179.70
  Q 95.92 180.09 92.07 181.34
  Q 89.23 182.27 84.18 182.11"
/>
<path stroke="#582f40" vector-effect="non-scaling-stroke" d="
  M 84.18 182.11
  Q 84.16 179.99 84.78 178.32"
/>
<path stroke="#9292aa" vector-effect="non-scaling-stroke" d="
  M 84.78 178.32
  Q 86.12 177.86 90.12 177.34
  Q 95.62 176.62 104.58 173.58
  A 2.14 2.01 10.4 0 0 105.40 173.05
  Q 106.22 172.20 107.36 169.88
  Q 111.51 161.47 113.71 154.51
  Q 116.35 146.21 118.80 134.67
  Q 121.46 122.14 121.34 104.19
  Q 121.31 100.62 120.54 94.30
  Q 119.69 87.24 118.96 84.45
  Q 117.86 80.22 117.74 77.71
  A 6.54 6.51 -58.0 0 0 117.21 75.39
  Q 115.73 71.96 115.31 67.86
  A 2.39 2.35 -58.6 0 0 115.21 67.43
  L 112.03 58.60
  A 1.00 0.66 33.7 0 0 111.98 58.48
  L 106.37 45.06"
/>
<path stroke="#b07c70" vector-effect="non-scaling-stroke" d="
  M 79.62 137.45
  Q 77.76 134.92 76.63 134.07
  Q 72.93 131.33 69.25 134.10
  C 64.80 137.43 63.30 144.07 62.47 149.43
  Q 61.07 158.45 61.51 168.69
  C 61.58 170.39 62.07 173.30 61.88 175.74"
/>
<path stroke="#6a4257" vector-effect="non-scaling-stroke" d="
  M 84.18 182.11
  L 82.99 193.25"
/>
<path stroke="#b6793f" vector-effect="non-scaling-stroke" d="
  M 82.16 197.68
  C 80.07 202.33 80.23 211.95 72.44 210.77
  C 70.30 210.44 69.32 208.56 68.61 206.66
  Q 66.96 202.27 65.42 197.86"
/>
<path stroke="#845d6b" vector-effect="non-scaling-stroke" d="
  M 64.55 192.98
  L 63.57 186.97"
/>
<path stroke="#704c60" vector-effect="non-scaling-stroke" d="
  M 63.57 186.97
  L 62.90 182.48"
/>
<path stroke="#8597b7" vector-effect="non-scaling-stroke" d="
  M 63.57 186.97
  Q 60.75 188.00 55.98 184.78
  Q 53.72 183.25 50.52 184.26"
/>
<path stroke="#aaafca" vector-effect="non-scaling-stroke" d="
  M 50.52 184.26
  Q 48.58 182.50 48.92 183.73"
/>
<path stroke="#fcb652" vector-effect="non-scaling-stroke" d="
  M 63.21 198.02
  Q 58.74 203.64 58.55 210.53
  Q 58.49 212.94 59.30 216.09
  Q 60.40 220.34 60.85 221.54
  A 1.09 1.09 0.0 0 0 62.64 221.92
  L 65.90 218.67
  A 0.38 0.38 0.0 0 1 66.54 218.85
  L 69.04 229.20
  A 3.32 3.28 20.9 0 0 69.59 230.41
  L 74.95 237.93
  A 0.83 0.83 0.0 0 0 76.21 238.05
  C 78.99 235.36 80.27 232.14 82.12 227.99
  C 84.06 223.64 84.69 219.90 84.66 215.07
  A 0.61 0.60 27.2 0 1 85.76 214.72
  L 89.56 220.05
  A 0.60 0.60 0.0 0 0 90.61 219.92
  C 92.45 215.30 93.16 211.58 91.67 206.42
  Q 90.34 201.77 88.19 197.23"
/>
<path stroke="#bec1d5" vector-effect="non-scaling-stroke" d="
  M 50.52 184.26
  Q 50.76 187.57 53.07 189.17
  A 0.58 0.53 -83.9 0 1 53.27 189.44
  Q 53.51 190.16 52.47 190.56"
/>
<path stroke="#98301f" vector-effect="non-scaling-stroke" d="
  M 81.41 263.55
  Q 80.37 264.39 80.72 265.20"
/>
<path stroke="#dd6c32" vector-effect="non-scaling-stroke" d="
  M 58.73 197.07
  Q 57.28 199.28 55.73 201.46
  C 49.50 210.19 49.19 219.58 51.11 229.72
  Q 51.83 233.52 52.68 235.34
  A 0.55 0.55 0.0 0 0 53.57 235.49
  L 59.04 230.02
  A 1.35 1.34 24.2 0 1 60.08 229.63
  Q 61.92 229.73 62.22 231.89
  Q 63.21 239.24 65.23 245.05
  Q 66.82 249.63 71.84 258.91
  Q 73.46 261.92 75.26 263.77
  A 0.88 0.88 0.0 0 0 76.64 263.61
  C 82.13 254.61 86.61 247.28 88.03 236.21
  Q 88.38 233.46 89.08 230.74
  A 0.87 0.87 0.0 0 1 89.91 230.09
  C 92.81 230.07 95.05 233.50 96.80 235.79
  A 0.71 0.71 0.0 0 0 98.02 235.61
  Q 100.95 227.95 100.98 220.07
  C 100.99 217.11 100.11 214.77 99.68 212.01
  Q 99.28 209.40 97.74 206.25
  Q 95.10 200.87 91.50 196.73"
/>
<path stroke="#df4946" vector-effect="non-scaling-stroke" d="
  M 32.10 175.66
  L 26.32 167.39
  A 0.38 0.32 21.6 0 1 26.25 167.26
  L 21.95 156.67
  A 9.65 8.51 77.2 0 1 21.51 155.38
  L 17.97 142.69
  A 1.65 1.60 39.0 0 1 17.90 142.10
  L 18.00 139.04"
/>
<path stroke="#e16e6b" vector-effect="non-scaling-stroke" d="
  M 18.00 139.04
  Q 18.39 138.58 18.35 138.00
  Q 18.31 137.55 17.66 137.36"
/>
<path stroke="#9b2730" vector-effect="non-scaling-stroke" d="
  M 22.85 131.87
  L 17.66 137.36"
/>
<path stroke="#b45950" vector-effect="non-scaling-stroke" d="
  M 17.66 137.36
  Q 9.11 145.92 7.05 159.01
  Q 5.27 170.30 8.18 182.10
  Q 9.71 188.29 12.22 193.04"
/>
<path stroke="#b2342b" vector-effect="non-scaling-stroke" d="
  M 12.22 193.04
  Q 12.60 196.27 15.33 199.66
  A 1.10 1.10 0.0 0 0 17.00 199.70
  Q 17.85 198.75 18.39 197.18
  Q 19.91 192.72 21.57 188.34
  Q 24.09 181.73 32.10 175.66"
/>
<path stroke="#9b2730" vector-effect="non-scaling-stroke" d="
  M 32.10 175.66
  L 36.62 173.12"
/>
<path stroke="#9b2730" vector-effect="non-scaling-stroke" d="
  M 111.77 170.84
  L 118.66 175.50"
/>
<path stroke="#b2342b" vector-effect="non-scaling-stroke" d="
  M 118.66 175.50
  L 127.28 185.62
  A 1.68 1.53 15.7 0 1 127.48 185.94
  L 133.09 197.82
  A 0.76 0.76 0.0 0 0 134.44 197.86
  Q 140.37 187.18 141.01 176.94"
/>
<path stroke="#b45950" vector-effect="non-scaling-stroke" d="
  M 141.01 176.94
  Q 143.09 163.99 139.49 151.81
  A 5.28 5.10 -68.8 0 0 139.02 150.69
  C 136.14 145.49 133.44 140.03 128.82 135.96"
/>
<path stroke="#9b2730" vector-effect="non-scaling-stroke" d="
  M 128.82 135.96
  Q 127.13 133.04 123.73 131.11"
/>
<path stroke="#e16e6b" vector-effect="non-scaling-stroke" d="
  M 128.82 135.96
  Q 127.78 139.26 129.83 143.28"
/>
<path stroke="#df4946" vector-effect="non-scaling-stroke" d="
  M 129.83 143.28
  Q 127.36 151.61 125.20 159.95
  Q 123.08 168.18 118.66 175.50"
/>
<path stroke="#f77b66" vector-effect="non-scaling-stroke" d="
  M 18.00 139.04
  L 17.59 142.27
  A 2.34 2.33 64.1 0 1 17.27 143.20
  C 13.75 149.10 9.97 155.97 9.44 163.25
  Q 8.38 177.81 12.22 193.04"
/>
<path stroke="#f77b66" vector-effect="non-scaling-stroke" d="
  M 141.01 176.94
  Q 139.48 176.98 140.39 173.77
  A 3.33 3.29 50.4 0 0 140.49 172.63
  C 140.18 169.43 140.34 166.63 139.46 163.28
  Q 136.61 152.35 129.83 143.28"
/>
<path stroke="#b2342b" vector-effect="non-scaling-stroke" d="
  M 41.12 43.78
  Q 50.81 47.34 58.57 47.83
  Q 64.44 48.21 65.18 48.47
  A 2.02 2.01 48.4 0 0 66.34 48.54
  Q 67.28 48.31 73.25 48.41
  Q 80.67 48.54 92.25 45.67"
/>
<path stroke="#9b2730" vector-effect="non-scaling-stroke" d="
  M 92.25 45.67
  Q 97.61 44.90 103.92 42.33
  A 0.53 0.53 0.0 0 0 104.18 41.57
  C 98.42 31.80 94.86 25.69 87.73 18.60
  C 81.76 12.67 78.04 8.91 71.25 6.29"
/>
<path stroke="#b45950" vector-effect="non-scaling-stroke" d="
  M 71.25 6.29
  C 65.48 4.56 53.18 19.36 50.07 23.55
  Q 44.84 30.59 38.98 41.73
  Q 38.27 43.09 41.12 43.78"
/>
<path stroke="#e16e6b" vector-effect="non-scaling-stroke" d="
  M 71.25 6.29
  Q 71.16 7.13 70.59 7.25"
/>
<path stroke="#f77b66" vector-effect="non-scaling-stroke" d="
  M 70.59 7.25
  Q 65.73 10.01 63.19 12.96
  Q 59.34 17.44 55.53 21.96
  Q 51.63 26.60 48.57 31.48
  Q 44.71 37.63 41.12 43.78"
/>
<path stroke="#df4946" vector-effect="non-scaling-stroke" d="
  M 92.25 45.67
  L 88.15 34.21
  A 1.82 1.49 -72.9 0 0 88.02 33.89
  Q 84.66 27.43 81.48 20.80
  Q 80.72 19.21 78.50 16.50
  Q 74.74 11.89 70.59 7.25"
/>
<path stroke="#f77b66" vector-effect="non-scaling-stroke" d="
  M 58.9937 24.6132
  A 8.76 3.79 -60.8 0 0 51.4116 30.4110
  A 8.76 3.79 -60.8 0 0 50.4463 39.9068
  A 8.76 3.79 -60.8 0 0 58.0284 34.1090
  A 8.76 3.79 -60.8 0 0 58.9937 24.6132"
/>
<path stroke="#99989c" vector-effect="non-scaling-stroke" d="
  M 63.83 119.73
  Q 63.85 119.76 63.88 119.80"
/>
<path stroke="#d8cfc9" vector-effect="non-scaling-stroke" d="
  M 63.88 119.80
  Q 65.22 122.34 67.48 122.34
  Q 71.75 122.34 75.31 122.70
  A 1.33 1.29 -45.8 0 0 75.67 122.69
  L 82.74 121.51
  A 1.39 1.13 24.4 0 0 82.97 121.45
  Q 101.43 114.10 101.71 94.25
  A 4.39 4.36 39.1 0 0 101.61 93.32
  Q 100.85 89.94 100.69 86.52
  Q 100.58 84.05 97.75 82.72"
/>
<path stroke="#99989c" vector-effect="non-scaling-stroke" d="
  M 97.75 82.72
  L 94.75 77.75"
/>
<path stroke="#f8f2e4" vector-effect="non-scaling-stroke" d="
  M 94.75 77.75
  Q 93.56 72.44 91.27 70.45
  Q 89.64 69.05 82.78 65.57
  C 74.23 61.24 64.97 62.37 56.87 66.94
  C 53.59 68.79 51.54 70.00 49.43 72.68
  Q 44.75 78.64 42.85 85.11
  A 0.42 0.42 0.0 0 1 42.40 85.41
  L 41.99 85.37
  A 0.22 0.21 7.9 0 1 41.80 85.13
  L 42.79 76.09
  A 1.57 1.43 64.2 0 1 42.95 75.55
  Q 46.66 68.57 47.98 59.36
  A 2.18 2.01 42.7 0 0 47.91 58.48
  Q 47.17 55.89 45.07 54.37
  A 0.95 0.95 0.0 0 0 43.91 54.40
  Q 38.97 58.44 37.54 63.02
  Q 35.84 68.49 37.43 75.18
  A 1.13 1.13 0.0 0 1 37.24 76.13
  Q 32.88 82.15 36.32 89.74
  A 1.10 1.09 65.2 0 0 37.78 90.28
  L 41.13 88.70
  A 0.61 0.61 0.0 0 1 42.00 89.32
  C 40.37 104.62 49.81 116.52 63.89 121.54
  A 0.29 0.29 0.0 0 0 64.16 121.03
  Q 63.61 120.64 63.83 119.73"
/>
<path stroke="#a0a5b4" vector-effect="non-scaling-stroke" d="
  M 94.75 77.75
  Q 89.83 70.83 82.02 66.88
  A 8.62 8.56 63.2 0 0 79.58 66.07
  Q 76.73 65.56 73.61 65.01
  C 71.43 64.62 69.94 65.31 67.92 65.12
  A 3.38 3.20 -46.6 0 0 66.84 65.18
  Q 46.85 69.47 43.87 89.28
  C 43.33 92.85 44.01 95.81 44.29 99.20
  A 5.62 5.50 31.4 0 0 44.71 100.86
  C 48.87 110.38 54.02 115.73 63.83 119.73"
/>
<path stroke="#808298" vector-effect="non-scaling-stroke" d="
  M 97.75 82.72
  L 99.05 90.41
  A 2.83 2.67 43.3 0 1 99.09 91.07
  L 98.78 97.92
  A 2.68 2.31 -40.8 0 1 98.70 98.46
  Q 93.76 117.13 75.34 120.09
  Q 73.02 120.46 69.62 120.22
  Q 66.81 120.01 63.88 119.80"
/>
<path stroke="#6d7a96" vector-effect="non-scaling-stroke" d="
  M 50.84 106.30
  Q 54.93 113.49 63.42 115.37"
/>
<path stroke="#59688c" vector-effect="non-scaling-stroke" d="
  M 63.42 115.37
  Q 64.01 116.37 64.83 117.07
  A 1.89 1.88 68.1 0 0 65.76 117.47
  Q 72.08 118.30 78.54 116.63
  Q 84.96 114.97 89.23 109.96
  Q 94.98 103.22 96.05 94.32
  A 3.32 3.25 41.8 0 0 95.97 93.13
  Q 95.44 91.05 95.91 89.02
  A 1.41 1.40 36.6 0 0 95.75 87.98
  L 94.39 85.67"
/>
<path stroke="#6d7a96" vector-effect="non-scaling-stroke" d="
  M 94.39 85.67
  Q 93.47 83.49 92.53 81.16
  Q 89.90 74.71 83.77 71.51
  Q 76.97 67.97 72.34 67.78"
/>
<path stroke="#9292aa" vector-effect="non-scaling-stroke" d="
  M 72.34 67.78
  Q 65.49 67.63 60.47 70.20
  Q 45.50 77.85 46.77 95.21
  Q 47.15 100.32 50.84 106.30"
/>
<path stroke="#bec1d5" vector-effect="non-scaling-stroke" d="
  M 72.34 67.78
  Q 68.99 69.88 64.97 70.35
  A 3.60 3.53 29.6 0 0 63.99 70.61
  Q 55.29 74.32 51.45 81.38
  Q 48.01 87.72 48.60 95.34
  Q 48.69 96.54 50.03 100.55
  Q 50.97 103.40 50.84 106.30"
/>
<path stroke="#8597b7" vector-effect="non-scaling-stroke" d="
  M 94.39 85.67
  C 94.60 91.69 94.17 97.42 91.08 102.36
  Q 83.41 114.65 69.06 115.80
  C 67.21 115.95 65.38 115.41 63.42 115.37"
/>
<path stroke="#6d7a96" vector-effect="non-scaling-stroke" d="
  M 89.47 92.43
  A 18.41 18.41 0.0 0 0 71.06 74.02
  A 18.41 18.41 0.0 0 0 52.65 92.43
  A 18.41 18.41 0.0 0 0 71.06 110.84
  A 18.41 18.41 0.0 0 0 89.47 92.43"
/>
<path stroke="#4d7ca6" vector-effect="non-scaling-stroke" d="
  M 55.97 96.86
  A 15.86 15.85 5.1 0 0 64.25 106.77"
/>
<path stroke="#558ba9" vector-effect="non-scaling-stroke" d="
  M 64.25 106.77
  A 15.80 15.80 0.0 0 0 74.41 108.05
  A 15.83 15.82 79.8 0 0 86.86 90.16"
/>
<path stroke="#4d7ca6" vector-effect="non-scaling-stroke" d="
  M 86.86 90.16
  A 15.96 15.83 -65.4 0 0 84.66 84.18"
/>
<path stroke="#558ba9" vector-effect="non-scaling-stroke" d="
  M 84.66 84.18
  A 15.91 15.86 89.0 0 0 79.16 78.85
  A 15.80 15.74 60.9 0 0 71.75 76.72
  A 15.95 15.78 34.9 0 0 65.41 77.81
  A 15.83 15.83 0.0 0 0 55.97 96.86"
/>
<path stroke="#61bce3" vector-effect="non-scaling-stroke" d="
  M 84.66 84.18
  Q 83.36 87.68 82.14 90.98
  Q 80.35 95.82 79.01 97.45
  Q 74.70 102.66 67.03 102.24
  C 61.91 101.96 58.38 95.74 57.67 91.31
  A 0.27 0.27 0.0 0 0 57.14 91.33
  Q 56.94 93.58 57.10 95.77
  Q 57.14 96.40 56.87 96.64
  Q 56.57 96.91 55.97 96.86"
/>
<path stroke="#61bce3" vector-effect="non-scaling-stroke" d="
  M 86.86 90.16
  Q 85.31 97.90 81.97 101.70
  Q 75.41 109.15 65.43 105.69
  A 0.72 0.69 -40.6 0 0 65.06 105.67
  Q 64.20 105.84 64.25 106.77"
/>
<path stroke="#9fe0f1" vector-effect="non-scaling-stroke" d="
  M 70.7425 81.0901
  A 5.94 4.26 -36.7 0 0 63.4341 81.2244
  A 5.94 4.26 -36.7 0 0 61.2175 88.1899
  A 5.94 4.26 -36.7 0 0 68.5259 88.0556
  A 5.94 4.26 -36.7 0 0 70.7425 81.0901"
/>
<path stroke="#b45950" vector-effect="non-scaling-stroke" d="
  M 72.11 136.54
  Q 70.04 137.87 69.28 140.06
  C 65.71 150.30 65.42 161.19 66.53 172.75
  Q 67.10 178.65 67.18 179.91
  C 67.37 182.52 68.24 185.49 68.65 188.59
  Q 69.44 194.43 73.00 205.72"
/>
<path stroke="#9b2730" vector-effect="non-scaling-stroke" d="
  M 73.00 205.72
  Q 73.17 206.17 73.43 206.40
  A 0.62 0.61 -51.6 0 0 74.34 206.29
  Q 76.20 203.69 76.89 200.37
  Q 77.76 196.12 79.49 185.53
  C 80.80 177.56 81.02 169.90 80.64 162.26
  Q 80.46 158.81 79.56 153.15
  Q 78.88 148.90 78.09 146.35
  C 77.17 143.38 76.40 137.84 73.58 135.73
  Q 72.99 135.29 72.39 135.72
  Q 71.89 136.08 72.11 136.54"
/>
<path stroke="#e16e6b" vector-effect="non-scaling-stroke" d="
  M 73.00 205.72
  Q 73.83 205.89 74.20 205.15
  A 0.97 0.96 52.5 0 0 74.28 204.52
  L 73.09 199.35"
/>
<path stroke="#df4946" vector-effect="non-scaling-stroke" d="
  M 73.09 199.35
  Q 75.62 189.91 75.67 180.30
  Q 75.68 177.84 75.12 162.99
  Q 75.08 161.84 75.45 159.62
  A 4.87 4.74 46.6 0 0 75.47 158.11
  L 72.71 138.44"
/>
<path stroke="#e16e6b" vector-effect="non-scaling-stroke" d="
  M 72.71 138.44
  Q 73.45 136.34 72.11 136.54"
/>
<path stroke="#f77b66" vector-effect="non-scaling-stroke" d="
  M 72.71 138.44
  Q 70.47 140.55 69.97 143.96
  Q 69.31 148.43 70.01 153.21
  Q 70.48 156.42 68.85 160.19
  A 3.43 3.42 -32.7 0 0 68.58 161.42
  Q 68.35 167.89 68.51 169.25
  Q 69.94 181.75 71.42 193.52
  Q 71.75 196.13 73.09 199.35"
/>
</g>
<path fill="#6e1214" d="
  M 110.40 42.74
  Q 107.95 43.01 106.37 45.06
  Q 104.21 45.34 101.50 46.69
  L 94.32 48.63
  Q 78.62 52.39 62.55 51.54
  Q 60.88 51.46 60.00 51.22
  C 57.77 50.64 55.93 51.07 53.60 50.39
  Q 51.09 49.65 47.30 49.22
  A 2.18 2.16 -31.1 0 1 46.89 49.12
  L 40.87 47.03
  L 36.62 45.67
  Q 34.75 44.25 33.00 44.15
  C 37.64 32.69 44.41 23.15 52.73 13.75
  Q 59.09 6.58 69.46 1.08
  A 1.02 1.01 -43.4 0 1 70.44 1.10
  C 74.74 3.63 79.15 5.91 82.80 8.96
  Q 94.17 18.45 102.61 29.43
  A 0.53 0.07 53.0 0 1 102.66 29.52
  L 110.40 42.74
  Z
  M 41.12 43.78
  Q 50.81 47.34 58.57 47.83
  Q 64.44 48.21 65.18 48.47
  A 2.02 2.01 48.4 0 0 66.34 48.54
  Q 67.28 48.31 73.25 48.41
  Q 80.67 48.54 92.25 45.67
  Q 97.61 44.90 103.92 42.33
  A 0.53 0.53 0.0 0 0 104.18 41.57
  C 98.42 31.80 94.86 25.69 87.73 18.60
  C 81.76 12.67 78.04 8.91 71.25 6.29
  C 65.48 4.56 53.18 19.36 50.07 23.55
  Q 44.84 30.59 38.98 41.73
  Q 38.27 43.09 41.12 43.78
  Z"
/>
<path fill="#f9a08b" d="
  M 71.25 6.29
  Q 71.16 7.13 70.59 7.25
  Q 65.73 10.01 63.19 12.96
  Q 59.34 17.44 55.53 21.96
  Q 51.63 26.60 48.57 31.48
  Q 44.71 37.63 41.12 43.78
  Q 38.27 43.09 38.98 41.73
  Q 44.84 30.59 50.07 23.55
  C 53.18 19.36 65.48 4.56 71.25 6.29
  Z"
/>
<path fill="#c83c4b" d="
  M 92.25 45.67
  L 88.15 34.21
  A 1.82 1.49 -72.9 0 0 88.02 33.89
  Q 84.66 27.43 81.48 20.80
  Q 80.72 19.21 78.50 16.50
  Q 74.74 11.89 70.59 7.25
  Q 71.16 7.13 71.25 6.29
  C 78.04 8.91 81.76 12.67 87.73 18.60
  C 94.86 25.69 98.42 31.80 104.18 41.57
  A 0.53 0.53 0.0 0 1 103.92 42.33
  Q 97.61 44.90 92.25 45.67
  Z"
/>
<path fill="#f55641" d="
  M 70.59 7.25
  Q 74.74 11.89 78.50 16.50
  Q 80.72 19.21 81.48 20.80
  Q 84.66 27.43 88.02 33.89
  A 1.82 1.49 -72.9 0 1 88.15 34.21
  L 92.25 45.67
  Q 80.67 48.54 73.25 48.41
  Q 67.28 48.31 66.34 48.54
  A 2.02 2.01 48.4 0 1 65.18 48.47
  Q 64.44 48.21 58.57 47.83
  Q 50.81 47.34 41.12 43.78
  Q 44.71 37.63 48.57 31.48
  Q 51.63 26.60 55.53 21.96
  Q 59.34 17.44 63.19 12.96
  Q 65.73 10.01 70.59 7.25
  Z
  M 58.9937 24.6132
  A 8.76 3.79 -60.8 0 0 51.4116 30.4110
  A 8.76 3.79 -60.8 0 0 50.4463 39.9068
  A 8.76 3.79 -60.8 0 0 58.0284 34.1090
  A 8.76 3.79 -60.8 0 0 58.9937 24.6132
  Z"
/>
<ellipse fill="#f9a08b" cx="0.00" cy="0.00" transform="translate(54.72,32.26) rotate(-60.8)" rx="8.76" ry="3.79"/>
<path fill="#414b6b" d="
  M 110.40 42.74
  Q 111.34 45.39 112.31 47.90
  Q 113.10 49.98 114.60 52.87
  Q 116.48 56.47 117.34 61.24
  A 1.69 1.62 -62.3 0 0 117.43 61.55
  L 119.21 65.32
  A 0.67 0.59 -58.2 0 1 119.27 65.67
  Q 119.06 67.06 121.14 72.57
  Q 121.39 73.23 121.68 77.00
  A 7.82 7.82 0.0 0 0 122.12 79.06
  Q 123.47 82.74 123.29 86.18
  A 3.94 3.80 -54.4 0 0 123.50 87.61
  C 124.53 90.46 124.01 93.41 124.88 95.80
  Q 125.30 96.98 124.94 99.57
  A 3.64 3.47 43.6 0 0 125.01 100.99
  C 125.68 103.79 125.10 106.99 125.35 109.90
  Q 125.61 112.87 125.00 126.25
  Q 124.97 126.83 125.60 127.00
  Q 124.17 127.67 123.73 131.11
  Q 122.79 134.38 122.53 137.63
  A 7.57 7.02 -37.6 0 1 122.32 138.88
  Q 119.04 151.32 115.12 163.58
  Q 114.59 165.23 111.77 170.84
  Q 110.76 173.24 109.01 175.06
  Q 106.44 176.30 104.93 178.87
  A 2.02 2.00 -39.6 0 0 104.76 180.56
  Q 106.47 185.45 104.91 188.98
  Q 103.02 193.26 96.89 195.80
  L 91.50 196.73
  Q 89.36 197.41 88.19 197.23
  L 82.16 197.68
  Q 82.12 195.37 82.99 193.25
  C 89.20 192.70 101.40 192.27 100.94 184.18
  Q 100.79 181.61 99.79 179.93
  A 0.48 0.47 70.9 0 0 99.32 179.70
  Q 95.92 180.09 92.07 181.34
  Q 89.23 182.27 84.18 182.11
  Q 84.16 179.99 84.78 178.32
  Q 86.12 177.86 90.12 177.34
  Q 95.62 176.62 104.58 173.58
  A 2.14 2.01 10.4 0 0 105.40 173.05
  Q 106.22 172.20 107.36 169.88
  Q 111.51 161.47 113.71 154.51
  Q 116.35 146.21 118.80 134.67
  Q 121.46 122.14 121.34 104.19
  Q 121.31 100.62 120.54 94.30
  Q 119.69 87.24 118.96 84.45
  Q 117.86 80.22 117.74 77.71
  A 6.54 6.51 -58.0 0 0 117.21 75.39
  Q 115.73 71.96 115.31 67.86
  A 2.39 2.35 -58.6 0 0 115.21 67.43
  L 112.03 58.60
  A 1.00 0.66 33.7 0 0 111.98 58.48
  L 106.37 45.06
  Q 107.95 43.01 110.40 42.74
  Z"
/>
<path fill="#414b6b" d="
  M 36.62 45.67
  Q 28.32 64.61 25.64 85.28
  C 25.19 88.77 24.61 92.22 24.49 95.58
  Q 23.80 114.47 27.30 132.90
  C 27.93 136.22 29.00 139.13 29.66 143.32
  A 1.76 1.40 38.4 0 0 29.73 143.62
  L 33.54 155.23
  A 1.86 1.73 24.4 0 0 33.67 155.54
  C 35.59 159.06 36.26 162.96 38.07 166.02
  Q 38.91 167.44 41.42 172.80
  A 2.77 2.77 0.0 0 0 43.04 174.25
  L 48.42 176.05
  A 3.23 3.01 -28.6 0 0 48.85 176.16
  L 62.26 178.27
  Q 63.59 180.04 62.90 182.48
  C 60.75 182.89 58.60 181.91 57.04 181.74
  Q 53.62 181.36 50.29 180.65
  A 1.02 1.02 0.0 0 0 49.31 180.96
  Q 48.37 181.99 48.92 183.73
  C 48.43 186.66 48.83 190.27 52.47 190.56
  Q 58.38 192.67 64.55 192.98
  Q 66.03 195.49 65.42 197.86
  L 63.21 198.02
  Q 60.80 196.87 58.73 197.07
  Q 56.11 196.35 54.22 196.68
  Q 53.21 195.53 51.59 195.41
  A 1.82 1.78 -27.2 0 1 50.81 195.17
  L 47.10 193.02
  A 2.12 2.08 89.2 0 1 46.31 192.24
  L 44.39 188.93
  A 0.66 0.58 27.6 0 1 44.31 188.72
  Q 43.51 184.73 44.14 181.39
  A 1.50 1.50 0.0 0 0 43.93 180.33
  Q 41.49 176.52 37.14 178.06
  Q 38.83 176.83 36.62 173.12
  Q 34.34 169.21 32.80 164.94
  Q 31.15 160.39 29.70 157.20
  Q 26.85 150.96 25.93 144.04
  A 4.94 4.71 32.3 0 0 25.69 143.08
  Q 23.77 137.82 22.85 131.87
  Q 22.14 127.96 20.78 127.33
  Q 21.15 122.17 20.67 118.49
  Q 20.08 113.92 20.25 112.27
  C 20.51 109.63 19.75 108.17 20.14 105.80
  Q 20.26 105.03 20.27 103.20
  Q 20.28 89.26 22.20 79.24
  Q 25.41 62.43 33.00 44.15
  Q 34.75 44.25 36.62 45.67
  Z"
/>
<path fill="#e2d9e8" d="
  M 106.37 45.06
  L 111.98 58.48
  A 1.00 0.66 33.7 0 1 112.03 58.60
  L 115.21 67.43
  A 2.39 2.35 -58.6 0 1 115.31 67.86
  Q 115.73 71.96 117.21 75.39
  A 6.54 6.51 -58.0 0 1 117.74 77.71
  Q 117.86 80.22 118.96 84.45
  Q 119.69 87.24 120.54 94.30
  Q 121.31 100.62 121.34 104.19
  Q 121.46 122.14 118.80 134.67
  Q 116.35 146.21 113.71 154.51
  Q 111.51 161.47 107.36 169.88
  Q 106.22 172.20 105.40 173.05
  A 2.14 2.01 10.4 0 1 104.58 173.58
  Q 95.62 176.62 90.12 177.34
  Q 86.12 177.86 84.78 178.32
  Q 85.51 167.61 84.51 156.99
  C 84.24 154.11 83.17 150.58 83.01 147.19
  C 85.34 149.43 85.68 155.07 85.67 158.09
  C 85.65 165.04 86.19 169.53 85.88 175.20
  A 0.96 0.95 -4.8 0 0 87.05 176.18
  Q 91.32 175.21 97.92 173.92
  Q 104.15 172.70 106.08 167.09
  C 108.45 160.18 111.64 152.53 113.12 145.42
  Q 115.87 132.25 116.32 128.53
  Q 117.44 119.25 117.77 99.57
  C 117.82 96.16 117.14 93.59 117.04 90.44
  Q 116.95 87.40 116.25 83.60
  Q 114.91 76.39 112.15 66.49
  C 110.77 61.52 107.92 56.01 106.30 51.95
  Q 104.82 48.28 101.50 46.69
  Q 104.21 45.34 106.37 45.06
  Z"
/>
<path fill="#fefefc" d="
  M 36.62 45.67
  L 40.87 47.03
  Q 38.72 49.22 38.15 50.64
  C 36.49 54.77 35.42 60.42 34.02 64.58
  Q 31.30 72.67 30.45 78.97
  Q 28.72 91.89 28.84 104.99
  Q 28.87 108.98 29.45 115.61
  Q 29.89 120.69 30.33 126.21
  Q 30.69 130.68 34.36 144.61
  A 5.51 5.26 -56.2 0 1 34.53 145.59
  Q 35.34 155.71 40.07 163.03
  A 0.24 0.17 -79.1 0 1 40.10 163.10
  L 42.77 170.66
  A 3.45 3.32 -72.6 0 0 43.18 171.48
  Q 44.38 173.24 48.88 175.03
  A 1.42 1.36 -38.3 0 0 49.63 175.10
  Q 51.03 174.84 56.80 175.99
  Q 57.93 176.21 61.88 175.74
  L 62.26 178.27
  L 48.85 176.16
  A 3.23 3.01 -28.6 0 1 48.42 176.05
  L 43.04 174.25
  A 2.77 2.77 0.0 0 1 41.42 172.80
  Q 38.91 167.44 38.07 166.02
  C 36.26 162.96 35.59 159.06 33.67 155.54
  A 1.86 1.73 24.4 0 1 33.54 155.23
  L 29.73 143.62
  A 1.76 1.40 38.4 0 1 29.66 143.32
  C 29.00 139.13 27.93 136.22 27.30 132.90
  Q 23.80 114.47 24.49 95.58
  C 24.61 92.22 25.19 88.77 25.64 85.28
  Q 28.32 64.61 36.62 45.67
  Z"
/>
<path fill="#beb8c5" d="
  M 101.50 46.69
  Q 104.82 48.28 106.30 51.95
  C 107.92 56.01 110.77 61.52 112.15 66.49
  Q 114.91 76.39 116.25 83.60
  Q 116.95 87.40 117.04 90.44
  C 117.14 93.59 117.82 96.16 117.77 99.57
  Q 117.44 119.25 116.32 128.53
  Q 115.87 132.25 113.12 145.42
  C 111.64 152.53 108.45 160.18 106.08 167.09
  Q 104.15 172.70 97.92 173.92
  Q 91.32 175.21 87.05 176.18
  A 0.96 0.95 -4.8 0 1 85.88 175.20
  C 86.19 169.53 85.65 165.04 85.67 158.09
  C 85.68 155.07 85.34 149.43 83.01 147.19
  L 79.62 137.45
  Q 88.12 142.56 90.48 151.47
  A 0.43 0.43 0.0 0 0 91.28 151.56
  Q 98.99 136.57 101.52 120.87
  Q 103.41 109.14 103.02 89.19
  C 102.99 87.87 102.64 86.97 102.27 85.51
  A 5.74 5.68 -51.3 0 1 102.09 83.80
  C 102.23 80.82 101.32 78.22 100.76 75.03
  Q 99.29 66.73 98.00 62.74
  Q 96.79 59.03 95.85 54.98
  A 4.74 4.67 26.2 0 0 95.54 54.09
  L 94.14 51.14
  A 1.01 1.00 52.5 0 1 94.27 50.09
  Q 95.36 48.72 94.32 48.63
  L 101.50 46.69
  Z"
/>
<path fill="#f1e5cc" d="
  M 94.32 48.63
  Q 95.36 48.72 94.27 50.09
  A 1.01 1.00 52.5 0 0 94.14 51.14
  L 95.54 54.09
  A 4.74 4.67 26.2 0 1 95.85 54.98
  Q 96.79 59.03 98.00 62.74
  Q 99.29 66.73 100.76 75.03
  C 101.32 78.22 102.23 80.82 102.09 83.80
  A 5.74 5.68 -51.3 0 0 102.27 85.51
  C 102.64 86.97 102.99 87.87 103.02 89.19
  Q 103.41 109.14 101.52 120.87
  Q 98.99 136.57 91.28 151.56
  A 0.43 0.43 0.0 0 1 90.48 151.47
  Q 88.12 142.56 79.62 137.45
  Q 77.76 134.92 76.63 134.07
  Q 72.93 131.33 69.25 134.10
  C 64.80 137.43 63.30 144.07 62.47 149.43
  Q 61.07 158.45 61.51 168.69
  C 61.58 170.39 62.07 173.30 61.88 175.74
  Q 57.93 176.21 56.80 175.99
  Q 51.03 174.84 49.63 175.10
  A 1.42 1.36 -38.3 0 1 48.88 175.03
  Q 44.38 173.24 43.18 171.48
  A 3.45 3.32 -72.6 0 1 42.77 170.66
  L 40.10 163.10
  A 0.24 0.17 -79.1 0 0 40.07 163.03
  Q 35.34 155.71 34.53 145.59
  A 5.51 5.26 -56.2 0 0 34.36 144.61
  Q 30.69 130.68 30.33 126.21
  Q 29.89 120.69 29.45 115.61
  Q 28.87 108.98 28.84 104.99
  Q 28.72 91.89 30.45 78.97
  Q 31.30 72.67 34.02 64.58
  C 35.42 60.42 36.49 54.77 38.15 50.64
  Q 38.72 49.22 40.87 47.03
  L 46.89 49.12
  A 2.18 2.16 -31.1 0 0 47.30 49.22
  Q 51.09 49.65 53.60 50.39
  C 55.93 51.07 57.77 50.64 60.00 51.22
  Q 60.88 51.46 62.55 51.54
  Q 78.62 52.39 94.32 48.63
  Z
  M 63.83 119.73
  Q 63.85 119.76 63.88 119.80
  Q 65.22 122.34 67.48 122.34
  Q 71.75 122.34 75.31 122.70
  A 1.33 1.29 -45.8 0 0 75.67 122.69
  L 82.74 121.51
  A 1.39 1.13 24.4 0 0 82.97 121.45
  Q 101.43 114.10 101.71 94.25
  A 4.39 4.36 39.1 0 0 101.61 93.32
  Q 100.85 89.94 100.69 86.52
  Q 100.58 84.05 97.75 82.72
  L 94.75 77.75
  Q 93.56 72.44 91.27 70.45
  Q 89.64 69.05 82.78 65.57
  C 74.23 61.24 64.97 62.37 56.87 66.94
  C 53.59 68.79 51.54 70.00 49.43 72.68
  Q 44.75 78.64 42.85 85.11
  A 0.42 0.42 0.0 0 1 42.40 85.41
  L 41.99 85.37
  A 0.22 0.21 7.9 0 1 41.80 85.13
  L 42.79 76.09
  A 1.57 1.43 64.2 0 1 42.95 75.55
  Q 46.66 68.57 47.98 59.36
  A 2.18 2.01 42.7 0 0 47.91 58.48
  Q 47.17 55.89 45.07 54.37
  A 0.95 0.95 0.0 0 0 43.91 54.40
  Q 38.97 58.44 37.54 63.02
  Q 35.84 68.49 37.43 75.18
  A 1.13 1.13 0.0 0 1 37.24 76.13
  Q 32.88 82.15 36.32 89.74
  A 1.10 1.09 65.2 0 0 37.78 90.28
  L 41.13 88.70
  A 0.61 0.61 0.0 0 1 42.00 89.32
  C 40.37 104.62 49.81 116.52 63.89 121.54
  A 0.29 0.29 0.0 0 0 64.16 121.03
  Q 63.61 120.64 63.83 119.73
  Z"
/>
<path fill="#fefefc" d="
  M 94.75 77.75
  Q 89.83 70.83 82.02 66.88
  A 8.62 8.56 63.2 0 0 79.58 66.07
  Q 76.73 65.56 73.61 65.01
  C 71.43 64.62 69.94 65.31 67.92 65.12
  A 3.38 3.20 -46.6 0 0 66.84 65.18
  Q 46.85 69.47 43.87 89.28
  C 43.33 92.85 44.01 95.81 44.29 99.20
  A 5.62 5.50 31.4 0 0 44.71 100.86
  C 48.87 110.38 54.02 115.73 63.83 119.73
  Q 63.61 120.64 64.16 121.03
  A 0.29 0.29 0.0 0 1 63.89 121.54
  C 49.81 116.52 40.37 104.62 42.00 89.32
  A 0.61 0.61 0.0 0 0 41.13 88.70
  L 37.78 90.28
  A 1.10 1.09 65.2 0 1 36.32 89.74
  Q 32.88 82.15 37.24 76.13
  A 1.13 1.13 0.0 0 0 37.43 75.18
  Q 35.84 68.49 37.54 63.02
  Q 38.97 58.44 43.91 54.40
  A 0.95 0.95 0.0 0 1 45.07 54.37
  Q 47.17 55.89 47.91 58.48
  A 2.18 2.01 42.7 0 1 47.98 59.36
  Q 46.66 68.57 42.95 75.55
  A 1.57 1.43 64.2 0 0 42.79 76.09
  L 41.80 85.13
  A 0.22 0.21 7.9 0 0 41.99 85.37
  L 42.40 85.41
  A 0.42 0.42 0.0 0 0 42.85 85.11
  Q 44.75 78.64 49.43 72.68
  C 51.54 70.00 53.59 68.79 56.87 66.94
  C 64.97 62.37 74.23 61.24 82.78 65.57
  Q 89.64 69.05 91.27 70.45
  Q 93.56 72.44 94.75 77.75
  Z"
/>
<path fill="#414b6b" d="
  M 94.75 77.75
  L 97.75 82.72
  L 99.05 90.41
  A 2.83 2.67 43.3 0 1 99.09 91.07
  L 98.78 97.92
  A 2.68 2.31 -40.8 0 1 98.70 98.46
  Q 93.76 117.13 75.34 120.09
  Q 73.02 120.46 69.62 120.22
  Q 66.81 120.01 63.88 119.80
  Q 63.85 119.76 63.83 119.73
  C 54.02 115.73 48.87 110.38 44.71 100.86
  A 5.62 5.50 31.4 0 1 44.29 99.20
  C 44.01 95.81 43.33 92.85 43.87 89.28
  Q 46.85 69.47 66.84 65.18
  A 3.38 3.20 -46.6 0 1 67.92 65.12
  C 69.94 65.31 71.43 64.62 73.61 65.01
  Q 76.73 65.56 79.58 66.07
  A 8.62 8.56 63.2 0 1 82.02 66.88
  Q 89.83 70.83 94.75 77.75
  Z
  M 50.84 106.30
  Q 54.93 113.49 63.42 115.37
  Q 64.01 116.37 64.83 117.07
  A 1.89 1.88 68.1 0 0 65.76 117.47
  Q 72.08 118.30 78.54 116.63
  Q 84.96 114.97 89.23 109.96
  Q 94.98 103.22 96.05 94.32
  A 3.32 3.25 41.8 0 0 95.97 93.13
  Q 95.44 91.05 95.91 89.02
  A 1.41 1.40 36.6 0 0 95.75 87.98
  L 94.39 85.67
  Q 93.47 83.49 92.53 81.16
  Q 89.90 74.71 83.77 71.51
  Q 76.97 67.97 72.34 67.78
  Q 65.49 67.63 60.47 70.20
  Q 45.50 77.85 46.77 95.21
  Q 47.15 100.32 50.84 106.30
  Z"
/>
<path fill="#e2d9e8" d="
  M 72.34 67.78
  Q 68.99 69.88 64.97 70.35
  A 3.60 3.53 29.6 0 0 63.99 70.61
  Q 55.29 74.32 51.45 81.38
  Q 48.01 87.72 48.60 95.34
  Q 48.69 96.54 50.03 100.55
  Q 50.97 103.40 50.84 106.30
  Q 47.15 100.32 46.77 95.21
  Q 45.50 77.85 60.47 70.20
  Q 65.49 67.63 72.34 67.78
  Z"
/>
<path fill="#99a8c1" d="
  M 94.39 85.67
  C 94.60 91.69 94.17 97.42 91.08 102.36
  Q 83.41 114.65 69.06 115.80
  C 67.21 115.95 65.38 115.41 63.42 115.37
  Q 54.93 113.49 50.84 106.30
  Q 50.97 103.40 50.03 100.55
  Q 48.69 96.54 48.60 95.34
  Q 48.01 87.72 51.45 81.38
  Q 55.29 74.32 63.99 70.61
  A 3.60 3.53 29.6 0 1 64.97 70.35
  Q 68.99 69.88 72.34 67.78
  Q 76.97 67.97 83.77 71.51
  Q 89.90 74.71 92.53 81.16
  Q 93.47 83.49 94.39 85.67
  Z
  M 89.47 92.43
  A 18.41 18.41 0.0 0 0 71.06 74.02
  A 18.41 18.41 0.0 0 0 52.65 92.43
  A 18.41 18.41 0.0 0 0 71.06 110.84
  A 18.41 18.41 0.0 0 0 89.47 92.43
  Z"
/>
<path fill="#414b6b" d="
  M 89.47 92.43
  A 18.41 18.41 0.0 0 1 71.06 110.84
  A 18.41 18.41 0.0 0 1 52.65 92.43
  A 18.41 18.41 0.0 0 1 71.06 74.02
  A 18.41 18.41 0.0 0 1 89.47 92.43
  Z
  M 55.97 96.86
  A 15.86 15.85 5.1 0 0 64.25 106.77
  A 15.80 15.80 0.0 0 0 74.41 108.05
  A 15.83 15.82 79.8 0 0 86.86 90.16
  A 15.96 15.83 -65.4 0 0 84.66 84.18
  A 15.91 15.86 89.0 0 0 79.16 78.85
  A 15.80 15.74 60.9 0 0 71.75 76.72
  A 15.95 15.78 34.9 0 0 65.41 77.81
  A 15.83 15.83 0.0 0 0 55.97 96.86
  Z"
/>
<path fill="#69cae6" d="
  M 84.66 84.18
  Q 83.36 87.68 82.14 90.98
  Q 80.35 95.82 79.01 97.45
  Q 74.70 102.66 67.03 102.24
  C 61.91 101.96 58.38 95.74 57.67 91.31
  A 0.27 0.27 0.0 0 0 57.14 91.33
  Q 56.94 93.58 57.10 95.77
  Q 57.14 96.40 56.87 96.64
  Q 56.57 96.91 55.97 96.86
  A 15.83 15.83 0.0 0 1 65.41 77.81
  A 15.95 15.78 34.9 0 1 71.75 76.72
  A 15.80 15.74 60.9 0 1 79.16 78.85
  A 15.91 15.86 89.0 0 1 84.66 84.18
  Z
  M 70.7425 81.0901
  A 5.94 4.26 -36.7 0 0 63.4341 81.2244
  A 5.94 4.26 -36.7 0 0 61.2175 88.1899
  A 5.94 4.26 -36.7 0 0 68.5259 88.0556
  A 5.94 4.26 -36.7 0 0 70.7425 81.0901
  Z"
/>
<ellipse fill="#d4f6fb" cx="0.00" cy="0.00" transform="translate(65.98,84.64) rotate(-36.7)" rx="5.94" ry="4.26"/>
<path fill="#beb8c5" d="
  M 63.88 119.80
  Q 66.81 120.01 69.62 120.22
  Q 73.02 120.46 75.34 120.09
  Q 93.76 117.13 98.70 98.46
  A 2.68 2.31 -40.8 0 0 98.78 97.92
  L 99.09 91.07
  A 2.83 2.67 43.3 0 0 99.05 90.41
  L 97.75 82.72
  Q 100.58 84.05 100.69 86.52
  Q 100.85 89.94 101.61 93.32
  A 4.39 4.36 39.1 0 1 101.71 94.25
  Q 101.43 114.10 82.97 121.45
  A 1.39 1.13 24.4 0 1 82.74 121.51
  L 75.67 122.69
  A 1.33 1.29 -45.8 0 1 75.31 122.70
  Q 71.75 122.34 67.48 122.34
  Q 65.22 122.34 63.88 119.80
  Z"
/>
<path fill="#59ade0" d="
  M 86.86 90.16
  Q 85.31 97.90 81.97 101.70
  Q 75.41 109.15 65.43 105.69
  A 0.72 0.69 -40.6 0 0 65.06 105.67
  Q 64.20 105.84 64.25 106.77
  A 15.86 15.85 5.1 0 1 55.97 96.86
  Q 56.57 96.91 56.87 96.64
  Q 57.14 96.40 57.10 95.77
  Q 56.94 93.58 57.14 91.33
  A 0.27 0.27 0.0 0 1 57.67 91.31
  C 58.38 95.74 61.91 101.96 67.03 102.24
  Q 74.70 102.66 79.01 97.45
  Q 80.35 95.82 82.14 90.98
  Q 83.36 87.68 84.66 84.18
  A 15.96 15.83 -65.4 0 1 86.86 90.16
  Z"
/>
<path fill="#7185ac" d="
  M 94.39 85.67
  L 95.75 87.98
  A 1.41 1.40 36.6 0 1 95.91 89.02
  Q 95.44 91.05 95.97 93.13
  A 3.32 3.25 41.8 0 1 96.05 94.32
  Q 94.98 103.22 89.23 109.96
  Q 84.96 114.97 78.54 116.63
  Q 72.08 118.30 65.76 117.47
  A 1.89 1.88 68.1 0 1 64.83 117.07
  Q 64.01 116.37 63.42 115.37
  C 65.38 115.41 67.21 115.95 69.06 115.80
  Q 83.41 114.65 91.08 102.36
  C 94.17 97.42 94.60 91.69 94.39 85.67
  Z"
/>
<path fill="#69cae6" d="
  M 86.86 90.16
  A 15.83 15.82 79.8 0 1 74.41 108.05
  A 15.80 15.80 0.0 0 1 64.25 106.77
  Q 64.20 105.84 65.06 105.67
  A 0.72 0.69 -40.6 0 1 65.43 105.69
  Q 75.41 109.15 81.97 101.70
  Q 85.31 97.90 86.86 90.16
  Z"
/>
<path fill="#6e1214" d="
  M 125.60 127.00
  C 133.01 132.50 137.26 139.23 142.48 147.16
  A 3.68 3.66 19.8 0 1 142.95 148.15
  L 146.05 158.60
  A 1.04 0.97 43.0 0 1 146.08 159.02
  Q 145.80 160.92 146.45 163.71
  A 4.91 4.66 40.7 0 1 146.59 165.08
  Q 145.94 182.96 139.15 200.33
  A 1.94 1.93 -86.5 0 1 137.85 201.49
  Q 136.78 201.76 135.58 202.74
  A 1.37 1.35 26.9 0 1 134.61 203.05
  Q 132.07 202.88 130.65 202.06
  A 2.88 2.85 1.3 0 1 129.52 200.89
  Q 126.97 195.99 123.99 189.75
  Q 121.07 183.65 115.69 179.06
  C 113.80 177.45 111.28 176.39 109.01 175.06
  Q 110.76 173.24 111.77 170.84
  L 118.66 175.50
  L 127.28 185.62
  A 1.68 1.53 15.7 0 1 127.48 185.94
  L 133.09 197.82
  A 0.76 0.76 0.0 0 0 134.44 197.86
  Q 140.37 187.18 141.01 176.94
  Q 143.09 163.99 139.49 151.81
  A 5.28 5.10 -68.8 0 0 139.02 150.69
  C 136.14 145.49 133.44 140.03 128.82 135.96
  Q 127.13 133.04 123.73 131.11
  Q 124.17 127.67 125.60 127.00
  Z"
/>
<path fill="#6e1214" d="
  M 20.78 127.33
  Q 22.14 127.96 22.85 131.87
  L 17.66 137.36
  Q 9.11 145.92 7.05 159.01
  Q 5.27 170.30 8.18 182.10
  Q 9.71 188.29 12.22 193.04
  Q 12.60 196.27 15.33 199.66
  A 1.10 1.10 0.0 0 0 17.00 199.70
  Q 17.85 198.75 18.39 197.18
  Q 19.91 192.72 21.57 188.34
  Q 24.09 181.73 32.10 175.66
  L 36.62 173.12
  Q 38.83 176.83 37.14 178.06
  Q 31.47 180.68 28.48 186.62
  A 6.24 5.95 79.9 0 1 27.65 187.87
  L 25.24 190.65
  A 2.44 2.15 -16.9 0 0 24.85 191.28
  Q 24.41 192.37 22.65 198.92
  C 21.79 202.12 18.73 206.11 14.98 204.91
  A 2.05 1.95 -10.5 0 1 14.12 204.35
  Q 10.02 199.75 7.08 194.77
  Q 5.51 192.14 4.68 187.66
  A 4.42 4.29 28.9 0 0 4.39 186.71
  Q 2.99 183.40 2.92 182.54
  Q 2.50 176.59 1.98 175.69
  A 1.94 1.91 31.6 0 1 1.81 175.00
  L 1.41 168.02
  A 1.72 1.62 -43.2 0 1 1.44 167.54
  Q 1.81 165.37 2.00 163.25
  Q 3.89 141.92 20.78 127.33
  Z"
/>
<path fill="#c83c4b" d="
  M 128.82 135.96
  Q 127.78 139.26 129.83 143.28
  Q 127.36 151.61 125.20 159.95
  Q 123.08 168.18 118.66 175.50
  L 111.77 170.84
  Q 114.59 165.23 115.12 163.58
  Q 119.04 151.32 122.32 138.88
  A 7.57 7.02 -37.6 0 0 122.53 137.63
  Q 122.79 134.38 123.73 131.11
  Q 127.13 133.04 128.82 135.96
  Z"
/>
<path fill="#c83c4b" d="
  M 36.62 173.12
  L 32.10 175.66
  L 26.32 167.39
  A 0.38 0.32 21.6 0 1 26.25 167.26
  L 21.95 156.67
  A 9.65 8.51 77.2 0 1 21.51 155.38
  L 17.97 142.69
  A 1.65 1.60 39.0 0 1 17.90 142.10
  L 18.00 139.04
  Q 18.39 138.58 18.35 138.00
  Q 18.31 137.55 17.66 137.36
  L 22.85 131.87
  Q 23.77 137.82 25.69 143.08
  A 4.94 4.71 32.3 0 1 25.93 144.04
  Q 26.85 150.96 29.70 157.20
  Q 31.15 160.39 32.80 164.94
  Q 34.34 169.21 36.62 173.12
  Z"
/>
<path fill="#6e1214" d="
  M 79.62 137.45
  L 83.01 147.19
  C 83.17 150.58 84.24 154.11 84.51 156.99
  Q 85.51 167.61 84.78 178.32
  Q 84.16 179.99 84.18 182.11
  L 82.99 193.25
  Q 82.12 195.37 82.16 197.68
  C 80.07 202.33 80.23 211.95 72.44 210.77
  C 70.30 210.44 69.32 208.56 68.61 206.66
  Q 66.96 202.27 65.42 197.86
  Q 66.03 195.49 64.55 192.98
  L 63.57 186.97
  L 62.90 182.48
  Q 63.59 180.04 62.26 178.27
  L 61.88 175.74
  C 62.07 173.30 61.58 170.39 61.51 168.69
  Q 61.07 158.45 62.47 149.43
  C 63.30 144.07 64.80 137.43 69.25 134.10
  Q 72.93 131.33 76.63 134.07
  Q 77.76 134.92 79.62 137.45
  Z
  M 72.11 136.54
  Q 70.04 137.87 69.28 140.06
  C 65.71 150.30 65.42 161.19 66.53 172.75
  Q 67.10 178.65 67.18 179.91
  C 67.37 182.52 68.24 185.49 68.65 188.59
  Q 69.44 194.43 73.00 205.72
  Q 73.17 206.17 73.43 206.40
  A 0.62 0.61 -51.6 0 0 74.34 206.29
  Q 76.20 203.69 76.89 200.37
  Q 77.76 196.12 79.49 185.53
  C 80.80 177.56 81.02 169.90 80.64 162.26
  Q 80.46 158.81 79.56 153.15
  Q 78.88 148.90 78.09 146.35
  C 77.17 143.38 76.40 137.84 73.58 135.73
  Q 72.99 135.29 72.39 135.72
  Q 71.89 136.08 72.11 136.54
  Z"
/>
<path fill="#c83c4b" d="
  M 73.00 205.72
  Q 73.83 205.89 74.20 205.15
  A 0.97 0.96 52.5 0 0 74.28 204.52
  L 73.09 199.35
  Q 75.62 189.91 75.67 180.30
  Q 75.68 177.84 75.12 162.99
  Q 75.08 161.84 75.45 159.62
  A 4.87 4.74 46.6 0 0 75.47 158.11
  L 72.71 138.44
  Q 73.45 136.34 72.11 136.54
  Q 71.89 136.08 72.39 135.72
  Q 72.99 135.29 73.58 135.73
  C 76.40 137.84 77.17 143.38 78.09 146.35
  Q 78.88 148.90 79.56 153.15
  Q 80.46 158.81 80.64 162.26
  C 81.02 169.90 80.80 177.56 79.49 185.53
  Q 77.76 196.12 76.89 200.37
  Q 76.20 203.69 74.34 206.29
  A 0.62 0.61 -51.6 0 1 73.43 206.40
  Q 73.17 206.17 73.00 205.72
  Z"
/>
<path fill="#f9a08b" d="
  M 128.82 135.96
  C 133.44 140.03 136.14 145.49 139.02 150.69
  A 5.28 5.10 -68.8 0 1 139.49 151.81
  Q 143.09 163.99 141.01 176.94
  Q 139.48 176.98 140.39 173.77
  A 3.33 3.29 50.4 0 0 140.49 172.63
  C 140.18 169.43 140.34 166.63 139.46 163.28
  Q 136.61 152.35 129.83 143.28
  Q 127.78 139.26 128.82 135.96
  Z"
/>
<path fill="#f9a08b" d="
  M 72.71 138.44
  Q 70.47 140.55 69.97 143.96
  Q 69.31 148.43 70.01 153.21
  Q 70.48 156.42 68.85 160.19
  A 3.43 3.42 -32.7 0 0 68.58 161.42
  Q 68.35 167.89 68.51 169.25
  Q 69.94 181.75 71.42 193.52
  Q 71.75 196.13 73.09 199.35
  L 74.28 204.52
  A 0.97 0.96 52.5 0 1 74.20 205.15
  Q 73.83 205.89 73.00 205.72
  Q 69.44 194.43 68.65 188.59
  C 68.24 185.49 67.37 182.52 67.18 179.91
  Q 67.10 178.65 66.53 172.75
  C 65.42 161.19 65.71 150.30 69.28 140.06
  Q 70.04 137.87 72.11 136.54
  Q 73.45 136.34 72.71 138.44
  Z"
/>
<path fill="#f9a08b" d="
  M 17.66 137.36
  Q 18.31 137.55 18.35 138.00
  Q 18.39 138.58 18.00 139.04
  L 17.59 142.27
  A 2.34 2.33 64.1 0 1 17.27 143.20
  C 13.75 149.10 9.97 155.97 9.44 163.25
  Q 8.38 177.81 12.22 193.04
  Q 9.71 188.29 8.18 182.10
  Q 5.27 170.30 7.05 159.01
  Q 9.11 145.92 17.66 137.36
  Z"
/>
<path fill="#f55641" d="
  M 72.71 138.44
  L 75.47 158.11
  A 4.87 4.74 46.6 0 1 75.45 159.62
  Q 75.08 161.84 75.12 162.99
  Q 75.68 177.84 75.67 180.30
  Q 75.62 189.91 73.09 199.35
  Q 71.75 196.13 71.42 193.52
  Q 69.94 181.75 68.51 169.25
  Q 68.35 167.89 68.58 161.42
  A 3.43 3.42 -32.7 0 1 68.85 160.19
  Q 70.48 156.42 70.01 153.21
  Q 69.31 148.43 69.97 143.96
  Q 70.47 140.55 72.71 138.44
  Z"
/>
<path fill="#f55641" d="
  M 18.00 139.04
  L 17.90 142.10
  A 1.65 1.60 39.0 0 0 17.97 142.69
  L 21.51 155.38
  A 9.65 8.51 77.2 0 0 21.95 156.67
  L 26.25 167.26
  A 0.38 0.32 21.6 0 0 26.32 167.39
  L 32.10 175.66
  Q 24.09 181.73 21.57 188.34
  Q 19.91 192.72 18.39 197.18
  Q 17.85 198.75 17.00 199.70
  A 1.10 1.10 0.0 0 1 15.33 199.66
  Q 12.60 196.27 12.22 193.04
  Q 8.38 177.81 9.44 163.25
  C 9.97 155.97 13.75 149.10 17.27 143.20
  A 2.34 2.33 64.1 0 0 17.59 142.27
  L 18.00 139.04
  Z"
/>
<path fill="#f55641" d="
  M 141.01 176.94
  Q 140.37 187.18 134.44 197.86
  A 0.76 0.76 0.0 0 1 133.09 197.82
  L 127.48 185.94
  A 1.68 1.53 15.7 0 0 127.28 185.62
  L 118.66 175.50
  Q 123.08 168.18 125.20 159.95
  Q 127.36 151.61 129.83 143.28
  Q 136.61 152.35 139.46 163.28
  C 140.34 166.63 140.18 169.43 140.49 172.63
  A 3.33 3.29 50.4 0 1 140.39 173.77
  Q 139.48 176.98 141.01 176.94
  Z"
/>
<path fill="#667199" d="
  M 82.99 193.25
  L 84.18 182.11
  Q 89.23 182.27 92.07 181.34
  Q 95.92 180.09 99.32 179.70
  A 0.48 0.47 70.9 0 1 99.79 179.93
  Q 100.79 181.61 100.94 184.18
  C 101.40 192.27 89.20 192.70 82.99 193.25
  Z"
/>
<path fill="#7185ac" d="
  M 62.90 182.48
  L 63.57 186.97
  Q 60.75 188.00 55.98 184.78
  Q 53.72 183.25 50.52 184.26
  Q 48.58 182.50 48.92 183.73
  Q 48.37 181.99 49.31 180.96
  A 1.02 1.02 0.0 0 1 50.29 180.65
  Q 53.62 181.36 57.04 181.74
  C 58.60 181.91 60.75 182.89 62.90 182.48
  Z"
/>
<path fill="#e2d9e8" d="
  M 50.52 184.26
  Q 50.76 187.57 53.07 189.17
  A 0.58 0.53 -83.9 0 1 53.27 189.44
  Q 53.51 190.16 52.47 190.56
  C 48.83 190.27 48.43 186.66 48.92 183.73
  Q 48.58 182.50 50.52 184.26
  Z"
/>
<path fill="#99a8c1" d="
  M 63.57 186.97
  L 64.55 192.98
  Q 58.38 192.67 52.47 190.56
  Q 53.51 190.16 53.27 189.44
  A 0.58 0.53 -83.9 0 0 53.07 189.17
  Q 50.76 187.57 50.52 184.26
  Q 53.72 183.25 55.98 184.78
  Q 60.75 188.00 63.57 186.97
  Z"
/>
<path fill="#c14d2a" d="
  M 96.89 195.80
  L 102.89 207.07
  A 4.07 3.90 25.3 0 1 103.20 207.88
  L 105.13 215.27
  A 3.31 3.15 -54.9 0 1 105.25 216.07
  Q 105.40 222.69 104.41 228.46
  Q 103.20 235.53 99.81 242.01
  A 0.63 0.63 0.0 0 1 98.94 242.27
  L 92.41 238.49
  A 0.37 0.37 0.0 0 0 91.86 238.77
  Q 90.12 252.59 81.41 263.55
  Q 80.37 264.39 80.72 265.20
  L 76.06 270.32
  A 0.46 0.46 0.0 0 1 75.38 270.32
  C 71.03 265.55 66.97 260.01 64.08 254.12
  Q 62.74 251.38 61.14 248.90
  A 0.68 0.65 -70.5 0 1 61.04 248.68
  L 58.57 239.16
  A 0.55 0.54 69.9 0 0 57.81 238.80
  L 51.99 241.55
  A 0.51 0.51 0.0 0 1 51.33 241.34
  L 48.40 236.17
  A 3.07 2.96 22.2 0 1 48.17 235.65
  Q 47.07 232.28 45.67 226.25
  Q 45.04 223.51 45.44 218.24
  Q 45.71 214.67 47.28 210.46
  Q 49.95 203.31 54.22 196.68
  Q 56.11 196.35 58.73 197.07
  Q 57.28 199.28 55.73 201.46
  C 49.50 210.19 49.19 219.58 51.11 229.72
  Q 51.83 233.52 52.68 235.34
  A 0.55 0.55 0.0 0 0 53.57 235.49
  L 59.04 230.02
  A 1.35 1.34 24.2 0 1 60.08 229.63
  Q 61.92 229.73 62.22 231.89
  Q 63.21 239.24 65.23 245.05
  Q 66.82 249.63 71.84 258.91
  Q 73.46 261.92 75.26 263.77
  A 0.88 0.88 0.0 0 0 76.64 263.61
  C 82.13 254.61 86.61 247.28 88.03 236.21
  Q 88.38 233.46 89.08 230.74
  A 0.87 0.87 0.0 0 1 89.91 230.09
  C 92.81 230.07 95.05 233.50 96.80 235.79
  A 0.71 0.71 0.0 0 0 98.02 235.61
  Q 100.95 227.95 100.98 220.07
  C 100.99 217.11 100.11 214.77 99.68 212.01
  Q 99.28 209.40 97.74 206.25
  Q 95.10 200.87 91.50 196.73
  L 96.89 195.80
  Z"
/>
<path fill="#f98b39" d="
  M 63.21 198.02
  Q 58.74 203.64 58.55 210.53
  Q 58.49 212.94 59.30 216.09
  Q 60.40 220.34 60.85 221.54
  A 1.09 1.09 0.0 0 0 62.64 221.92
  L 65.90 218.67
  A 0.38 0.38 0.0 0 1 66.54 218.85
  L 69.04 229.20
  A 3.32 3.28 20.9 0 0 69.59 230.41
  L 74.95 237.93
  A 0.83 0.83 0.0 0 0 76.21 238.05
  C 78.99 235.36 80.27 232.14 82.12 227.99
  C 84.06 223.64 84.69 219.90 84.66 215.07
  A 0.61 0.60 27.2 0 1 85.76 214.72
  L 89.56 220.05
  A 0.60 0.60 0.0 0 0 90.61 219.92
  C 92.45 215.30 93.16 211.58 91.67 206.42
  Q 90.34 201.77 88.19 197.23
  Q 89.36 197.41 91.50 196.73
  Q 95.10 200.87 97.74 206.25
  Q 99.28 209.40 99.68 212.01
  C 100.11 214.77 100.99 217.11 100.98 220.07
  Q 100.95 227.95 98.02 235.61
  A 0.71 0.71 0.0 0 1 96.80 235.79
  C 95.05 233.50 92.81 230.07 89.91 230.09
  A 0.87 0.87 0.0 0 0 89.08 230.74
  Q 88.38 233.46 88.03 236.21
  C 86.61 247.28 82.13 254.61 76.64 263.61
  A 0.88 0.88 0.0 0 1 75.26 263.77
  Q 73.46 261.92 71.84 258.91
  Q 66.82 249.63 65.23 245.05
  Q 63.21 239.24 62.22 231.89
  Q 61.92 229.73 60.08 229.63
  A 1.35 1.34 24.2 0 0 59.04 230.02
  L 53.57 235.49
  A 0.55 0.55 0.0 0 1 52.68 235.34
  Q 51.83 233.52 51.11 229.72
  C 49.19 219.58 49.50 210.19 55.73 201.46
  Q 57.28 199.28 58.73 197.07
  Q 60.80 196.87 63.21 198.02
  Z"
/>
<path fill="#fee06a" d="
  M 88.19 197.23
  Q 90.34 201.77 91.67 206.42
  C 93.16 211.58 92.45 215.30 90.61 219.92
  A 0.60 0.60 0.0 0 1 89.56 220.05
  L 85.76 214.72
  A 0.61 0.60 27.2 0 0 84.66 215.07
  C 84.69 219.90 84.06 223.64 82.12 227.99
  C 80.27 232.14 78.99 235.36 76.21 238.05
  A 0.83 0.83 0.0 0 1 74.95 237.93
  L 69.59 230.41
  A 3.32 3.28 20.9 0 1 69.04 229.20
  L 66.54 218.85
  A 0.38 0.38 0.0 0 0 65.90 218.67
  L 62.64 221.92
  A 1.09 1.09 0.0 0 1 60.85 221.54
  Q 60.40 220.34 59.30 216.09
  Q 58.49 212.94 58.55 210.53
  Q 58.74 203.64 63.21 198.02
  L 65.42 197.86
  Q 66.96 202.27 68.61 206.66
  C 69.32 208.56 70.30 210.44 72.44 210.77
  C 80.23 211.95 80.07 202.33 82.16 197.68
  L 88.19 197.23
  Z"
/>
<path fill="#6e1214" d="
  M 81.41 263.55
  Q 81.55 264.73 80.72 265.20
  Q 80.37 264.39 81.41 263.55
  Z"
/>
</svg>
